<svg xmlns="http://www.w3.org/2000/svg" viewBox="0 0 900 330"><defs><style>.a{fill:#fddfe0;}.b{fill:#ed2627;}.c{fill:none;stroke:#ed2627;stroke-miterlimit:10;stroke-width:2px;}.d{fill:#4b4b4b;}</style></defs><rect class="a" x="526" y="127" width="62" height="62"/><circle class="a" cx="283.5" cy="166.5" r="157"/><path class="b" d="M283.5,11.5A155,155,0,0,1,393.1,276.1,155,155,0,1,1,173.9,56.9,154,154,0,0,1,283.5,11.5m0-4a159,159,0,1,0,159,159,159,159,0,0,0-159-159Z"/><line class="c" x1="284.5" y1="167" x2="438.5" y2="167"/><path class="b" d="M371,145.05v4.63a6.7,6.7,0,0,0-1.49-.15,3.47,3.47,0,0,0-2.58,1,4.33,4.33,0,0,0-1,3.15v6.7h-4.7V145.05h4.54v2.07a3.43,3.43,0,0,1,1.7-1.7,5.5,5.5,0,0,1,2.29-.53A4.19,4.19,0,0,1,371,145.05Z"/><path class="b" d="M566.09,173l-2.34-6.59H551.2L548.87,173h-7.61l12.23-32.47h8.39L574,173Zm-8.52-24.41-4,11.22h7.88Z"/><path class="d" d="M621.55,157.28H599.8V153h21.75Zm0,9H599.8V162h21.75Z"/><path class="d" d="M663.69,172.77l-.14,0a3.09,3.09,0,0,1-.48.18,6.66,6.66,0,0,1-.69.19c-.26.06-.58.11-1,.16a11.14,11.14,0,0,1-1.17.07,6.91,6.91,0,0,1-5.24-1.9,7.3,7.3,0,0,1-1.81-5.25V156.14h-5.31V173h-7V156.14h-3.8v-5.91H663.6v5.91h-3.44v9.16a1.84,1.84,0,0,0,2.11,2.06,6.49,6.49,0,0,0,1.42-.14Z"/><path class="d" d="M677,168l5.08-7.16-5.08-7.1h4.58l1.44,2.13q1.17,1.72,1.41,2.1l2.81-4.23h4.38l-5,7,5.16,7.27h-4.52l-3-4.37c-.1.15-.37.57-.83,1.24l-1.27,1.9L681.3,168Z"/><path class="b" d="M720.84,150.23v6.87a9.65,9.65,0,0,0-2.2-.23,5.15,5.15,0,0,0-3.82,1.51,6.42,6.42,0,0,0-1.49,4.68V173h-7V150.23h6.73v3.07a5.07,5.07,0,0,1,2.52-2.52A8,8,0,0,1,719,150,6.62,6.62,0,0,1,720.84,150.23Z"/><path class="d" d="M728.81,150h-4.58a5.35,5.35,0,0,1-.18-1.24,5.52,5.52,0,0,1,1.78-4.17,7,7,0,0,1,5-1.69,7.12,7.12,0,0,1,5,1.65,5.24,5.24,0,0,1,1.83,4.07q0,3-3.85,5.22l-3.07,1.79c-.15.09-.23.17-.23.23h7.29v4.35H724v-.6a7.9,7.9,0,0,1,4.17-7.42l2.75-1.55c1.1-.61,1.65-1.3,1.65-2.06a1.62,1.62,0,0,0-.44-1.06,1.71,1.71,0,0,0-1.35-.5,1.9,1.9,0,0,0-1.53.62,2.36,2.36,0,0,0-.53,1.58A1.84,1.84,0,0,0,728.81,150Z"/><circle class="b" cx="283.5" cy="166.5" r="4.5"/></svg>