<svg xmlns="http://www.w3.org/2000/svg" xmlns:xlink="http://www.w3.org/1999/xlink" viewBox="0 0 900 450"><defs><style>.a{fill:#f1e5ce;}.b{fill:#fef6ea;}.c{isolation:isolate;}.d,.k{fill:#4b4b4b;}.e{fill:#fff;}.f{fill:#ed2627;}.g{fill:#fddfe0;opacity:0.8;}.h{fill:#cd362c;}.i{fill:#741a14;}.j{fill:#a92b22;}.k{opacity:0.2;}.k,.p{mix-blend-mode:multiply;}.l{fill:#c29644;}.m{fill:#fec75e;}.n{fill:#7e73ff;}.o{fill:#6057c2;}.p{fill:#574fb0;opacity:0.3;}.q{fill:none;stroke:#7e73ff;stroke-miterlimit:10;stroke-width:3px;stroke-dasharray:4;}</style><symbol id="a" viewBox="0 0 155.19 57.24"><path class="a" d="M155.18,25.61c0,4.39-3.39,8.84-10.56,12.9C123,50.73,75.53,54.86,38.52,47.74,13.82,43,0,34.42,0,25.61H0v6H0C0,40.44,13.82,49,38.52,53.75c37,7.13,84.52,3,106.1-9.22,7.17-4.06,10.58-8.51,10.56-12.9h0v-6Z"/><path class="b" d="M116.67,3.49c-37-7.12-84.52-3-106.1,9.23C3.4,16.78,0,21.22,0,25.61v.19a3.52,3.52,0,0,0,.05.64c0,.13,0,.27.05.41a9.11,9.11,0,0,0,.4,1.64l.05.11a1.42,1.42,0,0,0,.1.29c.06.14.11.28.17.41s.13.27.19.41.13.26.2.38,0,0,0,0c.15.27.31.54.47.8a0,0,0,0,0,0,0c.09.13.17.26.27.39a12.28,12.28,0,0,0,.9,1.18l0,0c.21.25.44.51.68.77l0,0c.12.13.25.25.38.38l.82.78.44.38.46.39c.31.25.63.5,1,.75l.23.17,0,0,.6.43c.78.54,1.61,1.07,2.5,1.59l.58.33.43.24.35.2c.11.06.22.13.35.19l.88.45,1.13.56.85.4c.53.25,1.09.49,1.65.73l.78.33,1.63.65,1.51.56c.55.2,1.1.4,1.67.59l.85.28.87.29.15,0h0l.71.22.9.28.92.27,1.5.43,1,.26,1,.28.88.22.41.1c.62.16,1.24.31,1.87.45l2,.45,1.32.28,1.14.22,1.15.23q4.27.83,8.73,1.45c1.3.19,2.62.36,4,.52,1.82.22,3.67.41,5.52.58l1.8.16c1.1.1,2.2.18,3.31.25,1.27.09,2.55.17,3.83.23s2.55.13,3.83.17c3.93.14,7.87.17,11.79.11l1.25,0c1,0,2,0,3-.08l2-.07.27,0c.75,0,1.5-.06,2.25-.11l2.39-.14.91-.06,1.77-.12,1.59-.13,1.39-.12.81-.08,1.08-.11c.37,0,.73-.06,1.09-.11l.37,0,1.65-.18c1.11-.13,2.22-.27,3.32-.42l1.06-.14.4,0L109,49c.88-.13,1.74-.26,2.61-.41l1-.16.32-.06,1.66-.28,1.77-.33c1.8-.34,3.55-.71,5.27-1.09l1.45-.34c2.09-.5,4.12-1,6.06-1.61l1.73-.52.5-.16h0l.73-.23c1.94-.63,3.79-1.31,5.54-2l.75-.31.25-.1,1.57-.69.33-.15c.77-.35,1.53-.72,2.25-1.09l.82-.43,1-.53c.85-.48,1.64-1,2.39-1.46l.44-.3.43-.29.41-.3a23.9,23.9,0,0,0,3.22-2.75c.26-.27.51-.54.74-.81s.45-.54.65-.81.21-.27.3-.41.19-.27.27-.41a4.53,4.53,0,0,0,.26-.4c.08-.14.16-.27.23-.42s.29-.54.41-.81.11-.28.17-.41.07-.2.11-.29,0-.08,0-.13.09-.27.13-.41a5.09,5.09,0,0,0,.19-.77s0,0,0-.06l.06-.4.06-.41a7.5,7.5,0,0,0,0-.82v0C155.16,16.81,141.37,8.24,116.67,3.49Zm26,25.15a11.32,11.32,0,0,1-2,3.12,24.07,24.07,0,0,1-5.61,4.4l-.66.38c-18.27,10.34-58.49,13.83-89.83,7.8-10.57-2-18.79-4.89-24.32-8.18a23.71,23.71,0,0,1-5.6-4.41,11.43,11.43,0,0,1-2.06-3.15c-2-4.65.6-9.54,8.32-13.91.92-.52,1.9-1,2.94-1.52C43.17,4,80.92,1.16,110.68,6.88a88.84,88.84,0,0,1,20.76,6.31h0C140.92,17.67,145,23.21,142.66,28.64Z"/><path class="a" d="M142.66,28.64c-2.7-6.36-13.88-12.25-32-15.74-31.34-6-71.56-2.53-89.83,7.81-4.43,2.51-7.16,5.19-8.32,7.89-2-4.65.6-9.54,8.32-13.91.92-.52,1.9-1,2.94-1.52C43.17,4,80.92,1.16,110.68,6.88a88.84,88.84,0,0,1,20.76,6.31h0C140.92,17.67,145,23.21,142.66,28.64Z"/></symbol></defs><g class="c"><rect class="d" x="76.31" y="14.42" width="424.98" height="412.72"/><path class="e" d="M118.18,55.13a3.91,3.91,0,0,0-4.08-2.84c-2.84,0-4.62,2.27-4.62,5.84s1.81,6,4.62,6c2.13,0,3.61-1,4.08-2.77h2.55c-.46,2.9-2.82,5-6.61,5-4.42,0-7.25-3.21-7.25-8.24S109.68,50,114.1,50c3.84,0,6.19,2.3,6.63,5.11Z"/><path class="e" d="M123.66,58.19c0-5.08,2.78-8.17,7.28-8.17s7.28,3.09,7.28,8.17-2.79,8.18-7.28,8.18S123.66,63.26,123.66,58.19Zm12,0c0-3.75-1.69-5.9-4.67-5.9s-4.68,2.15-4.68,5.9,1.69,5.91,4.68,5.91S135.61,61.93,135.61,58.19Z"/><path class="e" d="M141.38,58.19c0-5.08,2.78-8.17,7.28-8.17s7.28,3.09,7.28,8.17-2.78,8.18-7.28,8.18S141.38,63.26,141.38,58.19Zm12,0c0-3.75-1.68-5.9-4.67-5.9S144,54.44,144,58.19s1.68,5.91,4.67,5.91S153.33,61.93,153.33,58.19Z"/><path class="e" d="M169.65,50.3h3.09L166,57.07l7.25,9H170l-5.92-7.4-1.51,1.41v6H160V44h2.52V57.2h.24Z"/><path class="e" d="M173.67,69.53V67.66h13.71v1.87Z"/><path class="e" d="M192.39,63.57h-.24v2.52h-2.4V44h2.52v8.76h.23A5.46,5.46,0,0,1,197.45,50c4,0,6.63,3.21,6.63,8.17s-2.63,8.18-6.63,8.18A5.65,5.65,0,0,1,192.39,63.57Zm-.18-5.38c0,3.65,1.79,5.91,4.66,5.91s4.6-2.22,4.6-5.91-1.72-5.9-4.6-5.9S192.21,54.55,192.21,58.19Z"/><path class="e" d="M220.8,66.09h-2.4V63.61h-.23c-.79,1.76-2.48,2.76-4.9,2.76-3.54,0-5.39-2.11-5.39-5.85V50.3h2.52v9.61c0,2.84,1.06,4.16,3.58,4.16,2.78,0,4.3-1.66,4.3-4.43V50.3h2.52Z"/><path class="e" d="M225.55,50.3H228v2.34h.24c.47-1.54,2.28-2.62,4.38-2.62a12,12,0,0,1,1.26.07v2.52a10.21,10.21,0,0,0-1.61-.14,3.86,3.86,0,0,0-4.15,3.83v9.79h-2.52Z"/><path class="e" d="M236.42,67.83h2.67c.27,1.29,1.68,2.13,3.95,2.13,2.83,0,4.51-1.4,4.51-3.72V63.13h-.23a5.49,5.49,0,0,1-4.95,2.72c-4.09,0-6.62-3.16-6.62-7.89S238.31,50,242.37,50a5.66,5.66,0,0,1,5.07,2.78h.23V50.3h2.4V66.37c0,3.53-2.72,5.78-7,5.78C239.23,72.15,236.8,70.44,236.42,67.83ZM247.61,58c0-3.44-1.77-5.67-4.69-5.67s-4.57,2.23-4.57,5.67,1.64,5.67,4.57,5.67S247.61,61.4,247.61,58Z"/><path class="e" d="M267.8,62c-.74,2.7-3.2,4.37-6.65,4.37-4.38,0-7.12-3.17-7.12-8.16S256.81,50,261.15,50,268,53.05,268,58v1H256.65V59c.13,3.12,1.87,5.1,4.55,5.1,2,0,3.42-.75,4.08-2.14Zm-11.15-5.11h8.7c-.06-2.8-1.73-4.64-4.23-4.64S256.84,54.09,256.65,56.89Z"/><path class="e" d="M272,50.3h2.4v2.34h.23C275.06,51.1,276.88,50,279,50a11.79,11.79,0,0,1,1.26.07v2.52a10,10,0,0,0-1.61-.14,3.86,3.86,0,0,0-4.14,3.83v9.79H272Z"/><path class="e" d="M288.71,44h2.14c-2.08,2.66-3.7,8.32-3.7,13.27s1.61,10.62,3.7,13.29h-2.14a21.08,21.08,0,0,1-4.16-13.29A21.06,21.06,0,0,1,288.71,44Z"/><path class="e" d="M328.41,71.46l1.39-8.33h2.8l-2.3,8.33Z"/><path class="e" d="M371.19,71.46l1.39-8.33h2.79l-2.3,8.33Z"/><path class="e" d="M415.63,70.59h-2.14c2.08-2.67,3.71-8.32,3.71-13.28S415.58,46.69,413.49,44h2.14a21.07,21.07,0,0,1,4.16,13.28A21.07,21.07,0,0,1,415.63,70.59Z"/><use width="155.19" height="57.24" transform="matrix(0.12, -0.02, 0.02, 0.12, 382.4, 56.07)" xlink:href="#a"/><use width="155.19" height="57.24" transform="matrix(0.12, 0.02, -0.02, 0.12, 393.22, 53.57)" xlink:href="#a"/><use width="155.19" height="57.24" transform="translate(387.88 58.15) rotate(-2.59) scale(0.12)" xlink:href="#a"/><path class="f" d="M363.26,61.05c0,1-2.26,1.86-5.58,2.29.69-.31,1.08-.66,1.08-1,0-1.26-4.53-2.29-10.12-2.29-4.41,0-8.15.64-9.55,1.52a2.45,2.45,0,0,1-.78-1.71c0-1.27,1.21-2.39,3-3,.11-.66,1.33-1.2,3-1.37.6-1.73,2.92-3,5.68-3s5,1.27,5.67,3h.27c2.27,0,4.11.68,4.11,1.53a.08.08,0,0,1,0,0c1.89.3,3.25,1.17,3.25,2.21a1.45,1.45,0,0,1-.51,1.05A1.09,1.09,0,0,1,363.26,61.05Z"/><ellipse class="g" cx="356.61" cy="57.03" rx="2.19" ry="1.01"/><ellipse class="g" cx="361.19" cy="58.27" rx="0.85" ry="0.39"/><ellipse class="g" cx="349.8" cy="53.27" rx="1.78" ry="0.83"/><path class="h" d="M358.76,62.32c0,.36-.39.71-1.08,1a37.44,37.44,0,0,1-4.83.29,34.93,34.93,0,0,1-6.29-.52,10.51,10.51,0,0,1-2.15.22,7.64,7.64,0,0,1-5.32-1.78c1.4-.88,5.14-1.52,9.55-1.52C354.23,60,358.76,61.06,358.76,62.32Z"/><path class="i" d="M320.74,60.06V62.4h0c-.06.61-.56,1.23-1.57,1.8C316,66,308.9,66.63,303.4,65.57c-3.56-.69-5.6-1.9-5.72-3.17h0a5.65,5.65,0,0,1-.14-.89,3.4,3.4,0,0,1,.14-1.46c0,1.31,2.06,2.59,5.73,3.29,5.5,1.06,12.56.45,15.77-1.37C320.24,61.37,320.74,60.71,320.74,60.06Z"/><path class="j" d="M320.74,60.05h0c0,.65-.5,1.31-1.57,1.91C316,63.79,308.9,64.4,303.4,63.34c-3.67-.7-5.72-2-5.73-3.29,0-.65.51-1.31,1.57-1.91,3.21-1.82,10.27-2.43,15.78-1.37C318.69,57.47,320.74,58.75,320.74,60.05Z"/><path class="k" d="M305.1,63.61v2.23c-.58-.07-1.15-.16-1.7-.27-3.56-.69-5.6-1.9-5.72-3.17h0a5.65,5.65,0,0,1-.14-.89,3.32,3.32,0,0,1,.14-1.45c0,1.3,2.06,2.58,5.73,3.28C304,63.45,304.52,63.54,305.1,63.61Z"/><path class="l" d="M290.45,330.36a55.92,55.92,0,0,1-2,11.64c-1.81,6.64-7.21,12.09-8.19,13a29.56,29.56,0,0,1-5.68,4.41l-.35.22-1.18.69-.2.11-.63.35-1.35.71-.71.35-1.16.55-.83.38-1.48.64-.59.25c-.63.26-1.26.51-1.91.75l-.46.18c-.71.26-1.44.53-2.19.79l-.23.08a139.62,139.62,0,0,1-21.16,5.22l-.34,0-.8.14a225.49,225.49,0,0,1-35,2.86h-3.29a225.59,225.59,0,0,1-35-2.86l-.79-.14-.35,0a139.48,139.48,0,0,1-21.15-5.22l-.24-.08-2.19-.79-.46-.18c-.65-.24-1.28-.49-1.91-.75l-.59-.25-1.47-.64-.84-.38c-.39-.18-.78-.36-1.15-.55l-.72-.35-1.35-.71-.62-.35-.21-.11-1.17-.69-.36-.22a30.2,30.2,0,0,1-5.68-4.41c-1-1-6.37-6.4-8.18-13a55.66,55.66,0,0,1-2-11.61c.73,9.76,16.31,19.16,43.72,24.43,42,8.09,96,3.4,120.47-10.47C286.25,339.93,290.13,335.13,290.45,330.36Z"/><path class="m" d="M290.47,329.7c0,.17,0,.34,0,.51v.15c-.32,4.77-4.2,9.57-12,14C254,358.22,200,362.91,158,354.82c-27.41-5.27-43-14.67-43.72-24.43v-.18a.81.81,0,0,1,0-.16c0-.22,0-.35,0-.35h0c0-5,3.85-10,12-14.65,24.5-13.87,78.44-18.56,120.47-10.47C274.78,310,290.44,319.7,290.47,329.7Z"/><ellipse class="k" cx="200.12" cy="326.01" rx="66" ry="20.75"/><path class="k" d="M172,357.79v14.06c-2.13-.28-4.23-.6-6.31-.94l-.79-.13-.35-.06a138.26,138.26,0,0,1-21.15-5.23l-.23-.08c-.75-.25-1.48-.52-2.19-.78l-.47-.17c-.65-.26-1.28-.5-1.9-.76l-.6-.25-1.48-.64-.82-.38-1.17-.55-.71-.35-1.35-.71-.62-.34-.21-.12-1.17-.69c-.12-.07-.24-.14-.35-.22a29.67,29.67,0,0,1-5.69-4.42c-1-.94-6.37-6.39-8.19-13a54.68,54.68,0,0,1-2-11.85c.16,3.38,2.12,6.72,5.74,9.88,6,6,17.38,11.3,33.25,14.8A168.08,168.08,0,0,0,172,357.79Z"/><path class="i" d="M287,281v17.21h0c-.41,4.51-4.14,9.06-11.52,13.24-23.6,13.36-75.54,17.87-116,10.09-26.19-5.05-41.16-14-42.06-23.33h0a36.53,36.53,0,0,1-1-6.56c-.45-7.45,1-10.68,1-10.68,0,9.63,15.11,19,42.11,24.2,40.48,7.78,92.42,3.26,116-10.1C283.3,290.59,287,285.74,287,281Z"/><path class="j" d="M287,280.92v0c0,4.79-3.73,9.64-11.56,14.07-23.6,13.36-75.54,17.88-116,10.1-27-5.2-42.09-14.57-42.11-24.2,0-4.79,3.71-9.66,11.56-14.1,23.6-13.36,75.54-17.87,116-10.09C271.92,261.93,287,271.29,287,280.92Z"/><ellipse class="k" cx="190.07" cy="277.14" rx="34.52" ry="13.02"/><path class="k" d="M172,307.09v16.37c-4.27-.54-8.46-1.19-12.53-2-26.2-5-41.17-14-42.07-23.32h0a36.29,36.29,0,0,1-1-6.56c-.45-7.45,1-10.68,1-10.68,0,9.64,15.11,19,42.12,24.19C163.53,305.9,167.72,306.56,172,307.09Z"/><path class="f" d="M252.16,257c0,4-9.07,7.46-22.37,9.19,2.76-1.23,4.32-2.62,4.32-4.1,0-5-18.15-9.13-40.54-9.13-17.64,0-32.66,2.53-38.23,6.08a9.74,9.74,0,0,1-3.14-6.85c0-5.12,4.83-9.6,12-12,.44-2.63,5.34-4.8,11.94-5.49,2.4-6.94,11.68-12.13,22.77-12.13s20.19,5.08,22.71,11.91h1.07c9.09,0,16.46,2.73,16.46,6.1,0,.05,0,.12,0,.17,7.55,1.2,13,4.71,13,8.85a5.94,5.94,0,0,1-2,4.23A4.26,4.26,0,0,1,252.16,257Z"/><ellipse class="g" cx="225.51" cy="240.86" rx="8.78" ry="4.06"/><ellipse class="g" cx="243.84" cy="245.83" rx="3.41" ry="1.58"/><ellipse class="g" cx="198.22" cy="225.82" rx="7.13" ry="3.32"/><path class="h" d="M234.11,262.05c0,1.48-1.56,2.87-4.32,4.1a150.07,150.07,0,0,1-19.33,1.19,138.77,138.77,0,0,1-25.21-2.12,40.29,40.29,0,0,1-8.63.91c-9.13,0-17.1-2.88-21.28-7.13,5.57-3.55,20.59-6.08,38.23-6.08C216,252.92,234.11,257,234.11,262.05Z"/><use width="155.19" height="57.24" transform="matrix(0.68, -0.1, 0.1, 0.68, 114.25, 185.7)" xlink:href="#a"/><use width="155.19" height="57.24" transform="translate(176.6 171.33) rotate(7.56) scale(0.68)" xlink:href="#a"/><use width="155.19" height="57.24" transform="matrix(0.68, -0.03, 0.03, 0.68, 145.84, 197.7)" xlink:href="#a"/><path class="m" d="M278.08,128C255,104.63,228.8,98.2,202.32,97.58v0h-3.23v0c-26.48.62-52.68,7-75.76,30.42-5.51,5.58-15.56,21.31-15.56,25.3,0,10.76,16.86,21.22,47,27a254.39,254.39,0,0,0,44.28,4.22v0l1.62,0,1.61,0v0a254.39,254.39,0,0,0,44.28-4.22c30.18-5.81,47-16.27,47-27C293.64,149.31,283.6,133.58,278.08,128Z"/><path class="e" d="M166,110.55c.44,1.91-.37,3.35-1.62,3.35s-2-1.48-1.62-3.35c.36-1.71.93-3.21,1.63-3.21S165.65,108.84,166,110.55Z"/><path class="e" d="M149.92,115.89c0-2,1.11-3.18,2.33-2.91s1.64,1.89.83,3.63c-.73,1.58-1.62,2.92-2.3,2.77S149.92,117.64,149.92,115.89Z"/><path class="e" d="M148,124.4c1.84-.68,3.37-.06,3.53,1.18s-1.21,2.2-3.12,2c-1.74-.15-3.3-.52-3.39-1.21S146.35,125,148,124.4Z"/><path class="e" d="M168.16,125.67c.6,1.87-.07,3.37-1.32,3.48s-2.15-1.28-1.92-3.19c.21-1.73.64-3.28,1.34-3.34S167.62,124,168.16,125.67Z"/><path class="e" d="M171.85,118.24c.39-1.93,1.71-2.91,2.85-2.4s1.25,2.17.12,3.72-2.15,2.55-2.79,2.27S171.51,120,171.85,118.24Z"/><path class="e" d="M232,125.46c.83,1.78.35,3.35-.87,3.62s-2.3-1-2.31-2.92c0-1.75.22-3.34.91-3.49S231.28,123.88,232,125.46Z"/><path class="e" d="M208.41,129.59c-.27,1.95-1.53,3-2.7,2.56s-1.38-2.09-.34-3.71c.95-1.46,2-2.67,2.66-2.42S208.65,127.86,208.41,129.59Z"/><path class="e" d="M242.9,115.53c.51-1.89,1.89-2.79,3-2.2s1.1,2.25-.13,3.72-2.32,2.4-2.94,2.08S242.45,117.22,242.9,115.53Z"/><path class="e" d="M228.86,116.2c1.28-1.5,2.91-1.71,3.66-.71s0,2.51-1.71,3.31c-1.59.73-3.13,1.18-3.54.62S227.73,117.53,228.86,116.2Z"/><path class="e" d="M245.41,130.51c.58-1.88,2-2.73,3.07-2.11s1,2.29-.25,3.72-2.4,2.32-3,2S244.9,132.18,245.41,130.51Z"/><path class="e" d="M230.5,109.73c1.55,1.21,1.83,2.83.86,3.62s-2.5.13-3.37-1.57-1.31-3.08-.77-3.52S229.13,108.65,230.5,109.73Z"/><path class="e" d="M236.63,118.36c.84,1.78.35,3.36-.87,3.62s-2.29-1-2.3-2.93c0-1.74.23-3.33.91-3.48S235.9,116.78,236.63,118.36Z"/><path class="e" d="M193.33,114.08c.62,1.87,0,3.38-1.28,3.5s-2.17-1.27-2-3.17c.19-1.74.61-3.29,1.3-3.36S192.78,112.43,193.33,114.08Z"/><path class="e" d="M210.86,112.87c1.83-.73,3.37-.15,3.57,1.08s-1.15,2.23-3.06,2.13c-1.74-.09-3.31-.41-3.42-1.11S209.24,113.52,210.86,112.87Z"/><path class="e" d="M201.35,120.37c.68,1.84.06,3.37-1.18,3.53s-2.2-1.21-2-3.12c.15-1.74.52-3.3,1.21-3.39S200.76,118.73,201.35,120.37Z"/><path class="e" d="M188.4,131.26c-.33-1.94.56-3.32,1.8-3.26s2,1.59,1.44,3.44c-.46,1.68-1.1,3.15-1.8,3.11S188.69,133,188.4,131.26Z"/><path class="e" d="M262.36,124.62c1.6,1.13,2,2.74,1,3.57s-2.49.27-3.45-1.39-1.46-3-.94-3.48S260.93,123.62,262.36,124.62Z"/><path class="e" d="M141.48,118.94c1.85-.68,3.37-.06,3.53,1.18s-1.2,2.2-3.11,2c-1.74-.14-3.3-.51-3.39-1.2S139.84,119.54,141.48,118.94Z"/><path class="e" d="M134.57,127.72c.15-2,1.34-3.1,2.53-2.74s1.51,2,.58,3.68-1.82,2.8-2.49,2.6S134.45,129.46,134.57,127.72Z"/><path class="e" d="M251,119.44c-.73,1.82-2.22,2.54-3.24,1.82s-.82-2.37.58-3.68,2.59-2.1,3.17-1.7S251.61,117.82,251,119.44Z"/><path class="e" d="M218.52,124.5c1.79-.81,3.36-.31,3.61.91s-1,2.28-3,2.27c-1.74,0-3.33-.27-3.47-1S216.93,125.22,218.52,124.5Z"/><path class="k" d="M149.92,179.31c-27.1-5.95-42.12-15.85-42.15-26,0-4,10-19.72,15.56-25.3,22.38-22.67,47.69-29.39,73.36-30.34C180.64,103.24,147.45,134.76,149.92,179.31Z"/><path class="e" d="M247.73,107.85c1.94-.34,3.33.54,3.27,1.79s-1.58,2-3.43,1.45c-1.69-.45-3.16-1.09-3.12-1.79S246,108.15,247.73,107.85Z"/><path class="e" d="M218.48,101.62c2,.26,3,1.52,2.58,2.69s-2.09,1.39-3.71.35c-1.47-.93-2.68-2-2.44-2.64S216.75,101.39,218.48,101.62Z"/><path class="e" d="M198.5,105.44c0-2,1.16-3.16,2.38-2.86s1.61,1.91.77,3.64c-.76,1.57-1.66,2.89-2.34,2.72S198.47,107.19,198.5,105.44Z"/><path class="e" d="M183.32,103.46c1.12,1.62.91,3.25-.25,3.72s-2.43-.62-2.76-2.51c-.3-1.72-.34-3.32.31-3.58S182.33,102,183.32,103.46Z"/><path class="e" d="M215.57,106.83c1.91.45,2.84,1.81,2.29,2.93s-2.22,1.17-3.72,0-2.47-2.25-2.17-2.88S213.87,106.42,215.57,106.83Z"/><path class="e" d="M190.86,103.79c1.81.77,2.51,2.26,1.77,3.27s-2.38.78-3.66-.64-2.06-2.63-1.65-3.19S189.26,103.11,190.86,103.79Z"/><path class="e" d="M304.83,300.47v-1.65a5.23,5.23,0,0,0,.81.06c1.11,0,1.72-.53,2.23-2l.22-.72-4.48-12.12h2.09L309,294h.18l3.32-10h2.05l-4.73,12.85c-1,2.81-2,3.64-4.14,3.64A6.51,6.51,0,0,1,304.83,300.47Z"/><path class="e" d="M316.82,280.37a1.35,1.35,0,1,1,1.34,1.34A1.35,1.35,0,0,1,316.82,280.37Zm.38,3.68h1.93v12.11H317.2Z"/><path class="e" d="M332.76,293c-.56,2.07-2.44,3.35-5.09,3.35-3.36,0-5.46-2.43-5.46-6.25s2.13-6.28,5.46-6.28,5.25,2.32,5.25,6.08v.75h-8.7v.09c.1,2.39,1.44,3.9,3.49,3.9a3.12,3.12,0,0,0,3.12-1.64Zm-8.54-3.92h6.67c-.05-2.14-1.33-3.56-3.25-3.56S324.36,287,324.22,289.1Z"/><path class="e" d="M336.07,279.24H338v16.92h-1.93Z"/><path class="e" d="M341.14,290.1c0-3.79,2-6.26,5.09-6.26A4.14,4.14,0,0,1,350,286h.16v-6.72h1.94v16.92h-1.85v-1.93h-.18a4.34,4.34,0,0,1-3.87,2.14C343.13,296.37,341.14,293.91,341.14,290.1Zm2,0c0,2.83,1.33,4.53,3.54,4.53s3.56-1.73,3.56-4.53-1.37-4.52-3.56-4.52S343.14,287.29,343.14,290.1Z"/><path class="e" d="M360,279.24h1.64c-1.59,2.05-2.84,6.38-2.84,10.18s1.24,8.14,2.84,10.18H360a17.84,17.84,0,0,1,0-20.36Z"/><path class="e" d="M398.17,299.6h-1.64c1.6-2,2.84-6.37,2.84-10.17s-1.23-8.14-2.84-10.19h1.64a17.84,17.84,0,0,1,0,20.36Z"/><path class="i" d="M392,290.75v2.34h0c-.06.61-.56,1.23-1.57,1.8-3.21,1.81-10.27,2.43-15.77,1.37-3.56-.69-5.6-1.91-5.72-3.17h0a5.65,5.65,0,0,1-.14-.89,3.4,3.4,0,0,1,.14-1.46c0,1.31,2.06,2.59,5.73,3.29,5.5,1.06,12.56.45,15.77-1.37C391.52,292.06,392,291.4,392,290.75Z"/><path class="j" d="M392,290.74h0c0,.65-.5,1.31-1.57,1.91-3.21,1.82-10.27,2.43-15.77,1.37-3.67-.7-5.72-2-5.73-3.29,0-.65.51-1.31,1.58-1.91,3.2-1.82,10.27-2.43,15.77-1.37C390,288.16,392,289.44,392,290.74Z"/><path class="k" d="M376.38,294.3v2.23c-.58-.08-1.15-.16-1.7-.27-3.56-.69-5.6-1.91-5.72-3.17h0a5.65,5.65,0,0,1-.14-.89,3.4,3.4,0,0,1,.14-1.46c0,1.31,2.06,2.59,5.73,3.29C375.23,294.14,375.8,294.23,376.38,294.3Z"/><rect class="k" x="441.75" y="66.55" width="194.79" height="169.62" transform="translate(-10.69 45.2) rotate(-4.75)"/><path class="n" d="M446.48,43.65C477,42,570.59,36.86,641.28,20.76c9,59.58,22.75,139.63,48,170.65-60.76,40.67-200.38,22.51-209.46,18.14C465.27,197.55,446.15,82,446.48,43.65Z"/><path class="o" d="M519.6,135l-3.14.23-.5,3.92-1.36.1.49-3.92-2.24.17.17-1.4,2.27-.17.44-3.53-2.37.17.18-1.39,2.36-.17.5-3.78,1.36-.1-.47,3.78,3.12-.23.5-3.79,1.37-.1-.49,3.78,2.38-.17-.16,1.39-2.41.17-.46,3.54,2.5-.18-.16,1.39-2.51.19-.5,3.92-1.37.1Zm.19-1.37.45-3.59-3.16.24-.45,3.58Z"/><path class="o" d="M531,124.54a1.15,1.15,0,0,1,2.3-.17,1.15,1.15,0,0,1-2.3.17Zm.56,3.12,1.64-.13.76,10.32-1.64.12Z"/><path class="o" d="M536.31,127.3l1.57-.11.12,1.62h.16a3.1,3.1,0,0,1,3-2c2.32-.18,3.71,1.1,3.9,3.55l.49,6.68-1.65.12-.46-6.28c-.14-1.86-1-2.68-2.63-2.56a2.63,2.63,0,0,0-2.5,3.11l.45,6.11-1.64.12Z"/><path class="o" d="M549.9,123.62l.19,2.67,2.3-.17.1,1.38-2.29.17.42,5.83c.09,1.22.59,1.7,1.67,1.62a7.12,7.12,0,0,0,.76-.09l.1,1.39a5.2,5.2,0,0,1-1,.16c-2.12.16-3-.56-3.18-2.53l-.46-6.26-1.67.12-.1-1.38,1.67-.12-.2-2.67Z"/><path class="o" d="M554.88,125.93l1.57-.11.12,1.53h.15a2.9,2.9,0,0,1,2.74-1.93c.26,0,.61,0,.82,0l.12,1.65a6.84,6.84,0,0,0-1.06,0,2.53,2.53,0,0,0-2.52,2.71l.47,6.39-1.65.12Z"/><path class="o" d="M571.46,135.09l-1.57.11-.12-1.61h-.15a3.23,3.23,0,0,1-3.07,2c-2.31.17-3.62-1.12-3.8-3.56l-.49-6.68,1.64-.12.47,6.28c.13,1.85.89,2.67,2.53,2.55a2.6,2.6,0,0,0,2.6-3.1l-.45-6.11,1.65-.12Z"/><path class="o" d="M580.91,127.19a2.56,2.56,0,0,0-2.8-1.66c-1.85.14-2.91,1.71-2.74,4s1.47,3.81,3.31,3.68a2.5,2.5,0,0,0,2.53-2l1.67-.12c-.16,1.91-1.6,3.43-4.08,3.61-2.89.21-4.89-1.75-5.13-5s1.44-5.44,4.33-5.65a4.06,4.06,0,0,1,4.58,3Z"/><path class="o" d="M587.11,120.87l.2,2.67,2.3-.17.1,1.38-2.3.17.43,5.84c.09,1.22.59,1.7,1.66,1.62a6.56,6.56,0,0,0,.76-.09l.1,1.38a4.5,4.5,0,0,1-1,.17c-2.12.16-3-.56-3.18-2.54l-.46-6.26-1.66.13-.1-1.38,1.66-.12-.2-2.68Z"/><path class="o" d="M591.58,120.07a1.15,1.15,0,0,1,2.3-.17,1.18,1.18,0,0,1-1.07,1.24A1.16,1.16,0,0,1,591.58,120.07Zm.56,3.12,1.64-.12.76,10.32-1.64.12Z"/><path class="o" d="M596.79,128c-.25-3.32,1.42-5.47,4.36-5.69s4.91,1.67,5.15,5-1.42,5.48-4.36,5.69S597,131.34,596.79,128Zm7.81-.57c-.18-2.45-1.39-3.78-3.34-3.64s-3,1.64-2.77,4.09,1.39,3.77,3.34,3.63S604.78,129.9,604.6,127.46Z"/><path class="o" d="M608.51,122l1.57-.11.12,1.62h.15a3.12,3.12,0,0,1,3-2c2.32-.17,3.71,1.11,3.89,3.56l.49,6.68-1.64.12-.47-6.28c-.13-1.86-1-2.68-2.63-2.56a2.62,2.62,0,0,0-2.49,3.11l.45,6.11-1.65.12Z"/><path class="o" d="M623.55,120.69c2.16-.16,3.74.8,4.09,2.48l-1.63.12a2.1,2.1,0,0,0-2.37-1.2c-1.22.09-2.13.78-2.07,1.7.06.71.66,1.11,1.9,1.31l1.62.27c2,.33,3,1.1,3.09,2.58.13,1.85-1.56,3.25-3.91,3.43s-4-.82-4.27-2.52l1.7-.12a2.27,2.27,0,0,0,2.53,1.24c1.38-.1,2.33-.83,2.26-1.78,0-.71-.62-1.15-1.74-1.33l-1.81-.3c-2-.33-2.91-1.1-3-2.59C619.8,122.27,621.36,120.85,623.55,120.69Z"/><path class="e" d="M485.18,96.6c-.42-3.21,1-5.53,3.61-5.88a3.54,3.54,0,0,1,3.45,1.37h.15l-.76-5.69,1.64-.22,1.9,14.33-1.56.2-.22-1.63-.15,0a3.72,3.72,0,0,1-3,2.25C487.57,101.69,485.61,99.83,485.18,96.6Zm1.7-.22c.31,2.39,1.63,3.68,3.5,3.43s2.82-1.86,2.51-4.23-1.67-3.68-3.52-3.43S486.56,94,486.88,96.38Z"/><path class="e" d="M497.16,95c-.44-3.31,1.1-5.55,4-5.94s5,1.38,5.44,4.68-1.11,5.55-4,5.94S497.59,98.31,497.16,95Zm7.76-1c-.32-2.44-1.6-3.69-3.54-3.44s-2.85,1.81-2.53,4.24,1.6,3.69,3.54,3.43S505.24,96.41,504.92,94Z"/><path class="e" d="M516.77,100.61l-2.29-17.25,1.39-.18,2.29,17.25Z"/><path class="e" d="M519.81,83.62a1.14,1.14,0,0,1,1-1.29,1.15,1.15,0,1,1,.3,2.28A1.14,1.14,0,0,1,519.81,83.62Zm.73,3.08,1.64-.22,1.36,10.26L521.9,97Z"/><path class="e" d="M525.3,86.07l1.56-.21.22,1.62.15,0a3.11,3.11,0,0,1,2.84-2.21c2.31-.3,3.77.89,4.09,3.33l.88,6.64-1.63.21-.83-6.24c-.24-1.84-1.14-2.62-2.78-2.4A2.63,2.63,0,0,0,527.49,90l.81,6.07-1.64.22Z"/><path class="e" d="M538.11,96l1.73-.23c.29.82,1.28,1.24,2.75,1,1.84-.24,2.81-1.29,2.61-2.8l-.26-2-.16,0a3.58,3.58,0,0,1-3,2.2c-2.65.35-4.57-1.49-5-4.56s1-5.38,3.62-5.73A3.7,3.7,0,0,1,544,85.25l.15,0-.21-1.62,1.56-.21,1.38,10.44c.31,2.29-1.27,4-4.07,4.36C540.31,98.53,538.58,97.62,538.11,96Zm6.42-7.37c-.3-2.24-1.64-3.53-3.53-3.28s-2.78,1.84-2.48,4.07,1.55,3.54,3.45,3.29S544.83,90.82,544.53,88.59Z"/><path class="e" d="M548.56,83l1.56-.21.2,1.53.15,0a2.89,2.89,0,0,1,2.62-2.08,5,5,0,0,1,.83-.06l.21,1.63a6.05,6.05,0,0,0-1.06,0,2.52,2.52,0,0,0-2.36,2.84l.84,6.36-1.63.22Z"/><path class="e" d="M565.13,88.53c-.24,1.81-1.69,3.11-3.94,3.41-2.84.37-4.9-1.44-5.33-4.69s1.11-5.56,3.92-5.93,4.72,1.38,5.14,4.57l.08.62-7.37,1v.08c.35,2,1.65,3.15,3.4,2.92a2.69,2.69,0,0,0,2.46-1.74Zm-7.68-2.36,5.66-.75A2.79,2.79,0,0,0,560,82.77,3,3,0,0,0,557.45,86.17Z"/><path class="e" d="M567,85.77c-.43-3.22,1-5.54,3.61-5.88a3.52,3.52,0,0,1,3.45,1.37l.14,0-.75-5.69,1.64-.22L577,89.66l-1.56.21-.21-1.64-.15,0a3.7,3.7,0,0,1-3,2.25C569.39,90.85,567.43,89,567,85.77Zm1.69-.23c.32,2.4,1.63,3.69,3.51,3.44s2.82-1.87,2.51-4.23-1.67-3.69-3.53-3.44S568.38,83.15,568.69,85.54Z"/><path class="e" d="M578.11,75.9a1.15,1.15,0,1,1,1.29,1A1.15,1.15,0,0,1,578.11,75.9Zm.74,3.08,1.63-.22L581.84,89l-1.63.22Z"/><path class="e" d="M593,84.83c-.24,1.82-1.69,3.11-3.94,3.41-2.84.38-4.9-1.44-5.33-4.69s1.11-5.55,3.92-5.93,4.72,1.38,5.14,4.57l.08.63-7.37,1v.08c.35,2,1.66,3.15,3.4,2.92a2.68,2.68,0,0,0,2.46-1.74Zm-7.68-2.36,5.66-.75a2.79,2.79,0,0,0-3.15-2.65A3,3,0,0,0,585.36,82.47Z"/><path class="e" d="M594.75,76.87l1.56-.2.21,1.61.15,0a3.12,3.12,0,0,1,2.85-2.2c2.3-.31,3.76.88,4.09,3.32l.88,6.64-1.64.22L602,80c-.24-1.85-1.14-2.62-2.77-2.41a2.62,2.62,0,0,0-2.31,3.25l.8,6.07-1.64.22Z"/><path class="e" d="M608.09,72.4l.35,2.66,2.29-.3.18,1.37-2.29.3.77,5.8c.16,1.21.69,1.67,1.75,1.52a6.75,6.75,0,0,0,.76-.14l.18,1.38a6,6,0,0,1-1,.23c-2.11.28-3.06-.39-3.32-2.35L607,76.65l-1.66.22-.18-1.37,1.66-.22-.36-2.66Z"/><path class="e" d="M616,87.47l-2.29-17.25,1.39-.18,2.29,17.25Z"/><rect class="p" x="456.42" y="23.13" width="33.34" height="47.48" transform="translate(3 117.75) rotate(-14.23)"/><path class="e" d="M510,175.14c-.51,1.76-2.14,2.83-4.41,2.79-2.87-.05-4.63-2.15-4.58-5.43s1.92-5.33,4.76-5.28,4.46,2.06,4.41,5.28v.63l-7.44-.13v.08c.05,2,1.18,3.36,2.93,3.39a2.68,2.68,0,0,0,2.7-1.35Zm-7.25-3.47,5.7.1c0-1.84-1.08-3.07-2.72-3.1A3,3,0,0,0,502.73,171.67Z"/><path class="e" d="M512.67,167.49h1.57v1.63h.16a3.11,3.11,0,0,1,3.11-1.8c2.33,0,3.62,1.39,3.61,3.85l0,6.7h-1.65l0-6.3c0-1.86-.78-2.75-2.43-2.75a2.62,2.62,0,0,0-2.73,2.9l0,6.13h-1.66Z"/><path class="e" d="M523.48,172.7c0-3.25,1.65-5.38,4.29-5.42a3.55,3.55,0,0,1,3.27,1.78h.14l-.07-5.75,1.65,0,.18,14.47-1.58,0,0-1.65h-.15A3.72,3.72,0,0,1,527.9,178C525.25,178,523.52,176,523.48,172.7Zm1.71,0c0,2.42,1.18,3.85,3.07,3.83s3-1.51,3-3.91-1.22-3.85-3.09-3.83S525.16,170.27,525.19,172.68Z"/><path class="q" d="M418.82,292.23s102.34,19.08,132.27,4.95c30.57-14.44,26-38,26-38"/><path class="o" d="M591.26,247.86a7.09,7.09,0,0,0,2.07-2c5.7-7.16,9.6-24.77,7.49-26.3s-3.44,5.89-6.15,9c2-6.48,4.68-20.29,1.4-20.75s-3.4,4.19-4.77,7.18S589,221.3,587,223.83c.68-6.79.39-20.3-2-20.24-3.2.09-4.94,6.51-5.13,10.66s.31,8.48-1.25,12.32a179.35,179.35,0,0,0-5.09-18.35c-.27-.8-.63-1.68-1.4-2-1.05-.37-2.08.61-2.58,1.61-1.91,3.79-.38,8.32.25,12.53a28.56,28.56,0,0,1-1.44,14c-2,.31-3.87-.67-5.57-1.71s-3.46-2.2-5.44-2.29-4.17,1.43-4,3.44a5.43,5.43,0,0,0,1.75,3.06l12.06,13,.13.06a4.52,4.52,0,0,0-3.08,4,2.75,2.75,0,0,0,.44,1.71,3.76,3.76,0,0,0,2.63,1.21A48.72,48.72,0,0,0,589,255.37c2.26-.69,4.95-2.36,4.42-4.7Z"/></g></svg>