<svg xmlns="http://www.w3.org/2000/svg" xmlns:xlink="http://www.w3.org/1999/xlink" viewBox="0 0 900 500"><defs><style>.a{fill:#f1e5ce;}.b{fill:#fef6ea;}.c{isolation:isolate;}.d,.k{fill:#4b4b4b;}.e{fill:#fff;}.f{fill:#ed2627;}.g{fill:#fddfe0;opacity:0.8;}.h{fill:#cd362c;}.i{fill:#741a14;}.j{fill:#a92b22;}.k{opacity:0.2;mix-blend-mode:multiply;}.l{fill:#7e73ff;}.m,.q{fill:#eceaff;}.m{opacity:0.3;}.n,.r{fill:none;stroke-miterlimit:10;stroke-width:3px;}.n{stroke:#6057c2;}.o{fill:#6057c2;}.p{fill:#eae9e9;}.r{stroke:#4b4b4b;}</style><symbol id="a" viewBox="0 0 155.19 57.24"><path class="a" d="M155.18,25.61c0,4.39-3.39,8.84-10.56,12.9C123,50.73,75.53,54.86,38.52,47.74,13.82,43,0,34.42,0,25.61H0v6H0C0,40.44,13.82,49,38.52,53.75c37,7.13,84.52,3,106.1-9.22,7.17-4.06,10.58-8.51,10.56-12.9h0v-6Z"/><path class="b" d="M116.67,3.49c-37-7.12-84.52-3-106.1,9.23C3.4,16.78,0,21.22,0,25.61v.19a3.52,3.52,0,0,0,.05.64c0,.13,0,.27.05.41a9.11,9.11,0,0,0,.4,1.64l.05.11a1.42,1.42,0,0,0,.1.29c.06.14.11.28.17.41s.13.27.19.41.13.26.2.38,0,0,0,0c.15.27.31.54.47.8a0,0,0,0,0,0,0c.09.13.17.26.27.39a12.28,12.28,0,0,0,.9,1.18l0,0c.21.25.44.51.68.77l0,0c.12.13.25.25.38.38l.82.78.44.38.46.39c.31.25.63.5,1,.75l.23.17,0,0,.6.43c.78.54,1.61,1.07,2.5,1.59l.58.33.43.24.35.2c.11.06.22.13.35.19l.88.45,1.13.56.85.4c.53.25,1.09.49,1.65.73l.78.33,1.63.65,1.51.56c.55.2,1.1.4,1.67.59l.85.28.87.29.15,0h0l.71.22.9.28.92.27,1.5.43,1,.26,1,.28.88.22.41.1c.62.16,1.24.31,1.87.45l2,.45,1.32.28,1.14.22,1.15.23q4.27.83,8.73,1.45c1.3.19,2.62.36,4,.52,1.82.22,3.67.41,5.52.58l1.8.16c1.1.1,2.2.18,3.31.25,1.27.09,2.55.17,3.83.23s2.55.13,3.83.17c3.93.14,7.87.17,11.79.11l1.25,0c1,0,2,0,3-.08l2-.07.27,0c.75,0,1.5-.06,2.25-.11l2.39-.14.91-.06,1.77-.12,1.59-.13,1.39-.12.81-.08,1.08-.11c.37,0,.73-.06,1.09-.11l.37,0,1.65-.18c1.11-.13,2.22-.27,3.32-.42l1.06-.14.4,0L109,49c.88-.13,1.74-.26,2.61-.41l1-.16.32-.06,1.66-.28,1.77-.33c1.8-.34,3.55-.71,5.27-1.09l1.45-.34c2.09-.5,4.12-1,6.06-1.61l1.73-.52.5-.16h0l.73-.23c1.94-.63,3.79-1.31,5.54-2l.75-.31.25-.1,1.57-.69.33-.15c.77-.35,1.53-.72,2.25-1.09l.82-.43,1-.53c.85-.48,1.64-1,2.39-1.46l.44-.3.43-.29.41-.3a23.9,23.9,0,0,0,3.22-2.75c.26-.27.51-.54.74-.81s.45-.54.65-.81.21-.27.3-.41.19-.27.27-.41a4.53,4.53,0,0,0,.26-.4c.08-.14.16-.27.23-.42s.29-.54.41-.81.11-.28.17-.41.07-.2.11-.29,0-.08,0-.13.09-.27.13-.41a5.09,5.09,0,0,0,.19-.77s0,0,0-.06l.06-.4.06-.41a7.5,7.5,0,0,0,0-.82v0C155.16,16.81,141.37,8.24,116.67,3.49Zm26,25.15a11.32,11.32,0,0,1-2,3.12,24.07,24.07,0,0,1-5.61,4.4l-.66.38c-18.27,10.34-58.49,13.83-89.83,7.8-10.57-2-18.79-4.89-24.32-8.18a23.71,23.71,0,0,1-5.6-4.41,11.43,11.43,0,0,1-2.06-3.15c-2-4.65.6-9.54,8.32-13.91.92-.52,1.9-1,2.94-1.52C43.17,4,80.92,1.16,110.68,6.88a88.84,88.84,0,0,1,20.76,6.31h0C140.92,17.67,145,23.21,142.66,28.64Z"/><path class="a" d="M142.66,28.64c-2.7-6.36-13.88-12.25-32-15.74-31.34-6-71.56-2.53-89.83,7.81-4.43,2.51-7.16,5.19-8.32,7.89-2-4.65.6-9.54,8.32-13.91.92-.52,1.9-1,2.94-1.52C43.17,4,80.92,1.16,110.68,6.88a88.84,88.84,0,0,1,20.76,6.31h0C140.92,17.67,145,23.21,142.66,28.64Z"/></symbol></defs><g class="c"><rect class="d" x="76.31" y="133.2" width="424.98" height="86.72"/><path class="e" d="M118.18,175.57a3.92,3.92,0,0,0-4.08-2.85c-2.84,0-4.62,2.28-4.62,5.85s1.81,6,4.62,6c2.13,0,3.61-1,4.08-2.77h2.55c-.46,2.9-2.82,5-6.61,5-4.42,0-7.25-3.21-7.25-8.23s2.81-8.12,7.23-8.12c3.84,0,6.19,2.3,6.63,5.12Z"/><path class="e" d="M123.66,178.63c0-5.09,2.78-8.18,7.28-8.18s7.28,3.09,7.28,8.18-2.79,8.17-7.28,8.17S123.66,183.7,123.66,178.63Zm12,0c0-3.75-1.69-5.91-4.67-5.91s-4.68,2.16-4.68,5.91,1.69,5.9,4.68,5.9S135.61,182.36,135.61,178.63Z"/><path class="e" d="M141.38,178.63c0-5.09,2.78-8.18,7.28-8.18s7.28,3.09,7.28,8.18-2.78,8.17-7.28,8.17S141.38,183.7,141.38,178.63Zm12,0c0-3.75-1.68-5.91-4.67-5.91s-4.67,2.16-4.67,5.91,1.68,5.9,4.67,5.9S153.33,182.36,153.33,178.63Z"/><path class="e" d="M169.65,170.73h3.09L166,177.5l7.25,9H170l-5.92-7.39-1.51,1.4v6H160V164.46h2.52v13.17h.24Z"/><path class="e" d="M173.67,190v-1.88h13.71V190Z"/><path class="e" d="M192.39,184h-.24v2.52h-2.4V164.46h2.52v8.76h.23a5.46,5.46,0,0,1,4.95-2.77c4,0,6.63,3.21,6.63,8.18s-2.63,8.17-6.63,8.17A5.65,5.65,0,0,1,192.39,184Zm-.18-5.37c0,3.65,1.79,5.9,4.66,5.9s4.6-2.21,4.6-5.9-1.72-5.91-4.6-5.91S192.21,175,192.21,178.63Z"/><path class="e" d="M220.8,186.52h-2.4v-2.47h-.23c-.79,1.76-2.48,2.75-4.9,2.75-3.54,0-5.39-2.11-5.39-5.84V170.73h2.52v9.61c0,2.84,1.06,4.16,3.58,4.16,2.78,0,4.3-1.65,4.3-4.42v-9.35h2.52Z"/><path class="e" d="M225.55,170.73H228v2.35h.24c.47-1.54,2.28-2.63,4.38-2.63a9.66,9.66,0,0,1,1.26.08v2.52a10,10,0,0,0-1.61-.15,3.87,3.87,0,0,0-4.15,3.84v9.78h-2.52Z"/><path class="e" d="M236.42,188.27h2.67c.27,1.29,1.68,2.12,3.95,2.12,2.83,0,4.51-1.39,4.51-3.72v-3.11h-.23a5.48,5.48,0,0,1-4.95,2.73c-4.09,0-6.62-3.17-6.62-7.9s2.56-7.94,6.62-7.94a5.66,5.66,0,0,1,5.07,2.79h.23v-2.51h2.4V186.8c0,3.53-2.72,5.79-7,5.79C239.23,192.59,236.8,190.87,236.42,188.27Zm11.19-9.88c0-3.44-1.77-5.67-4.69-5.67s-4.57,2.23-4.57,5.67,1.64,5.67,4.57,5.67S247.61,181.84,247.61,178.39Z"/><path class="e" d="M267.8,182.44c-.74,2.69-3.2,4.36-6.65,4.36-4.38,0-7.12-3.16-7.12-8.16s2.78-8.19,7.12-8.19,6.85,3,6.85,7.94v1H256.65v.12c.13,3.12,1.87,5.1,4.55,5.1,2,0,3.42-.75,4.08-2.14Zm-11.15-5.12h8.7c-.06-2.79-1.73-4.64-4.23-4.64S256.84,174.53,256.65,177.32Z"/><path class="e" d="M272,170.73h2.4v2.35h.23c.47-1.54,2.29-2.63,4.38-2.63a9.54,9.54,0,0,1,1.26.08v2.52a9.79,9.79,0,0,0-1.61-.15,3.86,3.86,0,0,0-4.14,3.84v9.78H272Z"/><path class="e" d="M288.71,164.46h2.14c-2.08,2.67-3.7,8.32-3.7,13.27s1.61,10.62,3.7,13.29h-2.14a23.28,23.28,0,0,1,0-26.56Z"/><path class="e" d="M328.41,191.9l1.39-8.34h2.8l-2.3,8.34Z"/><path class="e" d="M371.19,191.9l1.39-8.34h2.79l-2.3,8.34Z"/><path class="e" d="M415.63,191h-2.14c2.08-2.67,3.71-8.32,3.71-13.27s-1.62-10.62-3.71-13.29h2.14a23.28,23.28,0,0,1,0,26.56Z"/><use width="155.19" height="57.24" transform="matrix(0.12, -0.02, 0.02, 0.12, 382.4, 176.5)" xlink:href="#a"/><use width="155.19" height="57.24" transform="matrix(0.12, 0.02, -0.02, 0.12, 393.22, 174.01)" xlink:href="#a"/><use width="155.19" height="57.24" transform="translate(387.88 178.58) rotate(-2.59) scale(0.12)" xlink:href="#a"/><path class="f" d="M363.26,181.48c0,1-2.26,1.86-5.58,2.29.69-.3,1.08-.65,1.08-1,0-1.26-4.53-2.28-10.12-2.28-4.41,0-8.15.63-9.55,1.52a2.48,2.48,0,0,1-.78-1.71c0-1.28,1.21-2.4,3-3,.11-.65,1.33-1.19,3-1.37.6-1.73,2.92-3,5.68-3s5,1.26,5.67,3h.27c2.27,0,4.11.68,4.11,1.52a.06.06,0,0,1,0,0c1.89.3,3.25,1.18,3.25,2.21a1.48,1.48,0,0,1-.51,1.06A1.06,1.06,0,0,1,363.26,181.48Z"/><ellipse class="g" cx="356.61" cy="177.46" rx="2.19" ry="1.01"/><ellipse class="g" cx="361.19" cy="178.7" rx="0.85" ry="0.39"/><ellipse class="g" cx="349.8" cy="173.71" rx="1.78" ry="0.83"/><path class="h" d="M358.76,182.75c0,.37-.39.72-1.08,1a37.34,37.34,0,0,1-4.83.3,34.85,34.85,0,0,1-6.29-.53,9.84,9.84,0,0,1-2.15.23,7.69,7.69,0,0,1-5.32-1.78c1.4-.89,5.14-1.52,9.55-1.52C354.23,180.47,358.76,181.49,358.76,182.75Z"/><path class="i" d="M320.74,180.49v2.34h0c-.06.62-.56,1.24-1.57,1.8-3.21,1.82-10.27,2.43-15.77,1.37-3.56-.68-5.6-1.9-5.72-3.17h0a5.65,5.65,0,0,1-.14-.89,3.37,3.37,0,0,1,.14-1.45c0,1.31,2.06,2.58,5.73,3.29,5.5,1.06,12.56.44,15.77-1.37C320.24,181.8,320.74,181.14,320.74,180.49Z"/><path class="j" d="M320.74,180.49h0c0,.65-.5,1.31-1.57,1.92-3.21,1.81-10.27,2.43-15.77,1.37-3.67-.71-5.72-2-5.73-3.29,0-.65.51-1.31,1.57-1.92,3.21-1.81,10.27-2.43,15.78-1.37C318.69,177.91,320.74,179.18,320.74,180.49Z"/><path class="k" d="M305.1,184.05v2.22c-.58-.07-1.15-.16-1.7-.27-3.56-.68-5.6-1.9-5.72-3.17h0a5.65,5.65,0,0,1-.14-.89,3.37,3.37,0,0,1,.14-1.45c0,1.31,2.06,2.58,5.73,3.29C304,183.89,304.52,184,305.1,184.05Z"/><polygon class="l" points="507.94 133.2 507.94 219.91 76.31 219.91 76.31 376.84 788.74 376.84 788.74 362.37 788.74 219.91 788.74 133.2 507.94 133.2"/><path class="e" d="M541.32,182.64c0-4.95,2.62-8.17,6.64-8.17a5.39,5.39,0,0,1,4.95,2.77h.22v-8.76h2.52v22.06h-2.4V188H553a5.65,5.65,0,0,1-5,2.8C543.92,190.82,541.32,187.61,541.32,182.64Zm2.61,0c0,3.69,1.73,5.9,4.61,5.9s4.65-2.25,4.65-5.9-1.79-5.9-4.65-5.9S543.93,179,543.93,182.64Z"/><path class="e" d="M559.75,182.64c0-5.08,2.78-8.17,7.28-8.17s7.28,3.09,7.28,8.17-2.78,8.18-7.28,8.18S559.75,187.71,559.75,182.64Zm12,0c0-3.75-1.68-5.9-4.67-5.9s-4.67,2.15-4.67,5.9,1.68,5.9,4.67,5.9S571.7,186.38,571.7,182.64Z"/><path class="e" d="M588.29,195V168.48h2.13V195Z"/><path class="e" d="M596.28,169.94A1.76,1.76,0,1,1,598,171.7,1.76,1.76,0,0,1,596.28,169.94Zm.5,4.81h2.52v15.79h-2.52Z"/><path class="e" d="M604.11,174.75h2.4v2.49h.23a4.74,4.74,0,0,1,4.75-2.77c3.54,0,5.52,2.09,5.52,5.84v10.23h-2.52v-9.61c0-2.84-1.2-4.19-3.72-4.19s-4.15,1.68-4.15,4.45v9.35h-2.51Z"/><path class="e" d="M621.49,192.28h2.67c.28,1.29,1.68,2.12,4,2.12,2.83,0,4.52-1.39,4.52-3.72v-3.1h-.24a5.47,5.47,0,0,1-4.95,2.72c-4.09,0-6.62-3.16-6.62-7.89s2.56-7.94,6.62-7.94a5.66,5.66,0,0,1,5.07,2.78h.23v-2.5h2.41v16.07c0,3.53-2.73,5.78-7,5.78C624.31,196.6,621.87,194.89,621.49,192.28Zm11.19-9.87c0-3.45-1.77-5.67-4.68-5.67s-4.57,2.22-4.57,5.67,1.64,5.67,4.57,5.67S632.68,185.85,632.68,182.41Z"/><path class="e" d="M639.89,174.75h2.4v2.34h.24c.47-1.54,2.28-2.62,4.38-2.62a11.79,11.79,0,0,1,1.26.07v2.52a10,10,0,0,0-1.61-.15,3.87,3.87,0,0,0-4.15,3.84v9.79h-2.52Z"/><path class="e" d="M663.86,186.45c-.74,2.7-3.2,4.37-6.65,4.37-4.38,0-7.12-3.17-7.12-8.16s2.78-8.19,7.12-8.19,6.85,3,6.85,7.94v1H652.71v.12c.13,3.12,1.87,5.1,4.55,5.1,2,0,3.42-.75,4.08-2.14Zm-11.15-5.11h8.7c-.06-2.8-1.73-4.65-4.23-4.65S652.9,178.54,652.71,181.34Z"/><path class="e" d="M667.23,182.64c0-4.95,2.62-8.17,6.63-8.17a5.39,5.39,0,0,1,4.95,2.77H679v-8.76h2.52v22.06h-2.4V188h-.23a5.67,5.67,0,0,1-5.06,2.8C669.82,190.82,667.23,187.61,667.23,182.64Zm2.6,0c0,3.69,1.73,5.9,4.62,5.9s4.64-2.25,4.64-5.9-1.79-5.9-4.64-5.9S669.83,179,669.83,182.64Z"/><path class="e" d="M686,169.94a1.76,1.76,0,1,1,1.76,1.76A1.77,1.77,0,0,1,686,169.94Zm.5,4.81H689v15.79H686.5Z"/><path class="e" d="M706.81,186.45c-.74,2.7-3.2,4.37-6.65,4.37-4.38,0-7.12-3.17-7.12-8.16s2.78-8.19,7.12-8.19,6.85,3,6.85,7.94v1H695.66v.12c.13,3.12,1.87,5.1,4.55,5.1,2,0,3.42-.75,4.08-2.14Zm-11.15-5.11h8.7c-.06-2.8-1.73-4.65-4.23-4.65S695.85,178.54,695.66,181.34Z"/><path class="e" d="M711,174.75h2.4v2.49h.23a4.74,4.74,0,0,1,4.75-2.77c3.54,0,5.52,2.09,5.52,5.84v10.23h-2.52v-9.61c0-2.84-1.2-4.19-3.72-4.19s-4.14,1.68-4.14,4.45v9.35H711Z"/><path class="e" d="M732,170.66v4.09h3.52v2.11H732v8.93c0,1.86.71,2.65,2.35,2.65a9.36,9.36,0,0,0,1.17-.06v2.13a8.24,8.24,0,0,1-1.48.14c-3.25,0-4.55-1.2-4.55-4.21v-9.58H727v-2.11h2.55v-4.09Z"/><path class="e" d="M740.92,195V168.48h2.14V195Z"/><path class="e" d="M150.64,351.26c-.73,2.7-3.2,4.37-6.65,4.37-4.38,0-7.12-3.17-7.12-8.16s2.78-8.19,7.12-8.19,6.85,3,6.85,7.94v1H139.49v.11c.13,3.12,1.88,5.1,4.56,5.1,2,0,3.41-.75,4.07-2.14Zm-11.15-5.11h8.7c-.06-2.8-1.73-4.64-4.23-4.64S139.68,343.35,139.49,346.15Z"/><path class="e" d="M154.8,339.56h2.4v2.49h.24a4.73,4.73,0,0,1,4.74-2.77c3.55,0,5.52,2.09,5.52,5.84v10.23h-2.52v-9.61c0-2.84-1.2-4.19-3.72-4.19s-4.14,1.68-4.14,4.45v9.35H154.8Z"/><path class="e" d="M171.51,347.45c0-4.95,2.62-8.17,6.64-8.17a5.39,5.39,0,0,1,4.95,2.77h.22v-8.76h2.52v22.06h-2.4v-2.52h-.24a5.65,5.65,0,0,1-5,2.8C174.1,355.63,171.51,352.42,171.51,347.45Zm2.61,0c0,3.69,1.73,5.91,4.61,5.91s4.65-2.26,4.65-5.91-1.79-5.9-4.65-5.9S174.12,343.78,174.12,347.45Z"/><rect class="m" x="160.77" y="251.95" width="580.63" height="15.17" rx="7.59"/><rect class="m" x="160.77" y="284.8" width="580.63" height="15.17" rx="7.59"/><path class="d" d="M45.13,87.09a6.8,6.8,0,0,1-4.89-2,7,7,0,0,1-2-5.31,7.39,7.39,0,0,1,1-3.93,6.64,6.64,0,0,1,2.57-2.51,7.13,7.13,0,0,1,3.33-.82,6.51,6.51,0,0,1,4,1.2A5.61,5.61,0,0,1,51.26,77l-1.79.63A4.19,4.19,0,0,0,48,75.18a4.53,4.53,0,0,0-2.83-.85,4.79,4.79,0,0,0-3.5,1.44,6.33,6.33,0,0,0,0,8.09,4.77,4.77,0,0,0,3.5,1.46A4.41,4.41,0,0,0,48,84.4,4.77,4.77,0,0,0,49.57,82l1.71.63a6,6,0,0,1-2.19,3.26A6.36,6.36,0,0,1,45.13,87.09Z"/><path class="d" d="M52.66,84.26a2.56,2.56,0,0,1,.78-2,3.73,3.73,0,0,1,2.09-.92L58.09,81c.48-.06.72-.3.72-.71a1.61,1.61,0,0,0-.51-1.22,2.21,2.21,0,0,0-1.53-.47,2.14,2.14,0,0,0-1.5.52,2.24,2.24,0,0,0-.65,1.39l-1.77-.41a3.15,3.15,0,0,1,1.24-2.22A4.2,4.2,0,0,1,56.73,77a4,4,0,0,1,3,1,3.4,3.4,0,0,1,1,2.49v4.74a9.29,9.29,0,0,0,.12,1.55H59a7.31,7.31,0,0,1-.1-1.28,3.5,3.5,0,0,1-1.15,1.11,3.57,3.57,0,0,1-1.9.47,3.18,3.18,0,0,1-2.28-.84A2.63,2.63,0,0,1,52.66,84.26Zm3.42,1.27a2.9,2.9,0,0,0,2-.66,2.76,2.76,0,0,0,.74-2.13v-.43l-2.89.43a1.89,1.89,0,0,0-1,.45,1.27,1.27,0,0,0-.37,1,1.29,1.29,0,0,0,.42,1A1.49,1.49,0,0,0,56.08,85.53Z"/><path class="d" d="M65.38,86.79H63.53V72.55h1.85Z"/><path class="d" d="M70.38,86.79H68.53V72.55h1.85Z"/><path class="d" d="M80.92,74.34v3h2V79h-2v4.92a1.11,1.11,0,0,0,1.32,1.3,3.11,3.11,0,0,0,.72-.08v1.57a3.58,3.58,0,0,1-1.26.18,2.56,2.56,0,0,1-1.92-.71,2.68,2.68,0,0,1-.71-2V79H77.26V77.33h.51a1.38,1.38,0,0,0,1.09-.4,1.53,1.53,0,0,0,.37-1.05V74.34Z"/><path class="d" d="M87.27,81.23v5.56H85.42V72.55h1.85v5.88a3.26,3.26,0,0,1,2.87-1.37,3.12,3.12,0,0,1,2.51,1,4.06,4.06,0,0,1,.87,2.69v6H91.67V81.11c0-1.59-.73-2.38-2.2-2.38a1.93,1.93,0,0,0-1.59.7A2.93,2.93,0,0,0,87.27,81.23Z"/><path class="d" d="M103.12,83.55l1.59.55a4.09,4.09,0,0,1-1.53,2.15,4.39,4.39,0,0,1-2.71.84,4.65,4.65,0,0,1-3.38-1.37,5.54,5.54,0,0,1,0-7.26,4.54,4.54,0,0,1,6.53-.07,5.2,5.2,0,0,1,1.2,3.6,3.2,3.2,0,0,1,0,.59H97.61a2.91,2.91,0,0,0,.84,2.07,2.75,2.75,0,0,0,2,.81A2.55,2.55,0,0,0,103.12,83.55Zm-5.45-2.46h5.17a2.5,2.5,0,0,0-.7-1.74,2.56,2.56,0,0,0-1.89-.68,2.42,2.42,0,0,0-1.81.72A2.58,2.58,0,0,0,97.67,81.09Z"/><path class="d" d="M113.88,86.79h-1.83V77.33h1.77v1.26A2.8,2.8,0,0,1,115,77.45a3.64,3.64,0,0,1,1.65-.39,3.26,3.26,0,0,1,1.69.45,2.74,2.74,0,0,1,1.14,1.34,3.36,3.36,0,0,1,3.17-1.79A3.23,3.23,0,0,1,125,78a3.59,3.59,0,0,1,1,2.68v6.13h-1.83V80.85a2.31,2.31,0,0,0-.5-1.57,1.86,1.86,0,0,0-1.5-.59,2,2,0,0,0-1.58.68,2.48,2.48,0,0,0-.61,1.7v5.72h-1.84V80.85a2.32,2.32,0,0,0-.51-1.57,1.86,1.86,0,0,0-1.5-.59,2,2,0,0,0-1.59.67,2.46,2.46,0,0,0-.61,1.73Z"/><path class="d" d="M135.55,83.55l1.59.55a4.15,4.15,0,0,1-1.53,2.15,4.4,4.4,0,0,1-2.72.84,4.64,4.64,0,0,1-3.37-1.37,5.51,5.51,0,0,1-.05-7.26,4.54,4.54,0,0,1,6.53-.07,5.2,5.2,0,0,1,1.2,3.6,3.2,3.2,0,0,1,0,.59H130a2.83,2.83,0,0,0,.84,2.07,2.73,2.73,0,0,0,2,.81A2.57,2.57,0,0,0,135.55,83.55Zm-5.45-2.46h5.17a2.46,2.46,0,0,0-.71-1.74,2.52,2.52,0,0,0-1.88-.68,2.42,2.42,0,0,0-1.81.72A2.58,2.58,0,0,0,130.1,81.09Z"/><path class="d" d="M142,74.34v3h2V79h-2v4.92a1.11,1.11,0,0,0,1.32,1.3,3.11,3.11,0,0,0,.72-.08v1.57a3.58,3.58,0,0,1-1.26.18,2.56,2.56,0,0,1-1.92-.71,2.68,2.68,0,0,1-.71-2V79h-1.81V77.33h.51a1.38,1.38,0,0,0,1.09-.4,1.48,1.48,0,0,0,.37-1.05V74.34Z"/><path class="d" d="M148.39,81.23v5.56h-1.85V72.55h1.85v5.88a3.26,3.26,0,0,1,2.87-1.37,3.1,3.1,0,0,1,2.51,1,4.06,4.06,0,0,1,.87,2.69v6H152.8V81.11c0-1.59-.74-2.38-2.21-2.38a1.93,1.93,0,0,0-1.59.7A2.93,2.93,0,0,0,148.39,81.23Z"/><path class="d" d="M158.17,78.46a5,5,0,0,1,7,0,5.44,5.44,0,0,1,0,7.2,4.95,4.95,0,0,1-7,0,5.46,5.46,0,0,1,0-7.2Zm1.38,6.08a2.89,2.89,0,0,0,4.19,0,3.43,3.43,0,0,0,.85-2.49,3.39,3.39,0,0,0-.85-2.46,2.89,2.89,0,0,0-4.19,0,3.4,3.4,0,0,0-.86,2.46A3.44,3.44,0,0,0,159.55,84.54Z"/><path class="d" d="M175.47,85.51v-.15a3.18,3.18,0,0,1-1.13,1.21,3.32,3.32,0,0,1-1.8.48,4.1,4.1,0,0,1-3.26-1.43A5.28,5.28,0,0,1,168.06,82a5.17,5.17,0,0,1,1.25-3.51,4.1,4.1,0,0,1,3.23-1.44,3.48,3.48,0,0,1,1.89.46,2.49,2.49,0,0,1,1,1.13V72.55h1.83V85a13.23,13.23,0,0,0,.1,1.75h-1.79A6.85,6.85,0,0,1,175.47,85.51ZM169.94,82a3.85,3.85,0,0,0,.74,2.44,2.44,2.44,0,0,0,2,1,2.37,2.37,0,0,0,2-1,3.88,3.88,0,0,0,.75-2.46,3.63,3.63,0,0,0-.73-2.37,2.39,2.39,0,0,0-2-.91,2.52,2.52,0,0,0-2,.92A3.66,3.66,0,0,0,169.94,82Z"/><path class="d" d="M77.79,103.44h1.9l2.46,7.12,2.09-7.12h1.94l-3.06,9.46H81.21l-2.52-7.2-2.46,7.2H74.29l-3.11-9.46h2l2.13,7.12Z"/><path class="d" d="M88,100.79a1.27,1.27,0,0,1-.38-.93,1.31,1.31,0,0,1,.38-.94,1.32,1.32,0,0,1,1.88,0,1.27,1.27,0,0,1,.39,1,1.24,1.24,0,0,1-.39.93,1.29,1.29,0,0,1-.94.39A1.28,1.28,0,0,1,88,100.79Zm1.86,12.11H88.05v-9.46h1.83Z"/><path class="d" d="M95.51,100.45v3h2v1.67h-2V110a1.39,1.39,0,0,0,.3,1,1.36,1.36,0,0,0,1,.32,3.13,3.13,0,0,0,.73-.08v1.57a3.58,3.58,0,0,1-1.26.18,2.64,2.64,0,0,1-1.93-.71,2.68,2.68,0,0,1-.7-2v-5.19H91.85v-1.67h.51a1.39,1.39,0,0,0,1.09-.4,1.52,1.52,0,0,0,.36-1.05v-1.54Z"/><path class="d" d="M101.86,107.33v5.57H100V98.66h1.85v5.88a3.23,3.23,0,0,1,2.87-1.37,3.09,3.09,0,0,1,2.51,1,4,4,0,0,1,.87,2.69v6h-1.85v-5.68c0-1.59-.73-2.38-2.2-2.38a2,2,0,0,0-1.59.69A2.91,2.91,0,0,0,101.86,107.33Z"/><path class="d" d="M117.81,116.64H116v-13.2h1.79v1.48A3.1,3.1,0,0,1,119,103.7a3.75,3.75,0,0,1,1.92-.48,3.92,3.92,0,0,1,3.2,1.4,6,6,0,0,1,0,7.12,4,4,0,0,1-3.22,1.42,3.79,3.79,0,0,1-1.84-.44,3.05,3.05,0,0,1-1.22-1.1Zm5.58-8.48a3.6,3.6,0,0,0-.76-2.37,2.47,2.47,0,0,0-2-.93,2.53,2.53,0,0,0-2,.93,3.61,3.61,0,0,0-.77,2.37,3.68,3.68,0,0,0,.77,2.41,2.53,2.53,0,0,0,2,.93,2.48,2.48,0,0,0,2-.93A3.63,3.63,0,0,0,123.39,108.16Z"/><path class="d" d="M127.05,110.36a2.53,2.53,0,0,1,.79-2,3.64,3.64,0,0,1,2.08-.92l2.56-.37c.48-.07.72-.3.72-.71a1.58,1.58,0,0,0-.51-1.22,2.21,2.21,0,0,0-1.53-.47,2.09,2.09,0,0,0-1.5.52,2.18,2.18,0,0,0-.64,1.39l-1.77-.42a3.1,3.1,0,0,1,1.23-2.21,4.2,4.2,0,0,1,2.64-.85,4,4,0,0,1,3,1,3.4,3.4,0,0,1,1,2.49v4.74a9.29,9.29,0,0,0,.12,1.55h-1.81a8.42,8.42,0,0,1-.1-1.28,3.39,3.39,0,0,1-1.15,1.1,3.44,3.44,0,0,1-1.89.47,3.18,3.18,0,0,1-2.29-.83A2.65,2.65,0,0,1,127.05,110.36Zm3.42,1.28a2.85,2.85,0,0,0,2-.67,2.69,2.69,0,0,0,.74-2.12v-.43l-2.89.43a1.75,1.75,0,0,0-1,.45,1.27,1.27,0,0,0-.37,1,1.33,1.33,0,0,0,.42,1A1.53,1.53,0,0,0,130.47,111.64Z"/><path class="d" d="M143.18,103.34v2a5.73,5.73,0,0,0-.81-.06c-1.73,0-2.6,1-2.6,2.91v4.74h-1.85v-9.46h1.81v1.65a3,3,0,0,1,2.84-1.81A3.15,3.15,0,0,1,143.18,103.34Z"/><path class="d" d="M144.55,110.36a2.53,2.53,0,0,1,.79-2,3.64,3.64,0,0,1,2.08-.92l2.56-.37c.48-.07.73-.3.73-.71a1.58,1.58,0,0,0-.51-1.22,2.25,2.25,0,0,0-1.54-.47,2,2,0,0,0-1.49.52,2.14,2.14,0,0,0-.65,1.39l-1.77-.42A3.08,3.08,0,0,1,146,104a4.15,4.15,0,0,1,2.63-.85,4,4,0,0,1,3,1,3.41,3.41,0,0,1,1,2.49v4.74a9.34,9.34,0,0,0,.11,1.55h-1.81a8.47,8.47,0,0,1-.09-1.28,3.58,3.58,0,0,1-1.15,1.1,3.5,3.5,0,0,1-1.9.47,3.17,3.17,0,0,1-2.28-.83A2.66,2.66,0,0,1,144.55,110.36Zm3.42,1.28a2.85,2.85,0,0,0,2-.67,2.69,2.69,0,0,0,.75-2.12v-.43l-2.89.43a1.78,1.78,0,0,0-1,.45,1.27,1.27,0,0,0-.37,1,1.33,1.33,0,0,0,.42,1A1.53,1.53,0,0,0,148,111.64Z"/><path class="d" d="M157.26,112.9h-1.83v-9.46h1.77v1.26a2.75,2.75,0,0,1,1.22-1.14,3.64,3.64,0,0,1,1.65-.39,3.29,3.29,0,0,1,1.69.45A2.72,2.72,0,0,1,162.9,105a3.35,3.35,0,0,1,3.17-1.78,3.19,3.19,0,0,1,2.31.92,3.58,3.58,0,0,1,1,2.67v6.14H167.5V107a2.35,2.35,0,0,0-.5-1.57,1.84,1.84,0,0,0-1.5-.59,2,2,0,0,0-1.58.68,2.48,2.48,0,0,0-.61,1.7v5.72h-1.85V107a2.3,2.3,0,0,0-.5-1.57,1.83,1.83,0,0,0-1.5-.59,2,2,0,0,0-1.59.67,2.44,2.44,0,0,0-.61,1.73Z"/><path class="d" d="M178.93,109.65l1.59.56a4.23,4.23,0,0,1-1.53,2.15,4.42,4.42,0,0,1-2.72.83,4.62,4.62,0,0,1-3.37-1.36,5,5,0,0,1-1.39-3.69,5,5,0,0,1,1.34-3.58,4.56,4.56,0,0,1,6.53-.07,5.23,5.23,0,0,1,1.2,3.61,3.27,3.27,0,0,1,0,.59h-7.12a2.83,2.83,0,0,0,.84,2.07,2.76,2.76,0,0,0,2,.8A2.56,2.56,0,0,0,178.93,109.65Zm-5.45-2.45h5.17a2.39,2.39,0,0,0-2.59-2.42,2.42,2.42,0,0,0-1.81.72A2.51,2.51,0,0,0,173.48,107.2Z"/><path class="d" d="M185.42,100.45v3h2v1.67h-2V110a1.39,1.39,0,0,0,.3,1,1.36,1.36,0,0,0,1,.32,3.13,3.13,0,0,0,.73-.08v1.57a3.58,3.58,0,0,1-1.26.18,2.6,2.6,0,0,1-1.92-.71,2.65,2.65,0,0,1-.71-2v-5.19h-1.81v-1.67h.51a1.38,1.38,0,0,0,1.09-.4,1.53,1.53,0,0,0,.37-1.05v-1.54Z"/><path class="d" d="M196.47,109.65l1.59.56a4.17,4.17,0,0,1-1.53,2.15,4.4,4.4,0,0,1-2.72.83,4.63,4.63,0,0,1-3.37-1.36,5,5,0,0,1-1.38-3.69,5,5,0,0,1,1.33-3.58,4.56,4.56,0,0,1,6.53-.07,5.23,5.23,0,0,1,1.2,3.61,3.27,3.27,0,0,1,0,.59H191a2.87,2.87,0,0,0,.84,2.07,2.76,2.76,0,0,0,2,.8A2.56,2.56,0,0,0,196.47,109.65ZM191,107.2h5.17a2.37,2.37,0,0,0-2.59-2.42,2.42,2.42,0,0,0-1.81.72A2.56,2.56,0,0,0,191,107.2Z"/><path class="d" d="M205.73,103.34v2a5.49,5.49,0,0,0-.8-.06c-1.74,0-2.6,1-2.6,2.91v4.74h-1.85v-9.46h1.81v1.65a2.94,2.94,0,0,1,2.83-1.81A3,3,0,0,1,205.73,103.34Z"/><path class="d" d="M206.81,110.44l1.67-.59a2,2,0,0,0,.67,1.27,2.26,2.26,0,0,0,1.54.5,1.79,1.79,0,0,0,1.18-.36,1.13,1.13,0,0,0,.43-.9c0-.63-.41-1-1.22-1.22l-1.61-.35a3.11,3.11,0,0,1-1.73-.94,2.52,2.52,0,0,1-.63-1.72,2.73,2.73,0,0,1,1-2.1,3.43,3.43,0,0,1,2.37-.88,4.5,4.5,0,0,1,1.61.26,2.83,2.83,0,0,1,1.11.7,4,4,0,0,1,.58.81,3.08,3.08,0,0,1,.3.76l-1.63.61a1.88,1.88,0,0,0-.14-.46,3.14,3.14,0,0,0-.3-.5,1.38,1.38,0,0,0-.6-.44,2.24,2.24,0,0,0-.93-.17,1.69,1.69,0,0,0-1.13.37,1.15,1.15,0,0,0-.44.89q0,.9,1.08,1.14l1.53.33a3.64,3.64,0,0,1,1.94,1,2.6,2.6,0,0,1,.68,1.8,2.79,2.79,0,0,1-.92,2,3.46,3.46,0,0,1-2.54.9,4,4,0,0,1-2.74-.87A3.11,3.11,0,0,1,206.81,110.44Z"/><path class="n" d="M827.8,155.69C818.12,158.87,814,171,816,181s8.33,18.46,13.91,27c8.75,13.36,16.06,28,18.68,43.73,4.83,28.94-6.8,58.6-24.42,82-9.32,12.4-20.88,24.93-21.26,40.43-.52,21.72,21.19,38.55,22.85,60.21.93,12.07-4.81,24-13.53,32.45s-20.12,13.57-31.8,16.72c-35.47,9.58-214,13.91-304.76-36.56"/><polygon class="o" points="482.53 440.52 464.58 440.32 473.37 455.96 482.53 440.52"/><path class="o" d="M565,430.16h-8.51V416.22h1.93v12.13H565Z"/><path class="o" d="M573.64,426.92l1.59.55a4.19,4.19,0,0,1-1.53,2.15,4.42,4.42,0,0,1-2.72.84,4.64,4.64,0,0,1-3.37-1.37,5,5,0,0,1-1.39-3.69,5,5,0,0,1,1.34-3.58,4.56,4.56,0,0,1,6.53-.07,5.25,5.25,0,0,1,1.2,3.61,3.27,3.27,0,0,1,0,.59h-7.12A2.83,2.83,0,0,0,569,428a2.72,2.72,0,0,0,2,.8A2.56,2.56,0,0,0,573.64,426.92Zm-5.45-2.46h5.17a2.5,2.5,0,0,0-.7-1.74,2.56,2.56,0,0,0-1.89-.68,2.42,2.42,0,0,0-1.81.72A2.58,2.58,0,0,0,568.19,424.46Z"/><path class="o" d="M580.13,417.71v3h2v1.67h-2v4.92a1.12,1.12,0,0,0,1.32,1.3,3.11,3.11,0,0,0,.72-.08v1.57a3.58,3.58,0,0,1-1.26.18,2.6,2.6,0,0,1-1.92-.71,2.64,2.64,0,0,1-.71-2v-5.2h-1.81V420.7H577a1.38,1.38,0,0,0,1.09-.4,1.53,1.53,0,0,0,.37-1.05v-1.54Z"/><path class="o" d="M592,417.71v3h2.05v1.67H592v4.92a1.13,1.13,0,0,0,1.32,1.3,3.13,3.13,0,0,0,.73-.08v1.57a3.62,3.62,0,0,1-1.26.18,2.64,2.64,0,0,1-1.93-.71,2.67,2.67,0,0,1-.7-2v-5.2h-1.81V420.7h.51a1.39,1.39,0,0,0,1.09-.4,1.52,1.52,0,0,0,.36-1.05v-1.54Z"/><path class="o" d="M598.38,424.6v5.56h-1.85V415.92h1.85v5.88a3.25,3.25,0,0,1,2.87-1.37,3.09,3.09,0,0,1,2.51,1,4,4,0,0,1,.87,2.69v6h-1.85v-5.68c0-1.59-.73-2.38-2.2-2.38a1.93,1.93,0,0,0-1.59.7A2.87,2.87,0,0,0,598.38,424.6Z"/><path class="o" d="M614.23,426.92l1.59.55a4.25,4.25,0,0,1-1.53,2.15,4.42,4.42,0,0,1-2.72.84,4.63,4.63,0,0,1-3.37-1.37,5,5,0,0,1-1.39-3.69,5,5,0,0,1,1.34-3.58,4.56,4.56,0,0,1,6.53-.07,5.25,5.25,0,0,1,1.2,3.61,3.27,3.27,0,0,1,0,.59h-7.12a2.83,2.83,0,0,0,.84,2.07,2.72,2.72,0,0,0,2,.8A2.56,2.56,0,0,0,614.23,426.92Zm-5.45-2.46H614a2.46,2.46,0,0,0-.71-1.74,2.52,2.52,0,0,0-1.88-.68,2.42,2.42,0,0,0-1.81.72A2.53,2.53,0,0,0,608.78,424.46Z"/><path class="o" d="M625,430.16h-1.82V415.92H625V422a3,3,0,0,1,1.19-1.15,3.87,3.87,0,0,1,1.94-.46,3.91,3.91,0,0,1,3.21,1.39,6.12,6.12,0,0,1,0,7.17,4,4,0,0,1-3.23,1.43,3.28,3.28,0,0,1-3.07-1.64Zm4.82-2.32a3.73,3.73,0,0,0,.77-2.46,3.63,3.63,0,0,0-.76-2.43,2.53,2.53,0,0,0-2-.89,2.58,2.58,0,0,0-2,.9,3.6,3.6,0,0,0-.79,2.42,3.7,3.7,0,0,0,.79,2.45,2.54,2.54,0,0,0,2,.93A2.47,2.47,0,0,0,629.8,427.84Z"/><path class="o" d="M636.67,430.16h-1.85V415.92h1.85Z"/><path class="o" d="M640.39,421.83a4.95,4.95,0,0,1,6.94,0,5.43,5.43,0,0,1,0,7.2,4.95,4.95,0,0,1-7,0,5.46,5.46,0,0,1,0-7.2Zm1.38,6.08a2.91,2.91,0,0,0,4.19,0,3.47,3.47,0,0,0,.85-2.49A3.43,3.43,0,0,0,646,423a2.91,2.91,0,0,0-4.19,0,4,4,0,0,0,0,5Z"/><path class="o" d="M655,422.12a2.72,2.72,0,0,0-2,.86,4,4,0,0,0,0,4.88,2.7,2.7,0,0,0,2,.89,2.52,2.52,0,0,0,1.8-.59,3.1,3.1,0,0,0,.84-1.36l1.63.71a4.46,4.46,0,0,1-1.49,2.06,4.25,4.25,0,0,1-2.78.89,4.52,4.52,0,0,1-3.42-1.44,5.07,5.07,0,0,1-1.36-3.6,5,5,0,0,1,1.36-3.61,4.56,4.56,0,0,1,3.4-1.4,4.23,4.23,0,0,1,2.8.88,4.06,4.06,0,0,1,1.41,2.13l-1.67.7a2.9,2.9,0,0,0-.83-1.41A2.31,2.31,0,0,0,655,422.12Z"/><path class="o" d="M670,420.7l-4,4,4.11,5.47h-2.32L664.63,426l-1.32,1.32v2.85h-1.83V415.92h1.83v9l4.09-4.19Z"/><path class="o" d="M680.7,417.59a1.65,1.65,0,0,0-1.06.37,1.55,1.55,0,0,0-.44,1.25v1.49h4.37v-4.78h1.85v14.24h-1.85v-7.79H679.2v7.79h-1.91v-7.79h-1.75V420.7h1.75v-1.59a3.18,3.18,0,0,1,.89-2.38,3,3,0,0,1,2.22-.87,2,2,0,0,1,1.1.2v1.65A2.14,2.14,0,0,0,680.7,417.59Z"/><path class="o" d="M689.14,421.83a4.95,4.95,0,0,1,6.94,0,5.43,5.43,0,0,1,0,7.2,4.95,4.95,0,0,1-7,0,5.46,5.46,0,0,1,0-7.2Zm1.38,6.08a2.91,2.91,0,0,0,4.19,0,3.47,3.47,0,0,0,.85-2.49,3.43,3.43,0,0,0-.85-2.47,2.91,2.91,0,0,0-4.19,0,4,4,0,0,0,0,5Z"/><path class="o" d="M704.94,420.7h1.91l2.46,7.12,2.08-7.12h2l-3.07,9.46h-1.9l-2.52-7.2-2.46,7.2h-1.95l-3.1-9.46h2l2.13,7.12Z"/><path class="o" d="M591.71,456.27h-1.83V442h1.83v6.12A2.88,2.88,0,0,1,592.9,447a3.83,3.83,0,0,1,1.93-.47,3.92,3.92,0,0,1,3.21,1.4,6.12,6.12,0,0,1,0,7.17,4,4,0,0,1-3.23,1.42,3.26,3.26,0,0,1-3.06-1.63Zm4.82-2.32a3.75,3.75,0,0,0,.76-2.46,3.68,3.68,0,0,0-.75-2.43,2.53,2.53,0,0,0-2-.89,2.58,2.58,0,0,0-2,.9,3.57,3.57,0,0,0-.78,2.42,3.71,3.71,0,0,0,.78,2.45,2.69,2.69,0,0,0,4.06,0Z"/><path class="o" d="M608.19,453l1.59.55a4.27,4.27,0,0,1-1.53,2.16,4.48,4.48,0,0,1-2.72.83,4.62,4.62,0,0,1-3.37-1.36,4.92,4.92,0,0,1-1.39-3.69,5,5,0,0,1,1.34-3.58,4.54,4.54,0,0,1,6.53-.07,5.23,5.23,0,0,1,1.2,3.61,3.27,3.27,0,0,1,0,.59h-7.12a2.79,2.79,0,0,0,.84,2.06,2.73,2.73,0,0,0,2,.81A2.57,2.57,0,0,0,608.19,453Zm-5.45-2.46h5.17a2.37,2.37,0,0,0-2.6-2.41,2.4,2.4,0,0,0-1.8.71A2.55,2.55,0,0,0,602.74,450.56Z"/><path class="o" d="M614.05,456.27H612.2V442h1.85Z"/><path class="o" d="M617.77,447.94a4.93,4.93,0,0,1,6.94,0,5,5,0,0,1,1.37,3.59,5,5,0,0,1-1.36,3.61,5,5,0,0,1-7,0,5.05,5.05,0,0,1-1.35-3.61A5,5,0,0,1,617.77,447.94Zm1.38,6.08a2.91,2.91,0,0,0,4.19,0,3.47,3.47,0,0,0,.85-2.49,3.43,3.43,0,0,0-.85-2.47,2.91,2.91,0,0,0-4.19,0,4,4,0,0,0,0,5Z"/><path class="o" d="M633.57,446.81h1.91l2.46,7.12,2.08-7.12h2l-3.07,9.46H637l-2.52-7.2-2.46,7.2h-1.95l-3.1-9.46h2l2.13,7.12Z"/><path class="o" d="M651.23,443.82v3h2v1.67h-2v4.92a1.34,1.34,0,0,0,.31,1,1.36,1.36,0,0,0,1,.31,3.17,3.17,0,0,0,.73-.07v1.57a3.66,3.66,0,0,1-1.26.18,2.64,2.64,0,0,1-1.93-.71,2.7,2.7,0,0,1-.71-2v-5.19h-1.8v-1.67h.51a1.43,1.43,0,0,0,1.09-.4,1.53,1.53,0,0,0,.36-1.06v-1.53Z"/><path class="o" d="M657.59,450.7v5.57h-1.85V442h1.85v5.88a3.22,3.22,0,0,1,2.87-1.38,3.07,3.07,0,0,1,2.5,1.05,4,4,0,0,1,.88,2.69v6H662v-5.69c0-1.58-.73-2.37-2.2-2.37a2,2,0,0,0-1.59.69A2.91,2.91,0,0,0,657.59,450.7Z"/><path class="o" d="M673.44,453l1.59.55a4.27,4.27,0,0,1-1.53,2.16,4.48,4.48,0,0,1-2.72.83,4.62,4.62,0,0,1-3.37-1.36,4.92,4.92,0,0,1-1.39-3.69,5,5,0,0,1,1.34-3.58,4.54,4.54,0,0,1,6.53-.07,5.23,5.23,0,0,1,1.2,3.61,3.27,3.27,0,0,1,0,.59h-7.12a2.79,2.79,0,0,0,.84,2.06,2.73,2.73,0,0,0,2,.81A2.57,2.57,0,0,0,673.44,453ZM668,450.56h5.17a2.37,2.37,0,0,0-2.6-2.41,2.4,2.4,0,0,0-1.8.71A2.55,2.55,0,0,0,668,450.56Z"/><path class="o" d="M684.19,456.27h-1.83v-9.46h1.77v1.26a2.86,2.86,0,0,1,1.22-1.14,3.59,3.59,0,0,1,1.65-.4,3.24,3.24,0,0,1,1.7.46,2.72,2.72,0,0,1,1.14,1.33,3.34,3.34,0,0,1,3.16-1.79,3.17,3.17,0,0,1,2.31.93,3.52,3.52,0,0,1,1,2.67v6.14h-1.83v-5.94a2.39,2.39,0,0,0-.5-1.58,1.89,1.89,0,0,0-1.51-.58,2,2,0,0,0-1.57.67,2.45,2.45,0,0,0-.61,1.7v5.73H688.4v-5.94a2.39,2.39,0,0,0-.5-1.58,1.89,1.89,0,0,0-1.51-.58,2.07,2.07,0,0,0-1.59.66,2.52,2.52,0,0,0-.61,1.73Z"/><path class="o" d="M705.86,453l1.6.55a4.23,4.23,0,0,1-1.54,2.16,4.43,4.43,0,0,1-2.71.83,4.6,4.6,0,0,1-3.37-1.36,4.92,4.92,0,0,1-1.39-3.69,5,5,0,0,1,1.34-3.58,4.54,4.54,0,0,1,6.53-.07,5.23,5.23,0,0,1,1.2,3.61,4.55,4.55,0,0,1,0,.59h-7.12a2.82,2.82,0,0,0,.83,2.06,2.77,2.77,0,0,0,2,.81A2.55,2.55,0,0,0,705.86,453Zm-5.44-2.46h5.17a2.37,2.37,0,0,0-2.6-2.41,2.44,2.44,0,0,0-1.81.71A2.59,2.59,0,0,0,700.42,450.56Z"/><path class="o" d="M712.35,443.82v3h2v1.67h-2v4.92a1.34,1.34,0,0,0,.31,1,1.36,1.36,0,0,0,1,.31,3.17,3.17,0,0,0,.73-.07v1.57a3.66,3.66,0,0,1-1.26.18,2.62,2.62,0,0,1-1.93-.71,2.7,2.7,0,0,1-.71-2v-5.19h-1.8v-1.67h.51a1.44,1.44,0,0,0,1.09-.4,1.53,1.53,0,0,0,.36-1.06v-1.53Z"/><path class="o" d="M718.71,450.7v5.57h-1.85V442h1.85v5.88a3.22,3.22,0,0,1,2.87-1.38,3.07,3.07,0,0,1,2.5,1.05,4,4,0,0,1,.88,2.69v6h-1.85v-5.69c0-1.58-.73-2.37-2.2-2.37a2,2,0,0,0-1.6.69A2.9,2.9,0,0,0,718.71,450.7Z"/><path class="o" d="M728.49,447.94a4.93,4.93,0,0,1,6.94,0,5,5,0,0,1,1.37,3.59,5.06,5.06,0,0,1-1.36,3.61,5,5,0,0,1-7,0,5.43,5.43,0,0,1,0-7.2Zm1.38,6.08a2.9,2.9,0,0,0,4.18,0,4,4,0,0,0,0-5,2.9,2.9,0,0,0-4.18,0,4,4,0,0,0,0,5Z"/><path class="o" d="M745.78,455v-.16a3,3,0,0,1-1.13,1.21,3.27,3.27,0,0,1-1.8.48,4.07,4.07,0,0,1-3.25-1.42,5.3,5.3,0,0,1-1.23-3.59,5.14,5.14,0,0,1,1.26-3.51,4.06,4.06,0,0,1,3.22-1.45,3.52,3.52,0,0,1,1.89.46,2.49,2.49,0,0,1,1,1.14V442h1.82v12.49a15.46,15.46,0,0,0,.1,1.75h-1.79A8,8,0,0,1,745.78,455Zm-5.52-3.48A3.81,3.81,0,0,0,741,454a2.43,2.43,0,0,0,2,.94,2.4,2.4,0,0,0,2-1,3.87,3.87,0,0,0,.74-2.46,3.71,3.71,0,0,0-.72-2.38,2.44,2.44,0,0,0-2-.91,2.48,2.48,0,0,0-2,.93A3.6,3.6,0,0,0,740.26,451.51Z"/><path class="o" d="M759.61,448.22a2.73,2.73,0,0,0-2,.87,3.4,3.4,0,0,0-.83,2.44,3.45,3.45,0,0,0,.83,2.44,2.73,2.73,0,0,0,2.06.88,2.47,2.47,0,0,0,1.8-.59,2.89,2.89,0,0,0,.83-1.36l1.64.71a4.51,4.51,0,0,1-1.49,2.07,4.27,4.27,0,0,1-2.78.88,4.51,4.51,0,0,1-3.42-1.43,5,5,0,0,1-1.36-3.6,5,5,0,0,1,1.36-3.61,4.52,4.52,0,0,1,3.4-1.41,4.25,4.25,0,0,1,2.8.89,4.13,4.13,0,0,1,1.41,2.12l-1.67.71a3.06,3.06,0,0,0-.83-1.42A2.38,2.38,0,0,0,759.61,448.22Z"/><path class="o" d="M765.37,453.73a2.56,2.56,0,0,1,.79-2,3.69,3.69,0,0,1,2.08-.91l2.56-.37c.48-.07.73-.31.73-.71a1.55,1.55,0,0,0-.52-1.22,2.16,2.16,0,0,0-1.53-.47,2,2,0,0,0-1.49.52,2.14,2.14,0,0,0-.65,1.38l-1.77-.41a3.08,3.08,0,0,1,1.24-2.21,4.15,4.15,0,0,1,2.63-.86,4,4,0,0,1,3,1,3.38,3.38,0,0,1,1,2.48v4.74a9.39,9.39,0,0,0,.11,1.56h-1.81a8.52,8.52,0,0,1-.1-1.28,3.39,3.39,0,0,1-1.15,1.1,3.44,3.44,0,0,1-1.89.47,3.21,3.21,0,0,1-2.28-.83A2.67,2.67,0,0,1,765.37,453.73Zm3.42,1.28a2.85,2.85,0,0,0,2-.67,2.71,2.71,0,0,0,.75-2.12v-.44l-2.89.44a1.78,1.78,0,0,0-1,.45,1.25,1.25,0,0,0-.37,1,1.33,1.33,0,0,0,.42,1A1.53,1.53,0,0,0,768.79,455Z"/><path class="o" d="M778.09,456.27h-1.84V442h1.84Z"/><path class="o" d="M783.09,456.27h-1.85V442h1.85Z"/><circle class="p" cx="31.69" cy="49.19" r="14.48"/><path class="d" d="M34.64,55.47H31.28v-9H28V44.19a4.43,4.43,0,0,0,2.56-.77,2.88,2.88,0,0,0,1.23-1.84h2.89Z"/><circle class="q" cx="844.39" cy="139.48" r="14.48"/><path class="l" d="M842.54,137.43l-3.17,0a3.55,3.55,0,0,1-.13-1.16,4.51,4.51,0,0,1,1.4-3.34,6,6,0,0,1,7.55,0,4.25,4.25,0,0,1,1.41,3.24,4.87,4.87,0,0,1-2.74,4.32L844.23,142a2.4,2.4,0,0,0-.94.94h6.42v2.83H839.15a8.1,8.1,0,0,1,.74-3.57,6.12,6.12,0,0,1,2.54-2.56l2.27-1.33a3.69,3.69,0,0,0,1.18-1,2,2,0,0,0,.34-1.17,1.56,1.56,0,0,0-.48-1.17,1.86,1.86,0,0,0-1.38-.47,1.84,1.84,0,0,0-1.45.57,2.21,2.21,0,0,0-.5,1.48A2.71,2.71,0,0,0,842.54,137.43Z"/><path class="r" d="M52.32,33.23c22.64-20,49.74-26.54,81.31-21.44,21.16,3.41,40,25.84,50.27,42.52"/><polygon class="d" points="174.66 56.45 190.07 65.66 190.34 47.71 174.66 56.45"/></g></svg>