<svg xmlns="http://www.w3.org/2000/svg" xmlns:xlink="http://www.w3.org/1999/xlink" viewBox="0 0 900 450"><defs><style>.a{fill:#ed2627;}.b{fill:#fddfe0;opacity:0.8;}.c{fill:#cd362c;}.d{fill:#f1e5ce;}.e{fill:#fef6ea;}.f{fill:#741a14;}.g,.n,.r{fill:none;}.h{fill:#a92b22;}.i,.j{fill:#4b4b4b;}.i{opacity:0.2;mix-blend-mode:multiply;}.k{fill:#7e73ff;}.l{fill:#fff;}.m,.q{fill:#eceaff;}.m{opacity:0.3;}.n{stroke:#6057c2;}.n,.r{stroke-miterlimit:10;stroke-width:3px;}.o{fill:#6057c2;}.p{fill:#eae9e9;}.r{stroke:#4b4b4b;}</style><symbol id="a" viewBox="0 0 146.05 61.89"><path class="f" d="M146.05,24V38.69h0c-.34,3.85-3.54,7.74-9.85,11.32C116,61.43,71.57,65.29,37,58.63c-22.4-4.31-35.2-12-36-19.94H1a31.09,31.09,0,0,1-.88-5.61C-.31,26.7,1,23.94,1,23.94c0,8.24,12.92,16.25,36,20.69,34.61,6.66,79,2.8,99.2-8.63C142.86,32.21,146.05,28.06,146.05,24Z"/><line class="g" x1="0.95" y1="24.72" x2="0.95" y2="37.25"/><path class="h" d="M146.05,23.94v0c0,4.09-3.19,8.24-9.89,12C116,47.43,71.57,51.29,37,44.63,13.87,40.19,1,32.18,1,23.94c0-4.09,3.17-8.25,9.89-12C31,.46,75.43-3.4,110,3.26,133.13,7.71,146,15.71,146.05,23.94Z"/><ellipse class="i" cx="63.14" cy="20.71" rx="29.51" ry="11.13"/><path class="i" d="M28.79,42.8c2.56.66,5.29,1.28,8.17,1.83q5.24,1,10.72,1.69v14Q42.21,59.63,37,58.63c-22.4-4.31-35.2-12-36-20H1a30.82,30.82,0,0,1-.88-5.6C-.31,26.71,1,24,1,24c0,7.2,9.9,14.23,27.84,18.85"/></symbol><symbol id="b" viewBox="0 0 85.47 38.34"><path class="a" d="M85.47,29.47c0,3.41-7.75,6.37-19.12,7.85,2.36-1,3.69-2.24,3.69-3.5C70,29.5,54.52,26,35.37,26,20.29,26,7.45,28.17,2.68,31.21A8.39,8.39,0,0,1,0,25.35C0,21,4.13,17.14,10.27,15.06c.38-2.24,4.57-4.1,10.2-4.69C22.53,4.43,30.47,0,40,0S57.21,4.34,59.36,10.18h.92c7.77,0,14.07,2.34,14.07,5.22a.66.66,0,0,1,0,.14c6.46,1,11.13,4,11.13,7.57a5.07,5.07,0,0,1-1.76,3.62A3.62,3.62,0,0,1,85.47,29.47Z"/><ellipse class="b" cx="62.69" cy="15.7" rx="7.5" ry="3.47"/><ellipse class="b" cx="78.36" cy="19.95" rx="2.92" ry="1.35"/><ellipse class="b" cx="39.35" cy="2.84" rx="6.1" ry="2.84"/><path class="c" d="M70,33.82c0,1.26-1.33,2.45-3.69,3.5a128.53,128.53,0,0,1-16.54,1,119.26,119.26,0,0,1-21.55-1.81,34.81,34.81,0,0,1-7.38.77c-7.81,0-14.62-2.46-18.2-6.09C7.45,28.17,20.29,26,35.37,26,54.52,26,70,29.5,70,33.82Z"/></symbol><symbol id="d" viewBox="0 0 155.19 57.24"><path class="d" d="M155.18,25.61c0,4.39-3.39,8.84-10.56,12.9C123,50.73,75.53,54.86,38.52,47.74,13.82,43,0,34.42,0,25.61H0v6H0C0,40.44,13.82,49,38.52,53.75c37,7.13,84.52,3,106.1-9.22,7.17-4.06,10.58-8.51,10.56-12.9h0v-6Z"/><path class="e" d="M116.67,3.49c-37-7.12-84.52-3-106.1,9.23C3.4,16.78,0,21.22,0,25.61v.19a3.52,3.52,0,0,0,.05.64c0,.13,0,.27.05.41a9.11,9.11,0,0,0,.4,1.64l.05.11a1.42,1.42,0,0,0,.1.29c.06.14.11.28.17.41s.13.27.19.41.13.26.2.38,0,0,0,0c.15.27.31.54.47.8a0,0,0,0,0,0,0c.09.13.17.26.27.39a12.28,12.28,0,0,0,.9,1.18l0,0c.21.25.44.51.68.77l0,0c.12.13.25.25.38.38l.82.78.44.38.46.39c.31.25.63.5,1,.75l.23.17,0,0,.6.43c.78.54,1.61,1.07,2.5,1.59l.58.33.43.24.35.2c.11.06.22.13.35.19l.88.45,1.13.56.85.4c.53.25,1.09.49,1.65.73l.78.33,1.63.65,1.51.56c.55.2,1.1.4,1.67.59l.85.28.87.29.15,0h0l.71.22.9.28.92.27,1.5.43,1,.26,1,.28.88.22.41.1c.62.16,1.24.31,1.87.45l2,.45,1.32.28,1.14.22,1.15.23q4.27.83,8.73,1.45c1.3.19,2.62.36,4,.52,1.82.22,3.67.41,5.52.58l1.8.16c1.1.1,2.2.18,3.31.25,1.27.09,2.55.17,3.83.23s2.55.13,3.83.17c3.93.14,7.87.17,11.79.11l1.25,0c1,0,2,0,3-.08l2-.07.27,0c.75,0,1.5-.06,2.25-.11l2.39-.14.91-.06,1.77-.12,1.59-.13,1.39-.12.81-.08,1.08-.11c.37,0,.73-.06,1.09-.11l.37,0,1.65-.18c1.11-.13,2.22-.27,3.32-.42l1.06-.14.4,0L109,49c.88-.13,1.74-.26,2.61-.41l1-.16.32-.06,1.66-.28,1.77-.33c1.8-.34,3.55-.71,5.27-1.09l1.45-.34c2.09-.5,4.12-1,6.06-1.61l1.73-.52.5-.16h0l.73-.23c1.94-.63,3.79-1.31,5.54-2l.75-.31.25-.1,1.57-.69.33-.15c.77-.35,1.53-.72,2.25-1.09l.82-.43,1-.53c.85-.48,1.64-1,2.39-1.46l.44-.3.43-.29.41-.3a23.9,23.9,0,0,0,3.22-2.75c.26-.27.51-.54.74-.81s.45-.54.65-.81.21-.27.3-.41.19-.27.27-.41a4.53,4.53,0,0,0,.26-.4c.08-.14.16-.27.23-.42s.29-.54.41-.81.11-.28.17-.41.07-.2.11-.29,0-.08,0-.13.09-.27.13-.41a5.09,5.09,0,0,0,.19-.77s0,0,0-.06l.06-.4.06-.41a7.5,7.5,0,0,0,0-.82v0C155.16,16.81,141.37,8.24,116.67,3.49Zm26,25.15a11.32,11.32,0,0,1-2,3.12,24.07,24.07,0,0,1-5.61,4.4l-.66.38c-18.27,10.34-58.49,13.83-89.83,7.8-10.57-2-18.79-4.89-24.32-8.18a23.71,23.71,0,0,1-5.6-4.41,11.43,11.43,0,0,1-2.06-3.15c-2-4.65.6-9.54,8.32-13.91.92-.52,1.9-1,2.94-1.52C43.17,4,80.92,1.16,110.68,6.88a88.84,88.84,0,0,1,20.76,6.31h0C140.92,17.67,145,23.21,142.66,28.64Z"/><path class="d" d="M142.66,28.64c-2.7-6.36-13.88-12.25-32-15.74-31.34-6-71.56-2.53-89.83,7.81-4.43,2.51-7.16,5.19-8.32,7.89-2-4.65.6-9.54,8.32-13.91.92-.52,1.9-1,2.94-1.52C43.17,4,80.92,1.16,110.68,6.88a88.84,88.84,0,0,1,20.76,6.31h0C140.92,17.67,145,23.21,142.66,28.64Z"/></symbol><symbol id="c" viewBox="0 0 139.22 49.68"><use width="155.19" height="57.24" transform="translate(-2.1 7.89) rotate(-8.27) scale(0.58)" xlink:href="#d"/><use width="155.19" height="57.24" transform="matrix(0.58, 0.08, -0.08, 0.58, 51.21, -4.4)" xlink:href="#d"/><use width="155.19" height="57.24" transform="translate(24.92 18.15) rotate(-2.59) scale(0.58)" xlink:href="#d"/></symbol></defs><rect class="j" x="76.31" y="123.2" width="474.98" height="86.72"/><polygon class="k" points="557.94 123.2 557.94 209.91 76.31 209.91 76.31 351.84 788.74 351.84 788.74 123.2 557.94 123.2"/><path class="l" d="M601.32,172.64c0-4.95,2.62-8.17,6.64-8.17a5.39,5.39,0,0,1,4.95,2.77h.22v-8.76h2.52v22.06h-2.4V178H613a5.65,5.65,0,0,1-5,2.8C603.92,180.82,601.32,177.61,601.32,172.64Zm2.61,0c0,3.69,1.73,5.9,4.61,5.9s4.65-2.25,4.65-5.9-1.79-5.9-4.65-5.9S603.93,169,603.93,172.64Z"/><path class="l" d="M619.75,172.64c0-5.08,2.78-8.17,7.28-8.17s7.28,3.09,7.28,8.17-2.78,8.18-7.28,8.18S619.75,177.71,619.75,172.64Zm12,0c0-3.75-1.68-5.9-4.67-5.9s-4.67,2.15-4.67,5.9,1.68,5.9,4.67,5.9S631.7,176.38,631.7,172.64Z"/><path class="l" d="M648.29,185V158.48h2.13V185Z"/><path class="l" d="M673.45,172.64c0,4.94-2.62,8.18-6.64,8.18a5.3,5.3,0,0,1-4.93-2.66h-.24v7.65h-2.52V164.75h2.4v2.63h.24a5.7,5.7,0,0,1,5-2.91C670.84,164.47,673.45,167.68,673.45,172.64Zm-2.61,0c0-3.69-1.73-5.9-4.61-5.9s-4.66,2.27-4.66,5.9,1.8,5.9,4.64,5.9S670.84,176.33,670.84,172.64Z"/><path class="l" d="M676.47,176.11c0-2.82,2.08-4.45,5.75-4.67l4.56-.28v-1.43c0-1.95-1.22-3-3.58-3-1.89,0-3.2.72-3.56,2H677.1c.33-2.53,2.82-4.2,6.19-4.2,3.85,0,6,2,6,5.26v10.81h-2.4v-2.33h-.24a5.45,5.45,0,0,1-4.86,2.61C678.74,180.82,676.47,179,676.47,176.11Zm10.31-1.46V173.2l-4.25.28c-2.4.16-3.46,1-3.46,2.57s1.37,2.55,3.2,2.55C684.86,178.6,686.78,176.9,686.78,174.65Z"/><path class="l" d="M697.53,160.66v4.09h3.52v2.11h-3.52v8.93c0,1.86.7,2.65,2.34,2.65a9.42,9.42,0,0,0,1.18-.06v2.13a8.32,8.32,0,0,1-1.48.14c-3.26,0-4.56-1.2-4.56-4.21v-9.58h-2.55v-2.11H695v-4.09Z"/><path class="l" d="M708.43,160.66v4.09h3.51v2.11h-3.51v8.93c0,1.86.7,2.65,2.34,2.65a9.17,9.17,0,0,0,1.17-.06v2.13a8.15,8.15,0,0,1-1.48.14c-3.25,0-4.55-1.2-4.55-4.21v-9.58h-2.55v-2.11h2.55v-4.09Z"/><path class="l" d="M716,186.16V184a6,6,0,0,0,1.06.07c1.45,0,2.24-.69,2.9-2.59l.29-.94-5.84-15.8h2.72l4.34,13h.23l4.32-13h2.68l-6.16,16.75c-1.35,3.67-2.61,4.75-5.41,4.75A7.27,7.27,0,0,1,716,186.16Z"/><path class="l" d="M733.59,185V158.48h2.14V185Z"/><path class="l" d="M120.64,321.26c-.73,2.7-3.2,4.37-6.65,4.37-4.38,0-7.12-3.17-7.12-8.16s2.78-8.19,7.12-8.19,6.85,3,6.85,7.94v1H109.49v.11c.13,3.12,1.88,5.1,4.56,5.1,2,0,3.41-.75,4.07-2.14Zm-11.15-5.11h8.7c-.06-2.8-1.73-4.64-4.23-4.64S109.68,313.35,109.49,316.15Z"/><path class="l" d="M124.8,309.56h2.4v2.49h.24a4.73,4.73,0,0,1,4.74-2.77c3.55,0,5.52,2.09,5.52,5.84v10.23h-2.52v-9.61c0-2.84-1.2-4.19-3.72-4.19s-4.14,1.68-4.14,4.45v9.35H124.8Z"/><path class="l" d="M141.51,317.45c0-4.95,2.62-8.17,6.64-8.17a5.39,5.39,0,0,1,4.95,2.77h.22v-8.76h2.52v22.06h-2.4v-2.52h-.24a5.65,5.65,0,0,1-5,2.8C144.1,325.63,141.51,322.42,141.51,317.45Zm2.61,0c0,3.69,1.73,5.91,4.61,5.91s4.65-2.26,4.65-5.91-1.79-5.9-4.65-5.9S144.12,313.78,144.12,317.45Z"/><rect class="m" x="143.12" y="241.95" width="598.28" height="15.17" rx="7.59"/><rect class="m" x="143.12" y="274.8" width="598.28" height="15.17" rx="7.59"/><path class="j" d="M93.15,76.79H91.24V65.94L86.48,76.79H84.71L80,65.94V76.79H78.08V62.85H80.7L85.61,74.2l5-11.35h2.58Z"/><path class="j" d="M103.13,73.55l1.6.55a4.17,4.17,0,0,1-1.54,2.15,4.37,4.37,0,0,1-2.71.84,4.63,4.63,0,0,1-3.37-1.37A4.92,4.92,0,0,1,95.72,72a5,5,0,0,1,1.34-3.57A4.21,4.21,0,0,1,100.24,67a4.25,4.25,0,0,1,3.35,1.35,5.2,5.2,0,0,1,1.2,3.6,4.42,4.42,0,0,1,0,.59H97.63a2.86,2.86,0,0,0,.83,2.07,2.77,2.77,0,0,0,2,.81A2.55,2.55,0,0,0,103.13,73.55Zm-5.44-2.46h5.17a2.39,2.39,0,0,0-2.6-2.42,2.45,2.45,0,0,0-1.81.72A2.57,2.57,0,0,0,97.69,71.09Z"/><path class="j" d="M109.62,64.34v3h2V69h-2v4.92a1.4,1.4,0,0,0,.31,1,1.36,1.36,0,0,0,1,.31,3.13,3.13,0,0,0,.73-.08v1.57a3.62,3.62,0,0,1-1.26.18,2.6,2.6,0,0,1-1.93-.71,2.67,2.67,0,0,1-.7-2V69H106V67.33h.51a1.39,1.39,0,0,0,1.09-.4,1.52,1.52,0,0,0,.36-1.05V64.34Z"/><path class="j" d="M116,71.23v5.56h-1.85V62.55H116v5.88a3.25,3.25,0,0,1,2.87-1.37,3.08,3.08,0,0,1,2.5,1,4,4,0,0,1,.88,2.69v6h-1.85V71.11c0-1.59-.73-2.38-2.2-2.38a1.93,1.93,0,0,0-1.59.7A2.87,2.87,0,0,0,116,71.23Z"/><path class="j" d="M125.76,68.46a4.95,4.95,0,0,1,6.94,0,5.43,5.43,0,0,1,0,7.2,4.95,4.95,0,0,1-7,0,5.43,5.43,0,0,1,0-7.2Zm1.38,6.08a2.76,2.76,0,0,0,2.09.9,2.8,2.8,0,0,0,2.1-.9,3.43,3.43,0,0,0,.85-2.49,3.39,3.39,0,0,0-.85-2.46,2.8,2.8,0,0,0-2.1-.9,2.76,2.76,0,0,0-2.09.9,3.4,3.4,0,0,0-.86,2.46A3.44,3.44,0,0,0,127.14,74.54Z"/><path class="j" d="M143.06,75.51v-.15a3.14,3.14,0,0,1-1.14,1.21,3.26,3.26,0,0,1-1.79.48,4.09,4.09,0,0,1-3.26-1.43A5.29,5.29,0,0,1,135.64,72a5.18,5.18,0,0,1,1.26-3.51,4.09,4.09,0,0,1,3.23-1.44,3.42,3.42,0,0,1,1.88.46,2.52,2.52,0,0,1,1,1.13V62.55h1.83V75a15.34,15.34,0,0,0,.09,1.75h-1.79A7.93,7.93,0,0,1,143.06,75.51ZM137.53,72a3.85,3.85,0,0,0,.74,2.44,2.44,2.44,0,0,0,2,1,2.38,2.38,0,0,0,2-1A3.88,3.88,0,0,0,143,72a3.68,3.68,0,0,0-.73-2.37,2.41,2.41,0,0,0-2-.91,2.5,2.5,0,0,0-2,.92A3.66,3.66,0,0,0,137.53,72Z"/><path class="j" d="M156.88,68.75a2.69,2.69,0,0,0-2,.87,3.32,3.32,0,0,0-.84,2.43,3.4,3.4,0,0,0,.84,2.44,2.7,2.7,0,0,0,2.05.89,2.52,2.52,0,0,0,1.8-.59,3.1,3.1,0,0,0,.84-1.36l1.63.71a4.46,4.46,0,0,1-1.49,2.06,4.25,4.25,0,0,1-2.78.89,4.49,4.49,0,0,1-3.42-1.44,5,5,0,0,1-1.36-3.6,4.93,4.93,0,0,1,1.36-3.6,4.52,4.52,0,0,1,3.4-1.41,4.25,4.25,0,0,1,2.8.88,4.06,4.06,0,0,1,1.41,2.13l-1.67.71a3,3,0,0,0-.83-1.42A2.37,2.37,0,0,0,156.88,68.75Z"/><path class="j" d="M162.64,74.26a2.57,2.57,0,0,1,.79-2,3.7,3.7,0,0,1,2.08-.92l2.56-.37c.49-.06.73-.3.73-.71a1.61,1.61,0,0,0-.51-1.22,2.23,2.23,0,0,0-1.54-.47,2.11,2.11,0,0,0-1.49.52,2.14,2.14,0,0,0-.65,1.39l-1.77-.41a3.08,3.08,0,0,1,1.24-2.22,4.15,4.15,0,0,1,2.63-.85,4,4,0,0,1,3,1,3.37,3.37,0,0,1,1,2.49v4.74a10.56,10.56,0,0,0,.11,1.55H169a7.31,7.31,0,0,1-.1-1.28,3.71,3.71,0,0,1-1.15,1.11,3.59,3.59,0,0,1-1.9.47,3.18,3.18,0,0,1-2.28-.84A2.64,2.64,0,0,1,162.64,74.26Zm3.42,1.27a2.9,2.9,0,0,0,2-.66,2.73,2.73,0,0,0,.75-2.13v-.43l-2.89.43a1.93,1.93,0,0,0-1,.45,1.31,1.31,0,0,0-.37,1,1.29,1.29,0,0,0,.42,1A1.53,1.53,0,0,0,166.06,75.53Z"/><path class="j" d="M175.37,76.79h-1.85V62.55h1.85Z"/><path class="j" d="M180.36,76.79h-1.85V62.55h1.85Z"/><path class="j" d="M116.78,93.44h1.91l2.46,7.12,2.08-7.12h2l-3.07,9.46H120.2l-2.52-7.2-2.45,7.2h-2l-3.11-9.46h2l2.12,7.12Z"/><path class="j" d="M127,90.79a1.24,1.24,0,0,1-.39-.93,1.28,1.28,0,0,1,.39-.94,1.25,1.25,0,0,1,.93-.4,1.28,1.28,0,0,1,.94.39,1.24,1.24,0,0,1,.4,1,1.21,1.21,0,0,1-.4.93,1.28,1.28,0,0,1-.94.39A1.24,1.24,0,0,1,127,90.79Zm1.85,12.11H127V93.44h1.83Z"/><path class="j" d="M134.5,90.45v3h2v1.67h-2V100a1.12,1.12,0,0,0,1.31,1.3,3.13,3.13,0,0,0,.73-.08v1.57a3.58,3.58,0,0,1-1.26.18,2.6,2.6,0,0,1-1.92-.71,2.65,2.65,0,0,1-.71-2V95.11h-1.81V93.44h.51a1.38,1.38,0,0,0,1.09-.4,1.53,1.53,0,0,0,.37-1.05V90.45Z"/><path class="j" d="M140.85,97.33v5.57H139V88.66h1.85v5.88a3.24,3.24,0,0,1,2.87-1.37,3.09,3.09,0,0,1,2.51,1,4,4,0,0,1,.87,2.69v6h-1.85V97.22c0-1.59-.73-2.38-2.2-2.38a2,2,0,0,0-1.59.69A3,3,0,0,0,140.85,97.33Z"/><path class="j" d="M154.38,100.36a2.53,2.53,0,0,1,.79-2,3.64,3.64,0,0,1,2.08-.92l2.56-.37c.48-.07.73-.3.73-.71a1.59,1.59,0,0,0-.52-1.22,2.21,2.21,0,0,0-1.53-.47,2,2,0,0,0-1.49.52,2.14,2.14,0,0,0-.65,1.39l-1.77-.42A3.08,3.08,0,0,1,155.82,94a4.15,4.15,0,0,1,2.63-.85,4,4,0,0,1,3,1,3.4,3.4,0,0,1,1,2.49v4.74a9.29,9.29,0,0,0,.12,1.55h-1.81a8.42,8.42,0,0,1-.1-1.28,3.39,3.39,0,0,1-1.15,1.1,3.44,3.44,0,0,1-1.89.47,3.18,3.18,0,0,1-2.29-.83A2.65,2.65,0,0,1,154.38,100.36Zm3.42,1.28a2.85,2.85,0,0,0,2-.67,2.69,2.69,0,0,0,.75-2.12v-.43l-2.9.43a1.75,1.75,0,0,0-1,.45,1.27,1.27,0,0,0-.37,1,1.33,1.33,0,0,0,.42,1A1.53,1.53,0,0,0,157.8,101.64Z"/><path class="j" d="M170.51,93.34v2a5.73,5.73,0,0,0-.81-.06c-1.73,0-2.6,1-2.6,2.91v4.74h-1.85V93.44h1.81v1.65a3,3,0,0,1,2.84-1.81A3.08,3.08,0,0,1,170.51,93.34Z"/><path class="j" d="M171.69,103.41l1.79-.41a2.5,2.5,0,0,0,2.57,2.32c1.93,0,2.89-1,2.89-3.07v-1.36a2.6,2.6,0,0,1-1.11,1.12,3.51,3.51,0,0,1-1.78.44,4.13,4.13,0,0,1-3.12-1.29,4.62,4.62,0,0,1-1.22-3.29,4.68,4.68,0,0,1,1.21-3.28,4.09,4.09,0,0,1,3.13-1.33,2.94,2.94,0,0,1,2.91,1.5V93.44h1.83v8.75a5.85,5.85,0,0,1-.25,1.76,4.6,4.6,0,0,1-.77,1.51,3.51,3.51,0,0,1-1.49,1.08,5.85,5.85,0,0,1-2.23.39,4.55,4.55,0,0,1-3-1A3.68,3.68,0,0,1,171.69,103.41Zm4.64-2.52a2.45,2.45,0,0,0,1.94-.83,3.59,3.59,0,0,0,0-4.39,2.48,2.48,0,0,0-1.94-.83,2.54,2.54,0,0,0-2,.82,3.63,3.63,0,0,0,0,4.42A2.57,2.57,0,0,0,176.33,100.89Z"/><path class="j" d="M189.88,101.76a2.42,2.42,0,0,1-1.14,1.07,3.9,3.9,0,0,1-1.66.36,3.27,3.27,0,0,1-2.57-1.07,3.92,3.92,0,0,1-1-2.72v-6h1.85v5.68a2.84,2.84,0,0,0,.52,1.75,1.91,1.91,0,0,0,1.63.69,2.09,2.09,0,0,0,1.67-.66,2.59,2.59,0,0,0,.57-1.76v-5.7h1.85v7.71a13.87,13.87,0,0,0,.1,1.75H190A5.94,5.94,0,0,1,189.88,101.76Z"/><path class="j" d="M196.6,102.9h-1.83V93.44h1.77V94.7a2.86,2.86,0,0,1,1.22-1.14,3.7,3.7,0,0,1,1.65-.39,3.33,3.33,0,0,1,1.7.45A2.72,2.72,0,0,1,202.25,95a3.33,3.33,0,0,1,3.16-1.78,3.16,3.16,0,0,1,2.31.92,3.55,3.55,0,0,1,1,2.67v6.14h-1.83V97a2.35,2.35,0,0,0-.5-1.57,1.86,1.86,0,0,0-1.51-.59,2,2,0,0,0-1.57.68,2.43,2.43,0,0,0-.61,1.7v5.72h-1.85V97a2.35,2.35,0,0,0-.5-1.57,1.85,1.85,0,0,0-1.51-.59,2,2,0,0,0-1.59.67,2.48,2.48,0,0,0-.61,1.73Z"/><path class="j" d="M218.27,99.65l1.6.56a4.25,4.25,0,0,1-1.54,2.15,4.37,4.37,0,0,1-2.71.83,4.6,4.6,0,0,1-3.37-1.36,4.92,4.92,0,0,1-1.39-3.69,5,5,0,0,1,1.34-3.58,4.56,4.56,0,0,1,6.53-.07,5.23,5.23,0,0,1,1.2,3.61,4.55,4.55,0,0,1,0,.59h-7.12a2.86,2.86,0,0,0,.83,2.07,2.8,2.8,0,0,0,2,.8A2.54,2.54,0,0,0,218.27,99.65Zm-5.44-2.45H218a2.39,2.39,0,0,0-2.6-2.42,2.45,2.45,0,0,0-1.81.72A2.55,2.55,0,0,0,212.83,97.2Z"/><path class="j" d="M224.13,97.43v5.47h-1.84V93.44h1.8V94.8A3.13,3.13,0,0,1,227,93.17a3.06,3.06,0,0,1,2.5,1,4,4,0,0,1,.88,2.69v6h-1.85V97.22c0-1.59-.73-2.38-2.2-2.38a2,2,0,0,0-1.63.73A3,3,0,0,0,224.13,97.43Z"/><path class="j" d="M235.82,90.45v3h2v1.67h-2V100a1.39,1.39,0,0,0,.3,1,1.36,1.36,0,0,0,1,.32,3.13,3.13,0,0,0,.73-.08v1.57a3.58,3.58,0,0,1-1.26.18,2.6,2.6,0,0,1-1.92-.71,2.65,2.65,0,0,1-.71-2V95.11h-1.81V93.44h.51a1.39,1.39,0,0,0,1.09-.4,1.52,1.52,0,0,0,.36-1.05V90.45Z"/><path class="j" d="M239.53,100.44l1.67-.59a2,2,0,0,0,.67,1.27,2.26,2.26,0,0,0,1.54.5,1.81,1.81,0,0,0,1.18-.36,1.13,1.13,0,0,0,.43-.9c0-.63-.41-1-1.22-1.22l-1.61-.35a3.11,3.11,0,0,1-1.73-.94,2.52,2.52,0,0,1-.63-1.72,2.73,2.73,0,0,1,1-2.1,3.43,3.43,0,0,1,2.37-.88,4.5,4.5,0,0,1,1.61.26,2.78,2.78,0,0,1,1.1.7,3.72,3.72,0,0,1,.59.81,3.54,3.54,0,0,1,.3.76l-1.63.61a2.44,2.44,0,0,0-.14-.46,2.63,2.63,0,0,0-.31-.5,1.28,1.28,0,0,0-.6-.44,2.19,2.19,0,0,0-.92-.17,1.67,1.67,0,0,0-1.13.37,1.12,1.12,0,0,0-.44.89q0,.9,1.08,1.14l1.53.33a3.64,3.64,0,0,1,1.94,1,2.6,2.6,0,0,1,.68,1.8,2.79,2.79,0,0,1-.92,2,3.46,3.46,0,0,1-2.54.9,4,4,0,0,1-2.74-.87A3.11,3.11,0,0,1,239.53,100.44Z"/><path class="n" d="M827.8,105.69C818.12,108.87,814,121,816,131s8.33,18.46,13.91,27c8.75,13.36,16.06,28,18.68,43.73,4.83,28.94-6.8,58.6-24.42,82-9.32,12.4-20.88,24.93-21.26,40.43-.52,21.72,21.19,38.55,22.85,60.21.93,12.07-4.81,24-13.53,32.45s-20.12,13.57-31.8,16.72c-35.47,9.58-214,13.91-304.76-36.56"/><polygon class="o" points="482.53 390.52 464.58 390.32 473.37 405.96 482.53 390.52"/><path class="o" d="M565,390.16h-8.51V376.22h1.93v12.13H565Z"/><path class="o" d="M573.64,386.92l1.59.55a4.19,4.19,0,0,1-1.53,2.15,4.42,4.42,0,0,1-2.72.84,4.64,4.64,0,0,1-3.37-1.37,5,5,0,0,1-1.39-3.69,5,5,0,0,1,1.34-3.58,4.56,4.56,0,0,1,6.53-.07,5.25,5.25,0,0,1,1.2,3.61,3.27,3.27,0,0,1,0,.59h-7.12A2.83,2.83,0,0,0,569,388a2.72,2.72,0,0,0,2,.8A2.56,2.56,0,0,0,573.64,386.92Zm-5.45-2.46h5.17a2.5,2.5,0,0,0-.7-1.74,2.56,2.56,0,0,0-1.89-.68,2.42,2.42,0,0,0-1.81.72A2.58,2.58,0,0,0,568.19,384.46Z"/><path class="o" d="M580.13,377.71v3h2v1.67h-2v4.92a1.12,1.12,0,0,0,1.32,1.3,3.11,3.11,0,0,0,.72-.08v1.57a3.58,3.58,0,0,1-1.26.18,2.6,2.6,0,0,1-1.92-.71,2.64,2.64,0,0,1-.71-2v-5.2h-1.81V380.7H577a1.38,1.38,0,0,0,1.09-.4,1.53,1.53,0,0,0,.37-1.05v-1.54Z"/><path class="o" d="M592,377.71v3h2.05v1.67H592v4.92a1.13,1.13,0,0,0,1.32,1.3,3.13,3.13,0,0,0,.73-.08v1.57a3.62,3.62,0,0,1-1.26.18,2.64,2.64,0,0,1-1.93-.71,2.67,2.67,0,0,1-.7-2v-5.2h-1.81V380.7h.51a1.39,1.39,0,0,0,1.09-.4,1.52,1.52,0,0,0,.36-1.05v-1.54Z"/><path class="o" d="M598.38,384.6v5.56h-1.85V375.92h1.85v5.88a3.25,3.25,0,0,1,2.87-1.37,3.09,3.09,0,0,1,2.51,1,4,4,0,0,1,.87,2.69v6h-1.85v-5.68c0-1.59-.73-2.38-2.2-2.38a1.93,1.93,0,0,0-1.59.7A2.87,2.87,0,0,0,598.38,384.6Z"/><path class="o" d="M614.23,386.92l1.59.55a4.25,4.25,0,0,1-1.53,2.15,4.42,4.42,0,0,1-2.72.84,4.63,4.63,0,0,1-3.37-1.37,5,5,0,0,1-1.39-3.69,5,5,0,0,1,1.34-3.58,4.56,4.56,0,0,1,6.53-.07,5.25,5.25,0,0,1,1.2,3.61,3.27,3.27,0,0,1,0,.59h-7.12a2.83,2.83,0,0,0,.84,2.07,2.72,2.72,0,0,0,2,.8A2.56,2.56,0,0,0,614.23,386.92Zm-5.45-2.46H614a2.46,2.46,0,0,0-.71-1.74,2.52,2.52,0,0,0-1.88-.68,2.42,2.42,0,0,0-1.81.72A2.53,2.53,0,0,0,608.78,384.46Z"/><path class="o" d="M625,390.16h-1.82V375.92H625V382a3,3,0,0,1,1.19-1.15,3.87,3.87,0,0,1,1.94-.46,3.91,3.91,0,0,1,3.21,1.39,6.12,6.12,0,0,1,0,7.17,4,4,0,0,1-3.23,1.43,3.28,3.28,0,0,1-3.07-1.64Zm4.82-2.32a3.73,3.73,0,0,0,.77-2.46,3.63,3.63,0,0,0-.76-2.43,2.53,2.53,0,0,0-2-.89,2.58,2.58,0,0,0-2,.9,3.6,3.6,0,0,0-.79,2.42,3.7,3.7,0,0,0,.79,2.45,2.54,2.54,0,0,0,2,.93A2.47,2.47,0,0,0,629.8,387.84Z"/><path class="o" d="M636.67,390.16h-1.85V375.92h1.85Z"/><path class="o" d="M640.39,381.83a4.95,4.95,0,0,1,6.94,0,5.43,5.43,0,0,1,0,7.2,4.95,4.95,0,0,1-7,0,5.46,5.46,0,0,1,0-7.2Zm1.38,6.08a2.91,2.91,0,0,0,4.19,0,3.47,3.47,0,0,0,.85-2.49A3.43,3.43,0,0,0,646,383a2.91,2.91,0,0,0-4.19,0,4,4,0,0,0,0,5Z"/><path class="o" d="M655,382.12a2.72,2.72,0,0,0-2,.86,4,4,0,0,0,0,4.88,2.7,2.7,0,0,0,2,.89,2.52,2.52,0,0,0,1.8-.59,3.1,3.1,0,0,0,.84-1.36l1.63.71a4.46,4.46,0,0,1-1.49,2.06,4.25,4.25,0,0,1-2.78.89,4.52,4.52,0,0,1-3.42-1.44,5.07,5.07,0,0,1-1.36-3.6,5,5,0,0,1,1.36-3.61,4.56,4.56,0,0,1,3.4-1.4,4.23,4.23,0,0,1,2.8.88,4.06,4.06,0,0,1,1.41,2.13l-1.67.7a2.9,2.9,0,0,0-.83-1.41A2.31,2.31,0,0,0,655,382.12Z"/><path class="o" d="M670,380.7l-4,4,4.11,5.47h-2.32L664.63,386l-1.32,1.32v2.85h-1.83V375.92h1.83v9l4.09-4.19Z"/><path class="o" d="M680.7,377.59a1.65,1.65,0,0,0-1.06.37,1.55,1.55,0,0,0-.44,1.25v1.49h4.37v-4.78h1.85v14.24h-1.85v-7.79H679.2v7.79h-1.91v-7.79h-1.75V380.7h1.75v-1.59a3.18,3.18,0,0,1,.89-2.38,3,3,0,0,1,2.22-.87,2,2,0,0,1,1.1.2v1.65A2.14,2.14,0,0,0,680.7,377.59Z"/><path class="o" d="M689.14,381.83a4.95,4.95,0,0,1,6.94,0,5.43,5.43,0,0,1,0,7.2,4.95,4.95,0,0,1-7,0,5.46,5.46,0,0,1,0-7.2Zm1.38,6.08a2.91,2.91,0,0,0,4.19,0,3.47,3.47,0,0,0,.85-2.49,3.43,3.43,0,0,0-.85-2.47,2.91,2.91,0,0,0-4.19,0,4,4,0,0,0,0,5Z"/><path class="o" d="M704.94,380.7h1.91l2.46,7.12,2.08-7.12h2l-3.07,9.46h-1.9l-2.52-7.2-2.46,7.2h-1.95l-3.1-9.46h2l2.13,7.12Z"/><path class="o" d="M591.71,416.27h-1.83V402h1.83v6.12A2.88,2.88,0,0,1,592.9,407a3.83,3.83,0,0,1,1.93-.47,3.92,3.92,0,0,1,3.21,1.4,6.12,6.12,0,0,1,0,7.17,4,4,0,0,1-3.23,1.42,3.26,3.26,0,0,1-3.06-1.63Zm4.82-2.32a3.75,3.75,0,0,0,.76-2.46,3.68,3.68,0,0,0-.75-2.43,2.53,2.53,0,0,0-2-.89,2.58,2.58,0,0,0-2,.9,3.57,3.57,0,0,0-.78,2.42,3.71,3.71,0,0,0,.78,2.45,2.69,2.69,0,0,0,4.06,0Z"/><path class="o" d="M608.19,413l1.59.55a4.27,4.27,0,0,1-1.53,2.16,4.48,4.48,0,0,1-2.72.83,4.62,4.62,0,0,1-3.37-1.36,4.92,4.92,0,0,1-1.39-3.69,5,5,0,0,1,1.34-3.58,4.54,4.54,0,0,1,6.53-.07,5.23,5.23,0,0,1,1.2,3.61,3.27,3.27,0,0,1,0,.59h-7.12a2.79,2.79,0,0,0,.84,2.06,2.73,2.73,0,0,0,2,.81A2.57,2.57,0,0,0,608.19,413Zm-5.45-2.46h5.17a2.37,2.37,0,0,0-2.6-2.41,2.4,2.4,0,0,0-1.8.71A2.55,2.55,0,0,0,602.74,410.56Z"/><path class="o" d="M614.05,416.27H612.2V402h1.85Z"/><path class="o" d="M617.77,407.94a4.93,4.93,0,0,1,6.94,0,5,5,0,0,1,1.37,3.59,5,5,0,0,1-1.36,3.61,5,5,0,0,1-7,0,5.05,5.05,0,0,1-1.35-3.61A5,5,0,0,1,617.77,407.94Zm1.38,6.08a2.91,2.91,0,0,0,4.19,0,3.47,3.47,0,0,0,.85-2.49,3.43,3.43,0,0,0-.85-2.47,2.91,2.91,0,0,0-4.19,0,4,4,0,0,0,0,5Z"/><path class="o" d="M633.57,406.81h1.91l2.46,7.12,2.08-7.12h2l-3.07,9.46H637l-2.52-7.2-2.46,7.2h-1.95l-3.1-9.46h2l2.13,7.12Z"/><path class="o" d="M651.23,403.82v3h2v1.67h-2v4.92a1.34,1.34,0,0,0,.31,1,1.36,1.36,0,0,0,1,.31,3.17,3.17,0,0,0,.73-.07v1.57a3.66,3.66,0,0,1-1.26.18,2.64,2.64,0,0,1-1.93-.71,2.7,2.7,0,0,1-.71-2v-5.19h-1.8v-1.67h.51a1.43,1.43,0,0,0,1.09-.4,1.53,1.53,0,0,0,.36-1.06v-1.53Z"/><path class="o" d="M657.59,410.7v5.57h-1.85V402h1.85v5.88a3.22,3.22,0,0,1,2.87-1.38,3.07,3.07,0,0,1,2.5,1.05,4,4,0,0,1,.88,2.69v6H662v-5.69c0-1.58-.73-2.37-2.2-2.37a2,2,0,0,0-1.59.69A2.91,2.91,0,0,0,657.59,410.7Z"/><path class="o" d="M673.44,413l1.59.55a4.27,4.27,0,0,1-1.53,2.16,4.48,4.48,0,0,1-2.72.83,4.62,4.62,0,0,1-3.37-1.36,4.92,4.92,0,0,1-1.39-3.69,5,5,0,0,1,1.34-3.58,4.54,4.54,0,0,1,6.53-.07,5.23,5.23,0,0,1,1.2,3.61,3.27,3.27,0,0,1,0,.59h-7.12a2.79,2.79,0,0,0,.84,2.06,2.73,2.73,0,0,0,2,.81A2.57,2.57,0,0,0,673.44,413ZM668,410.56h5.17a2.37,2.37,0,0,0-2.6-2.41,2.4,2.4,0,0,0-1.8.71A2.55,2.55,0,0,0,668,410.56Z"/><path class="o" d="M684.19,416.27h-1.83v-9.46h1.77v1.26a2.86,2.86,0,0,1,1.22-1.14,3.59,3.59,0,0,1,1.65-.4,3.24,3.24,0,0,1,1.7.46,2.72,2.72,0,0,1,1.14,1.33,3.34,3.34,0,0,1,3.16-1.79,3.17,3.17,0,0,1,2.31.93,3.52,3.52,0,0,1,1,2.67v6.14h-1.83v-5.94a2.39,2.39,0,0,0-.5-1.58,1.89,1.89,0,0,0-1.51-.58,2,2,0,0,0-1.57.67,2.45,2.45,0,0,0-.61,1.7v5.73H688.4v-5.94a2.39,2.39,0,0,0-.5-1.58,1.89,1.89,0,0,0-1.51-.58,2.07,2.07,0,0,0-1.59.66,2.52,2.52,0,0,0-.61,1.73Z"/><path class="o" d="M705.86,413l1.6.55a4.23,4.23,0,0,1-1.54,2.16,4.43,4.43,0,0,1-2.71.83,4.6,4.6,0,0,1-3.37-1.36,4.92,4.92,0,0,1-1.39-3.69,5,5,0,0,1,1.34-3.58,4.54,4.54,0,0,1,6.53-.07,5.23,5.23,0,0,1,1.2,3.61,4.55,4.55,0,0,1,0,.59h-7.12a2.82,2.82,0,0,0,.83,2.06,2.77,2.77,0,0,0,2,.81A2.55,2.55,0,0,0,705.86,413Zm-5.44-2.46h5.17a2.37,2.37,0,0,0-2.6-2.41,2.44,2.44,0,0,0-1.81.71A2.59,2.59,0,0,0,700.42,410.56Z"/><path class="o" d="M712.35,403.82v3h2v1.67h-2v4.92a1.34,1.34,0,0,0,.31,1,1.36,1.36,0,0,0,1,.31,3.17,3.17,0,0,0,.73-.07v1.57a3.66,3.66,0,0,1-1.26.18,2.62,2.62,0,0,1-1.93-.71,2.7,2.7,0,0,1-.71-2v-5.19h-1.8v-1.67h.51a1.44,1.44,0,0,0,1.09-.4,1.53,1.53,0,0,0,.36-1.06v-1.53Z"/><path class="o" d="M718.71,410.7v5.57h-1.85V402h1.85v5.88a3.22,3.22,0,0,1,2.87-1.38,3.07,3.07,0,0,1,2.5,1.05,4,4,0,0,1,.88,2.69v6h-1.85v-5.69c0-1.58-.73-2.37-2.2-2.37a2,2,0,0,0-1.6.69A2.9,2.9,0,0,0,718.71,410.7Z"/><path class="o" d="M728.49,407.94a4.93,4.93,0,0,1,6.94,0,5,5,0,0,1,1.37,3.59,5.06,5.06,0,0,1-1.36,3.61,5,5,0,0,1-7,0,5.43,5.43,0,0,1,0-7.2Zm1.38,6.08a2.9,2.9,0,0,0,4.18,0,4,4,0,0,0,0-5,2.9,2.9,0,0,0-4.18,0,4,4,0,0,0,0,5Z"/><path class="o" d="M745.78,415v-.16a3,3,0,0,1-1.13,1.21,3.27,3.27,0,0,1-1.8.48,4.07,4.07,0,0,1-3.25-1.42,5.3,5.3,0,0,1-1.23-3.59,5.14,5.14,0,0,1,1.26-3.51,4.06,4.06,0,0,1,3.22-1.45,3.52,3.52,0,0,1,1.89.46,2.49,2.49,0,0,1,1,1.14V402h1.82v12.49a15.46,15.46,0,0,0,.1,1.75h-1.79A8,8,0,0,1,745.78,415Zm-5.52-3.48A3.81,3.81,0,0,0,741,414a2.43,2.43,0,0,0,2,.94,2.4,2.4,0,0,0,2-1,3.87,3.87,0,0,0,.74-2.46,3.71,3.71,0,0,0-.72-2.38,2.44,2.44,0,0,0-2-.91,2.48,2.48,0,0,0-2,.93A3.6,3.6,0,0,0,740.26,411.51Z"/><path class="o" d="M759.61,408.22a2.73,2.73,0,0,0-2,.87,3.4,3.4,0,0,0-.83,2.44,3.45,3.45,0,0,0,.83,2.44,2.73,2.73,0,0,0,2.06.88,2.47,2.47,0,0,0,1.8-.59,2.89,2.89,0,0,0,.83-1.36l1.64.71a4.51,4.51,0,0,1-1.49,2.07,4.27,4.27,0,0,1-2.78.88,4.51,4.51,0,0,1-3.42-1.43,5,5,0,0,1-1.36-3.6,5,5,0,0,1,1.36-3.61,4.52,4.52,0,0,1,3.4-1.41,4.25,4.25,0,0,1,2.8.89,4.13,4.13,0,0,1,1.41,2.12l-1.67.71a3.06,3.06,0,0,0-.83-1.42A2.38,2.38,0,0,0,759.61,408.22Z"/><path class="o" d="M765.37,413.73a2.56,2.56,0,0,1,.79-2,3.69,3.69,0,0,1,2.08-.91l2.56-.37c.48-.07.73-.31.73-.71a1.55,1.55,0,0,0-.52-1.22,2.16,2.16,0,0,0-1.53-.47,2,2,0,0,0-1.49.52,2.14,2.14,0,0,0-.65,1.38l-1.77-.41a3.08,3.08,0,0,1,1.24-2.21,4.15,4.15,0,0,1,2.63-.86,4,4,0,0,1,3,1,3.38,3.38,0,0,1,1,2.48v4.74a9.39,9.39,0,0,0,.11,1.56h-1.81a8.52,8.52,0,0,1-.1-1.28,3.39,3.39,0,0,1-1.15,1.1,3.44,3.44,0,0,1-1.89.47,3.21,3.21,0,0,1-2.28-.83A2.67,2.67,0,0,1,765.37,413.73Zm3.42,1.28a2.85,2.85,0,0,0,2-.67,2.71,2.71,0,0,0,.75-2.12v-.44l-2.89.44a1.78,1.78,0,0,0-1,.45,1.25,1.25,0,0,0-.37,1,1.33,1.33,0,0,0,.42,1A1.53,1.53,0,0,0,768.79,415Z"/><path class="o" d="M778.09,416.27h-1.84V402h1.84Z"/><path class="o" d="M783.09,416.27h-1.85V402h1.85Z"/><circle class="p" cx="51.69" cy="49.19" r="14.48"/><path class="j" d="M54.64,55.47H51.28v-9H48V44.19a4.43,4.43,0,0,0,2.56-.77,2.88,2.88,0,0,0,1.23-1.84h2.89Z"/><circle class="q" cx="844.39" cy="89.48" r="14.48"/><path class="k" d="M842.54,87.43l-3.17,0a3.55,3.55,0,0,1-.13-1.16,4.51,4.51,0,0,1,1.4-3.34,6,6,0,0,1,7.55,0,4.25,4.25,0,0,1,1.41,3.24,4.87,4.87,0,0,1-2.74,4.32L844.23,92a2.4,2.4,0,0,0-.94.94h6.42v2.83H839.15a8.1,8.1,0,0,1,.74-3.57,6.12,6.12,0,0,1,2.54-2.56l2.27-1.33a3.69,3.69,0,0,0,1.18-1,2,2,0,0,0,.34-1.17,1.56,1.56,0,0,0-.48-1.17,1.86,1.86,0,0,0-1.38-.47,1.84,1.84,0,0,0-1.45.57,2.21,2.21,0,0,0-.5,1.48A2.71,2.71,0,0,0,842.54,87.43Z"/><path class="r" d="M72.32,33.23c22.64-20,49.74-26.54,81.31-21.44,21.16,3.41,40,25.84,50.27,42.52"/><polygon class="j" points="194.66 56.45 210.07 65.66 210.34 47.71 194.66 56.45"/><path class="l" d="M110.44,173.57h-.23v2.52h-2.4V154h2.52v8.76h.23a5.44,5.44,0,0,1,5-2.77c4,0,6.62,3.21,6.62,8.17s-2.62,8.18-6.62,8.18A5.67,5.67,0,0,1,110.44,173.57Zm-.17-5.38c0,3.65,1.78,5.91,4.66,5.91s4.59-2.22,4.59-5.91-1.71-5.9-4.59-5.9S110.27,164.55,110.27,168.19Z"/><path class="l" d="M138.86,176.09h-2.4v-2.48h-.24c-.79,1.76-2.47,2.76-4.89,2.76-3.54,0-5.39-2.11-5.39-5.85V160.3h2.52v9.61c0,2.84,1.06,4.16,3.57,4.16,2.79,0,4.31-1.66,4.31-4.43V160.3h2.52Z"/><path class="l" d="M143.61,160.3H146v2.34h.23c.47-1.54,2.29-2.62,4.38-2.62a11.79,11.79,0,0,1,1.26.07v2.52a10,10,0,0,0-1.61-.14,3.86,3.86,0,0,0-4.14,3.83v9.79h-2.52Z"/><path class="l" d="M154.48,177.83h2.66c.28,1.29,1.69,2.13,4,2.13,2.82,0,4.51-1.4,4.51-3.72v-3.11h-.24a5.47,5.47,0,0,1-5,2.72c-4.08,0-6.62-3.16-6.62-7.89s2.57-7.94,6.62-7.94a5.64,5.64,0,0,1,5.07,2.78h.24v-2.5h2.4v16.07c0,3.53-2.73,5.78-7,5.78C157.29,182.15,154.86,180.44,154.48,177.83ZM165.67,168c0-3.44-1.77-5.67-4.69-5.67s-4.57,2.23-4.57,5.67,1.64,5.67,4.57,5.67S165.67,171.4,165.67,168Z"/><path class="l" d="M185.85,172c-.73,2.7-3.19,4.37-6.65,4.37-4.38,0-7.12-3.17-7.12-8.16s2.79-8.19,7.12-8.19,6.86,3,6.86,7.94v1H174.71V169c.13,3.12,1.87,5.1,4.55,5.1,2,0,3.41-.75,4.07-2.14Zm-11.14-5.11h8.7c-.06-2.8-1.73-4.64-4.24-4.64S174.9,164.09,174.71,166.89Z"/><path class="l" d="M190,160.3h2.41v2.34h.23c.47-1.54,2.29-2.62,4.38-2.62a11.79,11.79,0,0,1,1.26.07v2.52a10.09,10.09,0,0,0-1.61-.14,3.87,3.87,0,0,0-4.15,3.83v9.79H190Z"/><path class="l" d="M206.77,154h2.14c-2.08,2.66-3.71,8.32-3.71,13.27s1.61,10.62,3.71,13.29h-2.14a23.28,23.28,0,0,1,0-26.56Z"/><path class="l" d="M246.47,181.46l1.39-8.33h2.8l-2.3,8.33Z"/><path class="l" d="M289.24,181.46l1.39-8.33h2.8l-2.3,8.33Z"/><path class="l" d="M333.69,180.59h-2.14c2.08-2.67,3.7-8.32,3.7-13.28s-1.61-10.62-3.7-13.28h2.14a23.28,23.28,0,0,1,0,26.56Z"/><use width="146.05" height="61.89" transform="translate(215.11 165.61) scale(0.16)" xlink:href="#a"/><use width="85.47" height="38.34" transform="translate(257.08 164.27) scale(0.3)" xlink:href="#b"/><use width="139.23" height="49.68" transform="translate(299.81 166.66) scale(0.21)" xlink:href="#c"/></svg>