<svg xmlns="http://www.w3.org/2000/svg" xmlns:xlink="http://www.w3.org/1999/xlink" viewBox="0 0 900 600"><defs><style>.a{fill:#f1e5ce;}.b{fill:#fef6ea;}.c{isolation:isolate;}.d,.h{fill:#4b4b4b;}.e,.r{fill:none;stroke-miterlimit:10;}.e{stroke:#fff;}.f{fill:#a37f3a;}.g{fill:#fec75e;}.h{opacity:0.2;mix-blend-mode:multiply;}.i{fill:#741a14;}.j{fill:#a92b22;}.k{fill:#ed2627;}.l{fill:#fddfe0;opacity:0.8;}.m{fill:#cd362c;}.n{fill:#fff;}.o{fill:#7e73ff;}.p{fill:#eceaff;}.q{fill:#e9f6fc;opacity:0.3;}.r{stroke:#7e73ff;stroke-width:3px;stroke-dasharray:4;}.s{fill:#6057c2;}</style><symbol id="a" viewBox="0 0 155.19 57.24"><path class="a" d="M155.18,25.61c0,4.39-3.39,8.84-10.56,12.9C123,50.73,75.53,54.86,38.52,47.74,13.82,43,0,34.42,0,25.61H0v6H0C0,40.44,13.82,49,38.52,53.75c37,7.13,84.52,3,106.1-9.22,7.17-4.06,10.58-8.51,10.56-12.9h0v-6Z"/><path class="b" d="M116.67,3.49c-37-7.12-84.52-3-106.1,9.23C3.4,16.78,0,21.22,0,25.61v.19a3.52,3.52,0,0,0,.05.64c0,.13,0,.27.05.41a9.11,9.11,0,0,0,.4,1.64l.05.11a1.42,1.42,0,0,0,.1.29c.06.14.11.28.17.41s.13.27.19.41.13.26.2.38,0,0,0,0c.15.27.31.54.47.8a0,0,0,0,0,0,0c.09.13.17.26.27.39a12.28,12.28,0,0,0,.9,1.18l0,0c.21.25.44.51.68.77l0,0c.12.13.25.25.38.38l.82.78.44.38.46.39c.31.25.63.5,1,.75l.23.17,0,0,.6.43c.78.54,1.61,1.07,2.5,1.59l.58.33.43.24.35.2c.11.06.22.13.35.19l.88.45,1.13.56.85.4c.53.25,1.09.49,1.65.73l.78.33,1.63.65,1.51.56c.55.2,1.1.4,1.67.59l.85.28.87.29.15,0h0l.71.22.9.28.92.27,1.5.43,1,.26,1,.28.88.22.41.1c.62.16,1.24.31,1.87.45l2,.45,1.32.28,1.14.22,1.15.23q4.27.83,8.73,1.45c1.3.19,2.62.36,4,.52,1.82.22,3.67.41,5.52.58l1.8.16c1.1.1,2.2.18,3.31.25,1.27.09,2.55.17,3.83.23s2.55.13,3.83.17c3.93.14,7.87.17,11.79.11l1.25,0c1,0,2,0,3-.08l2-.07.27,0c.75,0,1.5-.06,2.25-.11l2.39-.14.91-.06,1.77-.12,1.59-.13,1.39-.12.81-.08,1.08-.11c.37,0,.73-.06,1.09-.11l.37,0,1.65-.18c1.11-.13,2.22-.27,3.32-.42l1.06-.14.4,0L109,49c.88-.13,1.74-.26,2.61-.41l1-.16.32-.06,1.66-.28,1.77-.33c1.8-.34,3.55-.71,5.27-1.09l1.45-.34c2.09-.5,4.12-1,6.06-1.61l1.73-.52.5-.16h0l.73-.23c1.94-.63,3.79-1.31,5.54-2l.75-.31.25-.1,1.57-.69.33-.15c.77-.35,1.53-.72,2.25-1.09l.82-.43,1-.53c.85-.48,1.64-1,2.39-1.46l.44-.3.43-.29.41-.3a23.9,23.9,0,0,0,3.22-2.75c.26-.27.51-.54.74-.81s.45-.54.65-.81.21-.27.3-.41.19-.27.27-.41a4.53,4.53,0,0,0,.26-.4c.08-.14.16-.27.23-.42s.29-.54.41-.81.11-.28.17-.41.07-.2.11-.29,0-.08,0-.13.09-.27.13-.41a5.09,5.09,0,0,0,.19-.77s0,0,0-.06l.06-.4.06-.41a7.5,7.5,0,0,0,0-.82v0C155.16,16.81,141.37,8.24,116.67,3.49Zm26,25.15a11.32,11.32,0,0,1-2,3.12,24.07,24.07,0,0,1-5.61,4.4l-.66.38c-18.27,10.34-58.49,13.83-89.83,7.8-10.57-2-18.79-4.89-24.32-8.18a23.71,23.71,0,0,1-5.6-4.41,11.43,11.43,0,0,1-2.06-3.15c-2-4.65.6-9.54,8.32-13.91.92-.52,1.9-1,2.94-1.52C43.17,4,80.92,1.16,110.68,6.88a88.84,88.84,0,0,1,20.76,6.31h0C140.92,17.67,145,23.21,142.66,28.64Z"/><path class="a" d="M142.66,28.64c-2.7-6.36-13.88-12.25-32-15.74-31.34-6-71.56-2.53-89.83,7.81-4.43,2.51-7.16,5.19-8.32,7.89-2-4.65.6-9.54,8.32-13.91.92-.52,1.9-1,2.94-1.52C43.17,4,80.92,1.16,110.68,6.88a88.84,88.84,0,0,1,20.76,6.31h0C140.92,17.67,145,23.21,142.66,28.64Z"/></symbol></defs><g class="c"><rect class="d" x="146.13" y="27.67" width="549.61" height="549.61"/><polyline class="e" points="663.73 413.67 663.73 548.17 177.09 548.17 177.09 77.38 201.43 77.38"/><polyline class="e" points="534.74 77.38 663.73 77.38 663.73 355.59"/><path class="f" d="M512.93,448.55a74.84,74.84,0,0,1-2.69,15.82c-2.46,9-9.79,16.42-11.12,17.71a40.67,40.67,0,0,1-7.72,6l-.48.3-1.6.93-.27.15c-.28.16-.56.32-.85.47-.6.33-1.21.65-1.84,1l-1,.47c-.51.26-1,.51-1.57.75l-1.13.52-2,.87-.8.34c-.85.35-1.71.69-2.59,1l-.63.24c-1,.36-2,.72-3,1.07l-.32.11a187.58,187.58,0,0,1-28.74,7.09l-.47.08-1.08.18a306.22,306.22,0,0,1-47.59,3.89H391a306.22,306.22,0,0,1-47.59-3.89l-1.07-.18-.48-.08a187.87,187.87,0,0,1-28.74-7.09l-.32-.11c-1-.35-2-.71-3-1.07l-.63-.24c-.88-.33-1.74-.67-2.59-1l-.8-.34-2-.87-1.13-.52c-.53-.24-1.06-.49-1.57-.75l-1-.47c-.63-.32-1.24-.64-1.84-1l-.84-.47-.28-.15q-.82-.46-1.59-.93l-.49-.3a41,41,0,0,1-7.72-6c-1.33-1.29-8.66-8.69-11.12-17.71a74.81,74.81,0,0,1-2.68-15.77c1,13.25,22.16,26,59.39,33.19,57.1,11,130.38,4.62,163.67-14.23C507.23,461.56,512.5,455,512.93,448.55Z"/><path class="g" d="M513,447.66c0,.23,0,.46,0,.69,0,.07,0,.13,0,.2-.43,6.49-5.7,13-16.28,19C463.36,486.41,390.08,492.78,333,481.79c-37.23-7.16-58.4-19.94-59.39-33.19a2.09,2.09,0,0,1,0-.25,1.48,1.48,0,0,1,0-.21c0-.31,0-.48,0-.48h0c0-6.78,5.23-13.63,16.29-19.9,33.29-18.85,106.57-25.22,163.67-14.23C491.64,420.86,512.92,434.07,513,447.66Z"/><ellipse class="h" cx="390.22" cy="442.64" rx="89.66" ry="28.19"/><path class="h" d="M352,485.82v19.1q-4.33-.57-8.57-1.28l-1.07-.17-.48-.09a187.87,187.87,0,0,1-28.74-7.09l-.31-.11c-1-.35-2-.71-3-1.07l-.64-.24c-.88-.34-1.74-.67-2.59-1l-.81-.33-2-.87c-.38-.17-.75-.35-1.13-.51l-1.58-.76-1-.47c-.62-.33-1.24-.64-1.84-1l-.85-.46-.27-.16c-.55-.31-1.08-.62-1.59-.94-.17-.09-.33-.19-.49-.29a41,41,0,0,1-7.72-6c-1.32-1.28-8.65-8.68-11.12-17.7a73.91,73.91,0,0,1-2.7-16.11c.23,4.6,2.88,9.14,7.81,13.43,8.21,8.16,23.61,15.36,45.17,20.11A224.89,224.89,0,0,0,352,485.82Z"/><path class="i" d="M508.29,381.43v23.38h-.06c-.55,6.13-5.62,12.31-15.65,18C460.52,441,390,447.08,335,436.5c-35.59-6.85-55.93-19-57.15-31.69h-.07a49.81,49.81,0,0,1-1.39-8.91c-.61-10.13,1.39-14.51,1.39-14.51,0,13.08,20.53,25.81,57.22,32.87,55,10.58,125.55,4.44,157.61-13.71C503.22,394.52,508.29,387.93,508.29,381.43Z"/><path class="j" d="M508.29,381.39v0c0,6.5-5.07,13.09-15.71,19.12C460.52,418.7,390,424.84,335,414.26c-36.69-7.06-57.18-19.79-57.22-32.87,0-6.51,5-13.12,15.71-19.16,32.06-18.15,102.62-24.28,157.61-13.7C487.76,355.59,508.25,368.31,508.29,381.39Z"/><ellipse class="h" cx="376.56" cy="376.25" rx="46.89" ry="17.68"/><path class="h" d="M352,416.94v22.24c-5.8-.73-11.49-1.62-17-2.69-35.59-6.84-55.93-19-57.15-31.68h-.07a49.81,49.81,0,0,1-1.39-8.91c-.61-10.12,1.39-14.51,1.39-14.51,0,13.09,20.53,25.81,57.22,32.87C340.51,415.32,346.2,416.22,352,416.94Z"/><path class="k" d="M460.92,348.84c0,5.43-12.33,10.14-30.39,12.49,3.75-1.67,5.87-3.57,5.87-5.58,0-6.85-24.66-12.41-55.08-12.41-24,0-44.37,3.45-51.94,8.27a13.29,13.29,0,0,1-4.26-9.31c0-6.95,6.56-13,16.32-16.34.59-3.57,7.25-6.52,16.21-7.46,3.26-9.43,15.87-16.47,30.94-16.47s27.43,6.89,30.85,16.18l1.45,0c12.35,0,22.36,3.71,22.36,8.29a2,2,0,0,1,0,.23c10.27,1.63,17.69,6.4,17.69,12a8.09,8.09,0,0,1-2.79,5.75C459.94,345.85,460.92,347.32,460.92,348.84Z"/><ellipse class="k" cx="424.72" cy="326.97" rx="11.92" ry="5.52"/><ellipse class="k" cx="449.61" cy="333.72" rx="4.63" ry="2.14"/><ellipse class="k" cx="387.63" cy="306.54" rx="9.68" ry="4.51"/><path class="k" d="M436.4,355.75c0,2-2.12,3.91-5.87,5.58a204.55,204.55,0,0,1-26.27,1.61A188.25,188.25,0,0,1,370,360.06a55.41,55.41,0,0,1-11.71,1.23c-12.41,0-23.23-3.9-28.92-9.68,7.57-4.82,28-8.27,51.94-8.27C411.74,343.34,436.4,348.9,436.4,355.75Z"/><path class="k" d="M460.92,348.84c0,5.43-12.33,10.14-30.39,12.49,3.75-1.67,5.87-3.57,5.87-5.58,0-6.85-24.66-12.41-55.08-12.41-24,0-44.37,3.45-51.94,8.27a13.29,13.29,0,0,1-4.26-9.31c0-6.95,6.56-13,16.32-16.34.59-3.57,7.25-6.52,16.21-7.46,3.26-9.43,15.87-16.47,30.94-16.47s27.43,6.89,30.85,16.18l1.45,0c12.35,0,22.36,3.71,22.36,8.29a2,2,0,0,1,0,.23c10.27,1.63,17.69,6.4,17.69,12a8.09,8.09,0,0,1-2.79,5.75C459.94,345.85,460.92,347.32,460.92,348.84Z"/><ellipse class="l" cx="424.72" cy="326.97" rx="11.92" ry="5.52"/><ellipse class="l" cx="449.61" cy="333.72" rx="4.63" ry="2.14"/><ellipse class="l" cx="387.63" cy="306.54" rx="9.68" ry="4.51"/><path class="m" d="M436.4,355.75c0,2-2.12,3.91-5.87,5.58a204.55,204.55,0,0,1-26.27,1.61A188.25,188.25,0,0,1,370,360.06a55.41,55.41,0,0,1-11.71,1.23c-12.41,0-23.23-3.9-28.92-9.68,7.57-4.82,28-8.27,51.94-8.27C411.74,343.34,436.4,348.9,436.4,355.75Z"/><use width="155.19" height="57.24" transform="matrix(0.92, -0.13, 0.13, 0.92, 273.55, 252.03)" xlink:href="#a"/><use width="155.19" height="57.24" transform="matrix(0.92, 0.12, -0.12, 0.92, 358.26, 232.5)" xlink:href="#a"/><use width="155.19" height="57.24" transform="matrix(0.93, -0.04, 0.04, 0.93, 316.48, 268.33)" xlink:href="#a"/><path class="g" d="M496.13,173.64c-31.35-31.75-66.94-40.48-102.92-41.32v-.06c-.73,0-1.47,0-2.2,0s-1.46,0-2.19,0v.06c-36,.84-71.58,9.57-102.93,41.32-7.49,7.59-21.13,29-21.13,34.38,0,14.6,22.91,28.82,63.9,36.71a344.31,344.31,0,0,0,60.16,5.74v.05l2.19,0,2.2,0v-.05a344.49,344.49,0,0,0,60.16-5.74c41-7.89,63.86-22.11,63.89-36.71C517.26,202.59,503.62,181.23,496.13,173.64Z"/><path class="n" d="M343.91,149.93c.59,2.6-.51,4.55-2.21,4.55s-2.75-2-2.2-4.55c.5-2.32,1.26-4.36,2.21-4.36S343.38,147.62,343.91,149.93Z"/><path class="n" d="M322,157.19c0-2.67,1.5-4.33,3.16-3.95s2.24,2.57,1.14,4.93c-1,2.15-2.21,4-3.13,3.76S322,159.56,322,157.19Z"/><path class="n" d="M319.39,168.75c2.51-.92,4.58-.08,4.8,1.61s-1.64,3-4.24,2.76c-2.36-.2-4.48-.7-4.6-1.64S317.16,169.56,319.39,168.75Z"/><path class="n" d="M346.79,170.47c.83,2.55-.09,4.58-1.78,4.74s-2.92-1.75-2.61-4.34c.29-2.35.86-4.45,1.81-4.54S346.06,168.22,346.79,170.47Z"/><path class="n" d="M351.82,160.38c.52-2.62,2.31-3.95,3.86-3.26s1.7,2.95.17,5c-1.4,1.92-2.93,3.47-3.8,3.08S351.35,162.7,351.82,160.38Z"/><path class="n" d="M414.14,146.26c2.63-.45,4.52.74,4.44,2.44s-2.15,2.65-4.66,2c-2.29-.62-4.29-1.48-4.24-2.43S411.81,146.67,414.14,146.26Z"/><path class="n" d="M433.56,170.19c1.14,2.42.48,4.55-1.17,4.92s-3.12-1.37-3.14-4c0-2.37.3-4.53,1.23-4.73S432.55,168,433.56,170.19Z"/><path class="n" d="M401.48,175.8c-.37,2.64-2.08,4.08-3.67,3.48s-1.87-2.85-.46-5c1.28-2,2.72-3.63,3.61-3.3S401.8,173.45,401.48,175.8Z"/><path class="n" d="M448.33,156.7c.7-2.58,2.58-3.79,4.08-3s1.5,3.06-.17,5c-1.53,1.82-3.16,3.27-4,2.82S447.72,159,448.33,156.7Z"/><path class="n" d="M429.26,157.61c1.74-2,3.95-2.32,5-1s0,3.4-2.32,4.49c-2.15,1-4.25,1.6-4.82.84S427.73,159.42,429.26,157.61Z"/><path class="n" d="M451.75,177.05c.78-2.56,2.69-3.7,4.17-2.86s1.4,3.1-.34,5c-1.58,1.77-3.26,3.16-4.08,2.69S451.06,179.32,451.75,177.05Z"/><path class="n" d="M431.49,148.82c2.11,1.64,2.48,3.85,1.17,4.92s-3.4.18-4.59-2.14c-1.07-2.11-1.77-4.18-1-4.78S429.63,147.35,431.49,148.82Z"/><path class="n" d="M439.82,160.55c1.13,2.42.47,4.55-1.18,4.91s-3.12-1.37-3.13-4c0-2.37.31-4.52,1.24-4.73S438.82,158.4,439.82,160.55Z"/><path class="n" d="M381,154.73c.85,2.54-.05,4.59-1.74,4.75s-2.94-1.72-2.65-4.31c.27-2.35.83-4.46,1.77-4.55S380.24,152.49,381,154.73Z"/><path class="n" d="M404.81,153.09c2.48-1,4.57-.21,4.84,1.46s-1.55,3-4.15,2.9c-2.37-.13-4.5-.57-4.65-1.51S402.61,154,404.81,153.09Z"/><path class="n" d="M391.89,163.27c.92,2.51.07,4.58-1.61,4.8s-3-1.65-2.76-4.24c.2-2.36.7-4.49,1.64-4.61S391.08,161,391.89,163.27Z"/><path class="n" d="M374.29,178.07c-.44-2.63.76-4.52,2.45-4.43s2.64,2.16,2,4.67c-.63,2.29-1.5,4.28-2.45,4.23S374.69,180.41,374.29,178.07Z"/><path class="n" d="M390.07,143.79c2.65.35,4.09,2.06,3.5,3.65s-2.84,1.88-5,.48c-2-1.27-3.64-2.7-3.31-3.59S387.72,143.47,390.07,143.79Z"/><path class="n" d="M347.26,143c.05-2.67,1.58-4.3,3.23-3.9s2.19,2.6,1.06,5c-1,2.13-2.27,3.93-3.19,3.7S347.22,145.37,347.26,143Z"/><path class="n" d="M474.77,169.05c2.18,1.54,2.67,3.72,1.42,4.85s-3.39.36-4.69-1.89c-1.19-2.06-2-4.09-1.28-4.72S472.83,167.68,474.77,169.05Z"/><path class="n" d="M447.47,145.24c1.52,2.2,1.23,4.41-.34,5s-3.3-.84-3.75-3.4c-.4-2.34-.45-4.52.43-4.87S446.12,143.29,447.47,145.24Z"/><path class="n" d="M310.55,161.33c2.51-.92,4.58-.08,4.8,1.6s-1.63,3-4.23,2.77c-2.36-.19-4.48-.69-4.61-1.63S308.33,162.15,310.55,161.33Z"/><path class="n" d="M301.17,173.25c.19-2.66,1.81-4.2,3.43-3.71s2,2.72.79,5c-1.15,2.07-2.48,3.8-3.39,3.52S301,175.62,301.17,173.25Z"/><path class="n" d="M370.45,144.88c2.59.62,3.86,2.46,3.11,4s-3,1.59-5.06,0c-1.86-1.47-3.35-3.05-2.93-3.9S368.14,144.33,370.45,144.88Z"/><path class="n" d="M406.75,141.34c2.46,1,3.4,3.07,2.41,4.45s-3.24,1.06-5-.88c-1.59-1.76-2.8-3.57-2.25-4.34S404.57,140.41,406.75,141.34Z"/><path class="n" d="M459.28,162c-1,2.47-3,3.45-4.41,2.48s-1.12-3.22.79-5c1.73-1.62,3.52-2.86,4.3-2.31S460.17,159.81,459.28,162Z"/><path class="n" d="M415.21,168.88c2.44-1.1,4.56-.42,4.91,1.25s-1.42,3.1-4,3.07c-2.37,0-4.52-.36-4.71-1.29S413.05,169.86,415.21,168.88Z"/><path class="h" d="M322,243.35c-36.81-8.09-57.21-21.53-57.25-35.34,0-5.42,13.64-26.78,21.13-34.36,30.4-30.81,64.8-39.94,99.67-41.23C363.75,140,318.67,182.82,322,243.35Z"/><path class="n" d="M223.18,69.76a3.91,3.91,0,0,0-4.08-2.84c-2.84,0-4.62,2.27-4.62,5.84s1.81,6,4.62,6c2.13,0,3.61-1,4.08-2.76h2.55c-.46,2.9-2.82,5-6.61,5-4.42,0-7.25-3.2-7.25-8.23s2.81-8.11,7.23-8.11c3.84,0,6.19,2.3,6.63,5.11Z"/><path class="n" d="M228.66,72.82c0-5.08,2.78-8.17,7.28-8.17s7.28,3.09,7.28,8.17S240.43,81,235.94,81,228.66,77.89,228.66,72.82Zm12,0c0-3.75-1.69-5.9-4.67-5.9s-4.68,2.15-4.68,5.9,1.69,5.9,4.68,5.9S240.61,76.56,240.61,72.82Z"/><path class="n" d="M246.38,72.82c0-5.08,2.78-8.17,7.28-8.17s7.28,3.09,7.28,8.17S258.16,81,253.66,81,246.38,77.89,246.38,72.82Zm11.95,0c0-3.75-1.68-5.9-4.67-5.9S249,69.07,249,72.82s1.68,5.9,4.67,5.9S258.33,76.56,258.33,72.82Z"/><path class="n" d="M274.65,64.93h3.09L271,71.69l7.25,9H275l-5.92-7.4-1.51,1.41v6H265V58.66h2.52V71.82h.24Z"/><path class="n" d="M278.67,84.16V82.28h13.71v1.88Z"/><path class="n" d="M297.39,78.2h-.24v2.52h-2.4V58.66h2.52v8.76h.23a5.46,5.46,0,0,1,4.95-2.77c4,0,6.63,3.2,6.63,8.17S306.45,81,302.45,81A5.66,5.66,0,0,1,297.39,78.2Zm-.18-5.38c0,3.65,1.79,5.9,4.66,5.9s4.6-2.21,4.6-5.9-1.72-5.9-4.6-5.9S297.21,69.17,297.21,72.82Z"/><path class="n" d="M325.8,80.72h-2.4V78.24h-.23c-.79,1.76-2.48,2.75-4.9,2.75-3.54,0-5.39-2.1-5.39-5.84V64.93h2.52v9.6c0,2.85,1.06,4.16,3.58,4.16,2.78,0,4.3-1.65,4.3-4.42V64.93h2.52Z"/><path class="n" d="M330.55,64.93H333v2.34h.24c.47-1.54,2.28-2.62,4.38-2.62a12,12,0,0,1,1.26.07v2.52a10,10,0,0,0-1.61-.15,3.87,3.87,0,0,0-4.15,3.84v9.79h-2.52Z"/><path class="n" d="M341.42,82.46h2.67c.27,1.29,1.68,2.12,4,2.12,2.83,0,4.51-1.39,4.51-3.72v-3.1h-.23a5.49,5.49,0,0,1-4.95,2.72c-4.09,0-6.62-3.16-6.62-7.89s2.56-7.94,6.62-7.94a5.66,5.66,0,0,1,5.07,2.78h.23v-2.5h2.4V81c0,3.53-2.72,5.79-7,5.79C344.23,86.78,341.8,85.07,341.42,82.46Zm11.19-9.87c0-3.45-1.77-5.67-4.69-5.67s-4.57,2.22-4.57,5.67,1.64,5.67,4.57,5.67S352.61,76,352.61,72.59Z"/><path class="n" d="M372.8,76.63c-.74,2.69-3.2,4.36-6.65,4.36-4.38,0-7.12-3.16-7.12-8.15s2.78-8.19,7.12-8.19,6.85,3,6.85,7.94v1H361.65v.12c.13,3.12,1.87,5.1,4.55,5.1,2,0,3.42-.75,4.08-2.14Zm-11.15-5.11h8.7c-.06-2.8-1.73-4.65-4.23-4.65S361.84,68.72,361.65,71.52Z"/><path class="n" d="M377,64.93h2.4v2.34h.23c.47-1.54,2.29-2.62,4.38-2.62a11.79,11.79,0,0,1,1.26.07v2.52a9.79,9.79,0,0,0-1.61-.15,3.86,3.86,0,0,0-4.14,3.84v9.79H377Z"/><path class="n" d="M393.71,58.66h2.14c-2.08,2.66-3.7,8.32-3.7,13.27s1.61,10.62,3.7,13.28h-2.14a21.05,21.05,0,0,1-4.16-13.28A21,21,0,0,1,393.71,58.66Z"/><path class="n" d="M433.41,86.09l1.39-8.33h2.8l-2.3,8.33Z"/><path class="n" d="M476.19,86.09l1.39-8.33h2.8l-2.3,8.33Z"/><path class="n" d="M520.63,85.21h-2.14c2.08-2.66,3.71-8.32,3.71-13.27s-1.62-10.62-3.71-13.28h2.14a21.05,21.05,0,0,1,4.16,13.28A21,21,0,0,1,520.63,85.21Z"/><use width="155.19" height="57.24" transform="matrix(0.12, -0.02, 0.02, 0.12, 487.4, 70.69)" xlink:href="#a"/><use width="155.19" height="57.24" transform="matrix(0.12, 0.02, -0.02, 0.12, 498.22, 68.2)" xlink:href="#a"/><use width="155.19" height="57.24" transform="translate(492.88 72.78) rotate(-2.59) scale(0.12)" xlink:href="#a"/><path class="k" d="M468.26,75.67c0,1-2.26,1.86-5.58,2.3.69-.31,1.08-.66,1.08-1,0-1.26-4.53-2.28-10.12-2.28-4.41,0-8.15.64-9.55,1.52a2.47,2.47,0,0,1-.78-1.71c0-1.28,1.21-2.4,3-3,.11-.66,1.33-1.2,3-1.37.6-1.74,2.92-3,5.68-3s5,1.27,5.67,3h.27c2.27,0,4.11.68,4.11,1.52a.09.09,0,0,1,0,0c1.89.3,3.25,1.17,3.25,2.2a1.48,1.48,0,0,1-.51,1.06A1.06,1.06,0,0,1,468.26,75.67Z"/><ellipse class="l" cx="461.61" cy="71.65" rx="2.19" ry="1.01"/><ellipse class="l" cx="466.19" cy="72.89" rx="0.85" ry="0.39"/><ellipse class="l" cx="454.8" cy="67.9" rx="1.78" ry="0.83"/><path class="m" d="M463.76,76.94c0,.37-.39.72-1.08,1a37.44,37.44,0,0,1-4.83.29,34,34,0,0,1-6.29-.53,9.84,9.84,0,0,1-2.15.23,7.69,7.69,0,0,1-5.32-1.78c1.4-.88,5.14-1.52,9.55-1.52C459.23,74.66,463.76,75.68,463.76,76.94Z"/><path class="n" d="M531.6,401.25v-1.66a4.17,4.17,0,0,0,.81.06c1.11,0,1.71-.53,2.22-2l.23-.72-4.48-12.11h2.08l3.33,10H536l3.31-10h2.06l-4.73,12.84c-1,2.81-2,3.64-4.15,3.64A6.44,6.44,0,0,1,531.6,401.25Z"/><path class="n" d="M543.58,381.14a1.35,1.35,0,1,1,1.35,1.35A1.35,1.35,0,0,1,543.58,381.14Zm.38,3.69h1.93v12.1H544Z"/><path class="n" d="M559.53,393.8c-.56,2.07-2.45,3.35-5.1,3.35-3.36,0-5.46-2.43-5.46-6.26s2.14-6.28,5.46-6.28,5.26,2.33,5.26,6.09v.74H551v.09c.1,2.39,1.44,3.91,3.49,3.91a3.14,3.14,0,0,0,3.13-1.64ZM551,389.88h6.67c0-2.14-1.32-3.56-3.24-3.56S551.13,387.74,551,389.88Z"/><path class="n" d="M562.83,380h1.93v16.91h-1.93Z"/><path class="n" d="M567.91,390.88c0-3.8,2-6.27,5.08-6.27a4.13,4.13,0,0,1,3.8,2.13H577V380h1.93v16.91h-1.84V395h-.18a4.33,4.33,0,0,1-3.88,2.15C569.89,397.15,567.91,394.69,567.91,390.88Zm2,0c0,2.83,1.32,4.53,3.53,4.53s3.56-1.73,3.56-4.53-1.37-4.53-3.56-4.53S569.91,388.06,569.91,390.88Z"/><path class="n" d="M586.73,380h1.64c-1.6,2-2.84,6.38-2.84,10.17s1.23,8.15,2.84,10.19h-1.64a17.84,17.84,0,0,1,0-20.36Z"/><path class="n" d="M624.94,400.38h-1.65c1.6-2,2.85-6.38,2.85-10.17s-1.24-8.15-2.85-10.19h1.65a17.88,17.88,0,0,1,0,20.36Z"/><path class="i" d="M618.35,390.51v2.34h0c-.06.61-.57,1.23-1.57,1.8-3.21,1.81-10.27,2.43-15.77,1.37-3.57-.69-5.6-1.91-5.72-3.17h0a5.65,5.65,0,0,1-.14-.89,3.4,3.4,0,0,1,.14-1.46c0,1.31,2.05,2.59,5.73,3.29,5.5,1.06,12.56.45,15.77-1.37C617.84,391.82,618.35,391.16,618.35,390.51Z"/><path class="j" d="M618.35,390.5h0c0,.65-.51,1.31-1.57,1.91-3.21,1.82-10.27,2.43-15.77,1.37-3.68-.7-5.73-2-5.73-3.29,0-.65.5-1.31,1.57-1.91,3.21-1.82,10.27-2.43,15.78-1.37C616.3,387.92,618.35,389.2,618.35,390.5Z"/><path class="h" d="M602.71,394.06v2.23c-.58-.08-1.15-.16-1.7-.27-3.57-.69-5.6-1.91-5.72-3.17h0a5.65,5.65,0,0,1-.14-.89,3.4,3.4,0,0,1,.14-1.46c0,1.31,2.05,2.59,5.73,3.29C601.56,393.9,602.13,394,602.71,394.06Z"/><path class="i" d="M426.88,73v2.34h0c-.06.62-.57,1.23-1.57,1.8C422.1,79,415,79.6,409.54,78.54c-3.57-.68-5.6-1.9-5.72-3.17h0a5.65,5.65,0,0,1-.14-.89,3.37,3.37,0,0,1,.14-1.45c0,1.31,2.05,2.58,5.73,3.29,5.5,1.06,12.56.44,15.77-1.37C426.37,74.34,426.88,73.68,426.88,73Z"/><path class="j" d="M426.88,73h0c0,.65-.51,1.31-1.57,1.92-3.21,1.81-10.27,2.43-15.77,1.37-3.68-.71-5.73-2-5.73-3.29,0-.65.5-1.31,1.57-1.92,3.21-1.82,10.27-2.43,15.77-1.37C424.83,70.45,426.88,71.72,426.88,73Z"/><path class="h" d="M411.24,76.59v2.22c-.58-.07-1.15-.16-1.7-.27-3.57-.68-5.6-1.9-5.72-3.17h0a4.44,4.44,0,0,1-.14-.89,3.37,3.37,0,0,1,.14-1.45c0,1.31,2.05,2.58,5.73,3.29C410.09,76.42,410.66,76.51,411.24,76.59Z"/><rect class="h" x="580.19" y="92.86" width="174.55" height="157.47" transform="translate(-21.68 177.14) rotate(-14.88)"/><path class="o" d="M562.9,87.57c26.39-6.25,107.34-25.29,166.56-50.38C746.64,87.82,771.1,155.59,798,178.75c-46.72,45-171.48,50.91-180.1,48.51C603.31,219,568.59,121.07,562.9,87.57Z"/><rect class="p" x="666.39" y="117.01" width="82.59" height="20.26" transform="translate(-4.96 222.65) rotate(-17.82)"/><path class="n" d="M599.28,161.54c-1.12-3.46,0-6.2,2.92-7.14a4.41,4.41,0,0,1,5.47,2.09l-1.37.44a3.08,3.08,0,0,0-3.7-1.29c-2.06.66-2.81,2.77-2,5.46s2.71,4,4.77,3.3a3,3,0,0,0,2.33-3l1.36-.44c.28,2.09-1,3.9-3.29,4.64C602.9,166.57,600.39,165,599.28,161.54Z"/><path class="n" d="M608.63,152.1l1.28-.42,1.43,4.45.12,0a2.61,2.61,0,0,1,2-2.19c1.69-.55,3.11.19,3.72,2.07l1.67,5.2-1.28.41L616,156.7c-.46-1.42-1.32-1.92-2.54-1.53a2.17,2.17,0,0,0-1.49,3l1.52,4.75-1.28.41Z"/><path class="n" d="M619.51,156.53c-.83-2.58.08-4.6,2.36-5.33s4.21.38,5,3-.07,4.6-2.36,5.34S620.34,159.11,619.51,156.53Zm6.07-1.95c-.61-1.9-1.82-2.72-3.33-2.23s-2,1.86-1.41,3.76,1.81,2.72,3.33,2.23S626.19,156.48,625.58,154.58Z"/><path class="n" d="M636.19,151.17c.8,2.51,0,4.58-2,5.24a2.84,2.84,0,0,1-2.94-.54l-.12,0,1.25,3.88-1.28.41-3.44-10.7,1.22-.39.43,1.34.12,0a3,3,0,0,1,2.09-2.3C633.53,147.45,635.38,148.65,636.19,151.17Zm-1.33.43c-.6-1.87-1.84-2.72-3.3-2.24s-2,1.91-1.4,3.75,1.87,2.71,3.32,2.24S635.47,153.47,634.86,151.6Z"/><path class="n" d="M642.35,142.48l.67,2.08,1.79-.58.34,1.07-1.79.58,1.46,4.53c.31,1,.79,1.23,1.63,1l.58-.22.35,1.07a4.26,4.26,0,0,1-.73.32c-1.65.53-2.51.13-3-1.4L642.08,146l-1.29.41-.34-1.07,1.29-.41-.67-2.08Z"/><path class="n" d="M645.79,140.15l1.28-.41,1.43,4.45.12,0a2.64,2.64,0,0,1,2-2.2c1.69-.54,3.11.2,3.72,2.08l1.67,5.19-1.28.41-1.57-4.88c-.46-1.42-1.33-1.92-2.54-1.53a2.17,2.17,0,0,0-1.49,3l1.52,4.74-1.28.41Z"/><path class="n" d="M664.28,144.28a3.35,3.35,0,0,1-2.66,3.3c-2.22.71-4.13-.45-5-3s.08-4.61,2.28-5.32,4,.42,4.78,2.91l.16.49-5.77,1.86,0,.05c.58,1.57,1.78,2.29,3.15,1.85a2.17,2.17,0,0,0,1.71-1.75Zm-6.49-.78,4.42-1.42a2.27,2.27,0,0,0-2.91-1.66A2.39,2.39,0,0,0,657.79,143.5Z"/><path class="o" d="M670.82,132.93a1,1,0,0,1,.61-1.18.93.93,0,1,1-.61,1.18Zm1,2.36,1.28-.41,2.58,8-1.28.41Z"/><path class="o" d="M675.58,134.09l1.22-.39.41,1.26.12,0a2.53,2.53,0,0,1,1.95-2.18c1.8-.57,3.15.17,3.76,2.07l1.67,5.19-1.28.41-1.57-4.88c-.46-1.44-1.29-1.93-2.57-1.52a2.14,2.14,0,0,0-1.38,2.94l1.53,4.75-1.28.41Z"/><path class="o" d="M687.27,140.16l1.35-.44c.36.61,1.21.8,2.36.43,1.44-.46,2.06-1.44,1.68-2.62l-.5-1.58-.12,0a2.91,2.91,0,0,1-2.07,2.19c-2.08.67-3.88-.52-4.65-2.93s0-4.45,2.06-5.11a3,3,0,0,1,3,.59l.12,0-.41-1.27,1.22-.4,2.62,8.16c.58,1.8-.44,3.39-2.62,4.09C689.4,141.89,687.89,141.42,687.27,140.16Zm4.07-6.84c-.56-1.75-1.82-2.59-3.3-2.12s-2,1.88-1.4,3.63,1.76,2.61,3.25,2.13S691.9,135.06,691.34,133.32Z"/><path class="o" d="M693.75,128.25l1.22-.39.38,1.19.12,0a2.36,2.36,0,0,1,1.8-2c.21-.06.48-.13.65-.16l.41,1.28a5,5,0,0,0-.84.18,2.07,2.07,0,0,0-1.48,2.63l1.6,5-1.28.41Z"/><path class="o" d="M707.83,130.28a3.36,3.36,0,0,1-2.66,3.3c-2.23.72-4.14-.44-4.95-3s.07-4.61,2.28-5.32,4,.42,4.77,2.92l.16.49-5.76,1.85,0,.06c.57,1.56,1.78,2.28,3.14,1.84a2.18,2.18,0,0,0,1.72-1.75Zm-6.5-.78,4.42-1.42a2.26,2.26,0,0,0-2.91-1.66A2.4,2.4,0,0,0,701.33,129.5Z"/><path class="o" d="M708.92,127.8c-.81-2.52,0-4.58,2-5.24a2.91,2.91,0,0,1,3,.6l.11,0-1.43-4.45,1.28-.41,3.6,11.2-1.22.39-.41-1.28-.12,0a3,3,0,0,1-2.11,2.25C711.57,131.53,709.73,130.32,708.92,127.8Zm1.32-.43c.6,1.88,1.84,2.72,3.31,2.25s2-1.91,1.39-3.76-1.87-2.7-3.32-2.24S709.64,125.51,710.24,127.37Z"/><path class="o" d="M716.38,118.29a.94.94,0,0,1,1.79-.58,1,1,0,0,1-.61,1.18A.94.94,0,0,1,716.38,118.29Zm1,2.35,1.28-.41,2.57,8-1.27.41Z"/><path class="o" d="M729.64,123.27a3.37,3.37,0,0,1-2.67,3.3c-2.22.72-4.13-.44-4.94-3s.07-4.61,2.27-5.32,4,.43,4.78,2.92l.16.49-5.77,1.85,0,.06c.58,1.56,1.79,2.28,3.15,1.84a2.18,2.18,0,0,0,1.72-1.75Zm-6.5-.77,4.42-1.42a2.27,2.27,0,0,0-2.91-1.67A2.4,2.4,0,0,0,723.14,122.5Z"/><path class="o" d="M729.84,116.65l1.22-.39.4,1.26.12,0a2.54,2.54,0,0,1,2-2.19c1.8-.57,3.15.17,3.76,2.07l1.67,5.19-1.28.41-1.57-4.88c-.46-1.44-1.29-1.93-2.57-1.52a2.14,2.14,0,0,0-1.38,2.94l1.53,4.75-1.28.41Z"/><path class="o" d="M739.88,111.14l.66,2.07,1.79-.57.34,1.07-1.78.57,1.45,4.54c.31.94.79,1.23,1.63,1a4.58,4.58,0,0,0,.58-.22l.35,1.08a4.26,4.26,0,0,1-.73.32c-1.65.53-2.51.13-3-1.4l-1.56-4.87-1.3.42L738,114l1.29-.42-.66-2.07Z"/><rect class="q" x="628.32" y="49.71" width="34.4" height="46.68" transform="translate(19.15 245.36) rotate(-21.84)"/><path class="r" d="M647.48,388.94s108.77,12.42,118.9-42.66c10.63-57.81-38.13-107.69-38.13-107.69"/><path class="s" d="M743.7,235.44a8,8,0,0,0,.8-3.06c1.2-10-5.39-28.6-8.26-28.77s.19,7.5-.55,12c-1.9-7.16-7.42-21.54-10.77-20s-.76,5.9-.31,9.48,1.52,7.15,1,10.73c-3.31-6.68-11.45-19-13.66-17.53-3,2-.86,9,1.38,12.91s5.23,7.65,6,12.13a193,193,0,0,0-15.49-13.94,3.09,3.09,0,0,0-2.46-1c-1.2.28-1.6,1.8-1.49,3,.41,4.64,4.49,7.91,7.53,11.43a30.63,30.63,0,0,1,6.81,13.82c-1.66,1.45-4,1.68-6.24,1.73s-4.54,0-6.45,1.12-3.11,3.8-1.79,5.57a5.8,5.8,0,0,0,3.43,1.78l18.93,4.87.17,0a5,5,0,0,0-.59,5.51,2.94,2.94,0,0,0,1.42,1.32,4.28,4.28,0,0,0,3.18-.44,55.45,55.45,0,0,0,19.58-14.34c1.72-2,3.28-5.12,1.42-7Z"/></g></svg>