<svg xmlns="http://www.w3.org/2000/svg" xmlns:xlink="http://www.w3.org/1999/xlink" viewBox="0 0 900 450"><defs><style>.a{fill:#a92b22;}.b{fill:#fddfe0;opacity:0.8;}.c{fill:#741a14;}.d{fill:#c29644;}.e{fill:#fec75e;}.f,.r{fill:#4b4b4b;}.f{opacity:0.2;mix-blend-mode:multiply;}.g{fill:#fff7e8;}.h{fill:#f1e5ce;}.i,.k,.o,.s,.t{fill:none;}.j{fill:#fef6ea;}.k{stroke:#f1e5ce;stroke-width:0.5px;}.k,.o,.s,.t{stroke-miterlimit:10;}.l{fill:#ed2627;}.m{fill:#cd362c;}.n{fill:#5abd80;}.o{stroke:#47915a;}.p{fill:#47915a;}.q{fill:#fff;}.s,.t{stroke:#fff;stroke-dasharray:2 5;}.s{stroke-width:3px;}</style><symbol id="a" viewBox="0 0 150.68 62.56"><path class="d" d="M150.66,25.43a47.39,47.39,0,0,1-1.69,10c-1.55,5.67-6.17,10.33-7,11.14a25.48,25.48,0,0,1-4.86,3.78l-.3.19c-.33.19-.66.39-1,.58l-.17.1c-.18.1-.35.2-.54.29-.37.21-.76.41-1.15.62l-.61.29-1,.47-.71.33-1.27.55-.5.21c-.54.22-1.08.44-1.63.64l-.4.16-1.87.67-.2.07a118.48,118.48,0,0,1-18.09,4.46l-.29.05-.68.11a192,192,0,0,1-30,2.45H73.93A191.82,191.82,0,0,1,44,60.1L43.3,60l-.3-.05a119.07,119.07,0,0,1-18.09-4.46l-.2-.07-1.87-.67-.4-.16c-.55-.2-1.09-.42-1.63-.64l-.5-.21-1.26-.55-.72-.33-1-.47-.61-.29-1.16-.62-.53-.29-.18-.1-1-.58-.31-.19A25.8,25.8,0,0,1,8.7,46.53c-.83-.81-5.45-5.47-7-11.14A46.64,46.64,0,0,1,0,25.46C.64,33.8,14,41.85,37.4,46.35c35.94,6.92,82.06,2.91,103-9C147.07,33.62,150.39,29.52,150.66,25.43Z"/><path class="e" d="M150.68,24.87c0,.14,0,.29,0,.43s0,.09,0,.13c-.27,4.09-3.59,8.19-10.25,12-21,11.86-67.07,15.87-103,9C14,41.85.64,33.8,0,25.46a.86.86,0,0,1,0-.16v-.13c0-.19,0-.3,0-.3H0C0,20.6,3.3,16.29,10.26,12.35c21-11.87,67.07-15.88,103-9C137.26,8,150.65,16.32,150.68,24.87Z"/><ellipse class="f" cx="73.42" cy="21.71" rx="56.43" ry="17.74"/><path class="f" d="M49.37,48.89v12q-2.73-.36-5.4-.8L43.3,60l-.3-.06a117.89,117.89,0,0,1-18.09-4.46l-.19-.07c-.64-.22-1.27-.45-1.88-.68l-.39-.14-1.63-.65-.51-.21L19,53.18l-.7-.32-1-.48-.61-.3-1.15-.6-.53-.3-.18-.09-1-.6a3,3,0,0,1-.3-.18,25.17,25.17,0,0,1-4.86-3.78c-.84-.81-5.45-5.47-7-11.14A46.06,46.06,0,0,1,0,25.25C.15,28.14,1.82,31,4.92,33.7c5.17,5.14,14.86,9.67,28.43,12.66A142.42,142.42,0,0,0,49.37,48.89Z"/></symbol><symbol id="b" viewBox="0 0 146.05 61.89"><path class="c" d="M146.05,24V38.69h0c-.34,3.85-3.54,7.74-9.85,11.32C116,61.43,71.57,65.29,37,58.63c-22.4-4.31-35.2-12-36-19.94H1a31.09,31.09,0,0,1-.88-5.61C-.31,26.7,1,23.94,1,23.94c0,8.24,12.92,16.25,36,20.69,34.61,6.66,79,2.8,99.2-8.63C142.86,32.21,146.05,28.06,146.05,24Z"/><line class="i" x1="0.95" y1="24.72" x2="0.95" y2="37.25"/><path class="a" d="M146.05,23.94v0c0,4.09-3.19,8.24-9.89,12C116,47.43,71.57,51.29,37,44.63,13.87,40.19,1,32.18,1,23.94c0-4.09,3.17-8.25,9.89-12C31,.46,75.43-3.4,110,3.26,133.13,7.71,146,15.71,146.05,23.94Z"/><ellipse class="f" cx="63.14" cy="20.71" rx="29.51" ry="11.13"/><path class="f" d="M28.79,42.8c2.56.66,5.29,1.28,8.17,1.83q5.24,1,10.72,1.69v14Q42.21,59.63,37,58.63c-22.4-4.31-35.2-12-36-20H1a30.82,30.82,0,0,1-.88-5.6C-.31,26.71,1,24,1,24c0,7.2,9.9,14.23,27.84,18.85"/></symbol><symbol id="c" viewBox="0 0 85.47 38.34"><path class="l" d="M85.47,29.47c0,3.41-7.75,6.37-19.12,7.85,2.36-1,3.69-2.24,3.69-3.5C70,29.5,54.52,26,35.37,26,20.29,26,7.45,28.17,2.68,31.21A8.39,8.39,0,0,1,0,25.35C0,21,4.13,17.14,10.27,15.06c.38-2.24,4.57-4.1,10.2-4.69C22.53,4.43,30.47,0,40,0S57.21,4.34,59.36,10.18h.92c7.77,0,14.07,2.34,14.07,5.22a.66.66,0,0,1,0,.14c6.46,1,11.13,4,11.13,7.57a5.07,5.07,0,0,1-1.76,3.62A3.62,3.62,0,0,1,85.47,29.47Z"/><ellipse class="b" cx="62.69" cy="15.7" rx="7.5" ry="3.47"/><ellipse class="b" cx="78.36" cy="19.95" rx="2.92" ry="1.35"/><ellipse class="b" cx="39.35" cy="2.84" rx="6.1" ry="2.84"/><path class="m" d="M70,33.82c0,1.26-1.33,2.45-3.69,3.5a128.53,128.53,0,0,1-16.54,1,119.26,119.26,0,0,1-21.55-1.81,34.81,34.81,0,0,1-7.38.77c-7.81,0-14.62-2.46-18.2-6.09C7.45,28.17,20.29,26,35.37,26,54.52,26,70,29.5,70,33.82Z"/></symbol><symbol id="e" viewBox="0 0 155.19 57.24"><path class="h" d="M155.18,25.61c0,4.39-3.39,8.84-10.56,12.9C123,50.73,75.53,54.86,38.52,47.74,13.82,43,0,34.42,0,25.61H0v6H0C0,40.44,13.82,49,38.52,53.75c37,7.13,84.52,3,106.1-9.22,7.17-4.06,10.58-8.51,10.56-12.9h0v-6Z"/><path class="j" d="M116.67,3.49c-37-7.12-84.52-3-106.1,9.23C3.4,16.78,0,21.22,0,25.61v.19a3.52,3.52,0,0,0,.05.64c0,.13,0,.27.05.41a9.11,9.11,0,0,0,.4,1.64l.05.11a1.42,1.42,0,0,0,.1.29c.06.14.11.28.17.41s.13.27.19.41.13.26.2.38,0,0,0,0c.15.27.31.54.47.8a0,0,0,0,0,0,0c.09.13.17.26.27.39a12.28,12.28,0,0,0,.9,1.18l0,0c.21.25.44.51.68.77l0,0c.12.13.25.25.38.38l.82.78.44.38.46.39c.31.25.63.5,1,.75l.23.17,0,0,.6.43c.78.54,1.61,1.07,2.5,1.59l.58.33.43.24.35.2c.11.06.22.13.35.19l.88.45,1.13.56.85.4c.53.25,1.09.49,1.65.73l.78.33,1.63.65,1.51.56c.55.2,1.1.4,1.67.59l.85.28.87.29.15,0h0l.71.22.9.28.92.27,1.5.43,1,.26,1,.28.88.22.41.1c.62.16,1.24.31,1.87.45l2,.45,1.32.28,1.14.22,1.15.23q4.27.83,8.73,1.45c1.3.19,2.62.36,4,.52,1.82.22,3.67.41,5.52.58l1.8.16c1.1.1,2.2.18,3.31.25,1.27.09,2.55.17,3.83.23s2.55.13,3.83.17c3.93.14,7.87.17,11.79.11l1.25,0c1,0,2,0,3-.08l2-.07.27,0c.75,0,1.5-.06,2.25-.11l2.39-.14.91-.06,1.77-.12,1.59-.13,1.39-.12.81-.08,1.08-.11c.37,0,.73-.06,1.09-.11l.37,0,1.65-.18c1.11-.13,2.22-.27,3.32-.42l1.06-.14.4,0L109,49c.88-.13,1.74-.26,2.61-.41l1-.16.32-.06,1.66-.28,1.77-.33c1.8-.34,3.55-.71,5.27-1.09l1.45-.34c2.09-.5,4.12-1,6.06-1.61l1.73-.52.5-.16h0l.73-.23c1.94-.63,3.79-1.31,5.54-2l.75-.31.25-.1,1.57-.69.33-.15c.77-.35,1.53-.72,2.25-1.09l.82-.43,1-.53c.85-.48,1.64-1,2.39-1.46l.44-.3.43-.29.41-.3a23.9,23.9,0,0,0,3.22-2.75c.26-.27.51-.54.74-.81s.45-.54.65-.81.21-.27.3-.41.19-.27.27-.41a4.53,4.53,0,0,0,.26-.4c.08-.14.16-.27.23-.42s.29-.54.41-.81.11-.28.17-.41.07-.2.11-.29,0-.08,0-.13.09-.27.13-.41a5.09,5.09,0,0,0,.19-.77s0,0,0-.06l.06-.4.06-.41a7.5,7.5,0,0,0,0-.82v0C155.16,16.81,141.37,8.24,116.67,3.49Zm26,25.15a11.32,11.32,0,0,1-2,3.12,24.07,24.07,0,0,1-5.61,4.4l-.66.38c-18.27,10.34-58.49,13.83-89.83,7.8-10.57-2-18.79-4.89-24.32-8.18a23.71,23.71,0,0,1-5.6-4.41,11.43,11.43,0,0,1-2.06-3.15c-2-4.65.6-9.54,8.32-13.91.92-.52,1.9-1,2.94-1.52C43.17,4,80.92,1.16,110.68,6.88a88.84,88.84,0,0,1,20.76,6.31h0C140.92,17.67,145,23.21,142.66,28.64Z"/><path class="h" d="M142.66,28.64c-2.7-6.36-13.88-12.25-32-15.74-31.34-6-71.56-2.53-89.83,7.81-4.43,2.51-7.16,5.19-8.32,7.89-2-4.65.6-9.54,8.32-13.91.92-.52,1.9-1,2.94-1.52C43.17,4,80.92,1.16,110.68,6.88a88.84,88.84,0,0,1,20.76,6.31h0C140.92,17.67,145,23.21,142.66,28.64Z"/></symbol><symbol id="d" viewBox="0 0 139.22 49.68"><use width="155.19" height="57.24" transform="translate(-2.1 7.89) rotate(-8.27) scale(0.58)" xlink:href="#e"/><use width="155.19" height="57.24" transform="matrix(0.58, 0.08, -0.08, 0.58, 51.21, -4.4)" xlink:href="#e"/><use width="155.19" height="57.24" transform="translate(24.92 18.15) rotate(-2.59) scale(0.58)" xlink:href="#e"/></symbol><symbol id="h" viewBox="0 0 158.93 74.43"><path class="e" d="M145.63,26.05C125.89,6.06,103.49.57,80.85,0V0H78.08V0c-22.64.53-45,6-64.78,26C8.59,30.82,0,44.27,0,47.68c0,9.2,14.42,18.14,40.22,23.11A216.35,216.35,0,0,0,78.08,74.4v0h2.77v0a216.35,216.35,0,0,0,37.86-3.61c25.8-5,40.2-13.91,40.22-23.11C158.93,44.27,150.34,30.82,145.63,26.05Z"/><path class="q" d="M49.82,11.12c.37,1.64-.32,2.87-1.39,2.87S46.7,12.73,47,11.12c.31-1.46.8-2.74,1.39-2.74S49.49,9.67,49.82,11.12Z"/><path class="q" d="M36,15.69C36,14,37,13,38,13.21s1.41,1.61.71,3.1-1.38,2.5-2,2.37S36,17.19,36,15.69Z"/><path class="q" d="M34.39,23c1.57-.58,2.88,0,3,1s-1,1.88-2.66,1.74-2.82-.44-2.9-1S33,23.48,34.39,23Z"/><path class="q" d="M51.63,24.06c.52,1.59-.06,2.88-1.12,3s-1.84-1.1-1.64-2.72.54-2.81,1.14-2.86S51.17,22.64,51.63,24.06Z"/><path class="q" d="M54.79,17.7c.33-1.65,1.46-2.49,2.44-2s1.07,1.86.1,3.18S55.49,21,54.94,20.77,54.5,19.16,54.79,17.7Z"/><path class="q" d="M106.24,23.87c.72,1.53.31,2.87-.73,3.1s-2-.86-2-2.5c0-1.49.19-2.85.77-3S105.61,22.52,106.24,23.87Z"/><path class="q" d="M86.05,27.4c-.23,1.67-1.31,2.57-2.31,2.2s-1.17-1.8-.29-3.17,1.71-2.29,2.27-2.08S86.26,25.93,86.05,27.4Z"/><path class="q" d="M115.54,15.39c.44-1.63,1.62-2.39,2.57-1.89s.94,1.93-.11,3.18-2,2.06-2.51,1.78S115.16,16.83,115.54,15.39Z"/><path class="q" d="M103.54,16c1.09-1.28,2.49-1.46,3.13-.61s0,2.15-1.47,2.83-2.67,1-3,.53S102.57,17.1,103.54,16Z"/><path class="q" d="M117.69,28.19c.49-1.61,1.7-2.33,2.63-1.8s.88,2-.22,3.18-2,2-2.57,1.69S117.26,29.62,117.69,28.19Z"/><path class="q" d="M104.94,10.42c1.33,1,1.56,2.43.74,3.1s-2.15.12-2.89-1.34-1.11-2.63-.65-3S103.77,9.5,104.94,10.42Z"/><path class="q" d="M110.19,17.81c.71,1.52.29,2.86-.75,3.09s-2-.86-2-2.5.2-2.85.78-3S109.55,16.45,110.19,17.81Z"/><path class="q" d="M73.16,14.15c.53,1.59,0,2.88-1.1,3s-1.85-1.09-1.66-2.72c.16-1.48.51-2.8,1.11-2.86S72.69,12.73,73.16,14.15Z"/><path class="q" d="M88.15,13.11c1.56-.62,2.88-.13,3,.92s-1,1.91-2.62,1.82c-1.49-.08-2.83-.35-2.92-.94S86.76,13.67,88.15,13.11Z"/><path class="q" d="M80,19.52c.57,1.58,0,2.88-1,3s-1.87-1-1.74-2.67.45-2.82,1-2.9S79.51,18.12,80,19.52Z"/><path class="q" d="M68.94,28.84c-.28-1.66.48-2.85,1.54-2.79s1.66,1.36,1.23,2.94-.94,2.69-1.54,2.66S69.19,30.31,68.94,28.84Z"/><path class="q" d="M132.18,23.16c1.38,1,1.68,2.34.89,3.05s-2.13.23-2.95-1.19-1.25-2.57-.8-3S131,22.3,132.18,23.16Z"/><path class="q" d="M28.82,18.3c1.58-.58,2.89-.05,3,1s-1,1.88-2.66,1.74-2.82-.43-2.9-1S27.42,18.81,28.82,18.3Z"/><path class="q" d="M22.92,25.8c.12-1.67,1.14-2.64,2.16-2.33s1.29,1.71.49,3.14S24,29,23.44,28.83,22.81,27.29,22.92,25.8Z"/><path class="q" d="M122.43,18.73c-.63,1.55-1.9,2.17-2.77,1.56s-.71-2,.49-3.15,2.22-1.8,2.71-1.46S123,17.34,122.43,18.73Z"/><path class="q" d="M94.7,23.05c1.53-.69,2.87-.26,3.08.79s-.89,1.95-2.53,1.93c-1.49,0-2.84-.22-3-.81S93.34,23.67,94.7,23.05Z"/><path class="f" d="M36,69.92C12.87,64.83,0,56.37,0,47.68c0-3.41,8.59-16.86,13.3-21.63C32.44,6.66,54.09.92,76,.1,62.31,4.87,33.93,31.83,36,69.92Z"/><path class="q" d="M119.67,8.82c1.66-.29,2.85.46,2.8,1.53s-1.35,1.66-2.94,1.24c-1.44-.39-2.7-.93-2.67-1.53S118.2,9.07,119.67,8.82Z"/><path class="q" d="M94.66,3.49c1.67.23,2.58,1.3,2.21,2.3S95.08,7,93.7,6.09s-2.3-1.7-2.09-2.26S93.18,3.29,94.66,3.49Z"/><path class="q" d="M77.58,6.76c0-1.68,1-2.71,2-2.45S81,6,80.28,7.42s-1.43,2.48-2,2.33S77.55,8.25,77.58,6.76Z"/><path class="q" d="M64.6,5.06c1,1.39.78,2.78-.22,3.18S62.31,7.72,62,6.1c-.26-1.47-.29-2.84.26-3.06S63.75,3.84,64.6,5.06Z"/><path class="q" d="M92.17,7.94c1.64.39,2.43,1.55,2,2.51s-1.9,1-3.18,0S88.84,8.51,89.1,8,90.72,7.6,92.17,7.94Z"/><path class="q" d="M71.05,5.34c1.55.66,2.14,1.94,1.51,2.81s-2,.66-3.13-.55S67.67,5.35,68,4.86,69.68,4.76,71.05,5.34Z"/></symbol><symbol id="j" viewBox="0 0 30.43 12.89"><path class="h" d="M30.43,5V8.06h0c-.07.8-.74,1.61-2.05,2.36C24.16,12.8,14.91,13.6,7.7,12.21,3,11.32.37,9.72.21,8.06h0A6.63,6.63,0,0,1,0,6.89,4.4,4.4,0,0,1,.2,5C.2,6.7,2.89,8.37,7.7,9.3c7.21,1.39,16.46.58,20.67-1.8C29.76,6.71,30.43,5.85,30.43,5Z"/><line class="i" x1="0.2" y1="5.15" x2="0.2" y2="7.76"/><path class="j" d="M30.43,5h0c0,.86-.67,1.72-2.06,2.51C24.16,9.88,14.91,10.69,7.7,9.3,2.89,8.37.2,6.7.2,5c0-.86.66-1.72,2.06-2.51C6.46.1,15.71-.71,22.92.68,27.73,1.61,30.42,3.27,30.43,5Z"/><path class="f" d="M6,8.92c.53.13,1.1.26,1.7.38s1.47.25,2.23.35v2.92c-.76-.1-1.5-.22-2.23-.36C3,11.32.37,9.72.21,8.06h0A6.63,6.63,0,0,1,0,6.89,4.21,4.21,0,0,1,.2,5C.2,6.49,2.26,8,6,8.92"/><path class="k" d="M6,2.85A27.73,27.73,0,0,1,17.77,1c4.87.48,10.16,2,8.71,4.51s-9.3,3.27-9.3,3.27"/><path class="k" d="M20.22,2.75c-.3-.51-7-.73-10.29.55-3.55,1.36-5,2.82-.61,4.06,2.74.77,11.87-.15,12-1.4.23-2.23-5.26-2-5.51-1.65"/><ellipse class="f" cx="13.15" cy="4.31" rx="6.15" ry="2.32"/></symbol><symbol id="k" viewBox="0 0 34.59 12.44"><path class="e" d="M0,6.56C2.63,2.82,11.34,0,16.16,0H27.79a19.4,19.4,0,0,1-13,8.34A26.24,26.24,0,0,1,0,6.56Z"/><path class="e" d="M14.37,11.49c-.1-2.57,16.72-10.08,19.45-9.42,1.63.39,1,6.36-4.62,8.88S14.37,11.49,14.37,11.49Z"/><ellipse class="f" cx="16.42" cy="6.76" rx="6.52" ry="1.05" transform="translate(-1.28 5.32) rotate(-17.72)"/><ellipse class="f" cx="26.93" cy="10.72" rx="4.3" ry="1.17" transform="translate(-1.98 8.7) rotate(-17.72)"/></symbol><symbol id="m" viewBox="0 0 85.47 38.34"><path class="e" d="M85.47,29.47c0,3.41-7.75,6.37-19.12,7.85,2.36-1,3.69-2.24,3.69-3.5C70,29.5,54.52,26,35.37,26,20.29,26,7.45,28.17,2.68,31.21A8.39,8.39,0,0,1,0,25.35C0,21,4.13,17.14,10.27,15.06c.38-2.24,4.57-4.1,10.2-4.69C22.53,4.43,30.47,0,40,0S57.21,4.34,59.36,10.18h.92c7.77,0,14.07,2.34,14.07,5.22a.66.66,0,0,1,0,.14c6.46,1,11.13,4,11.13,7.57a5.07,5.07,0,0,1-1.76,3.62A3.62,3.62,0,0,1,85.47,29.47Z"/><ellipse class="b" cx="62.69" cy="15.7" rx="7.5" ry="3.47"/><ellipse class="b" cx="78.36" cy="19.95" rx="2.92" ry="1.35"/><ellipse class="b" cx="39.35" cy="2.84" rx="6.1" ry="2.84"/><path class="d" d="M70,33.82c0,1.26-1.33,2.45-3.69,3.5a128.53,128.53,0,0,1-16.54,1,119.26,119.26,0,0,1-21.55-1.81,34.81,34.81,0,0,1-7.38.77c-7.81,0-14.62-2.46-18.2-6.09C7.45,28.17,20.29,26,35.37,26,54.52,26,70,29.5,70,33.82Z"/></symbol><symbol id="n" viewBox="0 0 85.47 38.34"><path class="a" d="M85.47,29.47c0,3.41-7.75,6.37-19.12,7.85,2.36-1,3.69-2.24,3.69-3.5C70,29.5,54.52,26,35.37,26,20.29,26,7.45,28.17,2.68,31.21A8.39,8.39,0,0,1,0,25.35C0,21,4.13,17.14,10.27,15.06c.38-2.24,4.57-4.1,10.2-4.69C22.53,4.43,30.47,0,40,0S57.21,4.34,59.36,10.18h.92c7.77,0,14.07,2.34,14.07,5.22a.66.66,0,0,1,0,.14c6.46,1,11.13,4,11.13,7.57a5.07,5.07,0,0,1-1.76,3.62A3.62,3.62,0,0,1,85.47,29.47Z"/><ellipse class="b" cx="62.69" cy="15.7" rx="7.5" ry="3.47"/><ellipse class="b" cx="78.36" cy="19.95" rx="2.92" ry="1.35"/><ellipse class="b" cx="39.35" cy="2.84" rx="6.1" ry="2.84"/><path class="c" d="M70,33.82c0,1.26-1.33,2.45-3.69,3.5a128.53,128.53,0,0,1-16.54,1,119.26,119.26,0,0,1-21.55-1.81,34.81,34.81,0,0,1-7.38.77c-7.81,0-14.62-2.46-18.2-6.09C7.45,28.17,20.29,26,35.37,26,54.52,26,70,29.5,70,33.82Z"/></symbol><symbol id="s" viewBox="0 0 36.52 14.26"><path class="e" d="M36.52,6.64,17.69,13.9l0,0C16.66,13.46,1,6.59,0,6.59L19.19,0Z"/><polygon class="g" points="36.52 6.64 36.52 7 17.7 14.26 17.7 13.9 36.52 6.64"/><path class="d" d="M17.69,13.9v.36L0,7V6.59H0c1,0,16.65,6.87,17.64,7.29Z"/></symbol><symbol id="t" viewBox="0 0 38.51 18.48"><path class="n" d="M38.16,9.85a5.57,5.57,0,0,1-2.53,2.8,6.23,6.23,0,0,0-.83-.32c-3.16-1-7.2-.42-9,1.29a2.29,2.29,0,0,0,.1,3.72.52.52,0,0,1-.11.19,2.76,2.76,0,0,1-2.17.94c-2,.06-3.81-1.06-5.73-1.6-.31-1-1.43-2-3.19-2.52-3.15-1-7.2-.42-9,1.3a2.47,2.47,0,0,0-.9,1.8,23,23,0,0,1-4.1-2.66,2.48,2.48,0,0,1,.47-3.7c1.35-.81,3.47-.28,4.34-1.61.66-1,.05-2.34,0-3.55a3.67,3.67,0,0,1,4.72-3.31c1.34.5,2.29,1.78,3.65,2.2,2.14.67,4.25-1,5.93-2.45s3.94-3,6-2.11c2.43,1.05,3.19,5,5.84,5,1.15,0,2.14-.84,3.28-1a3.28,3.28,0,0,1,3.18,1.8A4.71,4.71,0,0,1,38.16,9.85Z"/><path class="o" d="M2.77,15.44c1.29-1.06,4.72-3.51,6.36-3.86,4.4-.92,9-.52,13.42-1.09a9.47,9.47,0,0,0,3.1-.81c.6-.29,1.13-.69,1.73-1a5.93,5.93,0,0,1,5.74.3"/><path class="p" d="M17.85,16.87a7.49,7.49,0,0,0-1.56-.27,10.75,10.75,0,0,0-3,.41,24.3,24.3,0,0,1-6.7,1,5.62,5.62,0,0,1-1.9-.54,2.47,2.47,0,0,1,.9-1.8c1.84-1.72,5.89-2.3,9-1.3C16.42,14.91,17.54,15.86,17.85,16.87Z"/><path class="p" d="M30.08,12.94a.74.74,0,0,1,0,.75,1.11,1.11,0,0,1-.68.32,4.15,4.15,0,0,0-2.51,1c-.56.65-.57,1.62-1,2.36a2.29,2.29,0,0,1-.1-3.72c1.84-1.71,5.88-2.29,9-1.29a6.23,6.23,0,0,1,.83.32A6.12,6.12,0,0,1,30.08,12.94Z"/></symbol></defs><rect class="r" x="76.31" y="14.42" width="711.01" height="412.72"/><use width="150.68" height="62.56" transform="translate(138.15 234.32) scale(1.34)" xlink:href="#a"/><use width="146.05" height="61.89" transform="translate(140.41 208.36) scale(1.34)" xlink:href="#b"/><use width="85.47" height="38.34" transform="translate(181.57 213.61) scale(1.34)" xlink:href="#c"/><use width="139.23" height="49.68" transform="translate(140.96 200.98) scale(1.34)" xlink:href="#d"/><use width="158.93" height="74.43" transform="translate(130.74 145.01) scale(1.34)" xlink:href="#h"/><rect class="s" x="90.76" y="32.31" width="679.97" height="371.71" rx="18.45"/><use width="146.05" height="61.89" transform="translate(433.85 163.87) scale(0.38)" xlink:href="#b"/><use width="30.43" height="12.89" transform="translate(433.85 328.27) scale(1.8)" xlink:href="#j"/><use width="34.59" height="12.44" transform="translate(428.04 246.47) scale(1.8)" xlink:href="#k"/><path class="q" d="M447.15,198.77c1.55,0,2.62.77,2.78,2h-1.16a1.5,1.5,0,0,0-1.62-1c-.88,0-1.56.44-1.56,1.1,0,.51.41.82,1.28,1l1.13.27c1.39.34,2.06.94,2.06,2,0,1.32-1.28,2.23-2.95,2.23s-2.77-.79-2.9-2h1.21a1.62,1.62,0,0,0,1.73,1c1,0,1.7-.47,1.7-1.15,0-.51-.38-.85-1.17-1l-1.26-.31c-1.38-.33-2-.93-2-2C444.41,199.69,445.59,198.77,447.15,198.77Z"/><path class="q" d="M453.5,197v1.91h1.65v1H453.5v4.17c0,.87.33,1.24,1.1,1.24a3.44,3.44,0,0,0,.55,0v1a4.11,4.11,0,0,1-.69.06c-1.52,0-2.13-.56-2.13-2v-4.48h-1.19v-1h1.19V197Z"/><path class="q" d="M462.88,204.36a2.94,2.94,0,0,1-3.11,2c-2,0-3.32-1.48-3.32-3.81s1.3-3.82,3.32-3.82,3.2,1.42,3.2,3.71v.45h-5.3v0c.07,1.46.88,2.38,2.13,2.38a1.91,1.91,0,0,0,1.9-1ZM457.67,202h4.07a2,2,0,0,0-2-2.17A2.1,2.1,0,0,0,457.67,202Z"/><path class="q" d="M464.38,204.21c0-1.32,1-2.08,2.69-2.19l2.12-.13v-.67c0-.9-.56-1.4-1.66-1.4-.89,0-1.5.33-1.67.91h-1.19c.16-1.18,1.32-2,2.9-2,1.79,0,2.8.92,2.8,2.45v5.05h-1.12v-1.09h-.11a2.55,2.55,0,0,1-2.27,1.22A2.24,2.24,0,0,1,464.38,204.21Zm4.81-.69v-.68l-2,.13c-1.12.08-1.61.47-1.61,1.21s.63,1.19,1.49,1.19A1.94,1.94,0,0,0,469.19,203.52Z"/><path class="q" d="M477.1,198.9h1.44l-3.17,3.16,3.38,4.21h-1.5l-2.76-3.45-.7.65v2.8h-1.18V196h1.18v6.15h.11Z"/><path class="q" d="M559.93,198.9h1.45l-3.18,3.16,3.39,4.21h-1.5l-2.76-3.45-.71.65v2.8h-1.17V196h1.17v6.15h.11Z"/><path class="q" d="M568.7,204.36a2.94,2.94,0,0,1-3.11,2c-2,0-3.32-1.48-3.32-3.81s1.3-3.82,3.32-3.82,3.2,1.42,3.2,3.71v.45H563.5v0c.06,1.46.87,2.38,2.12,2.38a1.91,1.91,0,0,0,1.9-1ZM563.5,202h4.06a2,2,0,0,0-2-2.17A2.09,2.09,0,0,0,563.5,202Z"/><path class="q" d="M572.31,197v1.91H574v1h-1.64v4.17c0,.87.32,1.24,1.09,1.24a3.44,3.44,0,0,0,.55,0v1a4.11,4.11,0,0,1-.69.06c-1.52,0-2.13-.56-2.13-2v-4.48h-1.19v-1h1.19V197Z"/><path class="q" d="M580.53,201.16a1.82,1.82,0,0,0-1.9-1.33c-1.33,0-2.16,1.06-2.16,2.73s.85,2.78,2.16,2.78a1.78,1.78,0,0,0,1.9-1.29h1.19a2.84,2.84,0,0,1-3.08,2.35c-2.07,0-3.39-1.5-3.39-3.84s1.32-3.79,3.38-3.79a2.89,2.89,0,0,1,3.09,2.39Z"/><path class="q" d="M583.52,196h1.18v4.09h.11a2.3,2.3,0,0,1,2.27-1.29,2.43,2.43,0,0,1,2.54,2.73v4.77h-1.17v-4.48c0-1.31-.59-2-1.71-2a1.9,1.9,0,0,0-2,2.08v4.36h-1.18Z"/><path class="q" d="M597.73,206.27h-1.12v-1.16h-.11a2.31,2.31,0,0,1-2.28,1.29c-1.66,0-2.52-1-2.52-2.73V198.9h1.18v4.48c0,1.33.49,2,1.66,2a1.86,1.86,0,0,0,2-2.07V198.9h1.18Z"/><path class="q" d="M606.63,202.58c0,2.31-1.22,3.82-3.1,3.82a2.47,2.47,0,0,1-2.3-1.24h-.11v3.57h-1.18V198.9h1.13v1.23h.1a2.67,2.67,0,0,1,2.36-1.36C605.41,198.77,606.63,200.27,606.63,202.58Zm-1.22,0c0-1.72-.8-2.75-2.15-2.75s-2.17,1.06-2.17,2.75.84,2.76,2.16,2.76S605.41,204.31,605.41,202.58Z"/><path class="q" d="M680.43,202.58c0-2.37,1.3-3.81,3.4-3.81s3.39,1.44,3.39,3.81-1.29,3.82-3.39,3.82S680.43,205,680.43,202.58Zm5.58,0c0-1.75-.79-2.75-2.18-2.75s-2.18,1-2.18,2.75.78,2.76,2.18,2.76S686,204.33,686,202.58Z"/><path class="q" d="M689.07,198.9h1.12v1.16h.11a2.22,2.22,0,0,1,2.22-1.29,2.4,2.4,0,0,1,2.57,2.73v4.77h-1.17v-4.48c0-1.33-.56-2-1.74-2a1.87,1.87,0,0,0-1.93,2.08v4.36h-1.18Z"/><path class="q" d="M697,196.66a.82.82,0,1,1,.82.82A.82.82,0,0,1,697,196.66Zm.24,2.24h1.17v7.37h-1.17Z"/><path class="q" d="M700.32,202.58c0-2.37,1.29-3.81,3.39-3.81s3.4,1.44,3.4,3.81-1.3,3.82-3.4,3.82S700.32,205,700.32,202.58Zm5.57,0c0-1.75-.78-2.75-2.18-2.75s-2.18,1-2.18,2.75.79,2.76,2.18,2.76S705.89,204.33,705.89,202.58Z"/><path class="q" d="M709,198.9h1.12v1.16h.11a2.21,2.21,0,0,1,2.21-1.29A2.4,2.4,0,0,1,715,201.5v4.77H713.8v-4.48c0-1.33-.56-2-1.73-2a1.87,1.87,0,0,0-1.94,2.08v4.36H709Z"/><path class="q" d="M719.7,198.77c1.55,0,2.62.77,2.78,2h-1.16a1.51,1.51,0,0,0-1.62-1c-.88,0-1.56.44-1.56,1.1,0,.51.41.82,1.28,1l1.13.27c1.39.34,2.06.94,2.06,2,0,1.32-1.28,2.23-3,2.23s-2.76-.79-2.89-2H718a1.62,1.62,0,0,0,1.73,1c1,0,1.7-.47,1.7-1.15,0-.51-.39-.85-1.17-1l-1.27-.31c-1.38-.33-2-.93-2-2C717,199.69,718.14,198.77,719.7,198.77Z"/><path class="q" d="M441.84,283.46a1.82,1.82,0,0,0-1.9-1.33c-1.32,0-2.16,1.06-2.16,2.73s.85,2.78,2.16,2.78a1.78,1.78,0,0,0,1.9-1.29H443A2.84,2.84,0,0,1,440,288.7c-2.06,0-3.38-1.5-3.38-3.84s1.31-3.79,3.37-3.79a2.89,2.89,0,0,1,3.09,2.39Z"/><path class="q" d="M444.84,278.27H446v4.09h.11a2.3,2.3,0,0,1,2.27-1.29,2.44,2.44,0,0,1,2.55,2.73v4.77h-1.18v-4.49c0-1.3-.59-1.95-1.7-1.95a1.9,1.9,0,0,0-2.05,2.08v4.36h-1.17Z"/><path class="q" d="M452.88,279a.82.82,0,1,1,.82.82A.82.82,0,0,1,452.88,279Zm.23,2.24h1.17v7.37h-1.17Z"/><path class="q" d="M461.43,283.46a1.82,1.82,0,0,0-1.9-1.33c-1.32,0-2.16,1.06-2.16,2.73s.85,2.78,2.16,2.78a1.76,1.76,0,0,0,1.9-1.29h1.19a2.84,2.84,0,0,1-3.08,2.35c-2.06,0-3.38-1.5-3.38-3.84s1.31-3.79,3.37-3.79a2.88,2.88,0,0,1,3.09,2.39Z"/><path class="q" d="M468.91,281.2h1.45l-3.18,3.16,3.39,4.21h-1.5l-2.76-3.45-.71.65v2.8h-1.17v-10.3h1.17v6.15h.11Z"/><path class="q" d="M477.68,286.66a3,3,0,0,1-3.11,2c-2,0-3.32-1.48-3.32-3.81s1.3-3.82,3.32-3.82,3.2,1.41,3.2,3.7v.46h-5.3v0c.07,1.46.88,2.38,2.13,2.38a1.91,1.91,0,0,0,1.9-1Zm-5.21-2.38h4.07a2,2,0,0,0-2-2.17A2.1,2.1,0,0,0,472.47,284.28Z"/><path class="q" d="M479.62,281.2h1.12v1.16h.11a2.22,2.22,0,0,1,2.21-1.29,2.4,2.4,0,0,1,2.58,2.73v4.77h-1.18v-4.49c0-1.32-.56-1.95-1.73-1.95a1.87,1.87,0,0,0-1.94,2.08v4.36h-1.17Z"/><path class="q" d="M564.31,281.2h1.12v1.16h.11a2.1,2.1,0,0,1,2.06-1.29,2.13,2.13,0,0,1,2,1.29h.11a2.45,2.45,0,0,1,2.25-1.29,2.15,2.15,0,0,1,2.35,2.41v5.09h-1.18v-4.82c0-1.09-.51-1.62-1.55-1.62a1.65,1.65,0,0,0-1.71,1.7v4.74h-1.17v-5a1.4,1.4,0,0,0-1.54-1.43,1.77,1.77,0,0,0-1.71,1.87v4.57h-1.18Z"/><path class="q" d="M576.06,286.5c0-1.32,1-2.07,2.68-2.18l2.13-.13v-.67c0-.91-.57-1.4-1.67-1.4-.88,0-1.5.33-1.66.91h-1.19c.16-1.18,1.32-2,2.89-2,1.8,0,2.8.92,2.8,2.45v5.05h-1.12v-1.09h-.11a2.53,2.53,0,0,1-2.27,1.22A2.24,2.24,0,0,1,576.06,286.5Zm4.81-.68v-.68l-2,.13c-1.12.08-1.62.47-1.62,1.21s.64,1.19,1.49,1.19A2,2,0,0,0,580.87,285.82Z"/><path class="q" d="M584.05,291.19v-1a2.58,2.58,0,0,0,.49,0c.68,0,1.05-.32,1.35-1.21l.14-.43-2.73-7.38h1.27l2,6.06h.11l2-6.06H590L587.1,289c-.63,1.71-1.22,2.21-2.53,2.21A3.12,3.12,0,0,1,584.05,291.19Z"/><path class="q" d="M590.9,284.88c0-2.37,1.3-3.81,3.4-3.81s3.4,1.44,3.4,3.81-1.3,3.82-3.4,3.82S590.9,287.25,590.9,284.88Zm5.58,0c0-1.75-.78-2.75-2.18-2.75s-2.18,1-2.18,2.75.79,2.76,2.18,2.76S596.48,286.63,596.48,284.88Z"/><path class="q" d="M680.33,283.46a1.82,1.82,0,0,0-1.9-1.33c-1.32,0-2.16,1.06-2.16,2.73s.85,2.78,2.16,2.78a1.77,1.77,0,0,0,1.9-1.29h1.19a2.84,2.84,0,0,1-3.08,2.35c-2.06,0-3.38-1.5-3.38-3.84s1.31-3.79,3.37-3.79a2.89,2.89,0,0,1,3.09,2.39Z"/><path class="q" d="M683.33,278.27h1.17v4.09h.11a2.3,2.3,0,0,1,2.27-1.29,2.44,2.44,0,0,1,2.55,2.73v4.77h-1.18v-4.49c0-1.3-.59-1.95-1.7-1.95a1.9,1.9,0,0,0-2,2.08v4.36h-1.17Z"/><path class="q" d="M697.63,286.66a2.94,2.94,0,0,1-3.1,2c-2,0-3.33-1.48-3.33-3.81s1.3-3.82,3.33-3.82,3.19,1.41,3.19,3.7v.46h-5.29v0c.06,1.46.87,2.38,2.12,2.38a1.9,1.9,0,0,0,1.9-1Zm-5.2-2.38h4.06a2,2,0,0,0-2-2.17A2.1,2.1,0,0,0,692.43,284.28Z"/><path class="q" d="M699.2,284.88c0-2.31,1.22-3.81,3.1-3.81a2.52,2.52,0,0,1,2.31,1.29h.1v-4.09h1.18v10.3h-1.12v-1.18h-.11a2.65,2.65,0,0,1-2.36,1.31C700.41,288.7,699.2,287.2,699.2,284.88Zm1.22,0c0,1.73.8,2.76,2.15,2.76s2.17-1.05,2.17-2.76-.84-2.75-2.17-2.75S700.42,283.17,700.42,284.88Z"/><path class="q" d="M707.8,284.88c0-2.31,1.22-3.81,3.1-3.81a2.52,2.52,0,0,1,2.31,1.29h.1v-4.09h1.18v10.3h-1.12v-1.18h-.11a2.65,2.65,0,0,1-2.36,1.31C709,288.7,707.8,287.2,707.8,284.88Zm1.22,0c0,1.73.8,2.76,2.15,2.76s2.17-1.05,2.17-2.76-.84-2.75-2.17-2.75S709,283.17,709,284.88Z"/><path class="q" d="M716.33,286.5c0-1.32,1-2.07,2.69-2.18l2.12-.13v-.67c0-.91-.56-1.4-1.66-1.4-.89,0-1.5.33-1.66.91h-1.19c.15-1.18,1.32-2,2.89-2,1.8,0,2.8.92,2.8,2.45v5.05H721.2v-1.09h-.11a2.55,2.55,0,0,1-2.27,1.22A2.24,2.24,0,0,1,716.33,286.5Zm4.81-.68v-.68l-2,.13c-1.12.08-1.61.47-1.61,1.21s.63,1.19,1.49,1.19A1.94,1.94,0,0,0,721.14,285.82Z"/><path class="q" d="M724.49,281.2h1.13v1.09h.1a2.07,2.07,0,0,1,2-1.22,5.28,5.28,0,0,1,.59,0v1.18a4.47,4.47,0,0,0-.76-.07,1.8,1.8,0,0,0-1.93,1.79v4.57h-1.18Z"/><path class="q" d="M449.17,364.72h-1.23v-1h1.23v-.82a1.91,1.91,0,0,1,2.14-2.17,4,4,0,0,1,.79.07v.95a4.22,4.22,0,0,0-.55,0c-.85,0-1.21.41-1.21,1.22v.78H452v1h-1.69v6.38h-1.17Z"/><path class="q" d="M453.54,361.49a.82.82,0,1,1,.82.82A.82.82,0,0,1,453.54,361.49Zm.23,2.24h1.17v7.37h-1.17Z"/><path class="q" d="M459.76,363.6c1.55,0,2.62.77,2.78,2h-1.16a1.5,1.5,0,0,0-1.62-1c-.88,0-1.56.45-1.56,1.1s.41.82,1.28,1l1.13.28c1.39.33,2.06.93,2.06,2,0,1.32-1.28,2.23-2.95,2.23s-2.77-.78-2.9-2H458a1.62,1.62,0,0,0,1.73,1c1,0,1.7-.47,1.7-1.15,0-.5-.38-.84-1.17-1l-1.26-.3c-1.39-.34-2-.93-2-2C457,364.53,458.2,363.6,459.76,363.6Z"/><path class="q" d="M464.58,360.81h1.18v4.09h.11a2.29,2.29,0,0,1,2.27-1.3,2.43,2.43,0,0,1,2.54,2.73v4.77H469.5v-4.48c0-1.31-.58-2-1.7-2a1.9,1.9,0,0,0-2,2.08v4.36h-1.18Z"/><path class="q" d="M550.49,369.93h-.11v1.17h-1.12V360.81h1.17v4.09h.11a2.53,2.53,0,0,1,2.31-1.3c1.87,0,3.09,1.5,3.09,3.82s-1.22,3.81-3.09,3.81A2.63,2.63,0,0,1,550.49,369.93Zm-.09-2.51c0,1.7.84,2.75,2.18,2.75s2.14-1,2.14-2.75-.8-2.76-2.14-2.76S550.4,365.72,550.4,367.42Z"/><path class="q" d="M557.35,369c0-1.32,1-2.08,2.69-2.18l2.12-.13v-.67c0-.91-.57-1.41-1.67-1.41-.88,0-1.49.33-1.66.92h-1.19c.16-1.19,1.32-2,2.9-2,1.79,0,2.8.93,2.8,2.46v5h-1.12V370h-.11a2.56,2.56,0,0,1-2.27,1.21A2.24,2.24,0,0,1,557.35,369Zm4.81-.69v-.67l-2,.13c-1.12.07-1.61.46-1.61,1.2s.63,1.19,1.49,1.19A1.93,1.93,0,0,0,562.16,368.35Z"/><path class="q" d="M565.51,363.73h1.12v1.1h.11a2.07,2.07,0,0,1,2-1.23,5,5,0,0,1,.58,0v1.17a6,6,0,0,0-.75-.06,1.8,1.8,0,0,0-1.93,1.79v4.56h-1.18Z"/><path class="q" d="M572.14,369.93H572v1.17h-1.12V360.81h1.18v4.09h.11a2.53,2.53,0,0,1,2.31-1.3c1.87,0,3.09,1.5,3.09,3.82s-1.23,3.81-3.09,3.81A2.65,2.65,0,0,1,572.14,369.93Zm-.08-2.51c0,1.7.83,2.75,2.17,2.75s2.15-1,2.15-2.75-.8-2.76-2.15-2.76S572.06,365.72,572.06,367.42Z"/><path class="q" d="M585.5,369.2a2.94,2.94,0,0,1-3.1,2c-2,0-3.33-1.47-3.33-3.81s1.3-3.82,3.33-3.82,3.2,1.42,3.2,3.71v.45h-5.3v.05c.06,1.46.87,2.38,2.12,2.38a1.91,1.91,0,0,0,1.9-1Zm-5.2-2.39h4.06a2,2,0,0,0-2-2.17A2.1,2.1,0,0,0,580.3,366.81Z"/><path class="q" d="M592.35,366a1.83,1.83,0,0,0-1.9-1.33c-1.33,0-2.16,1.06-2.16,2.73s.85,2.78,2.16,2.78a1.78,1.78,0,0,0,1.9-1.29h1.19a2.84,2.84,0,0,1-3.08,2.35c-2.07,0-3.39-1.49-3.39-3.84s1.31-3.79,3.38-3.79a2.9,2.9,0,0,1,3.09,2.39Z"/><path class="q" d="M601.24,371.1h-1.12V370H600a2.31,2.31,0,0,1-2.29,1.28c-1.65,0-2.51-1-2.51-2.73v-4.77h1.17v4.49c0,1.32.5,1.94,1.67,1.94a1.85,1.85,0,0,0,2-2.07v-4.36h1.18Z"/><path class="q" d="M609.51,369.2a3,3,0,0,1-3.11,2c-2,0-3.32-1.47-3.32-3.81s1.3-3.82,3.32-3.82,3.2,1.42,3.2,3.71v.45h-5.29v.05c.06,1.46.87,2.38,2.12,2.38a1.92,1.92,0,0,0,1.9-1Zm-5.2-2.39h4.06a2,2,0,0,0-2-2.17A2.09,2.09,0,0,0,604.31,366.81Z"/><path class="q" d="M686.14,363.6c1.55,0,2.62.77,2.78,2h-1.17a1.49,1.49,0,0,0-1.62-1c-.87,0-1.55.45-1.55,1.1s.41.82,1.27,1L687,367c1.39.33,2.06.93,2.06,2,0,1.32-1.28,2.23-3,2.23s-2.76-.78-2.89-2h1.21a1.61,1.61,0,0,0,1.72,1c1,0,1.71-.47,1.71-1.15,0-.5-.39-.84-1.17-1l-1.27-.3c-1.38-.34-2-.93-2-2C683.39,364.53,684.58,363.6,686.14,363.6Z"/><path class="q" d="M690.46,369c0-1.32,1-2.08,2.68-2.18l2.13-.13v-.67c0-.91-.57-1.41-1.67-1.41-.88,0-1.5.33-1.66.92h-1.19c.16-1.19,1.32-2,2.89-2,1.8,0,2.8.93,2.8,2.46v5h-1.12V370h-.11a2.55,2.55,0,0,1-2.27,1.21A2.23,2.23,0,0,1,690.46,369Zm4.81-.69v-.67l-2,.13c-1.13.07-1.62.46-1.62,1.2s.64,1.19,1.49,1.19A1.94,1.94,0,0,0,695.27,368.35Z"/><path class="q" d="M698.69,360.81h1.17V371.1h-1.17Z"/><path class="q" d="M701.71,369c0-1.32,1-2.08,2.68-2.18l2.13-.13v-.67c0-.91-.57-1.41-1.67-1.41-.88,0-1.5.33-1.66.92H702c.16-1.19,1.32-2,2.89-2,1.8,0,2.81.93,2.81,2.46v5h-1.13V370h-.11a2.53,2.53,0,0,1-2.26,1.21A2.24,2.24,0,0,1,701.71,369Zm4.81-.69v-.67l-2,.13c-1.12.07-1.62.46-1.62,1.2s.64,1.19,1.49,1.19A1.94,1.94,0,0,0,706.52,368.35Z"/><path class="q" d="M709.5,367.42c0-2.31,1.22-3.82,3.1-3.82a2.53,2.53,0,0,1,2.31,1.3h.1v-4.09h1.18V371.1h-1.13v-1.17H715a2.64,2.64,0,0,1-2.36,1.3C710.71,371.23,709.5,369.74,709.5,367.42Zm1.22,0c0,1.72.8,2.75,2.15,2.75s2.17-1.05,2.17-2.75-.84-2.76-2.17-2.76S710.72,365.7,710.72,367.42Z"/><use width="85.47" height="38.34" transform="translate(556.93 164.1) scale(0.53)" xlink:href="#c"/><use width="85.47" height="38.34" transform="translate(557.98 243.72) scale(0.53)" xlink:href="#m"/><use width="85.47" height="38.34" transform="translate(558.38 329.94) scale(0.53)" xlink:href="#n"/><use width="139.23" height="49.68" transform="translate(673.03 165.42) scale(0.38)" xlink:href="#d"/><use width="36.52" height="14.26" transform="translate(668.62 240.79) scale(1.8)" xlink:href="#s"/><use width="38.51" height="18.48" transform="translate(669.04 321.34) scale(1.8)" xlink:href="#t"/><rect class="q" x="534.04" y="109.01" width="96.45" height="24.57"/><path class="r" d="M560.44,124.29l1.72-.48a1.46,1.46,0,0,0,.49,1,1.69,1.69,0,0,0,1.19.41,1.36,1.36,0,0,0,.91-.28.83.83,0,0,0,.33-.68c0-.47-.32-.78-1-.91l-1.22-.28a2.93,2.93,0,0,1-1.65-.88,2.2,2.2,0,0,1-.58-1.53,2.47,2.47,0,0,1,.88-1.88,3.11,3.11,0,0,1,2.16-.79,4,4,0,0,1,1.45.24,2.5,2.5,0,0,1,1,.62,3.31,3.31,0,0,1,.53.74,2.06,2.06,0,0,1,.24.71l-1.67.48a1.54,1.54,0,0,0-.43-.86,1.47,1.47,0,0,0-1.1-.38,1.28,1.28,0,0,0-.85.28.87.87,0,0,0-.34.67q0,.69.84.87l1.25.25a3.29,3.29,0,0,1,1.77.92,2.27,2.27,0,0,1,.61,1.6,2.5,2.5,0,0,1-.82,1.84,3.15,3.15,0,0,1-2.3.81,4.31,4.31,0,0,1-1.53-.25,2.87,2.87,0,0,1-1.05-.66,3.73,3.73,0,0,1-.59-.8A1.87,1.87,0,0,1,560.44,124.29Z"/><path class="r" d="M568.31,124.29a2.19,2.19,0,0,1,.69-1.69,3.33,3.33,0,0,1,1.81-.81l2.12-.32c.41-.06.62-.26.62-.6a1.18,1.18,0,0,0-.39-.91,1.77,1.77,0,0,0-1.18-.34,1.66,1.66,0,0,0-1.19.41,1.72,1.72,0,0,0-.51,1.08l-1.8-.41a2.85,2.85,0,0,1,1.07-1.91A3.64,3.64,0,0,1,572,118a3.58,3.58,0,0,1,2.66.87,3,3,0,0,1,.86,2.23v4.11a6.82,6.82,0,0,0,.11,1.33h-1.84a4.08,4.08,0,0,1-.08-1.06,2.81,2.81,0,0,1-2.55,1.31,2.86,2.86,0,0,1-2-.74A2.37,2.37,0,0,1,568.31,124.29Zm3.18.95a2.15,2.15,0,0,0,1.49-.5,2.08,2.08,0,0,0,.57-1.64v-.37l-2.16.32c-.74.12-1.11.5-1.11,1.12a1,1,0,0,0,.32.76A1.24,1.24,0,0,0,571.49,125.24Z"/><path class="r" d="M583.12,125.62a2,2,0,0,1-1,.85,3.29,3.29,0,0,1-1.4.3,3,3,0,0,1-2.29-.93,3.41,3.41,0,0,1-.84-2.36v-5.22h2v4.86a2.18,2.18,0,0,0,.4,1.36,1.49,1.49,0,0,0,1.26.53,1.64,1.64,0,0,0,1.28-.51,1.92,1.92,0,0,0,.45-1.35v-4.89h2V125c0,.5,0,1,.08,1.52h-1.88A4.85,4.85,0,0,1,583.12,125.62Z"/><path class="r" d="M591.09,119.82a2.19,2.19,0,0,0-1.62.69,2.6,2.6,0,0,0-.66,1.88,2.65,2.65,0,0,0,.67,1.9,2.19,2.19,0,0,0,1.64.7,2,2,0,0,0,1.39-.47,2.3,2.3,0,0,0,.69-1.06l1.73.63a3.84,3.84,0,0,1-3.81,2.7,4.1,4.1,0,0,1-3-1.26,4.65,4.65,0,0,1,0-6.29,4.07,4.07,0,0,1,3-1.24,3.89,3.89,0,0,1,2.53.8,3.57,3.57,0,0,1,1.26,1.92l-1.76.65a2.35,2.35,0,0,0-.66-1.1A1.9,1.9,0,0,0,591.09,119.82Z"/><path class="r" d="M602.26,123.65l1.66.52a3.64,3.64,0,0,1-1.33,1.88,3.88,3.88,0,0,1-2.41.74,4.12,4.12,0,0,1-3-1.21,4.31,4.31,0,0,1-1.23-3.23,4.25,4.25,0,0,1,1.2-3.12,4.11,4.11,0,0,1,5.81-.06A4.45,4.45,0,0,1,604,122.3a2.29,2.29,0,0,1,0,.63h-6.06a2.22,2.22,0,0,0,2.26,2.16A2,2,0,0,0,602.26,123.65ZM598,121.49H602a1.92,1.92,0,0,0-.56-1.31,2,2,0,0,0-1.48-.53,1.91,1.91,0,0,0-1.43.55A2,2,0,0,0,598,121.49Z"/><rect class="q" x="411.16" y="109.01" width="96.97" height="24.57"/><path class="r" d="M442.33,129.77h-1.95V118.26h1.9v1.12a2.4,2.4,0,0,1,1-.94,3.33,3.33,0,0,1,1.61-.37,3.47,3.47,0,0,1,2.81,1.21,4.7,4.7,0,0,1,1,3.11,4.6,4.6,0,0,1-1.07,3.12,3.57,3.57,0,0,1-2.82,1.23,3.5,3.5,0,0,1-1.52-.32,2.59,2.59,0,0,1-1-.82Zm4.44-7.38a2.73,2.73,0,0,0-.62-1.86,2,2,0,0,0-1.61-.71,2.06,2.06,0,0,0-1.61.71,2.73,2.73,0,0,0-.62,1.86,2.77,2.77,0,0,0,.62,1.88,2.16,2.16,0,0,0,3.22,0A2.77,2.77,0,0,0,446.77,122.39Z"/><path class="r" d="M450.13,124.29a2.19,2.19,0,0,1,.69-1.69,3.33,3.33,0,0,1,1.81-.81l2.13-.32c.4-.06.61-.26.61-.6A1.18,1.18,0,0,0,455,120a1.73,1.73,0,0,0-1.18-.34,1.67,1.67,0,0,0-1.19.41,1.72,1.72,0,0,0-.51,1.08l-1.8-.41a2.85,2.85,0,0,1,1.07-1.91,3.65,3.65,0,0,1,2.42-.79,3.59,3.59,0,0,1,2.66.87,3,3,0,0,1,.86,2.23v4.11a6.93,6.93,0,0,0,.1,1.33h-1.84a4.6,4.6,0,0,1-.08-1.06,3.14,3.14,0,0,1-4.58.57A2.34,2.34,0,0,1,450.13,124.29Zm3.18.95a2.15,2.15,0,0,0,1.49-.5,2.08,2.08,0,0,0,.57-1.64v-.37l-2.16.32c-.74.12-1.11.5-1.11,1.12a1,1,0,0,0,.33.76A1.2,1.2,0,0,0,453.31,125.24Z"/><path class="r" d="M462.15,115.72v2.54h1.72V120h-1.72v3.84a1.06,1.06,0,0,0,.26.79,1.13,1.13,0,0,0,.8.25,3.81,3.81,0,0,0,.67-.07v1.63a3.2,3.2,0,0,1-1.2.19,2.46,2.46,0,0,1-1.82-.66,2.43,2.43,0,0,1-.66-1.81V120h-1.53v-1.75h.42a1.2,1.2,0,0,0,1-.36,1.33,1.33,0,0,0,.33-.94v-1.24Z"/><path class="r" d="M468.36,115.72v2.54h1.71V120h-1.71v3.84a1.06,1.06,0,0,0,.25.79,1.14,1.14,0,0,0,.8.25,3.92,3.92,0,0,0,.68-.07v1.63a3.29,3.29,0,0,1-1.21.19,2.48,2.48,0,0,1-1.82-.66,2.43,2.43,0,0,1-.66-1.81V120h-1.53v-1.75h.43a1.23,1.23,0,0,0,.95-.36,1.37,1.37,0,0,0,.32-.94v-1.24Z"/><path class="r" d="M474.75,129.88h-2.11l2-4.33-3.54-7.29h2.23l2.38,5.23,2.23-5.23H480Z"/><rect class="q" x="654.73" y="109.01" width="97.98" height="24.57"/><path class="r" d="M677.09,115.72v2.54h1.72V120h-1.72v3.84a1.06,1.06,0,0,0,.26.79,1.13,1.13,0,0,0,.8.25,4,4,0,0,0,.68-.07v1.63a3.29,3.29,0,0,1-1.21.19,2.46,2.46,0,0,1-1.82-.66,2.43,2.43,0,0,1-.66-1.81V120h-1.53v-1.75H674a1.2,1.2,0,0,0,1-.36,1.33,1.33,0,0,0,.33-.94v-1.24Z"/><path class="r" d="M684.38,118a4.17,4.17,0,0,1,3.09,1.24,4.68,4.68,0,0,1,0,6.3,4.41,4.41,0,0,1-6.15,0,4.68,4.68,0,0,1,0-6.3A4.13,4.13,0,0,1,684.38,118Zm-1.64,6.32a2.19,2.19,0,0,0,1.64.7,2.22,2.22,0,0,0,1.65-.69,2.74,2.74,0,0,0,.67-1.94,2.67,2.67,0,0,0-.67-1.92,2.33,2.33,0,0,0-3.29,0,2.67,2.67,0,0,0-.67,1.92A2.73,2.73,0,0,0,682.74,124.32Z"/><path class="r" d="M692.54,129.77h-1.95V118.26h1.9v1.12a2.53,2.53,0,0,1,1-.94,3.4,3.4,0,0,1,1.62-.37,3.45,3.45,0,0,1,2.8,1.21,4.7,4.7,0,0,1,1,3.11,4.55,4.55,0,0,1-1.07,3.12,3.55,3.55,0,0,1-2.82,1.23,3.46,3.46,0,0,1-1.51-.32,2.62,2.62,0,0,1-1-.82Zm4.44-7.38a2.73,2.73,0,0,0-.61-1.86,2.18,2.18,0,0,0-3.22,0,2.68,2.68,0,0,0-.62,1.86,2.72,2.72,0,0,0,.62,1.88,2.15,2.15,0,0,0,3.21,0A2.77,2.77,0,0,0,697,122.39Z"/><path class="r" d="M702.81,129.77h-1.95V118.26h1.9v1.12a2.53,2.53,0,0,1,1-.94,3.37,3.37,0,0,1,1.62-.37,3.45,3.45,0,0,1,2.8,1.21,4.7,4.7,0,0,1,1,3.11,4.6,4.6,0,0,1-1.07,3.12,3.55,3.55,0,0,1-2.82,1.23,3.46,3.46,0,0,1-1.51-.32,2.55,2.55,0,0,1-1-.82Zm4.44-7.38a2.78,2.78,0,0,0-.61-1.86,2,2,0,0,0-1.62-.71,2,2,0,0,0-1.6.71,2.69,2.69,0,0,0-.63,1.86,2.72,2.72,0,0,0,.63,1.88,2,2,0,0,0,1.6.72,2,2,0,0,0,1.61-.72A2.77,2.77,0,0,0,707.25,122.39Z"/><path class="r" d="M711.19,116.25a1.22,1.22,0,0,1-.37-.9,1.25,1.25,0,0,1,.37-.91,1.19,1.19,0,0,1,.9-.38,1.24,1.24,0,0,1,.92.37,1.26,1.26,0,0,1,.38.92,1.29,1.29,0,0,1-2.2.9Zm1.89,10.29h-2v-8.28h2Z"/><path class="r" d="M717.6,121.76v4.78h-2v-8.28h1.92v1.1a2.49,2.49,0,0,1,1.05-1A3,3,0,0,1,720,118a2.72,2.72,0,0,1,2.23.92,3.56,3.56,0,0,1,.76,2.36v5.24h-2v-4.9a2.08,2.08,0,0,0-.41-1.34,1.57,1.57,0,0,0-1.29-.5,1.54,1.54,0,0,0-1.27.56A2.12,2.12,0,0,0,717.6,121.76Z"/><path class="r" d="M724.79,127l1.82-.47a2,2,0,0,0,.67,1.28,2,2,0,0,0,1.41.5c1.56,0,2.34-.82,2.34-2.48V125a2.16,2.16,0,0,1-.92.87,3,3,0,0,1-1.48.34,3.61,3.61,0,0,1-2.74-1.14,4,4,0,0,1-1.08-2.89,4.09,4.09,0,0,1,1.07-2.85,3.53,3.53,0,0,1,2.75-1.18,2.5,2.5,0,0,1,2.45,1.21v-1H733v7.49a4.53,4.53,0,0,1-1,3.05,4,4,0,0,1-3.21,1.22,4.18,4.18,0,0,1-2.69-.87A3.24,3.24,0,0,1,724.79,127Zm4.17-2.51a2,2,0,0,0,1.54-.64,2.76,2.76,0,0,0,0-3.4,2,2,0,0,0-1.53-.64,2.06,2.06,0,0,0-1.56.64,2.38,2.38,0,0,0-.6,1.69,2.42,2.42,0,0,0,.59,1.71A2,2,0,0,0,729,124.48Z"/><line class="t" x1="520.46" y1="156.87" x2="520.46" y2="376.4"/><line class="t" x1="642.81" y1="156.87" x2="642.81" y2="376.4"/><path class="q" d="M500,73.14h-2.4v5.61h-3.48V63.15H500a5.38,5.38,0,0,1,3.86,1.41,5.11,5.11,0,0,1,0,7.19A5.41,5.41,0,0,1,500,73.14Zm-2.38-3h2a2.33,2.33,0,0,0,1.6-.54,1.82,1.82,0,0,0,.62-1.44,1.85,1.85,0,0,0-.61-1.47,2.32,2.32,0,0,0-1.61-.54h-2Z"/><path class="q" d="M507.67,65.86a2,2,0,0,1,0-2.78,1.85,1.85,0,0,1,1.36-.57,1.94,1.94,0,0,1,1.4.57,2,2,0,0,1,0,2.78,1.94,1.94,0,0,1-1.4.57A1.85,1.85,0,0,1,507.67,65.86Zm3.05,12.89h-3.34V67.81h3.34Z"/><path class="q" d="M518.69,70.56a2.41,2.41,0,0,0-1.79.73,2.71,2.71,0,0,0-.72,2,2.65,2.65,0,0,0,.74,2,2.45,2.45,0,0,0,1.81.73,2.33,2.33,0,0,0,1.49-.47,2.27,2.27,0,0,0,.78-1.16l3,.9A5.07,5.07,0,0,1,522.17,78a5.29,5.29,0,0,1-3.44,1.12,5.81,5.81,0,0,1-4.17-1.64,5.53,5.53,0,0,1-1.7-4.15,5.64,5.64,0,0,1,5.76-5.81,5.43,5.43,0,0,1,3.5,1.1,4.94,4.94,0,0,1,1.76,2.71l-3,.9a2.22,2.22,0,0,0-.75-1.16A2.18,2.18,0,0,0,518.69,70.56Z"/><path class="q" d="M537,67.81l-4.27,4.6,4.36,6.34H533l-2.58-3.85-1.07,1.16v2.69H526V62.82h3.35v8.67l3.32-3.68Z"/><path class="q" d="M549.09,67.48a5.72,5.72,0,0,1,4.15,1.63,6.06,6.06,0,0,1,0,8.33,6,6,0,0,1-8.28,0,6,6,0,0,1,0-8.31A5.67,5.67,0,0,1,549.09,67.48Zm0,8.52a2.41,2.41,0,0,0,1.75-.71,3.18,3.18,0,0,0,0-4,2.51,2.51,0,0,0-3.49,0,3.15,3.15,0,0,0,0,4A2.4,2.4,0,0,0,549.09,76Z"/><path class="q" d="M560.4,72.48v6.27h-3.35V67.81h3.24v1.26a2.76,2.76,0,0,1,1.29-1.13,4,4,0,0,1,1.77-.41,3.66,3.66,0,0,1,3,1.22,4.76,4.76,0,0,1,1,3.13v6.87H564V72.46a2,2,0,0,0-.46-1.38,1.91,1.91,0,0,0-2.64,0A2,2,0,0,0,560.4,72.48Z"/><path class="q" d="M577.29,74.81l2.8.79a4.56,4.56,0,0,1-1.74,2.5,5.41,5.41,0,0,1-3.3,1,5.92,5.92,0,0,1-4.08-10,5.28,5.28,0,0,1,3.84-1.61,5.36,5.36,0,0,1,4,1.49,5.6,5.6,0,0,1,1.47,4.12,4.79,4.79,0,0,1-.07,1h-7.61a2,2,0,0,0,.77,1.51,2.59,2.59,0,0,0,1.71.6A2.09,2.09,0,0,0,577.29,74.81ZM572.67,72h4.38a2,2,0,0,0-.58-1.3,2.2,2.2,0,0,0-1.62-.55,2.1,2.1,0,0,0-1.54.58A2.07,2.07,0,0,0,572.67,72Z"/><path class="q" d="M592.87,67.48A5.72,5.72,0,0,1,597,69.11a6.06,6.06,0,0,1,0,8.33,6,6,0,0,1-8.29,0,6,6,0,0,1,0-8.31A5.71,5.71,0,0,1,592.87,67.48Zm0,8.52a2.41,2.41,0,0,0,1.75-.71,3.21,3.21,0,0,0,0-4,2.51,2.51,0,0,0-3.49,0,3.15,3.15,0,0,0,0,4A2.4,2.4,0,0,0,592.87,76Z"/><path class="q" d="M607.06,70.63h-2.38v8.12h-3.34V70.63H599.6V67.81h1.74v-.94a4.24,4.24,0,0,1,1.11-3.07,4.06,4.06,0,0,1,3.07-1.16,3.76,3.76,0,0,1,1.58.25v2.72a4.22,4.22,0,0,0-1-.11,1.6,1.6,0,0,0-1,.33,1.39,1.39,0,0,0-.43,1.15v.83h2.38Z"/><path class="q" d="M621.38,74.81l2.8.79a4.56,4.56,0,0,1-1.74,2.5,5.41,5.41,0,0,1-3.3,1,5.62,5.62,0,0,1-4-1.59,6.2,6.2,0,0,1,0-8.4,5.24,5.24,0,0,1,3.84-1.61,5.36,5.36,0,0,1,4,1.49,5.59,5.59,0,0,1,1.46,4.12,5.08,5.08,0,0,1-.06,1H616.7a2,2,0,0,0,.77,1.51,2.59,2.59,0,0,0,1.71.6A2.1,2.1,0,0,0,621.38,74.81ZM616.76,72h4.38a2,2,0,0,0-.58-1.3,2.2,2.2,0,0,0-1.62-.55A2.11,2.11,0,0,0,616.76,72Z"/><path class="q" d="M625.87,75.73a2.93,2.93,0,0,1,.9-2.23,4.31,4.31,0,0,1,2.33-1.07l2.58-.39c.53-.07.79-.32.79-.75a1,1,0,0,0-.43-.85,1.9,1.9,0,0,0-1.18-.34,1.84,1.84,0,0,0-1.33.48,1.66,1.66,0,0,0-.54,1.13l-2.9-.6a3.74,3.74,0,0,1,1.35-2.49,4.92,4.92,0,0,1,3.45-1.14,5,5,0,0,1,3.66,1.19,4.16,4.16,0,0,1,1.18,3v5.34a8.83,8.83,0,0,0,.13,1.7h-3a5.55,5.55,0,0,1-.11-1.23,3.34,3.34,0,0,1-3.08,1.54,3.85,3.85,0,0,1-2.76-1A3.14,3.14,0,0,1,625.87,75.73Zm4.6.91a2.07,2.07,0,0,0,1.43-.51,2.13,2.13,0,0,0,.57-1.67V74l-2.07.33c-.82.14-1.23.54-1.23,1.21a1.13,1.13,0,0,0,.32.8A1.3,1.3,0,0,0,630.47,76.64Z"/><path class="q" d="M643.51,70.56a2.43,2.43,0,0,0-1.79.73,2.7,2.7,0,0,0-.71,2,2.64,2.64,0,0,0,.73,2,2.47,2.47,0,0,0,1.82.73,2.3,2.3,0,0,0,1.48-.47,2.27,2.27,0,0,0,.78-1.16l2.95.9A5,5,0,0,1,647,78a5.31,5.31,0,0,1-3.44,1.12,5.81,5.81,0,0,1-4.17-1.64,5.5,5.5,0,0,1-1.71-4.15,5.64,5.64,0,0,1,5.77-5.81,5.43,5.43,0,0,1,3.5,1.1,5,5,0,0,1,1.76,2.71l-3,.9A2.26,2.26,0,0,0,645,71,2.19,2.19,0,0,0,643.51,70.56Z"/><path class="q" d="M654.16,72.32v6.43h-3.34V62.82h3.34v5.7a3.78,3.78,0,0,1,2.8-1,3.86,3.86,0,0,1,3.09,1.22,4.67,4.67,0,0,1,1,3.13v6.87h-3.34V72.46a2,2,0,0,0-.45-1.38,1.69,1.69,0,0,0-1.33-.52,1.72,1.72,0,0,0-1.27.5A1.87,1.87,0,0,0,654.16,72.32Z"/><path class="q" d="M668.24,63.15l-.77,10.71H665l-.77-10.71Zm-3.92,13.93a1.88,1.88,0,0,1,.56-1.36,1.8,1.8,0,0,1,1.34-.56,1.86,1.86,0,0,1,1.35.56,1.88,1.88,0,0,1,.56,1.36A1.91,1.91,0,0,1,666.22,79a1.8,1.8,0,0,1-1.34-.56A1.85,1.85,0,0,1,664.32,77.08Z"/><path class="q" d="M515.42,119.81h3.79v-3.9h2.57v3.9h3.77v2.48h-3.77v3.9h-2.57v-3.9h-3.79Z"/><path class="q" d="M637.74,119.81h3.8v-3.9h2.56v3.9h3.78v2.48H644.1v3.9h-2.56v-3.9h-3.8Z"/></svg>