<svg xmlns="http://www.w3.org/2000/svg" xmlns:xlink="http://www.w3.org/1999/xlink" viewBox="0 0 900 350"><defs><style>.a{fill:#c29644;}.b{fill:#fec75e;}.c,.o{fill:#4b4b4b;}.c{opacity:0.2;mix-blend-mode:multiply;}.d,.e,.l,.q{fill:none;}.d{stroke:#fff;}.d,.e,.q{stroke-miterlimit:10;}.e{stroke:#741a14;}.f{fill:#ed2627;}.g{fill:#fddfe0;opacity:0.8;}.h{fill:#cd362c;}.i{fill:#f1e5ce;}.j{fill:#fef6ea;}.k{fill:#741a14;}.m{fill:#a92b22;}.n{fill:#fff;}.p{fill:#7e73ff;}.q{stroke:#eae9e9;stroke-width:3px;}.r{fill:#eae9e9;}.s{fill:#6057c2;}.t{fill:#130d0d;}</style><symbol id="a" viewBox="0 0 85.47 38.34"><path class="f" d="M85.47,29.47c0,3.41-7.75,6.37-19.12,7.85,2.36-1,3.69-2.24,3.69-3.5C70,29.5,54.52,26,35.37,26,20.29,26,7.45,28.17,2.68,31.21A8.39,8.39,0,0,1,0,25.35C0,21,4.13,17.14,10.27,15.06c.38-2.24,4.57-4.1,10.2-4.69C22.53,4.43,30.47,0,40,0S57.21,4.34,59.36,10.18h.92c7.77,0,14.07,2.34,14.07,5.22a.66.66,0,0,1,0,.14c6.46,1,11.13,4,11.13,7.57a5.07,5.07,0,0,1-1.76,3.62A3.62,3.62,0,0,1,85.47,29.47Z"/><ellipse class="g" cx="62.69" cy="15.7" rx="7.5" ry="3.47"/><ellipse class="g" cx="78.36" cy="19.95" rx="2.92" ry="1.35"/><ellipse class="g" cx="39.35" cy="2.84" rx="6.1" ry="2.84"/><path class="h" d="M70,33.82c0,1.26-1.33,2.45-3.69,3.5a128.53,128.53,0,0,1-16.54,1,119.26,119.26,0,0,1-21.55-1.81,34.81,34.81,0,0,1-7.38.77c-7.81,0-14.62-2.46-18.2-6.09C7.45,28.17,20.29,26,35.37,26,54.52,26,70,29.5,70,33.82Z"/></symbol><symbol id="c" viewBox="0 0 155.19 57.24"><path class="i" d="M155.18,25.61c0,4.39-3.39,8.84-10.56,12.9C123,50.73,75.53,54.86,38.52,47.74,13.82,43,0,34.42,0,25.61H0v6H0C0,40.44,13.82,49,38.52,53.75c37,7.13,84.52,3,106.1-9.22,7.17-4.06,10.58-8.51,10.56-12.9h0v-6Z"/><path class="j" d="M116.67,3.49c-37-7.12-84.52-3-106.1,9.23C3.4,16.78,0,21.22,0,25.61v.19a3.52,3.52,0,0,0,.05.64c0,.13,0,.27.05.41a9.11,9.11,0,0,0,.4,1.64l.05.11a1.42,1.42,0,0,0,.1.29c.06.14.11.28.17.41s.13.27.19.41.13.26.2.38,0,0,0,0c.15.27.31.54.47.8a0,0,0,0,0,0,0c.09.13.17.26.27.39a12.28,12.28,0,0,0,.9,1.18l0,0c.21.25.44.51.68.77l0,0c.12.13.25.25.38.38l.82.78.44.38.46.39c.31.25.63.5,1,.75l.23.17,0,0,.6.43c.78.54,1.61,1.07,2.5,1.59l.58.33.43.24.35.2c.11.06.22.13.35.19l.88.45,1.13.56.85.4c.53.25,1.09.49,1.65.73l.78.33,1.63.65,1.51.56c.55.2,1.1.4,1.67.59l.85.28.87.29.15,0h0l.71.22.9.28.92.27,1.5.43,1,.26,1,.28.88.22.41.1c.62.16,1.24.31,1.87.45l2,.45,1.32.28,1.14.22,1.15.23q4.27.83,8.73,1.45c1.3.19,2.62.36,4,.52,1.82.22,3.67.41,5.52.58l1.8.16c1.1.1,2.2.18,3.31.25,1.27.09,2.55.17,3.83.23s2.55.13,3.83.17c3.93.14,7.87.17,11.79.11l1.25,0c1,0,2,0,3-.08l2-.07.27,0c.75,0,1.5-.06,2.25-.11l2.39-.14.91-.06,1.77-.12,1.59-.13,1.39-.12.81-.08,1.08-.11c.37,0,.73-.06,1.09-.11l.37,0,1.65-.18c1.11-.13,2.22-.27,3.32-.42l1.06-.14.4,0L109,49c.88-.13,1.74-.26,2.61-.41l1-.16.32-.06,1.66-.28,1.77-.33c1.8-.34,3.55-.71,5.27-1.09l1.45-.34c2.09-.5,4.12-1,6.06-1.61l1.73-.52.5-.16h0l.73-.23c1.94-.63,3.79-1.31,5.54-2l.75-.31.25-.1,1.57-.69.33-.15c.77-.35,1.53-.72,2.25-1.09l.82-.43,1-.53c.85-.48,1.64-1,2.39-1.46l.44-.3.43-.29.41-.3a23.9,23.9,0,0,0,3.22-2.75c.26-.27.51-.54.74-.81s.45-.54.65-.81.21-.27.3-.41.19-.27.27-.41a4.53,4.53,0,0,0,.26-.4c.08-.14.16-.27.23-.42s.29-.54.41-.81.11-.28.17-.41.07-.2.11-.29,0-.08,0-.13.09-.27.13-.41a5.09,5.09,0,0,0,.19-.77s0,0,0-.06l.06-.4.06-.41a7.5,7.5,0,0,0,0-.82v0C155.16,16.81,141.37,8.24,116.67,3.49Zm26,25.15a11.32,11.32,0,0,1-2,3.12,24.07,24.07,0,0,1-5.61,4.4l-.66.38c-18.27,10.34-58.49,13.83-89.83,7.8-10.57-2-18.79-4.89-24.32-8.18a23.71,23.71,0,0,1-5.6-4.41,11.43,11.43,0,0,1-2.06-3.15c-2-4.65.6-9.54,8.32-13.91.92-.52,1.9-1,2.94-1.52C43.17,4,80.92,1.16,110.68,6.88a88.84,88.84,0,0,1,20.76,6.31h0C140.92,17.67,145,23.21,142.66,28.64Z"/><path class="i" d="M142.66,28.64c-2.7-6.36-13.88-12.25-32-15.74-31.34-6-71.56-2.53-89.83,7.81-4.43,2.51-7.16,5.19-8.32,7.89-2-4.65.6-9.54,8.32-13.91.92-.52,1.9-1,2.94-1.52C43.17,4,80.92,1.16,110.68,6.88a88.84,88.84,0,0,1,20.76,6.31h0C140.92,17.67,145,23.21,142.66,28.64Z"/></symbol><symbol id="b" viewBox="0 0 139.22 49.68"><use width="155.19" height="57.24" transform="matrix(0.58, -0.08, 0.08, 0.58, -2.1, 7.89)" xlink:href="#c"/><use width="155.19" height="57.24" transform="translate(51.21 -4.4) rotate(7.56) scale(0.58)" xlink:href="#c"/><use width="155.19" height="57.24" transform="translate(24.92 18.15) rotate(-2.59) scale(0.58)" xlink:href="#c"/></symbol><symbol id="f" viewBox="0 0 158.93 74.43"><path class="b" d="M145.63,26.05C125.89,6.06,103.49.57,80.85,0V0H78.08V0c-22.64.53-45,6-64.78,26C8.59,30.82,0,44.27,0,47.68c0,9.2,14.42,18.14,40.22,23.11A216.35,216.35,0,0,0,78.08,74.4v0h2.77v0a216.35,216.35,0,0,0,37.86-3.61c25.8-5,40.2-13.91,40.22-23.11C158.93,44.27,150.34,30.82,145.63,26.05Z"/><path class="n" d="M49.82,11.12c.37,1.64-.32,2.87-1.39,2.87S46.7,12.73,47,11.12c.31-1.46.8-2.74,1.39-2.74S49.49,9.67,49.82,11.12Z"/><path class="n" d="M36,15.69C36,14,37,13,38,13.21s1.41,1.61.71,3.1-1.38,2.5-2,2.37S36,17.19,36,15.69Z"/><path class="n" d="M34.39,23c1.57-.58,2.88,0,3,1s-1,1.88-2.66,1.74-2.82-.44-2.9-1S33,23.48,34.39,23Z"/><path class="n" d="M51.63,24.06c.52,1.59-.06,2.88-1.12,3s-1.84-1.1-1.64-2.72.54-2.81,1.14-2.86S51.17,22.64,51.63,24.06Z"/><path class="n" d="M54.79,17.7c.33-1.65,1.46-2.49,2.44-2s1.07,1.86.1,3.18S55.49,21,54.94,20.77,54.5,19.16,54.79,17.7Z"/><path class="n" d="M106.24,23.87c.72,1.53.31,2.87-.73,3.1s-2-.86-2-2.5c0-1.49.19-2.85.77-3S105.61,22.52,106.24,23.87Z"/><path class="n" d="M86.05,27.4c-.23,1.67-1.31,2.57-2.31,2.2s-1.17-1.8-.29-3.17,1.71-2.29,2.27-2.08S86.26,25.93,86.05,27.4Z"/><path class="n" d="M115.54,15.39c.44-1.63,1.62-2.39,2.57-1.89s.94,1.93-.11,3.18-2,2.06-2.51,1.78S115.16,16.83,115.54,15.39Z"/><path class="n" d="M103.54,16c1.09-1.28,2.49-1.46,3.13-.61s0,2.15-1.47,2.83-2.67,1-3,.53S102.57,17.1,103.54,16Z"/><path class="n" d="M117.69,28.19c.49-1.61,1.7-2.33,2.63-1.8s.88,2-.22,3.18-2,2-2.57,1.69S117.26,29.62,117.69,28.19Z"/><path class="n" d="M104.94,10.42c1.33,1,1.56,2.43.74,3.1s-2.15.12-2.89-1.34-1.11-2.63-.65-3S103.77,9.5,104.94,10.42Z"/><path class="n" d="M110.19,17.81c.71,1.52.29,2.86-.75,3.09s-2-.86-2-2.5.2-2.85.78-3S109.55,16.45,110.19,17.81Z"/><path class="n" d="M73.16,14.15c.53,1.59,0,2.88-1.1,3s-1.85-1.09-1.66-2.72c.16-1.48.51-2.8,1.11-2.86S72.69,12.73,73.16,14.15Z"/><path class="n" d="M88.15,13.11c1.56-.62,2.88-.13,3,.92s-1,1.91-2.62,1.82c-1.49-.08-2.83-.35-2.92-.94S86.76,13.67,88.15,13.11Z"/><path class="n" d="M80,19.52c.57,1.58,0,2.88-1,3s-1.87-1-1.74-2.67.45-2.82,1-2.9S79.51,18.12,80,19.52Z"/><path class="n" d="M68.94,28.84c-.28-1.66.48-2.85,1.54-2.79s1.66,1.36,1.23,2.94-.94,2.69-1.54,2.66S69.19,30.31,68.94,28.84Z"/><path class="n" d="M132.18,23.16c1.38,1,1.68,2.34.89,3.05s-2.13.23-2.95-1.19-1.25-2.57-.8-3S131,22.3,132.18,23.16Z"/><path class="n" d="M28.82,18.3c1.58-.58,2.89-.05,3,1s-1,1.88-2.66,1.74-2.82-.43-2.9-1S27.42,18.81,28.82,18.3Z"/><path class="n" d="M22.92,25.8c.12-1.67,1.14-2.64,2.16-2.33s1.29,1.71.49,3.14S24,29,23.44,28.83,22.81,27.29,22.92,25.8Z"/><path class="n" d="M122.43,18.73c-.63,1.55-1.9,2.17-2.77,1.56s-.71-2,.49-3.15,2.22-1.8,2.71-1.46S123,17.34,122.43,18.73Z"/><path class="n" d="M94.7,23.05c1.53-.69,2.87-.26,3.08.79s-.89,1.95-2.53,1.93c-1.49,0-2.84-.22-3-.81S93.34,23.67,94.7,23.05Z"/><path class="c" d="M36,69.92C12.87,64.83,0,56.37,0,47.68c0-3.41,8.59-16.86,13.3-21.63C32.44,6.66,54.09.92,76,.1,62.31,4.87,33.93,31.83,36,69.92Z"/><path class="n" d="M119.67,8.82c1.66-.29,2.85.46,2.8,1.53s-1.35,1.66-2.94,1.24c-1.44-.39-2.7-.93-2.67-1.53S118.2,9.07,119.67,8.82Z"/><path class="n" d="M94.66,3.49c1.67.23,2.58,1.3,2.21,2.3S95.08,7,93.7,6.09s-2.3-1.7-2.09-2.26S93.18,3.29,94.66,3.49Z"/><path class="n" d="M77.58,6.76c0-1.68,1-2.71,2-2.45S81,6,80.28,7.42s-1.43,2.48-2,2.33S77.55,8.25,77.58,6.76Z"/><path class="n" d="M64.6,5.06c1,1.39.78,2.78-.22,3.18S62.31,7.72,62,6.1c-.26-1.47-.29-2.84.26-3.06S63.75,3.84,64.6,5.06Z"/><path class="n" d="M92.17,7.94c1.64.39,2.43,1.55,2,2.51s-1.9,1-3.18,0S88.84,8.51,89.1,8,90.72,7.6,92.17,7.94Z"/><path class="n" d="M71.05,5.34c1.55.66,2.14,1.94,1.51,2.81s-2,.66-3.13-.55S67.67,5.35,68,4.86,69.68,4.76,71.05,5.34Z"/></symbol><symbol id="g" viewBox="0 0 150.68 62.56"><path class="a" d="M150.66,25.43a47.39,47.39,0,0,1-1.69,10c-1.55,5.67-6.17,10.33-7,11.14a25.48,25.48,0,0,1-4.86,3.78l-.3.19c-.33.19-.66.39-1,.58l-.17.1c-.18.1-.35.2-.54.29-.37.21-.76.41-1.15.62l-.61.29-1,.47-.71.33-1.27.55-.5.21c-.54.22-1.08.44-1.63.64l-.4.16-1.87.67-.2.07a118.48,118.48,0,0,1-18.09,4.46l-.29.05-.68.11a192,192,0,0,1-30,2.45H73.93A191.82,191.82,0,0,1,44,60.1L43.3,60l-.3-.05a119.07,119.07,0,0,1-18.09-4.46l-.2-.07-1.87-.67-.4-.16c-.55-.2-1.09-.42-1.63-.64l-.5-.21-1.26-.55-.72-.33-1-.47-.61-.29-1.16-.62-.53-.29-.18-.1-1-.58-.31-.19A25.8,25.8,0,0,1,8.7,46.53c-.83-.81-5.45-5.47-7-11.14A46.64,46.64,0,0,1,0,25.46C.64,33.8,14,41.85,37.4,46.35c35.94,6.92,82.06,2.91,103-9C147.07,33.62,150.39,29.52,150.66,25.43Z"/><path class="b" d="M150.68,24.87c0,.14,0,.29,0,.43s0,.09,0,.13c-.27,4.09-3.59,8.19-10.25,12-21,11.86-67.07,15.87-103,9C14,41.85.64,33.8,0,25.46a.86.86,0,0,1,0-.16v-.13c0-.19,0-.3,0-.3H0C0,20.6,3.3,16.29,10.26,12.35c21-11.87,67.07-15.88,103-9C137.26,8,150.65,16.32,150.68,24.87Z"/><ellipse class="c" cx="73.42" cy="21.71" rx="56.43" ry="17.74"/><path class="c" d="M49.37,48.89v12q-2.73-.36-5.4-.8L43.3,60l-.3-.06a117.89,117.89,0,0,1-18.09-4.46l-.19-.07c-.64-.22-1.27-.45-1.88-.68l-.39-.14-1.63-.65-.51-.21L19,53.18l-.7-.32-1-.48-.61-.3-1.15-.6-.53-.3-.18-.09-1-.6a3,3,0,0,1-.3-.18,25.17,25.17,0,0,1-4.86-3.78c-.84-.81-5.45-5.47-7-11.14A46.06,46.06,0,0,1,0,25.25C.15,28.14,1.82,31,4.92,33.7c5.17,5.14,14.86,9.67,28.43,12.66A142.42,142.42,0,0,0,49.37,48.89Z"/></symbol><symbol id="i" viewBox="0 0 146.05 61.89"><path class="k" d="M146.05,24V38.69h0c-.34,3.85-3.54,7.74-9.85,11.32C116,61.43,71.57,65.29,37,58.63c-22.4-4.31-35.2-12-36-19.94H1a31.09,31.09,0,0,1-.88-5.61C-.31,26.7,1,23.94,1,23.94c0,8.24,12.92,16.25,36,20.69,34.61,6.66,79,2.8,99.2-8.63C142.86,32.21,146.05,28.06,146.05,24Z"/><line class="l" x1="0.95" y1="24.72" x2="0.95" y2="37.25"/><path class="m" d="M146.05,23.94v0c0,4.09-3.19,8.24-9.89,12C116,47.43,71.57,51.29,37,44.63,13.87,40.19,1,32.18,1,23.94c0-4.09,3.17-8.25,9.89-12C31,.46,75.43-3.4,110,3.26,133.13,7.71,146,15.71,146.05,23.94Z"/><ellipse class="c" cx="63.14" cy="20.71" rx="29.51" ry="11.13"/><path class="c" d="M28.79,42.8c2.56.66,5.29,1.28,8.17,1.83q5.24,1,10.72,1.69v14Q42.21,59.63,37,58.63c-22.4-4.31-35.2-12-36-20H1a30.82,30.82,0,0,1-.88-5.6C-.31,26.71,1,24,1,24c0,7.2,9.9,14.23,27.84,18.85"/></symbol><symbol id="h" viewBox="0 0 77.77 82.31"><use width="146.05" height="61.89" transform="translate(0 49.35) scale(0.53)" xlink:href="#i"/><path class="d" d="M36.1,41.13c-4.7-9.15-8.45-17.64,3-24.84,7.54-4.76,8.44-11,7.21-16.06"/><path class="d" d="M14,41.13C9.32,32,5.57,23.49,17,16.29c7.6-4.79,8.46-11,7.19-16.17"/><path class="d" d="M58.18,41.13c-4.69-9.15-8.44-17.64,3-24.84,7.6-4.79,8.46-11,7.19-16.17"/><line class="e" x1="12.7" y1="70.67" x2="72.13" y2="55.6"/><line class="e" x1="1.59" y1="64.53" x2="58.1" y2="50.74"/><line class="e" x1="4.16" y1="56.41" x2="49.99" y2="73.99"/><line class="e" x1="20.65" y1="51.01" x2="67.16" y2="70.61"/><line class="e" x1="42.41" y1="49.35" x2="76.76" y2="65.2"/></symbol></defs><rect class="o" x="76.31" y="41.67" width="425.49" height="92.1"/><polygon class="p" points="507.94 41.67 507.94 133.28 788.74 133.77 788.74 41.67 507.94 41.67"/><circle class="n" cx="532.19" cy="124.92" r="2.7"/><path class="q" d="M307.27,142.14c7.85,17.8,43.74,38,83.24,43.23s90.23-1.28,122.67-21c7.13-4.34,14.21-9,19.46-15.52,2.47-3.06,4.59-6.59,5-10.5.68-6-2.8-11.89-7.69-15.39s-11-4.92-17-5.46a68.73,68.73,0,0,0-38.78,8c-11.63,6.34-22,17.69-21.66,30.94.17,7.18,3.42,13.86,6,20.55s4.54,14.21,2.11,21c-2.32,6.45-8.19,10.93-14.19,14.26S434,218.19,428.84,222.7a24.39,24.39,0,0,0-4.64,5.47"/><polygon class="r" points="416.8 223.72 421.98 240.91 434.28 227.84 416.8 223.72"/><path class="p" d="M524.25,133.31l7.94-5.69a4.56,4.56,0,0,0,2-.79,3.87,3.87,0,0,0,.69-1.91l15.57,8.44Z"/><rect class="r" x="203.31" y="248.43" width="469.72" height="67.8"/><path class="o" d="M93.15,31.79H91.24V20.94L86.48,31.79H84.71L80,20.94V31.79H78.08V17.85H80.7L85.61,29.2l5-11.35h2.58Z"/><path class="o" d="M103.13,28.55l1.6.55a4.17,4.17,0,0,1-1.54,2.15,4.37,4.37,0,0,1-2.71.84,4.63,4.63,0,0,1-3.37-1.37A4.92,4.92,0,0,1,95.72,27a5,5,0,0,1,1.34-3.57A4.21,4.21,0,0,1,100.24,22a4.25,4.25,0,0,1,3.35,1.35,5.2,5.2,0,0,1,1.2,3.6,4.42,4.42,0,0,1,0,.59H97.63a2.86,2.86,0,0,0,.83,2.07,2.77,2.77,0,0,0,2,.81A2.55,2.55,0,0,0,103.13,28.55Zm-5.44-2.46h5.17a2.39,2.39,0,0,0-2.6-2.42,2.45,2.45,0,0,0-1.81.72A2.57,2.57,0,0,0,97.69,26.09Z"/><path class="o" d="M109.62,19.34v3h2V24h-2v4.92a1.4,1.4,0,0,0,.31,1,1.36,1.36,0,0,0,1,.31,3.13,3.13,0,0,0,.73-.08v1.57a3.62,3.62,0,0,1-1.26.18,2.6,2.6,0,0,1-1.93-.71,2.67,2.67,0,0,1-.7-2V24H106V22.33h.51a1.39,1.39,0,0,0,1.09-.4,1.52,1.52,0,0,0,.36-1.05V19.34Z"/><path class="o" d="M116,26.23v5.56h-1.85V17.55H116v5.88a3.25,3.25,0,0,1,2.87-1.37,3.08,3.08,0,0,1,2.5,1,4,4,0,0,1,.88,2.69v6h-1.85V26.11c0-1.59-.73-2.38-2.2-2.38a1.93,1.93,0,0,0-1.59.7A2.87,2.87,0,0,0,116,26.23Z"/><path class="o" d="M125.76,23.46a4.95,4.95,0,0,1,6.94,0,5,5,0,0,1,1.37,3.59,5,5,0,0,1-1.36,3.61,4.95,4.95,0,0,1-7,0,5,5,0,0,1-1.36-3.61A5,5,0,0,1,125.76,23.46Zm1.38,6.08a2.76,2.76,0,0,0,2.09.9,2.8,2.8,0,0,0,2.1-.9,3.43,3.43,0,0,0,.85-2.49,3.39,3.39,0,0,0-.85-2.46,2.8,2.8,0,0,0-2.1-.9,2.76,2.76,0,0,0-2.09.9,3.4,3.4,0,0,0-.86,2.46A3.44,3.44,0,0,0,127.14,29.54Z"/><path class="o" d="M143.06,30.51v-.15a3.14,3.14,0,0,1-1.14,1.21,3.26,3.26,0,0,1-1.79.48,4.09,4.09,0,0,1-3.26-1.43A5.29,5.29,0,0,1,135.64,27a5.18,5.18,0,0,1,1.26-3.51,4.09,4.09,0,0,1,3.23-1.44,3.42,3.42,0,0,1,1.88.46,2.52,2.52,0,0,1,1,1.13V17.55h1.83V30a15.34,15.34,0,0,0,.09,1.75h-1.79A7.93,7.93,0,0,1,143.06,30.51ZM137.53,27a3.85,3.85,0,0,0,.74,2.44,2.44,2.44,0,0,0,2,1,2.38,2.38,0,0,0,2-1A3.88,3.88,0,0,0,143,27a3.68,3.68,0,0,0-.73-2.37,2.41,2.41,0,0,0-2-.91,2.5,2.5,0,0,0-2,.92A3.66,3.66,0,0,0,137.53,27Z"/><path class="o" d="M152.88,19.69a1.27,1.27,0,0,1-.38-.94,1.28,1.28,0,0,1,.38-.94,1.25,1.25,0,0,1,.93-.39,1.31,1.31,0,0,1,1.34,1.33,1.28,1.28,0,0,1-.39.94,1.35,1.35,0,0,1-.95.38A1.28,1.28,0,0,1,152.88,19.69Zm1.86,12.1h-1.83V22.33h1.83Z"/><path class="o" d="M159.73,26.33v5.46h-1.85V22.33h1.81v1.36a3.47,3.47,0,0,1,5.42-.59,4.07,4.07,0,0,1,.88,2.69v6h-1.85V26.11c0-1.59-.74-2.38-2.21-2.38a2,2,0,0,0-1.62.74A3,3,0,0,0,159.73,26.33Z"/><path class="o" d="M168.05,29.33l1.67-.58a2,2,0,0,0,.67,1.26,2.21,2.21,0,0,0,1.53.5,1.77,1.77,0,0,0,1.18-.36,1.12,1.12,0,0,0,.44-.89c0-.63-.41-1-1.22-1.22l-1.61-.36a3,3,0,0,1-1.73-.94,2.48,2.48,0,0,1-.63-1.71,2.73,2.73,0,0,1,1-2.11,3.43,3.43,0,0,1,2.37-.88,4.73,4.73,0,0,1,1.61.26,2.78,2.78,0,0,1,1.1.7,4.09,4.09,0,0,1,.59.81,3.62,3.62,0,0,1,.3.77l-1.64.61a1.93,1.93,0,0,0-.13-.47,3,3,0,0,0-.31-.5,1.4,1.4,0,0,0-.6-.44,2.36,2.36,0,0,0-.92-.17,1.68,1.68,0,0,0-1.13.38,1.1,1.1,0,0,0-.44.88q0,.9,1.08,1.14l1.53.34a3.57,3.57,0,0,1,1.94,1,2.57,2.57,0,0,1,.68,1.8,2.77,2.77,0,0,1-.92,2,3.44,3.44,0,0,1-2.54.91,4,4,0,0,1-2.74-.88A3.11,3.11,0,0,1,168.05,29.33Z"/><path class="o" d="M180.3,19.34v3h2V24h-2v4.92a1.12,1.12,0,0,0,1.32,1.3,3.13,3.13,0,0,0,.73-.08v1.57a3.66,3.66,0,0,1-1.26.18,2.58,2.58,0,0,1-1.93-.71,2.68,2.68,0,0,1-.71-2V24h-1.81V22.33h.52a1.41,1.41,0,0,0,1.09-.4,1.52,1.52,0,0,0,.36-1.05V19.34Z"/><path class="o" d="M189.86,22.24v2a5.62,5.62,0,0,0-.81-.06c-1.73,0-2.59,1-2.59,2.91v4.74h-1.85V22.33h1.81V24a2.93,2.93,0,0,1,2.83-1.81A3.08,3.08,0,0,1,189.86,22.24Z"/><path class="o" d="M198.16,30.65A2.42,2.42,0,0,1,197,31.72a3.69,3.69,0,0,1-1.65.37A3.31,3.31,0,0,1,192.79,31a4,4,0,0,1-1-2.73v-6h1.84V28a2.8,2.8,0,0,0,.53,1.75,1.88,1.88,0,0,0,1.62.69,2.09,2.09,0,0,0,1.67-.66,2.61,2.61,0,0,0,.57-1.76V22.33h1.85V30a13.87,13.87,0,0,0,.1,1.75h-1.77A5.94,5.94,0,0,1,198.16,30.65Z"/><path class="o" d="M206.93,23.75a2.73,2.73,0,0,0-2,.87,3.36,3.36,0,0,0-.83,2.43,3.44,3.44,0,0,0,.83,2.44,2.74,2.74,0,0,0,2.06.89,2.53,2.53,0,0,0,1.8-.59,3,3,0,0,0,.83-1.36l1.64.71a4.54,4.54,0,0,1-1.49,2.06,4.27,4.27,0,0,1-2.78.89,4.49,4.49,0,0,1-3.42-1.44,5,5,0,0,1-1.36-3.6,4.93,4.93,0,0,1,1.36-3.6,4.52,4.52,0,0,1,3.4-1.41,4.25,4.25,0,0,1,2.8.88,4.12,4.12,0,0,1,1.41,2.13l-1.67.71a3,3,0,0,0-.83-1.42A2.38,2.38,0,0,0,206.93,23.75Z"/><path class="o" d="M215.86,19.34v3h2V24h-2v4.92a1.4,1.4,0,0,0,.3,1,1.37,1.37,0,0,0,1,.31,3.13,3.13,0,0,0,.73-.08v1.57a3.58,3.58,0,0,1-1.26.18,2.56,2.56,0,0,1-1.92-.71,2.64,2.64,0,0,1-.71-2V24H212.2V22.33h.51a1.38,1.38,0,0,0,1.09-.4,1.53,1.53,0,0,0,.37-1.05V19.34Z"/><path class="o" d="M220.33,19.69a1.31,1.31,0,0,1-.38-.94,1.32,1.32,0,0,1,.38-.94,1.34,1.34,0,0,1,1.88,0,1.3,1.3,0,0,1,.39.95,1.28,1.28,0,0,1-.39.94,1.32,1.32,0,0,1-.94.38A1.31,1.31,0,0,1,220.33,19.69Zm1.86,12.1h-1.83V22.33h1.83Z"/><path class="o" d="M225.92,23.46a4.95,4.95,0,0,1,6.94,0,5,5,0,0,1,1.36,3.59,5,5,0,0,1-1.35,3.61,4.95,4.95,0,0,1-7,0,5,5,0,0,1-1.36-3.61A5,5,0,0,1,225.92,23.46Zm1.37,6.08a2.89,2.89,0,0,0,4.19,0,3.44,3.44,0,0,0,.86-2.49,3.4,3.4,0,0,0-.86-2.46,2.89,2.89,0,0,0-4.19,0,3.39,3.39,0,0,0-.85,2.46A3.43,3.43,0,0,0,227.29,29.54Z"/><path class="o" d="M238.43,26.33v5.46h-1.85V22.33h1.81v1.36a3.47,3.47,0,0,1,5.42-.59,4,4,0,0,1,.88,2.69v6h-1.85V26.11c0-1.59-.74-2.38-2.2-2.38a2,2,0,0,0-1.63.74A3,3,0,0,0,238.43,26.33Z"/><path class="o" d="M246.75,29.33l1.67-.58a2,2,0,0,0,.67,1.26,2.21,2.21,0,0,0,1.54.5,1.81,1.81,0,0,0,1.18-.36,1.14,1.14,0,0,0,.43-.89c0-.63-.41-1-1.22-1.22l-1.61-.36a3.05,3.05,0,0,1-1.73-.94,2.48,2.48,0,0,1-.63-1.71,2.73,2.73,0,0,1,1-2.11,3.43,3.43,0,0,1,2.37-.88,4.73,4.73,0,0,1,1.61.26,2.78,2.78,0,0,1,1.1.7,3.72,3.72,0,0,1,.59.81,3.62,3.62,0,0,1,.3.77l-1.63.61a2.54,2.54,0,0,0-.14-.47,3,3,0,0,0-.31-.5,1.34,1.34,0,0,0-.6-.44,2.36,2.36,0,0,0-.92-.17,1.68,1.68,0,0,0-1.13.38,1.1,1.1,0,0,0-.44.88q0,.9,1.08,1.14l1.53.34a3.57,3.57,0,0,1,1.94,1,2.57,2.57,0,0,1,.68,1.8,2.77,2.77,0,0,1-.92,2,3.44,3.44,0,0,1-2.54.91,4,4,0,0,1-2.74-.88A3.11,3.11,0,0,1,246.75,29.33Z"/><path class="o" d="M256.82,24.58a1.4,1.4,0,0,1,0-1.94,1.28,1.28,0,0,1,1-.4,1.34,1.34,0,0,1,1,.4,1.38,1.38,0,0,1,0,1.94,1.37,1.37,0,0,1-1,.39A1.3,1.3,0,0,1,256.82,24.58Zm0,6.92a1.31,1.31,0,0,1-.39-1,1.34,1.34,0,0,1,.39-1,1.28,1.28,0,0,1,1-.4,1.34,1.34,0,0,1,1,.4,1.31,1.31,0,0,1,.4,1,1.28,1.28,0,0,1-.4,1,1.37,1.37,0,0,1-1,.39A1.3,1.3,0,0,1,256.84,31.5Z"/><path class="o" d="M269,31.79h-1.83V17.55H269v6.12a3,3,0,0,1,1.19-1.15,4.36,4.36,0,0,1,5.15.94A5.42,5.42,0,0,1,276.45,27a5.5,5.5,0,0,1-1.18,3.61A4,4,0,0,1,272,32.05,3.3,3.3,0,0,1,269,30.42Zm4.82-2.32a3.72,3.72,0,0,0,.77-2.46,3.58,3.58,0,0,0-.76-2.42,2.51,2.51,0,0,0-2-.9,2.54,2.54,0,0,0-2,.91A3.55,3.55,0,0,0,269,27a3.7,3.7,0,0,0,.79,2.45,2.54,2.54,0,0,0,2,.94A2.5,2.5,0,0,0,273.79,29.47Z"/><path class="o" d="M284.94,30.65a2.42,2.42,0,0,1-1.14,1.07,3.69,3.69,0,0,1-1.65.37A3.32,3.32,0,0,1,279.57,31a4,4,0,0,1-1-2.73v-6h1.85V28a2.8,2.8,0,0,0,.52,1.75,1.91,1.91,0,0,0,1.62.69,2.08,2.08,0,0,0,1.67-.66,2.61,2.61,0,0,0,.57-1.76V22.33h1.85V30a16,16,0,0,0,.1,1.75H285A6.89,6.89,0,0,1,284.94,30.65Z"/><path class="o" d="M289.81,19.69a1.27,1.27,0,0,1-.38-.94,1.28,1.28,0,0,1,.38-.94,1.25,1.25,0,0,1,.93-.39,1.31,1.31,0,0,1,1.34,1.33,1.28,1.28,0,0,1-.39.94,1.35,1.35,0,0,1-.95.38A1.28,1.28,0,0,1,289.81,19.69Zm1.86,12.1h-1.83V22.33h1.83Z"/><path class="o" d="M296.66,31.79h-1.85V17.55h1.85Z"/><path class="o" d="M306.44,30.51v-.15a3.18,3.18,0,0,1-1.13,1.21,3.32,3.32,0,0,1-1.8.48,4.1,4.1,0,0,1-3.26-1.43A5.29,5.29,0,0,1,299,27a5.18,5.18,0,0,1,1.26-3.51,4.1,4.1,0,0,1,3.23-1.44,3.42,3.42,0,0,1,1.88.46,2.52,2.52,0,0,1,1,1.13V17.55h1.83V30a15.34,15.34,0,0,0,.09,1.75h-1.79A7.93,7.93,0,0,1,306.44,30.51ZM300.91,27a3.85,3.85,0,0,0,.74,2.44,2.44,2.44,0,0,0,2,1,2.38,2.38,0,0,0,2-1,3.88,3.88,0,0,0,.75-2.46,3.68,3.68,0,0,0-.73-2.37,2.41,2.41,0,0,0-2-.91,2.5,2.5,0,0,0-2,.92A3.66,3.66,0,0,0,300.91,27Z"/><path class="o" d="M315.7,29.26a2.53,2.53,0,0,1,.79-2,3.67,3.67,0,0,1,2.08-.92l2.56-.37c.48-.06.72-.3.72-.71a1.61,1.61,0,0,0-.51-1.22,2.21,2.21,0,0,0-1.53-.47,2.14,2.14,0,0,0-1.5.52,2.18,2.18,0,0,0-.64,1.39l-1.77-.41a3.1,3.1,0,0,1,1.23-2.22,4.2,4.2,0,0,1,2.64-.85,4,4,0,0,1,3,1,3.4,3.4,0,0,1,1,2.49v4.74a9.29,9.29,0,0,0,.12,1.55H322a8.42,8.42,0,0,1-.1-1.28,3.5,3.5,0,0,1-1.15,1.11,3.57,3.57,0,0,1-1.9.47,3.18,3.18,0,0,1-2.28-.84A2.63,2.63,0,0,1,315.7,29.26Zm3.42,1.27a2.9,2.9,0,0,0,2-.66,2.76,2.76,0,0,0,.74-2.13v-.43l-2.89.43a1.89,1.89,0,0,0-1,.45,1.27,1.27,0,0,0-.37,1,1.29,1.29,0,0,0,.42,1A1.49,1.49,0,0,0,319.12,30.53Z"/><path class="o" d="M328.42,26.33v5.46h-1.85V22.33h1.81v1.36a3.47,3.47,0,0,1,5.42-.59,4.07,4.07,0,0,1,.88,2.69v6h-1.85V26.11c0-1.59-.74-2.38-2.21-2.38a2,2,0,0,0-1.62.74A3,3,0,0,0,328.42,26.33Z"/><path class="o" d="M342,29.26a2.53,2.53,0,0,1,.79-2,3.7,3.7,0,0,1,2.08-.92l2.56-.37c.49-.06.73-.3.73-.71a1.61,1.61,0,0,0-.51-1.22,2.23,2.23,0,0,0-1.54-.47,2.11,2.11,0,0,0-1.49.52,2.14,2.14,0,0,0-.65,1.39l-1.77-.41a3.08,3.08,0,0,1,1.24-2.22A4.15,4.15,0,0,1,346,22a4,4,0,0,1,3,1,3.37,3.37,0,0,1,1,2.49v4.74a10.56,10.56,0,0,0,.11,1.55h-1.8a7.31,7.31,0,0,1-.1-1.28A3.71,3.71,0,0,1,347,31.62a3.59,3.59,0,0,1-1.9.47,3.18,3.18,0,0,1-2.28-.84A2.64,2.64,0,0,1,342,29.26Zm3.42,1.27a2.9,2.9,0,0,0,2-.66,2.73,2.73,0,0,0,.75-2.13v-.43l-2.89.43a1.93,1.93,0,0,0-1,.45,1.27,1.27,0,0,0-.37,1,1.29,1.29,0,0,0,.42,1A1.51,1.51,0,0,0,345.37,30.53Z"/><path class="o" d="M358.08,22.24v2a5.73,5.73,0,0,0-.81-.06c-1.73,0-2.59,1-2.59,2.91v4.74h-1.85V22.33h1.81V24a2.92,2.92,0,0,1,2.83-1.81A3.08,3.08,0,0,1,358.08,22.24Z"/><path class="o" d="M365.3,22.24v2a5.73,5.73,0,0,0-.81-.06c-1.73,0-2.6,1-2.6,2.91v4.74H360V22.33h1.81V24a2.93,2.93,0,0,1,2.84-1.81A3.08,3.08,0,0,1,365.3,22.24Z"/><path class="o" d="M366.67,29.26a2.53,2.53,0,0,1,.79-2,3.7,3.7,0,0,1,2.08-.92L372.1,26c.48-.06.73-.3.73-.71a1.61,1.61,0,0,0-.51-1.22,2.25,2.25,0,0,0-1.54-.47,2.09,2.09,0,0,0-1.49.52,2.14,2.14,0,0,0-.65,1.39l-1.77-.41a3.08,3.08,0,0,1,1.24-2.22,4.15,4.15,0,0,1,2.63-.85,4,4,0,0,1,3,1,3.41,3.41,0,0,1,1,2.49v4.74a9.34,9.34,0,0,0,.11,1.55H373a8.47,8.47,0,0,1-.09-1.28,3.71,3.71,0,0,1-1.15,1.11,3.59,3.59,0,0,1-1.9.47,3.18,3.18,0,0,1-2.28-.84A2.64,2.64,0,0,1,366.67,29.26Zm3.42,1.27a2.9,2.9,0,0,0,2-.66,2.73,2.73,0,0,0,.75-2.13v-.43l-2.89.43a1.93,1.93,0,0,0-1,.45,1.27,1.27,0,0,0-.37,1,1.29,1.29,0,0,0,.42,1A1.49,1.49,0,0,0,370.09,30.53Z"/><path class="o" d="M379.71,35.75h-2l2.36-5L376,22.33h2.13l2.95,6.53,2.83-6.53h2Z"/><path class="o" d="M212.3,339.85l-3.19-5.7H207v5.7h-1.94V325.91h5.25a4.14,4.14,0,0,1,3.1,1.19,4,4,0,0,1,1.17,3,3.87,3.87,0,0,1-.91,2.58,4.1,4.1,0,0,1-2.48,1.37l3.33,5.84ZM207,332.42H210a2.81,2.81,0,0,0,1.91-.64,2.17,2.17,0,0,0,.73-1.72,2.24,2.24,0,0,0-.73-1.76,2.72,2.72,0,0,0-1.91-.66H207Z"/><path class="o" d="M223.31,336.6l1.59.56a4.23,4.23,0,0,1-1.53,2.15,4.4,4.4,0,0,1-2.72.83,4.63,4.63,0,0,1-3.37-1.36,5,5,0,0,1-1.39-3.69,5,5,0,0,1,1.34-3.58,4.56,4.56,0,0,1,6.53-.07,5.23,5.23,0,0,1,1.2,3.61,3.27,3.27,0,0,1,0,.59H217.8a2.83,2.83,0,0,0,.84,2.07,2.76,2.76,0,0,0,2,.8A2.56,2.56,0,0,0,223.31,336.6Zm-5.45-2.45H223a2.39,2.39,0,0,0-2.59-2.42,2.42,2.42,0,0,0-1.81.72A2.56,2.56,0,0,0,217.86,334.15Z"/><path class="o" d="M229.8,327.4v3h2v1.67h-2V337a1.12,1.12,0,0,0,1.32,1.3,3.11,3.11,0,0,0,.72-.08v1.57a3.58,3.58,0,0,1-1.26.18,2.6,2.6,0,0,1-1.92-.71,2.69,2.69,0,0,1-.71-2v-5.19h-1.81v-1.67h.51a1.38,1.38,0,0,0,1.09-.4,1.53,1.53,0,0,0,.37-1.05V327.4Z"/><path class="o" d="M240.53,338.71a2.33,2.33,0,0,1-1.14,1.07,3.83,3.83,0,0,1-1.65.36,3.27,3.27,0,0,1-2.57-1.07,3.87,3.87,0,0,1-1-2.72v-6h1.85v5.68a2.78,2.78,0,0,0,.52,1.75,1.91,1.91,0,0,0,1.62.69,2.1,2.1,0,0,0,1.68-.66,2.59,2.59,0,0,0,.57-1.76v-5.7h1.85v7.71a16.11,16.11,0,0,0,.09,1.75h-1.77A6.89,6.89,0,0,1,240.53,338.71Z"/><path class="o" d="M250.68,330.29v2a5.49,5.49,0,0,0-.8-.06c-1.73,0-2.6,1-2.6,2.91v4.74h-1.85v-9.46h1.81V332a2.94,2.94,0,0,1,2.83-1.81A3,3,0,0,1,250.68,330.29Z"/><path class="o" d="M254.5,334.38v5.47h-1.85v-9.46h1.81v1.36a3.13,3.13,0,0,1,2.91-1.63,3.09,3.09,0,0,1,2.51,1,4,4,0,0,1,.87,2.69v6H258.9v-5.68c0-1.59-.73-2.38-2.2-2.38a1.93,1.93,0,0,0-1.62.73A2.93,2.93,0,0,0,254.5,334.38Z"/><path class="o" d="M262.82,337.39l1.67-.59a1.94,1.94,0,0,0,.67,1.27,2.25,2.25,0,0,0,1.53.5,1.79,1.79,0,0,0,1.18-.36,1.13,1.13,0,0,0,.43-.9c0-.63-.4-1-1.22-1.22l-1.61-.35a3.15,3.15,0,0,1-1.73-.94,2.52,2.52,0,0,1-.63-1.72,2.73,2.73,0,0,1,1-2.1,3.47,3.47,0,0,1,2.37-.88,4.55,4.55,0,0,1,1.62.26,2.86,2.86,0,0,1,1.1.7,4.09,4.09,0,0,1,.59.81,3.05,3.05,0,0,1,.29.76l-1.63.61a1.88,1.88,0,0,0-.14-.46,2.13,2.13,0,0,0-.3-.5,1.38,1.38,0,0,0-.6-.44,2.21,2.21,0,0,0-.93-.17,1.69,1.69,0,0,0-1.13.37,1.15,1.15,0,0,0-.44.89q0,.9,1.08,1.14l1.54.33a3.59,3.59,0,0,1,1.93,1,2.52,2.52,0,0,1,.68,1.79,2.78,2.78,0,0,1-.91,2,3.48,3.48,0,0,1-2.55.9,4,4,0,0,1-2.73-.87A3.06,3.06,0,0,1,262.82,337.39Z"/><path class="o" d="M276.92,337.31a2.55,2.55,0,0,1,.78-1.95,3.67,3.67,0,0,1,2.09-.92l2.55-.37c.49-.07.73-.3.73-.71a1.59,1.59,0,0,0-.51-1.22,2.21,2.21,0,0,0-1.53-.47,2.09,2.09,0,0,0-1.5.52,2.19,2.19,0,0,0-.65,1.39l-1.77-.42a3.11,3.11,0,0,1,1.24-2.21,4.18,4.18,0,0,1,2.64-.85,4,4,0,0,1,3,1,3.4,3.4,0,0,1,1,2.49v4.74a9.29,9.29,0,0,0,.12,1.55h-1.81a7.31,7.31,0,0,1-.1-1.28,3.45,3.45,0,0,1-3.05,1.57,3.17,3.17,0,0,1-2.28-.83A2.65,2.65,0,0,1,276.92,337.31Zm3.42,1.28a2.83,2.83,0,0,0,2-.67,2.69,2.69,0,0,0,.75-2.12v-.43l-2.89.43a1.75,1.75,0,0,0-1,.45,1.27,1.27,0,0,0-.38,1,1.3,1.3,0,0,0,.43,1A1.53,1.53,0,0,0,280.34,338.59Z"/><path class="o" d="M289.64,334.38v5.47h-1.85v-9.46h1.81v1.36a3.13,3.13,0,0,1,2.91-1.63,3.09,3.09,0,0,1,2.51,1,4,4,0,0,1,.87,2.69v6H294v-5.68c0-1.59-.73-2.38-2.2-2.38a2,2,0,0,0-1.62.73A2.93,2.93,0,0,0,289.64,334.38Z"/><path class="o" d="M303.17,337.31a2.53,2.53,0,0,1,.79-1.95,3.64,3.64,0,0,1,2.08-.92l2.56-.37c.48-.07.72-.3.72-.71a1.59,1.59,0,0,0-.51-1.22,2.21,2.21,0,0,0-1.53-.47,2.09,2.09,0,0,0-1.5.52,2.18,2.18,0,0,0-.64,1.39l-1.77-.42A3.1,3.1,0,0,1,304.6,331a4.2,4.2,0,0,1,2.64-.85,4,4,0,0,1,3,1,3.4,3.4,0,0,1,1,2.49v4.74a9.29,9.29,0,0,0,.12,1.55h-1.81a8.42,8.42,0,0,1-.1-1.28,3.39,3.39,0,0,1-1.15,1.1,3.44,3.44,0,0,1-1.89.47,3.18,3.18,0,0,1-2.29-.83A2.65,2.65,0,0,1,303.17,337.31Zm3.42,1.28a2.85,2.85,0,0,0,2-.67,2.69,2.69,0,0,0,.74-2.12v-.43l-2.89.43a1.75,1.75,0,0,0-1,.45,1.27,1.27,0,0,0-.37,1,1.33,1.33,0,0,0,.42,1A1.53,1.53,0,0,0,306.59,338.59Z"/><path class="o" d="M319.3,330.29v2a5.73,5.73,0,0,0-.81-.06c-1.73,0-2.6,1-2.6,2.91v4.74H314v-9.46h1.81V332a3,3,0,0,1,2.84-1.81A3.08,3.08,0,0,1,319.3,330.29Z"/><path class="o" d="M326.51,330.29v2a5.49,5.49,0,0,0-.8-.06c-1.73,0-2.6,1-2.6,2.91v4.74h-1.85v-9.46h1.81V332a2.94,2.94,0,0,1,2.83-1.81A3,3,0,0,1,326.51,330.29Z"/><path class="o" d="M327.89,337.31a2.53,2.53,0,0,1,.79-1.95,3.61,3.61,0,0,1,2.08-.92l2.56-.37c.48-.07.72-.3.72-.71a1.59,1.59,0,0,0-.51-1.22,2.21,2.21,0,0,0-1.53-.47,2.09,2.09,0,0,0-1.5.52,2.24,2.24,0,0,0-.65,1.39l-1.76-.42a3.1,3.1,0,0,1,1.23-2.21,4.2,4.2,0,0,1,2.64-.85,4,4,0,0,1,3,1,3.4,3.4,0,0,1,1,2.49v4.74a9.29,9.29,0,0,0,.12,1.55H334.2a8.42,8.42,0,0,1-.1-1.28,3.39,3.39,0,0,1-1.15,1.1,3.48,3.48,0,0,1-1.9.47,3.17,3.17,0,0,1-2.28-.83A2.65,2.65,0,0,1,327.89,337.31Zm3.42,1.28a2.85,2.85,0,0,0,2-.67,2.73,2.73,0,0,0,.74-2.12v-.43l-2.89.43a1.75,1.75,0,0,0-1,.45,1.27,1.27,0,0,0-.37,1,1.33,1.33,0,0,0,.42,1A1.53,1.53,0,0,0,331.31,338.59Z"/><path class="o" d="M340.93,343.8h-2l2.36-5-4.07-8.42h2.12l2.95,6.53,2.84-6.53h2Z"/><path class="o" d="M346.49,338.59a1.22,1.22,0,0,1,.42-.92,1.38,1.38,0,0,1,1-.4,1.53,1.53,0,0,1,1.13.49,1.93,1.93,0,0,1,.46,1.38,3.88,3.88,0,0,1-.9,2.74,3.39,3.39,0,0,1-2,1.1v-1a1.9,1.9,0,0,0,1.16-.77,2.37,2.37,0,0,0,.47-1.35.7.7,0,0,1-.43.1,1.27,1.27,0,0,1-.94-.37A1.28,1.28,0,0,1,346.49,338.59Z"/><path class="o" d="M359.87,327.4v3h2v1.67h-2V337a1.39,1.39,0,0,0,.3,1,1.36,1.36,0,0,0,1,.32,3.13,3.13,0,0,0,.73-.08v1.57a3.58,3.58,0,0,1-1.26.18,2.64,2.64,0,0,1-1.93-.71,2.68,2.68,0,0,1-.7-2v-5.19h-1.81v-1.67h.51a1.39,1.39,0,0,0,1.09-.4,1.52,1.52,0,0,0,.36-1.05V327.4Z"/><path class="o" d="M366.22,334.28v5.57h-1.85V325.61h1.85v5.88a3.23,3.23,0,0,1,2.87-1.37,3.09,3.09,0,0,1,2.51,1,4,4,0,0,1,.87,2.69v6h-1.85v-5.68c0-1.59-.73-2.38-2.2-2.38a2,2,0,0,0-1.59.69A2.91,2.91,0,0,0,366.22,334.28Z"/><path class="o" d="M382.07,336.6l1.59.56a4.23,4.23,0,0,1-1.53,2.15,4.42,4.42,0,0,1-2.72.83,4.62,4.62,0,0,1-3.37-1.36,5,5,0,0,1-1.39-3.69,5,5,0,0,1,1.34-3.58,4.56,4.56,0,0,1,6.53-.07,5.23,5.23,0,0,1,1.2,3.61,3.27,3.27,0,0,1,0,.59h-7.12a2.83,2.83,0,0,0,.84,2.07,2.76,2.76,0,0,0,2,.8A2.56,2.56,0,0,0,382.07,336.6Zm-5.45-2.45h5.17a2.39,2.39,0,0,0-2.59-2.42,2.42,2.42,0,0,0-1.81.72A2.56,2.56,0,0,0,376.62,334.15Z"/><path class="o" d="M392.82,339.85H391V325.61h1.82v6.12a3,3,0,0,1,1.19-1.15,3.87,3.87,0,0,1,1.94-.46,3.91,3.91,0,0,1,3.21,1.39,6.12,6.12,0,0,1,0,7.17,4,4,0,0,1-3.23,1.43,3.28,3.28,0,0,1-3.07-1.64Zm4.82-2.32a3.75,3.75,0,0,0,.77-2.46,3.63,3.63,0,0,0-.76-2.43,2.53,2.53,0,0,0-2-.89,2.58,2.58,0,0,0-2,.9,3.58,3.58,0,0,0-.79,2.42,3.7,3.7,0,0,0,.79,2.45,2.54,2.54,0,0,0,2,.93A2.47,2.47,0,0,0,397.64,337.53Z"/><path class="o" d="M404.51,339.85h-1.85V325.61h1.85Z"/><path class="o" d="M408.23,331.52a4.95,4.95,0,0,1,6.94,0,5.43,5.43,0,0,1,0,7.2,5,5,0,0,1-7,0,5.46,5.46,0,0,1,0-7.2Zm1.38,6.08a2.91,2.91,0,0,0,4.19,0,3.47,3.47,0,0,0,.85-2.49,3.43,3.43,0,0,0-.85-2.47,2.91,2.91,0,0,0-4.19,0,4,4,0,0,0,0,5Z"/><path class="o" d="M422.87,331.81a2.68,2.68,0,0,0-2,.86,4,4,0,0,0,0,4.88,2.69,2.69,0,0,0,2.05.88,2.47,2.47,0,0,0,1.8-.59,3,3,0,0,0,.84-1.35l1.63.7a4.49,4.49,0,0,1-1.48,2.07,4.29,4.29,0,0,1-2.79.88,4.51,4.51,0,0,1-3.42-1.43,5.07,5.07,0,0,1-1.36-3.6,5,5,0,0,1,1.36-3.61,4.53,4.53,0,0,1,3.4-1.4,4.28,4.28,0,0,1,2.81.88,4.12,4.12,0,0,1,1.4,2.12l-1.67.71a2.9,2.9,0,0,0-.83-1.41A2.31,2.31,0,0,0,422.87,331.81Z"/><path class="o" d="M437.8,330.39l-4,4,4.11,5.47h-2.32l-3.09-4.17L431.15,337v2.85h-1.83V325.61h1.83v9l4.09-4.19Z"/><path class="o" d="M446.41,334.28v5.57h-1.85V325.61h1.85v5.88a3.24,3.24,0,0,1,2.87-1.37,3.07,3.07,0,0,1,2.51,1,4,4,0,0,1,.88,2.69v6h-1.85v-5.68c0-1.59-.74-2.38-2.2-2.38a2,2,0,0,0-1.6.69A3,3,0,0,0,446.41,334.28Z"/><path class="o" d="M455,337.31a2.55,2.55,0,0,1,.78-1.95,3.67,3.67,0,0,1,2.09-.92l2.55-.37c.49-.07.73-.3.73-.71a1.59,1.59,0,0,0-.51-1.22,2.21,2.21,0,0,0-1.53-.47,2.09,2.09,0,0,0-1.5.52,2.19,2.19,0,0,0-.65,1.39l-1.77-.42a3.11,3.11,0,0,1,1.24-2.21,4.18,4.18,0,0,1,2.64-.85,4,4,0,0,1,3,1,3.4,3.4,0,0,1,1,2.49v4.74a9.29,9.29,0,0,0,.12,1.55h-1.81a7.31,7.31,0,0,1-.1-1.28,3.45,3.45,0,0,1-3.05,1.57,3.17,3.17,0,0,1-2.28-.83A2.65,2.65,0,0,1,455,337.31Zm3.42,1.28a2.83,2.83,0,0,0,2-.67,2.69,2.69,0,0,0,.75-2.12v-.43l-2.89.43a1.75,1.75,0,0,0-1,.45,1.27,1.27,0,0,0-.38,1,1.3,1.3,0,0,0,.43,1A1.53,1.53,0,0,0,458.45,338.59Z"/><path class="o" d="M465,337.39l1.67-.59a1.94,1.94,0,0,0,.67,1.27,2.25,2.25,0,0,0,1.53.5,1.79,1.79,0,0,0,1.18-.36,1.13,1.13,0,0,0,.43-.9c0-.63-.4-1-1.22-1.22l-1.61-.35a3.15,3.15,0,0,1-1.73-.94,2.52,2.52,0,0,1-.63-1.72,2.73,2.73,0,0,1,1-2.1,3.47,3.47,0,0,1,2.37-.88,4.55,4.55,0,0,1,1.62.26,2.86,2.86,0,0,1,1.1.7,4.09,4.09,0,0,1,.59.81,3.05,3.05,0,0,1,.29.76l-1.63.61a1.88,1.88,0,0,0-.14-.46,2.13,2.13,0,0,0-.3-.5,1.38,1.38,0,0,0-.6-.44,2.21,2.21,0,0,0-.93-.17,1.69,1.69,0,0,0-1.13.37,1.15,1.15,0,0,0-.44.89q0,.9,1.08,1.14l1.54.33a3.59,3.59,0,0,1,1.93,1,2.52,2.52,0,0,1,.68,1.79,2.78,2.78,0,0,1-.91,2,3.48,3.48,0,0,1-2.55.9,4,4,0,0,1-2.73-.87A3.06,3.06,0,0,1,465,337.39Z"/><path class="o" d="M481.54,339.85h-1.83V325.61h1.83v6.12a2.91,2.91,0,0,1,1.18-1.15,4.37,4.37,0,0,1,5.15.93,6.12,6.12,0,0,1,0,7.17,4,4,0,0,1-3.23,1.43,3.26,3.26,0,0,1-3.06-1.64Zm4.81-2.32a3.75,3.75,0,0,0,.77-2.46,3.63,3.63,0,0,0-.76-2.43,2.53,2.53,0,0,0-2-.89,2.58,2.58,0,0,0-2,.9,3.57,3.57,0,0,0-.78,2.42,3.69,3.69,0,0,0,.78,2.45,2.54,2.54,0,0,0,2,.93A2.47,2.47,0,0,0,486.35,337.53Z"/><path class="o" d="M498,336.6l1.6.56a4.25,4.25,0,0,1-1.54,2.15,4.37,4.37,0,0,1-2.71.83,4.62,4.62,0,0,1-3.37-1.36,4.92,4.92,0,0,1-1.39-3.69,5,5,0,0,1,1.34-3.58,4.56,4.56,0,0,1,6.53-.07,5.23,5.23,0,0,1,1.2,3.61,4.55,4.55,0,0,1,0,.59h-7.12a2.86,2.86,0,0,0,.83,2.07,2.8,2.8,0,0,0,2,.8A2.54,2.54,0,0,0,498,336.6Zm-5.44-2.45h5.17a2.39,2.39,0,0,0-2.6-2.42,2.45,2.45,0,0,0-1.81.72A2.55,2.55,0,0,0,492.57,334.15Z"/><path class="o" d="M508.67,336.6l1.6.56a4.25,4.25,0,0,1-1.54,2.15,4.39,4.39,0,0,1-2.71.83,4.6,4.6,0,0,1-3.37-1.36,4.92,4.92,0,0,1-1.39-3.69,5,5,0,0,1,1.34-3.58,4.55,4.55,0,0,1,6.52-.07,5.23,5.23,0,0,1,1.21,3.61,4.55,4.55,0,0,1,0,.59h-7.12a2.86,2.86,0,0,0,.83,2.07,2.8,2.8,0,0,0,2,.8A2.54,2.54,0,0,0,508.67,336.6Zm-5.44-2.45h5.17a2.39,2.39,0,0,0-2.6-2.42,2.43,2.43,0,0,0-1.81.72A2.5,2.5,0,0,0,503.23,334.15Z"/><path class="o" d="M514.53,334.38v5.47h-1.85v-9.46h1.81v1.36a3.13,3.13,0,0,1,2.91-1.63,3.07,3.07,0,0,1,2.51,1,4,4,0,0,1,.88,2.69v6h-1.85v-5.68c0-1.59-.74-2.38-2.2-2.38a2,2,0,0,0-1.63.73A3,3,0,0,0,514.53,334.38Z"/><path class="o" d="M532.63,331.81a2.72,2.72,0,0,0-2,.86,4,4,0,0,0,0,4.88,2.72,2.72,0,0,0,2.06.88,2.51,2.51,0,0,0,1.8-.59,2.91,2.91,0,0,0,.83-1.35l1.63.7a4.42,4.42,0,0,1-1.48,2.07,4.28,4.28,0,0,1-2.78.88,4.51,4.51,0,0,1-3.43-1.43,5.06,5.06,0,0,1-1.35-3.6,5,5,0,0,1,1.35-3.61,4.53,4.53,0,0,1,3.41-1.4,4.27,4.27,0,0,1,2.8.88,4.12,4.12,0,0,1,1.4,2.12l-1.67.71a3,3,0,0,0-.82-1.41A2.34,2.34,0,0,0,532.63,331.81Z"/><path class="o" d="M538.39,337.31a2.55,2.55,0,0,1,.78-1.95,3.67,3.67,0,0,1,2.09-.92l2.56-.37c.48-.07.72-.3.72-.71a1.59,1.59,0,0,0-.51-1.22,2.21,2.21,0,0,0-1.53-.47,2.09,2.09,0,0,0-1.5.52,2.24,2.24,0,0,0-.65,1.39l-1.77-.42a3.14,3.14,0,0,1,1.24-2.21,4.2,4.2,0,0,1,2.64-.85,4,4,0,0,1,3,1,3.4,3.4,0,0,1,1,2.49v4.74a9.29,9.29,0,0,0,.12,1.55H544.7a7.31,7.31,0,0,1-.1-1.28,3.39,3.39,0,0,1-1.15,1.1,3.48,3.48,0,0,1-1.9.47,3.17,3.17,0,0,1-2.28-.83A2.65,2.65,0,0,1,538.39,337.31Zm3.42,1.28a2.85,2.85,0,0,0,2-.67,2.73,2.73,0,0,0,.74-2.12v-.43l-2.89.43a1.75,1.75,0,0,0-1,.45,1.27,1.27,0,0,0-.37,1,1.33,1.33,0,0,0,.42,1A1.53,1.53,0,0,0,541.81,338.59Z"/><path class="o" d="M551.11,339.85h-1.85V325.61h1.85Z"/><path class="o" d="M556.11,339.85h-1.85V325.61h1.85Z"/><path class="o" d="M565.9,336.6l1.59.56a4.17,4.17,0,0,1-1.53,2.15,4.39,4.39,0,0,1-2.71.83,4.64,4.64,0,0,1-3.38-1.36,5,5,0,0,1-1.38-3.69,5,5,0,0,1,1.33-3.58,4.56,4.56,0,0,1,6.53-.07,5.23,5.23,0,0,1,1.2,3.61,3.27,3.27,0,0,1,0,.59h-7.12a2.91,2.91,0,0,0,.84,2.07,2.78,2.78,0,0,0,2,.8A2.54,2.54,0,0,0,565.9,336.6Zm-5.45-2.45h5.17a2.37,2.37,0,0,0-2.59-2.42,2.42,2.42,0,0,0-1.81.72A2.56,2.56,0,0,0,560.45,334.15Z"/><path class="o" d="M576.54,338.57v-.16a3.11,3.11,0,0,1-1.13,1.21,3.32,3.32,0,0,1-1.8.49,4.1,4.1,0,0,1-3.26-1.43,5.35,5.35,0,0,1-1.23-3.59,5.14,5.14,0,0,1,1.26-3.51,4.11,4.11,0,0,1,3.23-1.45,3.48,3.48,0,0,1,1.89.47,2.45,2.45,0,0,1,1,1.13v-6.12h1.83V338.1a13.33,13.33,0,0,0,.1,1.75h-1.79A6.93,6.93,0,0,1,576.54,338.57ZM571,335.09a3.85,3.85,0,0,0,.74,2.44,2.44,2.44,0,0,0,2,.94,2.39,2.39,0,0,0,2-1,3.88,3.88,0,0,0,.75-2.46,3.66,3.66,0,0,0-.73-2.38,2.41,2.41,0,0,0-2-.9,2.52,2.52,0,0,0-2,.92A3.66,3.66,0,0,0,571,335.09Z"/><path class="o" d="M587,331.52a4.95,4.95,0,0,1,6.94,0,5.43,5.43,0,0,1,0,7.2,5,5,0,0,1-7,0,5.43,5.43,0,0,1,0-7.2Zm1.38,6.08a2.91,2.91,0,0,0,4.19,0,3.47,3.47,0,0,0,.85-2.49,3.43,3.43,0,0,0-.85-2.47,2.91,2.91,0,0,0-4.19,0,4,4,0,0,0,0,5Z"/><path class="o" d="M599.49,334.38v5.47h-1.85v-9.46h1.81v1.36a3.13,3.13,0,0,1,2.91-1.63,3.09,3.09,0,0,1,2.51,1,4,4,0,0,1,.87,2.69v6h-1.85v-5.68c0-1.59-.73-2.38-2.2-2.38a2,2,0,0,0-1.62.73A2.93,2.93,0,0,0,599.49,334.38Z"/><path class="o" d="M615.54,329.62a1.13,1.13,0,0,1-.37.84,1.27,1.27,0,0,1-.91.34,1.37,1.37,0,0,1-1-.43,1.75,1.75,0,0,1-.41-1.24,3.48,3.48,0,0,1,.82-2.47,2.84,2.84,0,0,1,1.8-1v.92a1.73,1.73,0,0,0-1,.71,2.16,2.16,0,0,0-.44,1.2.82.82,0,0,1,.4-.1,1.14,1.14,0,0,1,.84.33A1.17,1.17,0,0,1,615.54,329.62Zm3.36,0a1.09,1.09,0,0,1-.37.84,1.25,1.25,0,0,1-.91.34,1.33,1.33,0,0,1-1-.43,1.71,1.71,0,0,1-.42-1.24,3.52,3.52,0,0,1,.82-2.47,2.84,2.84,0,0,1,1.8-1v.92a1.73,1.73,0,0,0-1,.71,2.07,2.07,0,0,0-.43,1.2.7.7,0,0,1,.39-.1,1.15,1.15,0,0,1,1.18,1.2Z"/><path class="o" d="M620.18,337.39l1.67-.59a1.94,1.94,0,0,0,.67,1.27,2.25,2.25,0,0,0,1.53.5,1.79,1.79,0,0,0,1.18-.36,1.13,1.13,0,0,0,.43-.9c0-.63-.4-1-1.22-1.22l-1.61-.35a3.15,3.15,0,0,1-1.73-.94,2.52,2.52,0,0,1-.63-1.72,2.73,2.73,0,0,1,1-2.1,3.47,3.47,0,0,1,2.37-.88,4.55,4.55,0,0,1,1.62.26,2.78,2.78,0,0,1,1.1.7,4.09,4.09,0,0,1,.59.81,3.05,3.05,0,0,1,.29.76l-1.63.61a1.88,1.88,0,0,0-.14-.46,2.13,2.13,0,0,0-.3-.5,1.38,1.38,0,0,0-.6-.44,2.21,2.21,0,0,0-.93-.17,1.71,1.71,0,0,0-1.13.37,1.15,1.15,0,0,0-.44.89q0,.9,1.08,1.14l1.54.33a3.55,3.55,0,0,1,1.93,1,2.52,2.52,0,0,1,.68,1.79,2.78,2.78,0,0,1-.91,2,3.48,3.48,0,0,1-2.55.9,4,4,0,0,1-2.73-.87A3.06,3.06,0,0,1,620.18,337.39Z"/><path class="o" d="M632.43,327.4v3h2v1.67h-2V337a1.12,1.12,0,0,0,1.32,1.3,3.11,3.11,0,0,0,.72-.08v1.57a3.58,3.58,0,0,1-1.26.18,2.6,2.6,0,0,1-1.92-.71,2.69,2.69,0,0,1-.71-2v-5.19h-1.81v-1.67h.51a1.38,1.38,0,0,0,1.09-.4,1.48,1.48,0,0,0,.37-1.05V327.4Z"/><path class="o" d="M643.48,336.6l1.59.56a4.17,4.17,0,0,1-1.53,2.15,4.39,4.39,0,0,1-2.71.83,4.64,4.64,0,0,1-3.38-1.36,5,5,0,0,1-1.38-3.69,5,5,0,0,1,1.33-3.58,4.56,4.56,0,0,1,6.53-.07,5.23,5.23,0,0,1,1.2,3.61,3.27,3.27,0,0,1,0,.59H638a2.91,2.91,0,0,0,.84,2.07,2.78,2.78,0,0,0,2,.8A2.54,2.54,0,0,0,643.48,336.6ZM638,334.15h5.18a2.55,2.55,0,0,0-.71-1.74,2.52,2.52,0,0,0-1.89-.68,2.42,2.42,0,0,0-1.81.72A2.56,2.56,0,0,0,638,334.15Z"/><path class="o" d="M646.9,337.31a2.53,2.53,0,0,1,.79-1.95,3.64,3.64,0,0,1,2.08-.92l2.56-.37c.48-.07.73-.3.73-.71a1.59,1.59,0,0,0-.51-1.22,2.23,2.23,0,0,0-1.54-.47,2,2,0,0,0-1.49.52,2.14,2.14,0,0,0-.65,1.39l-1.77-.42a3.08,3.08,0,0,1,1.24-2.21,4.15,4.15,0,0,1,2.63-.85,4,4,0,0,1,3,1,3.41,3.41,0,0,1,1,2.49v4.74a10.56,10.56,0,0,0,.11,1.55h-1.81a8.47,8.47,0,0,1-.09-1.28,3.58,3.58,0,0,1-1.15,1.1,3.5,3.5,0,0,1-1.9.47,3.17,3.17,0,0,1-2.28-.83A2.66,2.66,0,0,1,646.9,337.31Zm3.42,1.28a2.85,2.85,0,0,0,2-.67,2.69,2.69,0,0,0,.75-2.12v-.43l-2.89.43a1.78,1.78,0,0,0-1,.45,1.3,1.3,0,0,0-.37,1,1.33,1.33,0,0,0,.42,1A1.57,1.57,0,0,0,650.32,338.59Z"/><path class="o" d="M666.25,330.39l-4,4,4.11,5.47H664l-3.09-4.17L659.61,337v2.85h-1.83V325.61h1.83v9l4.09-4.19Z"/><path class="o" d="M667.41,327a1.09,1.09,0,0,1,.37-.84,1.25,1.25,0,0,1,.91-.34,1.33,1.33,0,0,1,1,.43,1.71,1.71,0,0,1,.42,1.24,3.44,3.44,0,0,1-.81,2.44,3,3,0,0,1-1.81,1V330a1.72,1.72,0,0,0,1-.7,2.14,2.14,0,0,0,.44-1.21.72.72,0,0,1-.4.1,1.14,1.14,0,0,1-.84-.33A1.12,1.12,0,0,1,667.41,327Zm3.37,0a1.12,1.12,0,0,1,.36-.84,1.27,1.27,0,0,1,.91-.34,1.37,1.37,0,0,1,1,.43,1.75,1.75,0,0,1,.41,1.24,3.44,3.44,0,0,1-.81,2.44,3,3,0,0,1-1.81,1V330a1.77,1.77,0,0,0,1-.7,2.12,2.12,0,0,0,.43-1.21.63.63,0,0,1-.39.1,1.13,1.13,0,0,1-1.18-1.2Z"/><path class="s" d="M509.71,17.57h4.54a4.35,4.35,0,0,1,3.08,1,3.54,3.54,0,0,1,1.13,2.73,3.1,3.1,0,0,1-.57,1.87,3.29,3.29,0,0,1-1.52,1.14,3.17,3.17,0,0,1,1.84,1.23,3.69,3.69,0,0,1-.52,4.86,4.5,4.5,0,0,1-3.11,1.07h-4.87Zm1.92,6.09H514a2.52,2.52,0,0,0,1.81-.62,2.06,2.06,0,0,0,.67-1.6,2,2,0,0,0-.69-1.59,2.74,2.74,0,0,0-1.87-.59h-2.32Zm0,6.16h2.68a2.89,2.89,0,0,0,1.9-.61,2,2,0,0,0,.71-1.61,2.18,2.18,0,0,0-.65-1.67,2.63,2.63,0,0,0-1.88-.62h-2.76Z"/><path class="s" d="M523.2,31.51h-1.85V17.27h1.85Z"/><path class="s" d="M526.92,23.18a4.94,4.94,0,0,1,7,0,5,5,0,0,1,1.36,3.59,5.05,5.05,0,0,1-1.35,3.61,5,5,0,0,1-7,0,5.05,5.05,0,0,1-1.35-3.61A5,5,0,0,1,526.92,23.18Zm1.38,6.08a2.91,2.91,0,0,0,4.19,0,3.47,3.47,0,0,0,.85-2.49,3.43,3.43,0,0,0-.85-2.47,2.91,2.91,0,0,0-4.19,0,3.43,3.43,0,0,0-.85,2.47A3.47,3.47,0,0,0,528.3,29.26Z"/><path class="s" d="M541.56,23.47a2.7,2.7,0,0,0-2,.86,3.36,3.36,0,0,0-.84,2.44,3.4,3.4,0,0,0,.84,2.44,2.71,2.71,0,0,0,2.05.88,2.47,2.47,0,0,0,1.8-.59,2.85,2.85,0,0,0,.84-1.35l1.63.7a4.49,4.49,0,0,1-1.48,2.07,4.29,4.29,0,0,1-2.79.88,4.51,4.51,0,0,1-3.42-1.43,5.06,5.06,0,0,1-1.35-3.6,5,5,0,0,1,1.35-3.61,4.53,4.53,0,0,1,3.4-1.41,4.28,4.28,0,0,1,2.81.89,4.12,4.12,0,0,1,1.4,2.12l-1.67.71a3,3,0,0,0-.82-1.41A2.35,2.35,0,0,0,541.56,23.47Z"/><path class="s" d="M556.49,22.05l-4,4,4.11,5.47h-2.32l-3.09-4.17-1.32,1.32v2.85H548V17.27h1.83v9l4.09-4.19Z"/><path class="s" d="M563.23,19.4a1.24,1.24,0,0,1-.39-.93,1.28,1.28,0,0,1,.39-.94,1.21,1.21,0,0,1,.93-.4,1.28,1.28,0,0,1,.94.39,1.24,1.24,0,0,1,.4.95,1.21,1.21,0,0,1-.4.93,1.28,1.28,0,0,1-.94.39A1.24,1.24,0,0,1,563.23,19.4Zm1.85,12.11h-1.82V22.05h1.82Z"/><path class="s" d="M570.08,26v5.47h-1.85V22.05H570v1.36A3.14,3.14,0,0,1,573,21.77a3.09,3.09,0,0,1,2.51,1.05,4,4,0,0,1,.87,2.69v6h-1.85V25.83c0-1.59-.73-2.38-2.2-2.38a2,2,0,0,0-1.62.73A2.89,2.89,0,0,0,570.08,26Z"/><path class="s" d="M578.4,29.05l1.67-.59a2,2,0,0,0,.67,1.27,2.25,2.25,0,0,0,1.53.5,1.79,1.79,0,0,0,1.18-.36,1.13,1.13,0,0,0,.43-.9c0-.63-.4-1-1.21-1.22l-1.62-.35a3.15,3.15,0,0,1-1.73-.94,2.52,2.52,0,0,1-.63-1.72,2.71,2.71,0,0,1,1-2.1,3.43,3.43,0,0,1,2.36-.89,4.51,4.51,0,0,1,1.62.27,2.78,2.78,0,0,1,1.1.7,4.37,4.37,0,0,1,.59.8,3.28,3.28,0,0,1,.29.77L584,24.9a1.53,1.53,0,0,0-.14-.46,2.13,2.13,0,0,0-.3-.5,1.38,1.38,0,0,0-.6-.44,2.21,2.21,0,0,0-.93-.17,1.71,1.71,0,0,0-1.13.37,1.15,1.15,0,0,0-.44.89q0,.9,1.08,1.14l1.54.33a3.61,3.61,0,0,1,1.93,1,2.56,2.56,0,0,1,.68,1.8,2.78,2.78,0,0,1-.91,2,3.48,3.48,0,0,1-2.55.9,4,4,0,0,1-2.73-.87A3.06,3.06,0,0,1,578.4,29.05Z"/><path class="s" d="M590.65,19.06v3h2.05v1.67h-2.05v4.92a1.39,1.39,0,0,0,.3,1,1.4,1.4,0,0,0,1,.32,3.2,3.2,0,0,0,.73-.08v1.57a3.66,3.66,0,0,1-1.26.18,2.61,2.61,0,0,1-1.93-.71,2.69,2.69,0,0,1-.71-2V23.72H587V22.05h.51a1.38,1.38,0,0,0,1.09-.4,1.49,1.49,0,0,0,.37-1.06V19.06Z"/><path class="s" d="M600.21,22v2a5.73,5.73,0,0,0-.81-.06c-1.73,0-2.6,1-2.6,2.91v4.74H595V22.05h1.81V23.7a2.93,2.93,0,0,1,2.83-1.81A3.08,3.08,0,0,1,600.21,22Z"/><path class="s" d="M608.51,30.37a2.42,2.42,0,0,1-1.14,1.07,3.9,3.9,0,0,1-1.66.36,3.27,3.27,0,0,1-2.57-1.07,3.87,3.87,0,0,1-1-2.72v-6H604v5.68a2.86,2.86,0,0,0,.52,1.75,1.91,1.91,0,0,0,1.63.69,2.09,2.09,0,0,0,1.67-.66,2.59,2.59,0,0,0,.57-1.76v-5.7h1.85v7.71a16.11,16.11,0,0,0,.09,1.75h-1.77A7.05,7.05,0,0,1,608.51,30.37Z"/><path class="s" d="M617.28,23.47a2.72,2.72,0,0,0-2,.86,3.36,3.36,0,0,0-.83,2.44,3.39,3.39,0,0,0,.83,2.44,2.72,2.72,0,0,0,2.06.88,2.51,2.51,0,0,0,1.8-.59,2.91,2.91,0,0,0,.83-1.35l1.63.7a4.42,4.42,0,0,1-1.48,2.07,4.28,4.28,0,0,1-2.78.88,4.51,4.51,0,0,1-3.43-1.43,5.06,5.06,0,0,1-1.35-3.6,5,5,0,0,1,1.35-3.61,4.54,4.54,0,0,1,3.41-1.41,4.27,4.27,0,0,1,2.8.89,4.12,4.12,0,0,1,1.4,2.12l-1.67.71a3,3,0,0,0-.82-1.41A2.34,2.34,0,0,0,617.28,23.47Z"/><path class="s" d="M626.2,19.06v3h2v1.67h-2v4.92a1.39,1.39,0,0,0,.31,1,1.36,1.36,0,0,0,1,.32,3.13,3.13,0,0,0,.73-.08v1.57a3.62,3.62,0,0,1-1.26.18,2.64,2.64,0,0,1-1.93-.71,2.68,2.68,0,0,1-.7-2V23.72h-1.81V22.05h.51a1.39,1.39,0,0,0,1.09-.4,1.53,1.53,0,0,0,.36-1.06V19.06Z"/><path class="s" d="M630.68,19.4a1.24,1.24,0,0,1-.39-.93,1.28,1.28,0,0,1,.39-.94,1.23,1.23,0,0,1,.93-.4,1.31,1.31,0,0,1,.95.39,1.27,1.27,0,0,1,.39.95,1.24,1.24,0,0,1-.39.93,1.31,1.31,0,0,1-.95.39A1.25,1.25,0,0,1,630.68,19.4Zm1.86,12.11h-1.83V22.05h1.83Z"/><path class="s" d="M636.26,23.18a4.94,4.94,0,0,1,7,0,5,5,0,0,1,1.36,3.59,5.05,5.05,0,0,1-1.35,3.61,5,5,0,0,1-7,0,5.05,5.05,0,0,1-1.35-3.61A5,5,0,0,1,636.26,23.18Zm1.38,6.08a2.91,2.91,0,0,0,4.19,0,3.47,3.47,0,0,0,.85-2.49,3.43,3.43,0,0,0-.85-2.47,2.91,2.91,0,0,0-4.19,0,3.43,3.43,0,0,0-.85,2.47A3.47,3.47,0,0,0,637.64,29.26Z"/><path class="s" d="M648.78,26v5.47h-1.85V22.05h1.81v1.36a3.14,3.14,0,0,1,2.91-1.64,3.08,3.08,0,0,1,2.51,1.05,4,4,0,0,1,.87,2.69v6h-1.84V25.83c0-1.59-.74-2.38-2.21-2.38a2,2,0,0,0-1.62.73A2.89,2.89,0,0,0,648.78,26Z"/><path class="s" d="M657.1,29.05l1.67-.59a2,2,0,0,0,.67,1.27,2.25,2.25,0,0,0,1.53.5,1.79,1.79,0,0,0,1.18-.36,1.13,1.13,0,0,0,.43-.9c0-.63-.4-1-1.21-1.22l-1.62-.35a3.15,3.15,0,0,1-1.73-.94,2.52,2.52,0,0,1-.63-1.72,2.71,2.71,0,0,1,1-2.1,3.44,3.44,0,0,1,2.37-.89,4.49,4.49,0,0,1,1.61.27,2.78,2.78,0,0,1,1.1.7,4.37,4.37,0,0,1,.59.8,3.83,3.83,0,0,1,.3.77l-1.64.61a1.53,1.53,0,0,0-.14-.46,2.13,2.13,0,0,0-.3-.5,1.38,1.38,0,0,0-.6-.44,2.19,2.19,0,0,0-.92-.17,1.67,1.67,0,0,0-1.13.37,1.13,1.13,0,0,0-.45.89q0,.9,1.08,1.14l1.54.33a3.68,3.68,0,0,1,1.94,1,2.59,2.59,0,0,1,.67,1.8,2.78,2.78,0,0,1-.91,2,3.48,3.48,0,0,1-2.55.9,4,4,0,0,1-2.73-.87A3.06,3.06,0,0,1,657.1,29.05Z"/><path class="s" d="M667.17,24.29a1.28,1.28,0,0,1-.4-1,1.34,1.34,0,0,1,.4-1,1.31,1.31,0,0,1,1-.4,1.38,1.38,0,0,1,1.38,1.38,1.28,1.28,0,0,1-.41,1,1.34,1.34,0,0,1-1,.39A1.3,1.3,0,0,1,667.17,24.29Zm0,6.92a1.28,1.28,0,0,1-.4-1,1.31,1.31,0,0,1,.4-1,1.28,1.28,0,0,1,1-.41,1.4,1.4,0,0,1,1.38,1.38,1.28,1.28,0,0,1-.41,1,1.31,1.31,0,0,1-1,.4A1.28,1.28,0,0,1,667.19,31.21Z"/><path class="s" d="M679.32,31.51h-1.83V22.05h1.77v1.26a2.86,2.86,0,0,1,1.22-1.14,3.71,3.71,0,0,1,1.65-.4,3.18,3.18,0,0,1,1.69.46A2.62,2.62,0,0,1,685,23.56a3.37,3.37,0,0,1,3.17-1.79,3.17,3.17,0,0,1,2.31.93,3.55,3.55,0,0,1,1,2.67v6.14h-1.83V25.57a2.35,2.35,0,0,0-.5-1.57,1.86,1.86,0,0,0-1.51-.59,2,2,0,0,0-1.57.67,2.46,2.46,0,0,0-.61,1.71v5.72h-1.85V25.57A2.35,2.35,0,0,0,683,24a1.86,1.86,0,0,0-1.51-.59,2,2,0,0,0-1.59.67,2.44,2.44,0,0,0-.61,1.73Z"/><path class="s" d="M694.93,23.18a4.93,4.93,0,0,1,6.94,0,5,5,0,0,1,1.36,3.59,5.05,5.05,0,0,1-1.35,3.61,5,5,0,0,1-7,0,5,5,0,0,1-1.36-3.61A5,5,0,0,1,694.93,23.18Zm1.37,6.08a2.91,2.91,0,0,0,4.19,0,3.47,3.47,0,0,0,.86-2.49,3.44,3.44,0,0,0-.86-2.47,2.91,2.91,0,0,0-4.19,0,3.43,3.43,0,0,0-.85,2.47A3.47,3.47,0,0,0,696.3,29.26Z"/><path class="s" d="M712.22,30.23v-.16a3.11,3.11,0,0,1-1.13,1.21,3.27,3.27,0,0,1-1.8.48A4.07,4.07,0,0,1,706,30.34a5.3,5.3,0,0,1-1.23-3.59,5.14,5.14,0,0,1,1.26-3.51,4.08,4.08,0,0,1,3.22-1.45,3.48,3.48,0,0,1,1.89.47,2.4,2.4,0,0,1,1,1.13V17.27H714V29.76a13.43,13.43,0,0,0,.1,1.75h-1.79A6.93,6.93,0,0,1,712.22,30.23Zm-5.52-3.48a3.85,3.85,0,0,0,.73,2.44,2.44,2.44,0,0,0,2,.94,2.38,2.38,0,0,0,2-1,3.88,3.88,0,0,0,.75-2.46,3.66,3.66,0,0,0-.73-2.38,2.4,2.4,0,0,0-2-.9,2.49,2.49,0,0,0-2,.92A3.65,3.65,0,0,0,706.7,26.75Z"/><path class="s" d="M717.13,19.4a1.24,1.24,0,0,1-.39-.93,1.28,1.28,0,0,1,.39-.94,1.21,1.21,0,0,1,.93-.4,1.31,1.31,0,0,1,1,.39,1.27,1.27,0,0,1,.39.95,1.24,1.24,0,0,1-.39.93,1.31,1.31,0,0,1-1,.39A1.24,1.24,0,0,1,717.13,19.4ZM719,31.51h-1.83V22.05H719Z"/><path class="s" d="M726.89,23.72h-2.28v7.79H722.7V23.72H721V22.05h1.75V20.46a3.17,3.17,0,0,1,.89-2.38,3,3,0,0,1,2.22-.87,2,2,0,0,1,1.1.2v1.65a2.17,2.17,0,0,0-.8-.12,1.59,1.59,0,0,0-1.06.37,1.53,1.53,0,0,0-.44,1.24v1.5h2.28Z"/><path class="s" d="M731.53,35.46h-2l2.36-5-4.07-8.42h2.12l3,6.53,2.83-6.53h2Z"/><path class="s" d="M743.49,29.05l1.67-.59a2,2,0,0,0,.67,1.27,2.25,2.25,0,0,0,1.53.5,1.79,1.79,0,0,0,1.18-.36A1.14,1.14,0,0,0,749,29c0-.63-.41-1-1.22-1.22l-1.62-.35a3.15,3.15,0,0,1-1.73-.94,2.52,2.52,0,0,1-.63-1.72,2.74,2.74,0,0,1,1-2.1,3.44,3.44,0,0,1,2.37-.89,4.49,4.49,0,0,1,1.61.27,2.78,2.78,0,0,1,1.1.7,4.37,4.37,0,0,1,.59.8,3.83,3.83,0,0,1,.3.77l-1.64.61a1.86,1.86,0,0,0-.13-.46,2.63,2.63,0,0,0-.31-.5,1.38,1.38,0,0,0-.6-.44,2.19,2.19,0,0,0-.92-.17,1.67,1.67,0,0,0-1.13.37,1.13,1.13,0,0,0-.45.89c0,.6.36,1,1.09,1.14l1.53.33a3.68,3.68,0,0,1,1.94,1,2.59,2.59,0,0,1,.67,1.8,2.78,2.78,0,0,1-.91,2,3.48,3.48,0,0,1-2.55.9,4,4,0,0,1-2.73-.87A3.06,3.06,0,0,1,743.49,29.05Z"/><path class="s" d="M755.74,19.06v3h2v1.67h-2v4.92a1.39,1.39,0,0,0,.3,1,1.4,1.4,0,0,0,1,.32,3.2,3.2,0,0,0,.73-.08v1.57a3.66,3.66,0,0,1-1.26.18,2.61,2.61,0,0,1-1.93-.71,2.69,2.69,0,0,1-.71-2V23.72h-1.81V22.05h.51a1.41,1.41,0,0,0,1.1-.4,1.53,1.53,0,0,0,.36-1.06V19.06Z"/><path class="s" d="M765.3,22v2a5.73,5.73,0,0,0-.81-.06c-1.73,0-2.59,1-2.59,2.91v4.74h-1.85V22.05h1.81V23.7a2.93,2.93,0,0,1,2.83-1.81A3.08,3.08,0,0,1,765.3,22Z"/><path class="s" d="M767.24,19.4a1.24,1.24,0,0,1-.39-.93,1.28,1.28,0,0,1,.39-.94,1.21,1.21,0,0,1,.93-.4,1.28,1.28,0,0,1,.94.39,1.24,1.24,0,0,1,.4.95,1.21,1.21,0,0,1-.4.93,1.28,1.28,0,0,1-.94.39A1.24,1.24,0,0,1,767.24,19.4Zm1.85,12.11h-1.83V22.05h1.83Z"/><path class="s" d="M774.09,26v5.47h-1.85V22.05h1.81v1.36A3.14,3.14,0,0,1,777,21.77a3.09,3.09,0,0,1,2.51,1.05,4,4,0,0,1,.87,2.69v6h-1.85V25.83c0-1.59-.73-2.38-2.2-2.38a1.94,1.94,0,0,0-1.62.73A2.89,2.89,0,0,0,774.09,26Z"/><path class="s" d="M782.6,32l1.79-.41a2.56,2.56,0,0,0,.81,1.66,2.49,2.49,0,0,0,1.77.66c1.93,0,2.89-1,2.89-3.07V29.5a2.72,2.72,0,0,1-1.11,1.12,3.53,3.53,0,0,1-1.78.44,4.13,4.13,0,0,1-3.12-1.29,4.59,4.59,0,0,1-1.23-3.3,4.67,4.67,0,0,1,1.22-3.27A4.09,4.09,0,0,1,787,21.87a2.94,2.94,0,0,1,2.91,1.5V22.05h1.83V30.8a5.85,5.85,0,0,1-.25,1.76,4.7,4.7,0,0,1-.77,1.51,3.69,3.69,0,0,1-1.49,1.08,5.85,5.85,0,0,1-2.23.39,4.55,4.55,0,0,1-3-1A3.75,3.75,0,0,1,782.6,32Zm4.65-2.52a2.51,2.51,0,0,0,1.94-.83,3.17,3.17,0,0,0,.75-2.2,3.16,3.16,0,0,0-.75-2.19,2.48,2.48,0,0,0-1.94-.83,2.54,2.54,0,0,0-2,.82,3.12,3.12,0,0,0-.76,2.2,3.2,3.2,0,0,0,.74,2.22A2.57,2.57,0,0,0,787.25,29.5Z"/><path class="o" d="M246.39,280.87v1.28h-2.5v14.53h2.5V298H242.3v-17.1Z"/><path class="o" d="M319.4,298.53l.9-5.36h1.8l-1.48,5.36Z"/><path class="o" d="M396.05,298.53l.9-5.36h1.8l-1.48,5.36Z"/><path class="o" d="M472.7,298.53l.9-5.36h1.8l-1.48,5.36Z"/><path class="o" d="M549.35,298.53l.9-5.36h1.8l-1.48,5.36Z"/><path class="o" d="M620,298v-1.29h2.51V282.15H620v-1.28h4.09V298Z"/><use width="85.47" height="38.34" transform="translate(414.16 283.68) scale(0.41)" xlink:href="#a"/><use width="139.23" height="49.68" transform="translate(491.46 283.69) scale(0.29)" xlink:href="#b"/><use width="158.93" height="74.43" transform="translate(561.9 279.51) scale(0.29)" xlink:href="#f"/><use width="150.68" height="62.56" transform="translate(258.9 280.74) scale(0.29)" xlink:href="#g"/><use width="77.77" height="82.3" transform="translate(336.26 257.5) scale(0.54)" xlink:href="#h"/><path class="n" d="M102.31,80v1.28H99.8V95.76h2.51v1.29H98.22V80Z"/><path class="n" d="M169.87,97.61l.89-5.36h1.81l-1.49,5.36Z"/><path class="n" d="M241.06,97.61l.9-5.36h1.8l-1.48,5.36Z"/><path class="n" d="M312.26,97.61l.89-5.36H315l-1.48,5.36Z"/><path class="n" d="M383.45,97.61l.9-5.36h1.8l-1.48,5.36Z"/><path class="n" d="M448.61,97.05V95.76h2.51V81.23h-2.51V80h4.09v17.1Z"/><use width="85.47" height="38.34" transform="translate(256.44 82.76) scale(0.41)" xlink:href="#a"/><use width="139.23" height="49.68" transform="translate(328.74 82.77) scale(0.29)" xlink:href="#b"/><use width="158.93" height="74.43" transform="translate(394.18 78.59) scale(0.29)" xlink:href="#f"/><use width="150.68" height="62.56" transform="translate(111.18 79.82) scale(0.29)" xlink:href="#g"/><use width="146.05" height="61.89" transform="translate(189.33 80.2) scale(0.29)" xlink:href="#i"/><path class="t" d="M554.34,106a3.77,3.77,0,0,0,1.43-.36A19.86,19.86,0,0,1,566.55,103c6.66,0,41.44,3,41.44,3V99.89H553.47a3,3,0,0,0-3,3,9.47,9.47,0,0,0,.56,1.93C551.41,105.69,552.79,106.1,554.34,106Z"/><path class="t" d="M602.15,97.21v0c0,2.28,1.53,4.57,4.72,6.72a4.32,4.32,0,0,1-.2-1.32h0c0-4.8,7.53-9.47,21-12.06,20.17-3.88,46.07-1.63,57.83,5,3.91,2.21,5.77,4.64,5.76,7a4.85,4.85,0,0,1-.2,1.35c3.1-2.11,4.72-4.42,4.73-6.76,0-2.64-2-5.33-6.38-7.78-13-7.37-41.69-9.86-64-5.57C610.49,86.73,602.16,91.9,602.15,97.21Z"/><path class="o" d="M606.67,102.62h0a4.32,4.32,0,0,0,.2,1.32c.51.36,1.06.7,1.66,1,13,7.37,41.68,9.87,64,5.57,8.33-1.6,14.6-3.93,18.51-6.59a4.85,4.85,0,0,0,.2-1.35c0-2.39-1.85-4.82-5.76-7-11.76-6.66-37.66-8.91-57.83-5C614.2,93.15,606.69,97.82,606.67,102.62Z"/><path class="t" d="M602.59,99.33c1.84,4,6.66,8.52,9.85,10.32,11.76,6.66,37.67,9,57.83,5,18.11-3.54,24.25-12.36,25.52-16.67-3.91,2.66-6.7,8.83-23.24,12.55-22.19,5-51,1.8-64-5.57C607.93,104.65,603.1,99.69,602.59,99.33Z"/><use width="77.77" height="82.3" transform="translate(623.65 58.42) scale(0.63)" xlink:href="#h"/><path class="t" d="M552.13,100.21a18.17,18.17,0,0,1,2.61-2.2c.39,0,47.41-.8,47.41-.8l1.85,3.45Z"/><circle class="p" cx="493.68" cy="87.72" r="18.04"/></svg>