<svg xmlns="http://www.w3.org/2000/svg" xmlns:xlink="http://www.w3.org/1999/xlink" viewBox="0 0 900 450"><defs><style>.a{fill:#c29644;}.b{fill:#fec75e;}.c,.n{fill:#4b4b4b;}.c{opacity:0.2;}.c,.r{mix-blend-mode:multiply;}.d{fill:#ed2627;}.e{fill:#fddfe0;opacity:0.8;}.f{fill:#cd362c;}.g{fill:#f1e5ce;}.h{fill:#fef6ea;}.i{fill:#741a14;}.j,.o{fill:none;}.k{fill:#a92b22;}.l{fill:#fff;}.m{isolation:isolate;}.o{stroke:#fff;stroke-miterlimit:10;stroke-width:3px;stroke-dasharray:2 5;}.p{fill:#7e73ff;}.q{fill:#eceaff;}.r{fill:#574fb0;opacity:0.3;}</style><symbol id="a" viewBox="0 0 150.68 62.56"><path class="a" d="M150.66,25.43a47.39,47.39,0,0,1-1.69,10c-1.55,5.67-6.17,10.33-7,11.14a25.48,25.48,0,0,1-4.86,3.78l-.3.19c-.33.19-.66.39-1,.58l-.17.1c-.18.1-.35.2-.54.29-.37.21-.76.41-1.15.62l-.61.29-1,.47-.71.33-1.27.55-.5.21c-.54.22-1.08.44-1.63.64l-.4.16-1.87.67-.2.07a118.48,118.48,0,0,1-18.09,4.46l-.29.05-.68.11a192,192,0,0,1-30,2.45H73.93A191.82,191.82,0,0,1,44,60.1L43.3,60l-.3-.05a119.07,119.07,0,0,1-18.09-4.46l-.2-.07-1.87-.67-.4-.16c-.55-.2-1.09-.42-1.63-.64l-.5-.21-1.26-.55-.72-.33-1-.47-.61-.29-1.16-.62-.53-.29-.18-.1-1-.58-.31-.19A25.8,25.8,0,0,1,8.7,46.53c-.83-.81-5.45-5.47-7-11.14A46.64,46.64,0,0,1,0,25.46C.64,33.8,14,41.85,37.4,46.35c35.94,6.92,82.06,2.91,103-9C147.07,33.62,150.39,29.52,150.66,25.43Z"/><path class="b" d="M150.68,24.87c0,.14,0,.29,0,.43s0,.09,0,.13c-.27,4.09-3.59,8.19-10.25,12-21,11.86-67.07,15.87-103,9C14,41.85.64,33.8,0,25.46a.86.86,0,0,1,0-.16v-.13c0-.19,0-.3,0-.3H0C0,20.6,3.3,16.29,10.26,12.35c21-11.87,67.07-15.88,103-9C137.26,8,150.65,16.32,150.68,24.87Z"/><ellipse class="c" cx="73.42" cy="21.71" rx="56.43" ry="17.74"/><path class="c" d="M49.37,48.89v12q-2.73-.36-5.4-.8L43.3,60l-.3-.06a117.89,117.89,0,0,1-18.09-4.46l-.19-.07c-.64-.22-1.27-.45-1.88-.68l-.39-.14-1.63-.65-.51-.21L19,53.18l-.7-.32-1-.48-.61-.3-1.15-.6-.53-.3-.18-.09-1-.6a3,3,0,0,1-.3-.18,25.17,25.17,0,0,1-4.86-3.78c-.84-.81-5.45-5.47-7-11.14A46.06,46.06,0,0,1,0,25.25C.15,28.14,1.82,31,4.92,33.7c5.17,5.14,14.86,9.67,28.43,12.66A142.42,142.42,0,0,0,49.37,48.89Z"/></symbol><symbol id="b" viewBox="0 0 146.05 61.89"><path class="i" d="M146.05,24V38.69h0c-.34,3.85-3.54,7.74-9.85,11.32C116,61.43,71.57,65.29,37,58.63c-22.4-4.31-35.2-12-36-19.94H1a31.09,31.09,0,0,1-.88-5.61C-.31,26.7,1,23.94,1,23.94c0,8.24,12.92,16.25,36,20.69,34.61,6.66,79,2.8,99.2-8.63C142.86,32.21,146.05,28.06,146.05,24Z"/><line class="j" x1="0.95" y1="24.72" x2="0.95" y2="37.25"/><path class="k" d="M146.05,23.94v0c0,4.09-3.19,8.24-9.89,12C116,47.43,71.57,51.29,37,44.63,13.87,40.19,1,32.18,1,23.94c0-4.09,3.17-8.25,9.89-12C31,.46,75.43-3.4,110,3.26,133.13,7.71,146,15.71,146.05,23.94Z"/><ellipse class="c" cx="63.14" cy="20.71" rx="29.51" ry="11.13"/><path class="c" d="M28.79,42.8c2.56.66,5.29,1.28,8.17,1.83q5.24,1,10.72,1.69v14Q42.21,59.63,37,58.63c-22.4-4.31-35.2-12-36-20H1a30.82,30.82,0,0,1-.88-5.6C-.31,26.71,1,24,1,24c0,7.2,9.9,14.23,27.84,18.85"/></symbol><symbol id="c" viewBox="0 0 85.47 38.34"><path class="d" d="M85.47,29.47c0,3.41-7.75,6.37-19.12,7.85,2.36-1,3.69-2.24,3.69-3.5C70,29.5,54.52,26,35.37,26,20.29,26,7.45,28.17,2.68,31.21A8.39,8.39,0,0,1,0,25.35C0,21,4.13,17.14,10.27,15.06c.38-2.24,4.57-4.1,10.2-4.69C22.53,4.43,30.47,0,40,0S57.21,4.34,59.36,10.18h.92c7.77,0,14.07,2.34,14.07,5.22a.66.66,0,0,1,0,.14c6.46,1,11.13,4,11.13,7.57a5.07,5.07,0,0,1-1.76,3.62A3.62,3.62,0,0,1,85.47,29.47Z"/><ellipse class="e" cx="62.69" cy="15.7" rx="7.5" ry="3.47"/><ellipse class="e" cx="78.36" cy="19.95" rx="2.92" ry="1.35"/><ellipse class="e" cx="39.35" cy="2.84" rx="6.1" ry="2.84"/><path class="f" d="M70,33.82c0,1.26-1.33,2.45-3.69,3.5a128.53,128.53,0,0,1-16.54,1,119.26,119.26,0,0,1-21.55-1.81,34.81,34.81,0,0,1-7.38.77c-7.81,0-14.62-2.46-18.2-6.09C7.45,28.17,20.29,26,35.37,26,54.52,26,70,29.5,70,33.82Z"/></symbol><symbol id="e" viewBox="0 0 155.19 57.24"><path class="g" d="M155.18,25.61c0,4.39-3.39,8.84-10.56,12.9C123,50.73,75.53,54.86,38.52,47.74,13.82,43,0,34.42,0,25.61H0v6H0C0,40.44,13.82,49,38.52,53.75c37,7.13,84.52,3,106.1-9.22,7.17-4.06,10.58-8.51,10.56-12.9h0v-6Z"/><path class="h" d="M116.67,3.49c-37-7.12-84.52-3-106.1,9.23C3.4,16.78,0,21.22,0,25.61v.19a3.52,3.52,0,0,0,.05.64c0,.13,0,.27.05.41a9.11,9.11,0,0,0,.4,1.64l.05.11a1.42,1.42,0,0,0,.1.29c.06.14.11.28.17.41s.13.27.19.41.13.26.2.38,0,0,0,0c.15.27.31.54.47.8a0,0,0,0,0,0,0c.09.13.17.26.27.39a12.28,12.28,0,0,0,.9,1.18l0,0c.21.25.44.51.68.77l0,0c.12.13.25.25.38.38l.82.78.44.38.46.39c.31.25.63.5,1,.75l.23.17,0,0,.6.43c.78.54,1.61,1.07,2.5,1.59l.58.33.43.24.35.2c.11.06.22.13.35.19l.88.45,1.13.56.85.4c.53.25,1.09.49,1.65.73l.78.33,1.63.65,1.51.56c.55.2,1.1.4,1.67.59l.85.28.87.29.15,0h0l.71.22.9.28.92.27,1.5.43,1,.26,1,.28.88.22.41.1c.62.16,1.24.31,1.87.45l2,.45,1.32.28,1.14.22,1.15.23q4.27.83,8.73,1.45c1.3.19,2.62.36,4,.52,1.82.22,3.67.41,5.52.58l1.8.16c1.1.1,2.2.18,3.31.25,1.27.09,2.55.17,3.83.23s2.55.13,3.83.17c3.93.14,7.87.17,11.79.11l1.25,0c1,0,2,0,3-.08l2-.07.27,0c.75,0,1.5-.06,2.25-.11l2.39-.14.91-.06,1.77-.12,1.59-.13,1.39-.12.81-.08,1.08-.11c.37,0,.73-.06,1.09-.11l.37,0,1.65-.18c1.11-.13,2.22-.27,3.32-.42l1.06-.14.4,0L109,49c.88-.13,1.74-.26,2.61-.41l1-.16.32-.06,1.66-.28,1.77-.33c1.8-.34,3.55-.71,5.27-1.09l1.45-.34c2.09-.5,4.12-1,6.06-1.61l1.73-.52.5-.16h0l.73-.23c1.94-.63,3.79-1.31,5.54-2l.75-.31.25-.1,1.57-.69.33-.15c.77-.35,1.53-.72,2.25-1.09l.82-.43,1-.53c.85-.48,1.64-1,2.39-1.46l.44-.3.43-.29.41-.3a23.9,23.9,0,0,0,3.22-2.75c.26-.27.51-.54.74-.81s.45-.54.65-.81.21-.27.3-.41.19-.27.27-.41a4.53,4.53,0,0,0,.26-.4c.08-.14.16-.27.23-.42s.29-.54.41-.81.11-.28.17-.41.07-.2.11-.29,0-.08,0-.13.09-.27.13-.41a5.09,5.09,0,0,0,.19-.77s0,0,0-.06l.06-.4.06-.41a7.5,7.5,0,0,0,0-.82v0C155.16,16.81,141.37,8.24,116.67,3.49Zm26,25.15a11.32,11.32,0,0,1-2,3.12,24.07,24.07,0,0,1-5.61,4.4l-.66.38c-18.27,10.34-58.49,13.83-89.83,7.8-10.57-2-18.79-4.89-24.32-8.18a23.71,23.71,0,0,1-5.6-4.41,11.43,11.43,0,0,1-2.06-3.15c-2-4.65.6-9.54,8.32-13.91.92-.52,1.9-1,2.94-1.52C43.17,4,80.92,1.16,110.68,6.88a88.84,88.84,0,0,1,20.76,6.31h0C140.92,17.67,145,23.21,142.66,28.64Z"/><path class="g" d="M142.66,28.64c-2.7-6.36-13.88-12.25-32-15.74-31.34-6-71.56-2.53-89.83,7.81-4.43,2.51-7.16,5.19-8.32,7.89-2-4.65.6-9.54,8.32-13.91.92-.52,1.9-1,2.94-1.52C43.17,4,80.92,1.16,110.68,6.88a88.84,88.84,0,0,1,20.76,6.31h0C140.92,17.67,145,23.21,142.66,28.64Z"/></symbol><symbol id="d" viewBox="0 0 139.22 49.68"><use width="155.19" height="57.24" transform="translate(-2.1 7.89) rotate(-8.27) scale(0.58)" xlink:href="#e"/><use width="155.19" height="57.24" transform="matrix(0.58, 0.08, -0.08, 0.58, 51.21, -4.4)" xlink:href="#e"/><use width="155.19" height="57.24" transform="translate(24.92 18.15) rotate(-2.59) scale(0.58)" xlink:href="#e"/></symbol><symbol id="h" viewBox="0 0 158.93 74.43"><path class="b" d="M145.63,26.05C125.89,6.06,103.49.57,80.85,0V0H78.08V0c-22.64.53-45,6-64.78,26C8.59,30.82,0,44.27,0,47.68c0,9.2,14.42,18.14,40.22,23.11A216.35,216.35,0,0,0,78.08,74.4v0h2.77v0a216.35,216.35,0,0,0,37.86-3.61c25.8-5,40.2-13.91,40.22-23.11C158.93,44.27,150.34,30.82,145.63,26.05Z"/><path class="l" d="M49.82,11.12c.37,1.64-.32,2.87-1.39,2.87S46.7,12.73,47,11.12c.31-1.46.8-2.74,1.39-2.74S49.49,9.67,49.82,11.12Z"/><path class="l" d="M36,15.69C36,14,37,13,38,13.21s1.41,1.61.71,3.1-1.38,2.5-2,2.37S36,17.19,36,15.69Z"/><path class="l" d="M34.39,23c1.57-.58,2.88,0,3,1s-1,1.88-2.66,1.74-2.82-.44-2.9-1S33,23.48,34.39,23Z"/><path class="l" d="M51.63,24.06c.52,1.59-.06,2.88-1.12,3s-1.84-1.1-1.64-2.72.54-2.81,1.14-2.86S51.17,22.64,51.63,24.06Z"/><path class="l" d="M54.79,17.7c.33-1.65,1.46-2.49,2.44-2s1.07,1.86.1,3.18S55.49,21,54.94,20.77,54.5,19.16,54.79,17.7Z"/><path class="l" d="M106.24,23.87c.72,1.53.31,2.87-.73,3.1s-2-.86-2-2.5c0-1.49.19-2.85.77-3S105.61,22.52,106.24,23.87Z"/><path class="l" d="M86.05,27.4c-.23,1.67-1.31,2.57-2.31,2.2s-1.17-1.8-.29-3.17,1.71-2.29,2.27-2.08S86.26,25.93,86.05,27.4Z"/><path class="l" d="M115.54,15.39c.44-1.63,1.62-2.39,2.57-1.89s.94,1.93-.11,3.18-2,2.06-2.51,1.78S115.16,16.83,115.54,15.39Z"/><path class="l" d="M103.54,16c1.09-1.28,2.49-1.46,3.13-.61s0,2.15-1.47,2.83-2.67,1-3,.53S102.57,17.1,103.54,16Z"/><path class="l" d="M117.69,28.19c.49-1.61,1.7-2.33,2.63-1.8s.88,2-.22,3.18-2,2-2.57,1.69S117.26,29.62,117.69,28.19Z"/><path class="l" d="M104.94,10.42c1.33,1,1.56,2.43.74,3.1s-2.15.12-2.89-1.34-1.11-2.63-.65-3S103.77,9.5,104.94,10.42Z"/><path class="l" d="M110.19,17.81c.71,1.52.29,2.86-.75,3.09s-2-.86-2-2.5.2-2.85.78-3S109.55,16.45,110.19,17.81Z"/><path class="l" d="M73.16,14.15c.53,1.59,0,2.88-1.1,3s-1.85-1.09-1.66-2.72c.16-1.48.51-2.8,1.11-2.86S72.69,12.73,73.16,14.15Z"/><path class="l" d="M88.15,13.11c1.56-.62,2.88-.13,3,.92s-1,1.91-2.62,1.82c-1.49-.08-2.83-.35-2.92-.94S86.76,13.67,88.15,13.11Z"/><path class="l" d="M80,19.52c.57,1.58,0,2.88-1,3s-1.87-1-1.74-2.67.45-2.82,1-2.9S79.51,18.12,80,19.52Z"/><path class="l" d="M68.94,28.84c-.28-1.66.48-2.85,1.54-2.79s1.66,1.36,1.23,2.94-.94,2.69-1.54,2.66S69.19,30.31,68.94,28.84Z"/><path class="l" d="M132.18,23.16c1.38,1,1.68,2.34.89,3.05s-2.13.23-2.95-1.19-1.25-2.57-.8-3S131,22.3,132.18,23.16Z"/><path class="l" d="M28.82,18.3c1.58-.58,2.89-.05,3,1s-1,1.88-2.66,1.74-2.82-.43-2.9-1S27.42,18.81,28.82,18.3Z"/><path class="l" d="M22.92,25.8c.12-1.67,1.14-2.64,2.16-2.33s1.29,1.71.49,3.14S24,29,23.44,28.83,22.81,27.29,22.92,25.8Z"/><path class="l" d="M122.43,18.73c-.63,1.55-1.9,2.17-2.77,1.56s-.71-2,.49-3.15,2.22-1.8,2.71-1.46S123,17.34,122.43,18.73Z"/><path class="l" d="M94.7,23.05c1.53-.69,2.87-.26,3.08.79s-.89,1.95-2.53,1.93c-1.49,0-2.84-.22-3-.81S93.34,23.67,94.7,23.05Z"/><path class="c" d="M36,69.92C12.87,64.83,0,56.37,0,47.68c0-3.41,8.59-16.86,13.3-21.63C32.44,6.66,54.09.92,76,.1,62.31,4.87,33.93,31.83,36,69.92Z"/><path class="l" d="M119.67,8.82c1.66-.29,2.85.46,2.8,1.53s-1.35,1.66-2.94,1.24c-1.44-.39-2.7-.93-2.67-1.53S118.2,9.07,119.67,8.82Z"/><path class="l" d="M94.66,3.49c1.67.23,2.58,1.3,2.21,2.3S95.08,7,93.7,6.09s-2.3-1.7-2.09-2.26S93.18,3.29,94.66,3.49Z"/><path class="l" d="M77.58,6.76c0-1.68,1-2.71,2-2.45S81,6,80.28,7.42s-1.43,2.48-2,2.33S77.55,8.25,77.58,6.76Z"/><path class="l" d="M64.6,5.06c1,1.39.78,2.78-.22,3.18S62.31,7.72,62,6.1c-.26-1.47-.29-2.84.26-3.06S63.75,3.84,64.6,5.06Z"/><path class="l" d="M92.17,7.94c1.64.39,2.43,1.55,2,2.51s-1.9,1-3.18,0S88.84,8.51,89.1,8,90.72,7.6,92.17,7.94Z"/><path class="l" d="M71.05,5.34c1.55.66,2.14,1.94,1.51,2.81s-2,.66-3.13-.55S67.67,5.35,68,4.86,69.68,4.76,71.05,5.34Z"/></symbol></defs><g class="m"><rect class="n" x="76.31" y="14.42" width="711.01" height="412.72"/><use width="150.68" height="62.56" transform="translate(144.61 298.29) scale(1.34)" xlink:href="#a"/><use width="146.05" height="61.89" transform="translate(147.71 243.76) scale(1.34)" xlink:href="#b"/><use width="85.47" height="38.34" transform="translate(188.23 209.17) scale(1.34)" xlink:href="#c"/><use width="139.23" height="49.68" transform="translate(152.28 157.78) scale(1.34)" xlink:href="#d"/><use width="158.93" height="74.43" transform="translate(139.73 68.01) scale(1.34)" xlink:href="#h"/><rect class="o" x="403.66" y="59.91" width="360.2" height="91.78" rx="18.45"/><use width="146.05" height="61.89" transform="translate(433.85 88.87) scale(0.38)" xlink:href="#b"/><use width="85.47" height="38.34" transform="translate(556.93 89.1) scale(0.53)" xlink:href="#c"/><use width="139.23" height="49.68" transform="translate(673.03 90.42) scale(0.38)" xlink:href="#d"/><use width="146.05" height="61.89" transform="translate(433.85 88.87) scale(0.38)" xlink:href="#b"/><path class="l" d="M447.15,123.77c1.55,0,2.62.77,2.78,2h-1.16a1.5,1.5,0,0,0-1.62-1c-.88,0-1.56.44-1.56,1.1,0,.51.41.82,1.28,1l1.13.27c1.39.34,2.06.94,2.06,2,0,1.32-1.28,2.23-2.95,2.23s-2.77-.79-2.9-2h1.21a1.62,1.62,0,0,0,1.73,1c1,0,1.7-.47,1.7-1.15,0-.51-.38-.85-1.17-1l-1.26-.31c-1.38-.33-2-.93-2-2C444.41,124.69,445.59,123.77,447.15,123.77Z"/><path class="l" d="M453.5,122v1.91h1.65v1H453.5v4.17c0,.87.33,1.24,1.1,1.24a3.44,3.44,0,0,0,.55,0v1a4.11,4.11,0,0,1-.69.06c-1.52,0-2.13-.56-2.13-2v-4.48h-1.19v-1h1.19V122Z"/><path class="l" d="M462.88,129.36a2.94,2.94,0,0,1-3.11,2c-2,0-3.32-1.48-3.32-3.81s1.3-3.82,3.32-3.82,3.2,1.42,3.2,3.71v.45h-5.3v0c.07,1.46.88,2.38,2.13,2.38a1.91,1.91,0,0,0,1.9-1ZM457.67,127h4.07a2,2,0,0,0-2-2.17A2.1,2.1,0,0,0,457.67,127Z"/><path class="l" d="M464.38,129.21c0-1.32,1-2.08,2.69-2.19l2.12-.13v-.67c0-.9-.56-1.4-1.66-1.4-.89,0-1.5.33-1.67.91h-1.19c.16-1.18,1.32-2,2.9-2,1.79,0,2.8.92,2.8,2.45v5.05h-1.12v-1.09h-.11a2.55,2.55,0,0,1-2.27,1.22A2.24,2.24,0,0,1,464.38,129.21Zm4.81-.69v-.68l-2,.13c-1.12.08-1.61.47-1.61,1.21s.63,1.19,1.49,1.19A1.94,1.94,0,0,0,469.19,128.52Z"/><path class="l" d="M477.1,123.9h1.44l-3.17,3.16,3.38,4.21h-1.5l-2.76-3.45-.7.65v2.8h-1.18V121h1.18v6.15h.11Z"/><path class="l" d="M559.93,123.9h1.45l-3.18,3.16,3.39,4.21h-1.5l-2.76-3.45-.71.65v2.8h-1.17V121h1.17v6.15h.11Z"/><path class="l" d="M568.7,129.36a2.94,2.94,0,0,1-3.11,2c-2,0-3.32-1.48-3.32-3.81s1.3-3.82,3.32-3.82,3.2,1.42,3.2,3.71v.45H563.5v0c.06,1.46.87,2.38,2.12,2.38a1.91,1.91,0,0,0,1.9-1ZM563.5,127h4.06a2,2,0,0,0-2-2.17A2.09,2.09,0,0,0,563.5,127Z"/><path class="l" d="M572.31,122v1.91H574v1h-1.64v4.17c0,.87.32,1.24,1.09,1.24a3.44,3.44,0,0,0,.55,0v1a4.11,4.11,0,0,1-.69.06c-1.52,0-2.13-.56-2.13-2v-4.48h-1.19v-1h1.19V122Z"/><path class="l" d="M580.53,126.16a1.82,1.82,0,0,0-1.9-1.33c-1.33,0-2.16,1.06-2.16,2.73s.85,2.78,2.16,2.78a1.78,1.78,0,0,0,1.9-1.29h1.19a2.84,2.84,0,0,1-3.08,2.35c-2.07,0-3.39-1.5-3.39-3.84s1.32-3.79,3.38-3.79a2.89,2.89,0,0,1,3.09,2.39Z"/><path class="l" d="M583.52,121h1.18v4.09h.11a2.3,2.3,0,0,1,2.27-1.29,2.43,2.43,0,0,1,2.54,2.73v4.77h-1.17v-4.48c0-1.31-.59-2-1.71-2a1.9,1.9,0,0,0-2,2.08v4.36h-1.18Z"/><path class="l" d="M597.73,131.27h-1.12v-1.16h-.11a2.31,2.31,0,0,1-2.28,1.29c-1.66,0-2.52-1-2.52-2.73V123.9h1.18v4.48c0,1.33.49,2,1.66,2a1.86,1.86,0,0,0,2-2.07V123.9h1.18Z"/><path class="l" d="M606.63,127.58c0,2.31-1.22,3.82-3.1,3.82a2.47,2.47,0,0,1-2.3-1.24h-.11v3.57h-1.18V123.9h1.13v1.23h.1a2.67,2.67,0,0,1,2.36-1.36C605.41,123.77,606.63,125.27,606.63,127.58Zm-1.22,0c0-1.72-.8-2.75-2.15-2.75s-2.17,1.06-2.17,2.75.84,2.76,2.16,2.76S605.41,129.31,605.41,127.58Z"/><path class="l" d="M680.43,127.58c0-2.37,1.3-3.81,3.4-3.81s3.39,1.44,3.39,3.81-1.29,3.82-3.39,3.82S680.43,130,680.43,127.58Zm5.58,0c0-1.75-.79-2.75-2.18-2.75s-2.18,1-2.18,2.75.78,2.76,2.18,2.76S686,129.33,686,127.58Z"/><path class="l" d="M689.07,123.9h1.12v1.16h.11a2.22,2.22,0,0,1,2.22-1.29,2.4,2.4,0,0,1,2.57,2.73v4.77h-1.17v-4.48c0-1.33-.56-2-1.74-2a1.87,1.87,0,0,0-1.93,2.08v4.36h-1.18Z"/><path class="l" d="M697,121.66a.82.82,0,1,1,.82.82A.82.82,0,0,1,697,121.66Zm.24,2.24h1.17v7.37h-1.17Z"/><path class="l" d="M700.32,127.58c0-2.37,1.29-3.81,3.39-3.81s3.4,1.44,3.4,3.81-1.3,3.82-3.4,3.82S700.32,130,700.32,127.58Zm5.57,0c0-1.75-.78-2.75-2.18-2.75s-2.18,1-2.18,2.75.79,2.76,2.18,2.76S705.89,129.33,705.89,127.58Z"/><path class="l" d="M709,123.9h1.12v1.16h.11a2.21,2.21,0,0,1,2.21-1.29A2.4,2.4,0,0,1,715,126.5v4.77H713.8v-4.48c0-1.33-.56-2-1.73-2a1.87,1.87,0,0,0-1.94,2.08v4.36H709Z"/><path class="l" d="M719.7,123.77c1.55,0,2.62.77,2.78,2h-1.16a1.51,1.51,0,0,0-1.62-1c-.88,0-1.56.44-1.56,1.1,0,.51.41.82,1.28,1l1.13.27c1.39.34,2.06.94,2.06,2,0,1.32-1.28,2.23-3,2.23s-2.76-.79-2.89-2H718a1.62,1.62,0,0,0,1.73,1c1,0,1.7-.47,1.7-1.15,0-.51-.39-.85-1.17-1l-1.27-.31c-1.38-.33-2-.93-2-2C717,124.69,718.14,123.77,719.7,123.77Z"/><use width="85.47" height="38.34" transform="translate(556.93 89.1) scale(0.53)" xlink:href="#c"/><use width="139.23" height="49.68" transform="translate(673.03 90.42) scale(0.38)" xlink:href="#d"/><path class="l" d="M514.31,97.2h4.89V92.13h2.57V97.2h4.89v2.47h-4.89v5.12H519.2V99.67h-4.89Z"/><path class="l" d="M633.76,100.78h4.89V95.71h2.57v5.07h4.89v2.47h-4.89v5.12h-2.57v-5.12h-4.89Z"/><rect class="c" x="456.63" y="178.74" width="196.35" height="157.47" transform="translate(-43.36 129.81) rotate(-12.85)"/><path class="p" d="M442.65,172.21c30.36-5.17,123.47-20.92,192-43.59,17.83,51.29,43.36,120,73.2,144.24-55,43.07-197.64,43.93-207.39,41.18C484.14,305.24,448,205.92,442.65,172.21Z"/><rect class="q" x="580.27" y="197.8" width="69.42" height="30.47" transform="translate(-34.16 166.11) rotate(-14.97)"/><path class="l" d="M499.31,252.42c-4.53,1.22-8.32-1.35-9.72-6.59s.65-9.36,5.13-10.56c3.63-1,6.81.35,8.27,3.44l-2.08.55a4.77,4.77,0,0,0-5.68-2.1c-3.25.87-4.63,4-3.54,8.11s3.83,6.15,7.13,5.27c2.92-.79,4.41-3.19,3.67-6l-.11-.4-4.61,1.24-.48-1.8,6.64-1.77.54,2C505.55,247.89,503.5,251.3,499.31,252.42Z"/><path class="l" d="M506.25,237l1.86-.49.49,1.81.18-.05a3.54,3.54,0,0,1,2.85-2.94,9.14,9.14,0,0,1,1-.2l.52,2a8.7,8.7,0,0,0-1.27.22,3.1,3.1,0,0,0-2.42,3.83l2,7.59-2,.52Z"/><path class="l" d="M513.77,231a1.41,1.41,0,1,1,1.72,1A1.41,1.41,0,0,1,513.77,231Zm1.38,3.62,2-.52,3.27,12.24-2,.52Z"/><path class="l" d="M519.64,228.26l2-.53,4.57,17.1-1.95.52Z"/><path class="l" d="M525.5,226.69l2-.52L532,243.26l-1.95.52Z"/><path class="l" d="M541,224.35l.85,3.17,2.72-.73.44,1.63-2.72.73,1.85,6.93c.38,1.44,1.09,1.91,2.36,1.57a9.43,9.43,0,0,0,.9-.29l.44,1.64a6.59,6.59,0,0,1-1.12.42c-2.52.68-3.78,0-4.4-2.32l-2-7.43-2,.53-.44-1.63,2-.53-.85-3.17Z"/><path class="l" d="M546.36,221.11l1.95-.52,1.82,6.79.18,0a3.93,3.93,0,0,1,3.19-3.15c2.59-.7,4.67.52,5.44,3.39l2.11,7.93-1.95.52-2-7.45c-.58-2.16-1.84-3-3.69-2.49a3.27,3.27,0,0,0-2.47,4.36l1.93,7.24-2,.53Z"/><path class="l" d="M573.83,228.69c0,2.24-1.57,4-4.25,4.76-3.39.91-6.17-1-7.21-4.85s.46-6.92,3.82-7.82,5.94.93,7,4.73l.2.75-8.8,2.35,0,.1c.75,2.39,2.51,3.56,4.58,3a3.3,3.3,0,0,0,2.72-2.5Zm-9.7-1.65,6.74-1.81c-.62-2.15-2.3-3.24-4.24-2.72S563.7,224.83,564.13,227Z"/><path class="p" d="M599,218.78c1,3.83-.34,6.88-3.45,7.71a4.22,4.22,0,0,1-4.37-1l-.18,0,1.58,5.92-2,.53-4.37-16.32,1.86-.5.55,2,.18-.05a4.58,4.58,0,0,1,3.31-3.3C595.33,213,598,214.94,599,218.78Zm-2,.54c-.77-2.86-2.56-4.21-4.8-3.61s-3.14,2.72-2.39,5.54,2.62,4.2,4.83,3.61S597.78,222.18,597,219.32Z"/><path class="p" d="M602.1,220.85c-.59-2.19.69-3.88,3.49-4.81l3.47-1.16-.3-1.12c-.4-1.51-1.56-2.08-3.39-1.59-1.46.39-2.34,1.22-2.35,2.25l-2,.53c-.26-2,1.32-3.84,3.93-4.54,3-.8,5.07.29,5.75,2.83l2.24,8.38-1.86.49-.49-1.8-.18.05a4.36,4.36,0,0,1-3.23,3C604.83,224,602.69,223.09,602.1,220.85Zm7.68-3.27-.3-1.13-3.23,1.1c-1.83.62-2.47,1.49-2.15,2.71s1.59,1.7,3,1.32A3.33,3.33,0,0,0,609.78,217.58Z"/><path class="p" d="M615.22,204.51l.84,3.17,2.73-.73.44,1.63-2.73.73,1.85,6.92c.39,1.45,1.1,1.91,2.37,1.57a6.15,6.15,0,0,0,.89-.29l.44,1.65a6.49,6.49,0,0,1-1.11.42c-2.52.67-3.78,0-4.41-2.32l-2-7.43-2,.53-.43-1.63,2-.53-.85-3.17Z"/><path class="p" d="M623.66,202.25l.85,3.17,2.72-.73.44,1.63-2.72.73L626.8,214c.38,1.44,1.09,1.91,2.36,1.57.35-.1.55-.16.9-.29l.44,1.64a6.59,6.59,0,0,1-1.12.42c-2.52.68-3.78,0-4.4-2.32l-2-7.43-2,.53-.44-1.63,2-.53-.85-3.17Z"/><path class="p" d="M634.79,220.45l-.44-1.67a5.26,5.26,0,0,0,.83-.16c1.12-.3,1.59-1,1.71-2.61l0-.79-7.8-11,2.11-.57,6,9.17.18,0,.66-11,2.08-.56-1.31,14.26c-.29,3.12-1,4.22-3.21,4.8A6.1,6.1,0,0,1,634.79,220.45Z"/><rect class="r" x="449.5" y="141.84" width="33.34" height="47.48" transform="translate(-24.47 102.27) rotate(-12.2)"/></g></svg>