<svg xmlns="http://www.w3.org/2000/svg" xmlns:xlink="http://www.w3.org/1999/xlink" viewBox="0 0 900 450"><defs><style>.a{fill:#c29644;}.b{fill:#fec75e;}.c,.n{fill:#4b4b4b;}.c{opacity:0.2;}.c,.q{mix-blend-mode:multiply;}.d{fill:#ed2627;}.e{fill:#fddfe0;opacity:0.8;}.f{fill:#cd362c;}.g{fill:#f1e5ce;}.h{fill:#fef6ea;}.i{fill:#741a14;}.j,.r{fill:none;}.k{fill:#a92b22;}.l{fill:#fff;}.m{isolation:isolate;}.o{fill:#7e73ff;}.p{fill:#eceaff;}.q{fill:#574fb0;opacity:0.3;}.r{stroke:#eceaff;stroke-miterlimit:10;stroke-width:3px;stroke-dasharray:4;}</style><symbol id="a" viewBox="0 0 150.68 62.56"><path class="a" d="M150.66,25.43a47.39,47.39,0,0,1-1.69,10c-1.55,5.67-6.17,10.33-7,11.14a25.48,25.48,0,0,1-4.86,3.78l-.3.19c-.33.19-.66.39-1,.58l-.17.1c-.18.1-.35.2-.54.29-.37.21-.76.41-1.15.62l-.61.29-1,.47-.71.33-1.27.55-.5.21c-.54.22-1.08.44-1.63.64l-.4.16-1.87.67-.2.07a118.48,118.48,0,0,1-18.09,4.46l-.29.05-.68.11a192,192,0,0,1-30,2.45H73.93A191.82,191.82,0,0,1,44,60.1L43.3,60l-.3-.05a119.07,119.07,0,0,1-18.09-4.46l-.2-.07-1.87-.67-.4-.16c-.55-.2-1.09-.42-1.63-.64l-.5-.21-1.26-.55-.72-.33-1-.47-.61-.29-1.16-.62-.53-.29-.18-.1-1-.58-.31-.19A25.8,25.8,0,0,1,8.7,46.53c-.83-.81-5.45-5.47-7-11.14A46.64,46.64,0,0,1,0,25.46C.64,33.8,14,41.85,37.4,46.35c35.94,6.92,82.06,2.91,103-9C147.07,33.62,150.39,29.52,150.66,25.43Z"/><path class="b" d="M150.68,24.87c0,.14,0,.29,0,.43s0,.09,0,.13c-.27,4.09-3.59,8.19-10.25,12-21,11.86-67.07,15.87-103,9C14,41.85.64,33.8,0,25.46a.86.86,0,0,1,0-.16v-.13c0-.19,0-.3,0-.3H0C0,20.6,3.3,16.29,10.26,12.35c21-11.87,67.07-15.88,103-9C137.26,8,150.65,16.32,150.68,24.87Z"/><ellipse class="c" cx="73.42" cy="21.71" rx="56.43" ry="17.74"/><path class="c" d="M49.37,48.89v12q-2.73-.36-5.4-.8L43.3,60l-.3-.06a117.89,117.89,0,0,1-18.09-4.46l-.19-.07c-.64-.22-1.27-.45-1.88-.68l-.39-.14-1.63-.65-.51-.21L19,53.18l-.7-.32-1-.48-.61-.3-1.15-.6-.53-.3-.18-.09-1-.6a3,3,0,0,1-.3-.18,25.17,25.17,0,0,1-4.86-3.78c-.84-.81-5.45-5.47-7-11.14A46.06,46.06,0,0,1,0,25.25C.15,28.14,1.82,31,4.92,33.7c5.17,5.14,14.86,9.67,28.43,12.66A142.42,142.42,0,0,0,49.37,48.89Z"/></symbol><symbol id="b" viewBox="0 0 146.05 61.89"><path class="i" d="M146.05,24V38.69h0c-.34,3.85-3.54,7.74-9.85,11.32C116,61.43,71.57,65.29,37,58.63c-22.4-4.31-35.2-12-36-19.94H1a31.09,31.09,0,0,1-.88-5.61C-.31,26.7,1,23.94,1,23.94c0,8.24,12.92,16.25,36,20.69,34.61,6.66,79,2.8,99.2-8.63C142.86,32.21,146.05,28.06,146.05,24Z"/><line class="j" x1="0.95" y1="24.72" x2="0.95" y2="37.25"/><path class="k" d="M146.05,23.94v0c0,4.09-3.19,8.24-9.89,12C116,47.43,71.57,51.29,37,44.63,13.87,40.19,1,32.18,1,23.94c0-4.09,3.17-8.25,9.89-12C31,.46,75.43-3.4,110,3.26,133.13,7.71,146,15.71,146.05,23.94Z"/><ellipse class="c" cx="63.14" cy="20.71" rx="29.51" ry="11.13"/><path class="c" d="M28.79,42.8c2.56.66,5.29,1.28,8.17,1.83q5.24,1,10.72,1.69v14Q42.21,59.63,37,58.63c-22.4-4.31-35.2-12-36-20H1a30.82,30.82,0,0,1-.88-5.6C-.31,26.71,1,24,1,24c0,7.2,9.9,14.23,27.84,18.85"/></symbol><symbol id="c" viewBox="0 0 85.47 38.34"><path class="d" d="M85.47,29.47c0,3.41-7.75,6.37-19.12,7.85,2.36-1,3.69-2.24,3.69-3.5C70,29.5,54.52,26,35.37,26,20.29,26,7.45,28.17,2.68,31.21A8.39,8.39,0,0,1,0,25.35C0,21,4.13,17.14,10.27,15.06c.38-2.24,4.57-4.1,10.2-4.69C22.53,4.43,30.47,0,40,0S57.21,4.34,59.36,10.18h.92c7.77,0,14.07,2.34,14.07,5.22a.66.66,0,0,1,0,.14c6.46,1,11.13,4,11.13,7.57a5.07,5.07,0,0,1-1.76,3.62A3.62,3.62,0,0,1,85.47,29.47Z"/><ellipse class="e" cx="62.69" cy="15.7" rx="7.5" ry="3.47"/><ellipse class="e" cx="78.36" cy="19.95" rx="2.92" ry="1.35"/><ellipse class="e" cx="39.35" cy="2.84" rx="6.1" ry="2.84"/><path class="f" d="M70,33.82c0,1.26-1.33,2.45-3.69,3.5a128.53,128.53,0,0,1-16.54,1,119.26,119.26,0,0,1-21.55-1.81,34.81,34.81,0,0,1-7.38.77c-7.81,0-14.62-2.46-18.2-6.09C7.45,28.17,20.29,26,35.37,26,54.52,26,70,29.5,70,33.82Z"/></symbol><symbol id="e" viewBox="0 0 155.19 57.24"><path class="g" d="M155.18,25.61c0,4.39-3.39,8.84-10.56,12.9C123,50.73,75.53,54.86,38.52,47.74,13.82,43,0,34.42,0,25.61H0v6H0C0,40.44,13.82,49,38.52,53.75c37,7.13,84.52,3,106.1-9.22,7.17-4.06,10.58-8.51,10.56-12.9h0v-6Z"/><path class="h" d="M116.67,3.49c-37-7.12-84.52-3-106.1,9.23C3.4,16.78,0,21.22,0,25.61v.19a3.52,3.52,0,0,0,.05.64c0,.13,0,.27.05.41a9.11,9.11,0,0,0,.4,1.64l.05.11a1.42,1.42,0,0,0,.1.29c.06.14.11.28.17.41s.13.27.19.41.13.26.2.38,0,0,0,0c.15.27.31.54.47.8a0,0,0,0,0,0,0c.09.13.17.26.27.39a12.28,12.28,0,0,0,.9,1.18l0,0c.21.25.44.51.68.77l0,0c.12.13.25.25.38.38l.82.78.44.38.46.39c.31.25.63.5,1,.75l.23.17,0,0,.6.43c.78.54,1.61,1.07,2.5,1.59l.58.33.43.24.35.2c.11.06.22.13.35.19l.88.45,1.13.56.85.4c.53.25,1.09.49,1.65.73l.78.33,1.63.65,1.51.56c.55.2,1.1.4,1.67.59l.85.28.87.29.15,0h0l.71.22.9.28.92.27,1.5.43,1,.26,1,.28.88.22.41.1c.62.16,1.24.31,1.87.45l2,.45,1.32.28,1.14.22,1.15.23q4.27.83,8.73,1.45c1.3.19,2.62.36,4,.52,1.82.22,3.67.41,5.52.58l1.8.16c1.1.1,2.2.18,3.31.25,1.27.09,2.55.17,3.83.23s2.55.13,3.83.17c3.93.14,7.87.17,11.79.11l1.25,0c1,0,2,0,3-.08l2-.07.27,0c.75,0,1.5-.06,2.25-.11l2.39-.14.91-.06,1.77-.12,1.59-.13,1.39-.12.81-.08,1.08-.11c.37,0,.73-.06,1.09-.11l.37,0,1.65-.18c1.11-.13,2.22-.27,3.32-.42l1.06-.14.4,0L109,49c.88-.13,1.74-.26,2.61-.41l1-.16.32-.06,1.66-.28,1.77-.33c1.8-.34,3.55-.71,5.27-1.09l1.45-.34c2.09-.5,4.12-1,6.06-1.61l1.73-.52.5-.16h0l.73-.23c1.94-.63,3.79-1.31,5.54-2l.75-.31.25-.1,1.57-.69.33-.15c.77-.35,1.53-.72,2.25-1.09l.82-.43,1-.53c.85-.48,1.64-1,2.39-1.46l.44-.3.43-.29.41-.3a23.9,23.9,0,0,0,3.22-2.75c.26-.27.51-.54.74-.81s.45-.54.65-.81.21-.27.3-.41.19-.27.27-.41a4.53,4.53,0,0,0,.26-.4c.08-.14.16-.27.23-.42s.29-.54.41-.81.11-.28.17-.41.07-.2.11-.29,0-.08,0-.13.09-.27.13-.41a5.09,5.09,0,0,0,.19-.77s0,0,0-.06l.06-.4.06-.41a7.5,7.5,0,0,0,0-.82v0C155.16,16.81,141.37,8.24,116.67,3.49Zm26,25.15a11.32,11.32,0,0,1-2,3.12,24.07,24.07,0,0,1-5.61,4.4l-.66.38c-18.27,10.34-58.49,13.83-89.83,7.8-10.57-2-18.79-4.89-24.32-8.18a23.71,23.71,0,0,1-5.6-4.41,11.43,11.43,0,0,1-2.06-3.15c-2-4.65.6-9.54,8.32-13.91.92-.52,1.9-1,2.94-1.52C43.17,4,80.92,1.16,110.68,6.88a88.84,88.84,0,0,1,20.76,6.31h0C140.92,17.67,145,23.21,142.66,28.64Z"/><path class="g" d="M142.66,28.64c-2.7-6.36-13.88-12.25-32-15.74-31.34-6-71.56-2.53-89.83,7.81-4.43,2.51-7.16,5.19-8.32,7.89-2-4.65.6-9.54,8.32-13.91.92-.52,1.9-1,2.94-1.52C43.17,4,80.92,1.16,110.68,6.88a88.84,88.84,0,0,1,20.76,6.31h0C140.92,17.67,145,23.21,142.66,28.64Z"/></symbol><symbol id="d" viewBox="0 0 139.22 49.68"><use width="155.19" height="57.24" transform="translate(-2.1 7.89) rotate(-8.27) scale(0.58)" xlink:href="#e"/><use width="155.19" height="57.24" transform="matrix(0.58, 0.08, -0.08, 0.58, 51.21, -4.4)" xlink:href="#e"/><use width="155.19" height="57.24" transform="translate(24.92 18.15) rotate(-2.59) scale(0.58)" xlink:href="#e"/></symbol><symbol id="h" viewBox="0 0 158.93 74.43"><path class="b" d="M145.63,26.05C125.89,6.06,103.49.57,80.85,0V0H78.08V0c-22.64.53-45,6-64.78,26C8.59,30.82,0,44.27,0,47.68c0,9.2,14.42,18.14,40.22,23.11A216.35,216.35,0,0,0,78.08,74.4v0h2.77v0a216.35,216.35,0,0,0,37.86-3.61c25.8-5,40.2-13.91,40.22-23.11C158.93,44.27,150.34,30.82,145.63,26.05Z"/><path class="l" d="M49.82,11.12c.37,1.64-.32,2.87-1.39,2.87S46.7,12.73,47,11.12c.31-1.46.8-2.74,1.39-2.74S49.49,9.67,49.82,11.12Z"/><path class="l" d="M36,15.69C36,14,37,13,38,13.21s1.41,1.61.71,3.1-1.38,2.5-2,2.37S36,17.19,36,15.69Z"/><path class="l" d="M34.39,23c1.57-.58,2.88,0,3,1s-1,1.88-2.66,1.74-2.82-.44-2.9-1S33,23.48,34.39,23Z"/><path class="l" d="M51.63,24.06c.52,1.59-.06,2.88-1.12,3s-1.84-1.1-1.64-2.72.54-2.81,1.14-2.86S51.17,22.64,51.63,24.06Z"/><path class="l" d="M54.79,17.7c.33-1.65,1.46-2.49,2.44-2s1.07,1.86.1,3.18S55.49,21,54.94,20.77,54.5,19.16,54.79,17.7Z"/><path class="l" d="M106.24,23.87c.72,1.53.31,2.87-.73,3.1s-2-.86-2-2.5c0-1.49.19-2.85.77-3S105.61,22.52,106.24,23.87Z"/><path class="l" d="M86.05,27.4c-.23,1.67-1.31,2.57-2.31,2.2s-1.17-1.8-.29-3.17,1.71-2.29,2.27-2.08S86.26,25.93,86.05,27.4Z"/><path class="l" d="M115.54,15.39c.44-1.63,1.62-2.39,2.57-1.89s.94,1.93-.11,3.18-2,2.06-2.51,1.78S115.16,16.83,115.54,15.39Z"/><path class="l" d="M103.54,16c1.09-1.28,2.49-1.46,3.13-.61s0,2.15-1.47,2.83-2.67,1-3,.53S102.57,17.1,103.54,16Z"/><path class="l" d="M117.69,28.19c.49-1.61,1.7-2.33,2.63-1.8s.88,2-.22,3.18-2,2-2.57,1.69S117.26,29.62,117.69,28.19Z"/><path class="l" d="M104.94,10.42c1.33,1,1.56,2.43.74,3.1s-2.15.12-2.89-1.34-1.11-2.63-.65-3S103.77,9.5,104.94,10.42Z"/><path class="l" d="M110.19,17.81c.71,1.52.29,2.86-.75,3.09s-2-.86-2-2.5.2-2.85.78-3S109.55,16.45,110.19,17.81Z"/><path class="l" d="M73.16,14.15c.53,1.59,0,2.88-1.1,3s-1.85-1.09-1.66-2.72c.16-1.48.51-2.8,1.11-2.86S72.69,12.73,73.16,14.15Z"/><path class="l" d="M88.15,13.11c1.56-.62,2.88-.13,3,.92s-1,1.91-2.62,1.82c-1.49-.08-2.83-.35-2.92-.94S86.76,13.67,88.15,13.11Z"/><path class="l" d="M80,19.52c.57,1.58,0,2.88-1,3s-1.87-1-1.74-2.67.45-2.82,1-2.9S79.51,18.12,80,19.52Z"/><path class="l" d="M68.94,28.84c-.28-1.66.48-2.85,1.54-2.79s1.66,1.36,1.23,2.94-.94,2.69-1.54,2.66S69.19,30.31,68.94,28.84Z"/><path class="l" d="M132.18,23.16c1.38,1,1.68,2.34.89,3.05s-2.13.23-2.95-1.19-1.25-2.57-.8-3S131,22.3,132.18,23.16Z"/><path class="l" d="M28.82,18.3c1.58-.58,2.89-.05,3,1s-1,1.88-2.66,1.74-2.82-.43-2.9-1S27.42,18.81,28.82,18.3Z"/><path class="l" d="M22.92,25.8c.12-1.67,1.14-2.64,2.16-2.33s1.29,1.71.49,3.14S24,29,23.44,28.83,22.81,27.29,22.92,25.8Z"/><path class="l" d="M122.43,18.73c-.63,1.55-1.9,2.17-2.77,1.56s-.71-2,.49-3.15,2.22-1.8,2.71-1.46S123,17.34,122.43,18.73Z"/><path class="l" d="M94.7,23.05c1.53-.69,2.87-.26,3.08.79s-.89,1.95-2.53,1.93c-1.49,0-2.84-.22-3-.81S93.34,23.67,94.7,23.05Z"/><path class="c" d="M36,69.92C12.87,64.83,0,56.37,0,47.68c0-3.41,8.59-16.86,13.3-21.63C32.44,6.66,54.09.92,76,.1,62.31,4.87,33.93,31.83,36,69.92Z"/><path class="l" d="M119.67,8.82c1.66-.29,2.85.46,2.8,1.53s-1.35,1.66-2.94,1.24c-1.44-.39-2.7-.93-2.67-1.53S118.2,9.07,119.67,8.82Z"/><path class="l" d="M94.66,3.49c1.67.23,2.58,1.3,2.21,2.3S95.08,7,93.7,6.09s-2.3-1.7-2.09-2.26S93.18,3.29,94.66,3.49Z"/><path class="l" d="M77.58,6.76c0-1.68,1-2.71,2-2.45S81,6,80.28,7.42s-1.43,2.48-2,2.33S77.55,8.25,77.58,6.76Z"/><path class="l" d="M64.6,5.06c1,1.39.78,2.78-.22,3.18S62.31,7.72,62,6.1c-.26-1.47-.29-2.84.26-3.06S63.75,3.84,64.6,5.06Z"/><path class="l" d="M92.17,7.94c1.64.39,2.43,1.55,2,2.51s-1.9,1-3.18,0S88.84,8.51,89.1,8,90.72,7.6,92.17,7.94Z"/><path class="l" d="M71.05,5.34c1.55.66,2.14,1.94,1.51,2.81s-2,.66-3.13-.55S67.67,5.35,68,4.86,69.68,4.76,71.05,5.34Z"/></symbol></defs><g class="m"><rect class="n" x="76.31" y="14.42" width="711.01" height="412.72"/><use width="150.68" height="62.56" transform="translate(144.61 298.29) scale(1.34)" xlink:href="#a"/><use width="146.05" height="61.89" transform="translate(147.71 243.76) scale(1.34)" xlink:href="#b"/><use width="85.47" height="38.34" transform="translate(188.23 209.17) scale(1.34)" xlink:href="#c"/><use width="139.23" height="49.68" transform="translate(152.28 157.78) scale(1.34)" xlink:href="#d"/><use width="158.93" height="74.43" transform="translate(139.73 68.01) scale(1.34)" xlink:href="#h"/><path class="l" d="M367.06,301.21v-2.15a5.91,5.91,0,0,0,1.05.07c1.45,0,2.25-.69,2.91-2.59l.29-.94-5.85-15.81h2.73l4.33,13h.24l4.32-13h2.68l-6.17,16.76c-1.34,3.66-2.6,4.75-5.4,4.75A7.27,7.27,0,0,1,367.06,301.21Z"/><path class="l" d="M382.69,275a1.76,1.76,0,1,1,1.76,1.76A1.76,1.76,0,0,1,382.69,275Zm.5,4.8h2.52v15.8h-2.52Z"/><path class="l" d="M403.49,291.5c-.73,2.69-3.19,4.36-6.65,4.36-4.38,0-7.12-3.16-7.12-8.15s2.78-8.19,7.12-8.19,6.86,3,6.86,7.94v1H392.34v.12c.14,3.12,1.88,5.1,4.56,5.1,2,0,3.41-.75,4.07-2.14Zm-11.15-5.11H401c-.05-2.8-1.72-4.65-4.23-4.65S392.53,283.59,392.34,286.39Z"/><path class="l" d="M407.8,273.53h2.52v22.06H407.8Z"/><path class="l" d="M414.42,287.69c0-4.95,2.62-8.17,6.63-8.17a5.41,5.41,0,0,1,5,2.77h.22v-8.76h2.51v22.06h-2.4v-2.52h-.23a5.67,5.67,0,0,1-5.06,2.79C417,295.86,414.42,292.66,414.42,287.69Zm2.61,0c0,3.69,1.72,5.9,4.61,5.9s4.64-2.25,4.64-5.9-1.78-5.9-4.64-5.9S417,284,417,287.69Z"/><path class="l" d="M439,273.53h2.14c-2.08,2.66-3.71,8.32-3.71,13.27s1.61,10.62,3.71,13.28H439a23.26,23.26,0,0,1,0-26.55Z"/><path class="l" d="M497.27,300.08h-2.14c2.08-2.66,3.71-8.32,3.71-13.27s-1.61-10.62-3.71-13.28h2.14a23.26,23.26,0,0,1,0,26.55Z"/><use width="146.05" height="61.89" transform="translate(447.19 279.36) scale(0.29)" xlink:href="#b"/><rect class="c" x="496.05" y="76.54" width="196.35" height="157.47" transform="matrix(0.97, -0.26, 0.26, 0.97, -19.95, 157.79)"/><path class="o" d="M479.12,74c30.15-6.24,122.65-25.29,190.32-50.37C689.08,74.29,717,142.06,747.71,165.22c-53.39,45-196,50.91-205.8,48.51C525.3,205.51,485.62,107.54,479.12,74Z"/><rect class="p" x="618.08" y="93.49" width="69.42" height="30.47" transform="matrix(0.96, -0.29, 0.29, 0.96, -3.26, 195.65)"/><path class="l" d="M538.62,152.23c-4.48,1.37-8.36-1.06-9.94-6.25s.31-9.37,4.75-10.73c3.6-1.1,6.81.1,8.38,3.14l-2.06.62a4.77,4.77,0,0,0-5.75-1.9c-3.21,1-4.48,4.2-3.25,8.23s4,6,7.31,5c2.9-.89,4.3-3.34,3.46-6.09l-.12-.39-4.56,1.4-.54-1.78,6.57-2,.61,2C544.7,147.47,542.77,151,538.62,152.23Z"/><path class="l" d="M545,136.61l1.84-.57.55,1.8.18-.05a3.54,3.54,0,0,1,2.74-3,7.82,7.82,0,0,1,1-.24l.59,1.93a7.5,7.5,0,0,0-1.27.27,3.09,3.09,0,0,0-2.28,3.91l2.29,7.51-1.93.59Z"/><path class="l" d="M552.32,130.35a1.41,1.41,0,1,1,1.76.93A1.4,1.4,0,0,1,552.32,130.35Zm1.5,3.56,1.94-.59,3.7,12.12-1.93.59Z"/><path class="l" d="M558.08,127.35l1.94-.59,5.17,16.92-1.93.59Z"/><path class="l" d="M563.88,125.58l1.93-.59L571,141.91l-1.93.59Z"/><path class="l" d="M579.32,122.69l.95,3.14L583,125l.5,1.62-2.7.82,2.09,6.86c.44,1.42,1.17,1.87,2.42,1.48a6.34,6.34,0,0,0,.89-.32l.5,1.63a7.52,7.52,0,0,1-1.1.46c-2.5.76-3.78.15-4.49-2.17L578.84,128l-2,.59-.49-1.62,2-.59-1-3.14Z"/><path class="l" d="M584.53,119.27l1.94-.6,2,6.72.18,0a4,4,0,0,1,3.08-3.27c2.56-.78,4.68.37,5.55,3.21l2.4,7.84-1.93.59-2.26-7.37c-.65-2.14-1.94-2.92-3.78-2.36a3.28,3.28,0,0,0-2.31,4.45l2.19,7.17-1.93.59Z"/><path class="l" d="M612.26,125.86c.07,2.24-1.43,4.1-4.08,4.91-3.36,1-6.2-.76-7.38-4.59s.22-6.93,3.54-8,6,.72,7.12,4.48l.23.75L603,126.12l0,.09c.83,2.36,2.63,3.47,4.69,2.84a3.28,3.28,0,0,0,2.62-2.6Zm-9.75-1.3,6.67-2c-.7-2.14-2.42-3.16-4.34-2.57S602,122.37,602.51,124.56Z"/><path class="o" d="M637.1,115.07c1.16,3.79-.1,6.89-3.17,7.83a4.25,4.25,0,0,1-4.41-.88l-.18.06,1.79,5.86-1.93.59-4.94-16.15,1.84-.57.62,2,.18,0a4.56,4.56,0,0,1,3.19-3.42C633.18,109.41,635.93,111.26,637.1,115.07Zm-2,.61c-.87-2.83-2.71-4.12-4.93-3.44s-3,2.83-2.18,5.62,2.76,4.1,4.94,3.44S636,118.51,635.1,115.68Z"/><path class="o" d="M640.23,117c-.67-2.17.55-3.91,3.32-4.94l3.43-1.28-.34-1.1c-.46-1.5-1.64-2-3.45-1.48-1.45.45-2.29,1.31-2.27,2.34l-1.95.6c-.34-2,1.18-3.89,3.76-4.68,3-.9,5.07.11,5.84,2.63l2.54,8.29-1.84.56-.55-1.78-.18,0a4.35,4.35,0,0,1-3.12,3.14C643.07,120.1,640.9,119.24,640.23,117Zm7.56-3.55-.34-1.11-3.19,1.21c-1.8.69-2.42,1.58-2,2.79s1.65,1.64,3,1.21A3.34,3.34,0,0,0,647.79,113.48Z"/><path class="o" d="M652.76,100.23l1,3.14,2.7-.83.49,1.62-2.7.83,2.1,6.85c.44,1.43,1.16,1.87,2.42,1.48a5.81,5.81,0,0,0,.88-.32l.5,1.63a6.57,6.57,0,0,1-1.1.46c-2.49.76-3.77.15-4.48-2.17l-2.25-7.34-1.95.59-.5-1.62,2-.59-1-3.14Z"/><path class="o" d="M661.12,97.68l1,3.13,2.7-.82.49,1.61-2.7.83,2.1,6.85c.44,1.43,1.16,1.87,2.42,1.49.35-.11.53-.18.88-.32l.5,1.63a6.52,6.52,0,0,1-1.1.45c-2.49.77-3.77.15-4.48-2.16L660.64,103l-1.95.6-.5-1.62,2-.6-1-3.13Z"/><path class="o" d="M672.89,115.47l-.51-1.65a4.54,4.54,0,0,0,.83-.2c1.11-.34,1.56-1.05,1.62-2.66v-.79l-8.19-10.76,2.09-.63,6.37,9,.18-.06.27-11,2.06-.63-.8,14.3c-.18,3.13-.89,4.25-3,4.91A6.4,6.4,0,0,1,672.89,115.47Z"/><rect class="q" x="485.72" y="42.84" width="33.34" height="47.48" transform="translate(-0.95 125.56) rotate(-14.23)"/><path class="r" d="M516.63,293.41c13.09,14.43,93.67,37,123.31,2.18,21-24.64-10.21-62.89-10.21-62.89"/><path class="p" d="M639.81,227.83a7.34,7.34,0,0,0,1.23-2.6c2.75-8.72.09-26.55-2.43-27.23s-1.1,6.73-2.51,10.62c-.47-6.76-2.91-20.63-6.13-19.88s-1.67,5.13-1.88,8.41.12,6.68-.91,9.79c-1.8-6.59-6.9-19.1-9.11-18.19-3,1.23-2.28,7.85-1,11.79s3.33,7.81,3.25,12A182.24,182.24,0,0,0,609,197.18c-.53-.64-1.19-1.34-2-1.32-1.11,0-1.72,1.31-1.83,2.42-.42,4.22,2.62,7.9,4.72,11.61a28.55,28.55,0,0,1,3.68,13.61c-1.72,1-3.86.76-5.82.39s-4-.81-5.89-.18-3.39,2.82-2.53,4.65a5.45,5.45,0,0,0,2.74,2.22L618,238.42h.15a4.56,4.56,0,0,0-1.46,4.82,2.76,2.76,0,0,0,1,1.44,3.76,3.76,0,0,0,2.88.19,48.83,48.83,0,0,0,19.74-9.2c1.87-1.45,3.78-4,2.45-6Z"/></g></svg>