<svg xmlns="http://www.w3.org/2000/svg" xmlns:xlink="http://www.w3.org/1999/xlink" viewBox="0 0 900 450"><defs><style>.a{fill:#c29644;}.b{fill:#fec75e;}.c,.m{fill:#4b4b4b;}.c{opacity:0.2;mix-blend-mode:multiply;}.d{fill:#ed2627;}.e{fill:#fddfe0;opacity:0.8;}.f{fill:#cd362c;}.g{fill:#f1e5ce;}.h{fill:#fef6ea;}.i{fill:#741a14;}.j,.o{fill:none;}.k{fill:#a92b22;}.l{fill:#fff;}.n{fill:#7e73ff;}.o{stroke:#fff;stroke-miterlimit:10;}</style><symbol id="a" viewBox="0 0 150.68 62.56"><path class="a" d="M150.66,25.43a47.39,47.39,0,0,1-1.69,10c-1.55,5.67-6.17,10.33-7,11.14a25.48,25.48,0,0,1-4.86,3.78l-.3.19c-.33.19-.66.39-1,.58l-.17.1c-.18.1-.35.2-.54.29-.37.21-.76.41-1.15.62l-.61.29-1,.47-.71.33-1.27.55-.5.21c-.54.22-1.08.44-1.63.64l-.4.16-1.87.67-.2.07a118.48,118.48,0,0,1-18.09,4.46l-.29.05-.68.11a192,192,0,0,1-30,2.45H73.93A191.82,191.82,0,0,1,44,60.1L43.3,60l-.3-.05a119.07,119.07,0,0,1-18.09-4.46l-.2-.07-1.87-.67-.4-.16c-.55-.2-1.09-.42-1.63-.64l-.5-.21-1.26-.55-.72-.33-1-.47-.61-.29-1.16-.62-.53-.29-.18-.1-1-.58-.31-.19A25.8,25.8,0,0,1,8.7,46.53c-.83-.81-5.45-5.47-7-11.14A46.64,46.64,0,0,1,0,25.46C.64,33.8,14,41.85,37.4,46.35c35.94,6.92,82.06,2.91,103-9C147.07,33.62,150.39,29.52,150.66,25.43Z"/><path class="b" d="M150.68,24.87c0,.14,0,.29,0,.43s0,.09,0,.13c-.27,4.09-3.59,8.19-10.25,12-21,11.86-67.07,15.87-103,9C14,41.85.64,33.8,0,25.46a.86.86,0,0,1,0-.16v-.13c0-.19,0-.3,0-.3H0C0,20.6,3.3,16.29,10.26,12.35c21-11.87,67.07-15.88,103-9C137.26,8,150.65,16.32,150.68,24.87Z"/><ellipse class="c" cx="73.42" cy="21.71" rx="56.43" ry="17.74"/><path class="c" d="M49.37,48.89v12q-2.73-.36-5.4-.8L43.3,60l-.3-.06a117.89,117.89,0,0,1-18.09-4.46l-.19-.07c-.64-.22-1.27-.45-1.88-.68l-.39-.14-1.63-.65-.51-.21L19,53.18l-.7-.32-1-.48-.61-.3-1.15-.6-.53-.3-.18-.09-1-.6a3,3,0,0,1-.3-.18,25.17,25.17,0,0,1-4.86-3.78c-.84-.81-5.45-5.47-7-11.14A46.06,46.06,0,0,1,0,25.25C.15,28.14,1.82,31,4.92,33.7c5.17,5.14,14.86,9.67,28.43,12.66A142.42,142.42,0,0,0,49.37,48.89Z"/></symbol><symbol id="b" viewBox="0 0 146.05 61.89"><path class="i" d="M146.05,24V38.69h0c-.34,3.85-3.54,7.74-9.85,11.32C116,61.43,71.57,65.29,37,58.63c-22.4-4.31-35.2-12-36-19.94H1a31.09,31.09,0,0,1-.88-5.61C-.31,26.7,1,23.94,1,23.94c0,8.24,12.92,16.25,36,20.69,34.61,6.66,79,2.8,99.2-8.63C142.86,32.21,146.05,28.06,146.05,24Z"/><line class="j" x1="0.95" y1="24.72" x2="0.95" y2="37.25"/><path class="k" d="M146.05,23.94v0c0,4.09-3.19,8.24-9.89,12C116,47.43,71.57,51.29,37,44.63,13.87,40.19,1,32.18,1,23.94c0-4.09,3.17-8.25,9.89-12C31,.46,75.43-3.4,110,3.26,133.13,7.71,146,15.71,146.05,23.94Z"/><ellipse class="c" cx="63.14" cy="20.71" rx="29.51" ry="11.13"/><path class="c" d="M28.79,42.8c2.56.66,5.29,1.28,8.17,1.83q5.24,1,10.72,1.69v14Q42.21,59.63,37,58.63c-22.4-4.31-35.2-12-36-20H1a30.82,30.82,0,0,1-.88-5.6C-.31,26.71,1,24,1,24c0,7.2,9.9,14.23,27.84,18.85"/></symbol><symbol id="c" viewBox="0 0 85.47 38.34"><path class="d" d="M85.47,29.47c0,3.41-7.75,6.37-19.12,7.85,2.36-1,3.69-2.24,3.69-3.5C70,29.5,54.52,26,35.37,26,20.29,26,7.45,28.17,2.68,31.21A8.39,8.39,0,0,1,0,25.35C0,21,4.13,17.14,10.27,15.06c.38-2.24,4.57-4.1,10.2-4.69C22.53,4.43,30.47,0,40,0S57.21,4.34,59.36,10.18h.92c7.77,0,14.07,2.34,14.07,5.22a.66.66,0,0,1,0,.14c6.46,1,11.13,4,11.13,7.57a5.07,5.07,0,0,1-1.76,3.62A3.62,3.62,0,0,1,85.47,29.47Z"/><ellipse class="e" cx="62.69" cy="15.7" rx="7.5" ry="3.47"/><ellipse class="e" cx="78.36" cy="19.95" rx="2.92" ry="1.35"/><ellipse class="e" cx="39.35" cy="2.84" rx="6.1" ry="2.84"/><path class="f" d="M70,33.82c0,1.26-1.33,2.45-3.69,3.5a128.53,128.53,0,0,1-16.54,1,119.26,119.26,0,0,1-21.55-1.81,34.81,34.81,0,0,1-7.38.77c-7.81,0-14.62-2.46-18.2-6.09C7.45,28.17,20.29,26,35.37,26,54.52,26,70,29.5,70,33.82Z"/></symbol><symbol id="e" viewBox="0 0 155.19 57.24"><path class="g" d="M155.18,25.61c0,4.39-3.39,8.84-10.56,12.9C123,50.73,75.53,54.86,38.52,47.74,13.82,43,0,34.42,0,25.61H0v6H0C0,40.44,13.82,49,38.52,53.75c37,7.13,84.52,3,106.1-9.22,7.17-4.06,10.58-8.51,10.56-12.9h0v-6Z"/><path class="h" d="M116.67,3.49c-37-7.12-84.52-3-106.1,9.23C3.4,16.78,0,21.22,0,25.61v.19a3.52,3.52,0,0,0,.05.64c0,.13,0,.27.05.41a9.11,9.11,0,0,0,.4,1.64l.05.11a1.42,1.42,0,0,0,.1.29c.06.14.11.28.17.41s.13.27.19.41.13.26.2.38,0,0,0,0c.15.27.31.54.47.8a0,0,0,0,0,0,0c.09.13.17.26.27.39a12.28,12.28,0,0,0,.9,1.18l0,0c.21.25.44.51.68.77l0,0c.12.13.25.25.38.38l.82.78.44.38.46.39c.31.25.63.5,1,.75l.23.17,0,0,.6.43c.78.54,1.61,1.07,2.5,1.59l.58.33.43.24.35.2c.11.06.22.13.35.19l.88.45,1.13.56.85.4c.53.25,1.09.49,1.65.73l.78.33,1.63.65,1.51.56c.55.2,1.1.4,1.67.59l.85.28.87.29.15,0h0l.71.22.9.28.92.27,1.5.43,1,.26,1,.28.88.22.41.1c.62.16,1.24.31,1.87.45l2,.45,1.32.28,1.14.22,1.15.23q4.27.83,8.73,1.45c1.3.19,2.62.36,4,.52,1.82.22,3.67.41,5.52.58l1.8.16c1.1.1,2.2.18,3.31.25,1.27.09,2.55.17,3.83.23s2.55.13,3.83.17c3.93.14,7.87.17,11.79.11l1.25,0c1,0,2,0,3-.08l2-.07.27,0c.75,0,1.5-.06,2.25-.11l2.39-.14.91-.06,1.77-.12,1.59-.13,1.39-.12.81-.08,1.08-.11c.37,0,.73-.06,1.09-.11l.37,0,1.65-.18c1.11-.13,2.22-.27,3.32-.42l1.06-.14.4,0L109,49c.88-.13,1.74-.26,2.61-.41l1-.16.32-.06,1.66-.28,1.77-.33c1.8-.34,3.55-.71,5.27-1.09l1.45-.34c2.09-.5,4.12-1,6.06-1.61l1.73-.52.5-.16h0l.73-.23c1.94-.63,3.79-1.31,5.54-2l.75-.31.25-.1,1.57-.69.33-.15c.77-.35,1.53-.72,2.25-1.09l.82-.43,1-.53c.85-.48,1.64-1,2.39-1.46l.44-.3.43-.29.41-.3a23.9,23.9,0,0,0,3.22-2.75c.26-.27.51-.54.74-.81s.45-.54.65-.81.21-.27.3-.41.19-.27.27-.41a4.53,4.53,0,0,0,.26-.4c.08-.14.16-.27.23-.42s.29-.54.41-.81.11-.28.17-.41.07-.2.11-.29,0-.08,0-.13.09-.27.13-.41a5.09,5.09,0,0,0,.19-.77s0,0,0-.06l.06-.4.06-.41a7.5,7.5,0,0,0,0-.82v0C155.16,16.81,141.37,8.24,116.67,3.49Zm26,25.15a11.32,11.32,0,0,1-2,3.12,24.07,24.07,0,0,1-5.61,4.4l-.66.38c-18.27,10.34-58.49,13.83-89.83,7.8-10.57-2-18.79-4.89-24.32-8.18a23.71,23.71,0,0,1-5.6-4.41,11.43,11.43,0,0,1-2.06-3.15c-2-4.65.6-9.54,8.32-13.91.92-.52,1.9-1,2.94-1.52C43.17,4,80.92,1.16,110.68,6.88a88.84,88.84,0,0,1,20.76,6.31h0C140.92,17.67,145,23.21,142.66,28.64Z"/><path class="g" d="M142.66,28.64c-2.7-6.36-13.88-12.25-32-15.74-31.34-6-71.56-2.53-89.83,7.81-4.43,2.51-7.16,5.19-8.32,7.89-2-4.65.6-9.54,8.32-13.91.92-.52,1.9-1,2.94-1.52C43.17,4,80.92,1.16,110.68,6.88a88.84,88.84,0,0,1,20.76,6.31h0C140.92,17.67,145,23.21,142.66,28.64Z"/></symbol><symbol id="d" viewBox="0 0 139.22 49.68"><use width="155.19" height="57.24" transform="matrix(0.58, -0.08, 0.08, 0.58, -2.1, 7.89)" xlink:href="#e"/><use width="155.19" height="57.24" transform="translate(51.21 -4.4) rotate(7.56) scale(0.58)" xlink:href="#e"/><use width="155.19" height="57.24" transform="translate(24.92 18.15) rotate(-2.59) scale(0.58)" xlink:href="#e"/></symbol><symbol id="h" viewBox="0 0 158.93 74.43"><path class="b" d="M145.63,26.05C125.89,6.06,103.49.57,80.85,0V0H78.08V0c-22.64.53-45,6-64.78,26C8.59,30.82,0,44.27,0,47.68c0,9.2,14.42,18.14,40.22,23.11A216.35,216.35,0,0,0,78.08,74.4v0h2.77v0a216.35,216.35,0,0,0,37.86-3.61c25.8-5,40.2-13.91,40.22-23.11C158.93,44.27,150.34,30.82,145.63,26.05Z"/><path class="l" d="M49.82,11.12c.37,1.64-.32,2.87-1.39,2.87S46.7,12.73,47,11.12c.31-1.46.8-2.74,1.39-2.74S49.49,9.67,49.82,11.12Z"/><path class="l" d="M36,15.69C36,14,37,13,38,13.21s1.41,1.61.71,3.1-1.38,2.5-2,2.37S36,17.19,36,15.69Z"/><path class="l" d="M34.39,23c1.57-.58,2.88,0,3,1s-1,1.88-2.66,1.74-2.82-.44-2.9-1S33,23.48,34.39,23Z"/><path class="l" d="M51.63,24.06c.52,1.59-.06,2.88-1.12,3s-1.84-1.1-1.64-2.72.54-2.81,1.14-2.86S51.17,22.64,51.63,24.06Z"/><path class="l" d="M54.79,17.7c.33-1.65,1.46-2.49,2.44-2s1.07,1.86.1,3.18S55.49,21,54.94,20.77,54.5,19.16,54.79,17.7Z"/><path class="l" d="M106.24,23.87c.72,1.53.31,2.87-.73,3.1s-2-.86-2-2.5c0-1.49.19-2.85.77-3S105.61,22.52,106.24,23.87Z"/><path class="l" d="M86.05,27.4c-.23,1.67-1.31,2.57-2.31,2.2s-1.17-1.8-.29-3.17,1.71-2.29,2.27-2.08S86.26,25.93,86.05,27.4Z"/><path class="l" d="M115.54,15.39c.44-1.63,1.62-2.39,2.57-1.89s.94,1.93-.11,3.18-2,2.06-2.51,1.78S115.16,16.83,115.54,15.39Z"/><path class="l" d="M103.54,16c1.09-1.28,2.49-1.46,3.13-.61s0,2.15-1.47,2.83-2.67,1-3,.53S102.57,17.1,103.54,16Z"/><path class="l" d="M117.69,28.19c.49-1.61,1.7-2.33,2.63-1.8s.88,2-.22,3.18-2,2-2.57,1.69S117.26,29.62,117.69,28.19Z"/><path class="l" d="M104.94,10.42c1.33,1,1.56,2.43.74,3.1s-2.15.12-2.89-1.34-1.11-2.63-.65-3S103.77,9.5,104.94,10.42Z"/><path class="l" d="M110.19,17.81c.71,1.52.29,2.86-.75,3.09s-2-.86-2-2.5.2-2.85.78-3S109.55,16.45,110.19,17.81Z"/><path class="l" d="M73.16,14.15c.53,1.59,0,2.88-1.1,3s-1.85-1.09-1.66-2.72c.16-1.48.51-2.8,1.11-2.86S72.69,12.73,73.16,14.15Z"/><path class="l" d="M88.15,13.11c1.56-.62,2.88-.13,3,.92s-1,1.91-2.62,1.82c-1.49-.08-2.83-.35-2.92-.94S86.76,13.67,88.15,13.11Z"/><path class="l" d="M80,19.52c.57,1.58,0,2.88-1,3s-1.87-1-1.74-2.67.45-2.82,1-2.9S79.51,18.12,80,19.52Z"/><path class="l" d="M68.94,28.84c-.28-1.66.48-2.85,1.54-2.79s1.66,1.36,1.23,2.94-.94,2.69-1.54,2.66S69.19,30.31,68.94,28.84Z"/><path class="l" d="M132.18,23.16c1.38,1,1.68,2.34.89,3.05s-2.13.23-2.95-1.19-1.25-2.57-.8-3S131,22.3,132.18,23.16Z"/><path class="l" d="M28.82,18.3c1.58-.58,2.89-.05,3,1s-1,1.88-2.66,1.74-2.82-.43-2.9-1S27.42,18.81,28.82,18.3Z"/><path class="l" d="M22.92,25.8c.12-1.67,1.14-2.64,2.16-2.33s1.29,1.71.49,3.14S24,29,23.44,28.83,22.81,27.29,22.92,25.8Z"/><path class="l" d="M122.43,18.73c-.63,1.55-1.9,2.17-2.77,1.56s-.71-2,.49-3.15,2.22-1.8,2.71-1.46S123,17.34,122.43,18.73Z"/><path class="l" d="M94.7,23.05c1.53-.69,2.87-.26,3.08.79s-.89,1.95-2.53,1.93c-1.49,0-2.84-.22-3-.81S93.34,23.67,94.7,23.05Z"/><path class="c" d="M36,69.92C12.87,64.83,0,56.37,0,47.68c0-3.41,8.59-16.86,13.3-21.63C32.44,6.66,54.09.92,76,.1,62.31,4.87,33.93,31.83,36,69.92Z"/><path class="l" d="M119.67,8.82c1.66-.29,2.85.46,2.8,1.53s-1.35,1.66-2.94,1.24c-1.44-.39-2.7-.93-2.67-1.53S118.2,9.07,119.67,8.82Z"/><path class="l" d="M94.66,3.49c1.67.23,2.58,1.3,2.21,2.3S95.08,7,93.7,6.09s-2.3-1.7-2.09-2.26S93.18,3.29,94.66,3.49Z"/><path class="l" d="M77.58,6.76c0-1.68,1-2.71,2-2.45S81,6,80.28,7.42s-1.43,2.48-2,2.33S77.55,8.25,77.58,6.76Z"/><path class="l" d="M64.6,5.06c1,1.39.78,2.78-.22,3.18S62.31,7.72,62,6.1c-.26-1.47-.29-2.84.26-3.06S63.75,3.84,64.6,5.06Z"/><path class="l" d="M92.17,7.94c1.64.39,2.43,1.55,2,2.51s-1.9,1-3.18,0S88.84,8.51,89.1,8,90.72,7.6,92.17,7.94Z"/><path class="l" d="M71.05,5.34c1.55.66,2.14,1.94,1.51,2.81s-2,.66-3.13-.55S67.67,5.35,68,4.86,69.68,4.76,71.05,5.34Z"/></symbol></defs><rect class="m" x="76.31" y="14.42" width="424.98" height="412.72"/><use width="150.68" height="62.56" transform="translate(210.67 191.82)" xlink:href="#a"/><use width="146.05" height="61.89" transform="translate(212.36 172.41)" xlink:href="#b"/><use width="85.47" height="38.34" transform="translate(243.12 176.33)" xlink:href="#c"/><use width="139.23" height="49.68" transform="translate(212.77 166.89)" xlink:href="#d"/><use width="158.93" height="74.43" transform="translate(205.13 125.05)" xlink:href="#h"/><path class="l" d="M190.55,70.46a9.91,9.91,0,0,1,1.93-7.85,10.56,10.56,0,0,1,14.29-2,9.86,9.86,0,0,1,4,7,9.83,9.83,0,0,1-1.94,7.82,10.53,10.53,0,0,1-14.28,2A9.83,9.83,0,0,1,190.55,70.46Zm5.12-5.67a6.31,6.31,0,0,0-1.16,5.09,6.35,6.35,0,0,0,2.5,4.59,6.39,6.39,0,0,0,8.63-1.2,6.38,6.38,0,0,0,1.15-5.1,6.35,6.35,0,0,0-2.5-4.58,6.34,6.34,0,0,0-8.62,1.2Z"/><path class="l" d="M219.34,82.06l-3.7.4-2-19,3.6-.38.17,1.67a4,4,0,0,1,1.47-1.58,5.67,5.67,0,0,1,2.53-.85,5.76,5.76,0,0,1,4.83,1.5,8.53,8.53,0,0,1,1,10.32,6,6,0,0,1-4.45,2.53,4.6,4.6,0,0,1-4.13-1.24Zm4.81-9.93a4.11,4.11,0,0,0,.66-2.93,4,4,0,0,0-1.27-2.71,3.41,3.41,0,0,0-4.88.54,3.9,3.9,0,0,0-.67,2.9,4,4,0,0,0,1.27,2.71,3.4,3.4,0,0,0,4.89-.51Z"/><path class="l" d="M240.8,69.8l3.18.66A6,6,0,0,1,242,73.77a6.55,6.55,0,0,1-4,1.56,7,7,0,0,1-5.18-1.58A7.86,7.86,0,0,1,232,63.21a7,7,0,0,1,9.71-.93,7.24,7.24,0,0,1,2.23,5.07,3.84,3.84,0,0,1,0,.5q0,.29,0,.45l0,.2-9.82.81a3,3,0,0,0,1.25,2.14,3.48,3.48,0,0,0,2.47.7A3,3,0,0,0,240.8,69.8Zm-6.8-3,6.14-.51a2.84,2.84,0,0,0-1-1.85,3,3,0,0,0-2.31-.6,3,3,0,0,0-2.11,1A2.82,2.82,0,0,0,234,66.76Z"/><path class="l" d="M250.56,66.06,251,74l-3.72.22-.8-13.75,3.6-.22.1,1.71a4,4,0,0,1,1.59-1.64,5.32,5.32,0,0,1,2.26-.66,4.55,4.55,0,0,1,3.8,1.31,6,6,0,0,1,1.5,3.85l.5,8.66-3.71.22-.47-8a3,3,0,0,0-.75-2,2.35,2.35,0,0,0-2-.64,2.31,2.31,0,0,0-1.82.92A3,3,0,0,0,250.56,66.06Z"/><path class="l" d="M262.37,55.06a2.22,2.22,0,0,1,.6-1.66,2.17,2.17,0,0,1,1.6-.75,2.21,2.21,0,0,1,1.65.61,2.28,2.28,0,0,1,.74,1.62,2.18,2.18,0,0,1-.61,1.62,2.3,2.3,0,0,1-3.25.13A2.18,2.18,0,0,1,262.37,55.06Zm4.88,18.11-3.72.14L263,59.55l3.72-.15Z"/><path class="l" d="M274.73,65l.14,7.92-3.72.07-.25-13.77,3.61-.07,0,1.71a3.8,3.8,0,0,1,1.65-1.57,5.22,5.22,0,0,1,2.29-.58,4.56,4.56,0,0,1,3.73,1.46,5.93,5.93,0,0,1,1.35,3.91l.16,8.68-3.73.07-.14-8a3,3,0,0,0-.67-2,2.69,2.69,0,0,0-3.79.12A3,3,0,0,0,274.73,65Z"/><path class="l" d="M286.34,73.51l3.37-.85a3,3,0,0,0,1,1.89,3.18,3.18,0,0,0,2.14.76q3.67,0,3.72-3.78l0-1a3.68,3.68,0,0,1-1.48,1.24,5.27,5.27,0,0,1-2.38.47,6.09,6.09,0,0,1-4.55-2,6.58,6.58,0,0,1-1.77-4.81,6.72,6.72,0,0,1,1.88-4.74A6,6,0,0,1,293,58.82a5.27,5.27,0,0,1,2.52.58,3.21,3.21,0,0,1,1.38,1.35l0-1.63,3.58.05-.17,12.3a7.62,7.62,0,0,1-1.86,5.14,6.87,6.87,0,0,1-5.46,2,7.11,7.11,0,0,1-4.53-1.52A5.41,5.41,0,0,1,286.34,73.51Zm7.11-4.46a3.14,3.14,0,0,0,2.36-.92,3.54,3.54,0,0,0,.94-2.54,3.43,3.43,0,0,0-.9-2.53,3.17,3.17,0,0,0-2.3-1,3.23,3.23,0,0,0-2.38.92,3.45,3.45,0,0,0-1,2.51,3.51,3.51,0,0,0,.89,2.56A3.2,3.2,0,0,0,293.45,69.05Z"/><path class="l" d="M333.1,74.68l-3.8-.24.89-13.89L323.6,74.08l-3.21-.21-4.82-14.14-.88,13.78L311,73.27l1.26-19.81,5.09.33,5,14.68,6.72-13.94,5.25.34Z"/><path class="l" d="M346.78,71.14l3,1.22a6,6,0,0,1-2.49,2.91,6.66,6.66,0,0,1-4.18.83,7,7,0,0,1-4.82-2.48,7.88,7.88,0,0,1,1-10.54,6.47,6.47,0,0,1,4.94-1.56A6.56,6.56,0,0,1,349,63.9a7.33,7.33,0,0,1,1.29,5.38c0,.15,0,.32-.07.5s0,.34,0,.45l-.05.19-9.81-1a3.06,3.06,0,0,0,.84,2.33,3.49,3.49,0,0,0,2.31,1.12A3,3,0,0,0,346.78,71.14Zm-6.15-4.2,6.13.59a2.84,2.84,0,0,0-.63-2,3.05,3.05,0,0,0-2.17-1,3,3,0,0,0-2.26.63A2.78,2.78,0,0,0,340.63,66.94Z"/><path class="l" d="M357,69.21l-1,7.87-3.7-.46L354.06,63l3.59.44-.21,1.69a3.88,3.88,0,0,1,1.85-1.32,5.22,5.22,0,0,1,2.35-.24,4.53,4.53,0,0,1,3.49,2,6,6,0,0,1,.79,4.06l-1.07,8.62-3.69-.46,1-8a3,3,0,0,0-.38-2,2.67,2.67,0,0,0-3.77-.41A3,3,0,0,0,357,69.21Z"/><path class="l" d="M377.28,80a7.83,7.83,0,0,1,.11-1.48,3.3,3.3,0,0,1-1.77,1.13,5.42,5.42,0,0,1-2.27.12,4.9,4.9,0,0,1-3.56-2.11,5.65,5.65,0,0,1-.8-4L370.31,65l3.68.56-1.2,7.87a3.06,3.06,0,0,0,.33,2.07,2.35,2.35,0,0,0,1.74,1,2.5,2.5,0,0,0,2-.45,2.8,2.8,0,0,0,1-1.85l1.21-7.91,3.68.56L381,78.06a20.07,20.07,0,0,0-.23,2.48Z"/><path class="l" d="M397,89l8.06-2.89c.15.4,0,.5.17,0a3.82,3.82,0,0,1,.53-.82q.18-.23.39-.45l.22-.21.11-.1.17-.14c.9-.79,2.35-1.75,4.07-3.25a19.49,19.49,0,0,0,2.6-2.77,16.06,16.06,0,0,0,2.13-3.76l.36-1,.23-.82c.13-.55.26-1.1.34-1.66a17.49,17.49,0,0,0,.18-3.39,15.68,15.68,0,0,0-1.68-6.47,12.38,12.38,0,0,0-4.18-4.71,7.29,7.29,0,0,0-4.86-1.37l-7.41,5.43a6.2,6.2,0,0,1,4.42-.31A7,7,0,0,1,406.49,63a9.35,9.35,0,0,1,1,8.58,8.46,8.46,0,0,1-2.44,3.26c-1.13,1-2.52,1.94-3.93,3.13a13.77,13.77,0,0,0-3.65,4.64A8.55,8.55,0,0,0,397,89Z"/><path class="l" d="M394,90.12l.64-.23a10.26,10.26,0,0,1-.54-4.48,12.38,12.38,0,0,1,1.09-3.9,16.23,16.23,0,0,1,4.3-5.5c1.56-1.31,2.94-2.24,3.89-3.1a6,6,0,0,0,1.77-2.29l.11-.31.13-.47a7.55,7.55,0,0,0,.17-1,8.81,8.81,0,0,0,0-1.92,7.44,7.44,0,0,0-1.33-3.58,5.93,5.93,0,0,0-3.09-2.2,5.28,5.28,0,0,0-3.77.26l-.28.21a5,5,0,0,1,3.6-.25,5.68,5.68,0,0,1,2.95,2.09,7.15,7.15,0,0,1,1.26,3.42,8.61,8.61,0,0,1,0,1.83,9.12,9.12,0,0,1-.17.91l-.12.44-.1.27a5.33,5.33,0,0,1-1.59,2c-.9.82-2.28,1.74-3.88,3.08a17.11,17.11,0,0,0-4.47,5.74,12.69,12.69,0,0,0-1.15,4.12A11,11,0,0,0,394,90.12Z"/><path class="l" d="M445.12,117.2l6.21-5.89a68.57,68.57,0,0,0-16.46-12.83,63.81,63.81,0,0,0-19.79-7.07l-1.5,8.43A57.56,57.56,0,0,1,445.12,117.2Z"/><path class="l" d="M442.8,119.39l.49-.46a55,55,0,0,0-30.15-16.61L413,103A54.37,54.37,0,0,1,442.8,119.39Z"/><path class="l" d="M461.91,149.43l8.37-1.8a76,76,0,0,0-18.95-36.32l-6.21,5.89A67.6,67.6,0,0,1,461.91,149.43Z"/><path class="l" d="M458.79,150.1l.65-.14a65,65,0,0,0-16.15-31l-.49.46A64.35,64.35,0,0,1,458.79,150.1Z"/><path class="l" d="M463.54,186.8h8.56v-19c0-3,0-6.62-.3-10a78,78,0,0,0-1.52-10.19l-8.37,1.8a71.75,71.75,0,0,1,1.36,9.11c.27,3.07.27,6.11.27,9.3Z"/><path class="l" d="M460.35,186.8H461v-19c0-3.24,0-6.11-.26-9.09a68.53,68.53,0,0,0-1.32-8.79l-.65.14a69.32,69.32,0,0,1,1.3,8.71c.26,2.95.26,5.78.26,9Z"/><rect class="l" x="463.54" y="186.8" width="8.56" height="37.92"/><rect class="l" x="460.35" y="186.8" width="0.67" height="37.92"/><rect class="l" x="463.54" y="224.72" width="8.56" height="37.92"/><rect class="l" x="460.35" y="224.72" width="0.67" height="37.92"/><rect class="l" x="463.54" y="262.64" width="8.56" height="37.92"/><rect class="l" x="460.35" y="262.64" width="0.67" height="37.92"/><rect class="l" x="463.54" y="300.56" width="8.56" height="37.92"/><rect class="l" x="460.35" y="300.56" width="0.67" height="37.92"/><polygon class="l" points="463.54 376.04 472.1 377.53 472.1 338.48 463.54 338.48 463.54 376.04"/><polygon class="l" points="460.35 375.49 461.02 375.61 461.02 338.48 460.35 338.48 460.35 375.49"/><path class="l" d="M439,390.17v8.56h10.16c2.11,0,4.25,0,6.31-.11,1-.07,2-.18,3-.32.49-.07,1-.19,1.46-.28s1-.26,1.42-.43a15.38,15.38,0,0,0,5.13-3.18,17.38,17.38,0,0,0,3.57-4.9c1.86-3.66,2.08-7.72,2.09-12L463.54,376v4.24a11.4,11.4,0,0,1-.85,4.12,10.09,10.09,0,0,1-2.36,3.48,8.53,8.53,0,0,1-3.65,2,17.52,17.52,0,0,1-4.22.25H439Z"/><path class="l" d="M439,387v.68h12.62a15.41,15.41,0,0,0,3.59-.21,7.26,7.26,0,0,0,3.12-1.74,8.73,8.73,0,0,0,2-3c1-2.25.67-4.74.73-7.12l-.67-.12c-.06,2.27.25,4.65-.7,6.79a8.31,8.31,0,0,1-1.92,2.83,6.92,6.92,0,0,1-3,1.67,15.14,15.14,0,0,1-3.43.2H439Z"/><rect class="l" x="401.03" y="390.17" width="37.92" height="8.56"/><rect class="l" x="401.03" y="386.97" width="37.92" height="0.67"/><rect class="l" x="363.11" y="390.16" width="37.92" height="8.56"/><rect class="l" x="363.11" y="386.97" width="37.92" height="0.67"/><rect class="l" x="325.19" y="390.16" width="37.92" height="8.56"/><rect class="l" x="325.19" y="386.97" width="37.92" height="0.67"/><rect class="l" x="287.27" y="390.15" width="37.92" height="8.56"/><rect class="l" x="287.27" y="386.96" width="37.92" height="0.67"/><rect class="l" x="249.35" y="390.15" width="37.92" height="8.56"/><rect class="l" x="249.35" y="386.96" width="37.92" height="0.67"/><rect class="l" x="211.43" y="390.15" width="37.92" height="8.56"/><rect class="l" x="211.43" y="386.95" width="37.92" height="0.67"/><rect class="l" x="173.51" y="390.14" width="37.92" height="8.56"/><rect class="l" x="173.52" y="386.95" width="37.92" height="0.67"/><rect class="l" x="135.6" y="390.14" width="37.92" height="8.56"/><rect class="l" x="135.6" y="386.95" width="37.92" height="0.67"/><path class="l" d="M111,376l-8.56,1.48a36.16,36.16,0,0,0,.75,8.35,17.68,17.68,0,0,0,3.73,7.28,15,15,0,0,0,6.74,4.58,19.62,19.62,0,0,0,4,.76l2.08.18,2.14.06H135.6v-8.56H121.06a13.06,13.06,0,0,1-2.86-.18,8.4,8.4,0,0,1-4.78-3,10.6,10.6,0,0,1-2.27-5.21,17.25,17.25,0,0,1-.14-2.87Z"/><path class="l" d="M114.2,375.45l-.67.12V378a14.32,14.32,0,0,0,.12,2.45,9.05,9.05,0,0,0,1.93,4.45,7.25,7.25,0,0,0,4.08,2.55,11.73,11.73,0,0,0,2.44.15h13.5v-.68H122.38a10.07,10.07,0,0,1-2.33-.14,6.87,6.87,0,0,1-3.89-2.43,8.76,8.76,0,0,1-1.85-4.24,15.22,15.22,0,0,1-.11-2.34Z"/><polygon class="l" points="111.01 338.44 102.45 338.44 102.45 377.5 111.01 376.01 111.01 338.44"/><polygon class="l" points="114.2 338.44 113.53 338.44 113.53 375.57 114.2 375.45 114.2 338.44"/><rect class="l" x="102.45" y="300.52" width="8.56" height="37.92"/><rect class="l" x="113.53" y="300.52" width="0.67" height="37.92"/><rect class="l" x="102.45" y="262.6" width="8.56" height="37.92"/><rect class="l" x="113.53" y="262.6" width="0.67" height="37.92"/><rect class="l" x="102.45" y="224.69" width="8.56" height="37.92"/><rect class="l" x="113.53" y="224.69" width="0.67" height="37.92"/><rect class="l" x="102.45" y="186.77" width="8.56" height="37.92"/><rect class="l" x="113.53" y="186.77" width="0.67" height="37.92"/><path class="l" d="M112.64,149.4l-8.37-1.81a79.94,79.94,0,0,0-1.53,10.2c-.3,3.39-.3,7-.29,10v19H111v-19c0-3.2,0-6.23.27-9.3A69.74,69.74,0,0,1,112.64,149.4Z"/><path class="l" d="M115.76,150.07l-.66-.14a66.55,66.55,0,0,0-1.31,8.79c-.26,3-.26,5.84-.26,9.09v19h.67v-19c0-3.26,0-6.08.26-9A67.12,67.12,0,0,1,115.76,150.07Z"/><path class="l" d="M129.43,117.16l-6.22-5.89a76.16,76.16,0,0,0-18.94,36.32l8.37,1.81A67.5,67.5,0,0,1,129.43,117.16Z"/><path class="l" d="M131.74,119.36l-.49-.47a65.08,65.08,0,0,0-16.15,31l.66.14A64.42,64.42,0,0,1,131.74,119.36Z"/><path class="l" d="M161,99.8l-1.51-8.43a63.92,63.92,0,0,0-19.79,7.08,63,63,0,0,0-8.73,5.8,65.12,65.12,0,0,0-7.73,7l6.22,5.89A57.62,57.62,0,0,1,161,99.8Z"/><path class="l" d="M161.53,103l-.12-.67a55.13,55.13,0,0,0-30.16,16.61l.49.47A54.4,54.4,0,0,1,161.53,103Z"/><path class="l" d="M174.38,61.88l3.69-7.73a13.45,13.45,0,0,0-9.61-.71A14.37,14.37,0,0,0,161,58.71a16.16,16.16,0,0,0-3,7.89,17.26,17.26,0,0,0,1.06,8,15.59,15.59,0,0,0,2.13,3.77,19.38,19.38,0,0,0,2.6,2.76c1.71,1.5,3.17,2.47,4.07,3.25l.17.14.11.11c.07.06.14.14.21.21a4.08,4.08,0,0,1,.4.44,4,4,0,0,1,.52.82c.21.48,0,.38.18,0L177.54,89a8.54,8.54,0,0,0-.47-6.47,13.76,13.76,0,0,0-3.64-4.65c-1.41-1.19-2.81-2.12-3.93-3.13a8.12,8.12,0,0,1-1.6-11,5.72,5.72,0,0,1,3-2.13A4.81,4.81,0,0,1,174.38,61.88Z"/><path class="l" d="M173,64.76l.29-.61a2.34,2.34,0,0,0-1.69-.09,3.29,3.29,0,0,0-1.68,1.21,5.16,5.16,0,0,0-.88,2.48,6.25,6.25,0,0,0,.35,2.83,5.94,5.94,0,0,0,1.77,2.3c1,.85,2.33,1.78,3.89,3.09a16.37,16.37,0,0,1,4.3,5.51,12,12,0,0,1,1.08,3.9,10.27,10.27,0,0,1-.53,4.48l.63.23a10.91,10.91,0,0,0,.57-4.78A12.75,12.75,0,0,0,180,81.19a17,17,0,0,0-4.47-5.73c-1.61-1.35-3-2.27-3.88-3.09a5.21,5.21,0,0,1-1.59-2,5.57,5.57,0,0,1-.31-2.52,4.45,4.45,0,0,1,.75-2.15,2.55,2.55,0,0,1,1.33-1A1.67,1.67,0,0,1,173,64.76Z"/><path class="l" d="M413.58,99.84l1.5-8.43-.45-.09-.22,0-.23,0-.91-.13-1.82-.25L411,90.8l-.46,0-.91-.07-1.83-.15-.2,0h0v0l0,0-.05-.08-.1-.16-.21-.32-.39-.64L406.05,88l-.34-.6-.3-.56-.07-.14,0-.11-.11-.23-.11-.25L397,89l0,.11,0,.1.08.19.16.39.33.7.34.66.36.64.35.63.37.62.74,1.21.76,1.2.77,1.17.79,1.17.8,1.15h1.37l1.33,0,1.33,0,1.33.11,1.33.11.33,0h.16l.17,0,.66.09,1.32.18.66.1.16,0,.16,0Z"/><polygon class="l" points="413.14 102.32 412.79 102.25 412.61 102.21 412.44 102.19 411.73 102.09 410.33 101.89 409.98 101.85 409.8 101.82 409.62 101.81 408.91 101.75 407.5 101.63 407.14 101.6 406.97 101.58 406.88 101.58 406.79 101.58 406.08 101.56 404.66 101.52 403.94 101.5 403.17 101.5 401.62 101.5 399.83 98.91 398.93 97.57 398.05 96.21 397.19 94.83 396.34 93.38 395.91 92.63 395.49 91.83 395.07 90.95 394.86 90.45 394.75 90.19 394.7 90.06 394.64 89.89 394 90.12 394.07 90.3 394.12 90.44 394.24 90.72 394.36 91 394.47 91.26 394.69 91.73 394.92 92.18 395.36 93.01 395.8 93.8 396.69 95.3 397.58 96.73 398.5 98.14 399.43 99.52 401.27 102.17 402.86 102.17 403.65 102.17 404.05 102.17 404.41 102.18 405.85 102.22 406.57 102.24 406.93 102.26 407.29 102.29 408.73 102.41 409.45 102.47 409.63 102.48 409.72 102.49 409.81 102.5 410.17 102.55 411.6 102.75 412.31 102.85 412.49 102.88 412.67 102.91 413.02 102.98 413.14 102.32"/><polygon class="l" points="177.54 89.01 169.48 86.12 169.37 86.36 169.26 86.59 169.21 86.71 169.14 86.84 168.84 87.41 168.5 88.01 167.75 89.26 166.94 90.54 166.75 90.5 166.75 90.5 166.75 90.5 166.74 90.5 166.72 90.5 166.69 90.5 166.64 90.51 166.52 90.52 166.29 90.54 165.84 90.57 164.92 90.65 164.01 90.73 163.55 90.77 163.09 90.83 161.28 91.08 160.37 91.21 160.14 91.24 159.91 91.28 159.46 91.37 160.97 99.8 161.29 99.74 161.46 99.7 161.62 99.68 162.28 99.59 163.6 99.4 164.26 99.31 164.42 99.29 164.59 99.27 164.92 99.24 166.25 99.13 167.58 99.03 168.91 98.99 170.24 98.95 170.57 98.94 170.92 98.94 171.61 98.94 171.61 98.94 171.61 98.94 171.61 98.94 172.41 97.8 173.2 96.63 173.97 95.45 174.73 94.26 175.47 93.04 175.83 92.43 176.19 91.8 176.54 91.16 176.89 90.49 177.22 89.79 177.38 89.41 177.46 89.22 177.5 89.12 177.54 89.01"/><polygon class="l" points="179.91 89.86 179.85 90.02 179.8 90.15 179.69 90.41 179.47 90.92 179.05 91.79 178.63 92.59 178.21 93.35 177.36 94.79 176.49 96.18 175.62 97.54 174.72 98.88 172.93 101.46 171.38 101.46 170.61 101.46 169.89 101.48 168.47 101.52 167.76 101.54 167.67 101.54 167.58 101.55 167.4 101.56 167.05 101.59 165.63 101.71 164.92 101.77 164.75 101.78 164.57 101.81 164.22 101.86 162.81 102.06 162.11 102.15 161.93 102.18 161.76 102.21 161.41 102.28 161.53 102.94 161.88 102.87 162.06 102.84 162.24 102.82 162.95 102.72 164.38 102.52 164.74 102.47 164.83 102.45 164.92 102.45 165.1 102.43 165.82 102.37 167.25 102.25 167.61 102.22 167.97 102.21 168.69 102.19 170.14 102.15 170.5 102.14 170.89 102.14 171.69 102.14 173.28 102.14 175.12 99.49 176.05 98.1 176.96 96.7 177.86 95.26 178.75 93.77 179.19 92.98 179.63 92.14 179.85 91.69 180.08 91.22 180.19 90.96 180.31 90.68 180.42 90.4 180.48 90.26 180.54 90.08 179.91 89.86"/><use width="146.05" height="61.89" transform="translate(214.46 324.45) scale(0.21)" xlink:href="#b"/><path class="n" d="M831.07,224.87c0-56.89-62.37-103-139.31-103S552.45,168,552.45,224.87s62.37,103,139.31,103a186.69,186.69,0,0,0,32.9-2.89,191.52,191.52,0,0,0,18.58,10.95c11.09,5.44,48.33,15.68,48.33,15.68s-12.56-7.9-21.89-26.57a64.6,64.6,0,0,1-5-12.41C804.52,294.51,831.07,262,831.07,224.87Z"/><use width="146.05" height="61.89" transform="translate(648.91 232.19) scale(0.59)" xlink:href="#b"/><path class="n" d="M566.14,159.29l-2.15,2.6-5.49-4.56-4.79,5.77,5.49,4.55-2.14,2.58-13.23-11,2.14-2.57,5.31,4.41,4.79-5.76-5.32-4.42,2.16-2.59Z"/><path class="n" d="M561.86,148.84a6.48,6.48,0,0,1,6.56-6.09,6.66,6.66,0,0,1,6.17,6.65,6.48,6.48,0,0,1-6.56,6.09,6.66,6.66,0,0,1-6.17-6.65Zm6.49,3.57a3,3,0,0,0,3.15-2.92,4,4,0,0,0-3.4-3.66,2.92,2.92,0,0,0-2.19.8,3,3,0,0,0-1,2.12,3.44,3.44,0,0,0,1,2.43A3.36,3.36,0,0,0,568.35,152.41Z"/><path class="n" d="M576.62,134.42l2.75-2,6.59,4.72-2.72-7.52,2.59-1.88,4,11.85-2.61,1.9-7.05-5,2.57,8.21-2.65,1.92L570,139.23l2.75-2,6.29,4.91Z"/><path class="n" d="M601.35,113l7.08,13.69c.36.7.72,1.32,1.07,1.87L606.77,130a6.38,6.38,0,0,1-.74-1.17,3.13,3.13,0,0,1-.6,1.68,4.42,4.42,0,0,1-1.61,1.35,5.39,5.39,0,0,1-4.53.33,6.93,6.93,0,0,1-4.13-7.92,5.29,5.29,0,0,1,2.83-3.49c1.52-.78,2.74-.86,3.67-.23l-3.13-6.06Zm-2.7,14.43a3.58,3.58,0,0,0,1.88,1.83,2.77,2.77,0,0,0,2.31-.18,2.71,2.71,0,0,0,1.45-1.78,3.6,3.6,0,0,0-.41-2.6,3.46,3.46,0,0,0-1.86-1.79,2.94,2.94,0,0,0-3.75,2A3.48,3.48,0,0,0,598.65,127.41Z"/><path class="n" d="M609.06,117.24a6.47,6.47,0,0,1,8.26-3.43,6.66,6.66,0,0,1,3.48,8.38,6.47,6.47,0,0,1-8.27,3.43,6.67,6.67,0,0,1-3.47-8.38Zm4.84,5.61a3,3,0,0,0,4-1.65,3.41,3.41,0,0,0-.14-2.64,3.37,3.37,0,0,0-1.78-2,3,3,0,0,0-4,1.64,3.39,3.39,0,0,0,.14,2.65A3.45,3.45,0,0,0,613.9,122.85Z"/><path class="n" d="M635.94,123.57l-3.28,1,1-6.75-7.8-8.58,3.47-1,5,5.81.85-7.53,3.31-1Z"/><path class="n" d="M641.51,106.26a6.47,6.47,0,0,1,8.74-1.93,6.65,6.65,0,0,1,2,8.86,6.47,6.47,0,0,1-8.74,1.93,6.68,6.68,0,0,1-2-8.86Zm3.79,6.37a2.93,2.93,0,0,0,2.29.41,2.88,2.88,0,0,0,1.9-1.34,3.39,3.39,0,0,0,.33-2.63,3.44,3.44,0,0,0-1.4-2.25,3,3,0,0,0-4.2.93,3.43,3.43,0,0,0-.32,2.63A3.36,3.36,0,0,0,645.3,112.63Z"/><path class="n" d="M664.15,112.7a7.12,7.12,0,0,1-.28-1.26,2.84,2.84,0,0,1-1.18,1.39,4.8,4.8,0,0,1-1.85.68,4.26,4.26,0,0,1-3.48-.85,4.81,4.81,0,0,1-1.69-3.14l-1.1-7.47,3.19-.47,1,6.82a2.6,2.6,0,0,0,.81,1.63,2,2,0,0,0,1.7.42,2.16,2.16,0,0,0,1.54-.87,2.35,2.35,0,0,0,.35-1.78l-1-6.87,3.19-.47,1.43,9.67a17.63,17.63,0,0,0,.43,2.12Z"/><path class="n" d="M679.39,111.23l-3.22.22L675,93.93l3.22-.22Z"/><path class="n" d="M681.74,95.25a2,2,0,0,1,.53-1.44,1.88,1.88,0,0,1,1.38-.64,2,2,0,0,1,2.06,1.94,1.9,1.9,0,0,1-.53,1.4,1.92,1.92,0,0,1-1.38.63,2,2,0,0,1-2.06-1.89Zm4.17,15.7-3.22.12-.43-11.93,3.23-.12Z"/><path class="n" d="M700.85,99,696,104l4.79,7-3.95,0-3.1-4.59-1.35,1.39,0,3.15-3.23,0,.21-17.56,3.23,0-.12,10.06L696.63,99Z"/><path class="n" d="M710.2,107.43l2.63,1a5.12,5.12,0,0,1-2.1,2.57,5.71,5.71,0,0,1-3.6.81,6,6,0,0,1-4.22-2,6.81,6.81,0,0,1,.61-9.15,6.1,6.1,0,0,1,8.44.51,6.3,6.3,0,0,1,1.23,4.63c0,.13,0,.28,0,.44s0,.29,0,.38l0,.17-8.51-.62a2.61,2.61,0,0,0,.77,2,3.06,3.06,0,0,0,2,.93A2.61,2.61,0,0,0,710.2,107.43Zm-5.41-3.5,5.32.38a2.47,2.47,0,0,0-.59-1.72,2.62,2.62,0,0,0-1.9-.82,2.59,2.59,0,0,0-1.94.59A2.42,2.42,0,0,0,704.79,103.93Z"/><path class="n" d="M724.14,118.19l-3.37-.57,3.8-5.66-3.26-11.13,3.56.6,2,7.42,4.06-6.4,3.4.57Z"/><path class="n" d="M736.71,105a6.46,6.46,0,0,1,8.7,2.08,6.64,6.64,0,0,1-2.1,8.82,6.48,6.48,0,0,1-8.71-2.07,6.67,6.67,0,0,1,2.11-8.83Zm.63,7.39a3,3,0,0,0,1.88,1.37,2.92,2.92,0,0,0,2.3-.38,4,4,0,0,0,1.16-4.86,3,3,0,0,0-4.18-1,4,4,0,0,0-1.16,4.87Z"/><path class="n" d="M754.26,120.72a6.47,6.47,0,0,1,.29-1.25,2.87,2.87,0,0,1-1.67.73,4.85,4.85,0,0,1-2-.2,4.26,4.26,0,0,1-2.76-2.29,4.86,4.86,0,0,1-.14-3.57l2.29-7.19,3.07,1-2.08,6.56a2.58,2.58,0,0,0,0,1.82,2,2,0,0,0,1.35,1.13,2.2,2.2,0,0,0,1.77-.11,2.4,2.4,0,0,0,1.09-1.45l2.1-6.61,3.08,1-3,9.31a18.57,18.57,0,0,0-.54,2.1Z"/><path class="n" d="M771.18,114.23l-1.18,3a5.92,5.92,0,0,0-.87-.44,3.15,3.15,0,0,0-2.37-.07,3.38,3.38,0,0,0-1.73,2.09l-2,5.09-3-1.17,4.34-11.12,2.91,1.13-.64,1.65a3.4,3.4,0,0,1,3.84-.5A6.07,6.07,0,0,1,771.18,114.23Z"/><path class="n" d="M774.53,125.14l2.74.7a1.89,1.89,0,0,0,0,1.44,2.22,2.22,0,0,0,1.17,1.17,1.79,1.79,0,0,0,1.19.22,1,1,0,0,0,.75-.58c.27-.53.06-1.07-.63-1.61l-1.24-1a4.52,4.52,0,0,1-1.66-2.29,3.29,3.29,0,0,1,.26-2.4,3.62,3.62,0,0,1,2.38-1.9,4.64,4.64,0,0,1,3.37.42,5.94,5.94,0,0,1,1.75,1.27,3.85,3.85,0,0,1,.87,1.44,4.45,4.45,0,0,1,.2,1.34,3.66,3.66,0,0,1-.19,1.13l-2.67-.67a2.05,2.05,0,0,0,0-1.25,1.86,1.86,0,0,0-1-1.06,1.73,1.73,0,0,0-1.12-.18,1,1,0,0,0-.78.55c-.26.52-.1,1,.49,1.45l1.36,1.09a4.83,4.83,0,0,1,1.75,2.37,3.28,3.28,0,0,1-.23,2.49,3.7,3.7,0,0,1-2.32,1.92,4.74,4.74,0,0,1-3.58-.49,6.32,6.32,0,0,1-1.85-1.35,3.83,3.83,0,0,1-.94-1.56,4.72,4.72,0,0,1-.21-1.43A4,4,0,0,1,774.53,125.14Z"/><path class="n" d="M794.89,122.2l-1.79,3.08,2.08,1.21L793.74,129l-2.08-1.21-2.51,4.32a1.42,1.42,0,0,0-.25,1.09,1.52,1.52,0,0,0,.77.81,3.8,3.8,0,0,0,.91.42l-1.35,2.31a4.73,4.73,0,0,1-1.71-.67,3.8,3.8,0,0,1-1.9-2.24,3.56,3.56,0,0,1,.48-2.85l2.79-4.8L787,125.06l1.44-2.48.52.31a1.73,1.73,0,0,0,1.45.23,2,2,0,0,0,1.1-.94l.84-1.45Z"/><path class="n" d="M800.14,139l1.78,2.18a5.12,5.12,0,0,1-3.11,1.17,5.66,5.66,0,0,1-3.52-1.11,6,6,0,0,1-2.62-3.89,6.8,6.8,0,0,1,5.13-7.6,6.09,6.09,0,0,1,7,4.68,6.29,6.29,0,0,1-1.27,4.62c-.07.11-.15.23-.25.36s-.18.23-.23.31l-.12.13L795.92,135a2.66,2.66,0,0,0-.33,2.13,3,3,0,0,0,1.28,1.81A2.6,2.6,0,0,0,800.14,139Zm-2.91-5.75,4.4,3a2.46,2.46,0,0,0,.36-1.78,2.69,2.69,0,0,0-1.23-1.67,2.59,2.59,0,0,0-2-.46A2.42,2.42,0,0,0,797.23,133.26Z"/><path class="n" d="M803.34,142.48a3.18,3.18,0,0,1,2.33-1.26,4.77,4.77,0,0,1,2.72.74l2.54,1.53c.52.32.93.3,1.24-.08a1.38,1.38,0,0,0,.3-1.19,2.66,2.66,0,0,0-2.47-1.88,2,2,0,0,0-1.39.64l-1.82-2.29a4.16,4.16,0,0,1,2.92-1.14,5.22,5.22,0,0,1,3.53,1.37,5.33,5.33,0,0,1,2.22,3.48,4.49,4.49,0,0,1-1.11,3.32l-3.74,4.52a10.65,10.65,0,0,0-1.09,1.56l-2.28-1.89a6.26,6.26,0,0,1,.81-1.18,3.89,3.89,0,0,1-3.84-.88,4.17,4.17,0,0,1-1.61-2.71A3.36,3.36,0,0,1,803.34,142.48Zm2.93,4a2.79,2.79,0,0,0,1.86.7,2.71,2.71,0,0,0,1.92-1.17l.34-.41-2.34-1.39a1.46,1.46,0,0,0-2.1.21,1.36,1.36,0,0,0-.31,1A1.6,1.6,0,0,0,806.27,146.44Z"/><path class="n" d="M828.14,153.46l-6.93.13-1.49,8.33-2.78-2.81,1-5.45-1.94,0-2.24,2.21-2.27-2.29L824,141.27l2.27,2.3-7.16,7.08,6-.19Z"/><path class="n" d="M822.77,165.2a1.84,1.84,0,0,1,.72-1.28,1.87,1.87,0,0,1,1.42-.41,1.8,1.8,0,0,1,1.29.71,1.88,1.88,0,0,1,.4,1.43,1.84,1.84,0,0,1-.72,1.29,1.79,1.79,0,0,1-1.42.4,1.89,1.89,0,0,1-1.28-.73A1.8,1.8,0,0,1,822.77,165.2Zm5.45-1-1.63-2.06a7,7,0,0,1,.72-.69,4.32,4.32,0,0,1,4-.68l1.4.37a2.3,2.3,0,0,0,2.15-.38,2.13,2.13,0,0,0,.82-1.45,2.42,2.42,0,0,0-.61-1.8,2.18,2.18,0,0,0-1.78-.94,3,3,0,0,0-1.91.7,2.84,2.84,0,0,0-.55.56l-1.8-2.47a4.06,4.06,0,0,1,.78-.77,5,5,0,0,1,3.76-1.08,5.41,5.41,0,0,1,3.72,2.23,5.92,5.92,0,0,1,1.49,4.18,4.51,4.51,0,0,1-1.72,3.31,5.06,5.06,0,0,1-4.85.78L831,163.7a2.81,2.81,0,0,0-2.66.44Z"/><path class="o" d="M689,244.35c-4.21-8.2-7.56-15.8,2.66-22.25s6.82-15.85,3.78-20.33S688.85,192,690.7,187"/><path class="o" d="M669.27,244.35c-4.21-8.2-7.57-15.8,2.65-22.25s6.83-15.85,3.79-20.33S669.08,192,670.93,187"/><path class="o" d="M708.81,244.35c-4.2-8.2-7.56-15.8,2.66-22.25s6.82-15.85,3.79-20.33S708.62,192,710.47,187"/><path class="l" d="M199.22,290.42c0-5.24,2.74-8.49,7.15-8.49a6.33,6.33,0,0,1,6.56,5.26h-2.06a4.46,4.46,0,0,0-4.5-3.4c-3.11,0-5.07,2.56-5.07,6.63s2,6.61,5.08,6.61a4.33,4.33,0,0,0,4.49-3h2.06c-.54,3-3.1,4.9-6.55,4.9C202,298.9,199.22,295.64,199.22,290.42Z"/><path class="l" d="M216.18,281.6h1.93v16.91h-1.93Z"/><path class="l" d="M221.15,295.12c0-2.16,1.59-3.41,4.41-3.58l3.49-.21v-1.1c0-1.5-.93-2.32-2.74-2.32-1.45,0-2.46.55-2.73,1.51h-2c.26-1.94,2.17-3.23,4.75-3.23,3,0,4.6,1.52,4.6,4v8.28h-1.84v-1.78H229a4.18,4.18,0,0,1-3.73,2C222.89,298.73,221.15,297.34,221.15,295.12Zm7.9-1.12v-1.11l-3.25.21c-1.85.13-2.65.77-2.65,2s1,1.95,2.44,1.95A3.18,3.18,0,0,0,229.05,294Z"/><path class="l" d="M238.79,286.19c2.54,0,4.3,1.26,4.56,3.25h-1.91c-.26-1-1.2-1.61-2.66-1.61s-2.56.73-2.56,1.81c0,.83.67,1.35,2.1,1.7l1.86.45c2.28.55,3.38,1.54,3.38,3.28,0,2.16-2.1,3.66-4.85,3.66s-4.55-1.29-4.76-3.3h2c.32,1,1.29,1.67,2.84,1.67s2.79-.78,2.79-1.89c0-.83-.62-1.39-1.92-1.7l-2.07-.51c-2.27-.55-3.31-1.53-3.31-3.28C234.27,287.71,236.22,286.19,238.79,286.19Z"/><path class="l" d="M250.6,286.19c2.54,0,4.31,1.26,4.56,3.25h-1.91c-.25-1-1.2-1.61-2.66-1.61s-2.56.73-2.56,1.81c0,.83.68,1.35,2.1,1.7l1.87.45c2.28.55,3.38,1.54,3.38,3.28,0,2.16-2.1,3.66-4.85,3.66s-4.55-1.29-4.77-3.3h2c.33,1,1.29,1.67,2.84,1.67s2.8-.78,2.8-1.89c0-.83-.63-1.39-1.92-1.7l-2.08-.51c-2.27-.55-3.3-1.53-3.3-3.28C246.09,287.71,248,286.19,250.6,286.19Z"/><path class="l" d="M258.07,282.72a1.35,1.35,0,1,1,1.35,1.35A1.35,1.35,0,0,1,258.07,282.72Zm.38,3.69h1.94v12.1h-1.94Z"/><path class="l" d="M272.13,290.11a3,3,0,0,0-3.12-2.17c-2.18,0-3.55,1.74-3.55,4.48S266.85,297,269,297a2.92,2.92,0,0,0,3.12-2.13h2c-.35,2.23-2.16,3.87-5.07,3.87-3.39,0-5.56-2.46-5.56-6.31s2.16-6.23,5.55-6.23c2.94,0,4.74,1.77,5.08,3.92Z"/><path class="l" d="M276.22,295.12c0-2.16,1.6-3.41,4.41-3.58l3.5-.21v-1.1c0-1.5-.94-2.32-2.74-2.32-1.45,0-2.46.55-2.73,1.51h-2c.26-1.94,2.17-3.23,4.75-3.23,3,0,4.61,1.52,4.61,4v8.28h-1.84v-1.78H284a4.19,4.19,0,0,1-3.73,2C278,298.73,276.22,297.34,276.22,295.12Zm7.91-1.12v-1.11l-3.26.21c-1.84.13-2.65.77-2.65,2s1,1.95,2.45,1.95A3.18,3.18,0,0,0,284.13,294Z"/><path class="l" d="M289.74,281.6h1.93v16.91h-1.93Z"/><path class="l" d="M302.16,298.51v-16.2h6.2c3,0,4.8,1.56,4.8,4a3.57,3.57,0,0,1-2.8,3.49V290a3.86,3.86,0,0,1,3.62,4c0,2.85-2.05,4.54-5.49,4.54Zm2-9.22h3.24c2.45,0,3.69-.87,3.69-2.59s-1.16-2.61-3.17-2.61h-3.76Zm4,7.44c2.44,0,3.72-1,3.72-2.86S310.57,291,308,291h-3.81v5.69Z"/><path class="l" d="M326.83,298.51H325v-1.89h-.18a3.77,3.77,0,0,1-3.75,2.11c-2.72,0-4.13-1.62-4.13-4.48v-7.84h1.93v7.37c0,2.17.81,3.18,2.74,3.18a3,3,0,0,0,3.3-3.39v-7.16h1.94Z"/><path class="l" d="M330.46,286.41h1.85v1.8h.18a3.37,3.37,0,0,1,3.35-2,9.17,9.17,0,0,1,1,.06v1.93a8.44,8.44,0,0,0-1.24-.11A3,3,0,0,0,332.4,291v7.5h-1.94Z"/><path class="l" d="M338.8,299.85h2c.21,1,1.29,1.63,3,1.63,2.17,0,3.46-1.07,3.46-2.85v-2.38h-.18a4.19,4.19,0,0,1-3.79,2.08c-3.14,0-5.08-2.42-5.08-6.05s2-6.09,5.08-6.09a4.33,4.33,0,0,1,3.88,2.14h.18v-1.92h1.84v12.32c0,2.7-2.09,4.43-5.39,4.43C341,303.16,339.09,301.85,338.8,299.85Zm8.58-7.57c0-2.64-1.36-4.34-3.6-4.34s-3.5,1.7-3.5,4.34,1.26,4.35,3.5,4.35S347.38,294.92,347.38,292.28Z"/><path class="l" d="M362.85,295.38c-.56,2.07-2.45,3.35-5.1,3.35-3.35,0-5.45-2.43-5.45-6.26s2.13-6.28,5.45-6.28,5.26,2.33,5.26,6.09V293h-8.7v.09c.1,2.39,1.43,3.91,3.49,3.91a3.12,3.12,0,0,0,3.12-1.64Zm-8.54-3.92H361c-.05-2.14-1.33-3.56-3.25-3.56S354.45,289.32,354.31,291.46Z"/><path class="l" d="M366,286.41h1.84v1.8h.18a3.39,3.39,0,0,1,3.36-2,9.17,9.17,0,0,1,1,.06v1.93a8.58,8.58,0,0,0-1.24-.11A3,3,0,0,0,368,291v7.5H366Z"/><path class="l" d="M162.16,357h-.11v1.18h-1.12v-10.3h1.18V352h.1a2.56,2.56,0,0,1,2.32-1.29c1.87,0,3.09,1.5,3.09,3.81s-1.23,3.82-3.09,3.82A2.65,2.65,0,0,1,162.16,357Zm-.08-2.51c0,1.71.83,2.76,2.17,2.76s2.15-1,2.15-2.76-.8-2.75-2.15-2.75S162.08,352.77,162.08,354.47Z"/><path class="l" d="M169.46,350.79h1.12v1.09h.11a2.07,2.07,0,0,1,2.05-1.22,5.09,5.09,0,0,1,.58,0v1.18a4.34,4.34,0,0,0-.75-.07,1.8,1.8,0,0,0-1.93,1.79v4.57h-1.18Z"/><path class="l" d="M180.64,356.25a2.94,2.94,0,0,1-3.1,2c-2,0-3.32-1.48-3.32-3.81s1.3-3.82,3.32-3.82,3.2,1.41,3.2,3.7v.46h-5.3v.05c.06,1.46.88,2.38,2.13,2.38a1.91,1.91,0,0,0,1.9-1Zm-5.2-2.38h4.06a2,2,0,0,0-2-2.17A2.1,2.1,0,0,0,175.44,353.87Z"/><path class="l" d="M182.15,356.09c0-1.32,1-2.07,2.68-2.18l2.13-.13v-.67c0-.91-.57-1.4-1.67-1.4-.88,0-1.49.33-1.66.91h-1.19c.16-1.18,1.32-2,2.89-2,1.8,0,2.81.92,2.81,2.45v5.05H187v-1.09h-.11a2.55,2.55,0,0,1-2.27,1.22A2.24,2.24,0,0,1,182.15,356.09Zm4.81-.68v-.68l-2,.13c-1.12.08-1.61.47-1.61,1.21s.63,1.19,1.49,1.19A1.94,1.94,0,0,0,187,355.41Z"/><path class="l" d="M189.94,354.47c0-2.31,1.23-3.81,3.1-3.81a2.52,2.52,0,0,1,2.31,1.29h.1v-4.09h1.18v10.3h-1.12V357h-.11a2.65,2.65,0,0,1-2.36,1.31C191.15,358.29,189.94,356.79,189.94,354.47Zm1.22,0c0,1.73.8,2.76,2.15,2.76s2.17-1.05,2.17-2.76-.84-2.75-2.17-2.75S191.16,352.76,191.16,354.47Z"/><path class="l" d="M198.77,360.67l.65-3.89h1.31l-1.07,3.89Z"/><path class="l" d="M213.55,350.66c1.54,0,2.61.76,2.77,2h-1.16a1.51,1.51,0,0,0-1.62-1c-.88,0-1.56.44-1.56,1.1,0,.5.41.82,1.28,1l1.13.27c1.39.34,2.06.94,2.06,2,0,1.32-1.28,2.23-2.95,2.23s-2.77-.79-2.9-2h1.21a1.63,1.63,0,0,0,1.73,1c1,0,1.7-.47,1.7-1.15,0-.51-.38-.85-1.17-1l-1.26-.31c-1.38-.33-2-.93-2-2C210.8,351.58,212,350.66,213.55,350.66Z"/><path class="l" d="M219.9,348.88v1.91h1.64v1H219.9v4.17c0,.87.32,1.24,1.09,1.24a5.21,5.21,0,0,0,.55,0v1a3.3,3.3,0,0,1-.69.07c-1.52,0-2.13-.56-2.13-2v-4.47h-1.19v-1h1.19v-1.91Z"/><path class="l" d="M229.27,356.25a2.94,2.94,0,0,1-3.1,2c-2,0-3.33-1.48-3.33-3.81s1.3-3.82,3.33-3.82,3.19,1.41,3.19,3.7v.46h-5.29v.05c.06,1.46.87,2.38,2.12,2.38a1.9,1.9,0,0,0,1.9-1Zm-5.2-2.38h4.06a2,2,0,0,0-2-2.17A2.1,2.1,0,0,0,224.07,353.87Z"/><path class="l" d="M230.77,356.09c0-1.32,1-2.07,2.69-2.18l2.12-.13v-.67c0-.91-.56-1.4-1.66-1.4-.88,0-1.5.33-1.66.91h-1.19c.15-1.18,1.32-2,2.89-2,1.8,0,2.8.92,2.8,2.45v5.05h-1.12v-1.09h-.11a2.54,2.54,0,0,1-2.27,1.22A2.24,2.24,0,0,1,230.77,356.09Zm4.81-.68v-.68l-2,.13c-1.12.08-1.61.47-1.61,1.21s.63,1.19,1.49,1.19A1.94,1.94,0,0,0,235.58,355.41Z"/><path class="l" d="M243.49,350.79h1.44L241.76,354l3.38,4.21h-1.5l-2.76-3.45-.7.65v2.8H239v-10.3h1.18V354h.11Z"/><path class="l" d="M246.4,360.67l.65-3.89h1.3l-1.07,3.89Z"/><path class="l" d="M263.15,350.79h1.44L261.42,354l3.38,4.21h-1.5l-2.76-3.45-.7.65v2.8h-1.18v-10.3h1.18V354H260Z"/><path class="l" d="M271.91,356.25a2.94,2.94,0,0,1-3.1,2c-2.05,0-3.32-1.48-3.32-3.81s1.29-3.82,3.32-3.82,3.2,1.41,3.2,3.7v.46h-5.3v.05c.06,1.46.87,2.38,2.12,2.38a1.92,1.92,0,0,0,1.91-1Zm-5.2-2.38h4.06a2,2,0,0,0-2-2.17A2.1,2.1,0,0,0,266.71,353.87Z"/><path class="l" d="M275.52,348.88v1.91h1.64v1h-1.64v4.17c0,.87.33,1.24,1.09,1.24a5.07,5.07,0,0,0,.55,0v1a3.23,3.23,0,0,1-.69.07c-1.52,0-2.13-.56-2.13-2v-4.47h-1.18v-1h1.18v-1.91Z"/><path class="l" d="M283.74,353a1.82,1.82,0,0,0-1.9-1.32c-1.32,0-2.16,1.06-2.16,2.73s.85,2.78,2.16,2.78a1.77,1.77,0,0,0,1.9-1.29h1.19a2.84,2.84,0,0,1-3.08,2.35c-2.06,0-3.38-1.5-3.38-3.84s1.31-3.79,3.37-3.79a2.89,2.89,0,0,1,3.09,2.38Z"/><path class="l" d="M286.74,347.86h1.17V352H288a2.31,2.31,0,0,1,2.27-1.29,2.44,2.44,0,0,1,2.55,2.73v4.77h-1.18v-4.49c0-1.3-.59-1.95-1.7-1.95a1.9,1.9,0,0,0-2,2.08v4.36h-1.17Z"/><path class="l" d="M300.94,358.16h-1.12V357h-.11a2.3,2.3,0,0,1-2.28,1.29c-1.65,0-2.52-1-2.52-2.73v-4.77h1.18v4.48c0,1.33.49,1.94,1.67,1.94a1.85,1.85,0,0,0,2-2.06v-4.36h1.17Z"/><path class="l" d="M309.84,354.47c0,2.31-1.22,3.82-3.09,3.82a2.48,2.48,0,0,1-2.31-1.24h-.11v3.57h-1.17v-9.83h1.12V352h.11a2.65,2.65,0,0,1,2.36-1.36C308.63,350.66,309.84,352.16,309.84,354.47Zm-1.21,0c0-1.72-.81-2.75-2.16-2.75s-2.17,1.06-2.17,2.75.84,2.76,2.17,2.76S308.63,356.2,308.63,354.47Z"/><path class="l" d="M311.42,360.67l.65-3.89h1.3l-1.07,3.89Z"/><path class="l" d="M323.24,354.47c0-2.37,1.3-3.81,3.4-3.81s3.4,1.44,3.4,3.81-1.3,3.82-3.4,3.82S323.24,356.84,323.24,354.47Zm5.58,0c0-1.75-.79-2.75-2.18-2.75s-2.18,1-2.18,2.75.79,2.76,2.18,2.76S328.82,356.22,328.82,354.47Z"/><path class="l" d="M331.88,350.79H333V352h.11a2.22,2.22,0,0,1,2.22-1.29,2.41,2.41,0,0,1,2.58,2.73v4.77h-1.18v-4.49c0-1.32-.56-1.95-1.74-1.95a1.87,1.87,0,0,0-1.93,2.08v4.36h-1.18Z"/><path class="l" d="M339.85,348.55a.82.82,0,1,1,.82.82A.82.82,0,0,1,339.85,348.55Zm.23,2.24h1.17v7.37h-1.17Z"/><path class="l" d="M343.13,354.47c0-2.37,1.3-3.81,3.4-3.81s3.39,1.44,3.39,3.81-1.3,3.82-3.39,3.82S343.13,356.84,343.13,354.47Zm5.58,0c0-1.75-.79-2.75-2.18-2.75s-2.19,1-2.19,2.75.79,2.76,2.19,2.76S348.71,356.22,348.71,354.47Z"/><path class="l" d="M351.77,350.79h1.12V352H353a2.22,2.22,0,0,1,2.21-1.29,2.4,2.4,0,0,1,2.58,2.73v4.77h-1.17v-4.49c0-1.32-.57-1.95-1.74-1.95a1.87,1.87,0,0,0-1.94,2.08v4.36h-1.17Z"/><path class="l" d="M362.51,350.66c1.55,0,2.62.76,2.78,2h-1.16a1.51,1.51,0,0,0-1.62-1c-.88,0-1.56.44-1.56,1.1,0,.5.41.82,1.28,1l1.13.27c1.39.34,2.06.94,2.06,2,0,1.32-1.28,2.23-2.95,2.23s-2.77-.79-2.9-2h1.21a1.62,1.62,0,0,0,1.73,1c1,0,1.7-.47,1.7-1.15,0-.51-.38-.85-1.17-1l-1.26-.31c-1.38-.33-2-.93-2-2C359.77,351.58,361,350.66,362.51,350.66Z"/><path class="l" d="M367.13,360.67l.65-3.89h1.3L368,360.67Z"/><path class="l" d="M380.62,357h-.11v1.18h-1.12v-10.3h1.18V352h.11a2.55,2.55,0,0,1,2.31-1.29c1.87,0,3.09,1.5,3.09,3.81s-1.23,3.82-3.09,3.82A2.66,2.66,0,0,1,380.62,357Zm-.08-2.51c0,1.71.84,2.76,2.17,2.76s2.15-1,2.15-2.76-.8-2.75-2.15-2.75S380.54,352.77,380.54,354.47Z"/><path class="l" d="M387.92,350.79H389v1.09h.11a2.07,2.07,0,0,1,2.05-1.22,5.28,5.28,0,0,1,.59,0v1.18a4.47,4.47,0,0,0-.76-.07,1.8,1.8,0,0,0-1.93,1.79v4.57h-1.18Z"/><path class="l" d="M399.11,356.25a2.94,2.94,0,0,1-3.11,2c-2,0-3.32-1.48-3.32-3.81s1.3-3.82,3.32-3.82,3.2,1.41,3.2,3.7v.46h-5.29v.05c.06,1.46.87,2.38,2.12,2.38a1.91,1.91,0,0,0,1.9-1Zm-5.2-2.38H398a2,2,0,0,0-2-2.17A2.09,2.09,0,0,0,393.91,353.87Z"/><path class="l" d="M400.61,356.09c0-1.32,1-2.07,2.69-2.18l2.12-.13v-.67c0-.91-.56-1.4-1.66-1.4-.89,0-1.5.33-1.67.91h-1.18c.15-1.18,1.31-2,2.89-2,1.79,0,2.8.92,2.8,2.45v5.05h-1.12v-1.09h-.11a2.55,2.55,0,0,1-2.27,1.22A2.24,2.24,0,0,1,400.61,356.09Zm4.81-.68v-.68l-2,.13c-1.12.08-1.61.47-1.61,1.21s.63,1.19,1.49,1.19A1.94,1.94,0,0,0,405.42,355.41Z"/><path class="l" d="M408.4,354.47c0-2.31,1.23-3.81,3.1-3.81a2.51,2.51,0,0,1,2.31,1.29h.1v-4.09h1.18v10.3H414V357h-.11a2.65,2.65,0,0,1-2.36,1.31C409.61,358.29,408.4,356.79,408.4,354.47Zm1.22,0c0,1.73.81,2.76,2.15,2.76s2.17-1.05,2.17-2.76-.83-2.75-2.17-2.75S409.62,352.76,409.62,354.47Z"/><use width="85.47" height="38.34" transform="translate(274.4 323.79) scale(0.3)" xlink:href="#c"/><use width="139.23" height="49.68" transform="translate(329.43 325.28) scale(0.21)" xlink:href="#d"/><use width="158.93" height="74.43" transform="translate(380.13 323.95) scale(0.21)" xlink:href="#h"/><use width="150.68" height="62.56" transform="translate(163.28 324.83) scale(0.21)" xlink:href="#a"/></svg>