<svg xmlns="http://www.w3.org/2000/svg" xmlns:xlink="http://www.w3.org/1999/xlink" viewBox="0 0 900 450"><defs><style>.a{fill:#c29644;}.b{fill:#fec75e;}.c,.n{fill:#4b4b4b;}.c{opacity:0.2;}.c,.q{mix-blend-mode:multiply;}.d{fill:#ed2627;}.e{fill:#fddfe0;opacity:0.8;}.f{fill:#cd362c;}.g{fill:#f1e5ce;}.h{fill:#fef6ea;}.i{fill:#741a14;}.j,.r{fill:none;}.k{fill:#a92b22;}.l{fill:#fff;}.m{isolation:isolate;}.o{fill:#7e73ff;}.p{fill:#eceaff;}.q{fill:#574fb0;opacity:0.3;}.r{stroke:#7e73ff;stroke-miterlimit:10;stroke-width:3px;stroke-dasharray:4;}.s{fill:#6057c2;}</style><symbol id="a" viewBox="0 0 150.68 62.56"><path class="a" d="M150.66,25.43a47.39,47.39,0,0,1-1.69,10c-1.55,5.67-6.17,10.33-7,11.14a25.48,25.48,0,0,1-4.86,3.78l-.3.19c-.33.19-.66.39-1,.58l-.17.1c-.18.1-.35.2-.54.29-.37.21-.76.41-1.15.62l-.61.29-1,.47-.71.33-1.27.55-.5.21c-.54.22-1.08.44-1.63.64l-.4.16-1.87.67-.2.07a118.48,118.48,0,0,1-18.09,4.46l-.29.05-.68.11a192,192,0,0,1-30,2.45H73.93A191.82,191.82,0,0,1,44,60.1L43.3,60l-.3-.05a119.07,119.07,0,0,1-18.09-4.46l-.2-.07-1.87-.67-.4-.16c-.55-.2-1.09-.42-1.63-.64l-.5-.21-1.26-.55-.72-.33-1-.47-.61-.29-1.16-.62-.53-.29-.18-.1-1-.58-.31-.19A25.8,25.8,0,0,1,8.7,46.53c-.83-.81-5.45-5.47-7-11.14A46.64,46.64,0,0,1,0,25.46C.64,33.8,14,41.85,37.4,46.35c35.94,6.92,82.06,2.91,103-9C147.07,33.62,150.39,29.52,150.66,25.43Z"/><path class="b" d="M150.68,24.87c0,.14,0,.29,0,.43s0,.09,0,.13c-.27,4.09-3.59,8.19-10.25,12-21,11.86-67.07,15.87-103,9C14,41.85.64,33.8,0,25.46a.86.86,0,0,1,0-.16v-.13c0-.19,0-.3,0-.3H0C0,20.6,3.3,16.29,10.26,12.35c21-11.87,67.07-15.88,103-9C137.26,8,150.65,16.32,150.68,24.87Z"/><ellipse class="c" cx="73.42" cy="21.71" rx="56.43" ry="17.74"/><path class="c" d="M49.37,48.89v12q-2.73-.36-5.4-.8L43.3,60l-.3-.06a117.89,117.89,0,0,1-18.09-4.46l-.19-.07c-.64-.22-1.27-.45-1.88-.68l-.39-.14-1.63-.65-.51-.21L19,53.18l-.7-.32-1-.48-.61-.3-1.15-.6-.53-.3-.18-.09-1-.6a3,3,0,0,1-.3-.18,25.17,25.17,0,0,1-4.86-3.78c-.84-.81-5.45-5.47-7-11.14A46.06,46.06,0,0,1,0,25.25C.15,28.14,1.82,31,4.92,33.7c5.17,5.14,14.86,9.67,28.43,12.66A142.42,142.42,0,0,0,49.37,48.89Z"/></symbol><symbol id="b" viewBox="0 0 146.05 61.89"><path class="i" d="M146.05,24V38.69h0c-.34,3.85-3.54,7.74-9.85,11.32C116,61.43,71.57,65.29,37,58.63c-22.4-4.31-35.2-12-36-19.94H1a31.09,31.09,0,0,1-.88-5.61C-.31,26.7,1,23.94,1,23.94c0,8.24,12.92,16.25,36,20.69,34.61,6.66,79,2.8,99.2-8.63C142.86,32.21,146.05,28.06,146.05,24Z"/><line class="j" x1="0.95" y1="24.72" x2="0.95" y2="37.25"/><path class="k" d="M146.05,23.94v0c0,4.09-3.19,8.24-9.89,12C116,47.43,71.57,51.29,37,44.63,13.87,40.19,1,32.18,1,23.94c0-4.09,3.17-8.25,9.89-12C31,.46,75.43-3.4,110,3.26,133.13,7.71,146,15.71,146.05,23.94Z"/><ellipse class="c" cx="63.14" cy="20.71" rx="29.51" ry="11.13"/><path class="c" d="M28.79,42.8c2.56.66,5.29,1.28,8.17,1.83q5.24,1,10.72,1.69v14Q42.21,59.63,37,58.63c-22.4-4.31-35.2-12-36-20H1a30.82,30.82,0,0,1-.88-5.6C-.31,26.71,1,24,1,24c0,7.2,9.9,14.23,27.84,18.85"/></symbol><symbol id="c" viewBox="0 0 85.47 38.34"><path class="d" d="M85.47,29.47c0,3.41-7.75,6.37-19.12,7.85,2.36-1,3.69-2.24,3.69-3.5C70,29.5,54.52,26,35.37,26,20.29,26,7.45,28.17,2.68,31.21A8.39,8.39,0,0,1,0,25.35C0,21,4.13,17.14,10.27,15.06c.38-2.24,4.57-4.1,10.2-4.69C22.53,4.43,30.47,0,40,0S57.21,4.34,59.36,10.18h.92c7.77,0,14.07,2.34,14.07,5.22a.66.66,0,0,1,0,.14c6.46,1,11.13,4,11.13,7.57a5.07,5.07,0,0,1-1.76,3.62A3.62,3.62,0,0,1,85.47,29.47Z"/><ellipse class="e" cx="62.69" cy="15.7" rx="7.5" ry="3.47"/><ellipse class="e" cx="78.36" cy="19.95" rx="2.92" ry="1.35"/><ellipse class="e" cx="39.35" cy="2.84" rx="6.1" ry="2.84"/><path class="f" d="M70,33.82c0,1.26-1.33,2.45-3.69,3.5a128.53,128.53,0,0,1-16.54,1,119.26,119.26,0,0,1-21.55-1.81,34.81,34.81,0,0,1-7.38.77c-7.81,0-14.62-2.46-18.2-6.09C7.45,28.17,20.29,26,35.37,26,54.52,26,70,29.5,70,33.82Z"/></symbol><symbol id="e" viewBox="0 0 155.19 57.24"><path class="g" d="M155.18,25.61c0,4.39-3.39,8.84-10.56,12.9C123,50.73,75.53,54.86,38.52,47.74,13.82,43,0,34.42,0,25.61H0v6H0C0,40.44,13.82,49,38.52,53.75c37,7.13,84.52,3,106.1-9.22,7.17-4.06,10.58-8.51,10.56-12.9h0v-6Z"/><path class="h" d="M116.67,3.49c-37-7.12-84.52-3-106.1,9.23C3.4,16.78,0,21.22,0,25.61v.19a3.52,3.52,0,0,0,.05.64c0,.13,0,.27.05.41a9.11,9.11,0,0,0,.4,1.64l.05.11a1.42,1.42,0,0,0,.1.29c.06.14.11.28.17.41s.13.27.19.41.13.26.2.38,0,0,0,0c.15.27.31.54.47.8a0,0,0,0,0,0,0c.09.13.17.26.27.39a12.28,12.28,0,0,0,.9,1.18l0,0c.21.25.44.51.68.77l0,0c.12.13.25.25.38.38l.82.78.44.38.46.39c.31.25.63.5,1,.75l.23.17,0,0,.6.43c.78.54,1.61,1.07,2.5,1.59l.58.33.43.24.35.2c.11.06.22.13.35.19l.88.45,1.13.56.85.4c.53.25,1.09.49,1.65.73l.78.33,1.63.65,1.51.56c.55.2,1.1.4,1.67.59l.85.28.87.29.15,0h0l.71.22.9.28.92.27,1.5.43,1,.26,1,.28.88.22.41.1c.62.16,1.24.31,1.87.45l2,.45,1.32.28,1.14.22,1.15.23q4.27.83,8.73,1.45c1.3.19,2.62.36,4,.52,1.82.22,3.67.41,5.52.58l1.8.16c1.1.1,2.2.18,3.31.25,1.27.09,2.55.17,3.83.23s2.55.13,3.83.17c3.93.14,7.87.17,11.79.11l1.25,0c1,0,2,0,3-.08l2-.07.27,0c.75,0,1.5-.06,2.25-.11l2.39-.14.91-.06,1.77-.12,1.59-.13,1.39-.12.81-.08,1.08-.11c.37,0,.73-.06,1.09-.11l.37,0,1.65-.18c1.11-.13,2.22-.27,3.32-.42l1.06-.14.4,0L109,49c.88-.13,1.74-.26,2.61-.41l1-.16.32-.06,1.66-.28,1.77-.33c1.8-.34,3.55-.71,5.27-1.09l1.45-.34c2.09-.5,4.12-1,6.06-1.61l1.73-.52.5-.16h0l.73-.23c1.94-.63,3.79-1.31,5.54-2l.75-.31.25-.1,1.57-.69.33-.15c.77-.35,1.53-.72,2.25-1.09l.82-.43,1-.53c.85-.48,1.64-1,2.39-1.46l.44-.3.43-.29.41-.3a23.9,23.9,0,0,0,3.22-2.75c.26-.27.51-.54.74-.81s.45-.54.65-.81.21-.27.3-.41.19-.27.27-.41a4.53,4.53,0,0,0,.26-.4c.08-.14.16-.27.23-.42s.29-.54.41-.81.11-.28.17-.41.07-.2.11-.29,0-.08,0-.13.09-.27.13-.41a5.09,5.09,0,0,0,.19-.77s0,0,0-.06l.06-.4.06-.41a7.5,7.5,0,0,0,0-.82v0C155.16,16.81,141.37,8.24,116.67,3.49Zm26,25.15a11.32,11.32,0,0,1-2,3.12,24.07,24.07,0,0,1-5.61,4.4l-.66.38c-18.27,10.34-58.49,13.83-89.83,7.8-10.57-2-18.79-4.89-24.32-8.18a23.71,23.71,0,0,1-5.6-4.41,11.43,11.43,0,0,1-2.06-3.15c-2-4.65.6-9.54,8.32-13.91.92-.52,1.9-1,2.94-1.52C43.17,4,80.92,1.16,110.68,6.88a88.84,88.84,0,0,1,20.76,6.31h0C140.92,17.67,145,23.21,142.66,28.64Z"/><path class="g" d="M142.66,28.64c-2.7-6.36-13.88-12.25-32-15.74-31.34-6-71.56-2.53-89.83,7.81-4.43,2.51-7.16,5.19-8.32,7.89-2-4.65.6-9.54,8.32-13.91.92-.52,1.9-1,2.94-1.52C43.17,4,80.92,1.16,110.68,6.88a88.84,88.84,0,0,1,20.76,6.31h0C140.92,17.67,145,23.21,142.66,28.64Z"/></symbol><symbol id="d" viewBox="0 0 139.22 49.68"><use width="155.19" height="57.24" transform="matrix(0.58, -0.08, 0.08, 0.58, -2.1, 7.89)" xlink:href="#e"/><use width="155.19" height="57.24" transform="translate(51.21 -4.4) rotate(7.56) scale(0.58)" xlink:href="#e"/><use width="155.19" height="57.24" transform="translate(24.92 18.15) rotate(-2.59) scale(0.58)" xlink:href="#e"/></symbol><symbol id="h" viewBox="0 0 158.93 74.43"><path class="b" d="M145.63,26.05C125.89,6.06,103.49.57,80.85,0V0H78.08V0c-22.64.53-45,6-64.78,26C8.59,30.82,0,44.27,0,47.68c0,9.2,14.42,18.14,40.22,23.11A216.35,216.35,0,0,0,78.08,74.4v0h2.77v0a216.35,216.35,0,0,0,37.86-3.61c25.8-5,40.2-13.91,40.22-23.11C158.93,44.27,150.34,30.82,145.63,26.05Z"/><path class="l" d="M49.82,11.12c.37,1.64-.32,2.87-1.39,2.87S46.7,12.73,47,11.12c.31-1.46.8-2.74,1.39-2.74S49.49,9.67,49.82,11.12Z"/><path class="l" d="M36,15.69C36,14,37,13,38,13.21s1.41,1.61.71,3.1-1.38,2.5-2,2.37S36,17.19,36,15.69Z"/><path class="l" d="M34.39,23c1.57-.58,2.88,0,3,1s-1,1.88-2.66,1.74-2.82-.44-2.9-1S33,23.48,34.39,23Z"/><path class="l" d="M51.63,24.06c.52,1.59-.06,2.88-1.12,3s-1.84-1.1-1.64-2.72.54-2.81,1.14-2.86S51.17,22.64,51.63,24.06Z"/><path class="l" d="M54.79,17.7c.33-1.65,1.46-2.49,2.44-2s1.07,1.86.1,3.18S55.49,21,54.94,20.77,54.5,19.16,54.79,17.7Z"/><path class="l" d="M106.24,23.87c.72,1.53.31,2.87-.73,3.1s-2-.86-2-2.5c0-1.49.19-2.85.77-3S105.61,22.52,106.24,23.87Z"/><path class="l" d="M86.05,27.4c-.23,1.67-1.31,2.57-2.31,2.2s-1.17-1.8-.29-3.17,1.71-2.29,2.27-2.08S86.26,25.93,86.05,27.4Z"/><path class="l" d="M115.54,15.39c.44-1.63,1.62-2.39,2.57-1.89s.94,1.93-.11,3.18-2,2.06-2.51,1.78S115.16,16.83,115.54,15.39Z"/><path class="l" d="M103.54,16c1.09-1.28,2.49-1.46,3.13-.61s0,2.15-1.47,2.83-2.67,1-3,.53S102.57,17.1,103.54,16Z"/><path class="l" d="M117.69,28.19c.49-1.61,1.7-2.33,2.63-1.8s.88,2-.22,3.18-2,2-2.57,1.69S117.26,29.62,117.69,28.19Z"/><path class="l" d="M104.94,10.42c1.33,1,1.56,2.43.74,3.1s-2.15.12-2.89-1.34-1.11-2.63-.65-3S103.77,9.5,104.94,10.42Z"/><path class="l" d="M110.19,17.81c.71,1.52.29,2.86-.75,3.09s-2-.86-2-2.5.2-2.85.78-3S109.55,16.45,110.19,17.81Z"/><path class="l" d="M73.16,14.15c.53,1.59,0,2.88-1.1,3s-1.85-1.09-1.66-2.72c.16-1.48.51-2.8,1.11-2.86S72.69,12.73,73.16,14.15Z"/><path class="l" d="M88.15,13.11c1.56-.62,2.88-.13,3,.92s-1,1.91-2.62,1.82c-1.49-.08-2.83-.35-2.92-.94S86.76,13.67,88.15,13.11Z"/><path class="l" d="M80,19.52c.57,1.58,0,2.88-1,3s-1.87-1-1.74-2.67.45-2.82,1-2.9S79.51,18.12,80,19.52Z"/><path class="l" d="M68.94,28.84c-.28-1.66.48-2.85,1.54-2.79s1.66,1.36,1.23,2.94-.94,2.69-1.54,2.66S69.19,30.31,68.94,28.84Z"/><path class="l" d="M132.18,23.16c1.38,1,1.68,2.34.89,3.05s-2.13.23-2.95-1.19-1.25-2.57-.8-3S131,22.3,132.18,23.16Z"/><path class="l" d="M28.82,18.3c1.58-.58,2.89-.05,3,1s-1,1.88-2.66,1.74-2.82-.43-2.9-1S27.42,18.81,28.82,18.3Z"/><path class="l" d="M22.92,25.8c.12-1.67,1.14-2.64,2.16-2.33s1.29,1.71.49,3.14S24,29,23.44,28.83,22.81,27.29,22.92,25.8Z"/><path class="l" d="M122.43,18.73c-.63,1.55-1.9,2.17-2.77,1.56s-.71-2,.49-3.15,2.22-1.8,2.71-1.46S123,17.34,122.43,18.73Z"/><path class="l" d="M94.7,23.05c1.53-.69,2.87-.26,3.08.79s-.89,1.95-2.53,1.93c-1.49,0-2.84-.22-3-.81S93.34,23.67,94.7,23.05Z"/><path class="c" d="M36,69.92C12.87,64.83,0,56.37,0,47.68c0-3.41,8.59-16.86,13.3-21.63C32.44,6.66,54.09.92,76,.1,62.31,4.87,33.93,31.83,36,69.92Z"/><path class="l" d="M119.67,8.82c1.66-.29,2.85.46,2.8,1.53s-1.35,1.66-2.94,1.24c-1.44-.39-2.7-.93-2.67-1.53S118.2,9.07,119.67,8.82Z"/><path class="l" d="M94.66,3.49c1.67.23,2.58,1.3,2.21,2.3S95.08,7,93.7,6.09s-2.3-1.7-2.09-2.26S93.18,3.29,94.66,3.49Z"/><path class="l" d="M77.58,6.76c0-1.68,1-2.71,2-2.45S81,6,80.28,7.42s-1.43,2.48-2,2.33S77.55,8.25,77.58,6.76Z"/><path class="l" d="M64.6,5.06c1,1.39.78,2.78-.22,3.18S62.31,7.72,62,6.1c-.26-1.47-.29-2.84.26-3.06S63.75,3.84,64.6,5.06Z"/><path class="l" d="M92.17,7.94c1.64.39,2.43,1.55,2,2.51s-1.9,1-3.18,0S88.84,8.51,89.1,8,90.72,7.6,92.17,7.94Z"/><path class="l" d="M71.05,5.34c1.55.66,2.14,1.94,1.51,2.81s-2,.66-3.13-.55S67.67,5.35,68,4.86,69.68,4.76,71.05,5.34Z"/></symbol></defs><g class="m"><rect class="n" x="76.31" y="14.42" width="424.98" height="412.72"/><use width="150.68" height="62.56" transform="translate(121.36 312.89) scale(1.15)" xlink:href="#a"/><use width="146.05" height="61.89" transform="translate(124.02 266.1) scale(1.15)" xlink:href="#b"/><use width="85.47" height="38.34" transform="translate(158.79 236.42) scale(1.15)" xlink:href="#c"/><use width="139.23" height="49.68" transform="translate(127.94 192.32) scale(1.15)" xlink:href="#d"/><use width="158.93" height="74.43" transform="translate(117.17 115.29) scale(1.15)" xlink:href="#h"/><path class="l" d="M319.83,310.47v-1.65a5.23,5.23,0,0,0,.81.06c1.11,0,1.72-.53,2.23-2l.22-.72-4.48-12.12h2.09L324,304h.18l3.32-10h2.05l-4.73,12.85c-1,2.81-2,3.64-4.14,3.64A6.51,6.51,0,0,1,319.83,310.47Z"/><path class="l" d="M331.82,290.37a1.35,1.35,0,1,1,1.34,1.34A1.35,1.35,0,0,1,331.82,290.37Zm.38,3.68h1.93v12.11H332.2Z"/><path class="l" d="M347.76,303c-.56,2.07-2.44,3.35-5.09,3.35-3.36,0-5.46-2.43-5.46-6.25s2.13-6.28,5.46-6.28,5.25,2.32,5.25,6.08v.75h-8.7v.08c.1,2.4,1.44,3.91,3.49,3.91a3.12,3.12,0,0,0,3.12-1.64Zm-8.54-3.92h6.67c-.05-2.14-1.33-3.56-3.25-3.56S339.36,297,339.22,299.1Z"/><path class="l" d="M351.07,289.24H353v16.92h-1.93Z"/><path class="l" d="M356.14,300.1c0-3.79,2-6.26,5.09-6.26A4.14,4.14,0,0,1,365,296h.16v-6.72h1.94v16.92h-1.85v-1.93h-.18a4.34,4.34,0,0,1-3.87,2.14C358.13,306.37,356.14,303.91,356.14,300.1Zm2,0c0,2.83,1.33,4.53,3.54,4.53s3.56-1.73,3.56-4.53-1.37-4.52-3.56-4.52S358.14,297.29,358.14,300.1Z"/><path class="l" d="M375,289.24h1.64c-1.59,2.05-2.84,6.38-2.84,10.18s1.24,8.14,2.84,10.18H375a17.84,17.84,0,0,1,0-20.36Z"/><path class="l" d="M413.17,309.6h-1.64c1.6-2,2.84-6.37,2.84-10.17s-1.23-8.14-2.84-10.19h1.64a17.84,17.84,0,0,1,0,20.36Z"/><path class="i" d="M407,300.75v2.34h0c-.06.61-.56,1.23-1.57,1.8-3.21,1.81-10.27,2.43-15.77,1.37-3.56-.69-5.6-1.91-5.72-3.17h0a5.65,5.65,0,0,1-.14-.89,3.4,3.4,0,0,1,.14-1.46c0,1.31,2.06,2.59,5.73,3.29,5.5,1.06,12.56.45,15.77-1.37C406.52,302.06,407,301.4,407,300.75Z"/><path class="k" d="M407,300.74h0c0,.65-.5,1.31-1.57,1.91-3.21,1.82-10.27,2.43-15.77,1.37-3.67-.7-5.72-2-5.73-3.29,0-.65.51-1.31,1.58-1.91,3.2-1.82,10.27-2.43,15.77-1.37C405,298.16,407,299.44,407,300.74Z"/><path class="c" d="M391.38,304.3v2.23c-.58-.08-1.15-.16-1.7-.27-3.56-.69-5.6-1.91-5.72-3.17h0a5.65,5.65,0,0,1-.14-.89,3.4,3.4,0,0,1,.14-1.46c0,1.31,2.06,2.59,5.73,3.29C390.23,304.14,390.8,304.23,391.38,304.3Z"/><path class="l" d="M110.44,63.57h-.23v2.52h-2.4V44h2.52v8.76h.23a5.44,5.44,0,0,1,5-2.77c4,0,6.62,3.21,6.62,8.17s-2.62,8.18-6.62,8.18A5.67,5.67,0,0,1,110.44,63.57Zm-.17-5.38c0,3.65,1.78,5.91,4.66,5.91s4.59-2.22,4.59-5.91-1.71-5.9-4.59-5.9S110.27,54.55,110.27,58.19Z"/><path class="l" d="M138.86,66.09h-2.4V63.61h-.24c-.79,1.76-2.47,2.76-4.89,2.76-3.54,0-5.39-2.11-5.39-5.85V50.3h2.52v9.61c0,2.84,1.06,4.16,3.57,4.16,2.79,0,4.31-1.66,4.31-4.43V50.3h2.52Z"/><path class="l" d="M143.61,50.3H146v2.34h.23c.47-1.54,2.29-2.62,4.38-2.62a11.79,11.79,0,0,1,1.26.07v2.52a10,10,0,0,0-1.61-.14,3.86,3.86,0,0,0-4.14,3.83v9.79h-2.52Z"/><path class="l" d="M154.48,67.83h2.66c.28,1.29,1.69,2.13,4,2.13,2.82,0,4.51-1.4,4.51-3.72V63.13h-.24a5.47,5.47,0,0,1-5,2.72c-4.08,0-6.62-3.16-6.62-7.89S156.37,50,160.42,50a5.64,5.64,0,0,1,5.07,2.78h.24V50.3h2.4V66.37c0,3.53-2.73,5.78-7,5.78C157.29,72.15,154.86,70.44,154.48,67.83ZM165.67,58c0-3.44-1.77-5.67-4.69-5.67s-4.57,2.23-4.57,5.67,1.64,5.67,4.57,5.67S165.67,61.4,165.67,58Z"/><path class="l" d="M185.85,62c-.73,2.7-3.19,4.37-6.65,4.37-4.38,0-7.12-3.17-7.12-8.16S174.87,50,179.2,50s6.86,3,6.86,7.94v1H174.71V59c.13,3.12,1.87,5.1,4.55,5.1,2,0,3.41-.75,4.07-2.14Zm-11.14-5.11h8.7c-.06-2.8-1.73-4.64-4.24-4.64S174.9,54.09,174.71,56.89Z"/><path class="l" d="M190,50.3h2.41v2.34h.23C193.12,51.1,194.94,50,197,50a11.79,11.79,0,0,1,1.26.07v2.52a10.09,10.09,0,0,0-1.61-.14,3.87,3.87,0,0,0-4.15,3.83v9.79H190Z"/><path class="l" d="M206.77,44h2.14c-2.08,2.66-3.71,8.32-3.71,13.27s1.61,10.62,3.71,13.29h-2.14a21.08,21.08,0,0,1-4.16-13.29A21.06,21.06,0,0,1,206.77,44Z"/><path class="l" d="M246.47,71.46l1.39-8.33h2.8l-2.3,8.33Z"/><path class="l" d="M289.24,71.46l1.39-8.33h2.8l-2.3,8.33Z"/><path class="l" d="M333.69,70.59h-2.14c2.08-2.67,3.7-8.32,3.7-13.28s-1.61-10.62-3.7-13.28h2.14a21.07,21.07,0,0,1,4.16,13.28A21.07,21.07,0,0,1,333.69,70.59Z"/><use width="146.05" height="61.89" transform="translate(215.11 55.61) scale(0.16)" xlink:href="#b"/><use width="85.47" height="38.34" transform="translate(257.08 54.27) scale(0.3)" xlink:href="#c"/><use width="139.23" height="49.68" transform="translate(299.81 56.66) scale(0.21)" xlink:href="#d"/><rect class="c" x="451.68" y="66.83" width="196.35" height="157.47" transform="matrix(0.97, -0.26, 0.26, 0.97, -18.94, 146.07)"/><path class="o" d="M434.75,64.34C464.9,58.09,557.4,39.05,625.07,14c19.63,50.63,47.58,118.4,78.26,141.56-53.39,45-196,50.91-205.79,48.51C480.93,195.81,441.25,97.84,434.75,64.34Z"/><rect class="p" x="539.11" y="99.35" width="46.16" height="20.26" transform="translate(-6.53 177.28) rotate(-17.82)"/><path class="l" d="M471.14,138.25c-1.12-3.47,0-6.21,2.92-7.15a4.39,4.39,0,0,1,5.46,2.1l-1.36.43a3.09,3.09,0,0,0-3.7-1.29c-2.06.66-2.81,2.77-1.95,5.47s2.7,4,4.77,3.3a3,3,0,0,0,2.33-3l1.36-.44a4.28,4.28,0,0,1-3.29,4.64C474.76,143.28,472.25,141.71,471.14,138.25Z"/><path class="l" d="M482.33,136.14c-.83-2.58.08-4.6,2.36-5.33s4.2.38,5,3-.08,4.6-2.36,5.34S483.15,138.72,482.33,136.14Zm6.07-1.95c-.62-1.9-1.82-2.72-3.34-2.23s-2,1.85-1.41,3.76,1.82,2.72,3.34,2.23S489,136.09,488.4,134.19Z"/><path class="l" d="M491.33,133.25c-.83-2.58.08-4.6,2.36-5.34s4.2.38,5,3-.08,4.6-2.36,5.33S492.15,135.83,491.33,133.25Zm6.07-1.95c-.62-1.9-1.82-2.72-3.34-2.23s-2,1.85-1.41,3.76,1.82,2.72,3.34,2.23S498,133.2,497.4,131.3Z"/><path class="l" d="M504.39,124.63l1.57-.51-2.34,4.55,5.15,3.4-1.63.52-4.21-2.79-.54,1,1,3-1.28.41-3.6-11.2,1.28-.41,2.15,6.69.12,0Z"/><path class="l" d="M513.16,119.52l.66,2.08,1.79-.58.34,1.07-1.78.58,1.46,4.54c.3.94.79,1.23,1.62,1a4.58,4.58,0,0,0,.58-.22l.35,1.08a4.71,4.71,0,0,1-.73.31c-1.65.53-2.51.14-3-1.4l-1.56-4.86-1.3.42-.34-1.08,1.29-.41-.66-2.08Z"/><path class="l" d="M516.59,117.2l1.28-.42,1.43,4.45.12,0a2.64,2.64,0,0,1,2-2.2c1.69-.54,3.11.2,3.72,2.08l1.67,5.19-1.28.41L524,121.8c-.46-1.42-1.32-1.93-2.53-1.54a2.18,2.18,0,0,0-1.5,3l1.52,4.75-1.28.41Z"/><path class="l" d="M535.09,121.32a3.37,3.37,0,0,1-2.67,3.3c-2.22.72-4.13-.44-4.94-3s.07-4.61,2.27-5.32,4,.42,4.78,2.91l.16.49-5.77,1.86,0,.06c.58,1.56,1.79,2.28,3.15,1.84a2.18,2.18,0,0,0,1.72-1.75Zm-6.5-.78,4.42-1.42a2.26,2.26,0,0,0-2.91-1.66A2.39,2.39,0,0,0,528.59,120.54Z"/><path class="o" d="M545.39,111.29c1.68-.54,3.12-.08,3.71,1.18l-1.26.41a1.72,1.72,0,0,0-2.11-.5c-1,.31-1.54,1-1.31,1.75.18.55.74.75,1.76.67l1.33-.1c1.62-.12,2.56.3,2.93,1.45.46,1.44-.61,2.88-2.43,3.46s-3.29.11-3.86-1.17l1.32-.42a1.86,1.86,0,0,0,2.24.5c1.08-.35,1.68-1.11,1.45-1.85-.18-.55-.72-.78-1.64-.72l-1.48.11c-1.62.12-2.51-.31-2.89-1.47C542.73,113.26,543.69,111.84,545.39,111.29Z"/><path class="o" d="M551.68,107.14l.67,2.07,1.78-.57.35,1.07-1.79.58,1.46,4.53c.3,1,.79,1.23,1.62,1,.23-.08.36-.12.59-.22l.35,1.07a4.26,4.26,0,0,1-.73.32c-1.65.53-2.51.13-3-1.4l-1.57-4.86-1.29.41-.34-1.07,1.29-.41-.67-2.08Z"/><path class="o" d="M564.46,111.88a3.37,3.37,0,0,1-2.67,3.3c-2.22.72-4.13-.44-4.95-3s.08-4.61,2.28-5.32,4,.42,4.78,2.91l.16.5-5.77,1.85,0,.06c.58,1.56,1.79,2.28,3.15,1.84a2.18,2.18,0,0,0,1.72-1.75Zm-6.5-.78,4.42-1.42a2.27,2.27,0,0,0-2.91-1.66A2.39,2.39,0,0,0,558,111.1Z"/><path class="o" d="M566,111.18c-.46-1.43.33-2.6,2.16-3.31l2.26-.88-.23-.73c-.32-1-1.11-1.34-2.31-1-1,.31-1.51.89-1.48,1.58l-1.3.41c-.24-1.34.75-2.59,2.46-3.14,2-.63,3.37,0,3.91,1.69l1.76,5.48-1.22.4-.38-1.19-.12,0a2.88,2.88,0,0,1-2,2.12A2.56,2.56,0,0,1,566,111.18Zm5-2.42-.23-.74-2.11.83c-1.2.48-1.6,1.07-1.34,1.88s1.11,1.07,2,.77A2.2,2.2,0,0,0,571,108.76Z"/><path class="o" d="M578,101l1.56-.5L577.24,105l5.15,3.39-1.63.53-4.21-2.79-.53,1,1,3-1.28.41-3.6-11.2,1.28-.41,2.15,6.68.12,0Z"/><path class="l" d="M588.68,97.54l1.22-.39.4,1.26.12,0a2.38,2.38,0,0,1,1.79-2.12,2.44,2.44,0,0,1,2.67.69l.12,0a2.81,2.81,0,0,1,2-2.19,2.45,2.45,0,0,1,3.39,1.79l1.78,5.55-1.28.41-1.68-5.25A1.6,1.6,0,0,0,597,96a1.89,1.89,0,0,0-1.27,2.45l1.66,5.16-1.28.41-1.75-5.45a1.6,1.6,0,0,0-2.18-1,2,2,0,0,0-1.2,2.64l1.6,5-1.28.42Z"/><path class="l" d="M610.43,97.1a3.36,3.36,0,0,1-2.66,3.3c-2.23.72-4.13-.44-4.95-3s.08-4.61,2.28-5.32,4,.42,4.78,2.92l.16.49-5.77,1.85,0,.06c.58,1.56,1.78,2.28,3.14,1.84a2.16,2.16,0,0,0,1.72-1.75Zm-6.49-.77,4.42-1.42a2.27,2.27,0,0,0-2.91-1.67A2.4,2.4,0,0,0,603.94,96.33Z"/><path class="l" d="M611.52,94.62c-.81-2.52,0-4.58,2-5.23a2.87,2.87,0,0,1,3,.59l.11,0-1.42-4.45,1.27-.41,3.6,11.2-1.22.39-.41-1.28-.12,0a3,3,0,0,1-2.11,2.25C614.17,98.35,612.33,97.14,611.52,94.62Zm1.33-.43c.6,1.88,1.84,2.72,3.3,2.25s2-1.91,1.4-3.76-1.87-2.7-3.33-2.24S612.25,92.33,612.85,94.19Z"/><path class="l" d="M619,85.11a.94.94,0,1,1,1.18.6A.94.94,0,0,1,619,85.11Zm1,2.35,1.28-.41,2.58,8-1.28.41Z"/><path class="l" d="M632.8,92.2l-1.22.39-.4-1.25-.12,0a2.61,2.61,0,0,1-2,2.19c-1.8.58-3.09-.19-3.7-2.09l-1.66-5.19,1.28-.41,1.56,4.88c.47,1.44,1.22,1.94,2.5,1.53a2.12,2.12,0,0,0,1.46-3L629,84.6l1.28-.42Z"/><path class="l" d="M632.64,83.41l1.22-.39.4,1.26.12,0a2.38,2.38,0,0,1,1.79-2.12,2.44,2.44,0,0,1,2.67.69l.12,0a2.79,2.79,0,0,1,2-2.19,2.46,2.46,0,0,1,3.39,1.8l1.78,5.54-1.28.41-1.68-5.25a1.6,1.6,0,0,0-2.26-1.21,1.88,1.88,0,0,0-1.26,2.44l1.65,5.16-1.27.41-1.75-5.44a1.6,1.6,0,0,0-2.18-1,2,2,0,0,0-1.21,2.64l1.6,5-1.28.41Z"/><rect class="q" x="441.35" y="33.13" width="33.34" height="47.48" transform="translate(0.08 114.36) rotate(-14.23)"/><path class="r" d="M433.72,301.75s99,8.28,124.86-10.06C585,273,577,248.64,577,248.64"/><path class="s" d="M591.26,247.86a7.09,7.09,0,0,0,2.07-2c5.7-7.16,9.6-24.77,7.49-26.3s-3.44,5.89-6.15,9c2-6.48,4.68-20.29,1.4-20.75s-3.4,4.19-4.77,7.18S589,221.3,587,223.83c.68-6.79.39-20.3-2-20.24-3.2.09-4.94,6.51-5.13,10.66s.31,8.48-1.25,12.32a179.35,179.35,0,0,0-5.09-18.35c-.27-.8-.63-1.68-1.4-2-1.05-.37-2.08.61-2.58,1.61-1.91,3.79-.38,8.32.25,12.53a28.56,28.56,0,0,1-1.44,14c-2,.31-3.87-.67-5.57-1.71s-3.46-2.2-5.44-2.29-4.17,1.43-4,3.44a5.43,5.43,0,0,0,1.75,3.06l12.06,13,.13.06a4.52,4.52,0,0,0-3.08,4,2.75,2.75,0,0,0,.44,1.71,3.76,3.76,0,0,0,2.63,1.21A48.72,48.72,0,0,0,589,255.37c2.26-.69,4.95-2.36,4.42-4.7Z"/></g></svg>