<svg xmlns="http://www.w3.org/2000/svg" xmlns:xlink="http://www.w3.org/1999/xlink" viewBox="0 0 900 280"><defs><style>.a{fill:#f1e5ce;}.b{fill:#fef6ea;}.c{isolation:isolate;}.d,.k{fill:#4b4b4b;}.e{fill:#fff;}.f{fill:#ed2627;}.g{fill:#fddfe0;opacity:0.8;}.h{fill:#cd362c;}.i{fill:#741a14;}.j{fill:#a92b22;}.k{opacity:0.2;mix-blend-mode:multiply;}.l{fill:#7e73ff;}.m{fill:#eceaff;opacity:0.3;}</style><symbol id="a" viewBox="0 0 155.19 57.24"><path class="a" d="M155.18,25.61c0,4.39-3.39,8.84-10.56,12.9C123,50.73,75.53,54.86,38.52,47.74,13.82,43,0,34.42,0,25.61H0v6H0C0,40.44,13.82,49,38.52,53.75c37,7.13,84.52,3,106.1-9.22,7.17-4.06,10.58-8.51,10.56-12.9h0v-6Z"/><path class="b" d="M116.67,3.49c-37-7.12-84.52-3-106.1,9.23C3.4,16.78,0,21.22,0,25.61v.19a3.52,3.52,0,0,0,.05.64c0,.13,0,.27.05.41a9.11,9.11,0,0,0,.4,1.64l.05.11a1.42,1.42,0,0,0,.1.29c.06.14.11.28.17.41s.13.27.19.41.13.26.2.38,0,0,0,0c.15.27.31.54.47.8a0,0,0,0,0,0,0c.09.13.17.26.27.39a12.28,12.28,0,0,0,.9,1.18l0,0c.21.25.44.51.68.77l0,0c.12.13.25.25.38.38l.82.78.44.38.46.39c.31.25.63.5,1,.75l.23.17,0,0,.6.43c.78.54,1.61,1.07,2.5,1.59l.58.33.43.24.35.2c.11.06.22.13.35.19l.88.45,1.13.56.85.4c.53.25,1.09.49,1.65.73l.78.33,1.63.65,1.51.56c.55.2,1.1.4,1.67.59l.85.28.87.29.15,0h0l.71.22.9.28.92.27,1.5.43,1,.26,1,.28.88.22.41.1c.62.16,1.24.31,1.87.45l2,.45,1.32.28,1.14.22,1.15.23q4.27.83,8.73,1.45c1.3.19,2.62.36,4,.52,1.82.22,3.67.41,5.52.58l1.8.16c1.1.1,2.2.18,3.31.25,1.27.09,2.55.17,3.83.23s2.55.13,3.83.17c3.93.14,7.87.17,11.79.11l1.25,0c1,0,2,0,3-.08l2-.07.27,0c.75,0,1.5-.06,2.25-.11l2.39-.14.91-.06,1.77-.12,1.59-.13,1.39-.12.81-.08,1.08-.11c.37,0,.73-.06,1.09-.11l.37,0,1.65-.18c1.11-.13,2.22-.27,3.32-.42l1.06-.14.4,0L109,49c.88-.13,1.74-.26,2.61-.41l1-.16.32-.06,1.66-.28,1.77-.33c1.8-.34,3.55-.71,5.27-1.09l1.45-.34c2.09-.5,4.12-1,6.06-1.61l1.73-.52.5-.16h0l.73-.23c1.94-.63,3.79-1.31,5.54-2l.75-.31.25-.1,1.57-.69.33-.15c.77-.35,1.53-.72,2.25-1.09l.82-.43,1-.53c.85-.48,1.64-1,2.39-1.46l.44-.3.43-.29.41-.3a23.9,23.9,0,0,0,3.22-2.75c.26-.27.51-.54.74-.81s.45-.54.65-.81.21-.27.3-.41.19-.27.27-.41a4.53,4.53,0,0,0,.26-.4c.08-.14.16-.27.23-.42s.29-.54.41-.81.11-.28.17-.41.07-.2.11-.29,0-.08,0-.13.09-.27.13-.41a5.09,5.09,0,0,0,.19-.77s0,0,0-.06l.06-.4.06-.41a7.5,7.5,0,0,0,0-.82v0C155.16,16.81,141.37,8.24,116.67,3.49Zm26,25.15a11.32,11.32,0,0,1-2,3.12,24.07,24.07,0,0,1-5.61,4.4l-.66.38c-18.27,10.34-58.49,13.83-89.83,7.8-10.57-2-18.79-4.89-24.32-8.18a23.71,23.71,0,0,1-5.6-4.41,11.43,11.43,0,0,1-2.06-3.15c-2-4.65.6-9.54,8.32-13.91.92-.52,1.9-1,2.94-1.52C43.17,4,80.92,1.16,110.68,6.88a88.84,88.84,0,0,1,20.76,6.31h0C140.92,17.67,145,23.21,142.66,28.64Z"/><path class="a" d="M142.66,28.64c-2.7-6.36-13.88-12.25-32-15.74-31.34-6-71.56-2.53-89.83,7.81-4.43,2.51-7.16,5.19-8.32,7.89-2-4.65.6-9.54,8.32-13.91.92-.52,1.9-1,2.94-1.52C43.17,4,80.92,1.16,110.68,6.88a88.84,88.84,0,0,1,20.76,6.31h0C140.92,17.67,145,23.21,142.66,28.64Z"/></symbol></defs><g class="c"><rect class="d" x="100.7" y="16.48" width="400.59" height="86.72"/><path class="e" d="M148.18,58.85A3.91,3.91,0,0,0,144.1,56c-2.84,0-4.62,2.27-4.62,5.84s1.81,6,4.62,6c2.13,0,3.61-1,4.08-2.77h2.55c-.46,2.9-2.82,5-6.61,5-4.42,0-7.25-3.2-7.25-8.23s2.81-8.11,7.23-8.11c3.84,0,6.19,2.3,6.63,5.11Z"/><path class="e" d="M153.66,61.91c0-5.08,2.78-8.17,7.28-8.17s7.28,3.09,7.28,8.17-2.79,8.17-7.28,8.17S153.66,67,153.66,61.91Zm12,0c0-3.75-1.69-5.9-4.67-5.9s-4.68,2.15-4.68,5.9,1.69,5.9,4.68,5.9S165.61,65.65,165.61,61.91Z"/><path class="e" d="M171.38,61.91c0-5.08,2.78-8.17,7.28-8.17s7.28,3.09,7.28,8.17-2.78,8.17-7.28,8.17S171.38,67,171.38,61.91Zm12,0c0-3.75-1.68-5.9-4.67-5.9S174,58.16,174,61.91s1.68,5.9,4.67,5.9S183.33,65.65,183.33,61.91Z"/><path class="e" d="M199.65,54h3.09L196,60.78l7.25,9H200l-5.92-7.4-1.51,1.4v6H190V47.75h2.52V60.91h.24Z"/><path class="e" d="M203.67,73.25V71.37h13.71v1.88Z"/><path class="e" d="M222.39,67.29h-.24v2.52h-2.4V47.75h2.52v8.76h.23a5.46,5.46,0,0,1,4.95-2.77c4,0,6.63,3.2,6.63,8.17s-2.63,8.17-6.63,8.17A5.66,5.66,0,0,1,222.39,67.29Zm-.18-5.38c0,3.65,1.79,5.9,4.66,5.9s4.6-2.21,4.6-5.9-1.72-5.9-4.6-5.9S222.21,58.26,222.21,61.91Z"/><path class="e" d="M250.8,69.81h-2.4V67.33h-.23c-.79,1.76-2.48,2.75-4.9,2.75-3.54,0-5.39-2.11-5.39-5.84V54h2.52v9.6c0,2.85,1.06,4.16,3.58,4.16,2.78,0,4.3-1.65,4.3-4.42V54h2.52Z"/><path class="e" d="M255.55,54H258v2.34h.24c.47-1.54,2.28-2.62,4.38-2.62a12,12,0,0,1,1.26.07v2.52a10,10,0,0,0-1.61-.15A3.87,3.87,0,0,0,258.07,60v9.79h-2.52Z"/><path class="e" d="M266.42,71.55h2.67c.27,1.29,1.68,2.12,4,2.12,2.83,0,4.51-1.39,4.51-3.72v-3.1h-.23a5.49,5.49,0,0,1-4.95,2.72c-4.09,0-6.62-3.16-6.62-7.89s2.56-7.94,6.62-7.94a5.66,5.66,0,0,1,5.07,2.78h.23V54h2.4V70.08c0,3.53-2.72,5.79-7,5.79C269.23,75.87,266.8,74.16,266.42,71.55Zm11.19-9.87c0-3.45-1.77-5.67-4.69-5.67s-4.57,2.22-4.57,5.67,1.64,5.67,4.57,5.67S277.61,65.12,277.61,61.68Z"/><path class="e" d="M297.8,65.72c-.74,2.69-3.2,4.36-6.65,4.36-4.38,0-7.12-3.16-7.12-8.15s2.78-8.19,7.12-8.19,6.85,3,6.85,7.94v1H286.65v.12c.13,3.12,1.87,5.1,4.55,5.1,2,0,3.42-.75,4.08-2.14Zm-11.15-5.11h8.7c-.06-2.8-1.73-4.65-4.23-4.65S286.84,57.81,286.65,60.61Z"/><path class="e" d="M302,54h2.4v2.34h.23c.47-1.54,2.29-2.62,4.38-2.62a11.79,11.79,0,0,1,1.26.07v2.52a9.79,9.79,0,0,0-1.61-.15A3.86,3.86,0,0,0,304.48,60v9.79H302Z"/><path class="e" d="M318.71,47.75h2.14c-2.08,2.66-3.7,8.32-3.7,13.27s1.61,10.62,3.7,13.28h-2.14A21.07,21.07,0,0,1,314.55,61,21,21,0,0,1,318.71,47.75Z"/><path class="e" d="M358.41,75.18l1.39-8.33h2.8l-2.3,8.33Z"/><path class="e" d="M401.19,75.18l1.39-8.33h2.79l-2.3,8.33Z"/><path class="e" d="M445.63,74.3h-2.14C445.57,71.64,447.2,66,447.2,61s-1.62-10.62-3.71-13.28h2.14A21.05,21.05,0,0,1,449.79,61,21.06,21.06,0,0,1,445.63,74.3Z"/><use width="155.19" height="57.24" transform="matrix(0.12, -0.02, 0.02, 0.12, 412.4, 59.78)" xlink:href="#a"/><use width="155.19" height="57.24" transform="matrix(0.12, 0.02, -0.02, 0.12, 423.22, 57.29)" xlink:href="#a"/><use width="155.19" height="57.24" transform="translate(417.88 61.87) rotate(-2.59) scale(0.12)" xlink:href="#a"/><path class="f" d="M393.26,64.76c0,1-2.26,1.86-5.58,2.3.69-.31,1.08-.66,1.08-1,0-1.26-4.53-2.28-10.12-2.28-4.41,0-8.15.64-9.55,1.52a2.47,2.47,0,0,1-.78-1.71c0-1.28,1.21-2.4,3-3,.11-.66,1.33-1.2,3-1.37.6-1.74,2.92-3,5.68-3s5,1.27,5.67,3h.27c2.27,0,4.11.68,4.11,1.52a.09.09,0,0,1,0,.05c1.89.3,3.25,1.17,3.25,2.2a1.48,1.48,0,0,1-.51,1.06A1.06,1.06,0,0,1,393.26,64.76Z"/><ellipse class="g" cx="386.61" cy="60.74" rx="2.19" ry="1.01"/><ellipse class="g" cx="391.19" cy="61.98" rx="0.85" ry="0.39"/><ellipse class="g" cx="379.8" cy="56.99" rx="1.78" ry="0.83"/><path class="h" d="M388.76,66c0,.37-.39.72-1.08,1a37.44,37.44,0,0,1-4.83.29,34,34,0,0,1-6.29-.53,9.84,9.84,0,0,1-2.15.23,7.69,7.69,0,0,1-5.32-1.78c1.4-.88,5.14-1.52,9.55-1.52C384.23,63.75,388.76,64.77,388.76,66Z"/><path class="i" d="M350.74,63.78v2.34h0c-.06.61-.56,1.23-1.57,1.8-3.21,1.81-10.27,2.43-15.77,1.37-3.56-.69-5.6-1.91-5.72-3.17h0a6,6,0,0,1-.14-.9,3.37,3.37,0,0,1,.14-1.45c0,1.31,2.06,2.58,5.73,3.29,5.5,1.06,12.56.45,15.77-1.37C350.24,65.09,350.74,64.43,350.74,63.78Z"/><path class="j" d="M350.74,63.77h0c0,.65-.5,1.31-1.57,1.91-3.21,1.82-10.27,2.43-15.77,1.37-3.67-.71-5.72-2-5.73-3.29,0-.65.51-1.31,1.57-1.92,3.21-1.81,10.27-2.43,15.78-1.37C348.69,61.19,350.74,62.46,350.74,63.77Z"/><path class="k" d="M335.1,67.33v2.23c-.58-.08-1.15-.17-1.7-.27-3.56-.69-5.6-1.91-5.72-3.17h0a6,6,0,0,1-.14-.9,3.37,3.37,0,0,1,.14-1.45c0,1.31,2.06,2.58,5.73,3.29C334,67.17,334.52,67.26,335.1,67.33Z"/><polygon class="l" points="507.94 16.48 507.94 103.2 100.7 103.2 100.7 260.12 788.74 260.12 788.74 245.65 788.74 103.2 788.74 16.48 507.94 16.48"/><path class="e" d="M541.32,65.92c0-5,2.62-8.17,6.64-8.17a5.39,5.39,0,0,1,4.95,2.77h.22V51.76h2.52V73.82h-2.4V71.3H553a5.65,5.65,0,0,1-5,2.8C543.92,74.1,541.32,70.89,541.32,65.92Zm2.61,0c0,3.7,1.73,5.91,4.61,5.91s4.65-2.26,4.65-5.91S551.4,60,548.54,60,543.93,62.25,543.93,65.92Z"/><path class="e" d="M559.75,65.92c0-5.08,2.78-8.17,7.28-8.17s7.28,3.09,7.28,8.17S571.53,74.1,567,74.1,559.75,71,559.75,65.92Zm12,0c0-3.75-1.68-5.9-4.67-5.9s-4.67,2.15-4.67,5.9S564,71.83,567,71.83,571.7,69.66,571.7,65.92Z"/><path class="e" d="M588.29,78.32V51.76h2.13V78.32Z"/><path class="e" d="M596.28,53.22A1.76,1.76,0,1,1,598,55,1.76,1.76,0,0,1,596.28,53.22Zm.5,4.81h2.52V73.82h-2.52Z"/><path class="e" d="M604.11,58h2.4v2.49h.23a4.75,4.75,0,0,1,4.75-2.77c3.54,0,5.52,2.1,5.52,5.85V73.82h-2.52V64.21c0-2.84-1.2-4.19-3.72-4.19s-4.15,1.69-4.15,4.45v9.35h-2.51Z"/><path class="e" d="M621.49,75.56h2.67c.28,1.29,1.68,2.13,4,2.13,2.83,0,4.52-1.39,4.52-3.72V70.86h-.24a5.48,5.48,0,0,1-4.95,2.73c-4.09,0-6.62-3.17-6.62-7.9s2.56-7.94,6.62-7.94a5.66,5.66,0,0,1,5.07,2.78h.23V58h2.41V74.1c0,3.53-2.73,5.78-7,5.78C624.31,79.88,621.87,78.17,621.49,75.56Zm11.19-9.87c0-3.44-1.77-5.67-4.68-5.67s-4.57,2.23-4.57,5.67,1.64,5.67,4.57,5.67S632.68,69.13,632.68,65.69Z"/><path class="e" d="M639.89,58h2.4v2.34h.24c.47-1.54,2.28-2.62,4.38-2.62a11.79,11.79,0,0,1,1.26.07v2.52a10.21,10.21,0,0,0-1.61-.14A3.86,3.86,0,0,0,642.41,64v9.79h-2.52Z"/><path class="e" d="M663.86,69.73c-.74,2.7-3.2,4.37-6.65,4.37-4.38,0-7.12-3.17-7.12-8.16s2.78-8.19,7.12-8.19,6.85,3,6.85,7.94v1H652.71v.11c.13,3.12,1.87,5.1,4.55,5.1,2,0,3.42-.75,4.08-2.14Zm-11.15-5.11h8.7c-.06-2.8-1.73-4.64-4.23-4.64S652.9,61.82,652.71,64.62Z"/><path class="e" d="M667.23,65.92c0-5,2.62-8.17,6.63-8.17a5.39,5.39,0,0,1,4.95,2.77H679V51.76h2.52V73.82h-2.4V71.3h-.23a5.67,5.67,0,0,1-5.06,2.8C669.82,74.1,667.23,70.89,667.23,65.92Zm2.6,0c0,3.7,1.73,5.91,4.62,5.91s4.64-2.26,4.64-5.91S677.3,60,674.45,60,669.83,62.25,669.83,65.92Z"/><path class="e" d="M686,53.22A1.76,1.76,0,1,1,687.76,55,1.77,1.77,0,0,1,686,53.22Zm.5,4.81H689V73.82H686.5Z"/><path class="e" d="M706.81,69.73c-.74,2.7-3.2,4.37-6.65,4.37-4.38,0-7.12-3.17-7.12-8.16s2.78-8.19,7.12-8.19,6.85,3,6.85,7.94v1H695.66v.11c.13,3.12,1.87,5.1,4.55,5.1,2,0,3.42-.75,4.08-2.14Zm-11.15-5.11h8.7c-.06-2.8-1.73-4.64-4.23-4.64S695.85,61.82,695.66,64.62Z"/><path class="e" d="M711,58h2.4v2.49h.23a4.75,4.75,0,0,1,4.75-2.77c3.54,0,5.52,2.1,5.52,5.85V73.82h-2.52V64.21c0-2.84-1.2-4.19-3.72-4.19s-4.14,1.69-4.14,4.45v9.35H711Z"/><path class="e" d="M732,53.94V58h3.52v2.11H732v8.93c0,1.86.71,2.66,2.35,2.66.45,0,.7,0,1.17-.06v2.12a8.25,8.25,0,0,1-1.48.15c-3.25,0-4.55-1.2-4.55-4.22V60.14H727V58h2.55V53.94Z"/><path class="e" d="M740.92,78.32V51.76h2.14V78.32Z"/><path class="e" d="M150.64,234.54c-.73,2.7-3.2,4.37-6.65,4.37-4.38,0-7.12-3.16-7.12-8.16s2.78-8.19,7.12-8.19,6.85,3,6.85,7.94v1H139.49v.12c.13,3.12,1.88,5.09,4.56,5.09,2,0,3.41-.74,4.07-2.14Zm-11.15-5.11h8.7c-.06-2.8-1.73-4.64-4.23-4.64S139.68,226.63,139.49,229.43Z"/><path class="e" d="M154.8,222.84h2.4v2.49h.24a4.74,4.74,0,0,1,4.74-2.77c3.55,0,5.52,2.1,5.52,5.85v10.22h-2.52V229c0-2.84-1.2-4.19-3.72-4.19s-4.14,1.69-4.14,4.46v9.34H154.8Z"/><path class="e" d="M171.51,230.74c0-5,2.62-8.18,6.64-8.18a5.39,5.39,0,0,1,4.95,2.77h.22v-8.76h2.52v22.06h-2.4v-2.52h-.24a5.65,5.65,0,0,1-5,2.8C174.1,238.91,171.51,235.7,171.51,230.74Zm2.61,0c0,3.69,1.73,5.9,4.61,5.9s4.65-2.26,4.65-5.9-1.79-5.91-4.65-5.91S174.12,227.06,174.12,230.74Z"/><rect class="m" x="160.77" y="135.23" width="580.63" height="15.17" rx="7.59"/><rect class="m" x="160.77" y="168.08" width="580.63" height="15.17" rx="7.59"/></g></svg>