<svg xmlns="http://www.w3.org/2000/svg" xmlns:xlink="http://www.w3.org/1999/xlink" viewBox="0 0 892.86 300"><defs><style>.a{fill:#eae9e9;stroke:#d6d5d5;stroke-width:0.75px;}.a,.b,.c,.d,.e,.f,.g,.i,.j{stroke-miterlimit:10;}.b{fill:#ed2627;}.b,.c,.d{stroke:#fff;}.b,.c,.d,.f,.g{stroke-width:0.5px;}.c{fill:#fec75e;}.d{fill:#5abd80;}.e,.n{fill:#72cee7;}.e{stroke:#e9f6fc;stroke-width:0.8px;}.f,.i,.k,.m{fill:#fff;}.f,.g{stroke:#f1e5ce;}.g{fill:none;}.h{fill:#f1e5ce;}.i,.j{stroke:#00a4ff;stroke-width:0.25px;}.j{fill:#00a4ff;}.l,.o{fill:#4b4b4b;}.m{opacity:0.12;}.o{opacity:0.13;}</style><symbol id="b" viewBox="0 0 180.96 194.59"><rect class="a" x="0.38" y="0.37" width="180.21" height="193.84" rx="3"/><circle class="b" cx="5.93" cy="6.41" r="1.69"/><circle class="c" cx="11.05" cy="6.41" r="1.69"/><circle class="d" cx="16.18" cy="6.41" r="1.69"/></symbol><symbol id="a" viewBox="0 0 174.63 187.78"><use width="180.96" height="194.59" transform="scale(0.96)" xlink:href="#b"/><rect class="e" x="8.81" y="26.82" width="157.01" height="151.57"/><rect class="f" x="8.81" y="14.99" width="157.01" height="7.31"/><path class="g" d="M162.92,18.58a1.78,1.78,0,0,1-.08,1,1.75,1.75,0,1,1-2.24-2.26"/><polygon class="h" points="160.82 18.06 161.44 16.92 160.19 16.59 160.82 18.06"/><rect class="i" x="32.68" y="90.09" width="73.19" height="12.51" rx="1"/><rect class="j" x="108.3" y="90.46" width="28.81" height="12.15" rx="1"/><path class="k" d="M44.89,77.27c0,3.83-2.15,6.24-5.62,6.24s-5.63-2.4-5.63-6.24S35.82,71,39.27,71,44.89,73.43,44.89,77.27Zm-9.07,0c0,2.65,1.31,4.36,3.45,4.36s3.46-1.71,3.46-4.36-1.35-4.35-3.46-4.35S35.82,74.61,35.82,77.27Z"/><path class="k" d="M47.11,74.2h2v1.44h.14A2.7,2.7,0,0,1,51.9,74c2,0,3.1,1.21,3.1,3.36v5.84H53V77.87c0-1.38-.58-2.07-1.82-2.07a1.94,1.94,0,0,0-2,2.17v5.25h-2Z"/><path class="k" d="M57.51,70.72h2v12.5h-2Z"/><path class="k" d="M62,71.48a1.22,1.22,0,1,1,1.22,1.23A1.23,1.23,0,0,1,62,71.48Zm.2,2.72h2v9h-2Z"/><path class="k" d="M66.72,74.2h2v1.44h.14A2.7,2.7,0,0,1,71.51,74c2,0,3.1,1.21,3.1,3.36v5.84h-2V77.87c0-1.38-.58-2.07-1.82-2.07a1.94,1.94,0,0,0-2,2.17v5.25h-2Z"/><path class="k" d="M84.85,80.74c-.37,1.64-1.88,2.66-4,2.66-2.65,0-4.25-1.76-4.25-4.66S78.21,74,80.83,74s4.11,1.71,4.11,4.55v.66h-6.3v.11a2.23,2.23,0,0,0,2.26,2.43,2,2,0,0,0,2-1Zm-6.2-2.9h4.24a2,2,0,0,0-2.07-2.2A2.16,2.16,0,0,0,78.65,77.84Z"/><path class="k" d="M94.89,74c2.14,0,3.49,1,3.63,2.59H96.6c-.14-.64-.74-1-1.7-1s-1.63.45-1.63,1.1.43.82,1.33,1l1.59.36c1.73.39,2.52,1.13,2.52,2.45,0,1.73-1.59,2.89-3.84,2.89s-3.66-1-3.82-2.61h2c.2.66.83,1.06,1.85,1.06s1.75-.45,1.75-1.12c0-.51-.39-.83-1.24-1l-1.6-.37c-1.73-.4-2.55-1.2-2.55-2.56C91.28,75.15,92.77,74,94.89,74Z"/><path class="k" d="M100.34,78.71c0-2.91,1.65-4.69,4.33-4.69S109,75.79,109,78.71s-1.64,4.69-4.34,4.69S100.34,81.63,100.34,78.71Zm6.56,0c0-1.88-.81-3-2.23-3s-2.24,1.09-2.24,3,.82,3,2.24,3S106.9,80.6,106.9,78.71Z"/><path class="k" d="M110.62,78.71c0-2.91,1.66-4.69,4.34-4.69s4.33,1.77,4.33,4.69S117.65,83.4,115,83.4,110.62,81.63,110.62,78.71Zm6.57,0c0-1.88-.82-3-2.23-3s-2.25,1.09-2.25,3,.82,3,2.25,3S117.19,80.6,117.19,78.71Z"/><path class="k" d="M121.35,74.2h2v1.44h.14A2.7,2.7,0,0,1,126.14,74c2,0,3.1,1.21,3.1,3.36v5.84h-2V77.87c0-1.38-.58-2.07-1.82-2.07a1.94,1.94,0,0,0-2,2.17v5.25h-2Z"/><path class="k" d="M131.91,82.12a1.37,1.37,0,1,1,1.37,1.31A1.26,1.26,0,0,1,131.91,82.12Zm2.51-10.8-.19,8h-1.91l-.18-8Z"/><path class="k" d="M112.73,97.75c0,.22.24.36.55.36s.49-.14.49-.34-.13-.27-.46-.34l-.34-.07q-.72-.15-.72-.75c0-.5.4-.83,1-.83s1,.33,1,.8h-.52a.43.43,0,0,0-.48-.35c-.28,0-.46.13-.46.33s.12.25.43.32l.32.07c.53.11.76.34.76.75s-.41.86-1.07.86-1-.31-1.06-.81Z"/><path class="k" d="M115.39,97.52a.56.56,0,0,0,1.11,0V95.85h.55v1.73a1.12,1.12,0,0,1-2.22,0V95.85h.56Z"/><path class="k" d="M117.68,98.49V95.85h1.16c.51,0,.82.25.82.66a.57.57,0,0,1-.48.56v0a.63.63,0,0,1,.6.63c0,.47-.35.76-.91.76Zm.55-1.55h.42c.3,0,.46-.12.46-.33s-.15-.34-.41-.34h-.47Zm.5,1.13c.32,0,.49-.14.49-.38s-.18-.37-.51-.37h-.48v.75Z"/><path class="k" d="M120.69,97.75c0,.22.24.36.55.36s.49-.14.49-.34-.13-.27-.45-.34l-.35-.07c-.48-.1-.71-.35-.71-.75s.4-.83,1-.83a.9.9,0,0,1,1,.8h-.52a.45.45,0,0,0-.49-.35c-.28,0-.46.13-.46.33s.13.25.44.32l.32.07c.53.11.76.34.76.75s-.41.86-1.08.86-1-.31-1-.81Z"/><path class="k" d="M122.69,97.17a1.22,1.22,0,0,1,1.24-1.39,1.09,1.09,0,0,1,1.14,1h-.54a.59.59,0,0,0-.6-.5c-.42,0-.68.34-.68.9s.26.9.68.9a.6.6,0,0,0,.61-.48h.53a1.07,1.07,0,0,1-1.14,1A1.22,1.22,0,0,1,122.69,97.17Z"/><path class="k" d="M126.13,98.49h-.55V95.85h1.11a.82.82,0,0,1,.93.85.79.79,0,0,1-.48.75l.56,1h-.63l-.49-1h-.45Zm0-1.38h.48a.4.4,0,0,0,.45-.41.41.41,0,0,0-.45-.41h-.48Z"/><path class="k" d="M128.17,98.49V95.85h.56v2.64Z"/><path class="k" d="M129.37,98.49V95.85h1.15c.51,0,.82.25.82.66a.57.57,0,0,1-.48.56v0a.64.64,0,0,1,.61.63c0,.47-.35.76-.92.76Zm.55-1.55h.41c.3,0,.47-.12.47-.33s-.16-.34-.42-.34h-.46Zm.49,1.13c.32,0,.49-.14.49-.38s-.18-.37-.5-.37h-.48v.75Z"/><path class="k" d="M133.71,98.49H132V95.85h1.75v.47h-1.2v.62h1.13v.43h-1.13V98h1.2Z"/><path class="k" d="M127.13,140.11a5.07,5.07,0,0,0-5.08-5.08l-.41,0a6.41,6.41,0,0,0-11-1.76,2.61,2.61,0,0,0-4,1.69h-.05A5.13,5.13,0,0,0,106,145.2l16.48,0A5.08,5.08,0,0,0,127.13,140.11Z"/><path class="k" d="M164.6,133.62a8.14,8.14,0,0,0-8.14,8.14c0,.19,0,.37,0,.55a6.44,6.44,0,0,0-11,4.54,6.75,6.75,0,0,0,.19,1.57,11.17,11.17,0,0,0-13.92,8.43,6.32,6.32,0,0,0-12.15,1.74,10.88,10.88,0,0,0-15.82,3.71,12,12,0,0,0-20.18-.39,8.8,8.8,0,0,0-3.23-.61,7.35,7.35,0,0,0-6.26,3,18.84,18.84,0,0,0-9-2.12,17.8,17.8,0,0,0-10.39,3,6,6,0,0,0-11.89-1.07,6,6,0,0,0-4.55-1.92H38c-1.46-6.94-8.87-12.24-17.83-12.29a7.76,7.76,0,0,0-.66-1.5,7.61,7.61,0,0,0,1-3.8,7.73,7.73,0,0,0-7.73-7.73A7.64,7.64,0,0,0,8.81,138V178.2h106.5a10.07,10.07,0,0,0,1.46-.37c.08.13.19.25.28.37h37a3.61,3.61,0,0,0,.23-.36l.19.36h11.31V133.72A8.25,8.25,0,0,0,164.6,133.62ZM30.43,176.83l.26-.16C31.49,176.54,30.83,176.79,30.43,176.83Z"/><path class="k" d="M53.39,132.11a3,3,0,0,0-3-3h-.25a3.78,3.78,0,0,0-6.49-1,1.59,1.59,0,0,0-.84-.24,1.52,1.52,0,0,0-1.5,1.24h0a3,3,0,0,0-.35,6l9.73,0A3,3,0,0,0,53.39,132.11Z"/><path class="l" d="M14.54,19v1.1h-.23V17.31h.23v1.23a.75.75,0,0,1,.23-.24.69.69,0,0,1,.36-.09.6.6,0,0,1,.49.2.68.68,0,0,1,.16.48v1.2h-.23V18.93a.52.52,0,0,0-.12-.36.48.48,0,0,0-.38-.15.45.45,0,0,0-.37.17A.61.61,0,0,0,14.54,19Z"/><path class="l" d="M16.74,17.67v.58h.48v.22h-.48v1.1c0,.23.11.34.31.34a.4.4,0,0,0,.17,0v.2a.63.63,0,0,1-.23,0,.45.45,0,0,1-.35-.13.52.52,0,0,1-.13-.38V18.47h-.39v-.22h.14a.24.24,0,0,0,.27-.27v-.31Z"/><path class="l" d="M18.06,17.67v.58h.48v.22h-.48v1.1c0,.23.11.34.31.34a.4.4,0,0,0,.17,0v.2a.63.63,0,0,1-.23,0A.45.45,0,0,1,18,20a.52.52,0,0,1-.13-.38V18.47h-.39v-.22h.14a.24.24,0,0,0,.27-.27v-.31Z"/><path class="l" d="M19.24,20.83H19V18.25h.23v.37a.7.7,0,0,1,.67-.41.75.75,0,0,1,.61.28,1.18,1.18,0,0,1,0,1.37.77.77,0,0,1-.62.28.69.69,0,0,1-.43-.13.71.71,0,0,1-.23-.26Zm1.09-1.11a.84.84,0,0,0,.17-.55.8.8,0,0,0-.17-.54.57.57,0,0,0-.46-.21.56.56,0,0,0-.46.21.83.83,0,0,0-.17.54.81.81,0,0,0,.17.55.57.57,0,0,0,.46.22A.58.58,0,0,0,20.33,19.72Z"/><path class="l" d="M21.06,19.6l.21-.07a.44.44,0,0,0,.16.3.48.48,0,0,0,.35.11.44.44,0,0,0,.29-.09.28.28,0,0,0,.12-.23c0-.17-.11-.27-.31-.32l-.31-.07c-.3-.07-.45-.23-.45-.49a.47.47,0,0,1,.19-.38.67.67,0,0,1,.43-.16.72.72,0,0,1,.48.17.6.6,0,0,1,.18.32l-.2.08a.47.47,0,0,0-.13-.25.48.48,0,0,0-.33-.12.42.42,0,0,0-.27.09.29.29,0,0,0-.12.24c0,.15.09.25.28.29l.31.07q.48.11.48.51a.48.48,0,0,1-.17.37.64.64,0,0,1-.48.17.72.72,0,0,1-.51-.17A.59.59,0,0,1,21.06,19.6Z"/><path class="l" d="M23.1,18.64a.25.25,0,0,1-.15-.05.2.2,0,0,1-.06-.15A.18.18,0,0,1,23,18.3a.2.2,0,0,1,.15-.06.2.2,0,0,1,.14.06.18.18,0,0,1,.06.14.2.2,0,0,1-.06.15A.24.24,0,0,1,23.1,18.64Zm.14,1.41a.18.18,0,0,1-.14.06.17.17,0,0,1-.14-.06.18.18,0,0,1-.06-.14.2.2,0,0,1,.06-.15.16.16,0,0,1,.14-.05.17.17,0,0,1,.14.05.2.2,0,0,1,.06.15A.18.18,0,0,1,23.24,20.05Z"/><path class="l" d="M25.19,17.36l-1.32,2.73h-.23L25,17.36Z"/><path class="l" d="M26.62,17.36,25.3,20.09h-.23l1.33-2.73Z"/><path class="l" d="M27.89,18.25h.25l.55,1.56.49-1.56h.24l-.61,1.84h-.25L28,18.54l-.55,1.55h-.25l-.61-1.84h.25l.5,1.56Z"/><path class="l" d="M30.86,18.25h.24l.55,1.56.49-1.56h.25l-.61,1.84h-.25L31,18.54l-.54,1.55h-.26l-.61-1.84h.26l.49,1.56Z"/><path class="l" d="M33.82,18.25h.25l.55,1.56.49-1.56h.24l-.61,1.84h-.25l-.55-1.55-.55,1.55h-.25l-.62-1.84h.26l.49,1.56Z"/><path class="l" d="M35.7,20.11a.21.21,0,0,1-.2-.2.2.2,0,0,1,.06-.15.17.17,0,0,1,.14-.05.2.2,0,0,1,.15.05.2.2,0,0,1,.06.15.18.18,0,0,1-.06.14A.2.2,0,0,1,35.7,20.11Z"/><path class="l" d="M36.32,19.6l.21-.07a.48.48,0,0,0,.15.3.51.51,0,0,0,.35.11.49.49,0,0,0,.3-.09.28.28,0,0,0,.12-.23c0-.17-.11-.27-.32-.32l-.3-.07c-.3-.07-.45-.23-.45-.49a.47.47,0,0,1,.19-.38.7.7,0,0,1,.9,0,.61.61,0,0,1,.19.32l-.21.08a.45.45,0,0,0-.12-.25A.48.48,0,0,0,37,18.4a.4.4,0,0,0-.27.09.29.29,0,0,0-.12.24c0,.15.09.25.28.29l.31.07c.31.07.47.24.47.51a.47.47,0,0,1-.16.37.64.64,0,0,1-.48.17.69.69,0,0,1-.51-.17A.59.59,0,0,1,36.32,19.6Z"/><path class="l" d="M39.41,19.81a.56.56,0,0,1-.22.24.69.69,0,0,1-.36.09.61.61,0,0,1-.51-.22.73.73,0,0,1-.17-.51V18.25h.23v1.13a.67.67,0,0,0,.11.39.46.46,0,0,0,.38.17.51.51,0,0,0,.39-.17.53.53,0,0,0,.14-.39V18.25h.23v1.49a3.49,3.49,0,0,0,0,.35h-.22a1.21,1.21,0,0,1,0-.25Z"/><path class="l" d="M40.5,20.83h-.23V18.25h.23v.37a.7.7,0,0,1,.67-.41.75.75,0,0,1,.61.28,1.18,1.18,0,0,1,0,1.37.77.77,0,0,1-.62.28.69.69,0,0,1-.43-.13.71.71,0,0,1-.23-.26Zm1.09-1.11a.85.85,0,0,0,.18-.55.8.8,0,0,0-.18-.54.61.61,0,0,0-.92,0,.83.83,0,0,0-.17.54.81.81,0,0,0,.17.55.57.57,0,0,0,.46.22A.58.58,0,0,0,41.59,19.72Z"/><path class="l" d="M43.83,19.5l.21.07a.77.77,0,0,1-.28.4.8.8,0,0,1-.53.17.85.85,0,0,1-.63-.25,1.12,1.12,0,0,1,0-1.42.77.77,0,0,1,.6-.27.8.8,0,0,1,.63.27.92.92,0,0,1,.23.66.34.34,0,0,1,0,.09H42.58a.73.73,0,0,0,.19.52.6.6,0,0,0,.46.19.59.59,0,0,0,.6-.44ZM42.58,19h1.23a.67.67,0,0,0-.17-.44.62.62,0,0,0-.87,0A.74.74,0,0,0,42.58,19Z"/><path class="l" d="M45.48,18.25v.24l-.16,0a.54.54,0,0,0-.4.16.64.64,0,0,0-.15.46v1h-.23V18.25h.23v.35a.57.57,0,0,1,.57-.37Z"/><path class="l" d="M45.93,20a.47.47,0,0,1-.16-.36c0-.3.19-.48.56-.54l.49-.08c.13,0,.19-.08.19-.18a.39.39,0,0,0-.12-.3.45.45,0,0,0-.34-.12.52.52,0,0,0-.36.12.44.44,0,0,0-.15.32l-.23-.05a.63.63,0,0,1,.24-.43.8.8,0,0,1,.49-.16.69.69,0,0,1,.53.19.6.6,0,0,1,.17.45v.94a1.55,1.55,0,0,0,0,.31H47a1.85,1.85,0,0,1,0-.31.59.59,0,0,1-.23.24.71.71,0,0,1-.41.12A.64.64,0,0,1,45.93,20Zm.08-.37a.3.3,0,0,0,.11.23.38.38,0,0,0,.29.1.59.59,0,0,0,.43-.16.55.55,0,0,0,.17-.44v-.22a.19.19,0,0,1-.1,0l-.14,0-.41.06C46.13,19.29,46,19.41,46,19.61Z"/><path class="l" d="M48.07,20.83h-.22V18.25h.22v.37a.81.81,0,0,1,.23-.28.81.81,0,0,1,1.05.15,1.18,1.18,0,0,1,0,1.37.76.76,0,0,1-.62.28.73.73,0,0,1-.66-.39Zm1.1-1.11a.9.9,0,0,0,.17-.55.85.85,0,0,0-.17-.54.59.59,0,0,0-.47-.21.57.57,0,0,0-.46.21.89.89,0,0,0-.17.54.86.86,0,0,0,.17.55.58.58,0,0,0,.46.22A.6.6,0,0,0,49.17,19.72Z"/><path class="l" d="M50.29,20.83h-.23V18.25h.23v.37a.81.81,0,0,1,.23-.28.81.81,0,0,1,1,.15,1.18,1.18,0,0,1,0,1.37.76.76,0,0,1-.62.28.73.73,0,0,1-.66-.39Zm1.09-1.11a.85.85,0,0,0,.18-.55.8.8,0,0,0-.18-.54.56.56,0,0,0-.46-.21.57.57,0,0,0-.46.21.89.89,0,0,0-.17.54.86.86,0,0,0,.17.55.58.58,0,0,0,.46.22A.57.57,0,0,0,51.38,19.72Z"/><path class="l" d="M52.34,20.11a.17.17,0,0,1-.14-.06.18.18,0,0,1-.06-.14.2.2,0,0,1,.06-.15.22.22,0,0,1,.28,0,.2.2,0,0,1,.06.15.18.18,0,0,1-.06.14A.17.17,0,0,1,52.34,20.11Z"/><path class="l" d="M54.2,18.56a.56.56,0,0,0-.4-.14.57.57,0,0,0-.47.2.76.76,0,0,0-.2.56.73.73,0,0,0,.2.55.6.6,0,0,0,.47.2.64.64,0,0,0,.41-.14.77.77,0,0,0,.19-.31l.2.09a.82.82,0,0,1-.8.57.85.85,0,0,1-.65-.27,1,1,0,0,1-.26-.69,1,1,0,0,1,.26-.71.86.86,0,0,1,.65-.27.81.81,0,0,1,.53.18.76.76,0,0,1,.25.4l-.2.09A.73.73,0,0,0,54.2,18.56Z"/><path class="l" d="M55.15,18.47a.85.85,0,0,1,.64-.27.88.88,0,0,1,.65.27,1.09,1.09,0,0,1,0,1.41.91.91,0,0,1-.65.26.86.86,0,0,1-.63-.26,1,1,0,0,1-.27-.7A1,1,0,0,1,55.15,18.47Zm.18,1.27a.64.64,0,0,0,.93,0,.77.77,0,0,0,.2-.56.8.8,0,0,0-.2-.57.61.61,0,0,0-.47-.19.59.59,0,0,0-.46.19.8.8,0,0,0-.21.57A.78.78,0,0,0,55.33,19.74Z"/><path class="l" d="M57.42,20.09h-.23V18.25h.23v.31a.53.53,0,0,1,.22-.25.63.63,0,0,1,.36-.1.56.56,0,0,1,.37.11.47.47,0,0,1,.21.3.65.65,0,0,1,.64-.41.6.6,0,0,1,.45.17.71.71,0,0,1,.18.5v1.21h-.23V18.91a.52.52,0,0,0-.12-.36.45.45,0,0,0-.35-.14.51.51,0,0,0-.37.16.56.56,0,0,0-.14.4v1.12h-.23V18.91a.48.48,0,0,0-.13-.36.44.44,0,0,0-.35-.14.52.52,0,0,0-.37.16.61.61,0,0,0-.14.4Z"/><path class="l" d="M36.78,97.76l.51-.18a.62.62,0,0,0,.2.39.72.72,0,0,0,.47.15.57.57,0,0,0,.36-.11.35.35,0,0,0,.13-.27c0-.2-.12-.32-.37-.38l-.49-.1a1,1,0,0,1-.53-.29.76.76,0,0,1-.19-.52.85.85,0,0,1,.3-.65,1.08,1.08,0,0,1,.73-.27,1.3,1.3,0,0,1,.49.09.78.78,0,0,1,.33.21,1.49,1.49,0,0,1,.18.24,1.17,1.17,0,0,1,.09.24l-.49.18a1.21,1.21,0,0,0,0-.14l-.09-.15a.44.44,0,0,0-.18-.14.82.82,0,0,0-.28,0,.51.51,0,0,0-.35.12.32.32,0,0,0-.13.27c0,.18.11.3.33.35l.46.1a1.08,1.08,0,0,1,.6.31.81.81,0,0,1,.2.55.83.83,0,0,1-.28.61,1,1,0,0,1-.77.28,1.21,1.21,0,0,1-.84-.27A.94.94,0,0,1,36.78,97.76Z"/><path class="l" d="M41.76,97.52l.49.17a1.28,1.28,0,0,1-.47.65,1.37,1.37,0,0,1-.83.26,1.41,1.41,0,0,1-1-.42,1.49,1.49,0,0,1-.42-1.12A1.48,1.48,0,0,1,39.91,96a1.28,1.28,0,0,1,1-.44,1.33,1.33,0,0,1,1,.41,1.65,1.65,0,0,1,.37,1.11.9.9,0,0,1,0,.18H40.08a.86.86,0,0,0,.26.63.84.84,0,0,0,.61.24A.78.78,0,0,0,41.76,97.52Zm-1.66-.75h1.58a.76.76,0,0,0-.22-.53.78.78,0,0,0-.58-.21.74.74,0,0,0-.55.22A.8.8,0,0,0,40.1,96.77Z"/><path class="l" d="M43.54,98.51H43V94.17h.56V96a.9.9,0,0,1,.37-.35,1.33,1.33,0,0,1,1.57.29,1.87,1.87,0,0,1,0,2.18,1.21,1.21,0,0,1-1,.44,1,1,0,0,1-.94-.5ZM45,97.8a1.3,1.3,0,0,0,0-1.49.8.8,0,0,0-.63-.27.78.78,0,0,0-.61.27,1.1,1.1,0,0,0-.24.74,1.13,1.13,0,0,0,.24.75.82.82,0,0,0,1.23,0Z"/><path class="l" d="M49.67,97.69a.71.71,0,0,1-.39-.1.49.49,0,0,1-.21-.29.82.82,0,0,1-.71.4.84.84,0,0,1-.66-.28,1.09,1.09,0,0,1-.26-.75,1.44,1.44,0,0,1,.36-1,1.06,1.06,0,0,1,.84-.4.82.82,0,0,1,.4.1.49.49,0,0,1,.24.29l.06-.32h.47l-.32,1.51a1.11,1.11,0,0,0,0,.17.21.21,0,0,0,.23.24c.17,0,.32-.11.45-.34a1.61,1.61,0,0,0,.2-.8A1.41,1.41,0,0,0,49.88,95a1.7,1.7,0,0,0-1.21-.44,1.76,1.76,0,0,0-1.32.53,1.91,1.91,0,0,0-.53,1.39,1.83,1.83,0,0,0,.52,1.32,1.87,1.87,0,0,0,1.39.51A1.91,1.91,0,0,0,50,97.93l.25.33a1.81,1.81,0,0,1-.67.38,2.32,2.32,0,0,1-.81.15A2.44,2.44,0,0,1,47,98.16a2.18,2.18,0,0,1-.67-1.65,2.29,2.29,0,0,1,2.33-2.34,2.16,2.16,0,0,1,1.53.56,1.95,1.95,0,0,1,.29,2.51A1,1,0,0,1,49.67,97.69Zm-.52-1.4a.6.6,0,0,0-.13-.42.46.46,0,0,0-.37-.14.59.59,0,0,0-.51.26,1,1,0,0,0-.21.62c0,.43.17.65.51.65A.6.6,0,0,0,49,97,1.26,1.26,0,0,0,49.15,96.29Z"/><path class="l" d="M52.06,98.51H51.5V94.17h.56Z"/><path class="l" d="M55.05,97.52l.49.17a1.28,1.28,0,0,1-.47.65,1.37,1.37,0,0,1-.83.26,1.41,1.41,0,0,1-1-.42,1.49,1.49,0,0,1-.42-1.12A1.48,1.48,0,0,1,53.2,96a1.28,1.28,0,0,1,1-.44,1.33,1.33,0,0,1,1,.41,1.65,1.65,0,0,1,.36,1.11,1,1,0,0,1,0,.18H53.37a.86.86,0,0,0,.26.63.84.84,0,0,0,.61.24A.78.78,0,0,0,55.05,97.52Zm-1.66-.75H55a.76.76,0,0,0-.22-.53.78.78,0,0,0-.58-.21.74.74,0,0,0-.55.22A.8.8,0,0,0,53.39,96.77Z"/><path class="l" d="M57.87,95.62h.58l.75,2.18.64-2.18h.59l-.93,2.89h-.59l-.76-2.2-.75,2.2h-.6l-.95-2.89h.62l.65,2.18Z"/><path class="l" d="M60.79,97.74a.78.78,0,0,1,.24-.6,1.15,1.15,0,0,1,.64-.28l.78-.11c.15,0,.22-.1.22-.22a.46.46,0,0,0-.16-.37.64.64,0,0,0-.46-.15.66.66,0,0,0-.46.16.69.69,0,0,0-.2.43l-.54-.13a.94.94,0,0,1,.38-.67,1.42,1.42,0,0,1,1.71,0,1,1,0,0,1,.29.76V98a3.3,3.3,0,0,0,0,.47h-.55a2.38,2.38,0,0,1,0-.39,1.14,1.14,0,0,1-.35.34,1.16,1.16,0,0,1-.58.14,1,1,0,0,1-.7-.26A.8.8,0,0,1,60.79,97.74Zm1.05.39a.84.84,0,0,0,.6-.21.83.83,0,0,0,.23-.65v-.13l-.88.13a.59.59,0,0,0-.31.14.41.41,0,0,0-.11.3.37.37,0,0,0,.13.29A.48.48,0,0,0,61.84,98.13Z"/><path class="l" d="M63.9,98.67l.55-.13a.81.81,0,0,0,.24.51.8.8,0,0,0,.54.2c.59,0,.88-.31.88-.94V97.9a.83.83,0,0,1-.33.34,1.09,1.09,0,0,1-.55.13,1.27,1.27,0,0,1-1-.39,1.4,1.4,0,0,1-.37-1,1.44,1.44,0,0,1,.37-1,1.26,1.26,0,0,1,1-.4.89.89,0,0,1,.89.46v-.41h.56v2.67a1.8,1.8,0,0,1-.08.54,1.33,1.33,0,0,1-.23.46,1.07,1.07,0,0,1-.46.33,1.76,1.76,0,0,1-.68.12,1.38,1.38,0,0,1-.9-.3A1.16,1.16,0,0,1,63.9,98.67Zm1.42-.77a.76.76,0,0,0,.59-.26,1,1,0,0,0,.23-.67,1,1,0,0,0-.23-.67.75.75,0,0,0-.59-.25.79.79,0,0,0-.61.25,1.11,1.11,0,0,0,0,1.35A.8.8,0,0,0,65.32,97.9Z"/><path class="l" d="M67.76,96a1.48,1.48,0,0,1,2.11,0,1.5,1.5,0,0,1,.42,1.09,1.57,1.57,0,0,1-.41,1.11,1.53,1.53,0,0,1-2.13,0,1.57,1.57,0,0,1-.41-1.11A1.5,1.5,0,0,1,67.76,96Zm.42,1.85a.86.86,0,0,0,1.27,0,1.23,1.23,0,0,0,0-1.51.88.88,0,0,0-1.27,0,1.19,1.19,0,0,0,0,1.51Z"/><path class="l" d="M71.57,96.84v1.67H71V95.62h.55V96a1.06,1.06,0,0,1,1.66-.18,1.26,1.26,0,0,1,.26.82v1.83h-.56V96.78c0-.49-.23-.73-.67-.73a.62.62,0,0,0-.5.22A.88.88,0,0,0,71.57,96.84Z"/><path class="l" d="M74.44,98.42a.4.4,0,0,1-.12-.29.41.41,0,0,1,.42-.42.4.4,0,0,1,.29.12.38.38,0,0,1,.13.3.37.37,0,0,1-.13.29.4.4,0,0,1-.29.12A.41.41,0,0,1,74.44,98.42Z"/><path class="l" d="M77.18,96.06a.8.8,0,0,0-.62.26,1,1,0,0,0-.26.74,1.05,1.05,0,0,0,.26.75.83.83,0,0,0,.62.27.76.76,0,0,0,.55-.18.93.93,0,0,0,.26-.42l.5.22a1.32,1.32,0,0,1-.46.63,1.29,1.29,0,0,1-.85.27,1.38,1.38,0,0,1-1-.44,1.68,1.68,0,0,1,0-2.2,1.41,1.41,0,0,1,1-.43,1.26,1.26,0,0,1,1.28.92l-.51.22a.89.89,0,0,0-.25-.43A.71.71,0,0,0,77.18,96.06Z"/><path class="l" d="M79.29,96a1.5,1.5,0,0,1,2.12,0,1.5,1.5,0,0,1,.42,1.09,1.53,1.53,0,0,1-.42,1.11,1.39,1.39,0,0,1-1.06.43,1.4,1.4,0,0,1-1.06-.43,1.68,1.68,0,0,1,0-2.2Zm.42,1.85a.88.88,0,0,0,.64.28.86.86,0,0,0,.64-.28,1.23,1.23,0,0,0,0-1.51.85.85,0,0,0-.64-.27.87.87,0,0,0-.64.27,1.23,1.23,0,0,0,0,1.51Z"/><path class="l" d="M83.11,98.51h-.56V95.62h.54V96a.89.89,0,0,1,.37-.35,1.11,1.11,0,0,1,.5-.12,1,1,0,0,1,.52.14.83.83,0,0,1,.35.41,1,1,0,0,1,1-.55,1,1,0,0,1,.71.28,1.11,1.11,0,0,1,.29.82v1.87h-.56V96.7a.73.73,0,0,0-.15-.48.57.57,0,0,0-.46-.18.6.6,0,0,0-.48.21.75.75,0,0,0-.19.51v1.75h-.56V96.7a.73.73,0,0,0-.15-.48.57.57,0,0,0-.46-.18.66.66,0,0,0-.49.2.77.77,0,0,0-.18.53Z"/><polygon class="m" points="105.64 187.42 174.26 107.17 174.26 184.52 169.41 187.42 105.64 187.42"/></symbol></defs><rect class="n" y="70" width="892.86" height="160"/><rect class="o" x="279" y="70" width="338.62" height="160"/><use width="174.63" height="187.78" transform="translate(323.84 14.78) scale(1.45)" xlink:href="#a"/></svg>