<svg xmlns="http://www.w3.org/2000/svg" viewBox="0 0 900 280"><defs><style>.a{fill:none;stroke:#110809;stroke-miterlimit:10;}.b{fill:#fff;}.c{fill:#e8f6fb;}.d{fill:#fff6e8;}.e{fill:#fbdfe0;}.f{fill:#fdc55b;}.g{fill:#110809;}.h{fill:#ec2224;}.i{fill:#71cde7;}</style></defs><polyline class="a" points="316.19 196.74 316.19 210.83 730.48 210.83 730.37 196.74"/><rect class="b" x="460.51" y="198.8" width="120.87" height="23.94"/><rect class="c" x="592.99" y="54.72" width="137.38" height="129.75"/><rect class="d" x="135.57" y="54.72" width="117.38" height="129.75"/><rect class="e" x="316.19" y="54.72" width="254.21" height="129.75"/><path class="f" d="M157.61,95.52c6.88,0,11.67,3.42,12.37,8.81H164.8c-.7-2.62-3.26-4.36-7.22-4.36s-7,2-7,4.91c0,2.25,1.83,3.66,5.7,4.6l5.06,1.22c6.18,1.49,9.17,4.17,9.17,8.9,0,5.88-5.7,9.93-13.17,9.93-7.31,0-12.34-3.5-12.92-9h5.4c.88,2.78,3.5,4.54,7.71,4.54,4.42,0,7.59-2.1,7.59-5.12,0-2.25-1.71-3.78-5.22-4.63L154.32,114c-6.16-1.49-9-4.14-9-8.9C145.36,99.64,150.63,95.52,157.61,95.52Z"/><path class="f" d="M205.79,120.45c-1.52,5.61-6.64,9.08-13.84,9.08-9.11,0-14.8-6.58-14.8-17s5.79-17,14.8-17,14.27,6.31,14.27,16.52v2H182.6v.25c.27,6.49,3.9,10.6,9.48,10.6,4.23,0,7.1-1.55,8.47-4.45ZM182.6,109.82h18.1c-.12-5.82-3.6-9.66-8.81-9.66S183,104,182.6,109.82Z"/><path class="f" d="M220.24,123.71h-.49V129h-5V83.06H220v18.22h.49c1.8-3.53,5.79-5.76,10.3-5.76,8.35,0,13.77,6.68,13.77,17s-5.45,17-13.77,17A11.77,11.77,0,0,1,220.24,123.71Zm-.37-11.18c0,7.59,3.72,12.28,9.69,12.28s9.57-4.6,9.57-12.28-3.57-12.28-9.57-12.28S219.87,104.94,219.87,112.53Z"/><path class="g" d="M309.31,107.65c0,9.94-4.45,16.24-11.46,16.24-3.57,0-6.34-2.13-6.7-5.12h-.49a7.81,7.81,0,0,1-7.62,4.85c-6.34,0-10.6-5.21-10.6-13,0-7.41,4.35-12.59,10.6-12.59a7.6,7.6,0,0,1,7.13,4.3h.49V98.66h4.6v17.89a3.11,3.11,0,0,0,3.44,3.38c3.84,0,6.31-4.84,6.31-12.34,0-11-8.35-18.53-20.54-18.53-11.91,0-20.48,9.09-20.48,21.76,0,13,8.42,21.39,21.46,21.39,4.17,0,8.29-.58,10.2-1.46v3.84a33,33,0,0,1-10.26,1.49c-15.73,0-25.69-9.87-25.69-25.44,0-15.08,10.24-25.41,25.17-25.41C299.28,85.23,309.31,94.43,309.31,107.65Zm-32,3.14c0,5.3,2.44,8.53,6.43,8.53,4.18,0,6.86-3.32,6.86-8.53s-2.65-8.5-6.8-8.5S277.31,105.46,277.31,110.79Z"/><path class="h" d="M325.37,83.06h5.24V129h-5.24Z"/><path class="h" d="M367.79,120.45c-1.53,5.61-6.65,9.08-13.84,9.08-9.11,0-14.81-6.58-14.81-17s5.79-17,14.81-17,14.26,6.31,14.26,16.52v2H344.6v.25c.27,6.49,3.9,10.6,9.47,10.6,4.24,0,7.1-1.55,8.48-4.45ZM344.6,109.82h18.1c-.12-5.82-3.6-9.66-8.81-9.66S345,104,344.6,109.82Z"/><path class="h" d="M408.56,129h-5.33l-7.34-25.41h-.49L388.09,129h-5.31l-9.2-32.85h5.3l6.46,26.27h.49l7.35-26.27h5l7.35,26.27H406l6.46-26.27h5.28Z"/><path class="h" d="M421.92,119.75c0-5.88,4.32-9.26,12-9.72l9.48-.58v-3c0-4-2.53-6.27-7.44-6.27-3.93,0-6.67,1.49-7.4,4.08h-5.3c.7-5.27,5.88-8.75,12.89-8.75,8,0,12.49,4.12,12.49,10.94V129h-5v-4.84h-.48A11.37,11.37,0,0,1,433,129.53C426.64,129.53,421.92,125.75,421.92,119.75Zm21.45-3v-3l-8.84.57c-5,.34-7.19,2.08-7.19,5.37s2.84,5.3,6.64,5.3C439.38,124.93,443.37,121.4,443.37,116.7Z"/><path class="h" d="M458.06,132.58h5.55c.58,2.68,3.5,4.42,8.23,4.42,5.88,0,9.38-2.9,9.38-7.74V122.8h-.49a11.4,11.4,0,0,1-10.3,5.66c-8.5,0-13.77-6.58-13.77-16.42S462,95.52,470.43,95.52A11.77,11.77,0,0,1,481,101.31h.48V96.1h5v33.43c0,7.35-5.67,12-14.62,12C463.91,141.57,458.85,138,458.06,132.58ZM481.34,112c0-7.16-3.68-11.79-9.75-11.79s-9.51,4.63-9.51,11.79,3.42,11.79,9.51,11.79S481.34,119.2,481.34,112Z"/><path class="h" d="M494.7,112.53c0-10.58,5.79-17,15.14-17S525,102,525,112.53s-5.79,17-15.14,17S494.7,123.07,494.7,112.53Zm24.86,0c0-7.8-3.5-12.28-9.72-12.28s-9.72,4.48-9.72,12.28,3.5,12.28,9.72,12.28S519.56,120.3,519.56,112.53Z"/><path class="h" d="M533.22,96.1h5v5.18h.49c1.65-3.62,4.85-5.76,9.88-5.76,7.37,0,11.48,4.36,11.48,12.16V129h-5.24V109c0-5.91-2.5-8.71-7.74-8.71s-8.62,3.5-8.62,9.26V129h-5.24Z"/><path class="g" d="M577.49,125.3a4,4,0,1,1,4,4A4,4,0,0,1,577.49,125.3Z"/><path class="i" d="M625,106.16c-.86-3.26-3.75-5.91-8.48-5.91-5.91,0-9.63,4.72-9.63,12.16s3.78,12.4,9.63,12.4c4.42,0,7.5-2,8.48-5.76h5.3c-1,6-5.85,10.48-13.75,10.48-9.2,0-15.08-6.67-15.08-17.12,0-10.24,5.85-16.89,15-16.89,8,0,12.86,4.79,13.78,10.64Z"/><path class="i" d="M636.43,112.53c0-10.58,5.79-17,15.14-17s15.15,6.43,15.15,17-5.79,17-15.15,17S636.43,123.07,636.43,112.53Zm24.86,0c0-7.8-3.5-12.28-9.72-12.28s-9.72,4.48-9.72,12.28,3.5,12.28,9.72,12.28S661.29,120.3,661.29,112.53Z"/><path class="i" d="M675,96.1h5v5.18h.48c1.5-3.65,4.79-5.76,9.18-5.76a9.5,9.5,0,0,1,9.08,5.76h.48a11,11,0,0,1,10.06-5.76c6.7,0,10.45,3.84,10.45,10.73V129h-5.24V107.47c0-4.85-2.29-7.22-6.92-7.22a7.39,7.39,0,0,0-7.62,7.58V129h-5.24v-22.3c0-3.9-2.71-6.4-6.85-6.4-4.3,0-7.62,3.72-7.62,8.35V129H675Z"/><path class="i" d="M606,164v-6.81h-2.47v-.86h5.89v.86H607V164Z"/><path class="i" d="M609.45,161.15c0-1.84,1-3,2.63-3s2.64,1.12,2.64,3-1,3-2.64,3S609.45,163,609.45,161.15Zm4.33,0c0-1.36-.61-2.14-1.7-2.14s-1.69.78-1.69,2.14.61,2.14,1.69,2.14S613.78,162.51,613.78,161.15Z"/><path class="i" d="M621.35,161.15c0,1.79-1,3-2.4,3a1.93,1.93,0,0,1-1.79-1h-.09v2.77h-.91v-7.64H617v1h.09a2.05,2.05,0,0,1,1.83-1.06C620.41,158.19,621.35,159.35,621.35,161.15Zm-.94,0c0-1.33-.63-2.14-1.68-2.14s-1.68.83-1.68,2.14.65,2.14,1.68,2.14S620.41,162.49,620.41,161.15Z"/><path class="i" d="M630.63,164H626v-7.67h1v6.81h3.7Z"/><path class="i" d="M636.47,162.53a2.28,2.28,0,0,1-2.41,1.59c-1.58,0-2.58-1.15-2.58-3s1-3,2.58-3,2.49,1.1,2.49,2.88v.35h-4.12v0c.05,1.13.68,1.85,1.65,1.85a1.48,1.48,0,0,0,1.48-.78Zm-4-1.85h3.16a1.54,1.54,0,0,0-1.54-1.68A1.63,1.63,0,0,0,632.43,160.68Z"/><path class="i" d="M640.43,164h-.93l-2.12-5.73h1l1.57,4.72H640l1.56-4.72h1Z"/><path class="i" d="M648.27,162.53a2.3,2.3,0,0,1-2.42,1.59c-1.58,0-2.58-1.15-2.58-3s1-3,2.58-3,2.49,1.1,2.49,2.88v.35h-4.12v0c0,1.13.68,1.85,1.66,1.85a1.48,1.48,0,0,0,1.47-.78Zm-4-1.85h3.16a1.54,1.54,0,0,0-1.54-1.68A1.63,1.63,0,0,0,644.22,160.68Z"/><path class="i" d="M649.83,156h.91v8h-.91Z"/><path class="i" d="M658.33,156.35c2.27,0,3.62,1.42,3.62,3.83s-1.34,3.84-3.62,3.84H655.7v-7.67Zm-1.67,6.81h1.61c1.71,0,2.7-1.1,2.7-3s-1-3-2.7-3h-1.61Z"/><path class="i" d="M663.2,161.15c0-1.84,1-3,2.64-3s2.64,1.12,2.64,3-1,3-2.64,3S663.2,163,663.2,161.15Zm4.33,0c0-1.36-.61-2.14-1.69-2.14s-1.69.78-1.69,2.14.61,2.14,1.69,2.14S667.53,162.51,667.53,161.15Z"/><path class="i" d="M669.92,158.29h.87v.9h.08a1.62,1.62,0,0,1,1.6-1,1.65,1.65,0,0,1,1.58,1h.09a1.91,1.91,0,0,1,1.75-1,1.67,1.67,0,0,1,1.82,1.87v4h-.91v-3.75c0-.84-.4-1.26-1.21-1.26a1.29,1.29,0,0,0-1.33,1.33V164h-.91v-3.89a1.09,1.09,0,0,0-1.19-1.12,1.39,1.39,0,0,0-1.33,1.46V164h-.91Z"/><path class="i" d="M679,162.41c0-1,.75-1.61,2.09-1.69l1.65-.1v-.52c0-.71-.44-1.1-1.3-1.1-.68,0-1.16.26-1.29.71h-.92c.12-.91,1-1.52,2.24-1.52,1.4,0,2.18.72,2.18,1.91V164h-.87v-.85h-.08a2,2,0,0,1-1.77,1A1.74,1.74,0,0,1,679,162.41Zm3.74-.53v-.52l-1.54.1c-.87,0-1.25.36-1.25.93s.49.92,1.15.92A1.51,1.51,0,0,0,682.78,161.88Z"/><path class="i" d="M685.22,156.55a.64.64,0,1,1,.64.64A.64.64,0,0,1,685.22,156.55Zm.18,1.74h.92V164h-.92Z"/><path class="i" d="M688.06,158.29h.87v.9H689a1.73,1.73,0,0,1,1.72-1,1.87,1.87,0,0,1,2,2.12V164h-.92v-3.49c0-1-.43-1.52-1.35-1.52a1.45,1.45,0,0,0-1.5,1.62V164h-.91Z"/><path class="i" d="M699.41,156h.77a9.32,9.32,0,0,0,0,9.63h-.77a8.43,8.43,0,0,1,0-9.63Z"/><path class="i" d="M703.74,164v-6.81h-2.47v-.86h5.89v.86h-2.47V164Z"/><path class="i" d="M713.29,164h-4.65v-7.67h1v6.81h3.69Z"/><path class="i" d="M717.45,156.35c2.27,0,3.61,1.42,3.61,3.83s-1.34,3.84-3.61,3.84h-2.63v-7.67Zm-1.68,6.81h1.61c1.71,0,2.7-1.1,2.7-3s-1-3-2.7-3h-1.61Z"/><path class="i" d="M723.1,165.65h-.77a8.94,8.94,0,0,0,1.34-4.82,8.79,8.79,0,0,0-1.34-4.81h.77a8.43,8.43,0,0,1,0,9.63Z"/><path class="h" d="M391,162c.12.81.88,1.32,2,1.32s1.79-.56,1.79-1.32-.48-1.07-1.53-1.33l-1-.26c-1.39-.35-2-1-2-2.07,0-1.3,1.09-2.18,2.71-2.18a2.43,2.43,0,0,1,2.66,2.12h-1A1.57,1.57,0,0,0,393,157c-1,0-1.7.51-1.7,1.28,0,.6.42,1,1.48,1.22l.8.21c1.59.4,2.22,1,2.22,2.14,0,1.41-1.1,2.31-2.86,2.31s-2.74-.86-2.84-2.19Z"/><path class="h" d="M401.93,162.53a2.29,2.29,0,0,1-2.41,1.59c-1.59,0-2.58-1.15-2.58-3s1-3,2.58-3,2.49,1.1,2.49,2.88v.35h-4.12v0c.05,1.13.68,1.85,1.65,1.85a1.48,1.48,0,0,0,1.48-.78Zm-4-1.85h3.16a1.55,1.55,0,0,0-1.54-1.68A1.63,1.63,0,0,0,397.89,160.68Z"/><path class="h" d="M407.25,160a1.41,1.41,0,0,0-1.47-1c-1,0-1.68.83-1.68,2.12s.66,2.16,1.68,2.16a1.37,1.37,0,0,0,1.47-1h.93a2.22,2.22,0,0,1-2.4,1.83c-1.6,0-2.62-1.17-2.62-3s1-2.94,2.62-2.94a2.24,2.24,0,0,1,2.4,1.85Z"/><path class="h" d="M409.24,161.15c0-1.84,1-3,2.64-3s2.64,1.12,2.64,3-1,3-2.64,3S409.24,163,409.24,161.15Zm4.34,0c0-1.36-.62-2.14-1.7-2.14s-1.69.78-1.69,2.14.61,2.14,1.69,2.14S413.58,162.51,413.58,161.15Z"/><path class="h" d="M416,158.29h.87v.9h.08a1.73,1.73,0,0,1,1.72-1,1.86,1.86,0,0,1,2,2.12V164h-.91v-3.49c0-1-.44-1.52-1.35-1.52a1.45,1.45,0,0,0-1.5,1.62V164H416Z"/><path class="h" d="M422,161.15c0-1.79,1-3,2.4-3a2,2,0,0,1,1.8,1h.08V156h.91v8h-.87v-.92h-.09a2,2,0,0,1-1.83,1C423,164.12,422,163,422,161.15Zm.94,0c0,1.34.63,2.14,1.67,2.14s1.69-.81,1.69-2.14-.65-2.14-1.69-2.14S423,159.82,423,161.15Z"/><path class="h" d="M436.82,164h-4.65v-7.67h1v6.81h3.69Z"/><path class="h" d="M442.67,162.53a2.29,2.29,0,0,1-2.41,1.59c-1.59,0-2.58-1.15-2.58-3s1-3,2.58-3,2.48,1.1,2.48,2.88v.35h-4.11v0c.05,1.13.68,1.85,1.65,1.85a1.48,1.48,0,0,0,1.48-.78Zm-4-1.85h3.15a1.54,1.54,0,0,0-1.53-1.68A1.63,1.63,0,0,0,438.63,160.68Z"/><path class="h" d="M446.63,164h-.94l-2.12-5.73h1l1.57,4.72h.08l1.57-4.72h1Z"/><path class="h" d="M454.46,162.53a2.29,2.29,0,0,1-2.41,1.59c-1.59,0-2.58-1.15-2.58-3s1-3,2.58-3,2.49,1.1,2.49,2.88v.35h-4.12v0c.05,1.13.68,1.85,1.65,1.85a1.48,1.48,0,0,0,1.48-.78Zm-4-1.85h3.15A1.54,1.54,0,0,0,452,159,1.63,1.63,0,0,0,450.42,160.68Z"/><path class="h" d="M456,156h.92v8H456Z"/><path class="h" d="M464.53,156.35c2.27,0,3.61,1.42,3.61,3.83S466.8,164,464.53,164H461.9v-7.67Zm-1.68,6.81h1.61c1.71,0,2.71-1.1,2.71-3s-1-3-2.71-3h-1.61Z"/><path class="h" d="M469.4,161.15c0-1.84,1-3,2.64-3s2.64,1.12,2.64,3-1,3-2.64,3S469.4,163,469.4,161.15Zm4.33,0c0-1.36-.61-2.14-1.69-2.14s-1.7.78-1.7,2.14.61,2.14,1.7,2.14S473.73,162.51,473.73,161.15Z"/><path class="h" d="M476.11,158.29H477v.9h.09a1.62,1.62,0,0,1,1.6-1,1.66,1.66,0,0,1,1.58,1h.08a1.93,1.93,0,0,1,1.76-1,1.67,1.67,0,0,1,1.82,1.87v4H483v-3.75c0-.84-.39-1.26-1.2-1.26a1.29,1.29,0,0,0-1.33,1.33V164h-.91v-3.89a1.09,1.09,0,0,0-1.2-1.12,1.38,1.38,0,0,0-1.32,1.46V164h-.92Z"/><path class="h" d="M485.24,162.41c0-1,.75-1.61,2.08-1.69l1.66-.1v-.52c0-.71-.44-1.1-1.3-1.1-.68,0-1.16.26-1.29.71h-.92c.12-.91,1-1.52,2.24-1.52,1.4,0,2.18.72,2.18,1.91V164H489v-.85h-.09a2,2,0,0,1-1.76,1A1.74,1.74,0,0,1,485.24,162.41Zm3.74-.53v-.52l-1.54.1c-.88,0-1.26.36-1.26.93s.5.92,1.16.92A1.51,1.51,0,0,0,489,161.88Z"/><path class="h" d="M491.42,156.55a.64.64,0,0,1,.64-.64.64.64,0,0,1,0,1.28A.64.64,0,0,1,491.42,156.55Zm.18,1.74h.91V164h-.91Z"/><path class="h" d="M494.26,158.29h.87v.9h.08a1.73,1.73,0,0,1,1.72-1,1.86,1.86,0,0,1,2,2.12V164H498v-3.49c0-1-.44-1.52-1.35-1.52a1.45,1.45,0,0,0-1.5,1.62V164h-.91Z"/><path class="g" d="M159.13,211.54a2.41,2.41,0,0,0,4.82,0v-7.28h2.4v7.53c0,2.55-1.87,4.26-4.81,4.26s-4.81-1.71-4.81-4.26v-7.53h2.4Z"/><path class="g" d="M172.36,206.78c2.23,0,3.55.93,3.68,2.61h-2.15c-.12-.56-.65-.91-1.51-.91s-1.44.37-1.44.93.37.69,1.18.87l1.65.36c1.71.38,2.47,1.09,2.47,2.41,0,1.75-1.57,2.9-3.87,2.9s-3.72-.95-3.88-2.64h2.26c.18.6.75.94,1.67.94s1.52-.37,1.52-.94-.33-.69-1.11-.86l-1.59-.36c-1.7-.37-2.53-1.18-2.53-2.54C168.71,207.89,170.17,206.78,172.36,206.78Z"/><path class="g" d="M186,213.26c-.35,1.64-1.87,2.69-4,2.69-2.67,0-4.25-1.69-4.25-4.54s1.61-4.63,4.22-4.63,4.12,1.65,4.12,4.44v.71h-6V212a2,2,0,0,0,2,2.12,1.77,1.77,0,0,0,1.79-.9Zm-6-2.82h3.74a1.77,1.77,0,0,0-1.83-1.88A1.87,1.87,0,0,0,180,210.44Z"/><path class="g" d="M188,207h2.24v1.4h.15a2.25,2.25,0,0,1,2.25-1.54,3.33,3.33,0,0,1,.91.11v2.11a4.41,4.41,0,0,0-1.1-.14,1.94,1.94,0,0,0-2.14,2v4.87H188Z"/><path class="g" d="M195.13,207h2.25v1.41h.14a2.61,2.61,0,0,1,2.6-1.6c1.95,0,3,1.2,3,3.3v5.68h-2.31v-5.13c0-1.21-.52-1.85-1.62-1.85a1.71,1.71,0,0,0-1.74,1.91v5.07h-2.32Z"/><path class="g" d="M204.9,213.25c0-1.6,1.22-2.52,3.4-2.65l2.13-.12v-.72c0-.73-.53-1.15-1.48-1.15s-1.4.29-1.59.81h-2.13c.15-1.62,1.64-2.64,3.85-2.64s3.64,1.1,3.64,3v6h-2.25v-1.15h-.14a2.84,2.84,0,0,1-2.55,1.28A2.62,2.62,0,0,1,204.9,213.25Zm5.53-.68v-.64l-1.78.11c-1,.07-1.48.43-1.48,1.06s.57,1.05,1.37,1.05A1.72,1.72,0,0,0,210.43,212.57Z"/><path class="g" d="M215,207h2.24v1.44h.15a2.45,2.45,0,0,1,2.43-1.63,2.37,2.37,0,0,1,2.42,1.63h.15a2.77,2.77,0,0,1,2.64-1.63,2.7,2.7,0,0,1,2.85,2.95v6h-2.32v-5.42q0-1.56-1.47-1.56a1.49,1.49,0,0,0-1.54,1.6v5.38h-2.23v-5.51a1.33,1.33,0,0,0-1.45-1.47,1.57,1.57,0,0,0-1.56,1.69v5.29H215Z"/><path class="g" d="M238,213.26c-.34,1.64-1.86,2.69-4,2.69-2.68,0-4.25-1.69-4.25-4.54s1.6-4.63,4.22-4.63,4.12,1.65,4.12,4.44v.71h-6V212a1.94,1.94,0,0,0,2,2.12,1.76,1.76,0,0,0,1.79-.9Zm-6-2.82h3.75a1.77,1.77,0,0,0-1.83-1.88A1.88,1.88,0,0,0,232,210.44Z"/><path class="g" d="M470.37,204.26c3.41,0,5.39,2.07,5.39,5.67s-1.95,5.83-5.39,5.83h-4.53v-11.5Zm-2.12,9.44H470c2.13,0,3.33-1.3,3.33-3.73s-1.24-3.65-3.33-3.65h-1.73Z"/><path class="g" d="M477.38,211.36c0-2.84,1.65-4.58,4.32-4.58s4.33,1.73,4.33,4.58S484.4,216,481.7,216,477.38,214.24,477.38,211.36Zm6.27,0c0-1.69-.72-2.68-1.95-2.68s-1.94,1-1.94,2.68.7,2.69,1.94,2.69S483.65,213.06,483.65,211.36Z"/><path class="g" d="M487.92,207h2.25v1.44h.14a2.46,2.46,0,0,1,2.43-1.63,2.38,2.38,0,0,1,2.43,1.63h.14a2.78,2.78,0,0,1,2.65-1.63,2.69,2.69,0,0,1,2.84,2.95v6h-2.32v-5.42q0-1.56-1.47-1.56a1.5,1.5,0,0,0-1.54,1.6v5.38h-2.23v-5.51a1.33,1.33,0,0,0-1.45-1.47,1.56,1.56,0,0,0-1.55,1.69v5.29h-2.32Z"/><path class="g" d="M502.58,213.25c0-1.6,1.22-2.52,3.4-2.65l2.13-.12v-.72c0-.73-.53-1.15-1.49-1.15s-1.39.29-1.58.81h-2.13c.15-1.62,1.64-2.64,3.84-2.64s3.64,1.1,3.64,3v6h-2.24v-1.15H508a2.83,2.83,0,0,1-2.55,1.28A2.62,2.62,0,0,1,502.58,213.25Zm5.53-.68v-.64l-1.78.11c-1,.07-1.48.43-1.48,1.06s.56,1.05,1.37,1.05A1.73,1.73,0,0,0,508.11,212.57Z"/><path class="g" d="M512.54,204.33a1.32,1.32,0,1,1,1.31,1.33A1.32,1.32,0,0,1,512.54,204.33Zm.15,2.64H515v8.79h-2.32Z"/><path class="g" d="M517.35,207h2.25v1.41h.14a2.61,2.61,0,0,1,2.6-1.6c1.95,0,3,1.2,3,3.3v5.68H523v-5.13c0-1.21-.52-1.85-1.62-1.85a1.71,1.71,0,0,0-1.73,1.91v5.07h-2.32Z"/><path class="g" d="M532,215.76v-11.5h2l5.29,7.16h.14v-7.16h2.31v11.5h-2l-5.3-7.2h-.14v7.2Z"/><path class="g" d="M543.86,213.25c0-1.6,1.21-2.52,3.4-2.65l2.12-.12v-.72c0-.73-.52-1.15-1.48-1.15s-1.39.29-1.58.81h-2.14c.15-1.62,1.64-2.64,3.85-2.64s3.64,1.1,3.64,3v6h-2.25v-1.15h-.14a2.83,2.83,0,0,1-2.55,1.28A2.61,2.61,0,0,1,543.86,213.25Zm5.52-.68v-.64l-1.77.11c-1,.07-1.49.43-1.49,1.06s.57,1.05,1.38,1.05A1.72,1.72,0,0,0,549.38,212.57Z"/><path class="g" d="M554,207h2.25v1.44h.14a2.46,2.46,0,0,1,2.43-1.63,2.38,2.38,0,0,1,2.43,1.63h.14a2.78,2.78,0,0,1,2.65-1.63,2.69,2.69,0,0,1,2.84,2.95v6h-2.32v-5.42c0-1-.48-1.56-1.46-1.56a1.5,1.5,0,0,0-1.55,1.6v5.38h-2.23v-5.51a1.33,1.33,0,0,0-1.45-1.47,1.56,1.56,0,0,0-1.55,1.69v5.29H554Z"/><path class="g" d="M576.92,213.26c-.35,1.64-1.87,2.69-4,2.69-2.67,0-4.25-1.69-4.25-4.54s1.61-4.63,4.22-4.63,4.12,1.65,4.12,4.44v.71h-6V212a1.94,1.94,0,0,0,2,2.12,1.77,1.77,0,0,0,1.79-.9ZM571,210.44h3.74a1.77,1.77,0,0,0-1.83-1.88A1.87,1.87,0,0,0,571,210.44Z"/></svg>