<svg xmlns="http://www.w3.org/2000/svg" xmlns:xlink="http://www.w3.org/1999/xlink" viewBox="0 0 900 300"><defs><style>.a{fill:#eae9e9;}.a,.v,.w{stroke:#d6d5d5;}.a,.b,.c,.d,.e,.f,.g,.i,.j,.n,.o,.p,.q,.u,.v,.w{stroke-miterlimit:10;}.a,.n,.p{stroke-width:0.75px;}.b{fill:#ed2627;}.b,.c,.d,.p{stroke:#fff;}.b,.c,.d,.f,.g,.w{stroke-width:0.5px;}.c,.q,.z{fill:#fec75e;}.d,.o,.y{fill:#5abd80;}.e,.x{fill:#72cee7;}.e{stroke:#e9f6fc;}.e,.o,.q,.u,.v{stroke-width:0.8px;}.f,.i,.k,.m,.v{fill:#fff;}.f,.g{stroke:#f1e5ce;}.g,.p,.w{fill:none;}.h,.n{fill:#f1e5ce;}.i,.j{stroke:#00a4ff;stroke-width:0.25px;}.j{fill:#00a4ff;}.l{fill:#4b4b4b;}.m{opacity:0.12;}.n{stroke:#fef6ea;}.o{stroke:#e8f4ee;}.q{stroke:#fff7e8;}.r{fill:#ff9840;}.s{fill:#ffa940;}.t{fill:#ffb740;}.aa,.u{fill:#7e73ff;}.u{stroke:#eceaff;}.ab{fill:#e9f6fc;}.ac{fill:#e8f4ee;}.ad{fill:#fff7e8;}.ae{fill:#eceaff;}</style><symbol id="b" viewBox="0 0 180.96 194.59"><rect class="a" x="0.38" y="0.37" width="180.21" height="193.84" rx="3"/><circle class="b" cx="5.93" cy="6.41" r="1.69"/><circle class="c" cx="11.05" cy="6.41" r="1.69"/><circle class="d" cx="16.18" cy="6.41" r="1.69"/></symbol><symbol id="a" viewBox="0 0 174.63 187.78"><use width="180.96" height="194.59" transform="scale(0.96)" xlink:href="#b"/><rect class="e" x="8.81" y="26.82" width="157.01" height="151.57"/><rect class="f" x="8.81" y="14.99" width="157.01" height="7.31"/><path class="g" d="M162.92,18.58a1.78,1.78,0,0,1-.08,1,1.75,1.75,0,1,1-2.24-2.26"/><polygon class="h" points="160.82 18.06 161.44 16.92 160.19 16.59 160.82 18.06"/><rect class="i" x="32.68" y="90.09" width="73.19" height="12.51" rx="1"/><rect class="j" x="108.3" y="90.46" width="28.81" height="12.15" rx="1"/><path class="k" d="M44.89,77.27c0,3.83-2.15,6.24-5.62,6.24s-5.63-2.4-5.63-6.24S35.82,71,39.27,71,44.89,73.43,44.89,77.27Zm-9.07,0c0,2.65,1.31,4.36,3.45,4.36s3.46-1.71,3.46-4.36-1.35-4.35-3.46-4.35S35.82,74.61,35.82,77.27Z"/><path class="k" d="M47.11,74.2h2v1.44h.14A2.7,2.7,0,0,1,51.9,74c2,0,3.1,1.21,3.1,3.36v5.84H53V77.87c0-1.38-.58-2.07-1.82-2.07a1.94,1.94,0,0,0-2,2.17v5.25h-2Z"/><path class="k" d="M57.51,70.72h2v12.5h-2Z"/><path class="k" d="M62,71.48a1.22,1.22,0,1,1,1.22,1.23A1.23,1.23,0,0,1,62,71.48Zm.2,2.72h2v9h-2Z"/><path class="k" d="M66.72,74.2h2v1.44h.14A2.7,2.7,0,0,1,71.51,74c2,0,3.1,1.21,3.1,3.36v5.84h-2V77.87c0-1.38-.58-2.07-1.82-2.07a1.94,1.94,0,0,0-2,2.17v5.25h-2Z"/><path class="k" d="M84.85,80.74c-.37,1.64-1.88,2.66-4,2.66-2.65,0-4.25-1.76-4.25-4.66S78.21,74,80.83,74s4.11,1.71,4.11,4.55v.66h-6.3v.11a2.23,2.23,0,0,0,2.26,2.43,2,2,0,0,0,2-1Zm-6.2-2.9h4.24a2,2,0,0,0-2.07-2.2A2.16,2.16,0,0,0,78.65,77.84Z"/><path class="k" d="M94.89,74c2.14,0,3.49,1,3.63,2.59H96.6c-.14-.64-.74-1-1.7-1s-1.63.45-1.63,1.1.43.82,1.33,1l1.59.36c1.73.39,2.52,1.13,2.52,2.45,0,1.73-1.59,2.89-3.84,2.89s-3.66-1-3.82-2.61h2c.2.66.83,1.06,1.85,1.06s1.75-.45,1.75-1.12c0-.51-.39-.83-1.24-1l-1.6-.37c-1.73-.4-2.55-1.2-2.55-2.56C91.28,75.15,92.77,74,94.89,74Z"/><path class="k" d="M100.34,78.71c0-2.91,1.65-4.69,4.33-4.69S109,75.79,109,78.71s-1.64,4.69-4.34,4.69S100.34,81.63,100.34,78.71Zm6.56,0c0-1.88-.81-3-2.23-3s-2.24,1.09-2.24,3,.82,3,2.24,3S106.9,80.6,106.9,78.71Z"/><path class="k" d="M110.62,78.71c0-2.91,1.66-4.69,4.34-4.69s4.33,1.77,4.33,4.69S117.65,83.4,115,83.4,110.62,81.63,110.62,78.71Zm6.57,0c0-1.88-.82-3-2.23-3s-2.25,1.09-2.25,3,.82,3,2.25,3S117.19,80.6,117.19,78.71Z"/><path class="k" d="M121.35,74.2h2v1.44h.14A2.7,2.7,0,0,1,126.14,74c2,0,3.1,1.21,3.1,3.36v5.84h-2V77.87c0-1.38-.58-2.07-1.82-2.07a1.94,1.94,0,0,0-2,2.17v5.25h-2Z"/><path class="k" d="M131.91,82.12a1.37,1.37,0,1,1,1.37,1.31A1.26,1.26,0,0,1,131.91,82.12Zm2.51-10.8-.19,8h-1.91l-.18-8Z"/><path class="k" d="M112.73,97.75c0,.22.24.36.55.36s.49-.14.49-.34-.13-.27-.46-.34l-.34-.07q-.72-.15-.72-.75c0-.5.4-.83,1-.83s1,.33,1,.8h-.52a.43.43,0,0,0-.48-.35c-.28,0-.46.13-.46.33s.12.25.43.32l.32.07c.53.11.76.34.76.75s-.41.86-1.07.86-1-.31-1.06-.81Z"/><path class="k" d="M115.39,97.52a.56.56,0,0,0,1.11,0V95.85h.55v1.73a1.12,1.12,0,0,1-2.22,0V95.85h.56Z"/><path class="k" d="M117.68,98.49V95.85h1.16c.51,0,.82.25.82.66a.57.57,0,0,1-.48.56v0a.63.63,0,0,1,.6.63c0,.47-.35.76-.91.76Zm.55-1.55h.42c.3,0,.46-.12.46-.33s-.15-.34-.41-.34h-.47Zm.5,1.13c.32,0,.49-.14.49-.38s-.18-.37-.51-.37h-.48v.75Z"/><path class="k" d="M120.69,97.75c0,.22.24.36.55.36s.49-.14.49-.34-.13-.27-.45-.34l-.35-.07c-.48-.1-.71-.35-.71-.75s.4-.83,1-.83a.9.9,0,0,1,1,.8h-.52a.45.45,0,0,0-.49-.35c-.28,0-.46.13-.46.33s.13.25.44.32l.32.07c.53.11.76.34.76.75s-.41.86-1.08.86-1-.31-1-.81Z"/><path class="k" d="M122.69,97.17a1.22,1.22,0,0,1,1.24-1.39,1.09,1.09,0,0,1,1.14,1h-.54a.59.59,0,0,0-.6-.5c-.42,0-.68.34-.68.9s.26.9.68.9a.6.6,0,0,0,.61-.48h.53a1.07,1.07,0,0,1-1.14,1A1.22,1.22,0,0,1,122.69,97.17Z"/><path class="k" d="M126.13,98.49h-.55V95.85h1.11a.82.82,0,0,1,.93.85.79.79,0,0,1-.48.75l.56,1h-.63l-.49-1h-.45Zm0-1.38h.48a.4.4,0,0,0,.45-.41.41.41,0,0,0-.45-.41h-.48Z"/><path class="k" d="M128.17,98.49V95.85h.56v2.64Z"/><path class="k" d="M129.37,98.49V95.85h1.15c.51,0,.82.25.82.66a.57.57,0,0,1-.48.56v0a.64.64,0,0,1,.61.63c0,.47-.35.76-.92.76Zm.55-1.55h.41c.3,0,.47-.12.47-.33s-.16-.34-.42-.34h-.46Zm.49,1.13c.32,0,.49-.14.49-.38s-.18-.37-.5-.37h-.48v.75Z"/><path class="k" d="M133.71,98.49H132V95.85h1.75v.47h-1.2v.62h1.13v.43h-1.13V98h1.2Z"/><path class="k" d="M127.13,140.11a5.07,5.07,0,0,0-5.08-5.08l-.41,0a6.41,6.41,0,0,0-11-1.76,2.61,2.61,0,0,0-4,1.69h-.05A5.13,5.13,0,0,0,106,145.2l16.48,0A5.08,5.08,0,0,0,127.13,140.11Z"/><path class="k" d="M164.6,133.62a8.14,8.14,0,0,0-8.14,8.14c0,.19,0,.37,0,.55a6.44,6.44,0,0,0-11,4.54,6.75,6.75,0,0,0,.19,1.57,11.17,11.17,0,0,0-13.92,8.43,6.32,6.32,0,0,0-12.15,1.74,10.88,10.88,0,0,0-15.82,3.71,12,12,0,0,0-20.18-.39,8.8,8.8,0,0,0-3.23-.61,7.35,7.35,0,0,0-6.26,3,18.84,18.84,0,0,0-9-2.12,17.8,17.8,0,0,0-10.39,3,6,6,0,0,0-11.89-1.07,6,6,0,0,0-4.55-1.92H38c-1.46-6.94-8.87-12.24-17.83-12.29a7.76,7.76,0,0,0-.66-1.5,7.61,7.61,0,0,0,1-3.8,7.73,7.73,0,0,0-7.73-7.73A7.64,7.64,0,0,0,8.81,138V178.2h106.5a10.07,10.07,0,0,0,1.46-.37c.08.13.19.25.28.37h37a3.61,3.61,0,0,0,.23-.36l.19.36h11.31V133.72A8.25,8.25,0,0,0,164.6,133.62ZM30.43,176.83l.26-.16C31.49,176.54,30.83,176.79,30.43,176.83Z"/><path class="k" d="M53.39,132.11a3,3,0,0,0-3-3h-.25a3.78,3.78,0,0,0-6.49-1,1.59,1.59,0,0,0-.84-.24,1.52,1.52,0,0,0-1.5,1.24h0a3,3,0,0,0-.35,6l9.73,0A3,3,0,0,0,53.39,132.11Z"/><path class="l" d="M14.54,19v1.1h-.23V17.31h.23v1.23a.75.75,0,0,1,.23-.24.69.69,0,0,1,.36-.09.6.6,0,0,1,.49.2.68.68,0,0,1,.16.48v1.2h-.23V18.93a.52.52,0,0,0-.12-.36.48.48,0,0,0-.38-.15.45.45,0,0,0-.37.17A.61.61,0,0,0,14.54,19Z"/><path class="l" d="M16.74,17.67v.58h.48v.22h-.48v1.1c0,.23.11.34.31.34a.4.4,0,0,0,.17,0v.2a.63.63,0,0,1-.23,0,.45.45,0,0,1-.35-.13.52.52,0,0,1-.13-.38V18.47h-.39v-.22h.14a.24.24,0,0,0,.27-.27v-.31Z"/><path class="l" d="M18.06,17.67v.58h.48v.22h-.48v1.1c0,.23.11.34.31.34a.4.4,0,0,0,.17,0v.2a.63.63,0,0,1-.23,0A.45.45,0,0,1,18,20a.52.52,0,0,1-.13-.38V18.47h-.39v-.22h.14a.24.24,0,0,0,.27-.27v-.31Z"/><path class="l" d="M19.24,20.83H19V18.25h.23v.37a.7.7,0,0,1,.67-.41.75.75,0,0,1,.61.28,1.18,1.18,0,0,1,0,1.37.77.77,0,0,1-.62.28.69.69,0,0,1-.43-.13.71.71,0,0,1-.23-.26Zm1.09-1.11a.84.84,0,0,0,.17-.55.8.8,0,0,0-.17-.54.57.57,0,0,0-.46-.21.56.56,0,0,0-.46.21.83.83,0,0,0-.17.54.81.81,0,0,0,.17.55.57.57,0,0,0,.46.22A.58.58,0,0,0,20.33,19.72Z"/><path class="l" d="M21.06,19.6l.21-.07a.44.44,0,0,0,.16.3.48.48,0,0,0,.35.11.44.44,0,0,0,.29-.09.28.28,0,0,0,.12-.23c0-.17-.11-.27-.31-.32l-.31-.07c-.3-.07-.45-.23-.45-.49a.47.47,0,0,1,.19-.38.67.67,0,0,1,.43-.16.72.72,0,0,1,.48.17.6.6,0,0,1,.18.32l-.2.08a.47.47,0,0,0-.13-.25.48.48,0,0,0-.33-.12.42.42,0,0,0-.27.09.29.29,0,0,0-.12.24c0,.15.09.25.28.29l.31.07q.48.11.48.51a.48.48,0,0,1-.17.37.64.64,0,0,1-.48.17.72.72,0,0,1-.51-.17A.59.59,0,0,1,21.06,19.6Z"/><path class="l" d="M23.1,18.64a.25.25,0,0,1-.15-.05.2.2,0,0,1-.06-.15A.18.18,0,0,1,23,18.3a.2.2,0,0,1,.15-.06.2.2,0,0,1,.14.06.18.18,0,0,1,.06.14.2.2,0,0,1-.06.15A.24.24,0,0,1,23.1,18.64Zm.14,1.41a.18.18,0,0,1-.14.06.17.17,0,0,1-.14-.06.18.18,0,0,1-.06-.14.2.2,0,0,1,.06-.15.16.16,0,0,1,.14-.05.17.17,0,0,1,.14.05.2.2,0,0,1,.06.15A.18.18,0,0,1,23.24,20.05Z"/><path class="l" d="M25.19,17.36l-1.32,2.73h-.23L25,17.36Z"/><path class="l" d="M26.62,17.36,25.3,20.09h-.23l1.33-2.73Z"/><path class="l" d="M27.89,18.25h.25l.55,1.56.49-1.56h.24l-.61,1.84h-.25L28,18.54l-.55,1.55h-.25l-.61-1.84h.25l.5,1.56Z"/><path class="l" d="M30.86,18.25h.24l.55,1.56.49-1.56h.25l-.61,1.84h-.25L31,18.54l-.54,1.55h-.26l-.61-1.84h.26l.49,1.56Z"/><path class="l" d="M33.82,18.25h.25l.55,1.56.49-1.56h.24l-.61,1.84h-.25l-.55-1.55-.55,1.55h-.25l-.62-1.84h.26l.49,1.56Z"/><path class="l" d="M35.7,20.11a.21.21,0,0,1-.2-.2.2.2,0,0,1,.06-.15.17.17,0,0,1,.14-.05.2.2,0,0,1,.15.05.2.2,0,0,1,.06.15.18.18,0,0,1-.06.14A.2.2,0,0,1,35.7,20.11Z"/><path class="l" d="M36.32,19.6l.21-.07a.48.48,0,0,0,.15.3.51.51,0,0,0,.35.11.49.49,0,0,0,.3-.09.28.28,0,0,0,.12-.23c0-.17-.11-.27-.32-.32l-.3-.07c-.3-.07-.45-.23-.45-.49a.47.47,0,0,1,.19-.38.7.7,0,0,1,.9,0,.61.61,0,0,1,.19.32l-.21.08a.45.45,0,0,0-.12-.25A.48.48,0,0,0,37,18.4a.4.4,0,0,0-.27.09.29.29,0,0,0-.12.24c0,.15.09.25.28.29l.31.07c.31.07.47.24.47.51a.47.47,0,0,1-.16.37.64.64,0,0,1-.48.17.69.69,0,0,1-.51-.17A.59.59,0,0,1,36.32,19.6Z"/><path class="l" d="M39.41,19.81a.56.56,0,0,1-.22.24.69.69,0,0,1-.36.09.61.61,0,0,1-.51-.22.73.73,0,0,1-.17-.51V18.25h.23v1.13a.67.67,0,0,0,.11.39.46.46,0,0,0,.38.17.51.51,0,0,0,.39-.17.53.53,0,0,0,.14-.39V18.25h.23v1.49a3.49,3.49,0,0,0,0,.35h-.22a1.21,1.21,0,0,1,0-.25Z"/><path class="l" d="M40.5,20.83h-.23V18.25h.23v.37a.7.7,0,0,1,.67-.41.75.75,0,0,1,.61.28,1.18,1.18,0,0,1,0,1.37.77.77,0,0,1-.62.28.69.69,0,0,1-.43-.13.71.71,0,0,1-.23-.26Zm1.09-1.11a.85.85,0,0,0,.18-.55.8.8,0,0,0-.18-.54.61.61,0,0,0-.92,0,.83.83,0,0,0-.17.54.81.81,0,0,0,.17.55.57.57,0,0,0,.46.22A.58.58,0,0,0,41.59,19.72Z"/><path class="l" d="M43.83,19.5l.21.07a.77.77,0,0,1-.28.4.8.8,0,0,1-.53.17.85.85,0,0,1-.63-.25,1.12,1.12,0,0,1,0-1.42.77.77,0,0,1,.6-.27.8.8,0,0,1,.63.27.92.92,0,0,1,.23.66.34.34,0,0,1,0,.09H42.58a.73.73,0,0,0,.19.52.6.6,0,0,0,.46.19.59.59,0,0,0,.6-.44ZM42.58,19h1.23a.67.67,0,0,0-.17-.44.62.62,0,0,0-.87,0A.74.74,0,0,0,42.58,19Z"/><path class="l" d="M45.48,18.25v.24l-.16,0a.54.54,0,0,0-.4.16.64.64,0,0,0-.15.46v1h-.23V18.25h.23v.35a.57.57,0,0,1,.57-.37Z"/><path class="l" d="M45.93,20a.47.47,0,0,1-.16-.36c0-.3.19-.48.56-.54l.49-.08c.13,0,.19-.08.19-.18a.39.39,0,0,0-.12-.3.45.45,0,0,0-.34-.12.52.52,0,0,0-.36.12.44.44,0,0,0-.15.32l-.23-.05a.63.63,0,0,1,.24-.43.8.8,0,0,1,.49-.16.69.69,0,0,1,.53.19.6.6,0,0,1,.17.45v.94a1.55,1.55,0,0,0,0,.31H47a1.85,1.85,0,0,1,0-.31.59.59,0,0,1-.23.24.71.71,0,0,1-.41.12A.64.64,0,0,1,45.93,20Zm.08-.37a.3.3,0,0,0,.11.23.38.38,0,0,0,.29.1.59.59,0,0,0,.43-.16.55.55,0,0,0,.17-.44v-.22a.19.19,0,0,1-.1,0l-.14,0-.41.06C46.13,19.29,46,19.41,46,19.61Z"/><path class="l" d="M48.07,20.83h-.22V18.25h.22v.37a.81.81,0,0,1,.23-.28.81.81,0,0,1,1.05.15,1.18,1.18,0,0,1,0,1.37.76.76,0,0,1-.62.28.73.73,0,0,1-.66-.39Zm1.1-1.11a.9.9,0,0,0,.17-.55.85.85,0,0,0-.17-.54.59.59,0,0,0-.47-.21.57.57,0,0,0-.46.21.89.89,0,0,0-.17.54.86.86,0,0,0,.17.55.58.58,0,0,0,.46.22A.6.6,0,0,0,49.17,19.72Z"/><path class="l" d="M50.29,20.83h-.23V18.25h.23v.37a.81.81,0,0,1,.23-.28.81.81,0,0,1,1,.15,1.18,1.18,0,0,1,0,1.37.76.76,0,0,1-.62.28.73.73,0,0,1-.66-.39Zm1.09-1.11a.85.85,0,0,0,.18-.55.8.8,0,0,0-.18-.54.56.56,0,0,0-.46-.21.57.57,0,0,0-.46.21.89.89,0,0,0-.17.54.86.86,0,0,0,.17.55.58.58,0,0,0,.46.22A.57.57,0,0,0,51.38,19.72Z"/><path class="l" d="M52.34,20.11a.17.17,0,0,1-.14-.06.18.18,0,0,1-.06-.14.2.2,0,0,1,.06-.15.22.22,0,0,1,.28,0,.2.2,0,0,1,.06.15.18.18,0,0,1-.06.14A.17.17,0,0,1,52.34,20.11Z"/><path class="l" d="M54.2,18.56a.56.56,0,0,0-.4-.14.57.57,0,0,0-.47.2.76.76,0,0,0-.2.56.73.73,0,0,0,.2.55.6.6,0,0,0,.47.2.64.64,0,0,0,.41-.14.77.77,0,0,0,.19-.31l.2.09a.82.82,0,0,1-.8.57.85.85,0,0,1-.65-.27,1,1,0,0,1-.26-.69,1,1,0,0,1,.26-.71.86.86,0,0,1,.65-.27.81.81,0,0,1,.53.18.76.76,0,0,1,.25.4l-.2.09A.73.73,0,0,0,54.2,18.56Z"/><path class="l" d="M55.15,18.47a.85.85,0,0,1,.64-.27.88.88,0,0,1,.65.27,1.09,1.09,0,0,1,0,1.41.91.91,0,0,1-.65.26.86.86,0,0,1-.63-.26,1,1,0,0,1-.27-.7A1,1,0,0,1,55.15,18.47Zm.18,1.27a.64.64,0,0,0,.93,0,.77.77,0,0,0,.2-.56.8.8,0,0,0-.2-.57.61.61,0,0,0-.47-.19.59.59,0,0,0-.46.19.8.8,0,0,0-.21.57A.78.78,0,0,0,55.33,19.74Z"/><path class="l" d="M57.42,20.09h-.23V18.25h.23v.31a.53.53,0,0,1,.22-.25.63.63,0,0,1,.36-.1.56.56,0,0,1,.37.11.47.47,0,0,1,.21.3.65.65,0,0,1,.64-.41.6.6,0,0,1,.45.17.71.71,0,0,1,.18.5v1.21h-.23V18.91a.52.52,0,0,0-.12-.36.45.45,0,0,0-.35-.14.51.51,0,0,0-.37.16.56.56,0,0,0-.14.4v1.12h-.23V18.91a.48.48,0,0,0-.13-.36.44.44,0,0,0-.35-.14.52.52,0,0,0-.37.16.61.61,0,0,0-.14.4Z"/><path class="l" d="M36.78,97.76l.51-.18a.62.62,0,0,0,.2.39.72.72,0,0,0,.47.15.57.57,0,0,0,.36-.11.35.35,0,0,0,.13-.27c0-.2-.12-.32-.37-.38l-.49-.1a1,1,0,0,1-.53-.29.76.76,0,0,1-.19-.52.85.85,0,0,1,.3-.65,1.08,1.08,0,0,1,.73-.27,1.3,1.3,0,0,1,.49.09.78.78,0,0,1,.33.21,1.49,1.49,0,0,1,.18.24,1.17,1.17,0,0,1,.09.24l-.49.18a1.21,1.21,0,0,0,0-.14l-.09-.15a.44.44,0,0,0-.18-.14.82.82,0,0,0-.28,0,.51.51,0,0,0-.35.12.32.32,0,0,0-.13.27c0,.18.11.3.33.35l.46.1a1.08,1.08,0,0,1,.6.31.81.81,0,0,1,.2.55.83.83,0,0,1-.28.61,1,1,0,0,1-.77.28,1.21,1.21,0,0,1-.84-.27A.94.94,0,0,1,36.78,97.76Z"/><path class="l" d="M41.76,97.52l.49.17a1.28,1.28,0,0,1-.47.65,1.37,1.37,0,0,1-.83.26,1.41,1.41,0,0,1-1-.42,1.49,1.49,0,0,1-.42-1.12A1.48,1.48,0,0,1,39.91,96a1.28,1.28,0,0,1,1-.44,1.33,1.33,0,0,1,1,.41,1.65,1.65,0,0,1,.37,1.11.9.9,0,0,1,0,.18H40.08a.86.86,0,0,0,.26.63.84.84,0,0,0,.61.24A.78.78,0,0,0,41.76,97.52Zm-1.66-.75h1.58a.76.76,0,0,0-.22-.53.78.78,0,0,0-.58-.21.74.74,0,0,0-.55.22A.8.8,0,0,0,40.1,96.77Z"/><path class="l" d="M43.54,98.51H43V94.17h.56V96a.9.9,0,0,1,.37-.35,1.33,1.33,0,0,1,1.57.29,1.87,1.87,0,0,1,0,2.18,1.21,1.21,0,0,1-1,.44,1,1,0,0,1-.94-.5ZM45,97.8a1.3,1.3,0,0,0,0-1.49.8.8,0,0,0-.63-.27.78.78,0,0,0-.61.27,1.1,1.1,0,0,0-.24.74,1.13,1.13,0,0,0,.24.75.82.82,0,0,0,1.23,0Z"/><path class="l" d="M49.67,97.69a.71.71,0,0,1-.39-.1.49.49,0,0,1-.21-.29.82.82,0,0,1-.71.4.84.84,0,0,1-.66-.28,1.09,1.09,0,0,1-.26-.75,1.44,1.44,0,0,1,.36-1,1.06,1.06,0,0,1,.84-.4.82.82,0,0,1,.4.1.49.49,0,0,1,.24.29l.06-.32h.47l-.32,1.51a1.11,1.11,0,0,0,0,.17.21.21,0,0,0,.23.24c.17,0,.32-.11.45-.34a1.61,1.61,0,0,0,.2-.8A1.41,1.41,0,0,0,49.88,95a1.7,1.7,0,0,0-1.21-.44,1.76,1.76,0,0,0-1.32.53,1.91,1.91,0,0,0-.53,1.39,1.83,1.83,0,0,0,.52,1.32,1.87,1.87,0,0,0,1.39.51A1.91,1.91,0,0,0,50,97.93l.25.33a1.81,1.81,0,0,1-.67.38,2.32,2.32,0,0,1-.81.15A2.44,2.44,0,0,1,47,98.16a2.18,2.18,0,0,1-.67-1.65,2.29,2.29,0,0,1,2.33-2.34,2.16,2.16,0,0,1,1.53.56,1.95,1.95,0,0,1,.29,2.51A1,1,0,0,1,49.67,97.69Zm-.52-1.4a.6.6,0,0,0-.13-.42.46.46,0,0,0-.37-.14.59.59,0,0,0-.51.26,1,1,0,0,0-.21.62c0,.43.17.65.51.65A.6.6,0,0,0,49,97,1.26,1.26,0,0,0,49.15,96.29Z"/><path class="l" d="M52.06,98.51H51.5V94.17h.56Z"/><path class="l" d="M55.05,97.52l.49.17a1.28,1.28,0,0,1-.47.65,1.37,1.37,0,0,1-.83.26,1.41,1.41,0,0,1-1-.42,1.49,1.49,0,0,1-.42-1.12A1.48,1.48,0,0,1,53.2,96a1.28,1.28,0,0,1,1-.44,1.33,1.33,0,0,1,1,.41,1.65,1.65,0,0,1,.36,1.11,1,1,0,0,1,0,.18H53.37a.86.86,0,0,0,.26.63.84.84,0,0,0,.61.24A.78.78,0,0,0,55.05,97.52Zm-1.66-.75H55a.76.76,0,0,0-.22-.53.78.78,0,0,0-.58-.21.74.74,0,0,0-.55.22A.8.8,0,0,0,53.39,96.77Z"/><path class="l" d="M57.87,95.62h.58l.75,2.18.64-2.18h.59l-.93,2.89h-.59l-.76-2.2-.75,2.2h-.6l-.95-2.89h.62l.65,2.18Z"/><path class="l" d="M60.79,97.74a.78.78,0,0,1,.24-.6,1.15,1.15,0,0,1,.64-.28l.78-.11c.15,0,.22-.1.22-.22a.46.46,0,0,0-.16-.37.64.64,0,0,0-.46-.15.66.66,0,0,0-.46.16.69.69,0,0,0-.2.43l-.54-.13a.94.94,0,0,1,.38-.67,1.42,1.42,0,0,1,1.71,0,1,1,0,0,1,.29.76V98a3.3,3.3,0,0,0,0,.47h-.55a2.38,2.38,0,0,1,0-.39,1.14,1.14,0,0,1-.35.34,1.16,1.16,0,0,1-.58.14,1,1,0,0,1-.7-.26A.8.8,0,0,1,60.79,97.74Zm1.05.39a.84.84,0,0,0,.6-.21.83.83,0,0,0,.23-.65v-.13l-.88.13a.59.59,0,0,0-.31.14.41.41,0,0,0-.11.3.37.37,0,0,0,.13.29A.48.48,0,0,0,61.84,98.13Z"/><path class="l" d="M63.9,98.67l.55-.13a.81.81,0,0,0,.24.51.8.8,0,0,0,.54.2c.59,0,.88-.31.88-.94V97.9a.83.83,0,0,1-.33.34,1.09,1.09,0,0,1-.55.13,1.27,1.27,0,0,1-1-.39,1.4,1.4,0,0,1-.37-1,1.44,1.44,0,0,1,.37-1,1.26,1.26,0,0,1,1-.4.89.89,0,0,1,.89.46v-.41h.56v2.67a1.8,1.8,0,0,1-.08.54,1.33,1.33,0,0,1-.23.46,1.07,1.07,0,0,1-.46.33,1.76,1.76,0,0,1-.68.12,1.38,1.38,0,0,1-.9-.3A1.16,1.16,0,0,1,63.9,98.67Zm1.42-.77a.76.76,0,0,0,.59-.26,1,1,0,0,0,.23-.67,1,1,0,0,0-.23-.67.75.75,0,0,0-.59-.25.79.79,0,0,0-.61.25,1.11,1.11,0,0,0,0,1.35A.8.8,0,0,0,65.32,97.9Z"/><path class="l" d="M67.76,96a1.48,1.48,0,0,1,2.11,0,1.5,1.5,0,0,1,.42,1.09,1.57,1.57,0,0,1-.41,1.11,1.53,1.53,0,0,1-2.13,0,1.57,1.57,0,0,1-.41-1.11A1.5,1.5,0,0,1,67.76,96Zm.42,1.85a.86.86,0,0,0,1.27,0,1.23,1.23,0,0,0,0-1.51.88.88,0,0,0-1.27,0,1.19,1.19,0,0,0,0,1.51Z"/><path class="l" d="M71.57,96.84v1.67H71V95.62h.55V96a1.06,1.06,0,0,1,1.66-.18,1.26,1.26,0,0,1,.26.82v1.83h-.56V96.78c0-.49-.23-.73-.67-.73a.62.62,0,0,0-.5.22A.88.88,0,0,0,71.57,96.84Z"/><path class="l" d="M74.44,98.42a.4.4,0,0,1-.12-.29.41.41,0,0,1,.42-.42.4.4,0,0,1,.29.12.38.38,0,0,1,.13.3.37.37,0,0,1-.13.29.4.4,0,0,1-.29.12A.41.41,0,0,1,74.44,98.42Z"/><path class="l" d="M77.18,96.06a.8.8,0,0,0-.62.26,1,1,0,0,0-.26.74,1.05,1.05,0,0,0,.26.75.83.83,0,0,0,.62.27.76.76,0,0,0,.55-.18.93.93,0,0,0,.26-.42l.5.22a1.32,1.32,0,0,1-.46.63,1.29,1.29,0,0,1-.85.27,1.38,1.38,0,0,1-1-.44,1.68,1.68,0,0,1,0-2.2,1.41,1.41,0,0,1,1-.43,1.26,1.26,0,0,1,1.28.92l-.51.22a.89.89,0,0,0-.25-.43A.71.71,0,0,0,77.18,96.06Z"/><path class="l" d="M79.29,96a1.5,1.5,0,0,1,2.12,0,1.5,1.5,0,0,1,.42,1.09,1.53,1.53,0,0,1-.42,1.11,1.39,1.39,0,0,1-1.06.43,1.4,1.4,0,0,1-1.06-.43,1.68,1.68,0,0,1,0-2.2Zm.42,1.85a.88.88,0,0,0,.64.28.86.86,0,0,0,.64-.28,1.23,1.23,0,0,0,0-1.51.85.85,0,0,0-.64-.27.87.87,0,0,0-.64.27,1.23,1.23,0,0,0,0,1.51Z"/><path class="l" d="M83.11,98.51h-.56V95.62h.54V96a.89.89,0,0,1,.37-.35,1.11,1.11,0,0,1,.5-.12,1,1,0,0,1,.52.14.83.83,0,0,1,.35.41,1,1,0,0,1,1-.55,1,1,0,0,1,.71.28,1.11,1.11,0,0,1,.29.82v1.87h-.56V96.7a.73.73,0,0,0-.15-.48.57.57,0,0,0-.46-.18.6.6,0,0,0-.48.21.75.75,0,0,0-.19.51v1.75h-.56V96.7a.73.73,0,0,0-.15-.48.57.57,0,0,0-.46-.18.66.66,0,0,0-.49.2.77.77,0,0,0-.18.53Z"/><polygon class="m" points="105.64 187.42 174.26 107.17 174.26 184.52 169.41 187.42 105.64 187.42"/></symbol><symbol id="c" viewBox="0 0 174.63 187.78"><use width="180.96" height="194.59" transform="scale(0.96)" xlink:href="#b"/><rect class="n" x="8.81" y="14.62" width="52.93" height="12.2"/><rect class="o" x="8.81" y="26.82" width="157.01" height="151.57"/><path class="l" d="M13,23.41a.29.29,0,0,1-.21-.08.29.29,0,0,1-.09-.22.31.31,0,0,1,.09-.22A.29.29,0,0,1,13,22.8a.34.34,0,0,1,.22.09.31.31,0,0,1,.09.22.29.29,0,0,1-.09.22A.33.33,0,0,1,13,23.41Z"/><path class="l" d="M14.53,23.41a.32.32,0,0,1-.21-.08.29.29,0,0,1-.09-.22.31.31,0,0,1,.09-.22.33.33,0,0,1,.21-.09.32.32,0,0,1,.22.09.31.31,0,0,1,.09.22.29.29,0,0,1-.09.22A.31.31,0,0,1,14.53,23.41Z"/><path class="l" d="M16,23.41a.33.33,0,0,1-.22-.08.29.29,0,0,1-.08-.22.3.3,0,0,1,.08-.22.31.31,0,0,1,.44,0,.3.3,0,0,1,.08.22.29.29,0,0,1-.08.22A.33.33,0,0,1,16,23.41Z"/><path class="l" d="M19.16,19.28l-2,4.11h-.35l2-4.11Z"/><path class="l" d="M21.19,23v-.11a1,1,0,0,1-.32.41,1.09,1.09,0,0,1-.65.2A1.12,1.12,0,0,1,19.3,23a1.69,1.69,0,0,1,0-2.06,1.16,1.16,0,0,1,.92-.42,1.11,1.11,0,0,1,.67.2,1,1,0,0,1,.3.39V19.21h.34v3.65a3.08,3.08,0,0,0,0,.53h-.34A2,2,0,0,1,21.19,23Zm-1.63-1.78a1.31,1.31,0,0,0-.26.83,1.29,1.29,0,0,0,.26.81.89.89,0,0,0,1.38,0,1.29,1.29,0,0,0,.25-.82,1.24,1.24,0,0,0-.25-.81.82.82,0,0,0-.68-.32A.87.87,0,0,0,19.56,21.18Z"/><path class="l" d="M22.55,23.22a.68.68,0,0,1-.24-.54c0-.45.28-.72.84-.82l.73-.11c.2,0,.29-.12.29-.27A.62.62,0,0,0,24,21a.73.73,0,0,0-.51-.17.8.8,0,0,0-.54.18.68.68,0,0,0-.23.47l-.34-.07a.93.93,0,0,1,.36-.64,1.15,1.15,0,0,1,.74-.24,1.11,1.11,0,0,1,.8.28,1,1,0,0,1,.25.68v1.41a2.42,2.42,0,0,0,0,.47h-.34a2.44,2.44,0,0,1,0-.47,1,1,0,0,1-.35.36,1.05,1.05,0,0,1-.62.18A1,1,0,0,1,22.55,23.22Zm.12-.56a.48.48,0,0,0,.16.35.59.59,0,0,0,.43.15.92.92,0,0,0,.66-.24.86.86,0,0,0,.25-.66v-.33A.31.31,0,0,1,24,22l-.22.05-.62.09C22.85,22.18,22.67,22.36,22.67,22.66Z"/><path class="l" d="M25.92,19.75v.88h.72V21h-.72v1.66c0,.33.16.5.47.5a.76.76,0,0,0,.25,0v.3a.9.9,0,0,1-.34.05.69.69,0,0,1-.53-.2.8.8,0,0,1-.2-.58V21H25v-.32h.21a.36.36,0,0,0,.4-.41v-.47Z"/><path class="l" d="M27.42,23.22a.68.68,0,0,1-.24-.54c0-.45.28-.72.84-.82l.73-.11c.2,0,.29-.12.29-.27a.62.62,0,0,0-.18-.46.73.73,0,0,0-.51-.17.8.8,0,0,0-.54.18.68.68,0,0,0-.23.47l-.34-.07a.93.93,0,0,1,.36-.64,1.13,1.13,0,0,1,.74-.24,1.11,1.11,0,0,1,.8.28,1,1,0,0,1,.25.68v1.41a3.59,3.59,0,0,0,0,.47h-.33a2.23,2.23,0,0,1,0-.47.9.9,0,0,1-.34.36,1.05,1.05,0,0,1-.62.18A1,1,0,0,1,27.42,23.22Zm.12-.56a.48.48,0,0,0,.16.35.59.59,0,0,0,.43.15.92.92,0,0,0,.66-.24.86.86,0,0,0,.25-.66v-.33a.31.31,0,0,1-.14.06l-.22.05-.62.09C27.72,22.18,27.54,22.36,27.54,22.66Z"/><path class="l" d="M30.64,23.39h-.35V19.21h.35v1.95a1,1,0,0,1,.34-.41,1.09,1.09,0,0,1,.66-.19,1.17,1.17,0,0,1,.92.41,1.57,1.57,0,0,1,.33,1,1.52,1.52,0,0,1-.34,1,1.17,1.17,0,0,1-.93.42,1.05,1.05,0,0,1-.64-.19,1.07,1.07,0,0,1-.34-.42Zm1.63-.57a1.22,1.22,0,0,0,.26-.82,1.21,1.21,0,0,0-.26-.82.85.85,0,0,0-.69-.31.82.82,0,0,0-.68.31,1.25,1.25,0,0,0-.27.82,1.23,1.23,0,0,0,.27.82.81.81,0,0,0,.68.33A.84.84,0,0,0,32.27,22.82Z"/><path class="l" d="M33.64,23.22a.68.68,0,0,1-.24-.54c0-.45.28-.72.84-.82l.73-.11c.19,0,.29-.12.29-.27a.62.62,0,0,0-.18-.46.73.73,0,0,0-.51-.17A.8.8,0,0,0,34,21a.65.65,0,0,0-.23.47l-.34-.07a1,1,0,0,1,.35-.64,1.16,1.16,0,0,1,.75-.24,1.09,1.09,0,0,1,.79.28,1,1,0,0,1,.26.68v1.41a3.59,3.59,0,0,0,0,.47h-.33a1.7,1.7,0,0,1,0-.47.9.9,0,0,1-.34.36,1.08,1.08,0,0,1-.62.18A1,1,0,0,1,33.64,23.22Zm.12-.56a.44.44,0,0,0,.16.35.59.59,0,0,0,.43.15.92.92,0,0,0,.66-.24.86.86,0,0,0,.25-.66v-.33a.38.38,0,0,1-.14.06L34.9,22l-.62.09C33.94,22.18,33.76,22.36,33.76,22.66Z"/><path class="l" d="M36.25,22.65l.32-.11a.75.75,0,0,0,.23.46.8.8,0,0,0,.53.16.68.68,0,0,0,.44-.13.43.43,0,0,0,.18-.36c0-.25-.16-.4-.47-.47L37,22.1c-.45-.11-.67-.35-.67-.74a.72.72,0,0,1,.28-.57,1,1,0,0,1,.65-.24,1,1,0,0,1,.71.25,1,1,0,0,1,.28.49L38,21.4a.69.69,0,0,0-.19-.37.71.71,0,0,0-.49-.18.64.64,0,0,0-.41.14.42.42,0,0,0-.18.35c0,.22.14.37.42.44l.46.1c.48.11.72.37.72.77a.73.73,0,0,1-.25.56,1,1,0,0,1-.72.25,1,1,0,0,1-.76-.26A.93.93,0,0,1,36.25,22.65Z"/><path class="l" d="M41.06,22.5l.3.11a1.18,1.18,0,0,1-.42.6,1.36,1.36,0,0,1-1.73-.13,1.46,1.46,0,0,1-.4-1.08A1.52,1.52,0,0,1,39.19,21,1.27,1.27,0,0,1,41,21a1.44,1.44,0,0,1,.34,1,.85.85,0,0,1,0,.13h-2.2v0a1.08,1.08,0,0,0,.29.77.93.93,0,0,0,.69.29.92.92,0,0,0,.91-.66Zm-1.88-.71H41a1,1,0,0,0-.25-.66.88.88,0,0,0-.67-.26.86.86,0,0,0-.64.26A1,1,0,0,0,39.18,21.79Z"/><path class="l" d="M44,19.28l-2,4.11h-.35l2-4.11Z"/><line class="p" x1="88.75" y1="138.04" x2="88.75" y2="162.41"/><polyline class="p" points="88.75 102.61 88.75 115.61 129.9 115.61 129.9 128.24"/><polygon class="k" points="126.16 127.14 129.9 133.62 133.64 127.14 126.16 127.14"/><rect class="p" x="50.74" y="86.67" width="76.14" height="15.94"/><path class="k" d="M55.27,97l.68-.24a.85.85,0,0,0,.27.52.87.87,0,0,0,.62.2.74.74,0,0,0,.48-.14.46.46,0,0,0,.18-.37c0-.25-.17-.42-.5-.49l-.65-.15a1.26,1.26,0,0,1-.71-.38,1,1,0,0,1-.25-.7,1.09,1.09,0,0,1,.4-.85,1.4,1.4,0,0,1,1-.36,1.89,1.89,0,0,1,.65.1,1.25,1.25,0,0,1,.45.29,1.15,1.15,0,0,1,.24.33,1.66,1.66,0,0,1,.12.31l-.66.25a.6.6,0,0,0-.06-.19l-.12-.21a.7.7,0,0,0-.25-.18,1,1,0,0,0-.37-.06.69.69,0,0,0-.46.15.45.45,0,0,0-.18.36c0,.24.14.4.44.46l.62.14a1.46,1.46,0,0,1,.79.41,1,1,0,0,1,.27.73,1.13,1.13,0,0,1-.37.83,1.42,1.42,0,0,1-1,.36,1.67,1.67,0,0,1-1.12-.35A1.3,1.3,0,0,1,55.27,97Z"/><path class="k" d="M61.91,96.64l.65.23a1.67,1.67,0,0,1-.63.87,1.76,1.76,0,0,1-1.1.34,1.86,1.86,0,0,1-1.37-.55,2,2,0,0,1-.57-1.5,2,2,0,0,1,.55-1.46A1.72,1.72,0,0,1,60.73,94a1.73,1.73,0,0,1,1.36.54A2.12,2.12,0,0,1,62.58,96a.82.82,0,0,1,0,.24H59.67a1.15,1.15,0,0,0,.34.84,1.11,1.11,0,0,0,.82.33A1,1,0,0,0,61.91,96.64Zm-2.22-1H61.8a1,1,0,0,0-1.06-1A1,1,0,0,0,60,95,1.1,1.1,0,0,0,59.69,95.64Z"/><path class="k" d="M64.28,98h-.74V92.17h.74v2.49a1.31,1.31,0,0,1,.49-.47,1.62,1.62,0,0,1,.79-.19,1.58,1.58,0,0,1,1.3.57A2.21,2.21,0,0,1,67.32,96a2.24,2.24,0,0,1-.48,1.47,1.59,1.59,0,0,1-1.31.58,1.34,1.34,0,0,1-1.25-.67Zm2-.94a1.73,1.73,0,0,0,0-2,1,1,0,0,0-.83-.36,1,1,0,0,0-.82.37,1.4,1.4,0,0,0-.32,1,1.48,1.48,0,0,0,.32,1,1,1,0,0,0,.82.38A1,1,0,0,0,66.24,97Z"/><path class="k" d="M72.45,96.87a.94.94,0,0,1-.51-.13.6.6,0,0,1-.28-.38,1.1,1.1,0,0,1-1,.52,1.16,1.16,0,0,1-.89-.37,1.45,1.45,0,0,1-.34-1A1.92,1.92,0,0,1,70,94.19a1.44,1.44,0,0,1,1.12-.54,1.08,1.08,0,0,1,.53.14.7.7,0,0,1,.33.39l.07-.42h.63l-.43,2a2,2,0,0,0,0,.23q0,.33.3.33c.23,0,.43-.16.6-.46a2.06,2.06,0,0,0,.27-1.06,1.93,1.93,0,0,0-.62-1.47,2.32,2.32,0,0,0-1.62-.57,2.36,2.36,0,0,0-1.76.7,2.52,2.52,0,0,0-.7,1.85,2.42,2.42,0,0,0,.68,1.76,2.51,2.51,0,0,0,1.86.69,2.57,2.57,0,0,0,1.64-.56l.33.43a2.54,2.54,0,0,1-.89.51,3.17,3.17,0,0,1-1.08.2,3.24,3.24,0,0,1-2.3-.84,2.89,2.89,0,0,1-.9-2.2,3.06,3.06,0,0,1,3.11-3.13,2.9,2.9,0,0,1,2,.75,2.61,2.61,0,0,1,.38,3.35A1.32,1.32,0,0,1,72.45,96.87ZM71.76,95a.77.77,0,0,0-.17-.55.64.64,0,0,0-.5-.2.81.81,0,0,0-.68.36,1.32,1.32,0,0,0-.27.82c0,.58.23.87.68.87a.81.81,0,0,0,.67-.36A1.71,1.71,0,0,0,71.76,95Z"/><path class="k" d="M75.64,98h-.75V92.17h.75Z"/><path class="k" d="M79.63,96.64l.65.23a1.67,1.67,0,0,1-.63.87,1.76,1.76,0,0,1-1.1.34,1.86,1.86,0,0,1-1.37-.55,2,2,0,0,1-.57-1.5,2,2,0,0,1,.55-1.46A1.72,1.72,0,0,1,78.45,94a1.73,1.73,0,0,1,1.36.54A2.12,2.12,0,0,1,80.3,96a1.44,1.44,0,0,1,0,.24H77.39a1.15,1.15,0,0,0,.34.84,1.11,1.11,0,0,0,.82.33A1,1,0,0,0,79.63,96.64Zm-2.22-1h2.11a1,1,0,0,0-1.06-1,1,1,0,0,0-.74.29A1.1,1.1,0,0,0,77.41,95.64Z"/><path class="k" d="M83.39,94.12h.77l1,2.89L86,94.12h.79L85.56,98h-.78l-1-2.92-1,2.92H82L80.7,94.12h.82L82.39,97Z"/><path class="k" d="M87.28,96.93a1,1,0,0,1,.32-.79,1.55,1.55,0,0,1,.85-.38l1-.15c.2,0,.3-.12.3-.29a.64.64,0,0,0-.21-.49.89.89,0,0,0-.62-.19.85.85,0,0,0-.61.21.9.9,0,0,0-.27.56l-.72-.17a1.3,1.3,0,0,1,.51-.9A1.69,1.69,0,0,1,88.94,94a1.66,1.66,0,0,1,1.21.39,1.39,1.39,0,0,1,.39,1v1.93a4,4,0,0,0,0,.63h-.74a4.07,4.07,0,0,1,0-.52,1.36,1.36,0,0,1-.47.45,1.4,1.4,0,0,1-.77.19,1.29,1.29,0,0,1-.93-.34A1.06,1.06,0,0,1,87.28,96.93Zm1.4.52a1.16,1.16,0,0,0,.8-.27,1.08,1.08,0,0,0,.31-.86v-.18l-1.18.18a.7.7,0,0,0-.41.18.53.53,0,0,0-.15.39.54.54,0,0,0,.17.39A.61.61,0,0,0,88.68,97.45Z"/><path class="k" d="M91.43,98.17l.73-.17a1,1,0,0,0,.32.68,1,1,0,0,0,.72.27c.79,0,1.18-.42,1.18-1.25v-.55a1.08,1.08,0,0,1-.45.45,1.44,1.44,0,0,1-.73.18,1.65,1.65,0,0,1-1.26-.52,1.84,1.84,0,0,1-.5-1.34,1.91,1.91,0,0,1,.49-1.34A1.66,1.66,0,0,1,93.2,94a1.21,1.21,0,0,1,1.19.61v-.53h.74v3.56a2.34,2.34,0,0,1-.1.71,1.76,1.76,0,0,1-.31.61,1.4,1.4,0,0,1-.61.44,2.31,2.31,0,0,1-.91.16,1.83,1.83,0,0,1-1.2-.4A1.51,1.51,0,0,1,91.43,98.17Zm1.89-1a1,1,0,0,0,.79-.34,1.49,1.49,0,0,0,0-1.79,1,1,0,0,0-.79-.34,1.08,1.08,0,0,0-.81.34,1.48,1.48,0,0,0,0,1.8A1.06,1.06,0,0,0,93.32,97.15Z"/><path class="k" d="M96.57,94.58a2,2,0,0,1,2.82,0A2,2,0,0,1,100,96a2,2,0,0,1-.55,1.46,2,2,0,0,1-2.84,0A2,2,0,0,1,96,96,2,2,0,0,1,96.57,94.58Zm.56,2.47a1.18,1.18,0,0,0,1.7,0,1.63,1.63,0,0,0,0-2,1.18,1.18,0,0,0-1.7,0,1.63,1.63,0,0,0,0,2Z"/><path class="k" d="M101.66,95.74V98h-.75V94.12h.73v.55a1.29,1.29,0,0,1,1.19-.67,1.28,1.28,0,0,1,1,.43,1.62,1.62,0,0,1,.35,1.09V98h-.75V95.65c0-.64-.3-1-.89-1a.77.77,0,0,0-.66.3A1.19,1.19,0,0,0,101.66,95.74Z"/><path class="k" d="M105.48,97.84a.53.53,0,0,1-.16-.39.57.57,0,0,1,.16-.39.54.54,0,0,1,.4-.17.58.58,0,0,1,.56.56.51.51,0,0,1-.17.39.53.53,0,0,1-.39.16A.54.54,0,0,1,105.48,97.84Z"/><path class="k" d="M109.13,94.69a1.14,1.14,0,0,0-.83.35,1.63,1.63,0,0,0,0,2,1.12,1.12,0,0,0,.84.36,1,1,0,0,0,.73-.24,1.24,1.24,0,0,0,.34-.55l.67.28a1.83,1.83,0,0,1-.61.84,1.72,1.72,0,0,1-1.13.36,1.83,1.83,0,0,1-1.39-.58A2,2,0,0,1,107.2,96a2,2,0,0,1,.55-1.47,1.85,1.85,0,0,1,1.38-.57,1.73,1.73,0,0,1,1.14.36,1.64,1.64,0,0,1,.57.86l-.68.29a1.16,1.16,0,0,0-.33-.58A1,1,0,0,0,109.13,94.69Z"/><path class="k" d="M112,94.58a1.86,1.86,0,0,1,1.41-.58,1.89,1.89,0,0,1,1.42.58,2.21,2.21,0,0,1,0,2.92,2,2,0,0,1-2.83,0,2.21,2.21,0,0,1,0-2.92Zm.56,2.47a1.14,1.14,0,0,0,.85.36,1.16,1.16,0,0,0,.86-.36,1.67,1.67,0,0,0,0-2,1.16,1.16,0,0,0-.86-.36,1.14,1.14,0,0,0-.85.36,1.63,1.63,0,0,0,0,2Z"/><path class="k" d="M117,98h-.75V94.12H117v.51a1.14,1.14,0,0,1,.5-.47,1.57,1.57,0,0,1,.67-.16,1.38,1.38,0,0,1,.69.19,1.07,1.07,0,0,1,.46.54,1.38,1.38,0,0,1,1.29-.73,1.31,1.31,0,0,1,.94.38,1.44,1.44,0,0,1,.39,1.09V98h-.75V95.55a.93.93,0,0,0-.2-.64.76.76,0,0,0-.61-.24.82.82,0,0,0-.64.27,1,1,0,0,0-.25.7V98h-.75V95.55a.93.93,0,0,0-.21-.64.75.75,0,0,0-.61-.24.86.86,0,0,0-.65.27,1,1,0,0,0-.24.7Z"/><path class="k" d="M61.92,50.29v-.07a1.2,1.2,0,0,1-.46.49,1.33,1.33,0,0,1-.73.2,1.64,1.64,0,0,1-1.32-.58,2.32,2.32,0,0,1,0-2.89,1.67,1.67,0,0,1,1.31-.59,1.49,1.49,0,0,1,.77.19,1.05,1.05,0,0,1,.41.46V45h.74v5.08a5.29,5.29,0,0,0,0,.72H62A3.93,3.93,0,0,1,61.92,50.29Zm-2.25-1.42a1.54,1.54,0,0,0,.3,1,1,1,0,0,0,.83.39,1,1,0,0,0,.81-.4,1.59,1.59,0,0,0,.3-1,1.45,1.45,0,0,0-.29-1,1,1,0,0,0-.81-.37,1,1,0,0,0-.82.37A1.48,1.48,0,0,0,59.67,48.87Z"/><path class="k" d="M63.92,45.88A.54.54,0,0,1,64.3,45a.52.52,0,0,1,.38.15.53.53,0,0,1,.16.39.54.54,0,0,1-.92.38Zm.75,4.93h-.74V47h.74Z"/><path class="k" d="M66.7,50.81H66V47h.72v.51a1.17,1.17,0,0,1,.5-.46,1.44,1.44,0,0,1,.67-.16,1.37,1.37,0,0,1,.69.18,1.07,1.07,0,0,1,.46.54,1.37,1.37,0,0,1,1.29-.72,1.3,1.3,0,0,1,.94.37,1.45,1.45,0,0,1,.39,1.09v2.5h-.74V48.39a.93.93,0,0,0-.21-.64.75.75,0,0,0-.61-.24.81.81,0,0,0-.64.28,1,1,0,0,0-.25.69v2.33h-.75V48.39a1,1,0,0,0-.2-.64.77.77,0,0,0-.62-.24.82.82,0,0,0-.64.27,1,1,0,0,0-.25.71Z"/><path class="k" d="M72.8,45.88a.54.54,0,0,1,.38-.92.52.52,0,0,1,.38.15.53.53,0,0,1,.16.39.54.54,0,0,1-.92.38Zm.75,4.93h-.74V47h.74Z"/><path class="k" d="M75.84,45.74V47h.83v.68h-.83v2A.54.54,0,0,0,76,50a.57.57,0,0,0,.41.13.85.85,0,0,0,.29,0v.64a1.36,1.36,0,0,1-.51.08,1.06,1.06,0,0,1-.78-.29,1.1,1.1,0,0,1-.29-.81V47.64h-.74V47h.21a.58.58,0,0,0,.45-.17.64.64,0,0,0,.14-.42v-.63Z"/><path class="k" d="M79.73,46.92v.8l-.33,0c-.7,0-1.05.4-1.05,1.19v1.93h-.76V47h.74v.67a1.19,1.19,0,0,1,1.15-.74A1,1,0,0,1,79.73,46.92Z"/><path class="k" d="M80.52,45.88A.54.54,0,0,1,80.9,45a.52.52,0,0,1,.38.15.53.53,0,0,1,.16.39.54.54,0,0,1-.92.38Zm.75,4.93h-.74V47h.74Z"/><path class="k" d="M86.72,49.71a.92.92,0,0,1-.51-.13.58.58,0,0,1-.28-.38,1.12,1.12,0,0,1-1,.53,1.16,1.16,0,0,1-.89-.38,1.45,1.45,0,0,1-.34-1A1.92,1.92,0,0,1,84.23,47a1.44,1.44,0,0,1,1.12-.54,1.08,1.08,0,0,1,.53.14.7.7,0,0,1,.33.39l.07-.42h.63l-.43,2a1.8,1.8,0,0,0,0,.22q0,.33.3.33c.23,0,.43-.16.6-.46a2.06,2.06,0,0,0,.27-1.06A2,2,0,0,0,87,46.17a2.56,2.56,0,0,0-3.38.14,2.48,2.48,0,0,0-.7,1.84,2.42,2.42,0,0,0,.68,1.76,2.51,2.51,0,0,0,1.86.69A2.57,2.57,0,0,0,87.11,50l.33.43a2.72,2.72,0,0,1-.89.52,3.2,3.2,0,0,1-1.08.19,3.24,3.24,0,0,1-2.3-.84,2.88,2.88,0,0,1-.9-2.2A3.06,3.06,0,0,1,85.38,45a2.9,2.9,0,0,1,2,.75,2.61,2.61,0,0,1,.38,3.35A1.32,1.32,0,0,1,86.72,49.71ZM86,47.85a.8.8,0,0,0-.17-.56.64.64,0,0,0-.5-.2.81.81,0,0,0-.68.36,1.32,1.32,0,0,0-.27.82c0,.58.23.87.68.87a.81.81,0,0,0,.67-.36A1.68,1.68,0,0,0,86,47.85Z"/><path class="k" d="M89.91,50.81h-.75V45h.75Z"/><path class="k" d="M93.9,49.49l.65.22a1.74,1.74,0,0,1-.63.88,1.82,1.82,0,0,1-1.1.34,1.87,1.87,0,0,1-1.37-.56,2,2,0,0,1-.57-1.5,2,2,0,0,1,.55-1.46,1.85,1.85,0,0,1,2.65,0,2.08,2.08,0,0,1,.49,1.46,1.44,1.44,0,0,1,0,.24H91.66a1.15,1.15,0,0,0,.34.84,1.11,1.11,0,0,0,.82.33A1,1,0,0,0,93.9,49.49Zm-2.22-1h2.11a1.07,1.07,0,0,0-.29-.71,1,1,0,0,0-.77-.28,1,1,0,0,0-.74.29A1.1,1.1,0,0,0,91.68,48.49Z"/><path class="k" d="M97.66,47h.77l1,2.89.85-2.89h.79l-1.24,3.85h-.78l-1-2.93-1,2.93h-.8L95,47h.82l.87,2.89Z"/><path class="k" d="M101.55,49.77a1,1,0,0,1,.32-.79,1.48,1.48,0,0,1,.85-.37l1-.16c.2,0,.3-.12.3-.28a.64.64,0,0,0-.21-.5.89.89,0,0,0-.62-.19.85.85,0,0,0-.61.21.9.9,0,0,0-.27.56l-.72-.16a1.26,1.26,0,0,1,.51-.9,1.64,1.64,0,0,1,1.07-.35,1.66,1.66,0,0,1,1.21.39,1.41,1.41,0,0,1,.39,1v1.92a4.26,4.26,0,0,0,0,.64h-.74a4.22,4.22,0,0,1,0-.52,1.25,1.25,0,0,1-.47.44,1.4,1.4,0,0,1-.77.2,1.33,1.33,0,0,1-.93-.34A1.09,1.09,0,0,1,101.55,49.77Zm1.4.52a1.16,1.16,0,0,0,.8-.27,1.08,1.08,0,0,0,.31-.86V49l-1.18.18a.77.77,0,0,0-.41.18.53.53,0,0,0-.15.39.58.58,0,0,0,.17.4A.65.65,0,0,0,103,50.29Z"/><path class="k" d="M105.7,51l.73-.16a1,1,0,0,0,.32.67,1,1,0,0,0,.72.27c.79,0,1.18-.42,1.18-1.25V50a1.17,1.17,0,0,1-.45.46,1.54,1.54,0,0,1-.73.17,1.65,1.65,0,0,1-1.26-.52,1.84,1.84,0,0,1-.5-1.34,1.89,1.89,0,0,1,.49-1.33,1.66,1.66,0,0,1,1.27-.54,1.2,1.2,0,0,1,1.19.6V47h.74v3.56a2.34,2.34,0,0,1-.1.71,1.81,1.81,0,0,1-.31.62,1.58,1.58,0,0,1-.61.44,2.51,2.51,0,0,1-.91.16,1.84,1.84,0,0,1-1.2-.41A1.51,1.51,0,0,1,105.7,51Zm1.89-1a1,1,0,0,0,.79-.34,1.3,1.3,0,0,0,.3-.89,1.28,1.28,0,0,0-.3-.89,1,1,0,0,0-.79-.34,1.07,1.07,0,0,0-.81.33,1.31,1.31,0,0,0-.31.9,1.29,1.29,0,0,0,.3.9A1,1,0,0,0,107.59,50Z"/><path class="k" d="M110.84,47.42a2,2,0,0,1,2.82,0,2,2,0,0,1,.56,1.46,2.09,2.09,0,0,1-.55,1.47,2,2,0,0,1-2.84,0,2.09,2.09,0,0,1-.55-1.47A2,2,0,0,1,110.84,47.42Zm.56,2.47a1.18,1.18,0,0,0,1.7,0,1.41,1.41,0,0,0,.35-1,1.42,1.42,0,0,0-.35-1,1.18,1.18,0,0,0-1.7,0,1.42,1.42,0,0,0-.35,1A1.41,1.41,0,0,0,111.4,49.89Z"/><path class="k" d="M115.93,48.58v2.23h-.75V47h.73v.55a1.42,1.42,0,0,1,2.21-.24,1.69,1.69,0,0,1,.35,1.1v2.44h-.75V48.49c0-.64-.3-1-.89-1a.77.77,0,0,0-.66.3A1.16,1.16,0,0,0,115.93,48.58Z"/><path class="k" d="M66.19,62.25a1.08,1.08,0,0,1-.52-.12.66.66,0,0,1-.28-.39,1.16,1.16,0,0,1-1.83.15,1.4,1.4,0,0,1-.34-1,2,2,0,0,1,.47-1.33A1.46,1.46,0,0,1,64.82,59a1.06,1.06,0,0,1,.52.13.72.72,0,0,1,.33.4l.08-.43h.63l-.43,2a1,1,0,0,0,0,.23.28.28,0,0,0,.31.32c.22,0,.42-.15.6-.46a2.13,2.13,0,0,0,.26-1.06,1.91,1.91,0,0,0-.62-1.46,2.29,2.29,0,0,0-1.62-.58,2.37,2.37,0,0,0-1.76.71,2.54,2.54,0,0,0-.7,1.84,2.36,2.36,0,0,0,.69,1.76,2.48,2.48,0,0,0,1.86.69,2.53,2.53,0,0,0,1.64-.56l.33.43a2.45,2.45,0,0,1-.9.52,3.16,3.16,0,0,1-1.07.2,3.21,3.21,0,0,1-2.31-.85,2.89,2.89,0,0,1-.89-2.19,3,3,0,0,1,.9-2.25,3,3,0,0,1,2.2-.88,2.93,2.93,0,0,1,2,.75,2.44,2.44,0,0,1,.82,1.86,2.4,2.4,0,0,1-.45,1.49A1.28,1.28,0,0,1,66.19,62.25Zm-.69-1.86a.78.78,0,0,0-.18-.55.59.59,0,0,0-.49-.2.84.84,0,0,0-.69.35,1.32,1.32,0,0,0-.27.82c0,.59.23.88.68.88a.77.77,0,0,0,.67-.37A1.58,1.58,0,0,0,65.5,60.39Z"/><path class="k" d="M69.38,63.35h-.75V57.56h.75Z"/><path class="k" d="M73.36,62l.65.22a1.72,1.72,0,0,1-.62.88,1.81,1.81,0,0,1-1.11.34,1.88,1.88,0,0,1-1.37-.55,2,2,0,0,1-.56-1.5A2,2,0,0,1,70.89,60a1.71,1.71,0,0,1,1.3-.58,1.75,1.75,0,0,1,1.36.55A2.17,2.17,0,0,1,74,61.4a1.77,1.77,0,0,1,0,.24h-2.9a1.19,1.19,0,0,0,.34.84,1.12,1.12,0,0,0,.82.33A1,1,0,0,0,73.36,62Zm-2.21-1h2.1a1,1,0,0,0-1.06-1,1,1,0,0,0-.73.29A1,1,0,0,0,71.15,61Z"/><path class="k" d="M77.12,59.5h.78l1,2.9.85-2.9h.79l-1.25,3.85h-.78l-1-2.93-1,2.93H75.7L74.43,59.5h.83l.86,2.9Z"/><path class="k" d="M81,62.32a1,1,0,0,1,.32-.8,1.48,1.48,0,0,1,.85-.37l1-.15c.19,0,.29-.12.29-.29a.66.66,0,0,0-.21-.5.9.9,0,0,0-.62-.19.85.85,0,0,0-.61.21.87.87,0,0,0-.26.57l-.72-.17a1.25,1.25,0,0,1,.5-.9,1.72,1.72,0,0,1,1.07-.35,1.61,1.61,0,0,1,1.21.4,1.37,1.37,0,0,1,.39,1v1.93a4,4,0,0,0,0,.63h-.73a2.82,2.82,0,0,1,0-.52,1.56,1.56,0,0,1-.47.45,1.42,1.42,0,0,1-.77.19,1.29,1.29,0,0,1-.93-.34A1.09,1.09,0,0,1,81,62.32Zm1.39.52a1.17,1.17,0,0,0,.81-.27,1.12,1.12,0,0,0,.3-.87v-.17l-1.17.17a.75.75,0,0,0-.41.19.56.56,0,0,0,0,.78A.61.61,0,0,0,82.41,62.84Z"/><path class="k" d="M85.16,63.56l.73-.17a1.07,1.07,0,0,0,.33.68,1,1,0,0,0,.72.27c.78,0,1.17-.42,1.17-1.25v-.56a1,1,0,0,1-.45.46,1.37,1.37,0,0,1-.72.18,1.68,1.68,0,0,1-1.27-.53,1.87,1.87,0,0,1-.5-1.34,1.89,1.89,0,0,1,.5-1.33,1.64,1.64,0,0,1,1.27-.54,1.18,1.18,0,0,1,1.18.61V59.5h.75v3.56a2.72,2.72,0,0,1-.1.72,2.1,2.1,0,0,1-.32.61,1.38,1.38,0,0,1-.6.44,2.31,2.31,0,0,1-.91.16,1.84,1.84,0,0,1-1.21-.4A1.54,1.54,0,0,1,85.16,63.56Zm1.89-1a1,1,0,0,0,.79-.34,1.24,1.24,0,0,0,.31-.89,1.25,1.25,0,0,0-.31-.89,1,1,0,0,0-.79-.34,1,1,0,0,0-.8.34,1.24,1.24,0,0,0-.31.89,1.29,1.29,0,0,0,.3.9A1,1,0,0,0,87.05,62.53Z"/><path class="k" d="M90.3,60a2,2,0,0,1,2.83,0,2.23,2.23,0,0,1,0,2.93,2,2,0,0,1-2.83,0,2.23,2.23,0,0,1,0-2.93Zm.56,2.47a1.11,1.11,0,0,0,.85.37,1.14,1.14,0,0,0,.86-.37,1.66,1.66,0,0,0,0-2,1.17,1.17,0,0,0-.86-.37,1.15,1.15,0,0,0-.85.37,1.62,1.62,0,0,0,0,2Z"/><path class="k" d="M95.39,61.13v2.22h-.75V59.5h.74v.55a1.41,1.41,0,0,1,2.2-.24,1.66,1.66,0,0,1,.36,1.1v2.44h-.75V61c0-.65-.3-1-.9-1a.8.8,0,0,0-.66.3A1.17,1.17,0,0,0,95.39,61.13Z"/><path class="k" d="M99.22,63.23a.53.53,0,0,1-.16-.39.54.54,0,0,1,.16-.4.51.51,0,0,1,.39-.16.55.55,0,0,1,.4.16.54.54,0,0,1,.16.4.53.53,0,0,1-.16.39.55.55,0,0,1-.4.16A.51.51,0,0,1,99.22,63.23Z"/><path class="k" d="M102.87,60.08a1.13,1.13,0,0,0-.83.35,1.37,1.37,0,0,0-.34,1,1.41,1.41,0,0,0,.34,1,1.13,1.13,0,0,0,.83.35,1,1,0,0,0,.74-.24A1.22,1.22,0,0,0,104,62l.66.29a1.88,1.88,0,0,1-.6.84,1.77,1.77,0,0,1-1.14.36,1.83,1.83,0,0,1-1.39-.58,2.24,2.24,0,0,1,0-2.94,1.85,1.85,0,0,1,1.39-.57,1.73,1.73,0,0,1,1.14.36,1.66,1.66,0,0,1,.57.87l-.68.28a1.2,1.2,0,0,0-.34-.57A.93.93,0,0,0,102.87,60.08Z"/><path class="k" d="M105.69,60a2,2,0,0,1,2.82,0,2.2,2.2,0,0,1,0,2.93,1.84,1.84,0,0,1-1.41.58,1.86,1.86,0,0,1-1.42-.58,2.21,2.21,0,0,1,0-2.93Zm.56,2.47a1.1,1.1,0,0,0,.85.37,1.11,1.11,0,0,0,.85-.37,1.62,1.62,0,0,0,0-2,1.15,1.15,0,0,0-.85-.37,1.13,1.13,0,0,0-.85.37,1.62,1.62,0,0,0,0,2Z"/><path class="k" d="M110.77,63.35H110V59.5h.72V60a1.15,1.15,0,0,1,.49-.46,1.47,1.47,0,0,1,.67-.16,1.34,1.34,0,0,1,.69.18,1.21,1.21,0,0,1,.47.55,1.34,1.34,0,0,1,1.28-.73,1.29,1.29,0,0,1,.94.38,1.43,1.43,0,0,1,.39,1.08v2.5h-.74V60.93a.9.9,0,0,0-.21-.63.72.72,0,0,0-.61-.25.85.85,0,0,0-.64.28,1,1,0,0,0-.25.69v2.33h-.75V60.93a1,1,0,0,0-.2-.63.74.74,0,0,0-.61-.25.84.84,0,0,0-.65.28,1,1,0,0,0-.25.7Z"/><path class="k" d="M54.87,75.9h-.74V70.1h.74v2.49a1.28,1.28,0,0,1,.48-.47,1.67,1.67,0,0,1,.79-.18,1.62,1.62,0,0,1,1.31.56,2.5,2.5,0,0,1,0,2.92,1.6,1.6,0,0,1-1.31.58,1.34,1.34,0,0,1-1.25-.66Zm2-1a1.75,1.75,0,0,0,0-2A1,1,0,0,0,56,72.6a1,1,0,0,0-.83.37,1.44,1.44,0,0,0-.32,1,1.54,1.54,0,0,0,.32,1,1.05,1.05,0,0,0,.83.38A1,1,0,0,0,56.83,75Z"/><path class="k" d="M59.11,72.51a2,2,0,0,1,2.82,0A2,2,0,0,1,62.49,74a2.06,2.06,0,0,1-.56,1.47,1.88,1.88,0,0,1-1.41.58,1.9,1.9,0,0,1-1.42-.58A2,2,0,0,1,58.55,74,2,2,0,0,1,59.11,72.51ZM59.67,75a1.13,1.13,0,0,0,.85.36,1.14,1.14,0,0,0,.85-.36,1.41,1.41,0,0,0,.35-1,1.42,1.42,0,0,0-.35-1,1.14,1.14,0,0,0-.85-.36,1.13,1.13,0,0,0-.85.36,1.38,1.38,0,0,0-.35,1A1.37,1.37,0,0,0,59.67,75Z"/><path class="k" d="M65.58,72v.8a1.84,1.84,0,0,0-.33,0c-.7,0-1,.4-1,1.19V75.9h-.75V72.05h.73v.67A1.2,1.2,0,0,1,65.33,72,1,1,0,0,1,65.58,72Z"/><path class="k" d="M66.37,71a.53.53,0,0,1,0-.76.49.49,0,0,1,.38-.16.52.52,0,0,1,.38.15.53.53,0,0,1,.16.39.54.54,0,0,1-.92.38Zm.76,4.93h-.75V72.05h.75Z"/><path class="k" d="M68.05,74.9l.68-.24a.74.74,0,0,0,.27.51.88.88,0,0,0,.62.21.69.69,0,0,0,.48-.15.46.46,0,0,0,.18-.37c0-.25-.17-.42-.5-.49l-.65-.15a1.26,1.26,0,0,1-.71-.38,1,1,0,0,1-.25-.7,1.09,1.09,0,0,1,.4-.85,1.4,1.4,0,0,1,1-.36,1.69,1.69,0,0,1,.66.11,1.12,1.12,0,0,1,.45.28,1.5,1.5,0,0,1,.24.33A1.66,1.66,0,0,1,71,73l-.67.25a.59.59,0,0,0,0-.19,1,1,0,0,0-.13-.2.45.45,0,0,0-.24-.18.89.89,0,0,0-.38-.07.71.71,0,0,0-.46.15.45.45,0,0,0-.18.36c0,.25.15.4.44.46l.63.14a1.46,1.46,0,0,1,.79.41,1.06,1.06,0,0,1,.27.73,1.13,1.13,0,0,1-.37.83,1.43,1.43,0,0,1-1,.37,1.61,1.61,0,0,1-1.11-.36A1.25,1.25,0,0,1,68.05,74.9Z"/><path class="k" d="M76.19,74.8a.92.92,0,0,1-.51-.13.55.55,0,0,1-.28-.38,1.12,1.12,0,0,1-1,.53,1.15,1.15,0,0,1-.89-.38,1.45,1.45,0,0,1-.34-1,2,2,0,0,1,.47-1.33,1.47,1.47,0,0,1,1.13-.54,1.1,1.1,0,0,1,.53.14.7.7,0,0,1,.33.39l.07-.42h.63l-.43,2a.86.86,0,0,0,0,.22q0,.33.3.33c.22,0,.42-.16.6-.46a2.06,2.06,0,0,0,.26-1.06,1.91,1.91,0,0,0-.62-1.47,2.29,2.29,0,0,0-1.62-.57,2.36,2.36,0,0,0-1.76.71,2.51,2.51,0,0,0-.69,1.84A2.42,2.42,0,0,0,73.08,75a2.51,2.51,0,0,0,1.86.69,2.57,2.57,0,0,0,1.64-.56l.33.43a2.83,2.83,0,0,1-.89.52,3.44,3.44,0,0,1-3.38-.65,2.88,2.88,0,0,1-.9-2.2A3,3,0,0,1,72.65,71a3,3,0,0,1,2.2-.88,2.92,2.92,0,0,1,2,.75,2.61,2.61,0,0,1,.38,3.35A1.32,1.32,0,0,1,76.19,74.8Zm-.69-1.86a.85.85,0,0,0-.17-.56.65.65,0,0,0-.5-.2.81.81,0,0,0-.68.36,1.32,1.32,0,0,0-.27.82c0,.58.23.87.68.87a.81.81,0,0,0,.67-.36A1.68,1.68,0,0,0,75.5,72.94Z"/><path class="k" d="M79.38,75.9h-.75V70.1h.75Z"/><path class="k" d="M83.37,74.58l.64.22a1.72,1.72,0,0,1-.62.88,1.82,1.82,0,0,1-1.1.34,1.91,1.91,0,0,1-1.38-.56,2,2,0,0,1-.56-1.5,2.06,2.06,0,0,1,.54-1.46,1.75,1.75,0,0,1,1.3-.57,1.71,1.71,0,0,1,1.36.55A2.08,2.08,0,0,1,84,73.94a1.44,1.44,0,0,1,0,.24H81.13a1.15,1.15,0,0,0,.34.84,1.11,1.11,0,0,0,.82.33A1,1,0,0,0,83.37,74.58Zm-2.22-1h2.1a1.06,1.06,0,0,0-1.79-.7A1.1,1.1,0,0,0,81.15,73.58Z"/><path class="k" d="M87.13,72.05h.77l1,2.89.85-2.89h.79L89.29,75.9h-.77l-1-2.93-1,2.93H85.7l-1.26-3.85h.82l.87,2.89Z"/><path class="k" d="M91,74.86a1,1,0,0,1,.32-.79,1.48,1.48,0,0,1,.85-.37l1-.16c.2,0,.3-.12.3-.28a.64.64,0,0,0-.21-.5.9.9,0,0,0-.63-.19.84.84,0,0,0-.6.21.9.9,0,0,0-.27.56l-.72-.16a1.26,1.26,0,0,1,.51-.9,1.62,1.62,0,0,1,1.07-.35,1.68,1.68,0,0,1,1.21.39,1.4,1.4,0,0,1,.39,1v1.92a3.26,3.26,0,0,0,0,.64h-.74a2.89,2.89,0,0,1,0-.52,1.33,1.33,0,0,1-.47.44,1.4,1.4,0,0,1-.77.2,1.33,1.33,0,0,1-.93-.34A1.09,1.09,0,0,1,91,74.86Zm1.39.52a1.17,1.17,0,0,0,.81-.27,1.11,1.11,0,0,0,.31-.86v-.18l-1.18.18a.74.74,0,0,0-.41.18.53.53,0,0,0-.15.39.58.58,0,0,0,.17.4A.64.64,0,0,0,92.41,75.38Z"/><path class="k" d="M95.17,76.1l.72-.16a1,1,0,0,0,.33.67,1,1,0,0,0,.72.27c.79,0,1.18-.42,1.18-1.25v-.55a1.17,1.17,0,0,1-.45.46,1.54,1.54,0,0,1-.73.17,1.69,1.69,0,0,1-1.27-.52,2,2,0,0,1,0-2.67A1.66,1.66,0,0,1,96.94,72a1.21,1.21,0,0,1,1.19.6v-.53h.74v3.56a2.34,2.34,0,0,1-.1.71,1.83,1.83,0,0,1-.32.62,1.47,1.47,0,0,1-.6.44,2.51,2.51,0,0,1-.91.16,1.88,1.88,0,0,1-1.21-.41A1.46,1.46,0,0,1,95.17,76.1Zm1.88-1a1,1,0,0,0,.8-.34,1.3,1.3,0,0,0,.3-.89,1.28,1.28,0,0,0-.3-.89,1,1,0,0,0-.8-.34,1,1,0,0,0-.8.33,1.31,1.31,0,0,0-.31.9,1.29,1.29,0,0,0,.3.9A1,1,0,0,0,97.05,75.08Z"/><path class="k" d="M100.31,72.51a2,2,0,0,1,2.82,0,2,2,0,0,1,.56,1.46,2.06,2.06,0,0,1-.56,1.47,1.88,1.88,0,0,1-1.41.58,1.9,1.9,0,0,1-1.42-.58A2,2,0,0,1,99.75,74,2,2,0,0,1,100.31,72.51Zm.56,2.47a1.13,1.13,0,0,0,.85.36,1.14,1.14,0,0,0,.85-.36,1.41,1.41,0,0,0,.35-1,1.42,1.42,0,0,0-.35-1,1.14,1.14,0,0,0-.85-.36,1.13,1.13,0,0,0-.85.36,1.38,1.38,0,0,0-.35,1A1.37,1.37,0,0,0,100.87,75Z"/><path class="k" d="M105.4,73.67V75.9h-.75V72.05h.73v.55a1.42,1.42,0,0,1,2.21-.24,1.69,1.69,0,0,1,.35,1.1V75.9h-.75V73.58q0-1-.9-1a.8.8,0,0,0-.66.3A1.22,1.22,0,0,0,105.4,73.67Z"/><path class="k" d="M110.76,72.62a1.1,1.1,0,0,0-.83.36,1.34,1.34,0,0,0-.34,1,1.37,1.37,0,0,0,.34,1,1.12,1.12,0,0,0,.84.36,1,1,0,0,0,.73-.24,1.18,1.18,0,0,0,.34-.55l.66.29a1.88,1.88,0,0,1-.6.84,1.76,1.76,0,0,1-1.13.36,1.86,1.86,0,0,1-1.4-.59,2.08,2.08,0,0,1-.55-1.46,2.06,2.06,0,0,1,.55-1.47,1.85,1.85,0,0,1,1.39-.57,1.73,1.73,0,0,1,1.14.36,1.68,1.68,0,0,1,.57.86l-.68.29a1.23,1.23,0,0,0-.34-.58A.93.93,0,0,0,110.76,72.62Z"/><path class="k" d="M113.58,72.51a2,2,0,0,1,2.82,0A2,2,0,0,1,117,74a2.09,2.09,0,0,1-.55,1.47,2,2,0,0,1-2.84,0A2.09,2.09,0,0,1,113,74,2,2,0,0,1,113.58,72.51Zm.56,2.47a1.18,1.18,0,0,0,1.7,0,1.41,1.41,0,0,0,.35-1,1.42,1.42,0,0,0-.35-1,1.18,1.18,0,0,0-1.7,0,1.42,1.42,0,0,0-.35,1A1.41,1.41,0,0,0,114.14,75Z"/><path class="k" d="M118.66,75.9h-.74V72.05h.72v.51a1.14,1.14,0,0,1,.49-.46,1.48,1.48,0,0,1,.68-.16,1.3,1.3,0,0,1,.68.18,1.09,1.09,0,0,1,.47.54,1.36,1.36,0,0,1,1.29-.72,1.31,1.31,0,0,1,.94.37,1.43,1.43,0,0,1,.38,1.09v2.5h-.74V73.48a1,1,0,0,0-.2-.64.77.77,0,0,0-.62-.24.81.81,0,0,0-.64.28,1,1,0,0,0-.24.69V75.9h-.76V73.48a.93.93,0,0,0-.2-.64.76.76,0,0,0-.61-.24.85.85,0,0,0-.65.27,1,1,0,0,0-.25.71Z"/><rect class="p" x="119.49" y="138.16" width="20.82" height="6.88" rx="1"/><rect class="p" x="119.49" y="146.85" width="20.82" height="6.88" rx="1"/><rect class="p" x="119.49" y="155.53" width="20.82" height="6.88" rx="1"/><path class="p" d="M54.77,162.41H41.56a.62.62,0,0,1-.52-.68l-2.65-22.89a.7.7,0,0,1,.72-.68H57.33a.7.7,0,0,1,.71.68l-2.76,22.89C55.28,162.1,55.05,162.41,54.77,162.41Z"/><polygon class="m" points="103.17 187.42 171.79 107.17 171.79 184.52 166.94 187.42 103.17 187.42"/></symbol><symbol id="e" viewBox="0 0 174.63 187.78"><use width="180.96" height="194.59" transform="scale(0.96)" xlink:href="#b"/><rect class="q" x="8.81" y="16.59" width="157.01" height="161.8"/><rect class="r" x="49.63" y="67.31" width="13.63" height="74.61"/><rect class="s" x="82.65" y="90.91" width="13.63" height="50.63"/><rect class="t" x="115.67" y="107.17" width="13.63" height="34.75"/><path class="k" d="M53.42,153.36h-.91v-1h.91v-.59c0-1.11.56-1.66,1.8-1.66a3.76,3.76,0,0,1,.71.06v.92l-.44,0c-.59,0-.83.26-.83.78v.51h1.22v1h-1.2v4.53H53.42Z"/><path class="k" d="M57.1,152.31h1.21v.87h.09a1.47,1.47,0,0,1,1.47-1,2,2,0,0,1,.53.06v1.17a2.73,2.73,0,0,0-.65-.07,1.27,1.27,0,0,0-1.39,1.29v3.22H57.1Z"/><path class="k" d="M83.56,155.09c0-1.76.88-2.87,2.29-2.87a1.81,1.81,0,0,1,1.69,1h.09v-3h1.26v7.73H87.67V157h-.09a1.86,1.86,0,0,1-1.73,1C84.44,158,83.56,156.87,83.56,155.09Zm1.29,0c0,1.13.53,1.8,1.39,1.8s1.4-.68,1.4-1.8-.53-1.8-1.4-1.8S84.85,154,84.85,155.1Z"/><path class="k" d="M95.32,156.35A2.3,2.3,0,0,1,92.84,158c-1.64,0-2.63-1.09-2.63-2.88s1-2.92,2.62-2.92,2.55,1.05,2.55,2.81v.41h-3.9v.07a1.39,1.39,0,0,0,1.4,1.51,1.22,1.22,0,0,0,1.24-.65Zm-3.83-1.79h2.62a1.26,1.26,0,0,0-1.28-1.36A1.33,1.33,0,0,0,91.49,154.56Z"/><path class="k" d="M115.94,154.19a1.16,1.16,0,0,0-1.23-.93c-.86,0-1.38.67-1.38,1.82s.52,1.86,1.38,1.86a1.13,1.13,0,0,0,1.23-.89h1.2a2.2,2.2,0,0,1-2.42,1.95c-1.68,0-2.67-1.08-2.67-2.92s1-2.88,2.66-2.88a2.21,2.21,0,0,1,2.43,2Z"/><path class="k" d="M118.08,155.1a2.69,2.69,0,1,1,2.68,2.9A2.59,2.59,0,0,1,118.08,155.1Zm4.06,0c0-1.16-.5-1.84-1.38-1.84s-1.38.68-1.38,1.84.5,1.84,1.38,1.84S122.14,156.27,122.14,155.1Z"/><path class="k" d="M124.72,152.31h1.22v.9H126a1.57,1.57,0,0,1,1.55-1,1.54,1.54,0,0,1,1.54,1h.09a1.8,1.8,0,0,1,1.69-1,1.68,1.68,0,0,1,1.79,1.85v3.84h-1.26v-3.51q0-1.08-1-1.08a1.06,1.06,0,0,0-1.09,1.12v3.47h-1.23v-3.61a.92.92,0,0,0-1-1,1.12,1.12,0,0,0-1.09,1.2v3.39h-1.26Z"/><polyline class="p" points="33.07 44.28 33.07 141.91 150.01 141.91"/><polygon class="k" points="29.33 45.38 33.07 38.9 36.81 45.38 29.33 45.38"/><polygon class="m" points="105.64 187.42 174.26 107.17 174.26 184.52 169.41 187.42 105.64 187.42"/></symbol><symbol id="g" viewBox="0 0 174.63 187.78"><use width="180.96" height="194.59" transform="scale(0.96)" xlink:href="#b"/><rect class="u" x="8.81" y="68.81" width="157.01" height="109.58"/><rect class="v" x="8.81" y="20.1" width="157.01" height="42.18"/><path class="l" d="M27,29.68H25.05v5h-.49v-5H22.63v-.45H27Z"/><path class="l" d="M27.29,31.46a1.69,1.69,0,0,1,1.28-.54,1.73,1.73,0,0,1,1.29.54,2,2,0,0,1,.52,1.41,1.9,1.9,0,0,1-.52,1.39,1.73,1.73,0,0,1-1.29.54,1.67,1.67,0,0,1-1.27-.54,1.89,1.89,0,0,1-.54-1.39A1.94,1.94,0,0,1,27.29,31.46ZM27.64,34a1.25,1.25,0,0,0,.93.4,1.29,1.29,0,0,0,.94-.4,1.57,1.57,0,0,0,.4-1.12,1.59,1.59,0,0,0-.4-1.13,1.24,1.24,0,0,0-.94-.39,1.21,1.21,0,0,0-.93.39,1.6,1.6,0,0,0-.41,1.13A1.58,1.58,0,0,0,27.64,34Z"/><path class="l" d="M31.65,31.8a.38.38,0,0,1-.4-.4.39.39,0,0,1,.4-.41.41.41,0,0,1,.41.41.39.39,0,0,1-.41.4Zm.3,2.82a.4.4,0,0,1-.29.12.38.38,0,0,1-.29-.12.38.38,0,0,1-.11-.29.39.39,0,0,1,.11-.29.38.38,0,0,1,.29-.12.41.41,0,0,1,.41.41A.38.38,0,0,1,32,34.62Z"/><path class="l" d="M34.92,33.72l.43-.14a.92.92,0,0,0,.31.6,1,1,0,0,0,.7.22.92.92,0,0,0,.59-.18.56.56,0,0,0,.23-.47c0-.33-.2-.54-.62-.63L35.94,33c-.59-.14-.89-.46-.89-1a1,1,0,0,1,.37-.76,1.32,1.32,0,0,1,.88-.32,1.38,1.38,0,0,1,.94.33,1.27,1.27,0,0,1,.37.65l-.41.16a1,1,0,0,0-.26-.51,1,1,0,0,0-.64-.23.85.85,0,0,0-.55.18.57.57,0,0,0-.24.47c0,.3.19.49.56.59l.61.13c.64.15,1,.49,1,1a1,1,0,0,1-.33.74,1.33,1.33,0,0,1-1,.34,1.45,1.45,0,0,1-1-.34A1.22,1.22,0,0,1,34.92,33.72Z"/><path class="l" d="M41.33,33.52l.41.14a1.65,1.65,0,0,1-.56.8,1.8,1.8,0,0,1-2.31-.17,1.94,1.94,0,0,1-.53-1.44,2,2,0,0,1,.51-1.4A1.56,1.56,0,0,1,40,30.92a1.64,1.64,0,0,1,1.27.53,2,2,0,0,1,.45,1.33,1.31,1.31,0,0,1,0,.17H38.81v0a1.42,1.42,0,0,0,.39,1,1.3,1.3,0,0,0,1.72.12A1.29,1.29,0,0,0,41.33,33.52Zm-2.5-1h2.45a1.28,1.28,0,0,0-.34-.88,1.26,1.26,0,0,0-1.74,0A1.36,1.36,0,0,0,38.83,32.57Z"/><path class="l" d="M43.2,34.7h-.46V29.13h.46v2.6a1.31,1.31,0,0,1,.45-.54,1.64,1.64,0,0,1,2.11.29,2,2,0,0,1,.44,1.37,2,2,0,0,1-.45,1.38,1.54,1.54,0,0,1-1.23.57A1.41,1.41,0,0,1,43.2,34ZM45.38,34a1.67,1.67,0,0,0,.35-1.1,1.61,1.61,0,0,0-.35-1.09,1.13,1.13,0,0,0-.92-.42,1.1,1.1,0,0,0-.91.42,1.65,1.65,0,0,0-.36,1.09,1.67,1.67,0,0,0,.36,1.1,1.09,1.09,0,0,0,.91.44A1.12,1.12,0,0,0,45.38,34Z"/><path class="l" d="M52.1,33a1.22,1.22,0,0,1-1,.55.77.77,0,0,1-.51-.17.63.63,0,0,1-.22-.44,1,1,0,0,1-1,.61,1,1,0,0,1-.8-.35,1.31,1.31,0,0,1-.33-.94,1.82,1.82,0,0,1,.43-1.22,1.36,1.36,0,0,1,1.05-.51,1,1,0,0,1,.56.16.72.72,0,0,1,.3.46l.09-.53h.4l-.39,1.93c0,.14,0,.21,0,.21,0,.29.14.44.42.44a.83.83,0,0,0,.69-.47,2,2,0,0,0,.32-1.13,2.09,2.09,0,0,0-.61-1.49,2.32,2.32,0,0,0-1.72-.66,2.43,2.43,0,0,0-1.79.74,2.63,2.63,0,0,0-.73,1.9A2.48,2.48,0,0,0,48,34a2.76,2.76,0,0,0,3.71,0l.21.26a2.77,2.77,0,0,1-.91.6,3.54,3.54,0,0,1-1.12.2,3,3,0,0,1-2.16-.81,2.85,2.85,0,0,1-.83-2.1A2.94,2.94,0,0,1,47.75,30a2.86,2.86,0,0,1,2.06-.85,2.75,2.75,0,0,1,2,.76,2.35,2.35,0,0,1,.74,1.74A2.3,2.3,0,0,1,52.1,33Zm-1.86-.28a2.13,2.13,0,0,0,.26-1,.84.84,0,0,0-.19-.59.68.68,0,0,0-.55-.22.91.91,0,0,0-.74.39,1.4,1.4,0,0,0-.31.92,1.12,1.12,0,0,0,.19.68.66.66,0,0,0,.58.29A.87.87,0,0,0,50.24,32.76Z"/><path class="l" d="M53.94,34.7h-.47V29.13h.47Z"/><path class="l" d="M57.92,33.52l.41.14a1.65,1.65,0,0,1-.56.8,1.8,1.8,0,0,1-2.31-.17,1.94,1.94,0,0,1-.53-1.44,2.07,2.07,0,0,1,.5-1.4,1.59,1.59,0,0,1,1.2-.53,1.64,1.64,0,0,1,1.27.53,2,2,0,0,1,.45,1.33,1.31,1.31,0,0,1,0,.17H55.4v0a1.42,1.42,0,0,0,.39,1,1.3,1.3,0,0,0,1.72.12A1.29,1.29,0,0,0,57.92,33.52Zm-2.5-1h2.45a1.28,1.28,0,0,0-.34-.88,1.26,1.26,0,0,0-1.74,0A1.36,1.36,0,0,0,55.42,32.57Z"/><path class="l" d="M61.34,31h.49l1.1,3.11,1-3.11h.49L63.18,34.7h-.5l-1.11-3.11L60.48,34.7H60L58.75,31h.51l1,3.11Z"/><path class="l" d="M65.21,34.47a.9.9,0,0,1-.32-.72q0-.89,1.11-1.08l1-.15q.39-.08.39-.36a.79.79,0,0,0-.24-.61,1,1,0,0,0-.69-.23,1.08,1.08,0,0,0-.71.23.91.91,0,0,0-.31.64l-.45-.1a1.22,1.22,0,0,1,.47-.85,1.58,1.58,0,0,1,1-.32,1.44,1.44,0,0,1,1,.37,1.27,1.27,0,0,1,.34.91v1.87a4.23,4.23,0,0,0,0,.63h-.45a3,3,0,0,1,0-.63,1.21,1.21,0,0,1-.46.49,1.45,1.45,0,0,1-.83.24A1.24,1.24,0,0,1,65.21,34.47Zm.16-.74a.62.62,0,0,0,.21.47.77.77,0,0,0,.58.2,1.2,1.2,0,0,0,.87-.32,1.15,1.15,0,0,0,.34-.88v-.44a.74.74,0,0,1-.19.08l-.3.07-.81.12C65.6,33.1,65.37,33.33,65.37,33.73Z"/><path class="l" d="M68.71,34.91l.43-.11a1.18,1.18,0,0,0,.38.75,1.16,1.16,0,0,0,.81.31,1.14,1.14,0,0,0,1-.42,1.63,1.63,0,0,0,.27-1v-.68a1.14,1.14,0,0,1-.43.51,1.34,1.34,0,0,1-.81.23A1.52,1.52,0,0,1,69.17,34a1.74,1.74,0,0,1-.46-1.27,1.84,1.84,0,0,1,.45-1.27,1.54,1.54,0,0,1,1.19-.51,1.42,1.42,0,0,1,.8.21,1.15,1.15,0,0,1,.45.53V31h.46v3.41a2.08,2.08,0,0,1-.36,1.25,1.63,1.63,0,0,1-1.38.59,1.68,1.68,0,0,1-1.11-.38A1.46,1.46,0,0,1,68.71,34.91Zm.81-1.2a1.14,1.14,0,0,0,.89.39,1.12,1.12,0,0,0,.88-.39,1.48,1.48,0,0,0,.33-1,1.45,1.45,0,0,0-.33-1,1.12,1.12,0,0,0-.88-.39,1.13,1.13,0,0,0-.89.38,1.44,1.44,0,0,0-.34,1A1.4,1.4,0,0,0,69.52,33.71Z"/><path class="l" d="M73.5,31.46a1.69,1.69,0,0,1,1.28-.54,1.73,1.73,0,0,1,1.29.54,2,2,0,0,1,.52,1.41,1.9,1.9,0,0,1-.52,1.39,1.73,1.73,0,0,1-1.29.54,1.69,1.69,0,0,1-1.27-.54A1.89,1.89,0,0,1,73,32.87,1.94,1.94,0,0,1,73.5,31.46ZM73.85,34a1.25,1.25,0,0,0,.93.4,1.27,1.27,0,0,0,.94-.4,1.57,1.57,0,0,0,.4-1.12,1.59,1.59,0,0,0-.4-1.13,1.23,1.23,0,0,0-.94-.39,1.21,1.21,0,0,0-.93.39,1.6,1.6,0,0,0-.41,1.13A1.58,1.58,0,0,0,73.85,34Z"/><path class="l" d="M78.05,32.5v2.2h-.47V31H78v.63a1.38,1.38,0,0,1,2.18-.32,1.45,1.45,0,0,1,.32,1v2.4h-.46V32.38a1.05,1.05,0,0,0-.24-.73,1,1,0,0,0-.76-.3,1,1,0,0,0-.75.34A1.24,1.24,0,0,0,78.05,32.5Z"/><path class="l" d="M82.09,34.74a.36.36,0,0,1-.28-.12.38.38,0,0,1-.12-.29.4.4,0,0,1,.12-.29.36.36,0,0,1,.28-.12.37.37,0,0,1,.29.12.4.4,0,0,1,.12.29.38.38,0,0,1-.12.29A.37.37,0,0,1,82.09,34.74Z"/><path class="l" d="M85.81,31.63a1.15,1.15,0,0,0-.8-.28,1.19,1.19,0,0,0-.94.4,1.61,1.61,0,0,0-.4,1.12,1.55,1.55,0,0,0,.4,1.1,1.29,1.29,0,0,0,1.76.12,1.34,1.34,0,0,0,.38-.61l.41.17a1.58,1.58,0,0,1-.54.79,1.79,1.79,0,0,1-2.36-.18,1.94,1.94,0,0,1-.52-1.39,2,2,0,0,1,.52-1.41A1.73,1.73,0,0,1,85,30.92a1.65,1.65,0,0,1,1.06.35,1.57,1.57,0,0,1,.51.81l-.4.17A1.49,1.49,0,0,0,85.81,31.63Z"/><path class="l" d="M87.72,31.46A1.69,1.69,0,0,1,89,30.92a1.73,1.73,0,0,1,1.29.54,2,2,0,0,1,.52,1.41,1.9,1.9,0,0,1-.52,1.39A1.73,1.73,0,0,1,89,34.8a1.69,1.69,0,0,1-1.27-.54,1.89,1.89,0,0,1-.54-1.39A1.94,1.94,0,0,1,87.72,31.46ZM88.07,34a1.25,1.25,0,0,0,.93.4,1.27,1.27,0,0,0,.94-.4,1.57,1.57,0,0,0,.4-1.12,1.59,1.59,0,0,0-.4-1.13,1.23,1.23,0,0,0-.94-.39,1.21,1.21,0,0,0-.93.39,1.59,1.59,0,0,0-.4,1.13A1.57,1.57,0,0,0,88.07,34Z"/><path class="l" d="M92.26,34.7H91.8V31h.45v.61a1.13,1.13,0,0,1,.45-.5,1.32,1.32,0,0,1,.72-.2,1.25,1.25,0,0,1,.75.22,1.1,1.1,0,0,1,.41.61,1.27,1.27,0,0,1,1.27-.83,1.29,1.29,0,0,1,.91.35,1.39,1.39,0,0,1,.36,1V34.7h-.46V32.33a1,1,0,0,0-.25-.71.85.85,0,0,0-.69-.28,1,1,0,0,0-.74.32,1.17,1.17,0,0,0-.29.79V34.7h-.46V32.33a1,1,0,0,0-.25-.72.87.87,0,0,0-.69-.27,1,1,0,0,0-.75.32,1.16,1.16,0,0,0-.28.79Z"/><path class="l" d="M26.76,48.87l-1,.29a1.06,1.06,0,0,0-.3-.53.93.93,0,0,0-.7-.24.91.91,0,0,0-.62.21.61.61,0,0,0-.23.49c0,.33.19.54.59.61l.76.15a2,2,0,0,1,1.13.58,1.47,1.47,0,0,1,.4,1,1.6,1.6,0,0,1-.53,1.19,2,2,0,0,1-1.44.51,2.76,2.76,0,0,1-.94-.16,1.77,1.77,0,0,1-.67-.41,2.27,2.27,0,0,1-.4-.55,1.79,1.79,0,0,1-.17-.6l1-.26a1.09,1.09,0,0,0,.34.73,1.16,1.16,0,0,0,.85.3,1.08,1.08,0,0,0,.66-.19.61.61,0,0,0,.23-.49.58.58,0,0,0-.17-.41,1,1,0,0,0-.49-.24l-.77-.15a1.9,1.9,0,0,1-1.05-.55,1.45,1.45,0,0,1-.38-1,1.55,1.55,0,0,1,.56-1.22,1.94,1.94,0,0,1,1.34-.49,2.49,2.49,0,0,1,.85.13,1.78,1.78,0,0,1,.59.35,2,2,0,0,1,.35.45A2.22,2.22,0,0,1,26.76,48.87Z"/><path class="l" d="M30,53a2.22,2.22,0,0,1,0-.41.85.85,0,0,1-.43.38,1.47,1.47,0,0,1-.62.13,1.32,1.32,0,0,1-1.05-.43,1.52,1.52,0,0,1-.39-1.07v-2.4h1v2.19a.91.91,0,0,0,.17.56.66.66,0,0,0,.52.21.69.69,0,0,0,.53-.21.79.79,0,0,0,.19-.54V49.24h1v3.11q0,.36,0,.69Z"/><path class="l" d="M33.08,53h-1V47.45h1v2.21a1.06,1.06,0,0,1,.45-.37,1.57,1.57,0,0,1,.7-.15,1.59,1.59,0,0,1,1.28.56,2.33,2.33,0,0,1,0,2.86,1.63,1.63,0,0,1-1.3.57,1.21,1.21,0,0,1-1.12-.55Zm1.62-1.12a1.1,1.1,0,0,0,.27-.79,1.13,1.13,0,0,0-.27-.79,1,1,0,0,0-1.35,0,1.13,1.13,0,0,0-.27.79,1.1,1.1,0,0,0,.27.79.87.87,0,0,0,.68.29A.85.85,0,0,0,34.7,51.92Z"/><path class="l" d="M36.81,53.27v-4h1v4.13a1.24,1.24,0,0,1-.32.9,1.12,1.12,0,0,1-.87.35,1.75,1.75,0,0,1-.58-.08v-.86a1.27,1.27,0,0,0,.32,0A.39.39,0,0,0,36.81,53.27Zm.06-4.84a.56.56,0,0,1-.19-.44.61.61,0,0,1,.19-.45.58.58,0,0,1,.45-.19.58.58,0,0,1,.44.19A.58.58,0,0,1,38,48a.56.56,0,0,1-.19.44.62.62,0,0,1-.89,0Z"/><path class="l" d="M41.48,51.7l.85.25a1.64,1.64,0,0,1-.6.87,1.87,1.87,0,0,1-1.13.34,1.95,1.95,0,0,1-2-2,2,2,0,0,1,.56-1.44,2,2,0,0,1,2.69,0,2,2,0,0,1,.5,1.44.71.71,0,0,1,0,.14v.18H39.65A.88.88,0,0,0,40,52a1,1,0,0,0,.66.24A.84.84,0,0,0,41.48,51.7Zm-1.8-1h1.7a.83.83,0,0,0-.23-.54.85.85,0,0,0-.62-.21.81.81,0,0,0-.6.23A.76.76,0,0,0,39.68,50.71Z"/><path class="l" d="M44.9,50.07a.91.91,0,0,0-.68.29,1.23,1.23,0,0,0,0,1.56.91.91,0,0,0,.69.29.83.83,0,0,0,.58-.19.92.92,0,0,0,.3-.45l.9.3a1.76,1.76,0,0,1-1.78,1.29,2,2,0,0,1-1.42-.58,1.92,1.92,0,0,1-.58-1.44,2,2,0,0,1,.57-1.44,1.91,1.91,0,0,1,1.4-.57,1.82,1.82,0,0,1,1.19.37,1.67,1.67,0,0,1,.6.91l-.92.31A.82.82,0,0,0,44.9,50.07Z"/><path class="l" d="M48.71,48.11v1.13h.77v.91h-.77v1.59a.38.38,0,0,0,.45.44,1.33,1.33,0,0,0,.32,0V53a1.61,1.61,0,0,1-.58.09,1.2,1.2,0,0,1-.88-.31,1.12,1.12,0,0,1-.33-.86V50.15H47v-.91h.19a.54.54,0,0,0,.43-.16.65.65,0,0,0,.15-.44v-.53Z"/><path class="l" d="M50.53,50.37a.7.7,0,0,1,0-1,.66.66,0,0,1,.49-.2.66.66,0,0,1,.5.2.7.7,0,0,1-1,1Zm0,2.52a.66.66,0,0,1-.2-.48.68.68,0,0,1,.2-.49.67.67,0,0,1,.49-.21.69.69,0,0,1,.5.21.68.68,0,0,1,.2.49.66.66,0,0,1-.2.48.68.68,0,0,1-.5.2A.66.66,0,0,1,50.54,52.89Z"/><path class="l" d="M54.44,50.31a2.72,2.72,0,0,1,.83-2.07,2.89,2.89,0,0,1,4,0,3,3,0,0,1,0,4.13,2.89,2.89,0,0,1-4,0A2.73,2.73,0,0,1,54.44,50.31ZM56.05,49a2,2,0,0,0,0,2.7,1.77,1.77,0,0,0,2.4,0,2,2,0,0,0,0-2.7,1.77,1.77,0,0,0-2.4,0Z"/><path class="l" d="M63.4,53a2.22,2.22,0,0,1,0-.41.87.87,0,0,1-.44.38,1.39,1.39,0,0,1-.61.13,1.34,1.34,0,0,1-1.06-.43,1.56,1.56,0,0,1-.38-1.07v-2.4h1v2.19a.86.86,0,0,0,.18.56.64.64,0,0,0,.52.21.66.66,0,0,0,.52-.21.75.75,0,0,0,.2-.54V49.24h1v3.11c0,.24,0,.47,0,.69Z"/><path class="l" d="M67.76,49.23v1l-.31,0a1,1,0,0,0-.71.25,1.08,1.08,0,0,0-.27.82V53h-1v-3.8h1v.56a1.07,1.07,0,0,1,1.08-.59A1.25,1.25,0,0,1,67.76,49.23Z"/><path class="l" d="M72.52,49.24H73.6l.82,2.45.7-2.45h1L75,53h-1L73,50.45,72.16,53h-1l-1.21-3.8H71l.7,2.44Z"/><path class="l" d="M79.23,51.7l.85.25a1.64,1.64,0,0,1-.6.87,1.86,1.86,0,0,1-1.12.34A1.92,1.92,0,0,1,77,52.6a2,2,0,0,1-.58-1.48A2,2,0,0,1,77,49.68a2,2,0,0,1,2.69,0,2,2,0,0,1,.5,1.44v.14a.66.66,0,0,0,0,.13v0H77.41a.83.83,0,0,0,.29.62,1,1,0,0,0,.66.24A.84.84,0,0,0,79.23,51.7Zm-1.8-1h1.7a.83.83,0,0,0-.23-.54.85.85,0,0,0-.62-.21.81.81,0,0,0-.6.23A.76.76,0,0,0,77.43,50.71Z"/><path class="l" d="M82,53H81V47.45h1v2.21a1,1,0,0,1,.44-.37,1.61,1.61,0,0,1,.71-.15,1.59,1.59,0,0,1,1.28.56,2.37,2.37,0,0,1,0,2.86,1.63,1.63,0,0,1-1.3.57A1.21,1.21,0,0,1,82,52.58Zm1.62-1.12a1.1,1.1,0,0,0,.27-.79,1.13,1.13,0,0,0-.27-.79,1,1,0,0,0-1.35,0,1.13,1.13,0,0,0-.27.79,1.1,1.1,0,0,0,.27.79.93.93,0,0,0,1.35,0Z"/><path class="l" d="M85.35,52l.88-.19a.6.6,0,0,0,.2.41.7.7,0,0,0,.5.17.6.6,0,0,0,.37-.11.35.35,0,0,0,.13-.27c0-.19-.14-.32-.41-.37l-.5-.12a1.36,1.36,0,0,1-.8-.41,1.06,1.06,0,0,1-.27-.72,1.13,1.13,0,0,1,.41-.88,1.45,1.45,0,0,1,1-.36,1.8,1.8,0,0,1,.68.11,1.2,1.2,0,0,1,.46.28,1.69,1.69,0,0,1,.24.35,1,1,0,0,1,.11.35l-.86.19a.62.62,0,0,0-.18-.35.61.61,0,0,0-.44-.16.53.53,0,0,0-.34.11.33.33,0,0,0-.15.27c0,.19.12.3.35.34l.54.12a1.59,1.59,0,0,1,.84.42,1.08,1.08,0,0,1,.29.74,1.16,1.16,0,0,1-.39.88,1.5,1.5,0,0,1-1.09.38,2,2,0,0,1-.71-.12,1.22,1.22,0,0,1-.49-.31,1.68,1.68,0,0,1-.27-.38A1.4,1.4,0,0,1,85.35,52Z"/><path class="l" d="M89.11,48a.58.58,0,0,1,.19-.45.58.58,0,0,1,.44-.19.61.61,0,0,1,.45.18.66.66,0,0,1,.19.46.63.63,0,0,1-.19.44.61.61,0,0,1-.45.18.6.6,0,0,1-.44-.18A.59.59,0,0,1,89.11,48Zm1.15,5h-1v-3.8h1Z"/><path class="l" d="M92.62,48.11v1.13h.77v.91h-.77v1.59a.46.46,0,0,0,.11.34.48.48,0,0,0,.34.1,1.33,1.33,0,0,0,.32,0V53a1.61,1.61,0,0,1-.58.09,1.2,1.2,0,0,1-.88-.31,1.12,1.12,0,0,1-.33-.86V50.15h-.68v-.91h.19a.58.58,0,0,0,.44-.16.65.65,0,0,0,.15-.44v-.53Z"/><path class="l" d="M96.77,51.7l.85.25a1.64,1.64,0,0,1-.6.87,1.86,1.86,0,0,1-1.12.34,1.92,1.92,0,0,1-1.39-.56,2,2,0,0,1-.58-1.48,2,2,0,0,1,.56-1.44,2,2,0,0,1,2.69,0,2,2,0,0,1,.5,1.44v.14a.66.66,0,0,0,0,.13v0H95a.83.83,0,0,0,.29.62,1,1,0,0,0,.66.24A.84.84,0,0,0,96.77,51.7Zm-1.8-1h1.7a.83.83,0,0,0-.23-.54.85.85,0,0,0-.62-.21.81.81,0,0,0-.6.23A.76.76,0,0,0,95,50.71Z"/><path class="l" d="M100.27,48a.62.62,0,0,1,.19-.45.58.58,0,0,1,.45-.19.6.6,0,0,1,.44.18.62.62,0,0,1,.19.46.59.59,0,0,1-.19.44.6.6,0,0,1-.44.18.61.61,0,0,1-.45-.18A.63.63,0,0,1,100.27,48Zm1.15,5h-1v-3.8h1Z"/><path class="l" d="M102.2,52l.88-.19a.59.59,0,0,0,.19.41.72.72,0,0,0,.5.17.58.58,0,0,0,.37-.11.32.32,0,0,0,.13-.27c0-.19-.13-.32-.41-.37l-.5-.12a1.42,1.42,0,0,1-.8-.41,1.1,1.1,0,0,1-.26-.72,1.12,1.12,0,0,1,.4-.88,1.48,1.48,0,0,1,1-.36,1.83,1.83,0,0,1,.68.11,1.24,1.24,0,0,1,.45.28,1.77,1.77,0,0,1,.25.35,1.28,1.28,0,0,1,.11.35l-.86.19a.62.62,0,0,0-.18-.35.61.61,0,0,0-.45-.16.58.58,0,0,0-.34.11.35.35,0,0,0-.14.27c0,.19.11.3.35.34l.54.12a1.59,1.59,0,0,1,.83.42,1,1,0,0,1,.29.74,1.19,1.19,0,0,1-.38.88,1.5,1.5,0,0,1-1.09.38,2,2,0,0,1-.72-.12,1.38,1.38,0,0,1-.49-.31,1.61,1.61,0,0,1-.26-.38A1.11,1.11,0,0,1,102.2,52Z"/><path class="l" d="M108.27,49.7a1.92,1.92,0,0,1,1.42-.57,1.94,1.94,0,0,1,1.43.57,2.13,2.13,0,0,1,0,2.88,2,2,0,0,1-1.43.58,1.93,1.93,0,0,1-1.42-.58,2.1,2.1,0,0,1,0-2.88Zm.74,2.24a.91.91,0,0,0,.68.28.94.94,0,0,0,.69-.28,1.13,1.13,0,0,0,.28-.8,1.14,1.14,0,0,0-.28-.8.94.94,0,0,0-.69-.28.91.91,0,0,0-.68.28,1.1,1.1,0,0,0-.28.8A1.08,1.08,0,0,0,109,51.94Z"/><path class="l" d="M113.52,50.85V53h-1v-3.8h1v.47a1,1,0,0,1,.46-.42,1.43,1.43,0,0,1,.64-.15,1.26,1.26,0,0,1,1,.42,1.66,1.66,0,0,1,.35,1.09V53h-1V50.82a.78.78,0,0,0-.17-.54.65.65,0,0,0-.53-.21.66.66,0,0,0-.52.22A.88.88,0,0,0,113.52,50.85Z"/><path class="l" d="M118,53h-1V47.45h1Z"/><path class="l" d="M119,48a.65.65,0,0,1,.64-.64.6.6,0,0,1,.44.18.62.62,0,0,1,.19.46.59.59,0,0,1-.19.44.6.6,0,0,1-.44.18.61.61,0,0,1-.45-.18A.59.59,0,0,1,119,48Zm1.15,5h-1v-3.8h1Z"/><path class="l" d="M122.28,50.85V53h-1v-3.8h1v.47a1,1,0,0,1,.46-.42,1.39,1.39,0,0,1,.63-.15,1.24,1.24,0,0,1,1,.42,1.61,1.61,0,0,1,.36,1.09V53h-1V50.82a.83.83,0,0,0-.17-.54.66.66,0,0,0-.53-.21.65.65,0,0,0-.52.22A.83.83,0,0,0,122.28,50.85Z"/><path class="l" d="M128.31,51.7l.85.25a1.64,1.64,0,0,1-.6.87,1.87,1.87,0,0,1-1.13.34,1.93,1.93,0,0,1-2-2,2,2,0,0,1,.56-1.44,2,2,0,0,1,2.69,0,2,2,0,0,1,.5,1.44.71.71,0,0,1,0,.14v.18h-2.72a.84.84,0,0,0,.3.62,1,1,0,0,0,.66.24A.84.84,0,0,0,128.31,51.7Zm-1.8-1h1.7a.83.83,0,0,0-.23-.54,1,1,0,0,0-1.23,0A.79.79,0,0,0,126.51,50.71Z"/><path class="l" d="M131.39,47.57l-.25,3.8h-.75l-.25-3.8Zm-1,5.35a.58.58,0,0,1-.18-.43.62.62,0,0,1,.18-.44.58.58,0,0,1,.42-.18.6.6,0,0,1,.44.18.62.62,0,0,1,.18.44.58.58,0,0,1-.18.43.6.6,0,0,1-.44.18A.58.58,0,0,1,130.34,52.92Z"/><path class="k" d="M25.37,87.06H23.23V80.91h2.15a2.87,2.87,0,0,1,2.09.82A3,3,0,0,1,28.31,84a2.85,2.85,0,0,1-2.94,3.06Zm-1.29-.75h1.26a2,2,0,0,0,1.5-.6A2.35,2.35,0,0,0,27.43,84a2.38,2.38,0,0,0-.58-1.73,2,2,0,0,0-1.49-.61H24.08Z"/><path class="k" d="M32.33,85.63l.7.24a1.79,1.79,0,0,1-.67.95,1.93,1.93,0,0,1-1.2.37,2,2,0,0,1-1.49-.6,2.45,2.45,0,0,1,0-3.21,1.85,1.85,0,0,1,1.4-.63,1.87,1.87,0,0,1,1.48.6,2.33,2.33,0,0,1,.53,1.59,1,1,0,0,1,0,.26H29.9a1.26,1.26,0,0,0,.37.92,1.25,1.25,0,0,0,.89.35A1.13,1.13,0,0,0,32.33,85.63Zm-2.4-1.09h2.28a1.1,1.1,0,0,0-.31-.76,1.14,1.14,0,0,0-.84-.3,1.09,1.09,0,0,0-.8.31A1.12,1.12,0,0,0,29.93,84.54Z"/><path class="k" d="M33.84,85.94a1.13,1.13,0,0,1,.35-.86,1.67,1.67,0,0,1,.92-.41l1.13-.16c.21,0,.32-.13.32-.31a.71.71,0,0,0-.23-.54.94.94,0,0,0-.67-.21.89.89,0,0,0-.95.84l-.78-.18a1.35,1.35,0,0,1,.55-1,1.84,1.84,0,0,1,1.16-.38,1.79,1.79,0,0,1,1.31.43,1.53,1.53,0,0,1,.43,1.1v2.1a3.62,3.62,0,0,0,0,.68h-.8a3.28,3.28,0,0,1,0-.56,1.55,1.55,0,0,1-1.35.69,1.4,1.4,0,0,1-1-.37A1.16,1.16,0,0,1,33.84,85.94Zm1.51.57a1.25,1.25,0,0,0,.88-.3,1.21,1.21,0,0,0,.33-.94v-.19l-1.28.19a.86.86,0,0,0-.44.2.62.62,0,0,0,0,.85A.66.66,0,0,0,35.35,86.51Z"/><path class="k" d="M41,82.84v.87l-.35,0c-.77,0-1.15.43-1.15,1.29v2.09h-.82V82.88h.8v.73a1.29,1.29,0,0,1,1.25-.79A1.14,1.14,0,0,1,41,82.84Z"/><path class="k" d="M48,82.3l-.77.27a1.26,1.26,0,0,0-.39-.72,1.39,1.39,0,0,0-1.76,0,.91.91,0,0,0-.34.73.88.88,0,0,0,.2.57,1.06,1.06,0,0,0,.59.32l.92.2a2.2,2.2,0,0,1,1.18.62,1.58,1.58,0,0,1,.42,1.11,1.67,1.67,0,0,1-.59,1.28,2.21,2.21,0,0,1-1.54.54,2.3,2.3,0,0,1-1.62-.54,2.05,2.05,0,0,1-.68-1.29l.81-.26a1.51,1.51,0,0,0,.44.94,1.41,1.41,0,0,0,1,.38,1.39,1.39,0,0,0,.94-.28.87.87,0,0,0,.33-.7.85.85,0,0,0-.24-.6,1.2,1.2,0,0,0-.68-.36l-.88-.19a2,2,0,0,1-1.09-.58,1.52,1.52,0,0,1-.41-1.1,1.7,1.7,0,0,1,.59-1.28,2.29,2.29,0,0,1,2.89-.09A2,2,0,0,1,48,82.3Z"/><path class="k" d="M52,85.63l.71.24a1.87,1.87,0,0,1-.68.95,1.93,1.93,0,0,1-1.2.37,2,2,0,0,1-1.49-.6,2.45,2.45,0,0,1,0-3.21,2,2,0,0,1,2.88,0,2.28,2.28,0,0,1,.53,1.59,1,1,0,0,1,0,.26H49.57a1.3,1.3,0,0,0,.37.92,1.25,1.25,0,0,0,.89.35A1.12,1.12,0,0,0,52,85.63Zm-2.4-1.09h2.28a1.1,1.1,0,0,0-.31-.76,1.14,1.14,0,0,0-.84-.3,1.09,1.09,0,0,0-.8.31A1.12,1.12,0,0,0,49.6,84.54Z"/><path class="k" d="M54.58,87.06h-.81V80.77h.81v2.71a1.25,1.25,0,0,1,.53-.51,1.65,1.65,0,0,1,.85-.21,1.74,1.74,0,0,1,1.42.62,2.72,2.72,0,0,1,0,3.17,1.75,1.75,0,0,1-1.42.63,1.44,1.44,0,0,1-1.36-.73Zm2.13-1A1.69,1.69,0,0,0,57.05,85a1.56,1.56,0,0,0-.34-1.07,1.12,1.12,0,0,0-.9-.4,1.15,1.15,0,0,0-.89.4,1.83,1.83,0,0,0,0,2.15,1.1,1.1,0,0,0,.89.42A1.13,1.13,0,0,0,56.71,86Z"/><path class="k" d="M58.71,86.51a.54.54,0,0,1,.18-.41.61.61,0,0,1,.45-.18.68.68,0,0,1,.5.22.85.85,0,0,1,.2.61,1.7,1.7,0,0,1-.4,1.21,1.44,1.44,0,0,1-.88.48V88a.81.81,0,0,0,.51-.34,1.09,1.09,0,0,0,.21-.6.31.31,0,0,1-.19,0,.61.61,0,0,1-.42-.16A.57.57,0,0,1,58.71,86.51Z"/><path class="k" d="M25.9,112.28a3,3,0,0,1-2.16-.87,3.09,3.09,0,0,1-.9-2.34,3.32,3.32,0,0,1,.45-1.74,2.89,2.89,0,0,1,1.14-1.11,3.1,3.1,0,0,1,1.47-.36,2.86,2.86,0,0,1,1.75.53,2.45,2.45,0,0,1,1,1.43l-.79.28a1.85,1.85,0,0,0-.66-1.08,2,2,0,0,0-1.25-.37,2.13,2.13,0,0,0-1.55.63,2.82,2.82,0,0,0,0,3.58,2.1,2.1,0,0,0,1.55.64,1.91,1.91,0,0,0,1.25-.4,2.08,2.08,0,0,0,.71-1.08l.75.28a2.63,2.63,0,0,1-1,1.44A2.85,2.85,0,0,1,25.9,112.28Z"/><path class="k" d="M29.74,108.47a2.17,2.17,0,0,1,3.06,0,2.18,2.18,0,0,1,.61,1.59,2.21,2.21,0,0,1-.6,1.59,2.2,2.2,0,0,1-3.08,0,2.42,2.42,0,0,1,0-3.18Zm.61,2.69a1.23,1.23,0,0,0,.92.39,1.25,1.25,0,0,0,.93-.39,1.54,1.54,0,0,0,.37-1.1A1.52,1.52,0,0,0,32.2,109a1.26,1.26,0,0,0-.93-.4,1.24,1.24,0,0,0-.92.4,1.48,1.48,0,0,0-.38,1.09A1.5,1.5,0,0,0,30.35,111.16Z"/><path class="k" d="M35.26,112.15h-.81V108h.78v.56a1.24,1.24,0,0,1,.54-.5,1.55,1.55,0,0,1,.73-.18,1.5,1.5,0,0,1,.75.2,1.26,1.26,0,0,1,.5.59,1.5,1.5,0,0,1,1.4-.79,1.42,1.42,0,0,1,1,.41,1.57,1.57,0,0,1,.42,1.18v2.71h-.81v-2.62a1,1,0,0,0-.22-.69.81.81,0,0,0-.66-.27.89.89,0,0,0-.7.3,1.09,1.09,0,0,0-.27.76v2.52h-.81v-2.62a1,1,0,0,0-.23-.69.78.78,0,0,0-.66-.27.89.89,0,0,0-.7.3,1.09,1.09,0,0,0-.27.76Z"/><path class="k" d="M44.83,110.72l.7.24a1.81,1.81,0,0,1-.68,1,1.9,1.9,0,0,1-1.19.37,2,2,0,0,1-1.49-.6,2.18,2.18,0,0,1-.61-1.63,2.22,2.22,0,0,1,.58-1.58,2,2,0,0,1,2.89,0,2.33,2.33,0,0,1,.53,1.59,1.72,1.72,0,0,1,0,.26H42.4a1.26,1.26,0,0,0,.37.92,1.23,1.23,0,0,0,.89.35A1.13,1.13,0,0,0,44.83,110.72Zm-2.41-1.09h2.29a1.06,1.06,0,0,0-.32-.76,1.24,1.24,0,0,0-1.63,0A1.14,1.14,0,0,0,42.42,109.63Z"/><path class="k" d="M48.51,111a1.11,1.11,0,0,1,.35-.86,1.67,1.67,0,0,1,.92-.41l1.13-.16c.21,0,.32-.13.32-.31a.71.71,0,0,0-.23-.54.94.94,0,0,0-.67-.21.89.89,0,0,0-.95.84l-.78-.18a1.37,1.37,0,0,1,.54-1,1.89,1.89,0,0,1,1.17-.38,1.79,1.79,0,0,1,1.31.43,1.53,1.53,0,0,1,.43,1.1v2.1a3.69,3.69,0,0,0,.05.68h-.8a3.28,3.28,0,0,1,0-.56,1.55,1.55,0,0,1-1.35.69,1.4,1.4,0,0,1-1-.37A1.16,1.16,0,0,1,48.51,111Zm1.51.57a1.25,1.25,0,0,0,.88-.3,1.21,1.21,0,0,0,.33-.94v-.19l-1.28.19a.86.86,0,0,0-.44.2.58.58,0,0,0-.17.43.59.59,0,0,0,.19.42A.66.66,0,0,0,50,111.6Z"/><path class="k" d="M54.13,109.74v2.41h-.82V108h.8v.6a1.54,1.54,0,0,1,2.4-.26,1.84,1.84,0,0,1,.38,1.19v2.65h-.81v-2.51c0-.7-.33-1-1-1a.85.85,0,0,0-.71.33A1.28,1.28,0,0,0,54.13,109.74Z"/><path class="k" d="M61.12,111.59v-.07a1.41,1.41,0,0,1-.5.53,1.46,1.46,0,0,1-.79.22,1.8,1.8,0,0,1-1.44-.63,2.36,2.36,0,0,1-.54-1.59,2.28,2.28,0,0,1,.55-1.55,1.83,1.83,0,0,1,1.43-.64,1.48,1.48,0,0,1,.83.21,1.05,1.05,0,0,1,.44.5v-2.71h.81v5.52c0,.28,0,.54,0,.77h-.79A4.45,4.45,0,0,1,61.12,111.59Zm-2.44-1.54a1.7,1.7,0,0,0,.33,1.08,1,1,0,0,0,.89.41,1.06,1.06,0,0,0,.88-.42,1.73,1.73,0,0,0,.33-1.09,1.61,1.61,0,0,0-.32-1,1.08,1.08,0,0,0-.88-.4A1.11,1.11,0,0,0,59,109,1.59,1.59,0,0,0,58.68,110.05Z"/><path class="k" d="M69.05,108l-1.67,4.18h-.82L64.86,108h.92L67,111.2l1.2-3.23Z"/><path class="k" d="M69.82,106.81a.59.59,0,0,1-.17-.42.57.57,0,0,1,.17-.41.54.54,0,0,1,.41-.18.58.58,0,0,1,.59.59.59.59,0,0,1-.17.42.61.61,0,0,1-.42.17A.57.57,0,0,1,69.82,106.81Zm.82,5.34h-.81V108h.81Z"/><path class="k" d="M71.64,111.07l.74-.26a.83.83,0,0,0,.29.56,1,1,0,0,0,.68.22.83.83,0,0,0,.52-.16.5.5,0,0,0,.19-.4q0-.42-.54-.54l-.71-.15a1.35,1.35,0,0,1-.76-.42,1.08,1.08,0,0,1-.28-.75,1.18,1.18,0,0,1,.44-.93,1.47,1.47,0,0,1,1-.4A2,2,0,0,1,74,108a1.21,1.21,0,0,1,.48.31,1.77,1.77,0,0,1,.26.36,1.51,1.51,0,0,1,.13.33l-.72.27a.89.89,0,0,0-.06-.2,1,1,0,0,0-.13-.22.71.71,0,0,0-.27-.2,1,1,0,0,0-.41-.07.75.75,0,0,0-.5.16.5.5,0,0,0-.19.4c0,.26.16.43.48.5l.67.15a1.64,1.64,0,0,1,.86.44,1.15,1.15,0,0,1,.3.8,1.22,1.22,0,0,1-.41.89,1.51,1.51,0,0,1-1.12.4,1.79,1.79,0,0,1-1.21-.38A1.38,1.38,0,0,1,71.64,111.07Z"/><path class="k" d="M75.94,106.81a.59.59,0,0,1-.17-.42.57.57,0,0,1,.17-.41.54.54,0,0,1,.41-.18.59.59,0,0,1,.42.17.57.57,0,0,1,.17.42.55.55,0,0,1-.17.42.59.59,0,0,1-.42.17A.57.57,0,0,1,75.94,106.81Zm.82,5.34H76V108h.81Z"/><path class="k" d="M79.25,106.65V108h.9v.74h-.9v2.17a.61.61,0,0,0,.13.44.62.62,0,0,0,.45.14,1,1,0,0,0,.32,0v.7a1.71,1.71,0,0,1-.56.08,1.15,1.15,0,0,1-.85-.32,1.17,1.17,0,0,1-.31-.87v-2.3h-.8V108h.23a.61.61,0,0,0,.48-.17.72.72,0,0,0,.16-.47v-.68Z"/><path class="k" d="M86.16,111.65a1.06,1.06,0,0,1-.51.47,1.58,1.58,0,0,1-.72.16,1.43,1.43,0,0,1-1.14-.47,1.72,1.72,0,0,1-.43-1.2V108h.82v2.51a1.21,1.21,0,0,0,.23.78.83.83,0,0,0,.71.3.93.93,0,0,0,.74-.29,1.13,1.13,0,0,0,.25-.78V108h.82v3.41a6.23,6.23,0,0,0,0,.77h-.79A3.25,3.25,0,0,1,86.16,111.65Z"/><path class="k" d="M87.93,111.07l.74-.26a.93.93,0,0,0,.29.56,1,1,0,0,0,.68.22.83.83,0,0,0,.52-.16.5.5,0,0,0,.19-.4q0-.42-.54-.54l-.71-.15a1.35,1.35,0,0,1-.76-.42,1.08,1.08,0,0,1-.28-.75,1.21,1.21,0,0,1,.44-.93,1.48,1.48,0,0,1,1-.4,2,2,0,0,1,.71.12,1.14,1.14,0,0,1,.48.31,1.87,1.87,0,0,1,.27.36,2.26,2.26,0,0,1,.13.33l-.73.27a.89.89,0,0,0-.06-.2,1,1,0,0,0-.13-.22.64.64,0,0,0-.27-.2,1,1,0,0,0-.4-.07.73.73,0,0,0-.5.16.51.51,0,0,0-.2.4c0,.26.16.43.48.5l.68.15a1.61,1.61,0,0,1,.85.44,1.15,1.15,0,0,1,.3.8,1.2,1.2,0,0,1-.4.89,1.53,1.53,0,0,1-1.13.4,1.78,1.78,0,0,1-1.2-.38A1.4,1.4,0,0,1,87.93,111.07Z"/><path class="k" d="M92.5,112a.56.56,0,0,1,0-.8.57.57,0,1,1,.8.8.56.56,0,0,1-.8,0Zm.91-6-.22,4.39h-.58L92.39,106Z"/><path class="k" d="M25.9,137.37a3,3,0,0,1-2.16-.87,3.1,3.1,0,0,1-.9-2.34,3.32,3.32,0,0,1,.45-1.74,2.89,2.89,0,0,1,1.14-1.11A3.1,3.1,0,0,1,25.9,131a2.86,2.86,0,0,1,1.75.53,2.45,2.45,0,0,1,1,1.43l-.79.28a1.85,1.85,0,0,0-.66-1.08,2,2,0,0,0-1.25-.37,2.13,2.13,0,0,0-1.55.63,2.82,2.82,0,0,0,0,3.58,2.1,2.1,0,0,0,1.55.64,1.91,1.91,0,0,0,1.25-.4,2.08,2.08,0,0,0,.71-1.08l.75.28a2.63,2.63,0,0,1-1,1.44A2.85,2.85,0,0,1,25.9,137.37Z"/><path class="k" d="M30.39,134.78v2.46h-.82V131h.82v2.6a1.43,1.43,0,0,1,1.26-.61,1.4,1.4,0,0,1,1.11.46,1.79,1.79,0,0,1,.39,1.19v2.65h-.82v-2.51c0-.7-.32-1-1-1a.86.86,0,0,0-.71.31A1.33,1.33,0,0,0,30.39,134.78Z"/><path class="k" d="M37.39,135.81l.7.24a1.81,1.81,0,0,1-.68.95,1.93,1.93,0,0,1-1.2.37,2.06,2.06,0,0,1-1.49-.6,2.45,2.45,0,0,1,0-3.21,2,2,0,0,1,2.89,0,2.33,2.33,0,0,1,.52,1.59,1.93,1.93,0,0,1,0,.26H35a1.3,1.3,0,0,0,.37.92,1.25,1.25,0,0,0,.89.35A1.14,1.14,0,0,0,37.39,135.81ZM35,134.72h2.28A1.06,1.06,0,0,0,37,134a1.24,1.24,0,0,0-1.63,0A1.14,1.14,0,0,0,35,134.72Z"/><path class="k" d="M42.09,135.81l.71.24a1.87,1.87,0,0,1-.68.95,1.93,1.93,0,0,1-1.2.37,2.06,2.06,0,0,1-1.49-.6,2.18,2.18,0,0,1-.61-1.63,2.22,2.22,0,0,1,.59-1.58,2,2,0,0,1,2.88,0,2.28,2.28,0,0,1,.53,1.59,1.93,1.93,0,0,1,0,.26H39.66a1.3,1.3,0,0,0,.37.92,1.25,1.25,0,0,0,.89.35A1.12,1.12,0,0,0,42.09,135.81Zm-2.4-1.09H42a1,1,0,0,0-1.15-1.06A1,1,0,0,0,40,134,1.09,1.09,0,0,0,39.69,134.72Z"/><path class="k" d="M46.18,133v.87l-.35,0c-.77,0-1.15.43-1.15,1.29v2.09h-.82v-4.18h.8v.73a1.29,1.29,0,0,1,1.25-.79A1.14,1.14,0,0,1,46.18,133Z"/><path class="k" d="M46.66,136.16l.74-.26a.93.93,0,0,0,.29.56,1,1,0,0,0,.68.22.81.81,0,0,0,.52-.16.5.5,0,0,0,.19-.4c0-.28-.18-.46-.53-.54l-.72-.15a1.35,1.35,0,0,1-.76-.42,1.08,1.08,0,0,1-.28-.76,1.21,1.21,0,0,1,.44-.92,1.48,1.48,0,0,1,1.05-.4,2,2,0,0,1,.71.12,1.25,1.25,0,0,1,.49.31,1.6,1.6,0,0,1,.39.69l-.73.27a.76.76,0,0,0-.06-.2.74.74,0,0,0-.13-.22.64.64,0,0,0-.27-.2,1,1,0,0,0-.4-.07.73.73,0,0,0-.5.16.51.51,0,0,0-.2.4c0,.26.16.43.48.5l.68.15a1.61,1.61,0,0,1,.85.44,1.15,1.15,0,0,1,.3.8,1.2,1.2,0,0,1-.4.89,1.53,1.53,0,0,1-1.13.4,1.78,1.78,0,0,1-1.2-.38A1.4,1.4,0,0,1,46.66,136.16Z"/><path class="k" d="M27.5,144.42H25.44v5.37h-.85v-5.37H22.53v-.79h5Z"/><path class="k" d="M29.1,147.33v2.46h-.82V143.5h.82v2.6a1.43,1.43,0,0,1,1.27-.61,1.36,1.36,0,0,1,1.11.46,1.81,1.81,0,0,1,.38,1.19v2.65h-.81v-2.51c0-.7-.33-1.05-1-1.05a.87.87,0,0,0-.7.3A1.28,1.28,0,0,0,29.1,147.33Z"/><path class="k" d="M36.1,148.35l.7.25a1.83,1.83,0,0,1-.67,1,2,2,0,0,1-1.2.37,2,2,0,0,1-1.49-.61,2.16,2.16,0,0,1-.61-1.62,2.21,2.21,0,0,1,.59-1.59,1.88,1.88,0,0,1,1.4-.62,1.9,1.9,0,0,1,1.48.59,2.34,2.34,0,0,1,.53,1.6,1.84,1.84,0,0,1,0,.26H33.67a1.24,1.24,0,0,0,.37.91,1.2,1.2,0,0,0,.89.36A1.12,1.12,0,0,0,36.1,148.35Zm-2.41-1.08H36a1.05,1.05,0,0,0-1.15-1.07,1.09,1.09,0,0,0-.8.32A1.14,1.14,0,0,0,33.69,147.27Z"/><path class="k" d="M41.14,144.29v1.32H42v.74h-.9v2.17a.49.49,0,0,0,.58.57,1.51,1.51,0,0,0,.32,0v.69a1.66,1.66,0,0,1-.56.08,1.16,1.16,0,0,1-.85-.31,1.22,1.22,0,0,1-.31-.88v-2.29h-.8v-.74h.23a.62.62,0,0,0,.48-.18.65.65,0,0,0,.16-.46v-.68Z"/><path class="k" d="M46,148.35l.7.25a1.85,1.85,0,0,1-.68,1,2,2,0,0,1-1.19.37,2,2,0,0,1-1.49-.61,2.16,2.16,0,0,1-.62-1.62,2.25,2.25,0,0,1,.59-1.59,2,2,0,0,1,2.89,0,2.34,2.34,0,0,1,.53,1.6,1.84,1.84,0,0,1,0,.26H43.59a1.24,1.24,0,0,0,.37.91,1.2,1.2,0,0,0,.89.36A1.13,1.13,0,0,0,46,148.35Zm-2.41-1.08H45.9a1.06,1.06,0,0,0-1.15-1.07,1.09,1.09,0,0,0-.8.32A1.14,1.14,0,0,0,43.61,147.27Z"/><path class="k" d="M47.53,148.67a1.12,1.12,0,0,1,.35-.87,1.66,1.66,0,0,1,.92-.4l1.13-.17c.21,0,.32-.13.32-.31a.71.71,0,0,0-.23-.54,1.13,1.13,0,0,0-1.34,0,1,1,0,0,0-.28.62l-.78-.19a1.35,1.35,0,0,1,.54-1,1.89,1.89,0,0,1,1.17-.38,1.77,1.77,0,0,1,1.31.43,1.51,1.51,0,0,1,.42,1.1v2.09a3.69,3.69,0,0,0,.06.69h-.8a3.36,3.36,0,0,1,0-.57,1.47,1.47,0,0,1-.5.49,1.59,1.59,0,0,1-.84.21,1.44,1.44,0,0,1-1-.37A1.18,1.18,0,0,1,47.53,148.67Zm1.51.56a1.3,1.3,0,0,0,.88-.29,1.21,1.21,0,0,0,.33-.94v-.19L49,148a.78.78,0,0,0-.44.2.54.54,0,0,0-.17.42.59.59,0,0,0,.19.43A.67.67,0,0,0,49,149.23Z"/><path class="k" d="M53.14,149.79h-.81v-4.18h.78v.56a1.33,1.33,0,0,1,.54-.51,1.7,1.7,0,0,1,.73-.17,1.41,1.41,0,0,1,.75.2,1.22,1.22,0,0,1,.5.59,1.48,1.48,0,0,1,1.4-.79,1.38,1.38,0,0,1,1,.41,1.56,1.56,0,0,1,.42,1.18v2.71h-.81v-2.63a1,1,0,0,0-.22-.69.82.82,0,0,0-.66-.26.89.89,0,0,0-.7.3,1.08,1.08,0,0,0-.27.75v2.53H55v-2.63a1.08,1.08,0,0,0-.22-.69.84.84,0,0,0-.67-.26.92.92,0,0,0-.7.29,1.11,1.11,0,0,0-.27.77Z"/><line class="w" x1="20.58" y1="40.84" x2="149.34" y2="40.84"/><polygon class="m" points="105.64 187.42 174.26 107.17 174.26 184.52 169.41 187.42 105.64 187.42"/></symbol></defs><use width="174.63" height="187.78" transform="translate(26.26 25.49)" xlink:href="#a"/><use width="174.63" height="187.78" transform="translate(248.51 25.49)" xlink:href="#c"/><use width="174.63" height="187.78" transform="translate(470.75 25.49)" xlink:href="#e"/><use width="174.63" height="187.78" transform="translate(693 25.49)" xlink:href="#g"/><path class="x" d="M45.83,264.82a5.77,5.77,0,0,1-4.19-1.64A5.63,5.63,0,0,1,40,258.94,5.77,5.77,0,0,1,45.8,253a6.35,6.35,0,0,1,2.2.36,4.4,4.4,0,0,1,1.59.95,5.64,5.64,0,0,1,1,1.22,4,4,0,0,1,.51,1.29l-2.38.76a2.51,2.51,0,0,0-.26-.67,3.07,3.07,0,0,0-.49-.67,2.34,2.34,0,0,0-.88-.56,3.64,3.64,0,0,0-1.27-.22,3.23,3.23,0,0,0-2.25.91,3.33,3.33,0,0,0-1,2.57,3.19,3.19,0,0,0,1,2.44,3.23,3.23,0,0,0,2.3.92,2.91,2.91,0,0,0,2-.66,3.12,3.12,0,0,0,.94-1.47l2.42.69a5.21,5.21,0,0,1-.52,1.29,6.11,6.11,0,0,1-1,1.27,4.58,4.58,0,0,1-1.63,1A6.29,6.29,0,0,1,45.83,264.82Z"/><path class="x" d="M56.19,256.39a4.12,4.12,0,0,1,3,1.19,4.39,4.39,0,0,1,0,6.05,4.27,4.27,0,0,1-6-6.05A4.14,4.14,0,0,1,56.19,256.39Zm0,6.19a1.75,1.75,0,0,0,1.27-.51A2,2,0,0,0,58,260.6a1.92,1.92,0,0,0-.52-1.46,1.84,1.84,0,0,0-2.54,0,2.31,2.31,0,0,0,0,2.92A1.74,1.74,0,0,0,56.19,262.58Z"/><path class="x" d="M64.41,264.58H62V253h2.43Z"/><path class="x" d="M69,264.58H66.55V253H69Z"/><path class="x" d="M76.33,261.72l2,.58a3.28,3.28,0,0,1-1.26,1.81,3.88,3.88,0,0,1-2.4.71,4.3,4.3,0,0,1-3-7.26,3.83,3.83,0,0,1,2.79-1.17,3.91,3.91,0,0,1,2.92,1.08,4.09,4.09,0,0,1,1.07,3,3.32,3.32,0,0,1-.05.75H72.92a1.47,1.47,0,0,0,.56,1.1,1.91,1.91,0,0,0,1.25.44A1.53,1.53,0,0,0,76.33,261.72ZM73,259.66h3.18a1.43,1.43,0,0,0-.42-1,1.6,1.6,0,0,0-1.18-.4A1.52,1.52,0,0,0,73,259.66Z"/><path class="x" d="M83.74,258.63a1.79,1.79,0,0,0-1.31.53,2,2,0,0,0-.52,1.46,2,2,0,0,0,.54,1.44,1.82,1.82,0,0,0,1.32.52,1.64,1.64,0,0,0,1.08-.34,1.71,1.71,0,0,0,.57-.84l2.14.66A3.66,3.66,0,0,1,86.27,264a3.83,3.83,0,0,1-2.5.81,4.18,4.18,0,0,1-3-1.19,4,4,0,0,1-1.24-3,4.1,4.1,0,0,1,4.19-4.23,3.92,3.92,0,0,1,2.54.8,3.55,3.55,0,0,1,1.28,2l-2.17.66a1.64,1.64,0,0,0-.55-.85A1.53,1.53,0,0,0,83.74,258.63Z"/><path class="x" d="M92,254.31v2.32h1.55v2.13H92v3c0,.55.3.83.88.83a3.11,3.11,0,0,0,.64-.08v2a2.86,2.86,0,0,1-1.26.23,2.7,2.7,0,0,1-2-.69,2.49,2.49,0,0,1-.71-1.87v-3.41H88.15v-2.13h.4a1.13,1.13,0,0,0,.92-.36,1.36,1.36,0,0,0,.32-.93v-1Z"/><path class="x" d="M106.92,256.63l-3,7.95h-2.45l-3.26-7.95h2.64l1.84,4.95,1.69-4.95Z"/><path class="x" d="M107.66,262.39a2.14,2.14,0,0,1,.65-1.62A3.16,3.16,0,0,1,110,260l1.87-.29c.39-.05.58-.23.58-.54a.79.79,0,0,0-.31-.62,1.39,1.39,0,0,0-.86-.24,1.34,1.34,0,0,0-1,.34,1.2,1.2,0,0,0-.39.82l-2.11-.43a2.73,2.73,0,0,1,1-1.81,4.36,4.36,0,0,1,5.17,0,3,3,0,0,1,.86,2.2v3.89a6.88,6.88,0,0,0,.09,1.23h-2.19a4,4,0,0,1-.08-.89,2.45,2.45,0,0,1-2.24,1.12,2.82,2.82,0,0,1-2-.71A2.32,2.32,0,0,1,107.66,262.39Zm3.34.66a1.47,1.47,0,0,0,1-.37,1.55,1.55,0,0,0,.42-1.22v-.35l-1.51.24c-.59.1-.89.39-.89.88a.82.82,0,0,0,.23.58A.94.94,0,0,0,111,263.05Z"/><path class="x" d="M119.31,264.58h-2.44V253h2.44Z"/><path class="x" d="M121.66,255.21a1.42,1.42,0,0,1,0-2,1.34,1.34,0,0,1,1-.41,1.41,1.41,0,0,1,1,.41,1.42,1.42,0,0,1,0,2,1.41,1.41,0,0,1-1,.41A1.34,1.34,0,0,1,121.66,255.21Zm2.22,9.37h-2.43v-7.95h2.43Z"/><path class="x" d="M133.83,253v10.16a13.37,13.37,0,0,0,.07,1.42h-2.34a4.87,4.87,0,0,1-.06-.76,2.15,2.15,0,0,1-.86.68,3.07,3.07,0,0,1-1.27.26,3.72,3.72,0,0,1-2.82-1.18,4.57,4.57,0,0,1,0-6,3.6,3.6,0,0,1,2.77-1.18,2.33,2.33,0,0,1,2.14.82V253Zm-5.43,6.14a2.31,2.31,0,0,0,0,2.92,1.72,1.72,0,0,0,1.27.52,1.74,1.74,0,0,0,1.28-.52,2.31,2.31,0,0,0,0-2.92,1.77,1.77,0,0,0-1.28-.51A1.75,1.75,0,0,0,128.4,259.14Z"/><path class="x" d="M145.16,261.72l2,.58a3.28,3.28,0,0,1-1.26,1.81,3.88,3.88,0,0,1-2.4.71,4.3,4.3,0,0,1-3-7.26,3.83,3.83,0,0,1,2.79-1.17,3.91,3.91,0,0,1,2.92,1.08,4.09,4.09,0,0,1,1.07,3,3.32,3.32,0,0,1-.05.75h-5.54a1.47,1.47,0,0,0,.56,1.1,1.91,1.91,0,0,0,1.25.44A1.52,1.52,0,0,0,145.16,261.72Zm-3.36-2.06H145a1.43,1.43,0,0,0-.42-1,1.6,1.6,0,0,0-1.18-.4,1.52,1.52,0,0,0-1.12.42A1.5,1.5,0,0,0,141.8,259.66Z"/><path class="x" d="M151.34,264.58H148.9v-7.95h2.32v.91a2.15,2.15,0,0,1,1-.83,3.06,3.06,0,0,1,1.33-.32,2.4,2.4,0,0,1,2.35,1.25,2.84,2.84,0,0,1,2.47-1.25,3,3,0,0,1,2.09.76,2.9,2.9,0,0,1,.85,2.28v5.15h-2.35V260a1.45,1.45,0,0,0-.32-1,1.17,1.17,0,0,0-.94-.38,1.25,1.25,0,0,0-1,.4,1.44,1.44,0,0,0-.35,1v4.59h-2.4V260a1.41,1.41,0,0,0-.33-1,1.21,1.21,0,0,0-.95-.38,1.22,1.22,0,0,0-1,.4,1.4,1.4,0,0,0-.35,1Z"/><path class="x" d="M162.84,262.39a2.11,2.11,0,0,1,.66-1.62,3.09,3.09,0,0,1,1.69-.78l1.87-.29c.39-.05.58-.23.58-.54a.76.76,0,0,0-.31-.62,1.39,1.39,0,0,0-.86-.24,1.35,1.35,0,0,0-1,.34,1.2,1.2,0,0,0-.39.82L163,259a2.73,2.73,0,0,1,1-1.81,4.36,4.36,0,0,1,5.17,0,3,3,0,0,1,.86,2.2v3.89a6.88,6.88,0,0,0,.09,1.23h-2.19a4,4,0,0,1-.08-.89,2.44,2.44,0,0,1-2.24,1.12,2.82,2.82,0,0,1-2-.71A2.32,2.32,0,0,1,162.84,262.39Zm3.34.66a1.47,1.47,0,0,0,1-.37,1.55,1.55,0,0,0,.42-1.22v-.35l-1.5.24c-.6.1-.9.39-.9.88a.82.82,0,0,0,.23.58A1,1,0,0,0,166.18,263.05Z"/><path class="x" d="M172.26,255.21a1.45,1.45,0,0,1,0-2,1.35,1.35,0,0,1,1-.41,1.37,1.37,0,0,1,1,.41,1.4,1.4,0,0,1,0,2,1.37,1.37,0,0,1-1,.41A1.35,1.35,0,0,1,172.26,255.21Zm2.23,9.37h-2.43v-7.95h2.43Z"/><path class="x" d="M179.05,264.58h-2.43V253h2.43Z"/><path class="x" d="M180.54,262.33l2.06-.37a1.19,1.19,0,0,0,.34.76,1.23,1.23,0,0,0,.91.31,1,1,0,0,0,.69-.2.6.6,0,0,0,.24-.49c0-.32-.27-.53-.79-.65l-.91-.21a3.19,3.19,0,0,1-1.79-.9,2.25,2.25,0,0,1-.58-1.55,2.41,2.41,0,0,1,.87-1.87,3.74,3.74,0,0,1,4.52,0,2.54,2.54,0,0,1,.85,1.62l-2,.37a1.24,1.24,0,0,0-.33-.71,1.13,1.13,0,0,0-.81-.27,1.05,1.05,0,0,0-.61.19.6.6,0,0,0-.25.5c0,.32.2.52.62.59l1.06.21a3.28,3.28,0,0,1,1.82.91,2.24,2.24,0,0,1,.62,1.59,2.51,2.51,0,0,1-.83,1.89,3.22,3.22,0,0,1-2.33.79,4.4,4.4,0,0,1-1.56-.25,2.44,2.44,0,0,1-1-.67,3.38,3.38,0,0,1-.55-.8A2.41,2.41,0,0,1,180.54,262.33Z"/><path class="y" d="M270,264.82a5.79,5.79,0,0,1-4.2-1.64,5.63,5.63,0,0,1-1.69-4.24A5.78,5.78,0,0,1,270,253a6.29,6.29,0,0,1,2.19.36,4.53,4.53,0,0,1,1.6.95,5.9,5.9,0,0,1,1,1.22,4,4,0,0,1,.51,1.29l-2.38.76a2.51,2.51,0,0,0-.26-.67,3.07,3.07,0,0,0-.49-.67,2.26,2.26,0,0,0-.88-.56,3.58,3.58,0,0,0-1.26-.22,3.23,3.23,0,0,0-2.26.91,3.33,3.33,0,0,0-1,2.57,3.19,3.19,0,0,0,1,2.44,3.23,3.23,0,0,0,2.31.92,2.9,2.9,0,0,0,2-.66,3.12,3.12,0,0,0,.94-1.47l2.42.69a5.21,5.21,0,0,1-.52,1.29,6.11,6.11,0,0,1-1,1.27,4.58,4.58,0,0,1-1.63,1A6.27,6.27,0,0,1,270,264.82Z"/><path class="y" d="M279.24,264.58h-2.43V253h2.43Z"/><path class="y" d="M286.58,261.72l2,.58a3.34,3.34,0,0,1-1.27,1.81,3.88,3.88,0,0,1-2.4.71,4.31,4.31,0,0,1-3-7.26,3.84,3.84,0,0,1,2.79-1.17,3.89,3.89,0,0,1,2.92,1.08,4.09,4.09,0,0,1,1.07,3,3.32,3.32,0,0,1-.05.75h-5.54a1.5,1.5,0,0,0,.56,1.1,1.93,1.93,0,0,0,1.25.44A1.52,1.52,0,0,0,286.58,261.72Zm-3.36-2.06h3.19a1.44,1.44,0,0,0-.43-1,1.59,1.59,0,0,0-1.17-.4,1.49,1.49,0,0,0-1.12.42A1.47,1.47,0,0,0,283.22,259.66Z"/><path class="y" d="M289.85,262.39a2.14,2.14,0,0,1,.65-1.62,3.16,3.16,0,0,1,1.7-.78l1.87-.29c.39-.05.58-.23.58-.54a.79.79,0,0,0-.31-.62,1.39,1.39,0,0,0-.86-.24,1.34,1.34,0,0,0-1,.34,1.2,1.2,0,0,0-.39.82L290,259a2.73,2.73,0,0,1,1-1.81,4.36,4.36,0,0,1,5.17,0,3,3,0,0,1,.86,2.2v3.89a6.88,6.88,0,0,0,.09,1.23h-2.19a4,4,0,0,1-.08-.89,2.45,2.45,0,0,1-2.24,1.12,2.82,2.82,0,0,1-2-.71A2.32,2.32,0,0,1,289.85,262.39Zm3.34.66a1.49,1.49,0,0,0,1-.37,1.55,1.55,0,0,0,.42-1.22v-.35l-1.51.24c-.59.1-.89.39-.89.88a.78.78,0,0,0,.23.58A.94.94,0,0,0,293.19,263.05Z"/><path class="y" d="M301.49,260v4.56h-2.43v-7.95h2.35v.91a2.11,2.11,0,0,1,.94-.82,3,3,0,0,1,1.29-.3,2.65,2.65,0,0,1,2.16.89,3.45,3.45,0,0,1,.73,2.28v5H304.1V260a1.45,1.45,0,0,0-.33-1,1.2,1.2,0,0,0-1-.38,1.24,1.24,0,0,0-1,.39A1.44,1.44,0,0,0,301.49,260Z"/><path class="y" d="M315.43,254.31v2.32H317v2.13h-1.55v3c0,.55.29.83.88.83a3.19,3.19,0,0,0,.64-.08v2a2.86,2.86,0,0,1-1.26.23,2.68,2.68,0,0,1-1.95-.69,2.49,2.49,0,0,1-.71-1.87v-3.41h-1.41v-2.13h.4a1.15,1.15,0,0,0,.92-.36,1.36,1.36,0,0,0,.31-.93v-1Z"/><path class="y" d="M320.55,259.91v4.67h-2.43V253h2.43v4.14a2.75,2.75,0,0,1,2-.72,2.81,2.81,0,0,1,2.25.89,3.36,3.36,0,0,1,.76,2.28v5h-2.43V260a1.45,1.45,0,0,0-.33-1,1.22,1.22,0,0,0-1-.38,1.25,1.25,0,0,0-.92.36A1.36,1.36,0,0,0,320.55,259.91Z"/><path class="y" d="M332.84,261.72l2,.58a3.28,3.28,0,0,1-1.26,1.81,3.88,3.88,0,0,1-2.4.71,4.3,4.3,0,0,1-3-7.26,3.81,3.81,0,0,1,2.79-1.17,3.91,3.91,0,0,1,2.92,1.08,4.09,4.09,0,0,1,1.06,3,3.61,3.61,0,0,1,0,.75h-5.54a1.47,1.47,0,0,0,.56,1.1,1.91,1.91,0,0,0,1.25.44A1.53,1.53,0,0,0,332.84,261.72Zm-3.36-2.06h3.18a1.43,1.43,0,0,0-.42-1,1.62,1.62,0,0,0-1.18-.4,1.51,1.51,0,0,0-1.12.42A1.45,1.45,0,0,0,329.48,259.66Z"/><path class="y" d="M348.34,253v10.16a13.37,13.37,0,0,0,.07,1.42h-2.34a4.87,4.87,0,0,1-.06-.76,2.23,2.23,0,0,1-.86.68,3.07,3.07,0,0,1-1.27.26,3.72,3.72,0,0,1-2.82-1.18,4.57,4.57,0,0,1,0-6,3.58,3.58,0,0,1,2.77-1.18,2.33,2.33,0,0,1,2.14.82V253Zm-5.43,6.14a2.31,2.31,0,0,0,0,2.92,1.81,1.81,0,0,0,2.54,0,2.31,2.31,0,0,0,0-2.92,1.84,1.84,0,0,0-2.54,0Z"/><path class="y" d="M350,262.39a2.11,2.11,0,0,1,.66-1.62,3.13,3.13,0,0,1,1.7-.78l1.87-.29q.57-.07.57-.54a.76.76,0,0,0-.31-.62,1.36,1.36,0,0,0-.85-.24,1.34,1.34,0,0,0-1,.34,1.2,1.2,0,0,0-.39.82l-2.12-.43a2.74,2.74,0,0,1,1-1.81,3.56,3.56,0,0,1,2.5-.83,3.62,3.62,0,0,1,2.67.87,3,3,0,0,1,.85,2.2v3.89a6,6,0,0,0,.1,1.23h-2.19a3.5,3.5,0,0,1-.08-.89,2.45,2.45,0,0,1-2.24,1.12,2.79,2.79,0,0,1-2-.71A2.29,2.29,0,0,1,350,262.39Zm3.35.66a1.51,1.51,0,0,0,1-.37,1.59,1.59,0,0,0,.41-1.22v-.35l-1.5.24c-.6.1-.9.39-.9.88a.78.78,0,0,0,.24.58A.94.94,0,0,0,353.32,263.05Z"/><path class="y" d="M362,254.31v2.32h1.55v2.13H362v3c0,.55.29.83.88.83a3.11,3.11,0,0,0,.64-.08v2a2.86,2.86,0,0,1-1.26.23,2.7,2.7,0,0,1-1.95-.69,2.49,2.49,0,0,1-.71-1.87v-3.41h-1.41v-2.13h.4a1.13,1.13,0,0,0,.92-.36,1.36,1.36,0,0,0,.32-.93v-1Z"/><path class="y" d="M364.89,262.39a2.1,2.1,0,0,1,.65-1.62,3.13,3.13,0,0,1,1.7-.78l1.87-.29c.38-.05.58-.23.58-.54a.77.77,0,0,0-.32-.62,1.59,1.59,0,0,0-1.82.1,1.2,1.2,0,0,0-.39.82l-2.11-.43a2.73,2.73,0,0,1,1-1.81,4.35,4.35,0,0,1,5.17,0,3,3,0,0,1,.85,2.2v3.89a6.76,6.76,0,0,0,.1,1.23H370a3.5,3.5,0,0,1-.08-.89,2.45,2.45,0,0,1-2.24,1.12,2.8,2.8,0,0,1-2-.71A2.28,2.28,0,0,1,364.89,262.39Zm3.34.66a1.49,1.49,0,0,0,1-.37,1.55,1.55,0,0,0,.42-1.22v-.35l-1.51.24c-.6.1-.89.39-.89.88a.78.78,0,0,0,.23.58A.94.94,0,0,0,368.23,263.05Z"/><path class="y" d="M376.45,264.58H374.1V253h2.38v4.38a2.1,2.1,0,0,1,.9-.67,3.55,3.55,0,0,1,1.41-.27,3.37,3.37,0,0,1,2.69,1.16,4.38,4.38,0,0,1,1,3,4.28,4.28,0,0,1-1.06,3,3.5,3.5,0,0,1-2.73,1.18,3,3,0,0,1-1.36-.3,2.08,2.08,0,0,1-.88-.77Zm3.6-4a2,2,0,0,0-.51-1.46,1.74,1.74,0,0,0-1.28-.51,1.78,1.78,0,0,0-1.29.51,2.29,2.29,0,0,0,0,2.92,1.74,1.74,0,0,0,1.28.52,1.7,1.7,0,0,0,1.27-.52A2,2,0,0,0,380.05,260.6Z"/><path class="y" d="M383.57,262.39a2.11,2.11,0,0,1,.66-1.62,3.13,3.13,0,0,1,1.69-.78l1.88-.29q.57-.07.57-.54a.76.76,0,0,0-.31-.62,1.36,1.36,0,0,0-.85-.24,1.34,1.34,0,0,0-1,.34,1.26,1.26,0,0,0-.4.82l-2.11-.43a2.74,2.74,0,0,1,1-1.81,4.34,4.34,0,0,1,5.16,0,3,3,0,0,1,.86,2.2v3.89a6,6,0,0,0,.1,1.23h-2.19a3.42,3.42,0,0,1-.09-.89,2.42,2.42,0,0,1-2.23,1.12,2.79,2.79,0,0,1-2-.71A2.29,2.29,0,0,1,383.57,262.39Zm3.35.66a1.51,1.51,0,0,0,1-.37,1.59,1.59,0,0,0,.41-1.22v-.35l-1.5.24c-.6.1-.9.39-.9.88a.78.78,0,0,0,.24.58A.94.94,0,0,0,386.92,263.05Z"/><path class="y" d="M392.13,262.33l2.07-.37a1.14,1.14,0,0,0,.34.76,1.22,1.22,0,0,0,.9.31,1,1,0,0,0,.69-.2.6.6,0,0,0,.24-.49c0-.32-.26-.53-.78-.65l-.91-.21a3.26,3.26,0,0,1-1.8-.9,2.28,2.28,0,0,1-.57-1.55,2.41,2.41,0,0,1,.87-1.87,3.19,3.19,0,0,1,2.18-.77,3.23,3.23,0,0,1,2.33.75,2.55,2.55,0,0,1,.86,1.62l-2,.37a1.13,1.13,0,0,0-.33-.71,1.09,1.09,0,0,0-.8-.27,1,1,0,0,0-.61.19.61.61,0,0,0-.26.5c0,.32.21.52.63.59l1,.21a3.31,3.31,0,0,1,1.83.91,2.29,2.29,0,0,1,.62,1.59,2.54,2.54,0,0,1-.83,1.89,3.27,3.27,0,0,1-2.34.79,4.48,4.48,0,0,1-1.56-.25,2.5,2.5,0,0,1-1-.67,3.31,3.31,0,0,1-.54-.8A2.44,2.44,0,0,1,392.13,262.33Z"/><path class="y" d="M405.43,261.72l2,.58a3.28,3.28,0,0,1-1.26,1.81,3.88,3.88,0,0,1-2.4.71,4.3,4.3,0,0,1-3-7.26,3.81,3.81,0,0,1,2.79-1.17,3.91,3.91,0,0,1,2.92,1.08,4.09,4.09,0,0,1,1.06,3,3.61,3.61,0,0,1,0,.75H402a1.47,1.47,0,0,0,.56,1.1,1.91,1.91,0,0,0,1.25.44A1.53,1.53,0,0,0,405.43,261.72Zm-3.36-2.06h3.18a1.43,1.43,0,0,0-.42-1,1.62,1.62,0,0,0-1.18-.4,1.51,1.51,0,0,0-1.12.42A1.45,1.45,0,0,0,402.07,259.66Z"/><path class="z" d="M504.19,253.24h4.24a3.71,3.71,0,0,1,2.59.85,2.79,2.79,0,0,1,.94,2.19,2.54,2.54,0,0,1-.47,1.52,2.3,2.3,0,0,1-1.19.91,2.56,2.56,0,0,1,1.42.91,2.6,2.6,0,0,1,.6,1.75,3,3,0,0,1-1,2.31,3.64,3.64,0,0,1-2.57.9h-4.57Zm2.46,4.54H508a1.63,1.63,0,0,0,1.06-.32,1.12,1.12,0,0,0,.39-.91,1.1,1.1,0,0,0-.38-.89,1.7,1.7,0,0,0-1.1-.32h-1.35Zm0,4.74h1.59a1.7,1.7,0,0,0,1.15-.36,1.2,1.2,0,0,0,.41-1,1.22,1.22,0,0,0-.41-1,1.71,1.71,0,0,0-1.15-.37h-1.59Z"/><path class="z" d="M519,264.58a4.06,4.06,0,0,1-.06-.8,1.78,1.78,0,0,1-.88.73,3.14,3.14,0,0,1-1.25.25,2.86,2.86,0,0,1-2.22-.89,3.19,3.19,0,0,1-.8-2.21v-5h2.43v4.51a1.49,1.49,0,0,0,.33,1,1.19,1.19,0,0,0,1,.38,1.3,1.3,0,0,0,1-.38,1.35,1.35,0,0,0,.36-1v-4.53h2.43v6.53a12.12,12.12,0,0,0,.08,1.42Z"/><path class="z" d="M523.61,255.21a1.45,1.45,0,0,1,0-2,1.34,1.34,0,0,1,1-.41,1.42,1.42,0,1,1,0,2.84A1.34,1.34,0,0,1,523.61,255.21Zm2.22,9.37H523.4v-7.95h2.43Z"/><path class="z" d="M530.39,264.58H528V253h2.43Z"/><path class="z" d="M540.36,253v10.16a13.37,13.37,0,0,0,.07,1.42h-2.34a4.87,4.87,0,0,1-.06-.76,2.23,2.23,0,0,1-.86.68,3.07,3.07,0,0,1-1.27.26,3.72,3.72,0,0,1-2.82-1.18,4.57,4.57,0,0,1,0-6,3.6,3.6,0,0,1,2.77-1.18,2.33,2.33,0,0,1,2.14.82V253Zm-5.43,6.14a2.31,2.31,0,0,0,0,2.92,1.81,1.81,0,0,0,2.54,0,2.28,2.28,0,0,0,0-2.92,1.84,1.84,0,0,0-2.54,0Z"/><path class="z" d="M545.83,262.33l2.07-.37a1.14,1.14,0,0,0,.34.76,1.23,1.23,0,0,0,.91.31,1,1,0,0,0,.68-.2.6.6,0,0,0,.24-.49c0-.32-.26-.53-.78-.65l-.91-.21a3.19,3.19,0,0,1-1.79-.9A2.25,2.25,0,0,1,546,259a2.41,2.41,0,0,1,.87-1.87,3.72,3.72,0,0,1,4.51,0,2.51,2.51,0,0,1,.86,1.62l-2,.37a1.17,1.17,0,0,0-.32-.71,1.13,1.13,0,0,0-.81-.27,1,1,0,0,0-.61.19.61.61,0,0,0-.26.5c0,.32.21.52.63.59l1,.21a3.31,3.31,0,0,1,1.83.91,2.29,2.29,0,0,1,.62,1.59,2.54,2.54,0,0,1-.83,1.89,3.23,3.23,0,0,1-2.34.79,4.48,4.48,0,0,1-1.56-.25,2.5,2.5,0,0,1-1-.67,3.31,3.31,0,0,1-.54-.8A2.74,2.74,0,0,1,545.83,262.33Z"/><path class="z" d="M556.86,254.31v2.32h1.55v2.13h-1.55v3c0,.55.29.83.88.83a3.19,3.19,0,0,0,.64-.08v2a2.88,2.88,0,0,1-1.27.23,2.66,2.66,0,0,1-1.94-.69,2.49,2.49,0,0,1-.71-1.87v-3.41h-1.41v-2.13h.4a1.15,1.15,0,0,0,.92-.36,1.36,1.36,0,0,0,.31-.93v-1Z"/><path class="z" d="M559.72,262.39a2.11,2.11,0,0,1,.66-1.62,3.13,3.13,0,0,1,1.69-.78l1.88-.29q.57-.07.57-.54a.76.76,0,0,0-.31-.62,1.37,1.37,0,0,0-.86-.24,1.33,1.33,0,0,0-1,.34,1.26,1.26,0,0,0-.4.82l-2.11-.43a2.74,2.74,0,0,1,1-1.81,4.34,4.34,0,0,1,5.16,0,3,3,0,0,1,.86,2.2v3.89a6,6,0,0,0,.1,1.23h-2.2a4,4,0,0,1-.08-.89,2.43,2.43,0,0,1-2.24,1.12,2.78,2.78,0,0,1-2-.71A2.29,2.29,0,0,1,559.72,262.39Zm3.35.66a1.51,1.51,0,0,0,1-.37,1.59,1.59,0,0,0,.41-1.22v-.35l-1.5.24c-.6.1-.9.39-.9.88a.82.82,0,0,0,.23.58A1,1,0,0,0,563.07,263.05Z"/><path class="z" d="M571.77,254.31v2.32h1.55v2.13h-1.55v3c0,.55.29.83.88.83a3.11,3.11,0,0,0,.64-.08v2a2.86,2.86,0,0,1-1.26.23,2.7,2.7,0,0,1-1.95-.69,2.49,2.49,0,0,1-.71-1.87v-3.41H568v-2.13h.4a1.15,1.15,0,0,0,.92-.36,1.36,1.36,0,0,0,.31-.93v-1Z"/><path class="z" d="M575.26,255.21a1.42,1.42,0,0,1,0-2,1.34,1.34,0,0,1,1-.41,1.41,1.41,0,0,1,1,.41,1.42,1.42,0,0,1,0,2,1.41,1.41,0,0,1-1,.41A1.34,1.34,0,0,1,575.26,255.21Zm2.22,9.37h-2.43v-7.95h2.43Z"/><path class="z" d="M579,262.33,581,262a1.14,1.14,0,0,0,.34.76,1.23,1.23,0,0,0,.91.31,1,1,0,0,0,.68-.2.6.6,0,0,0,.24-.49c0-.32-.26-.53-.78-.65l-.91-.21a3.19,3.19,0,0,1-1.79-.9,2.25,2.25,0,0,1-.58-1.55,2.41,2.41,0,0,1,.87-1.87,3.72,3.72,0,0,1,4.51,0,2.51,2.51,0,0,1,.86,1.62l-2,.37a1.17,1.17,0,0,0-.32-.71,1.13,1.13,0,0,0-.81-.27,1,1,0,0,0-.61.19.61.61,0,0,0-.26.5c0,.32.21.52.63.59l1,.21a3.31,3.31,0,0,1,1.83.91,2.29,2.29,0,0,1,.62,1.59,2.54,2.54,0,0,1-.83,1.89,3.25,3.25,0,0,1-2.34.79,4.48,4.48,0,0,1-1.56-.25,2.5,2.5,0,0,1-1-.67,3.31,3.31,0,0,1-.54-.8A2.44,2.44,0,0,1,579,262.33Z"/><path class="z" d="M590,254.31v2.32h1.55v2.13H590v3c0,.55.29.83.88.83a3.19,3.19,0,0,0,.64-.08v2a2.88,2.88,0,0,1-1.27.23,2.66,2.66,0,0,1-1.94-.69,2.49,2.49,0,0,1-.71-1.87v-3.41h-1.41v-2.13h.4a1.15,1.15,0,0,0,.92-.36,1.36,1.36,0,0,0,.31-.93v-1Z"/><path class="z" d="M593.47,255.21a1.42,1.42,0,0,1,0-2,1.31,1.31,0,0,1,1-.41,1.37,1.37,0,0,1,1,.41,1.4,1.4,0,0,1,0,2,1.37,1.37,0,0,1-1,.41A1.31,1.31,0,0,1,593.47,255.21Zm2.22,9.37h-2.43v-7.95h2.43Z"/><path class="z" d="M601.48,258.63a1.75,1.75,0,0,0-1.3.53,2.26,2.26,0,0,0,0,2.9,1.82,1.82,0,0,0,1.32.52,1.64,1.64,0,0,0,1.08-.34,1.59,1.59,0,0,0,.57-.84l2.15.66A3.78,3.78,0,0,1,604,264a3.86,3.86,0,0,1-2.51.81,4.2,4.2,0,0,1-3-1.19,4,4,0,0,1-1.24-3,4.1,4.1,0,0,1,4.19-4.23,4,4,0,0,1,2.55.8,3.6,3.6,0,0,1,1.28,2l-2.18.66a1.63,1.63,0,0,0-.54-.85A1.57,1.57,0,0,0,601.48,258.63Z"/><path class="z" d="M606.14,262.33l2.06-.37a1.19,1.19,0,0,0,.34.76,1.23,1.23,0,0,0,.91.31,1,1,0,0,0,.69-.2.6.6,0,0,0,.24-.49c0-.32-.26-.53-.79-.65l-.91-.21a3.19,3.19,0,0,1-1.79-.9,2.25,2.25,0,0,1-.58-1.55,2.41,2.41,0,0,1,.87-1.87,3.74,3.74,0,0,1,4.52,0,2.54,2.54,0,0,1,.85,1.62l-2,.37a1.18,1.18,0,0,0-.33-.71,1.13,1.13,0,0,0-.81-.27,1.05,1.05,0,0,0-.61.19.6.6,0,0,0-.25.5c0,.32.21.52.62.59l1.06.21a3.28,3.28,0,0,1,1.82.91,2.25,2.25,0,0,1,.63,1.59,2.52,2.52,0,0,1-.84,1.89,3.22,3.22,0,0,1-2.33.79,4.4,4.4,0,0,1-1.56-.25,2.44,2.44,0,0,1-1-.67,3.7,3.7,0,0,1-.55-.8A2.41,2.41,0,0,1,606.14,262.33Z"/><path class="aa" d="M717.34,264.58h-7.2V253.24h7.18v2.38h-4.66v2.16h4.23V260h-4.23v2.17h4.68Z"/><path class="aa" d="M721.7,264.58h-2.43v-7.95h2.32v.91a2.12,2.12,0,0,1,.95-.83,3.13,3.13,0,0,1,1.34-.32,2.41,2.41,0,0,1,2.35,1.25,2.84,2.84,0,0,1,2.47-1.25,3,3,0,0,1,2.09.76,2.9,2.9,0,0,1,.85,2.28v5.15h-2.35V260a1.45,1.45,0,0,0-.32-1,1.19,1.19,0,0,0-1-.38,1.24,1.24,0,0,0-1,.4,1.39,1.39,0,0,0-.35,1v4.59h-2.41V260a1.4,1.4,0,0,0-.32-1,1.21,1.21,0,0,0-1-.38,1.25,1.25,0,0,0-1,.4,1.45,1.45,0,0,0-.35,1Z"/><path class="aa" d="M733.21,262.39a2.14,2.14,0,0,1,.65-1.62,3.16,3.16,0,0,1,1.7-.78l1.87-.29c.39-.05.58-.23.58-.54a.79.79,0,0,0-.31-.62,1.39,1.39,0,0,0-.86-.24,1.34,1.34,0,0,0-1,.34,1.2,1.2,0,0,0-.39.82l-2.11-.43a2.73,2.73,0,0,1,1-1.81,4.36,4.36,0,0,1,5.17,0,3,3,0,0,1,.86,2.2v3.89a6.88,6.88,0,0,0,.09,1.23h-2.19a4,4,0,0,1-.08-.89,2.45,2.45,0,0,1-2.24,1.12,2.82,2.82,0,0,1-2-.71A2.32,2.32,0,0,1,733.21,262.39Zm3.34.66a1.49,1.49,0,0,0,1-.37,1.55,1.55,0,0,0,.42-1.22v-.35l-1.51.24c-.59.1-.89.39-.89.88a.78.78,0,0,0,.23.58A.94.94,0,0,0,736.55,263.05Z"/><path class="aa" d="M742.63,255.21a1.42,1.42,0,0,1,0-2,1.34,1.34,0,0,1,1-.41,1.42,1.42,0,1,1,0,2.84A1.34,1.34,0,0,1,742.63,255.21Zm2.23,9.37h-2.44v-7.95h2.44Z"/><path class="aa" d="M749.42,264.58H747V253h2.44Z"/><path class="aa" d="M751.77,255.21a1.42,1.42,0,0,1,0-2,1.33,1.33,0,0,1,1-.41,1.41,1.41,0,0,1,1,.41,1.42,1.42,0,0,1,0,2,1.41,1.41,0,0,1-1,.41A1.33,1.33,0,0,1,751.77,255.21Zm2.22,9.37h-2.43v-7.95H754Z"/><path class="aa" d="M758.55,260v4.56h-2.43v-7.95h2.35v.91a2.06,2.06,0,0,1,.94-.82,3,3,0,0,1,1.28-.3,2.65,2.65,0,0,1,2.16.89,3.45,3.45,0,0,1,.74,2.28v5h-2.43V260a1.45,1.45,0,0,0-.33-1,1.22,1.22,0,0,0-1-.38,1.24,1.24,0,0,0-1,.39A1.44,1.44,0,0,0,758.55,260Z"/><path class="aa" d="M765.08,265l2.14-.61a1.61,1.61,0,0,0,.59,1,1.7,1.7,0,0,0,1.12.37,1.77,1.77,0,0,0,2-2v-.37a2.35,2.35,0,0,1-2.13.9,3.51,3.51,0,0,1-2.64-1.11,3.83,3.83,0,0,1-1-2.76,3.92,3.92,0,0,1,1-2.75,3.42,3.42,0,0,1,2.64-1.14,3,3,0,0,1,1.44.3,1.76,1.76,0,0,1,.77.69v-.85h2.32v7a4.49,4.49,0,0,1-1.07,3.07,4,4,0,0,1-3.18,1.2,4.3,4.3,0,0,1-2.72-.84A3.08,3.08,0,0,1,765.08,265Zm2.91-3.37a1.82,1.82,0,0,0,2.46,0,1.77,1.77,0,0,0,.47-1.28,1.73,1.73,0,0,0-.5-1.28,1.66,1.66,0,0,0-1.2-.48,1.7,1.7,0,0,0-1.21.48,1.92,1.92,0,0,0,0,2.56Z"/><path class="aa" d="M783,258.63a1.75,1.75,0,0,0-1.3.53,2,2,0,0,0-.52,1.46,1.94,1.94,0,0,0,.53,1.44,1.82,1.82,0,0,0,1.32.52,1.64,1.64,0,0,0,1.08-.34,1.71,1.71,0,0,0,.57-.84l2.14.66a3.7,3.7,0,0,1-1.28,1.95,3.88,3.88,0,0,1-2.51.81,4.2,4.2,0,0,1-3-1.19,4,4,0,0,1-1.24-3,4.1,4.1,0,0,1,4.19-4.23,4,4,0,0,1,2.55.8,3.66,3.66,0,0,1,1.28,2l-2.18.66A1.69,1.69,0,0,0,784,259,1.57,1.57,0,0,0,783,258.63Z"/><path class="aa" d="M787.77,262.39a2.1,2.1,0,0,1,.65-1.62,3.13,3.13,0,0,1,1.7-.78l1.87-.29c.38-.05.58-.23.58-.54a.77.77,0,0,0-.32-.62,1.59,1.59,0,0,0-1.82.1,1.2,1.2,0,0,0-.39.82l-2.11-.43a2.73,2.73,0,0,1,1-1.81,4.35,4.35,0,0,1,5.17,0,3,3,0,0,1,.85,2.2v3.89a6.76,6.76,0,0,0,.1,1.23h-2.19a3.5,3.5,0,0,1-.08-.89,2.45,2.45,0,0,1-2.24,1.12,2.8,2.8,0,0,1-2-.71A2.28,2.28,0,0,1,787.77,262.39Zm3.34.66a1.49,1.49,0,0,0,1-.37,1.55,1.55,0,0,0,.42-1.22v-.35l-1.51.24c-.6.1-.89.39-.89.88a.78.78,0,0,0,.23.58A.94.94,0,0,0,791.11,263.05Z"/><path class="aa" d="M799.41,264.58H797v-7.95h2.32v.91a2.12,2.12,0,0,1,1-.83,3.13,3.13,0,0,1,1.34-.32,2.41,2.41,0,0,1,2.35,1.25,2.84,2.84,0,0,1,2.47-1.25,3,3,0,0,1,2.09.76,2.9,2.9,0,0,1,.85,2.28v5.15H807V260a1.45,1.45,0,0,0-.32-1,1.19,1.19,0,0,0-.95-.38,1.24,1.24,0,0,0-1,.4,1.39,1.39,0,0,0-.35,1v4.59H802V260a1.41,1.41,0,0,0-.33-1,1.21,1.21,0,0,0-.95-.38,1.22,1.22,0,0,0-1,.4,1.41,1.41,0,0,0-.36,1Z"/><path class="aa" d="M813.83,267.62H811.4v-11h2.35v.82a2,2,0,0,1,.9-.71,3.3,3.3,0,0,1,1.43-.3,3.39,3.39,0,0,1,2.7,1.16,4.38,4.38,0,0,1,1,3,4.28,4.28,0,0,1-1.06,3,3.5,3.5,0,0,1-2.73,1.18,2.66,2.66,0,0,1-2.16-.8Zm3-5.56a2.31,2.31,0,0,0,0-2.92,1.78,1.78,0,0,0-1.29-.51,1.73,1.73,0,0,0-1.27.51,2.31,2.31,0,0,0,0,2.92,1.7,1.7,0,0,0,1.27.52A1.75,1.75,0,0,0,816.88,262.06Z"/><path class="aa" d="M820.87,262.39a2.11,2.11,0,0,1,.66-1.62,3.09,3.09,0,0,1,1.69-.78l1.87-.29c.39-.05.58-.23.58-.54a.76.76,0,0,0-.31-.62,1.39,1.39,0,0,0-.86-.24,1.35,1.35,0,0,0-1,.34,1.2,1.2,0,0,0-.39.82L821,259a2.73,2.73,0,0,1,1-1.81,4.36,4.36,0,0,1,5.17,0,3,3,0,0,1,.86,2.2v3.89a6.88,6.88,0,0,0,.09,1.23h-2.19a4,4,0,0,1-.08-.89,2.44,2.44,0,0,1-2.24,1.12,2.82,2.82,0,0,1-2-.71A2.32,2.32,0,0,1,820.87,262.39Zm3.34.66a1.47,1.47,0,0,0,1-.37,1.55,1.55,0,0,0,.42-1.22v-.35l-1.5.24c-.6.1-.9.39-.9.88a.82.82,0,0,0,.23.58A1,1,0,0,0,824.21,263.05Z"/><path class="aa" d="M830.29,255.21a1.45,1.45,0,0,1,0-2,1.35,1.35,0,0,1,1-.41,1.42,1.42,0,1,1,0,2.84A1.35,1.35,0,0,1,830.29,255.21Zm2.23,9.37h-2.44v-7.95h2.44Z"/><path class="aa" d="M834.08,265l2.15-.61a1.6,1.6,0,0,0,.58,1,1.73,1.73,0,0,0,1.13.37,1.77,1.77,0,0,0,2-2v-.37a2.37,2.37,0,0,1-2.13.9,3.48,3.48,0,0,1-2.64-1.11,3.84,3.84,0,0,1-1.06-2.76,3.92,3.92,0,0,1,1-2.75,3.44,3.44,0,0,1,2.65-1.14,3,3,0,0,1,1.44.3,1.82,1.82,0,0,1,.77.69v-.85h2.32v7a4.49,4.49,0,0,1-1.07,3.07,4.07,4.07,0,0,1-3.19,1.2,4.27,4.27,0,0,1-2.71-.84A3.1,3.1,0,0,1,834.08,265Zm2.92-3.37a1.67,1.67,0,0,0,1.23.48,1.63,1.63,0,0,0,1.22-.48,1.95,1.95,0,0,0,0-2.56,1.66,1.66,0,0,0-1.2-.48,1.68,1.68,0,0,0-1.71,1.76A1.74,1.74,0,0,0,837,261.66Z"/><path class="aa" d="M846.79,260v4.56h-2.43v-7.95h2.35v.91a2,2,0,0,1,.93-.82,3,3,0,0,1,1.29-.3,2.65,2.65,0,0,1,2.16.89,3.45,3.45,0,0,1,.74,2.28v5H849.4V260a1.45,1.45,0,0,0-.33-1,1.22,1.22,0,0,0-1-.38,1.24,1.24,0,0,0-1,.39A1.44,1.44,0,0,0,846.79,260Z"/><circle class="ab" cx="202.07" cy="30.11" r="23.72"/><path class="x" d="M201.62,21.59h-.27l-5.27,3.64V21l5.55-3.82h4.49V38.71h-4.5Z"/><circle class="ac" cx="424.32" cy="30.11" r="23.72"/><path class="y" d="M424.41,16.66c4.56,0,7.47,2.64,7.47,6.27,0,2.52-1.1,4.25-4.67,7.6l-4.47,4.17V35h9.44v3.74h-15.5V35.56l7.53-7.21c2.69-2.57,3.27-3.55,3.27-5a3,3,0,0,0-3.33-3.07,3.33,3.33,0,0,0-3.55,3.5h-4.17C416.43,19.57,419.7,16.66,424.41,16.66Z"/><circle class="ad" cx="646.56" cy="30.11" r="23.72"/><path class="z" d="M643.72,26.05h2.68c2,0,3.43-1.21,3.43-3,0-1.6-1.27-2.83-3.37-2.83s-3.51,1.12-3.66,3h-4.16c.15-4,3.2-6.63,8-6.63s7.42,2.64,7.4,5.78a4.87,4.87,0,0,1-4,4.89v.28c3,.43,4.81,2.34,4.81,5.21,0,3.77-3.54,6.44-8.4,6.44s-8.16-2.65-8.35-6.72h4.3c.14,1.82,1.69,3,4,3s3.88-1.24,3.88-3.1-1.49-3.08-3.91-3.08h-2.72Z"/><circle class="ae" cx="868.81" cy="30.11" r="23.72"/><path class="aa" d="M870.52,34.82H860V31.17c2.71-4.82,5.63-9.55,8.5-14h6.3V31.08h2.81v3.74h-2.81v3.89h-4.29ZM864,31.23h6.59V20.72h-.24C868.29,23.89,866,27.55,864,31Z"/></svg>