<svg xmlns="http://www.w3.org/2000/svg" xmlns:xlink="http://www.w3.org/1999/xlink" viewBox="0 0 900 300"><defs><style>.a{fill:#fef6ea;}.a,.b,.c,.d{stroke:#f1e5ce;}.a,.b,.c,.d,.e,.j{stroke-miterlimit:10;}.a,.j{stroke-width:0.75px;}.b{fill:#ed2627;}.b,.c,.d{stroke-width:0.5px;}.c,.e,.l{fill:#fec75e;}.d{fill:#5abd80;}.e{stroke:#fff7e8;stroke-width:0.8px;}.f{fill:#ff9840;}.g{fill:#ffa940;}.h{fill:#ffb740;}.i,.k{fill:#fff;}.j{fill:none;stroke:#fff;}.k{opacity:0.12;}.m{fill:#4b4b4b;opacity:0.13;}</style><symbol id="b" viewBox="0 0 180.96 194.59"><rect class="a" x="0.38" y="0.37" width="180.21" height="193.84" rx="3"/><circle class="b" cx="5.93" cy="6.41" r="1.69"/><circle class="c" cx="11.05" cy="6.41" r="1.69"/><circle class="d" cx="16.18" cy="6.41" r="1.69"/></symbol><symbol id="a" viewBox="0 0 174.65 187.81"><use width="180.96" height="194.59" transform="translate(0.01 0.01) scale(0.96)" xlink:href="#b"/><rect class="e" x="8.82" y="16.6" width="157.01" height="161.8"/><rect class="f" x="49.65" y="67.32" width="13.63" height="74.61"/><rect class="g" x="82.66" y="90.92" width="13.63" height="50.63"/><rect class="h" x="115.68" y="107.18" width="13.63" height="34.75"/><path class="i" d="M53.43,153.37h-.91v-1h.91v-.59c0-1.11.57-1.66,1.81-1.66a3.58,3.58,0,0,1,.7.06v.93a2.46,2.46,0,0,0-.43,0c-.6,0-.83.26-.83.79v.5h1.21v1h-1.2v4.53H53.43Z"/><path class="i" d="M57.11,152.32h1.22v.87h.08a1.49,1.49,0,0,1,1.48-1,2,2,0,0,1,.52.06v1.17a3.29,3.29,0,0,0-.65-.07,1.27,1.27,0,0,0-1.39,1.29v3.22H57.11Z"/><path class="i" d="M83.57,155.11c0-1.77.89-2.88,2.29-2.88a1.8,1.8,0,0,1,1.69,1h.09v-3H88.9v7.73H87.68V157h-.09a1.86,1.86,0,0,1-1.73,1C84.45,158,83.57,156.88,83.57,155.11Zm1.29,0c0,1.13.53,1.81,1.39,1.81s1.41-.69,1.41-1.81-.54-1.8-1.41-1.8S84.86,154,84.86,155.11Z"/><path class="i" d="M95.33,156.37A2.29,2.29,0,0,1,92.86,158c-1.64,0-2.63-1.08-2.63-2.88s1-2.92,2.62-2.92,2.54,1.06,2.54,2.82v.4H91.5v.07A1.38,1.38,0,0,0,92.89,157a1.26,1.26,0,0,0,1.25-.64Zm-3.83-1.8h2.63a1.27,1.27,0,0,0-1.29-1.35A1.34,1.34,0,0,0,91.5,154.57Z"/><path class="i" d="M116,154.2a1.15,1.15,0,0,0-1.22-.93c-.87,0-1.38.67-1.38,1.83s.52,1.85,1.38,1.85a1.13,1.13,0,0,0,1.22-.89h1.21a2.21,2.21,0,0,1-2.43,1.95c-1.67,0-2.66-1.08-2.66-2.91s1-2.89,2.66-2.89a2.22,2.22,0,0,1,2.43,2Z"/><path class="i" d="M118.09,155.11a2.69,2.69,0,1,1,2.68,2.9A2.59,2.59,0,0,1,118.09,155.11Zm4.07,0c0-1.16-.51-1.84-1.39-1.84s-1.38.68-1.38,1.84.5,1.84,1.38,1.84S122.16,156.28,122.16,155.11Z"/><path class="i" d="M124.73,152.32H126v.91H126a1.57,1.57,0,0,1,1.55-1,1.54,1.54,0,0,1,1.54,1h.08a1.8,1.8,0,0,1,1.69-1,1.68,1.68,0,0,1,1.79,1.86v3.83h-1.26v-3.51q0-1.08-1-1.08a1.06,1.06,0,0,0-1.09,1.12v3.47H128.1v-3.6a.93.93,0,0,0-1-1,1.12,1.12,0,0,0-1.09,1.2v3.39h-1.27Z"/><polyline class="j" points="33.08 44.3 33.08 141.93 150.02 141.93"/><polygon class="i" points="29.34 45.39 33.08 38.91 36.82 45.39 29.34 45.39"/><polygon class="k" points="105.66 187.43 174.28 107.18 174.28 184.54 169.42 187.43 105.66 187.43"/></symbol></defs><title>email-step3</title><rect class="l" y="70" width="900" height="160"/><rect class="m" x="279" y="70" width="338.62" height="160"/><use width="174.65" height="187.81" transform="translate(323.82 14.76) scale(1.45)" xlink:href="#a"/></svg>