<svg xmlns="http://www.w3.org/2000/svg" xmlns:xlink="http://www.w3.org/1999/xlink" viewBox="0 0 900 300"><defs><style>.a{fill:#eae9e9;stroke:#d6d5d5;}.a,.b,.c,.d,.e,.j{stroke-miterlimit:10;}.a,.j{stroke-width:0.75px;}.b{fill:#ed2627;}.b,.c,.d,.j{stroke:#fff;}.b,.c,.d{stroke-width:0.5px;}.c,.e,.l{fill:#fec75e;}.d{fill:#5abd80;}.e{stroke:#fff7e8;stroke-width:0.8px;}.f{fill:#ff9840;}.g{fill:#ffa940;}.h{fill:#ffb740;}.i,.k{fill:#fff;}.j{fill:none;}.k{opacity:0.12;}.m{fill:#4b4b4b;opacity:0.13;}</style><symbol id="b" viewBox="0 0 180.96 194.59"><rect class="a" x="0.38" y="0.37" width="180.21" height="193.84" rx="3"/><circle class="b" cx="5.93" cy="6.41" r="1.69"/><circle class="c" cx="11.05" cy="6.41" r="1.69"/><circle class="d" cx="16.18" cy="6.41" r="1.69"/></symbol><symbol id="a" viewBox="0 0 174.63 187.78"><use width="180.96" height="194.59" transform="scale(0.96)" xlink:href="#b"/><rect class="e" x="8.81" y="16.59" width="157.01" height="161.8"/><rect class="f" x="49.63" y="67.31" width="13.63" height="74.61"/><rect class="g" x="82.65" y="90.91" width="13.63" height="50.63"/><rect class="h" x="115.67" y="107.17" width="13.63" height="34.75"/><path class="i" d="M53.42,153.36h-.91v-1h.91v-.59c0-1.11.56-1.66,1.8-1.66a3.76,3.76,0,0,1,.71.06v.92l-.44,0c-.59,0-.83.26-.83.78v.51h1.22v1h-1.2v4.53H53.42Z"/><path class="i" d="M57.1,152.31h1.21v.87h.09a1.47,1.47,0,0,1,1.47-1,2,2,0,0,1,.53.06v1.17a2.73,2.73,0,0,0-.65-.07,1.27,1.27,0,0,0-1.39,1.29v3.22H57.1Z"/><path class="i" d="M83.56,155.09c0-1.76.88-2.87,2.29-2.87a1.81,1.81,0,0,1,1.69,1h.09v-3h1.26v7.73H87.67V157h-.09a1.86,1.86,0,0,1-1.73,1C84.44,158,83.56,156.87,83.56,155.09Zm1.29,0c0,1.13.53,1.8,1.39,1.8s1.4-.68,1.4-1.8-.53-1.8-1.4-1.8S84.85,154,84.85,155.1Z"/><path class="i" d="M95.32,156.35A2.3,2.3,0,0,1,92.84,158c-1.64,0-2.63-1.09-2.63-2.88s1-2.92,2.62-2.92,2.55,1.05,2.55,2.81v.41h-3.9v.07a1.39,1.39,0,0,0,1.4,1.51,1.22,1.22,0,0,0,1.24-.65Zm-3.83-1.79h2.62a1.26,1.26,0,0,0-1.28-1.36A1.33,1.33,0,0,0,91.49,154.56Z"/><path class="i" d="M115.94,154.19a1.16,1.16,0,0,0-1.23-.93c-.86,0-1.38.67-1.38,1.82s.52,1.86,1.38,1.86a1.13,1.13,0,0,0,1.23-.89h1.2a2.2,2.2,0,0,1-2.42,1.95c-1.68,0-2.67-1.08-2.67-2.92s1-2.88,2.66-2.88a2.21,2.21,0,0,1,2.43,2Z"/><path class="i" d="M118.08,155.1a2.69,2.69,0,1,1,2.68,2.9A2.59,2.59,0,0,1,118.08,155.1Zm4.06,0c0-1.16-.5-1.84-1.38-1.84s-1.38.68-1.38,1.84.5,1.84,1.38,1.84S122.14,156.27,122.14,155.1Z"/><path class="i" d="M124.72,152.31h1.22v.9H126a1.57,1.57,0,0,1,1.55-1,1.54,1.54,0,0,1,1.54,1h.09a1.8,1.8,0,0,1,1.69-1,1.68,1.68,0,0,1,1.79,1.85v3.84h-1.26v-3.51q0-1.08-1-1.08a1.06,1.06,0,0,0-1.09,1.12v3.47h-1.23v-3.61a.92.92,0,0,0-1-1,1.12,1.12,0,0,0-1.09,1.2v3.39h-1.26Z"/><polyline class="j" points="33.07 44.28 33.07 141.91 150.01 141.91"/><polygon class="i" points="29.33 45.38 33.07 38.9 36.81 45.38 29.33 45.38"/><polygon class="k" points="105.64 187.42 174.26 107.17 174.26 184.52 169.41 187.42 105.64 187.42"/></symbol></defs><rect class="l" y="70" width="900" height="160"/><rect class="m" x="279" y="70" width="338.62" height="160"/><use width="174.63" height="187.78" transform="translate(323.84 14.78) scale(1.45)" xlink:href="#a"/></svg>