<svg xmlns="http://www.w3.org/2000/svg" xmlns:xlink="http://www.w3.org/1999/xlink" viewBox="0 0 900 300"><defs><style>.a{fill:#fef6ea;}.a,.b,.c,.d{stroke:#f1e5ce;}.a,.b,.c,.d,.e,.f,.h{stroke-miterlimit:10;}.a,.e,.h{stroke-width:0.75px;}.b{fill:#ed2627;}.b,.c,.d{stroke-width:0.5px;}.c{fill:#fec75e;}.d,.f,.k{fill:#5abd80;}.e{fill:#f1e5ce;stroke:#fef6ea;}.f{stroke:#e8f4ee;stroke-width:0.8px;}.g,.l{fill:#4b4b4b;}.h{fill:none;stroke:#fff;}.i,.j{fill:#fff;}.j{opacity:0.12;}.l{opacity:0.13;}</style><symbol id="b" viewBox="0 0 180.96 194.59"><rect class="a" x="0.38" y="0.37" width="180.21" height="193.84" rx="3"/><circle class="b" cx="5.93" cy="6.41" r="1.69"/><circle class="c" cx="11.05" cy="6.41" r="1.69"/><circle class="d" cx="16.18" cy="6.41" r="1.69"/></symbol><symbol id="a" viewBox="0 0 174.65 187.81"><use width="180.96" height="194.59" transform="translate(0.01 0.01) scale(0.96)" xlink:href="#b"/><rect class="e" x="8.82" y="14.63" width="52.93" height="12.2"/><rect class="f" x="8.82" y="26.83" width="157.01" height="151.57"/><path class="g" d="M13.05,23.43a.29.29,0,0,1-.21-.09.29.29,0,0,1-.09-.22.31.31,0,0,1,.3-.3.29.29,0,0,1,.22.09.29.29,0,0,1,.09.21.31.31,0,0,1-.31.31Z"/><path class="g" d="M14.55,23.43a.29.29,0,0,1-.22-.09.29.29,0,0,1-.08-.22.28.28,0,0,1,.08-.21.31.31,0,0,1,.44,0,.32.32,0,0,1,.08.21.33.33,0,0,1-.08.22A.29.29,0,0,1,14.55,23.43Z"/><path class="g" d="M16,23.43a.27.27,0,0,1-.21-.09.29.29,0,0,1-.09-.22.29.29,0,0,1,.09-.21.27.27,0,0,1,.21-.09.29.29,0,0,1,.22.09.29.29,0,0,1,.09.21.31.31,0,0,1-.31.31Z"/><path class="g" d="M19.17,19.3l-2,4.1h-.34l2-4.1Z"/><path class="g" d="M21.2,23v-.11a.94.94,0,0,1-.32.41,1.08,1.08,0,0,1-.64.2,1.16,1.16,0,0,1-.93-.41A1.58,1.58,0,0,1,19,22a1.52,1.52,0,0,1,.36-1,1.15,1.15,0,0,1,.92-.42,1.1,1.1,0,0,1,.66.2.94.94,0,0,1,.3.39V19.22h.35v3.66a2.94,2.94,0,0,0,0,.52h-.35A2,2,0,0,1,21.2,23ZM19.58,21.2a1.22,1.22,0,0,0-.26.82,1.31,1.31,0,0,0,.25.82.83.83,0,0,0,.7.33.82.82,0,0,0,.68-.33A1.32,1.32,0,0,0,21.2,22,1.26,1.26,0,0,0,21,21.2a.89.89,0,0,0-1.37,0Z"/><path class="g" d="M22.57,23.23a.68.68,0,0,1-.24-.54c0-.45.28-.72.83-.82l.74-.11c.19,0,.29-.12.29-.27A.55.55,0,0,0,24,21a.69.69,0,0,0-.51-.17A.75.75,0,0,0,23,21a.68.68,0,0,0-.24.48l-.33-.08a.9.9,0,0,1,.35-.64,1.22,1.22,0,0,1,.75-.23,1.1,1.1,0,0,1,.79.27,1,1,0,0,1,.25.69v1.4a3.57,3.57,0,0,0,0,.47h-.34a2.37,2.37,0,0,1,0-.47,1,1,0,0,1-.34.36,1.1,1.1,0,0,1-.62.18A.93.93,0,0,1,22.57,23.23Zm.12-.56a.49.49,0,0,0,.15.36.62.62,0,0,0,.44.15.88.88,0,0,0,.65-.25.87.87,0,0,0,.26-.66v-.33A.37.37,0,0,1,24,22a.91.91,0,0,1-.22.05l-.61.1C22.86,22.2,22.69,22.37,22.69,22.67Z"/><path class="g" d="M25.93,19.77v.87h.72V21h-.72v1.66c0,.33.16.5.47.5a.57.57,0,0,0,.25,0v.3a.9.9,0,0,1-.34.05.71.71,0,0,1-.53-.2.77.77,0,0,1-.19-.57V21H25v-.32h.21a.36.36,0,0,0,.41-.4v-.47Z"/><path class="g" d="M27.43,23.23a.71.71,0,0,1-.23-.54c0-.45.28-.72.83-.82l.74-.11c.19,0,.29-.12.29-.27a.55.55,0,0,0-.19-.45.69.69,0,0,0-.51-.17.75.75,0,0,0-.53.17.68.68,0,0,0-.24.48l-.34-.08a1,1,0,0,1,.36-.64,1.21,1.21,0,0,1,.74-.23,1.11,1.11,0,0,1,.8.27,1,1,0,0,1,.25.69v1.4a2.42,2.42,0,0,0,0,.47H29.1a2.37,2.37,0,0,1,0-.47,1,1,0,0,1-.34.36,1.1,1.1,0,0,1-.62.18A1,1,0,0,1,27.43,23.23Zm.13-.56a.49.49,0,0,0,.15.36.62.62,0,0,0,.44.15.88.88,0,0,0,.65-.25.87.87,0,0,0,.26-.66v-.33a.37.37,0,0,1-.15.06.91.91,0,0,1-.22.05l-.61.1C27.73,22.2,27.56,22.37,27.56,22.67Z"/><path class="g" d="M30.65,23.4h-.34V19.22h.34v2a1,1,0,0,1,.34-.4,1.12,1.12,0,0,1,.66-.2,1.17,1.17,0,0,1,.92.41,1.57,1.57,0,0,1,.33,1,1.5,1.5,0,0,1-.34,1,1.13,1.13,0,0,1-.92.42,1,1,0,0,1-.64-.19,1.1,1.1,0,0,1-.35-.42Zm1.64-.56a1.31,1.31,0,0,0,.26-.83,1.25,1.25,0,0,0-.26-.81.85.85,0,0,0-.7-.32.81.81,0,0,0-.68.32,1.22,1.22,0,0,0-.27.81,1.26,1.26,0,0,0,.27.83.82.82,0,0,0,.68.33A.86.86,0,0,0,32.29,22.84Z"/><path class="g" d="M33.65,23.23a.71.71,0,0,1-.23-.54c0-.45.27-.72.83-.82l.73-.11c.2,0,.29-.12.29-.27a.58.58,0,0,0-.18-.45.69.69,0,0,0-.51-.17A.8.8,0,0,0,34,21a.71.71,0,0,0-.23.48l-.34-.08a1,1,0,0,1,.36-.64,1.21,1.21,0,0,1,.74-.23,1.11,1.11,0,0,1,.8.27,1,1,0,0,1,.25.69v1.4a2.42,2.42,0,0,0,0,.47h-.34a2.37,2.37,0,0,1,0-.47,1,1,0,0,1-.35.36,1.05,1.05,0,0,1-.62.18A1,1,0,0,1,33.65,23.23Zm.12-.56a.5.5,0,0,0,.16.36.62.62,0,0,0,.44.15.88.88,0,0,0,.65-.25.86.86,0,0,0,.25-.66v-.33a.31.31,0,0,1-.14.06.91.91,0,0,1-.22.05l-.61.1C34,22.2,33.77,22.37,33.77,22.67Z"/><path class="g" d="M36.26,22.67l.32-.11a.71.71,0,0,0,.24.45.77.77,0,0,0,.52.17.73.73,0,0,0,.45-.14.44.44,0,0,0,.17-.35c0-.25-.16-.41-.47-.47L37,22.11c-.45-.1-.67-.35-.67-.73a.75.75,0,0,1,.28-.58,1,1,0,0,1,.65-.23,1.05,1.05,0,0,1,.71.24.92.92,0,0,1,.28.49l-.31.12a.66.66,0,0,0-.19-.38.68.68,0,0,0-.49-.17.65.65,0,0,0-.41.13.42.42,0,0,0-.18.35c0,.23.15.37.43.44l.45.1c.48.11.72.37.72.77a.73.73,0,0,1-.25.56,1,1,0,0,1-.71.26,1.1,1.1,0,0,1-.77-.26A1,1,0,0,1,36.26,22.67Z"/><path class="g" d="M41.07,22.51l.31.11a1.19,1.19,0,0,1-.43.6,1.33,1.33,0,0,1-1.73-.13,1.62,1.62,0,0,1,0-2.12,1.14,1.14,0,0,1,.89-.4,1.22,1.22,0,0,1,.95.39,1.44,1.44,0,0,1,.34,1,.78.78,0,0,1,0,.13h-2.2v0a1.08,1.08,0,0,0,.29.77,1,1,0,0,0,.7.29.9.9,0,0,0,.59-.2A.92.92,0,0,0,41.07,22.51Zm-1.88-.71H41a1,1,0,0,0-.25-.65.93.93,0,0,0-1.31,0A1,1,0,0,0,39.19,21.8Z"/><path class="g" d="M44,19.3l-2,4.1h-.34l2-4.1Z"/><line class="h" x1="88.76" y1="138.06" x2="88.76" y2="162.42"/><polyline class="h" points="88.76 102.62 88.76 115.62 129.92 115.62 129.92 128.25"/><polygon class="i" points="126.18 127.16 129.92 133.63 133.66 127.16 126.18 127.16"/><rect class="h" x="50.75" y="86.68" width="76.14" height="15.94"/><path class="i" d="M55.28,97l.68-.24a.83.83,0,0,0,.27.51.92.92,0,0,0,.63.21.73.73,0,0,0,.48-.15.48.48,0,0,0,.17-.37c0-.25-.16-.42-.49-.49l-.66-.14a1.3,1.3,0,0,1-.7-.39,1,1,0,0,1-.26-.69,1.11,1.11,0,0,1,.41-.86,1.38,1.38,0,0,1,1-.36,2,2,0,0,1,.66.11,1,1,0,0,1,.44.28,1.5,1.5,0,0,1,.24.33.91.91,0,0,1,.12.31l-.66.25a.7.7,0,0,0-.06-.19.62.62,0,0,0-.12-.2.55.55,0,0,0-.24-.18.92.92,0,0,0-.38-.07.69.69,0,0,0-.46.15.45.45,0,0,0-.18.36c0,.25.15.4.44.47l.62.13a1.49,1.49,0,0,1,.79.41,1,1,0,0,1,.28.73,1.17,1.17,0,0,1-.37.83,1.45,1.45,0,0,1-1,.37,1.58,1.58,0,0,1-1.11-.36A1.27,1.27,0,0,1,55.28,97Z"/><path class="i" d="M61.92,96.66l.65.22a1.72,1.72,0,0,1-.62.88,2,2,0,0,1-2.48-.22,2,2,0,0,1-.56-1.5,2,2,0,0,1,.54-1.45,1.7,1.7,0,0,1,1.3-.58,1.72,1.72,0,0,1,1.36.55A2.12,2.12,0,0,1,62.59,96a1.85,1.85,0,0,1,0,.25h-2.9a1.19,1.19,0,0,0,.34.84,1.16,1.16,0,0,0,.82.32A1,1,0,0,0,61.92,96.66Zm-2.21-1h2.1a1,1,0,0,0-.29-.71,1.05,1.05,0,0,0-.77-.28A1,1,0,0,0,60,95,1,1,0,0,0,59.71,95.66Z"/><path class="i" d="M64.3,98h-.75V92.19h.75v2.48a1.28,1.28,0,0,1,.48-.47,1.65,1.65,0,0,1,.79-.18,1.58,1.58,0,0,1,1.3.57A2.19,2.19,0,0,1,67.34,96a2.22,2.22,0,0,1-.48,1.47,1.6,1.6,0,0,1-1.31.58,1.33,1.33,0,0,1-1.25-.66Zm2-1a1.5,1.5,0,0,0,.31-1,1.44,1.44,0,0,0-.31-1,1,1,0,0,0-.83-.37,1,1,0,0,0-.82.37,1.44,1.44,0,0,0-.32,1,1.52,1.52,0,0,0,.32,1,1.09,1.09,0,0,0,1.65,0Z"/><path class="i" d="M72.47,96.88a1,1,0,0,1-.52-.13.61.61,0,0,1-.28-.38,1.11,1.11,0,0,1-1,.53,1.13,1.13,0,0,1-.88-.38,1.4,1.4,0,0,1-.34-1A1.92,1.92,0,0,1,70,94.2a1.43,1.43,0,0,1,1.13-.53,1.06,1.06,0,0,1,.52.13.7.7,0,0,1,.33.39l.08-.42h.63l-.43,2a.89.89,0,0,0,0,.22c0,.22.1.33.31.33s.42-.15.6-.46a2.16,2.16,0,0,0,.26-1.06,1.91,1.91,0,0,0-.62-1.46,2.25,2.25,0,0,0-1.62-.58,2.37,2.37,0,0,0-1.76.71,2.52,2.52,0,0,0-.7,1.84,2.37,2.37,0,0,0,.69,1.76,2.48,2.48,0,0,0,1.86.69,2.59,2.59,0,0,0,1.64-.56l.33.43a2.6,2.6,0,0,1-.9.52,3.14,3.14,0,0,1-1.07.19,3.25,3.25,0,0,1-2.31-.84,2.91,2.91,0,0,1-.89-2.2,3,3,0,0,1,.9-2.25,3.06,3.06,0,0,1,2.2-.87,2.92,2.92,0,0,1,2,.74A2.45,2.45,0,0,1,74,94.8a2.37,2.37,0,0,1-.45,1.48A1.29,1.29,0,0,1,72.47,96.88ZM71.78,95a.8.8,0,0,0-.18-.56.63.63,0,0,0-.49-.19.82.82,0,0,0-.69.35,1.32,1.32,0,0,0-.27.82c0,.58.23.87.68.87A.78.78,0,0,0,71.5,96,1.65,1.65,0,0,0,71.78,95Z"/><path class="i" d="M75.66,98h-.75V92.19h.75Z"/><path class="i" d="M79.64,96.66l.65.22a1.72,1.72,0,0,1-.62.88,2,2,0,0,1-2.48-.22,2,2,0,0,1-.56-1.5,2,2,0,0,1,.54-1.45,1.7,1.7,0,0,1,1.3-.58,1.72,1.72,0,0,1,1.36.55A2.12,2.12,0,0,1,80.31,96a1.85,1.85,0,0,1,0,.25H77.4a1.19,1.19,0,0,0,.34.84,1.16,1.16,0,0,0,.82.32A1,1,0,0,0,79.64,96.66Zm-2.21-1h2.1a1,1,0,0,0-.29-.71,1.05,1.05,0,0,0-.77-.28,1,1,0,0,0-.73.3A1,1,0,0,0,77.43,95.66Z"/><path class="i" d="M83.4,94.13h.78l1,2.89L86,94.13h.79L85.57,98h-.78l-1-2.93-1,2.93H82l-1.27-3.85h.83L82.4,97Z"/><path class="i" d="M87.3,96.94a1,1,0,0,1,.32-.79,1.42,1.42,0,0,1,.85-.37l1-.15c.19,0,.29-.13.29-.29a.64.64,0,0,0-.21-.5.87.87,0,0,0-.62-.19.81.81,0,0,0-.87.78l-.72-.17a1.22,1.22,0,0,1,.5-.9A1.72,1.72,0,0,1,89,94a1.64,1.64,0,0,1,1.21.39,1.41,1.41,0,0,1,.39,1v1.93a4.23,4.23,0,0,0,0,.63h-.73a2.89,2.89,0,0,1,0-.52,1.43,1.43,0,0,1-.47.44,1.45,1.45,0,0,1-.77.2,1.33,1.33,0,0,1-.93-.34A1.09,1.09,0,0,1,87.3,96.94Zm1.39.53a1.19,1.19,0,0,0,.81-.28,1.11,1.11,0,0,0,.3-.86v-.18l-1.17.18a.78.78,0,0,0-.41.18.57.57,0,0,0,0,.79A.61.61,0,0,0,88.69,97.47Z"/><path class="i" d="M91.44,98.19l.73-.17a1,1,0,0,0,.33.67,1,1,0,0,0,.72.27c.78,0,1.17-.41,1.17-1.25v-.55a1,1,0,0,1-.45.46,1.5,1.5,0,0,1-.72.17A1.67,1.67,0,0,1,92,97.27a1.88,1.88,0,0,1-.5-1.34A1.85,1.85,0,0,1,92,94.6a1.64,1.64,0,0,1,1.27-.54,1.19,1.19,0,0,1,1.18.61v-.54h.75v3.56a2.71,2.71,0,0,1-.1.71,2,2,0,0,1-.32.62,1.54,1.54,0,0,1-.6.44,2.55,2.55,0,0,1-.91.16A1.85,1.85,0,0,1,92,99.21,1.51,1.51,0,0,1,91.44,98.19Zm1.89-1a1,1,0,0,0,.79-.34,1.3,1.3,0,0,0,.31-.89,1.28,1.28,0,0,0-.31-.89,1,1,0,0,0-.79-.34,1,1,0,0,0-.8.33,1.48,1.48,0,0,0,0,1.8A1,1,0,0,0,93.33,97.16Z"/><path class="i" d="M96.58,94.59A1.86,1.86,0,0,1,98,94a1.89,1.89,0,0,1,1.42.58,2,2,0,0,1,.55,1.46,2,2,0,0,1-.55,1.47,2,2,0,0,1-2.83,0A2,2,0,0,1,96,96.05,2,2,0,0,1,96.58,94.59Zm.56,2.47a1.15,1.15,0,0,0,.85.37,1.17,1.17,0,0,0,.86-.37,1.4,1.4,0,0,0,.34-1,1.38,1.38,0,0,0-.34-1,1.14,1.14,0,0,0-.86-.37,1.11,1.11,0,0,0-.85.37,1.38,1.38,0,0,0-.35,1A1.41,1.41,0,0,0,97.14,97.06Z"/><path class="i" d="M101.67,95.75V98h-.75V94.13h.74v.55a1.41,1.41,0,0,1,2.2-.24,1.64,1.64,0,0,1,.36,1.1V98h-.75V95.67c0-.65-.3-1-.9-1a.8.8,0,0,0-.66.3A1.16,1.16,0,0,0,101.67,95.75Z"/><path class="i" d="M105.5,97.86a.53.53,0,0,1-.16-.39.54.54,0,0,1,.16-.4.51.51,0,0,1,.39-.17.56.56,0,0,1,.4.17.58.58,0,0,1,.16.4.57.57,0,0,1-.16.39.59.59,0,0,1-.4.16A.53.53,0,0,1,105.5,97.86Z"/><path class="i" d="M109.14,94.7a1.08,1.08,0,0,0-.82.36,1.34,1.34,0,0,0-.34,1,1.37,1.37,0,0,0,.34,1,1.08,1.08,0,0,0,.83.36,1,1,0,0,0,.74-.24,1.27,1.27,0,0,0,.34-.55l.66.29a1.88,1.88,0,0,1-.6.84,1.77,1.77,0,0,1-1.14.36,1.84,1.84,0,0,1-1.39-.59,2.23,2.23,0,0,1,0-2.93,1.85,1.85,0,0,1,1.38-.57,1.78,1.78,0,0,1,1.15.36,1.68,1.68,0,0,1,.57.86l-.68.29a1.28,1.28,0,0,0-.34-.58A1,1,0,0,0,109.14,94.7Z"/><path class="i" d="M112,94.59a1.89,1.89,0,0,1,1.42-.58,1.86,1.86,0,0,1,1.41.58,2,2,0,0,1,.55,1.46,2,2,0,0,1-.55,1.47,2,2,0,0,1-2.83,0,2,2,0,0,1-.55-1.47A2,2,0,0,1,112,94.59Zm.56,2.47a1.17,1.17,0,0,0,.86.37,1.15,1.15,0,0,0,.85-.37,1.41,1.41,0,0,0,.35-1,1.38,1.38,0,0,0-.35-1,1.11,1.11,0,0,0-.85-.37,1.14,1.14,0,0,0-.86.37,1.38,1.38,0,0,0-.34,1A1.4,1.4,0,0,0,112.52,97.06Z"/><path class="i" d="M117.05,98h-.74V94.13H117v.51a1.17,1.17,0,0,1,.5-.46,1.44,1.44,0,0,1,.67-.16,1.37,1.37,0,0,1,.69.18,1.18,1.18,0,0,1,.47.54,1.35,1.35,0,0,1,1.28-.72,1.3,1.3,0,0,1,.94.37,1.45,1.45,0,0,1,.39,1.09V98h-.74V95.56a.93.93,0,0,0-.21-.64.75.75,0,0,0-.61-.24.81.81,0,0,0-.64.28,1,1,0,0,0-.25.69V98h-.75V95.56a1,1,0,0,0-.2-.64.77.77,0,0,0-.62-.24.82.82,0,0,0-.64.27,1,1,0,0,0-.25.71Z"/><path class="i" d="M61.94,50.3v-.07a1.38,1.38,0,0,1-.46.5,1.36,1.36,0,0,1-.74.19,1.64,1.64,0,0,1-1.32-.58,2.16,2.16,0,0,1-.5-1.46,2.12,2.12,0,0,1,.51-1.43,1.66,1.66,0,0,1,1.31-.58,1.37,1.37,0,0,1,.77.19,1,1,0,0,1,.41.46V45h.74v5.08c0,.26,0,.5,0,.71H62A2.68,2.68,0,0,1,61.94,50.3Zm-2.25-1.42a1.54,1.54,0,0,0,.3,1,1,1,0,0,0,.83.39,1,1,0,0,0,.8-.39,1.55,1.55,0,0,0,.31-1,1.48,1.48,0,0,0-.3-1,1,1,0,0,0-.81-.37,1,1,0,0,0-.82.38A1.45,1.45,0,0,0,59.69,48.88Z"/><path class="i" d="M63.93,45.9a.55.55,0,0,1-.15-.38.56.56,0,0,1,.15-.39.51.51,0,0,1,.38-.16.53.53,0,0,1,.39.16.53.53,0,0,1,.16.39.53.53,0,0,1-.55.53A.54.54,0,0,1,63.93,45.9Zm.76,4.92h-.75V47h.75Z"/><path class="i" d="M66.71,50.82H66V47h.72v.51a1.15,1.15,0,0,1,.49-.46,1.48,1.48,0,0,1,.68-.16,1.3,1.3,0,0,1,.68.18,1.15,1.15,0,0,1,.47.55,1.34,1.34,0,0,1,1.29-.73,1.31,1.31,0,0,1,.94.37,1.5,1.5,0,0,1,.38,1.09v2.5h-.74V48.4a1,1,0,0,0-.2-.64.77.77,0,0,0-.62-.24.81.81,0,0,0-.64.28,1,1,0,0,0-.24.69v2.33h-.76V48.4a.94.94,0,0,0-.2-.64.76.76,0,0,0-.61-.24.83.83,0,0,0-.65.27,1,1,0,0,0-.25.71Z"/><path class="i" d="M72.81,45.9a.55.55,0,0,1-.15-.38.56.56,0,0,1,.15-.39.51.51,0,0,1,.38-.16.53.53,0,0,1,.39.16.53.53,0,0,1,.16.39.53.53,0,0,1-.55.53A.54.54,0,0,1,72.81,45.9Zm.76,4.92h-.75V47h.75Z"/><path class="i" d="M75.86,45.75V47h.83v.68h-.83v2a.56.56,0,0,0,.12.4.53.53,0,0,0,.41.13,1.39,1.39,0,0,0,.3,0v.64a1.74,1.74,0,0,1-.51.07,1.07,1.07,0,0,1-.79-.29,1.1,1.1,0,0,1-.29-.81V47.65h-.73V47h.21a.57.57,0,0,0,.44-.16.61.61,0,0,0,.15-.43v-.63Z"/><path class="i" d="M79.74,46.93v.8l-.32,0c-.71,0-1.06.39-1.06,1.18v1.93h-.75V47h.73v.67a1.2,1.2,0,0,1,1.16-.73A1,1,0,0,1,79.74,46.93Z"/><path class="i" d="M80.53,45.9a.55.55,0,0,1-.15-.38.56.56,0,0,1,.15-.39.51.51,0,0,1,.38-.16.53.53,0,0,1,.54.55.55.55,0,0,1-.15.38.56.56,0,0,1-.39.15A.54.54,0,0,1,80.53,45.9Zm.76,4.92h-.75V47h.75Z"/><path class="i" d="M86.74,49.72a1.08,1.08,0,0,1-.52-.12.66.66,0,0,1-.28-.39,1.11,1.11,0,0,1-1,.53,1.13,1.13,0,0,1-.88-.38,1.4,1.4,0,0,1-.34-1A1.92,1.92,0,0,1,84.24,47a1.46,1.46,0,0,1,1.13-.53,1.06,1.06,0,0,1,.52.13.7.7,0,0,1,.33.39l.08-.42h.63l-.43,2a.89.89,0,0,0,0,.22c0,.22.1.33.31.33s.42-.15.6-.46a2.16,2.16,0,0,0,.26-1.06A1.91,1.91,0,0,0,87,46.19a2.25,2.25,0,0,0-1.62-.58,2.37,2.37,0,0,0-1.76.71,2.54,2.54,0,0,0-.7,1.84,2.37,2.37,0,0,0,.69,1.76,2.48,2.48,0,0,0,1.86.69,2.59,2.59,0,0,0,1.64-.56l.32.43a2.33,2.33,0,0,1-.89.52,3.14,3.14,0,0,1-1.07.19,3.25,3.25,0,0,1-2.31-.84,2.89,2.89,0,0,1-.89-2.2,3,3,0,0,1,.9-2.24,3,3,0,0,1,2.2-.88,2.92,2.92,0,0,1,2,.74,2.59,2.59,0,0,1,.38,3.36A1.3,1.3,0,0,1,86.74,49.72Zm-.69-1.86a.8.8,0,0,0-.18-.56.63.63,0,0,0-.49-.19.84.84,0,0,0-.69.35,1.32,1.32,0,0,0-.27.82c0,.58.23.87.68.87a.78.78,0,0,0,.67-.36A1.65,1.65,0,0,0,86.05,47.86Z"/><path class="i" d="M89.93,50.82h-.75V45h.75Z"/><path class="i" d="M93.91,49.5l.65.22a1.68,1.68,0,0,1-.63.88,1.76,1.76,0,0,1-1.1.34,1.87,1.87,0,0,1-1.37-.56,2,2,0,0,1-.57-1.5,2,2,0,0,1,.55-1.45,1.84,1.84,0,0,1,2.65,0,2.09,2.09,0,0,1,.49,1.47,1.77,1.77,0,0,1,0,.24h-2.9A1.19,1.19,0,0,0,92,50a1.12,1.12,0,0,0,.82.32A1,1,0,0,0,93.91,49.5Zm-2.22-1H93.8a1,1,0,0,0-1.06-1,1,1,0,0,0-.73.29A1,1,0,0,0,91.69,48.5Z"/><path class="i" d="M97.67,47h.78l1,2.9.84-2.9h.8l-1.25,3.85h-.78l-1-2.93-1,2.93h-.79L95,47h.83l.86,2.9Z"/><path class="i" d="M101.57,49.79a1,1,0,0,1,.32-.8,1.48,1.48,0,0,1,.84-.37l1-.15c.2,0,.3-.13.3-.29a.66.66,0,0,0-.21-.5.92.92,0,0,0-.62-.19.81.81,0,0,0-.87.78l-.72-.17a1.22,1.22,0,0,1,.5-.9,1.72,1.72,0,0,1,1.07-.35,1.61,1.61,0,0,1,1.21.4,1.37,1.37,0,0,1,.39,1v1.93a4,4,0,0,0,.05.63h-.74a4.17,4.17,0,0,1,0-.52,1.4,1.4,0,0,1-1.25.64,1.28,1.28,0,0,1-.92-.34A1.09,1.09,0,0,1,101.57,49.79Zm1.39.52a1.16,1.16,0,0,0,.81-.28,1.09,1.09,0,0,0,.3-.86V49l-1.18.18a.72.72,0,0,0-.4.19.5.5,0,0,0-.16.39.51.51,0,0,0,.18.39A.61.61,0,0,0,103,50.31Z"/><path class="i" d="M105.71,51l.73-.17a1,1,0,0,0,.33.67,1,1,0,0,0,.72.27c.78,0,1.17-.41,1.17-1.24V50a1,1,0,0,1-.45.46,1.4,1.4,0,0,1-.72.18,1.68,1.68,0,0,1-1.27-.53,2,2,0,0,1,0-2.67,1.68,1.68,0,0,1,1.28-.54,1.19,1.19,0,0,1,1.18.61V47h.74v3.56a2.37,2.37,0,0,1-.1.72,1.85,1.85,0,0,1-.31.61,1.48,1.48,0,0,1-.61.44,2.26,2.26,0,0,1-.9.16,1.89,1.89,0,0,1-1.21-.4A1.54,1.54,0,0,1,105.71,51Zm1.89-1a1,1,0,0,0,.79-.34,1.28,1.28,0,0,0,.31-.89,1.3,1.3,0,0,0-.31-.89,1,1,0,0,0-.79-.34,1.07,1.07,0,0,0-.81.33,1.32,1.32,0,0,0-.3.9,1.29,1.29,0,0,0,.3.9A1,1,0,0,0,107.6,50Z"/><path class="i" d="M110.85,47.43a1.86,1.86,0,0,1,1.41-.58,1.89,1.89,0,0,1,1.42.58,2,2,0,0,1,.55,1.46,2,2,0,0,1-.55,1.47,2,2,0,0,1-2.83,0,2.06,2.06,0,0,1-.56-1.47A2,2,0,0,1,110.85,47.43Zm.56,2.47a1.11,1.11,0,0,0,.85.37,1.14,1.14,0,0,0,.86-.37,1.4,1.4,0,0,0,.34-1,1.38,1.38,0,0,0-.34-1,1.14,1.14,0,0,0-.86-.37,1.11,1.11,0,0,0-.85.37,1.38,1.38,0,0,0-.35,1A1.41,1.41,0,0,0,111.41,49.9Z"/><path class="i" d="M115.94,48.6v2.22h-.75V47h.74v.55a1.41,1.41,0,0,1,2.2-.24,1.66,1.66,0,0,1,.36,1.1v2.44h-.76V48.51c0-.65-.29-1-.89-1a.8.8,0,0,0-.66.3A1.17,1.17,0,0,0,115.94,48.6Z"/><path class="i" d="M66.2,62.27a.92.92,0,0,1-.51-.13.57.57,0,0,1-.28-.38,1.13,1.13,0,0,1-1,.52,1.14,1.14,0,0,1-.89-.37,1.4,1.4,0,0,1-.34-1,2,2,0,0,1,.47-1.33,1.46,1.46,0,0,1,1.13-.54,1.1,1.1,0,0,1,.53.14.7.7,0,0,1,.33.39l.07-.42h.63l-.43,2a.93.93,0,0,0,0,.23q0,.33.3.33c.22,0,.42-.16.6-.46a2.06,2.06,0,0,0,.26-1.06,1.9,1.9,0,0,0-.62-1.47,2.29,2.29,0,0,0-1.62-.57,2.37,2.37,0,0,0-1.76.7,2.55,2.55,0,0,0-.69,1.85,2.42,2.42,0,0,0,.68,1.76,2.51,2.51,0,0,0,1.86.69,2.57,2.57,0,0,0,1.64-.56l.33.43a2.63,2.63,0,0,1-.89.51,3.26,3.26,0,0,1-1.08.2,3.21,3.21,0,0,1-2.3-.84,2.89,2.89,0,0,1-.9-2.2,3.06,3.06,0,0,1,3.11-3.13,2.92,2.92,0,0,1,2,.75,2.41,2.41,0,0,1,.82,1.87,2.45,2.45,0,0,1-.44,1.48A1.32,1.32,0,0,1,66.2,62.27Zm-.69-1.87a.82.82,0,0,0-.17-.55.65.65,0,0,0-.5-.2.8.8,0,0,0-.68.36,1.32,1.32,0,0,0-.27.82c0,.58.22.87.68.87a.81.81,0,0,0,.67-.36A1.71,1.71,0,0,0,65.51,60.4Z"/><path class="i" d="M69.39,63.36h-.75V57.57h.75Z"/><path class="i" d="M73.38,62l.64.23a1.66,1.66,0,0,1-.62.87,1.76,1.76,0,0,1-1.1.34,1.9,1.9,0,0,1-1.38-.55,2,2,0,0,1-.56-1.5A2.06,2.06,0,0,1,70.9,60a1.87,1.87,0,0,1,2.66,0,2.17,2.17,0,0,1,.49,1.47,1.44,1.44,0,0,1,0,.24H71.14a1.14,1.14,0,0,0,1.16,1.17A1,1,0,0,0,73.38,62Zm-2.22-1h2.1a1,1,0,0,0-.28-.7,1,1,0,0,0-.77-.28,1,1,0,0,0-.74.29A1.1,1.1,0,0,0,71.16,61Z"/><path class="i" d="M77.14,59.52h.77l1,2.89.85-2.89h.79L79.3,63.36h-.77l-1-2.92-1,2.92h-.79l-1.26-3.84h.82l.87,2.89Z"/><path class="i" d="M81,62.33a1,1,0,0,1,.32-.79,1.52,1.52,0,0,1,.85-.38l1-.15c.2,0,.3-.12.3-.29a.64.64,0,0,0-.21-.49A.9.9,0,0,0,82.7,60a.83.83,0,0,0-.6.21.9.9,0,0,0-.27.56l-.72-.17a1.3,1.3,0,0,1,.51-.9,2,2,0,0,1,2.28,0,1.39,1.39,0,0,1,.39,1v1.93a3.1,3.1,0,0,0,0,.63H83.6a2.82,2.82,0,0,1,0-.52,1.45,1.45,0,0,1-.47.45,1.4,1.4,0,0,1-.77.19,1.29,1.29,0,0,1-.93-.34A1.06,1.06,0,0,1,81,62.33Zm1.39.52a1.17,1.17,0,0,0,.81-.27,1.11,1.11,0,0,0,.31-.86v-.18l-1.18.18a.68.68,0,0,0-.41.18.53.53,0,0,0-.15.39.54.54,0,0,0,.17.39A.6.6,0,0,0,82.42,62.85Z"/><path class="i" d="M85.18,63.57l.72-.17a1,1,0,0,0,.33.68,1,1,0,0,0,.72.27c.79,0,1.18-.42,1.18-1.25v-.55a1.14,1.14,0,0,1-.45.45,1.44,1.44,0,0,1-.73.18,1.69,1.69,0,0,1-1.27-.52,1.88,1.88,0,0,1-.5-1.34,1.92,1.92,0,0,1,.5-1.34A1.64,1.64,0,0,1,87,59.44a1.22,1.22,0,0,1,1.19.61v-.53h.74v3.56a2.34,2.34,0,0,1-.1.71,1.79,1.79,0,0,1-.32.61,1.31,1.31,0,0,1-.6.44A2.31,2.31,0,0,1,87,65a1.86,1.86,0,0,1-1.21-.4A1.46,1.46,0,0,1,85.18,63.57Zm1.88-1a1.06,1.06,0,0,0,.8-.34,1.49,1.49,0,0,0,0-1.79,1.11,1.11,0,0,0-1.6,0,1.25,1.25,0,0,0-.31.9,1.32,1.32,0,0,0,.3.9A1,1,0,0,0,87.06,62.55Z"/><path class="i" d="M90.32,60a2,2,0,0,1,2.82,0,2.18,2.18,0,0,1,0,2.92,1.84,1.84,0,0,1-1.41.58,1.86,1.86,0,0,1-1.42-.58,2.2,2.2,0,0,1,0-2.92Zm.56,2.47a1.13,1.13,0,0,0,.85.36,1.14,1.14,0,0,0,.85-.36,1.63,1.63,0,0,0,0-2,1.14,1.14,0,0,0-.85-.36,1.13,1.13,0,0,0-.85.36,1.63,1.63,0,0,0,0,2Z"/><path class="i" d="M95.41,61.14v2.22h-.75V59.52h.73v.55a1.29,1.29,0,0,1,1.19-.67,1.28,1.28,0,0,1,1,.43A1.68,1.68,0,0,1,98,60.92v2.44H97.2V61.05c0-.64-.3-1-.9-1a.8.8,0,0,0-.66.3A1.25,1.25,0,0,0,95.41,61.14Z"/><path class="i" d="M99.23,63.24a.5.5,0,0,1-.16-.39.51.51,0,0,1,.16-.39.54.54,0,0,1,.39-.17.54.54,0,0,1,.4.17.51.51,0,0,1,.16.39.5.5,0,0,1-.16.39.54.54,0,0,1-.4.16A.53.53,0,0,1,99.23,63.24Z"/><path class="i" d="M102.88,60.09a1.13,1.13,0,0,0-.83.35,1.63,1.63,0,0,0,0,2,1.12,1.12,0,0,0,.84.36,1,1,0,0,0,.73-.24A1.24,1.24,0,0,0,104,62l.66.28a1.76,1.76,0,0,1-1.73,1.2,1.81,1.81,0,0,1-1.39-.58,2,2,0,0,1-.56-1.46A2,2,0,0,1,101.5,60a1.82,1.82,0,0,1,1.38-.57,1.73,1.73,0,0,1,1.14.36,1.64,1.64,0,0,1,.57.86l-.68.29a1.24,1.24,0,0,0-.33-.58A1,1,0,0,0,102.88,60.09Z"/><path class="i" d="M105.7,60a2,2,0,0,1,2.82,0,2,2,0,0,1,.56,1.46,2,2,0,0,1-.55,1.46,1.86,1.86,0,0,1-1.42.58,1.84,1.84,0,0,1-1.41-.58,2.18,2.18,0,0,1,0-2.92Zm.56,2.47a1.14,1.14,0,0,0,.85.36,1.13,1.13,0,0,0,.85-.36,1.63,1.63,0,0,0,0-2,1.13,1.13,0,0,0-.85-.36,1.14,1.14,0,0,0-.85.36,1.63,1.63,0,0,0,0,2Z"/><path class="i" d="M110.78,63.36H110V59.52h.72V60a1.14,1.14,0,0,1,.5-.47,1.54,1.54,0,0,1,.67-.16,1.38,1.38,0,0,1,.69.19,1.12,1.12,0,0,1,.46.54,1.38,1.38,0,0,1,1.29-.73,1.31,1.31,0,0,1,.94.38,1.44,1.44,0,0,1,.39,1.09v2.49H115V61a1,1,0,0,0-.2-.64.76.76,0,0,0-.61-.24.81.81,0,0,0-.64.27,1,1,0,0,0-.25.7v2.32h-.75V61a.93.93,0,0,0-.21-.64.75.75,0,0,0-.61-.24.85.85,0,0,0-.65.27,1,1,0,0,0-.25.7Z"/><path class="i" d="M54.88,75.91h-.74V70.12h.74v2.49a1.24,1.24,0,0,1,.49-.47,1.52,1.52,0,0,1,.79-.19,1.58,1.58,0,0,1,1.3.57,2.49,2.49,0,0,1,0,2.91,1.59,1.59,0,0,1-1.31.58,1.35,1.35,0,0,1-1.25-.66Zm2-1a1.71,1.71,0,0,0,0-2,1,1,0,0,0-.83-.37,1,1,0,0,0-.82.37,1.41,1.41,0,0,0-.32,1,1.45,1.45,0,0,0,.32,1,1,1,0,0,0,.82.38A1,1,0,0,0,56.84,75Z"/><path class="i" d="M59.12,72.52a2,2,0,0,1,2.82,0,2.21,2.21,0,0,1,0,2.93,1.86,1.86,0,0,1-1.42.58,1.84,1.84,0,0,1-1.41-.58A2.06,2.06,0,0,1,58.56,74,2,2,0,0,1,59.12,72.52ZM59.68,75a1.11,1.11,0,0,0,.85.37,1.1,1.1,0,0,0,.85-.37,1.37,1.37,0,0,0,.35-1,1.34,1.34,0,0,0-.35-1,1.1,1.1,0,0,0-.85-.37,1.11,1.11,0,0,0-.85.37,1.38,1.38,0,0,0-.35,1A1.41,1.41,0,0,0,59.68,75Z"/><path class="i" d="M65.6,72v.8l-.33,0c-.71,0-1.06.39-1.06,1.18v1.93h-.75V72.06h.74v.67A1.18,1.18,0,0,1,65.35,72,1.06,1.06,0,0,1,65.6,72Z"/><path class="i" d="M66.38,71a.51.51,0,0,1-.15-.37.56.56,0,0,1,.15-.39.51.51,0,0,1,.38-.16.53.53,0,0,1,.39.16.53.53,0,0,1,.16.39.55.55,0,0,1-.55.53A.51.51,0,0,1,66.38,71Zm.76,4.93H66.4V72.06h.74Z"/><path class="i" d="M68.06,74.91l.68-.24a.85.85,0,0,0,.27.52,1,1,0,0,0,.63.2.73.73,0,0,0,.48-.15.48.48,0,0,0,.17-.36c0-.26-.16-.42-.49-.5l-.66-.14a1.3,1.3,0,0,1-.7-.39,1,1,0,0,1-.26-.69,1.11,1.11,0,0,1,.4-.86,1.4,1.4,0,0,1,1-.36,1.88,1.88,0,0,1,.65.11,1.16,1.16,0,0,1,.45.28,1.5,1.5,0,0,1,.24.33A2,2,0,0,1,71,73l-.66.25a.7.7,0,0,0-.06-.19.88.88,0,0,0-.12-.2.52.52,0,0,0-.25-.18.84.84,0,0,0-.37-.07.69.69,0,0,0-.46.15.45.45,0,0,0-.18.36c0,.25.14.4.44.47l.62.13a1.43,1.43,0,0,1,.79.42,1.05,1.05,0,0,1,.28.73,1.13,1.13,0,0,1-.38.82,1.37,1.37,0,0,1-1,.37,1.58,1.58,0,0,1-1.11-.36A1.24,1.24,0,0,1,68.06,74.91Z"/><path class="i" d="M76.2,74.81a1.07,1.07,0,0,1-.51-.12.62.62,0,0,1-.28-.39,1.11,1.11,0,0,1-1,.53,1.13,1.13,0,0,1-.88-.38,1.4,1.4,0,0,1-.34-1,1.92,1.92,0,0,1,.47-1.33,1.46,1.46,0,0,1,1.13-.53,1.06,1.06,0,0,1,.52.13.7.7,0,0,1,.33.39l.07-.42h.64l-.44,2a1.8,1.8,0,0,0,0,.22q0,.33.3.33c.23,0,.43-.15.6-.46a2.06,2.06,0,0,0,.27-1.06,1.91,1.91,0,0,0-.62-1.46,2.28,2.28,0,0,0-1.62-.58,2.37,2.37,0,0,0-1.76.71,2.5,2.5,0,0,0-.7,1.84A2.37,2.37,0,0,0,73.1,75,2.48,2.48,0,0,0,75,75.7a2.59,2.59,0,0,0,1.64-.56l.32.43a2.41,2.41,0,0,1-.89.52,3.14,3.14,0,0,1-1.07.19,3.25,3.25,0,0,1-2.31-.84,2.86,2.86,0,0,1-.89-2.2,3,3,0,0,1,.9-2.24,3,3,0,0,1,2.2-.88,2.92,2.92,0,0,1,2,.74,2.62,2.62,0,0,1,.38,3.36A1.32,1.32,0,0,1,76.2,74.81ZM75.52,73a.8.8,0,0,0-.18-.56.63.63,0,0,0-.5-.19.84.84,0,0,0-.68.35,1.32,1.32,0,0,0-.27.82c0,.58.23.87.68.87a.79.79,0,0,0,.67-.36A1.65,1.65,0,0,0,75.52,73Z"/><path class="i" d="M79.4,75.91h-.76V70.12h.76Z"/><path class="i" d="M83.38,74.59l.65.22a1.68,1.68,0,0,1-.63.88,1.76,1.76,0,0,1-1.1.34,1.87,1.87,0,0,1-1.37-.56,2.22,2.22,0,0,1,0-3,1.84,1.84,0,0,1,2.65,0A2.09,2.09,0,0,1,84.05,74a1.77,1.77,0,0,1,0,.24h-2.9a1.15,1.15,0,0,0,.34.84,1.1,1.1,0,0,0,.82.32A1,1,0,0,0,83.38,74.59Zm-2.22-1h2.11a1,1,0,0,0-.29-.71,1,1,0,0,0-.77-.27,1,1,0,0,0-.73.29A1,1,0,0,0,81.16,73.59Z"/><path class="i" d="M87.14,72.06h.78l1,2.9.84-2.9h.8l-1.25,3.85h-.78l-1-2.93-1,2.93h-.79l-1.27-3.85h.83l.86,2.9Z"/><path class="i" d="M91,74.88a1,1,0,0,1,.32-.8,1.48,1.48,0,0,1,.84-.37l1-.15c.2,0,.3-.13.3-.29a.66.66,0,0,0-.21-.5.94.94,0,0,0-.62-.19.81.81,0,0,0-.87.78l-.72-.17a1.22,1.22,0,0,1,.5-.9,1.72,1.72,0,0,1,1.07-.35,1.61,1.61,0,0,1,1.21.4,1.37,1.37,0,0,1,.39,1v1.93a4,4,0,0,0,0,.63H93.6a4.07,4.07,0,0,1,0-.52,1.42,1.42,0,0,1-.46.45,1.55,1.55,0,0,1-.78.19,1.3,1.3,0,0,1-.93-.34A1.11,1.11,0,0,1,91,74.88Zm1.39.52a1.16,1.16,0,0,0,.81-.28,1.09,1.09,0,0,0,.3-.86v-.18l-1.18.18a.86.86,0,0,0-.41.18.54.54,0,0,0-.15.4.51.51,0,0,0,.18.39A.61.61,0,0,0,92.43,75.4Z"/><path class="i" d="M95.18,76.12l.73-.17a.94.94,0,0,0,.33.67,1,1,0,0,0,.72.27c.78,0,1.17-.41,1.17-1.24v-.56a1,1,0,0,1-.45.46,1.43,1.43,0,0,1-.72.18,1.67,1.67,0,0,1-1.27-.53,1.84,1.84,0,0,1-.5-1.34,1.89,1.89,0,0,1,.49-1.33A1.66,1.66,0,0,1,97,72a1.19,1.19,0,0,1,1.18.61v-.54h.74v3.56a2.37,2.37,0,0,1-.1.72,1.85,1.85,0,0,1-.31.61,1.48,1.48,0,0,1-.61.44,2.29,2.29,0,0,1-.9.16,1.89,1.89,0,0,1-1.21-.4A1.54,1.54,0,0,1,95.18,76.12Zm1.89-1a1,1,0,0,0,.79-.34,1.28,1.28,0,0,0,.3-.89,1.3,1.3,0,0,0-.3-.89,1,1,0,0,0-.79-.34,1.07,1.07,0,0,0-.81.33,1.32,1.32,0,0,0-.3.9,1.29,1.29,0,0,0,.3.9A1,1,0,0,0,97.07,75.09Z"/><path class="i" d="M100.32,72.52a2,2,0,0,1,2.82,0,2.21,2.21,0,0,1,0,2.93,1.86,1.86,0,0,1-1.42.58,1.84,1.84,0,0,1-1.41-.58A2.06,2.06,0,0,1,99.76,74,2,2,0,0,1,100.32,72.52Zm.56,2.47a1.11,1.11,0,0,0,.85.37,1.1,1.1,0,0,0,.85-.37,1.37,1.37,0,0,0,.35-1,1.34,1.34,0,0,0-.35-1,1.1,1.1,0,0,0-.85-.37,1.11,1.11,0,0,0-.85.37,1.38,1.38,0,0,0-.35,1A1.41,1.41,0,0,0,100.88,75Z"/><path class="i" d="M105.41,73.69v2.22h-.75V72.06h.73v.55a1.29,1.29,0,0,1,1.19-.66,1.27,1.27,0,0,1,1,.42,1.65,1.65,0,0,1,.35,1.1v2.44h-.75V73.6c0-.65-.3-1-.89-1a.77.77,0,0,0-.66.3A1.17,1.17,0,0,0,105.41,73.69Z"/><path class="i" d="M110.77,72.64a1.1,1.1,0,0,0-.83.35,1.38,1.38,0,0,0-.34,1,1.41,1.41,0,0,0,.34,1,1.12,1.12,0,0,0,.84.36,1,1,0,0,0,.73-.24,1.18,1.18,0,0,0,.34-.55l.67.29a1.83,1.83,0,0,1-.61.84,1.72,1.72,0,0,1-1.13.36,1.84,1.84,0,0,1-1.39-.59,2.2,2.2,0,0,1,0-2.93,1.85,1.85,0,0,1,1.38-.57,1.73,1.73,0,0,1,1.14.36,1.68,1.68,0,0,1,.57.86l-.68.29a1.26,1.26,0,0,0-.33-.57A1,1,0,0,0,110.77,72.64Z"/><path class="i" d="M113.59,72.52a1.86,1.86,0,0,1,1.41-.58,1.89,1.89,0,0,1,1.42.58A2,2,0,0,1,117,74a2,2,0,0,1-.55,1.47,2,2,0,0,1-2.83,0A2,2,0,0,1,113,74,2,2,0,0,1,113.59,72.52Zm.56,2.47a1.11,1.11,0,0,0,.85.37,1.14,1.14,0,0,0,.86-.37,1.4,1.4,0,0,0,.34-1,1.38,1.38,0,0,0-.34-1,1.14,1.14,0,0,0-.86-.37,1.11,1.11,0,0,0-.85.37,1.38,1.38,0,0,0-.35,1A1.41,1.41,0,0,0,114.15,75Z"/><path class="i" d="M118.68,75.91h-.75V72.06h.72v.51a1.17,1.17,0,0,1,.5-.46,1.44,1.44,0,0,1,.67-.16,1.37,1.37,0,0,1,.69.18,1.13,1.13,0,0,1,.46.55,1.36,1.36,0,0,1,1.29-.73,1.3,1.3,0,0,1,.94.37,1.47,1.47,0,0,1,.39,1.09v2.5h-.75V73.49a.94.94,0,0,0-.2-.64.76.76,0,0,0-.61-.24.8.8,0,0,0-.64.28,1,1,0,0,0-.25.69v2.33h-.75V73.49a1,1,0,0,0-.21-.64.75.75,0,0,0-.61-.24.86.86,0,0,0-.65.27,1.05,1.05,0,0,0-.24.71Z"/><rect class="h" x="119.5" y="138.17" width="20.82" height="6.88" rx="1"/><rect class="h" x="119.5" y="146.86" width="20.82" height="6.88" rx="1"/><rect class="h" x="119.5" y="155.54" width="20.82" height="6.88" rx="1"/><path class="h" d="M54.78,162.42H41.57c-.28,0-.51-.3-.51-.68l-2.65-22.89a.7.7,0,0,1,.71-.68H57.34a.7.7,0,0,1,.72.68L55.3,161.74A.62.62,0,0,1,54.78,162.42Z"/><polygon class="j" points="103.19 187.43 171.81 107.18 171.81 184.54 166.95 187.43 103.19 187.43"/></symbol></defs><title>email-step2</title><rect class="k" y="70" width="900" height="158.05"/><rect class="l" x="279" y="70" width="338.62" height="160"/><use width="174.65" height="187.81" transform="translate(323.82 14.76) scale(1.45)" xlink:href="#a"/></svg>