<svg xmlns="http://www.w3.org/2000/svg" xmlns:xlink="http://www.w3.org/1999/xlink" viewBox="0 0 900 300"><defs><style>.a{fill:#fef6ea;stroke-width:0.75px;}.a,.b,.c,.d,.f,.i{stroke:#f1e5ce;}.a,.b,.c,.d,.e,.f,.i{stroke-miterlimit:10;}.b{fill:#ed2627;}.b,.c,.d,.i{stroke-width:0.5px;}.c{fill:#fec75e;}.d{fill:#5abd80;}.e,.k{fill:#7e73ff;}.e{stroke:#eceaff;}.e,.f{stroke-width:0.8px;}.f,.h,.j{fill:#fff;}.g,.l{fill:#4b4b4b;}.i{fill:none;}.j{opacity:0.12;}.l{opacity:0.13;}</style><symbol id="b" viewBox="0 0 180.96 194.59"><rect class="a" x="0.38" y="0.37" width="180.21" height="193.84" rx="3"/><circle class="b" cx="5.93" cy="6.41" r="1.69"/><circle class="c" cx="11.05" cy="6.41" r="1.69"/><circle class="d" cx="16.18" cy="6.41" r="1.69"/></symbol><symbol id="a" viewBox="0 0 174.65 187.81"><use width="180.96" height="194.59" transform="translate(0.01 0.01) scale(0.96)" xlink:href="#b"/><rect class="e" x="8.82" y="68.82" width="157.01" height="109.58"/><rect class="f" x="8.82" y="20.11" width="157.01" height="42.18"/><path class="g" d="M27,29.69H25.06v5h-.49v-5H22.64v-.45H27Z"/><path class="g" d="M27.3,31.48a1.68,1.68,0,0,1,1.28-.55,1.7,1.7,0,0,1,1.29.55,2.11,2.11,0,0,1,0,2.8,1.73,1.73,0,0,1-1.29.54,1.69,1.69,0,0,1-1.27-.54,2.13,2.13,0,0,1,0-2.8ZM27.65,34a1.21,1.21,0,0,0,.93.4,1.23,1.23,0,0,0,.94-.4,1.56,1.56,0,0,0,.41-1.12,1.62,1.62,0,0,0-.41-1.13,1.23,1.23,0,0,0-.94-.39,1.21,1.21,0,0,0-.93.39,1.61,1.61,0,0,0-.4,1.13A1.55,1.55,0,0,0,27.65,34Z"/><path class="g" d="M31.66,31.81a.36.36,0,0,1-.28-.11.41.41,0,0,1,0-.58.36.36,0,0,1,.28-.12.41.41,0,0,1,.3.12.44.44,0,0,1,0,.58A.4.4,0,0,1,31.66,31.81Zm.3,2.82a.41.41,0,0,1-.58,0,.39.39,0,0,1-.11-.28.42.42,0,0,1,.11-.29.41.41,0,0,1,.58,0,.38.38,0,0,1,.12.29A.36.36,0,0,1,32,34.63Z"/><path class="g" d="M34.94,33.74l.42-.15a1,1,0,0,0,.31.6,1.05,1.05,0,0,0,.7.23.92.92,0,0,0,.6-.19.57.57,0,0,0,.23-.47q0-.49-.63-.63L36,33a1,1,0,0,1-.51-1.75,1.3,1.3,0,0,1,.87-.32,1.37,1.37,0,0,1,.94.33,1.2,1.2,0,0,1,.37.65l-.41.16a.88.88,0,0,0-.25-.5.93.93,0,0,0-.65-.23.9.9,0,0,0-.55.17.58.58,0,0,0-.24.47c0,.3.19.5.57.59l.61.13c.63.15.95.49.95,1a1,1,0,0,1-.33.75,1.37,1.37,0,0,1-1,.34,1.45,1.45,0,0,1-1-.35A1.21,1.21,0,0,1,34.94,33.74Z"/><path class="g" d="M41.34,33.53l.41.15a1.67,1.67,0,0,1-.56.8,1.69,1.69,0,0,1-1,.34,1.65,1.65,0,0,1-1.26-.52,2,2,0,0,1-.53-1.44,2,2,0,0,1,.51-1.39,1.53,1.53,0,0,1,1.19-.54,1.64,1.64,0,0,1,1.27.53,2,2,0,0,1,.46,1.34s0,.08,0,.17H38.83v0a1.43,1.43,0,0,0,.38,1,1.24,1.24,0,0,0,.93.39,1.27,1.27,0,0,0,.79-.26A1.26,1.26,0,0,0,41.34,33.53Zm-2.5-1h2.45a1.3,1.3,0,0,0-.33-.87,1.19,1.19,0,0,0-.9-.36,1.16,1.16,0,0,0-.85.36A1.38,1.38,0,0,0,38.84,32.58Z"/><path class="g" d="M43.21,34.72h-.45V29.14h.45v2.6a1.42,1.42,0,0,1,.46-.54,1.5,1.5,0,0,1,.88-.26,1.55,1.55,0,0,1,1.23.55,2.1,2.1,0,0,1,.44,1.37,2.06,2.06,0,0,1-.45,1.39,1.56,1.56,0,0,1-1.24.56,1.4,1.4,0,0,1-.85-.25,1.42,1.42,0,0,1-.47-.56ZM45.4,34a1.7,1.7,0,0,0,.34-1.1,1.63,1.63,0,0,0-.34-1.08,1.15,1.15,0,0,0-.93-.43,1.1,1.1,0,0,0-.91.43,1.62,1.62,0,0,0-.36,1.08,1.66,1.66,0,0,0,.36,1.1,1.1,1.1,0,0,0,.91.44A1.16,1.16,0,0,0,45.4,34Z"/><path class="g" d="M52.11,33.05a1.19,1.19,0,0,1-1,.55.82.82,0,0,1-.51-.16.6.6,0,0,1-.21-.44,1.07,1.07,0,0,1-1,.61,1,1,0,0,1-.8-.36,1.28,1.28,0,0,1-.32-.93,1.85,1.85,0,0,1,.42-1.22,1.36,1.36,0,0,1,1.06-.52.9.9,0,0,1,.55.17.7.7,0,0,1,.3.45l.1-.53h.39l-.39,1.93c0,.14,0,.21,0,.22a.38.38,0,0,0,.43.43.81.81,0,0,0,.68-.46,2,2,0,0,0,.32-1.14,2.06,2.06,0,0,0-.61-1.49,2.35,2.35,0,0,0-1.71-.65,2.41,2.41,0,0,0-1.8.74,2.65,2.65,0,0,0-.73,1.9A2.43,2.43,0,0,0,48,34a2.75,2.75,0,0,0,3.7,0l.21.26a2.77,2.77,0,0,1-.91.6,3.29,3.29,0,0,1-1.11.21,3,3,0,0,1-2.16-.82,2.82,2.82,0,0,1-.84-2.1,2.94,2.94,0,0,1,2.93-3,2.78,2.78,0,0,1,2,.76,2.32,2.32,0,0,1,.74,1.75A2.21,2.21,0,0,1,52.11,33.05Zm-1.86-.28a2.1,2.1,0,0,0,.27-1,.86.86,0,0,0-.2-.59.68.68,0,0,0-.55-.22.91.91,0,0,0-.74.39,1.48,1.48,0,0,0-.31.92,1.17,1.17,0,0,0,.19.68.65.65,0,0,0,.58.29A.86.86,0,0,0,50.25,32.77Z"/><path class="g" d="M54,34.72h-.46V29.14H54Z"/><path class="g" d="M57.93,33.53l.41.15a1.67,1.67,0,0,1-.56.8,1.69,1.69,0,0,1-1.05.34,1.65,1.65,0,0,1-1.26-.52,2,2,0,0,1-.53-1.44,2,2,0,0,1,.51-1.39,1.53,1.53,0,0,1,1.19-.54,1.64,1.64,0,0,1,1.27.53,2,2,0,0,1,.46,1.34s0,.08,0,.17H55.42v0a1.43,1.43,0,0,0,.38,1,1.24,1.24,0,0,0,.93.39,1.27,1.27,0,0,0,.79-.26A1.33,1.33,0,0,0,57.93,33.53Zm-2.5-1h2.45a1.3,1.3,0,0,0-.33-.87,1.19,1.19,0,0,0-.9-.36,1.16,1.16,0,0,0-.85.36A1.38,1.38,0,0,0,55.43,32.58Z"/><path class="g" d="M61.35,31h.5l1.09,3.12,1-3.12h.49l-1.22,3.69H62.7L61.59,31.6l-1.1,3.12H60L58.76,31h.51l1,3.12Z"/><path class="g" d="M65.22,34.49a.92.92,0,0,1-.31-.72c0-.6.37-1,1.11-1.09l1-.15c.25,0,.38-.16.38-.36a.82.82,0,0,0-.24-.61,1,1,0,0,0-.68-.22,1.06,1.06,0,0,0-.72.23.91.91,0,0,0-.31.63L65,32.1a1.28,1.28,0,0,1,.47-.85,1.58,1.58,0,0,1,1-.32,1.43,1.43,0,0,1,1.06.38,1.3,1.3,0,0,1,.34.91v1.86a4.49,4.49,0,0,0,0,.64h-.44a2.4,2.4,0,0,1,0-.64,1.21,1.21,0,0,1-.46.49,1.41,1.41,0,0,1-.82.24A1.29,1.29,0,0,1,65.22,34.49Zm.16-.75a.66.66,0,0,0,.21.48.82.82,0,0,0,.58.2,1.18,1.18,0,0,0,.87-.33,1.14,1.14,0,0,0,.34-.88v-.44s-.09,0-.19.08l-.29.07-.82.12C65.62,33.11,65.38,33.34,65.38,33.74Z"/><path class="g" d="M68.72,34.93l.44-.11a1.13,1.13,0,0,0,.37.75,1.2,1.2,0,0,0,.81.31,1.17,1.17,0,0,0,1-.43,1.63,1.63,0,0,0,.27-1v-.67a1.14,1.14,0,0,1-.44.5,1.34,1.34,0,0,1-.81.24A1.52,1.52,0,0,1,69.18,34a1.76,1.76,0,0,1-.46-1.28,1.8,1.8,0,0,1,.45-1.26,1.68,1.68,0,0,1,2-.31,1.12,1.12,0,0,1,.44.53V31h.46v3.42a2,2,0,0,1-.36,1.24,1.85,1.85,0,0,1-2.48.21A1.41,1.41,0,0,1,68.72,34.93Zm.81-1.21a1.14,1.14,0,0,0,.89.39,1.12,1.12,0,0,0,.88-.39,1.64,1.64,0,0,0,0-2,1.12,1.12,0,0,0-.88-.39,1.16,1.16,0,0,0-.89.38,1.44,1.44,0,0,0-.34,1A1.4,1.4,0,0,0,69.53,33.72Z"/><path class="g" d="M73.51,31.48a1.68,1.68,0,0,1,1.28-.55,1.7,1.7,0,0,1,1.29.55,2.11,2.11,0,0,1,0,2.8,1.73,1.73,0,0,1-1.29.54,1.69,1.69,0,0,1-1.27-.54,2.13,2.13,0,0,1,0-2.8ZM73.86,34a1.21,1.21,0,0,0,.93.4,1.27,1.27,0,0,0,.95-.4,1.6,1.6,0,0,0,.4-1.12,1.66,1.66,0,0,0-.4-1.13,1.27,1.27,0,0,0-.95-.39,1.21,1.21,0,0,0-.93.39,1.61,1.61,0,0,0-.4,1.13A1.55,1.55,0,0,0,73.86,34Z"/><path class="g" d="M78.06,32.52v2.2H77.6V31H78v.63a1.24,1.24,0,0,1,1.2-.72,1.26,1.26,0,0,1,1,.4,1.41,1.41,0,0,1,.32,1v2.4h-.46V32.39a1.05,1.05,0,0,0-.24-.73.94.94,0,0,0-.75-.3.93.93,0,0,0-.75.35A1.16,1.16,0,0,0,78.06,32.52Z"/><path class="g" d="M82.1,34.75a.38.38,0,0,1-.28-.12.36.36,0,0,1-.12-.28.38.38,0,0,1,.12-.29.38.38,0,0,1,.28-.12.41.41,0,0,1,.3.12.42.42,0,0,1,.11.29.39.39,0,0,1-.11.28A.41.41,0,0,1,82.1,34.75Z"/><path class="g" d="M85.83,31.65a1.15,1.15,0,0,0-.81-.29,1.2,1.2,0,0,0-.94.4,1.61,1.61,0,0,0-.39,1.12,1.52,1.52,0,0,0,.39,1.1,1.18,1.18,0,0,0,.94.41,1.13,1.13,0,0,0,.82-.29,1.28,1.28,0,0,0,.38-.6l.41.17a1.58,1.58,0,0,1-.53.78,1.78,1.78,0,0,1-2.37-.18,1.94,1.94,0,0,1-.51-1.39,2,2,0,0,1,.51-1.4A1.7,1.7,0,0,1,85,30.93a1.56,1.56,0,0,1,1.58,1.16l-.41.17A1.34,1.34,0,0,0,85.83,31.65Z"/><path class="g" d="M87.73,31.48A1.68,1.68,0,0,1,89,30.93a1.7,1.7,0,0,1,1.29.55,2.11,2.11,0,0,1,0,2.8,1.73,1.73,0,0,1-1.29.54,1.69,1.69,0,0,1-1.27-.54,2,2,0,0,1-.53-1.4A1.91,1.91,0,0,1,87.73,31.48ZM88.08,34a1.21,1.21,0,0,0,.93.4A1.27,1.27,0,0,0,90,34a1.6,1.6,0,0,0,.4-1.12,1.66,1.66,0,0,0-.4-1.13,1.25,1.25,0,0,0-.95-.39,1.21,1.21,0,0,0-.93.39,1.61,1.61,0,0,0-.4,1.13A1.55,1.55,0,0,0,88.08,34Z"/><path class="g" d="M92.27,34.72h-.45V31h.44v.62a1.23,1.23,0,0,1,.45-.51,1.35,1.35,0,0,1,.73-.2,1.29,1.29,0,0,1,.74.22,1.15,1.15,0,0,1,.42.62,1.26,1.26,0,0,1,1.26-.84,1.28,1.28,0,0,1,.91.35,1.42,1.42,0,0,1,.37,1v2.43h-.47V32.34a1,1,0,0,0-.25-.71.85.85,0,0,0-.69-.28,1,1,0,0,0-.74.33,1.12,1.12,0,0,0-.29.78v2.26h-.46V32.34a1,1,0,0,0-.24-.71.88.88,0,0,0-.7-.28,1,1,0,0,0-.74.33,1.12,1.12,0,0,0-.29.78Z"/><path class="g" d="M26.77,48.88l-1,.3a.93.93,0,0,0-1-.78.9.9,0,0,0-.62.21.63.63,0,0,0-.24.49c0,.33.2.54.59.62l.77.14a2,2,0,0,1,1.12.58,1.5,1.5,0,0,1,.41,1,1.56,1.56,0,0,1-.54,1.18,2,2,0,0,1-1.44.51,2.45,2.45,0,0,1-.93-.16,1.82,1.82,0,0,1-.68-.41,1.85,1.85,0,0,1-.39-.55,1.6,1.6,0,0,1-.18-.6l1-.26a1.19,1.19,0,0,0,.34.74,1.22,1.22,0,0,0,.86.29,1,1,0,0,0,.65-.19.61.61,0,0,0,.06-.9.94.94,0,0,0-.49-.23l-.76-.16a1.89,1.89,0,0,1-1.05-.54,1.44,1.44,0,0,1-.39-1A1.57,1.57,0,0,1,23.46,48a2,2,0,0,1,1.35-.5,2.74,2.74,0,0,1,.84.13,1.56,1.56,0,0,1,.59.36,1.61,1.61,0,0,1,.35.45A2,2,0,0,1,26.77,48.88Z"/><path class="g" d="M30.06,53.05a2.22,2.22,0,0,1,0-.41.91.91,0,0,1-.44.38,1.42,1.42,0,0,1-.61.13,1.34,1.34,0,0,1-1.06-.43,1.52,1.52,0,0,1-.39-1.07v-2.4h1v2.2a.83.83,0,0,0,.18.55.64.64,0,0,0,.51.21.71.71,0,0,0,.53-.2.77.77,0,0,0,.19-.55V49.25h1v3.11a4.93,4.93,0,0,0,0,.69Z"/><path class="g" d="M33.09,53.05h-1V47.46h1v2.21a1.1,1.1,0,0,1,.44-.37,1.58,1.58,0,0,1,.71-.15,1.6,1.6,0,0,1,1.28.56A2.16,2.16,0,0,1,36,51.14a2.12,2.12,0,0,1-.5,1.44,1.61,1.61,0,0,1-1.29.57,1.23,1.23,0,0,1-1.13-.56Zm1.63-1.11a1.17,1.17,0,0,0,.26-.79,1.14,1.14,0,0,0-.26-.79.94.94,0,0,0-1.36,0,1.27,1.27,0,0,0,0,1.58.88.88,0,0,0,.67.29A.91.91,0,0,0,34.72,51.94Z"/><path class="g" d="M36.82,53.28v-4h1v4.13a1.27,1.27,0,0,1-.33.91,1.11,1.11,0,0,1-.86.35,1.46,1.46,0,0,1-.58-.09v-.86a1.2,1.2,0,0,0,.31,0C36.68,53.73,36.82,53.58,36.82,53.28Zm.06-4.83A.61.61,0,0,1,36.7,48a.64.64,0,0,1,.18-.45.62.62,0,0,1,.45-.19.64.64,0,0,1,.45,1.09.64.64,0,0,1-.45.18A.61.61,0,0,1,36.88,48.45Z"/><path class="g" d="M41.49,51.71l.86.25a1.72,1.72,0,0,1-.61.87,1.78,1.78,0,0,1-1.12.34,2.07,2.07,0,0,1-1.41-3.47,1.77,1.77,0,0,1,1.32-.56,1.79,1.79,0,0,1,1.37.52,2,2,0,0,1,.5,1.45v.14a.57.57,0,0,0,0,.12v.05H39.67A.85.85,0,0,0,40,52a1,1,0,0,0,.67.25A.83.83,0,0,0,41.49,51.71Zm-1.8-1h1.7a.78.78,0,0,0-.23-.53.94.94,0,0,0-1.22,0A.77.77,0,0,0,39.69,50.72Z"/><path class="g" d="M44.92,50.09a.94.94,0,0,0-.69.28,1.22,1.22,0,0,0,0,1.57.91.91,0,0,0,.69.29A.85.85,0,0,0,45.5,52a.94.94,0,0,0,.3-.45l.9.3a1.68,1.68,0,0,1-.6.9,1.81,1.81,0,0,1-1.17.38,1.91,1.91,0,0,1-1.43-.58,2,2,0,0,1-.57-1.44,2,2,0,0,1,.56-1.44,1.92,1.92,0,0,1,1.41-.57,1.79,1.79,0,0,1,1.18.37,1.67,1.67,0,0,1,.6.91l-.92.31A.79.79,0,0,0,44.92,50.09Z"/><path class="g" d="M48.72,48.12v1.13h.77v.91h-.77v1.6a.48.48,0,0,0,.11.34.53.53,0,0,0,.34.1.89.89,0,0,0,.32,0V53a1.37,1.37,0,0,1-.58.1,1.22,1.22,0,0,1-.88-.32,1.11,1.11,0,0,1-.33-.86V50.16H47v-.91h.19a.57.57,0,0,0,.44-.16.63.63,0,0,0,.15-.44v-.53Z"/><path class="g" d="M50.55,50.38a.62.62,0,0,1-.2-.48.66.66,0,0,1,.2-.5.66.66,0,0,1,.48-.2.69.69,0,0,1,.5.2.67.67,0,0,1,.21.5.63.63,0,0,1-.21.48.65.65,0,0,1-.5.2A.62.62,0,0,1,50.55,50.38Zm0,2.53a.7.7,0,0,1-.2-.49.68.68,0,0,1,.2-.49.69.69,0,0,1,1,0,.64.64,0,0,1,.2.49.66.66,0,0,1-.2.49.71.71,0,0,1-1,0Z"/><path class="g" d="M54.45,50.32a2.73,2.73,0,0,1,.83-2.07,2.89,2.89,0,0,1,4,0,3,3,0,0,1,0,4.13,2.89,2.89,0,0,1-4,0A2.71,2.71,0,0,1,54.45,50.32ZM56.07,49a2,2,0,0,0,0,2.7,1.77,1.77,0,0,0,2.4,0,2,2,0,0,0,0-2.7,1.77,1.77,0,0,0-2.4,0Z"/><path class="g" d="M63.42,53.05a2.09,2.09,0,0,1,0-.41A.85.85,0,0,1,63,53a1.44,1.44,0,0,1-.62.13,1.32,1.32,0,0,1-1-.43,1.52,1.52,0,0,1-.39-1.07v-2.4h1v2.2a.83.83,0,0,0,.18.55.62.62,0,0,0,.51.21.72.72,0,0,0,.53-.2.77.77,0,0,0,.19-.55V49.25h1v3.11a4.93,4.93,0,0,0,0,.69Z"/><path class="g" d="M67.77,49.24v1a1.63,1.63,0,0,0-.31,0,1,1,0,0,0-.71.25,1.08,1.08,0,0,0-.27.82v1.74h-1v-3.8h1v.57a1.06,1.06,0,0,1,1.08-.6Z"/><path class="g" d="M72.53,49.25h1.08l.82,2.45.7-2.45h1L75,53.05h-1l-.89-2.59-.87,2.59h-1l-1.22-3.8H71l.71,2.44Z"/><path class="g" d="M79.24,51.71l.86.25a1.72,1.72,0,0,1-.61.87,1.78,1.78,0,0,1-1.12.34A2.07,2.07,0,0,1,77,49.7a1.77,1.77,0,0,1,1.32-.56,1.79,1.79,0,0,1,1.37.52,2,2,0,0,1,.5,1.45v.14s0,.09,0,.12v.05H77.42a.85.85,0,0,0,.29.62,1,1,0,0,0,.67.25A.83.83,0,0,0,79.24,51.71Zm-1.8-1h1.7a.78.78,0,0,0-.23-.53.94.94,0,0,0-1.22,0A.82.82,0,0,0,77.44,50.72Z"/><path class="g" d="M82,53.05H81V47.46h1v2.21a1.14,1.14,0,0,1,.45-.37,1.57,1.57,0,0,1,.7-.15,1.62,1.62,0,0,1,1.29.56,2.16,2.16,0,0,1,.47,1.43,2.12,2.12,0,0,1-.5,1.44,1.63,1.63,0,0,1-1.29.57A1.23,1.23,0,0,1,82,52.59Zm1.62-1.11a1.13,1.13,0,0,0,.27-.79,1.1,1.1,0,0,0-.27-.79.87.87,0,0,0-.67-.29.91.91,0,0,0-.68.29,1.1,1.1,0,0,0-.27.79,1.13,1.13,0,0,0,.27.79.92.92,0,0,0,.68.29A.87.87,0,0,0,83.58,51.94Z"/><path class="g" d="M85.36,52l.88-.19a.58.58,0,0,0,.2.41.68.68,0,0,0,.5.17.58.58,0,0,0,.37-.11.32.32,0,0,0,.13-.27c0-.19-.14-.31-.41-.37l-.5-.11a1.46,1.46,0,0,1-.8-.42,1,1,0,0,1-.27-.72,1.15,1.15,0,0,1,.41-.88,1.47,1.47,0,0,1,1-.36,2,2,0,0,1,.68.11,1.1,1.1,0,0,1,.46.29,1.33,1.33,0,0,1,.25.35,1.18,1.18,0,0,1,.1.34l-.85.2a.65.65,0,0,0-.18-.36.61.61,0,0,0-.45-.15.5.5,0,0,0-.34.11.31.31,0,0,0-.14.27c0,.18.11.3.34.34l.54.11a1.53,1.53,0,0,1,.84.43,1,1,0,0,1,.29.74,1.18,1.18,0,0,1-.39.88,1.52,1.52,0,0,1-1.08.37,2,2,0,0,1-.72-.12,1.18,1.18,0,0,1-.49-.31,1.23,1.23,0,0,1-.26-.38A1.45,1.45,0,0,1,85.36,52Z"/><path class="g" d="M89.12,48a.61.61,0,0,1,.19-.45.58.58,0,0,1,.45-.19.58.58,0,0,1,.44.19.58.58,0,0,1,.19.45.58.58,0,0,1-.19.44.62.62,0,0,1-.89,0A.58.58,0,0,1,89.12,48Zm1.15,5h-1v-3.8h1Z"/><path class="g" d="M92.64,48.12v1.13h.76v.91h-.76v1.6a.48.48,0,0,0,.1.34.55.55,0,0,0,.34.1.89.89,0,0,0,.32,0V53a1.37,1.37,0,0,1-.58.1,1.22,1.22,0,0,1-.88-.32,1.1,1.1,0,0,1-.32-.86V50.16h-.69v-.91h.19a.57.57,0,0,0,.44-.16.63.63,0,0,0,.15-.44v-.53Z"/><path class="g" d="M96.78,51.71l.86.25a1.66,1.66,0,0,1-.61.87,1.78,1.78,0,0,1-1.12.34A2.07,2.07,0,0,1,94.5,49.7a1.77,1.77,0,0,1,1.32-.56,1.79,1.79,0,0,1,1.37.52,2,2,0,0,1,.5,1.45v.14s0,.09,0,.12v.05H95a.85.85,0,0,0,.29.62,1,1,0,0,0,.67.25A.83.83,0,0,0,96.78,51.71Zm-1.8-1h1.7a.78.78,0,0,0-.23-.53.94.94,0,0,0-1.22,0A.82.82,0,0,0,95,50.72Z"/><path class="g" d="M100.29,48a.64.64,0,0,1,.18-.45.6.6,0,0,1,.45-.19.63.63,0,0,1,.63.64.6.6,0,0,1-.18.44.65.65,0,0,1-.45.19.64.64,0,0,1-.45-.19A.6.6,0,0,1,100.29,48Zm1.15,5h-1v-3.8h1Z"/><path class="g" d="M102.21,52l.88-.19a.54.54,0,0,0,.2.41.65.65,0,0,0,.49.17.56.56,0,0,0,.37-.11.33.33,0,0,0,.14-.27c0-.19-.14-.31-.41-.37l-.51-.11a1.43,1.43,0,0,1-.79-.42,1,1,0,0,1-.27-.72,1.14,1.14,0,0,1,.4-.88,1.5,1.5,0,0,1,1-.36,2,2,0,0,1,.68.11,1.17,1.17,0,0,1,.46.29,1.29,1.29,0,0,1,.24.35,1.22,1.22,0,0,1,.11.34l-.86.2a.65.65,0,0,0-.18-.36.6.6,0,0,0-.44-.15.52.52,0,0,0-.35.11.33.33,0,0,0-.14.27c0,.18.12.3.35.34l.54.11a1.6,1.6,0,0,1,.84.43,1,1,0,0,1,.29.74,1.18,1.18,0,0,1-.39.88,1.54,1.54,0,0,1-1.09.37,2.05,2.05,0,0,1-.72-.12,1.25,1.25,0,0,1-.49-.31,1.72,1.72,0,0,1-.26-.38A1.11,1.11,0,0,1,102.21,52Z"/><path class="g" d="M108.28,49.71a2.07,2.07,0,0,1,2.85,0,2,2,0,0,1,.57,1.44,2,2,0,0,1-.57,1.45,2.07,2.07,0,0,1-2.85,0,2,2,0,0,1-.57-1.45A2,2,0,0,1,108.28,49.71ZM109,52a1,1,0,0,0,1.37,0,1.08,1.08,0,0,0,.28-.8,1.06,1.06,0,0,0-.28-.79,1,1,0,0,0-1.37,0,1.06,1.06,0,0,0-.28.79A1.08,1.08,0,0,0,109,52Z"/><path class="g" d="M113.54,50.87v2.18h-1v-3.8h1v.48a1.09,1.09,0,0,1,.47-.43,1.39,1.39,0,0,1,.63-.15,1.24,1.24,0,0,1,1,.42,1.64,1.64,0,0,1,.35,1.09v2.39h-1V50.84a.81.81,0,0,0-.18-.55.74.74,0,0,0-1,0A.84.84,0,0,0,113.54,50.87Z"/><path class="g" d="M118,53.05h-1V47.46h1Z"/><path class="g" d="M119,48a.64.64,0,0,1,.18-.45.6.6,0,0,1,.45-.19.63.63,0,0,1,.63.64.6.6,0,0,1-.18.44.65.65,0,0,1-.45.19.64.64,0,0,1-.45-.19A.6.6,0,0,1,119,48Zm1.15,5h-1v-3.8h1Z"/><path class="g" d="M122.29,50.87v2.18h-1v-3.8h1v.48a1.06,1.06,0,0,1,.46-.43,1.4,1.4,0,0,1,.64-.15,1.27,1.27,0,0,1,1,.42,1.7,1.7,0,0,1,.35,1.09v2.39h-1V50.84a.86.86,0,0,0-.17-.55.75.75,0,0,0-1,0A.84.84,0,0,0,122.29,50.87Z"/><path class="g" d="M128.32,51.71l.86.25a1.72,1.72,0,0,1-.61.87,1.8,1.8,0,0,1-1.12.34A2.07,2.07,0,0,1,126,49.7a1.76,1.76,0,0,1,1.31-.56,1.8,1.8,0,0,1,1.38.52,2,2,0,0,1,.5,1.45v.14a.57.57,0,0,0,0,.12v.05H126.5a.85.85,0,0,0,.29.62,1,1,0,0,0,.66.25A.83.83,0,0,0,128.32,51.71Zm-1.8-1h1.7a.78.78,0,0,0-.23-.53.94.94,0,0,0-1.22,0A.77.77,0,0,0,126.52,50.72Z"/><path class="g" d="M131.4,47.58l-.25,3.8h-.75l-.24-3.8Zm-1.05,5.36a.6.6,0,0,1-.18-.44.58.58,0,0,1,.18-.43.58.58,0,0,1,.42-.18.6.6,0,0,1,.44.18.58.58,0,0,1,.18.43.6.6,0,0,1-.18.44.6.6,0,0,1-.44.17A.57.57,0,0,1,130.35,52.94Z"/><path class="h" d="M25.38,87.08H23.24V80.92H25.4a2.86,2.86,0,0,1,2.08.82A3,3,0,0,1,28.32,84a3,3,0,0,1-.85,2.25A2.88,2.88,0,0,1,25.38,87.08Zm-1.29-.76h1.26a2,2,0,0,0,1.5-.6,2.31,2.31,0,0,0,.6-1.71,2.4,2.4,0,0,0-.59-1.73,2,2,0,0,0-1.49-.61H24.09Z"/><path class="h" d="M32.34,85.64l.71.25a1.89,1.89,0,0,1-.68,1,2,2,0,0,1-1.2.37,2.07,2.07,0,0,1-1.49-.61A2.16,2.16,0,0,1,29.07,85a2.24,2.24,0,0,1,.59-1.58,2,2,0,0,1,2.88,0,2.29,2.29,0,0,1,.53,1.6,2,2,0,0,1,0,.26H29.91a1.28,1.28,0,0,0,.37.91,1.21,1.21,0,0,0,.89.35A1.12,1.12,0,0,0,32.34,85.64Zm-2.4-1.08h2.28a1.08,1.08,0,0,0-.31-.77,1.11,1.11,0,0,0-.83-.3,1,1,0,0,0-.8.32A1.14,1.14,0,0,0,29.94,84.56Z"/><path class="h" d="M33.86,86a1.15,1.15,0,0,1,.34-.87,1.59,1.59,0,0,1,.92-.4l1.13-.17c.22,0,.32-.13.32-.31a.7.7,0,0,0-.22-.54,1,1,0,0,0-.68-.21.93.93,0,0,0-.66.23,1,1,0,0,0-.29.62l-.78-.19a1.33,1.33,0,0,1,.55-1,1.78,1.78,0,0,1,1.16-.38A1.75,1.75,0,0,1,37,83.2a1.46,1.46,0,0,1,.43,1.1v2.09a4.86,4.86,0,0,0,0,.69h-.8a3.48,3.48,0,0,1,0-.57,1.6,1.6,0,0,1-.51.49,1.54,1.54,0,0,1-.84.21,1.42,1.42,0,0,1-1-.37A1.18,1.18,0,0,1,33.86,86Zm1.51.56a1.24,1.24,0,0,0,.87-.3,1.17,1.17,0,0,0,.33-.93V85.1l-1.27.19a.78.78,0,0,0-.45.2.54.54,0,0,0-.16.42.57.57,0,0,0,.19.43A.66.66,0,0,0,35.37,86.52Z"/><path class="h" d="M41,82.86v.86l-.36,0c-.76,0-1.15.43-1.15,1.28v2.1h-.81V82.9h.8v.73a1.29,1.29,0,0,1,1.25-.8A1.24,1.24,0,0,1,41,82.86Z"/><path class="h" d="M48,82.32l-.77.27a1.28,1.28,0,0,0-.39-.73,1.22,1.22,0,0,0-.91-.33,1.24,1.24,0,0,0-.85.3.92.92,0,0,0-.34.73.8.8,0,0,0,.21.57,1,1,0,0,0,.58.32l.92.2a2.16,2.16,0,0,1,1.18.62,1.6,1.6,0,0,1,.42,1.11,1.7,1.7,0,0,1-.59,1.29,2.19,2.19,0,0,1-1.54.54,2.3,2.3,0,0,1-1.62-.55,2.05,2.05,0,0,1-.68-1.29l.82-.26a1.47,1.47,0,0,0,.43.94,1.66,1.66,0,0,0,2,.1.87.87,0,0,0,.33-.7.88.88,0,0,0-.23-.6,1.26,1.26,0,0,0-.69-.35l-.88-.19a2.07,2.07,0,0,1-1.09-.59,1.54,1.54,0,0,1-.41-1.1,1.69,1.69,0,0,1,.6-1.28,2,2,0,0,1,1.43-.55,2,2,0,0,1,1.45.46A2,2,0,0,1,48,82.32Z"/><path class="h" d="M52,85.64l.71.25a1.89,1.89,0,0,1-.68,1,2,2,0,0,1-1.2.37,2.07,2.07,0,0,1-1.49-.61A2.2,2.2,0,0,1,48.74,85a2.24,2.24,0,0,1,.59-1.58,1.9,1.9,0,0,1,1.41-.62,1.88,1.88,0,0,1,1.47.59,2.29,2.29,0,0,1,.53,1.6,2,2,0,0,1,0,.26H49.58a1.28,1.28,0,0,0,.37.91,1.21,1.21,0,0,0,.89.35A1.12,1.12,0,0,0,52,85.64Zm-2.4-1.08h2.28a1.08,1.08,0,0,0-.31-.77,1.11,1.11,0,0,0-.83-.3,1,1,0,0,0-.8.32A1.14,1.14,0,0,0,49.61,84.56Z"/><path class="h" d="M54.59,87.08h-.8V80.79h.8v2.7a1.37,1.37,0,0,1,.53-.51,1.79,1.79,0,0,1,.86-.2,1.73,1.73,0,0,1,1.41.61,2.72,2.72,0,0,1,0,3.17,1.73,1.73,0,0,1-1.42.63,1.45,1.45,0,0,1-1.36-.72Zm2.13-1A1.61,1.61,0,0,0,57.06,85a1.64,1.64,0,0,0-.33-1.08,1.14,1.14,0,0,0-.9-.39,1.12,1.12,0,0,0-.9.4A1.56,1.56,0,0,0,54.59,85a1.64,1.64,0,0,0,.34,1.08,1.13,1.13,0,0,0,.9.41A1.1,1.1,0,0,0,56.72,86.05Z"/><path class="h" d="M58.72,86.52a.55.55,0,0,1,.18-.41.64.64,0,0,1,.45-.17.66.66,0,0,1,.5.21.85.85,0,0,1,.21.61,1.73,1.73,0,0,1-.4,1.21,1.48,1.48,0,0,1-.89.49V88a.92.92,0,0,0,.52-.35,1,1,0,0,0,.2-.59.32.32,0,0,1-.19,0,.53.53,0,0,1-.41-.16A.58.58,0,0,1,58.72,86.52Z"/><path class="h" d="M25.91,112.3a3,3,0,0,1-2.16-.87,3.11,3.11,0,0,1-.9-2.35,3.26,3.26,0,0,1,.45-1.73,2.89,2.89,0,0,1,1.14-1.11,3.13,3.13,0,0,1,1.47-.36,2.91,2.91,0,0,1,1.76.52,2.5,2.5,0,0,1,.95,1.43l-.79.28a1.89,1.89,0,0,0-.67-1.07,2,2,0,0,0-1.25-.38,2.11,2.11,0,0,0-1.55.64,2.38,2.38,0,0,0-.64,1.78,2.41,2.41,0,0,0,.64,1.79,2.11,2.11,0,0,0,1.55.64,2,2,0,0,0,1.26-.4,2.14,2.14,0,0,0,.7-1.07l.76.28a2.65,2.65,0,0,1-1,1.43A2.83,2.83,0,0,1,25.91,112.3Z"/><path class="h" d="M29.75,108.49a2,2,0,0,1,1.54-.63,2.05,2.05,0,0,1,1.53.63,2.41,2.41,0,0,1,0,3.18,2.19,2.19,0,0,1-3.07,0,2.41,2.41,0,0,1,0-3.18Zm.61,2.68a1.27,1.27,0,0,0,1.85,0,1.77,1.77,0,0,0,0-2.19,1.29,1.29,0,0,0-1.85,0,1.77,1.77,0,0,0,0,2.19Z"/><path class="h" d="M35.27,112.17h-.81V108h.78v.55a1.3,1.3,0,0,1,.54-.5,1.57,1.57,0,0,1,.73-.17,1.38,1.38,0,0,1,.75.2,1.17,1.17,0,0,1,.5.59,1.48,1.48,0,0,1,1.4-.79,1.41,1.41,0,0,1,1,.4,1.6,1.6,0,0,1,.42,1.19v2.71h-.8v-2.63a1,1,0,0,0-.23-.69.79.79,0,0,0-.66-.26.91.91,0,0,0-.7.3,1.12,1.12,0,0,0-.26.75v2.53h-.82v-2.63a1,1,0,0,0-.22-.69.81.81,0,0,0-.67-.26.92.92,0,0,0-.7.29,1.1,1.1,0,0,0-.27.77Z"/><path class="h" d="M44.84,110.73l.71.25a2,2,0,0,1-.68,1,2,2,0,0,1-1.2.37,2.05,2.05,0,0,1-1.49-.61,2.16,2.16,0,0,1-.61-1.63,2.2,2.2,0,0,1,.59-1.58,2,2,0,0,1,2.88,0,2.29,2.29,0,0,1,.53,1.6,1,1,0,0,1,0,.26H42.41a1.28,1.28,0,0,0,.37.91,1.21,1.21,0,0,0,.89.35A1.12,1.12,0,0,0,44.84,110.73Zm-2.4-1.08h2.28a1.12,1.12,0,0,0-.31-.77,1.14,1.14,0,0,0-.84-.3,1,1,0,0,0-.79.32A1.09,1.09,0,0,0,42.44,109.65Z"/><path class="h" d="M48.52,111.05a1.15,1.15,0,0,1,.35-.87,1.59,1.59,0,0,1,.92-.4l1.13-.17c.22,0,.32-.13.32-.31a.7.7,0,0,0-.22-.54,1,1,0,0,0-.68-.21.93.93,0,0,0-.66.23,1,1,0,0,0-.29.62l-.78-.19a1.33,1.33,0,0,1,.55-1,1.78,1.78,0,0,1,1.16-.38,1.75,1.75,0,0,1,1.31.43,1.46,1.46,0,0,1,.43,1.1v2.09a4.86,4.86,0,0,0,0,.69h-.8a3.48,3.48,0,0,1,0-.57,1.6,1.6,0,0,1-.51.49,1.54,1.54,0,0,1-.84.21,1.46,1.46,0,0,1-1-.37A1.18,1.18,0,0,1,48.52,111.05Zm1.52.56a1.24,1.24,0,0,0,.87-.3,1.17,1.17,0,0,0,.33-.93v-.19l-1.27.19a.78.78,0,0,0-.45.2.54.54,0,0,0-.16.42.6.6,0,0,0,.18.43A.7.7,0,0,0,50,111.61Z"/><path class="h" d="M54.14,109.75v2.42h-.81V108h.8v.6a1.53,1.53,0,0,1,2.39-.26,1.76,1.76,0,0,1,.39,1.19v2.65h-.82v-2.51c0-.71-.33-1-1-1a.85.85,0,0,0-.72.32A1.3,1.3,0,0,0,54.14,109.75Z"/><path class="h" d="M61.13,111.6v-.07a1.36,1.36,0,0,1-.5.54,1.43,1.43,0,0,1-.79.21,1.8,1.8,0,0,1-1.44-.63,2.36,2.36,0,0,1-.54-1.59,2.26,2.26,0,0,1,.56-1.55,1.8,1.8,0,0,1,1.42-.63,1.48,1.48,0,0,1,.83.2,1.07,1.07,0,0,1,.45.5v-2.7h.8v5.51a6.14,6.14,0,0,0,0,.78h-.79A3.27,3.27,0,0,1,61.13,111.6Zm-2.44-1.54a1.7,1.7,0,0,0,.33,1.08,1.08,1.08,0,0,0,.9.42,1.05,1.05,0,0,0,.88-.43,1.7,1.7,0,0,0,.33-1.08,1.57,1.57,0,0,0-.33-1,1,1,0,0,0-.87-.4,1.12,1.12,0,0,0-.9.4A1.66,1.66,0,0,0,58.69,110.06Z"/><path class="h" d="M69.06,108l-1.66,4.18h-.83L64.88,108h.92L67,111.21l1.2-3.22Z"/><path class="h" d="M69.83,106.82a.57.57,0,0,1-.17-.41.61.61,0,0,1,.17-.42.53.53,0,0,1,.41-.17.55.55,0,0,1,.42.17.54.54,0,0,1,.17.42.53.53,0,0,1-.17.41.59.59,0,0,1-.42.17A.57.57,0,0,1,69.83,106.82Zm.82,5.35h-.81V108h.81Z"/><path class="h" d="M71.65,111.08l.74-.26a.9.9,0,0,0,.29.56,1,1,0,0,0,.68.22.77.77,0,0,0,.52-.16.49.49,0,0,0,.19-.39c0-.28-.18-.46-.53-.54l-.72-.16a1.35,1.35,0,0,1-.76-.42,1.06,1.06,0,0,1-.28-.75,1.21,1.21,0,0,1,.44-.93,1.52,1.52,0,0,1,1-.39A2,2,0,0,1,74,108a1.13,1.13,0,0,1,.48.3,1.87,1.87,0,0,1,.27.36,2,2,0,0,1,.13.34l-.73.27a.83.83,0,0,0-.06-.21,1.38,1.38,0,0,0-.13-.22.62.62,0,0,0-.27-.19,1,1,0,0,0-.4-.08.74.74,0,0,0-.5.17.5.5,0,0,0-.2.39c0,.26.16.43.48.5l.68.15a1.55,1.55,0,0,1,.85.45,1.11,1.11,0,0,1,.3.79,1.24,1.24,0,0,1-.4.9,1.57,1.57,0,0,1-1.13.4,1.73,1.73,0,0,1-1.2-.39A1.37,1.37,0,0,1,71.65,111.08Z"/><path class="h" d="M76,106.82a.56.56,0,0,1-.16-.41A.6.6,0,0,1,76,106a.55.55,0,0,1,.42-.17.53.53,0,0,1,.41.17.54.54,0,0,1,.18.42.54.54,0,0,1-.18.41.57.57,0,0,1-.41.17A.59.59,0,0,1,76,106.82Zm.83,5.35H76V108h.81Z"/><path class="h" d="M79.26,106.67V108h.9v.74h-.9v2.17a.6.6,0,0,0,.13.43.62.62,0,0,0,.45.14,1.51,1.51,0,0,0,.32,0v.69a1.64,1.64,0,0,1-.55.08,1.16,1.16,0,0,1-.86-.31,1.22,1.22,0,0,1-.31-.88v-2.29h-.8V108h.23a.62.62,0,0,0,.48-.18.65.65,0,0,0,.16-.46v-.68Z"/><path class="h" d="M86.17,111.66a1.11,1.11,0,0,1-.5.48,1.81,1.81,0,0,1-.73.16,1.44,1.44,0,0,1-1.14-.48,1.73,1.73,0,0,1-.43-1.2V108h.82v2.51a1.26,1.26,0,0,0,.23.77.85.85,0,0,0,.72.3.92.92,0,0,0,.74-.29,1.17,1.17,0,0,0,.25-.77V108h.81v3.4a6.53,6.53,0,0,0,0,.78h-.78A2.39,2.39,0,0,1,86.17,111.66Z"/><path class="h" d="M87.94,111.08l.74-.26a.86.86,0,0,0,.3.56,1,1,0,0,0,.67.22.8.8,0,0,0,.53-.16.52.52,0,0,0,.19-.39q0-.42-.54-.54l-.71-.16a1.38,1.38,0,0,1-.77-.42,1.1,1.1,0,0,1-.28-.75,1.21,1.21,0,0,1,.44-.93,1.52,1.52,0,0,1,1-.39,2,2,0,0,1,.71.12,1.24,1.24,0,0,1,.49.3,2.27,2.27,0,0,1,.26.36,1.4,1.4,0,0,1,.13.34l-.72.27a.83.83,0,0,0-.06-.21,1.54,1.54,0,0,0-.14-.22.65.65,0,0,0-.26-.19,1,1,0,0,0-.41-.08.76.76,0,0,0-.5.17.5.5,0,0,0-.2.39c0,.26.16.43.48.5l.68.15a1.55,1.55,0,0,1,.85.45,1.11,1.11,0,0,1,.3.79,1.24,1.24,0,0,1-.4.9,1.55,1.55,0,0,1-1.12.4,1.74,1.74,0,0,1-1.21-.39A1.37,1.37,0,0,1,87.94,111.08Z"/><path class="h" d="M92.51,112a.54.54,0,0,1-.16-.4.55.55,0,0,1,.16-.4.54.54,0,0,1,.4-.17.58.58,0,0,1,.41.17.55.55,0,0,1,.16.4.54.54,0,0,1-.16.4.58.58,0,0,1-.41.17A.54.54,0,0,1,92.51,112Zm.91-6-.21,4.39h-.59L92.4,106Z"/><path class="h" d="M25.91,137.39a3,3,0,0,1-2.16-.87,3.11,3.11,0,0,1-.9-2.35,3.26,3.26,0,0,1,.45-1.73,2.89,2.89,0,0,1,1.14-1.11,3.13,3.13,0,0,1,1.47-.36,2.91,2.91,0,0,1,1.76.52,2.5,2.5,0,0,1,.95,1.43l-.79.28a1.89,1.89,0,0,0-.67-1.07,2,2,0,0,0-1.25-.38,2.11,2.11,0,0,0-1.55.64,2.38,2.38,0,0,0-.64,1.78,2.41,2.41,0,0,0,.64,1.79,2.11,2.11,0,0,0,1.55.64,2,2,0,0,0,1.26-.4,2.14,2.14,0,0,0,.7-1.07l.76.28a2.65,2.65,0,0,1-1,1.43A2.83,2.83,0,0,1,25.91,137.39Z"/><path class="h" d="M30.4,134.8v2.46h-.82V131h.82v2.59a1.44,1.44,0,0,1,1.27-.6,1.33,1.33,0,0,1,1.1.46,1.76,1.76,0,0,1,.39,1.19v2.65h-.82v-2.51c0-.71-.32-1.06-1-1.06a.87.87,0,0,0-.7.31A1.28,1.28,0,0,0,30.4,134.8Z"/><path class="h" d="M37.4,135.82l.7.25a1.89,1.89,0,0,1-.68,1,2,2,0,0,1-1.19.37,2.05,2.05,0,0,1-1.49-.61,2.17,2.17,0,0,1-.62-1.63,2.24,2.24,0,0,1,.59-1.58,2,2,0,0,1,2.89,0,2.34,2.34,0,0,1,.53,1.6,1.84,1.84,0,0,1,0,.26H35a1.24,1.24,0,0,0,.37.91,1.19,1.19,0,0,0,.89.35A1.13,1.13,0,0,0,37.4,135.82ZM35,134.74h2.29a1.06,1.06,0,0,0-1.15-1.07,1.06,1.06,0,0,0-.8.32A1.14,1.14,0,0,0,35,134.74Z"/><path class="h" d="M42.11,135.82l.7.25a1.89,1.89,0,0,1-.68,1,2,2,0,0,1-1.2.37,2.07,2.07,0,0,1-1.49-.61,2.2,2.2,0,0,1-.61-1.63,2.24,2.24,0,0,1,.59-1.58,2,2,0,0,1,2.89,0,2.34,2.34,0,0,1,.52,1.6,2,2,0,0,1,0,.26H39.67a1.28,1.28,0,0,0,.37.91,1.21,1.21,0,0,0,.89.35A1.14,1.14,0,0,0,42.11,135.82Zm-2.41-1.08H42a1.08,1.08,0,0,0-.31-.77,1.11,1.11,0,0,0-.83-.3,1,1,0,0,0-.8.32A1.14,1.14,0,0,0,39.7,134.74Z"/><path class="h" d="M46.2,133v.87l-.36,0c-.76,0-1.15.43-1.15,1.28v2.1h-.81v-4.18h.8v.73a1.28,1.28,0,0,1,1.25-.8Z"/><path class="h" d="M46.67,136.17l.74-.26a.86.86,0,0,0,.3.56,1,1,0,0,0,.67.22.78.78,0,0,0,.53-.16.52.52,0,0,0,.19-.39q0-.42-.54-.54l-.71-.16a1.38,1.38,0,0,1-.77-.42,1.12,1.12,0,0,1-.28-.75,1.21,1.21,0,0,1,.44-.93,1.54,1.54,0,0,1,1-.39,2.2,2.2,0,0,1,.71.11,1.38,1.38,0,0,1,.49.31,2.27,2.27,0,0,1,.26.36,1.4,1.4,0,0,1,.13.34l-.72.27a.83.83,0,0,0-.06-.21,1.54,1.54,0,0,0-.14-.22.65.65,0,0,0-.26-.19,1,1,0,0,0-.41-.08.76.76,0,0,0-.5.17.5.5,0,0,0-.2.39c0,.26.16.43.48.5l.68.15a1.58,1.58,0,0,1,.86.45,1.16,1.16,0,0,1,.3.79,1.25,1.25,0,0,1-.41.9,1.55,1.55,0,0,1-1.12.4,1.74,1.74,0,0,1-1.21-.39A1.37,1.37,0,0,1,46.67,136.17Z"/><path class="h" d="M27.52,144.43H25.46v5.37h-.85v-5.37H22.55v-.79h5Z"/><path class="h" d="M29.11,147.34v2.46H28.3v-6.29h.81v2.6a1.43,1.43,0,0,1,1.27-.61,1.36,1.36,0,0,1,1.11.46,1.78,1.78,0,0,1,.39,1.19v2.65h-.82v-2.51c0-.7-.33-1-1-1a.86.86,0,0,0-.71.31A1.25,1.25,0,0,0,29.11,147.34Z"/><path class="h" d="M36.11,148.37l.71.24a1.85,1.85,0,0,1-.68.95,1.93,1.93,0,0,1-1.2.37,2.06,2.06,0,0,1-1.49-.6,2.45,2.45,0,0,1,0-3.21,2,2,0,0,1,2.88,0,2.27,2.27,0,0,1,.53,1.59,1.93,1.93,0,0,1,0,.26H33.68a1.26,1.26,0,0,0,.37.91,1.21,1.21,0,0,0,.89.36A1.12,1.12,0,0,0,36.11,148.37Zm-2.4-1.09H36a1.1,1.1,0,0,0-.31-.77,1.13,1.13,0,0,0-.83-.3,1.06,1.06,0,0,0-.8.32A1.14,1.14,0,0,0,33.71,147.28Z"/><path class="h" d="M41.15,144.3v1.32h.9v.74h-.9v2.17a.63.63,0,0,0,.14.44.58.58,0,0,0,.44.14,1.47,1.47,0,0,0,.32,0v.7a1.67,1.67,0,0,1-.55.07,1.14,1.14,0,0,1-.85-.31,1.19,1.19,0,0,1-.32-.88v-2.29h-.79v-.74h.22a.6.6,0,0,0,.48-.18.63.63,0,0,0,.16-.46v-.68Z"/><path class="h" d="M46,148.37l.71.24a1.9,1.9,0,0,1-1.88,1.32,2,2,0,0,1-1.49-.6,2.19,2.19,0,0,1-.61-1.63,2.17,2.17,0,0,1,.59-1.58,2,2,0,0,1,2.88,0,2.31,2.31,0,0,1,.53,1.59,1,1,0,0,1,0,.26H43.6a1.26,1.26,0,0,0,.37.91,1.21,1.21,0,0,0,.89.36A1.13,1.13,0,0,0,46,148.37Zm-2.4-1.09h2.28a1.05,1.05,0,0,0-1.15-1.07,1.09,1.09,0,0,0-.8.32A1.12,1.12,0,0,0,43.63,147.28Z"/><path class="h" d="M47.54,148.68a1.11,1.11,0,0,1,.35-.86,1.6,1.6,0,0,1,.92-.41l1.13-.16c.21,0,.32-.14.32-.32a.67.67,0,0,0-.22-.53,1,1,0,0,0-.68-.21.89.89,0,0,0-.66.23,1,1,0,0,0-.29.61l-.78-.18a1.35,1.35,0,0,1,.55-1,1.84,1.84,0,0,1,1.16-.38,1.79,1.79,0,0,1,1.31.43,1.49,1.49,0,0,1,.43,1.1v2.09a3.73,3.73,0,0,0,.05.69h-.8a3.28,3.28,0,0,1,0-.56,1.69,1.69,0,0,1-.51.48,1.54,1.54,0,0,1-.84.21,1.4,1.4,0,0,1-1-.37A1.18,1.18,0,0,1,47.54,148.68Zm1.51.56a1.25,1.25,0,0,0,.88-.29,1.21,1.21,0,0,0,.33-.94v-.19L49,148a.86.86,0,0,0-.44.2.56.56,0,0,0-.16.43.58.58,0,0,0,.18.42A.69.69,0,0,0,49.05,149.24Z"/><path class="h" d="M53.15,149.8h-.81v-4.18h.79v.56a1.17,1.17,0,0,1,.53-.5,1.61,1.61,0,0,1,.73-.18,1.45,1.45,0,0,1,.75.2,1.19,1.19,0,0,1,.51.59A1.47,1.47,0,0,1,57,145.5a1.42,1.42,0,0,1,1,.41,1.58,1.58,0,0,1,.43,1.18v2.71h-.81v-2.62a1.1,1.1,0,0,0-.22-.7.84.84,0,0,0-.67-.26.89.89,0,0,0-.69.3,1.08,1.08,0,0,0-.27.75v2.53H55v-2.62a1,1,0,0,0-.22-.7.84.84,0,0,0-.66-.26.91.91,0,0,0-.71.3,1.07,1.07,0,0,0-.27.76Z"/><line class="i" x1="20.59" y1="40.86" x2="149.36" y2="40.86"/><polygon class="j" points="105.66 187.43 174.28 107.18 174.28 184.54 169.42 187.43 105.66 187.43"/></symbol></defs><title>email-step4</title><rect class="k" y="70" width="900" height="160"/><rect class="l" x="279" y="70" width="338.62" height="160"/><use width="174.65" height="187.81" transform="translate(323.82 14.76) scale(1.45)" xlink:href="#a"/></svg>