<svg xmlns="http://www.w3.org/2000/svg" xmlns:xlink="http://www.w3.org/1999/xlink" viewBox="0 0 892.86 300"><defs><style>.a{fill:#fef6ea;stroke-width:0.75px;}.a,.b,.c,.d,.f,.g{stroke:#f1e5ce;}.a,.b,.c,.d,.e,.f,.g,.i,.j{stroke-miterlimit:10;}.b{fill:#ed2627;}.b,.c,.d,.f,.g{stroke-width:0.5px;}.c{fill:#fec75e;}.d{fill:#5abd80;}.e,.n{fill:#72cee7;}.e{stroke:#e9f6fc;stroke-width:0.8px;}.f,.i,.k,.m{fill:#fff;}.g{fill:none;}.h{fill:#f1e5ce;}.i,.j{stroke:#00a4ff;stroke-width:0.25px;}.j{fill:#00a4ff;}.l,.o{fill:#4b4b4b;}.m{opacity:0.12;}.o{opacity:0.13;}</style><symbol id="b" viewBox="0 0 180.96 194.59"><rect class="a" x="0.38" y="0.37" width="180.21" height="193.84" rx="3"/><circle class="b" cx="5.93" cy="6.41" r="1.69"/><circle class="c" cx="11.05" cy="6.41" r="1.69"/><circle class="d" cx="16.18" cy="6.41" r="1.69"/></symbol><symbol id="a" viewBox="0 0 174.65 187.81"><use width="180.96" height="194.59" transform="translate(0.01 0.01) scale(0.96)" xlink:href="#b"/><rect class="e" x="8.82" y="26.83" width="157.01" height="151.57"/><rect class="f" x="8.82" y="15" width="157.01" height="7.31"/><path class="g" d="M162.93,18.6a1.75,1.75,0,1,1-3.35-.25,1.75,1.75,0,0,1,1-1"/><polygon class="h" points="160.83 18.07 161.45 16.93 160.2 16.6 160.83 18.07"/><rect class="i" x="32.69" y="90.11" width="73.19" height="12.51" rx="1"/><rect class="j" x="108.31" y="90.47" width="28.81" height="12.15" rx="1"/><path class="k" d="M44.91,77.28c0,3.83-2.16,6.25-5.62,6.25s-5.63-2.41-5.63-6.25S35.83,71,39.29,71,44.91,73.44,44.91,77.28Zm-9.08,0c0,2.65,1.31,4.36,3.46,4.36s3.45-1.71,3.45-4.36-1.34-4.35-3.45-4.35S35.83,74.62,35.83,77.28Z"/><path class="k" d="M47.12,74.22h2v1.44h.14A2.7,2.7,0,0,1,51.91,74c2,0,3.11,1.22,3.11,3.37v5.83H53V77.88c0-1.37-.57-2.07-1.82-2.07a1.94,1.94,0,0,0-2,2.17v5.25H47.12Z"/><path class="k" d="M57.52,70.73h2v12.5h-2Z"/><path class="k" d="M62,71.5a1.22,1.22,0,1,1,2.44,0,1.22,1.22,0,0,1-2.44,0Zm.21,2.72h2v9h-2Z"/><path class="k" d="M66.73,74.22h2v1.44h.14A2.7,2.7,0,0,1,71.52,74c2,0,3.11,1.22,3.11,3.37v5.83h-2V77.88c0-1.37-.57-2.07-1.82-2.07a1.94,1.94,0,0,0-2,2.17v5.25h-2Z"/><path class="k" d="M84.86,80.75c-.37,1.64-1.88,2.66-4,2.66-2.66,0-4.26-1.75-4.26-4.65S78.23,74,80.84,74,85,75.74,85,78.58v.66H78.66v.11a2.23,2.23,0,0,0,2.25,2.44,2,2,0,0,0,2-1Zm-6.2-2.9h4.25a2,2,0,0,0-2.08-2.19A2.15,2.15,0,0,0,78.66,77.85Z"/><path class="k" d="M94.9,74c2.15,0,3.49,1,3.64,2.59H96.62c-.15-.63-.75-1-1.71-1s-1.63.45-1.63,1.1.43.82,1.34,1l1.59.36c1.72.39,2.52,1.13,2.52,2.46,0,1.73-1.59,2.88-3.84,2.88s-3.67-1-3.83-2.61h2c.2.67.84,1.06,1.86,1.06s1.74-.45,1.74-1.12c0-.51-.38-.83-1.24-1l-1.6-.37c-1.73-.4-2.54-1.2-2.54-2.56C91.3,75.16,92.78,74,94.9,74Z"/><path class="k" d="M100.35,78.72c0-2.91,1.66-4.69,4.33-4.69S109,75.81,109,78.72s-1.64,4.69-4.34,4.69S100.35,81.65,100.35,78.72Zm6.57,0c0-1.88-.82-3-2.24-3s-2.24,1.09-2.24,3,.82,3,2.24,3S106.92,80.61,106.92,78.72Z"/><path class="k" d="M110.63,78.72c0-2.91,1.66-4.69,4.34-4.69s4.33,1.78,4.33,4.69-1.64,4.69-4.33,4.69S110.63,81.65,110.63,78.72Zm6.57,0c0-1.88-.81-3-2.23-3s-2.24,1.09-2.24,3,.81,3,2.24,3S117.2,80.61,117.2,78.72Z"/><path class="k" d="M121.36,74.22h2v1.44h.14A2.7,2.7,0,0,1,126.15,74c2,0,3.11,1.22,3.11,3.37v5.83h-2V77.88c0-1.37-.57-2.07-1.82-2.07a1.94,1.94,0,0,0-2,2.17v5.25h-2Z"/><path class="k" d="M131.93,82.13a1.37,1.37,0,1,1,1.36,1.31A1.25,1.25,0,0,1,131.93,82.13Zm2.5-10.8-.19,8h-1.9l-.19-8Z"/><path class="k" d="M112.74,97.77c0,.21.24.35.55.35s.49-.14.49-.34-.13-.26-.45-.33l-.35-.08q-.72-.15-.72-.75c0-.5.4-.83,1-.83a.91.91,0,0,1,1,.8h-.52a.45.45,0,0,0-.49-.35c-.28,0-.46.13-.46.33s.12.26.43.32l.32.07c.53.11.76.34.76.75s-.41.86-1.07.86-1-.31-1.06-.8Z"/><path class="k" d="M115.4,97.53a.56.56,0,0,0,1.11,0V95.86h.55v1.73a1.11,1.11,0,0,1-2.21,0V95.86h.55Z"/><path class="k" d="M117.69,98.5V95.86h1.16c.51,0,.82.25.82.66a.57.57,0,0,1-.48.56v0a.62.62,0,0,1,.6.63c0,.46-.35.75-.91.75Zm.56-1.54h.41c.3,0,.46-.13.46-.34s-.15-.34-.41-.34h-.46Zm.49,1.12c.32,0,.49-.13.49-.38s-.18-.37-.5-.37h-.48v.75Z"/><path class="k" d="M120.7,97.77c0,.21.25.35.56.35s.49-.14.49-.34-.13-.26-.46-.33l-.34-.08q-.72-.15-.72-.75c0-.5.4-.83,1-.83s1,.33,1,.8h-.52c0-.21-.22-.35-.49-.35s-.45.13-.45.33.12.26.43.32l.32.07c.53.11.76.34.76.75s-.41.86-1.07.86-1-.31-1.06-.8Z"/><path class="k" d="M122.7,97.18a1.22,1.22,0,0,1,1.24-1.39,1.09,1.09,0,0,1,1.14,1h-.53a.6.6,0,0,0-.61-.5c-.42,0-.68.34-.68.9s.26.9.68.9a.58.58,0,0,0,.61-.47h.54a1.07,1.07,0,0,1-1.15,1A1.22,1.22,0,0,1,122.7,97.18Z"/><path class="k" d="M126.14,98.5h-.55V95.86h1.11a.83.83,0,0,1,.94.85.79.79,0,0,1-.48.75l.55,1h-.62l-.5-1h-.45Zm0-1.38h.49a.39.39,0,0,0,.44-.4.4.4,0,0,0-.45-.41h-.48Z"/><path class="k" d="M128.19,98.5V95.86h.55V98.5Z"/><path class="k" d="M129.38,98.5V95.86h1.15c.52,0,.82.25.82.66a.56.56,0,0,1-.48.56v0a.63.63,0,0,1,.61.63c0,.46-.35.75-.91.75Zm.55-1.54h.42c.3,0,.46-.13.46-.34s-.15-.34-.42-.34h-.46Zm.49,1.12c.32,0,.49-.13.49-.38s-.17-.37-.5-.37h-.48v.75Z"/><path class="k" d="M133.72,98.5H132V95.86h1.75v.47h-1.19V97h1.13v.44h-1.13V98h1.19Z"/><path class="k" d="M127.14,140.12a5.07,5.07,0,0,0-5.08-5.08l-.41,0a6.39,6.39,0,0,0-11-1.75,2.54,2.54,0,0,0-1.41-.42,2.61,2.61,0,0,0-2.56,2.1h0a5.13,5.13,0,0,0-.58,10.22l16.47,0A5.06,5.06,0,0,0,127.14,140.12Z"/><path class="k" d="M164.61,133.63a8.15,8.15,0,0,0-8.14,8.15c0,.18,0,.36,0,.55a6.44,6.44,0,0,0-11,4.54,6.18,6.18,0,0,0,.2,1.56,11.18,11.18,0,0,0-13.93,8.43,6.31,6.31,0,0,0-12.14,1.74,10.88,10.88,0,0,0-15.83,3.72,12,12,0,0,0-20.17-.39,8.69,8.69,0,0,0-3.24-.61,7.36,7.36,0,0,0-6.26,3,18.92,18.92,0,0,0-9-2.12,17.74,17.74,0,0,0-10.4,3,6,6,0,0,0-11.89-1.08,6,6,0,0,0-4.55-1.92H38c-1.46-6.94-8.87-12.23-17.83-12.29a8,8,0,0,0-.66-1.49A7.72,7.72,0,0,0,8.82,138v40.24h106.5a13.55,13.55,0,0,0,1.46-.37c.09.12.19.24.28.37h37.05c.07-.13.16-.24.22-.37.06.13.13.24.19.37h11.31V133.74A8.14,8.14,0,0,0,164.61,133.63ZM30.44,176.84l.26-.16C31.5,176.56,30.85,176.81,30.44,176.84Z"/><path class="k" d="M53.4,132.12a3,3,0,0,0-3-3h-.25a3.77,3.77,0,0,0-6.49-1,1.5,1.5,0,0,0-.83-.25,1.54,1.54,0,0,0-1.51,1.24h0a3,3,0,0,0-.35,6l9.74,0A3,3,0,0,0,53.4,132.12Z"/><path class="l" d="M14.55,19v1.11h-.23V17.32h.23v1.24a.62.62,0,0,1,.59-.34.63.63,0,0,1,.49.2.71.71,0,0,1,.16.49v1.2h-.23V19a.53.53,0,0,0-.12-.37.52.52,0,0,0-.75,0A.61.61,0,0,0,14.55,19Z"/><path class="l" d="M16.75,17.68v.59h.48v.21h-.48v1.11a.29.29,0,0,0,.32.33.35.35,0,0,0,.16,0v.2a.41.41,0,0,1-.22,0,.47.47,0,0,1-.36-.14.54.54,0,0,1-.13-.38V18.48h-.39v-.21h.14a.24.24,0,0,0,.27-.27v-.32Z"/><path class="l" d="M18.07,17.68v.59h.48v.21h-.48v1.11a.29.29,0,0,0,.32.33.35.35,0,0,0,.16,0v.2a.41.41,0,0,1-.22,0A.47.47,0,0,1,18,20a.54.54,0,0,1-.13-.38V18.48h-.39v-.21h.14a.24.24,0,0,0,.27-.27v-.32Z"/><path class="l" d="M19.25,20.84H19V18.27h.23v.36a.87.87,0,0,1,.23-.27.74.74,0,0,1,.44-.14.77.77,0,0,1,.61.28,1.08,1.08,0,0,1,.22.69,1,1,0,0,1-.22.69.78.78,0,0,1-.62.27.75.75,0,0,1-.43-.12.74.74,0,0,1-.23-.27Zm1.09-1.11a.82.82,0,0,0,.18-.54.77.77,0,0,0-.18-.54.54.54,0,0,0-.46-.22.55.55,0,0,0-.46.22.94.94,0,0,0,0,1.08.55.55,0,0,0,.46.22A.54.54,0,0,0,20.34,19.73Z"/><path class="l" d="M21.07,19.62l.21-.08a.49.49,0,0,0,.16.31.54.54,0,0,0,.35.11.49.49,0,0,0,.3-.09.3.3,0,0,0,.11-.24c0-.17-.1-.27-.31-.31l-.31-.07a.48.48,0,0,1-.44-.49.51.51,0,0,1,.18-.39.67.67,0,0,1,.44-.15.69.69,0,0,1,.47.16.59.59,0,0,1,.18.33l-.2.07a.47.47,0,0,0-.13-.25.5.5,0,0,0-.32-.11.45.45,0,0,0-.28.09.28.28,0,0,0-.12.23c0,.15.1.25.29.29l.3.07q.48.12.48.51a.52.52,0,0,1-.17.38.69.69,0,0,1-.48.17.72.72,0,0,1-.51-.18A.59.59,0,0,1,21.07,19.62Z"/><path class="l" d="M23.11,18.66A.17.17,0,0,1,23,18.6a.2.2,0,0,1-.06-.14.2.2,0,0,1,.06-.15.19.19,0,0,1,.28,0,.2.2,0,0,1,.06.15.2.2,0,0,1-.06.14A.17.17,0,0,1,23.11,18.66Zm.15,1.41a.25.25,0,0,1-.15.05.24.24,0,0,1-.14-.05.2.2,0,0,1-.06-.15.21.21,0,0,1,.2-.2.2.2,0,0,1,.15.06.2.2,0,0,1,.06.14A.2.2,0,0,1,23.26,20.07Z"/><path class="l" d="M25.2,17.37l-1.32,2.74h-.23L25,17.37Z"/><path class="l" d="M26.64,17.37l-1.32,2.74h-.24l1.33-2.74Z"/><path class="l" d="M27.91,18.27h.24l.55,1.55.49-1.55h.24l-.6,1.84h-.25L28,18.55l-.55,1.56h-.25l-.61-1.84h.25l.5,1.55Z"/><path class="l" d="M30.87,18.27h.25l.55,1.55.49-1.55h.24l-.61,1.84h-.25L31,18.55l-.55,1.56h-.25l-.62-1.84h.26l.49,1.55Z"/><path class="l" d="M33.83,18.27h.25l.55,1.55.49-1.55h.24l-.61,1.84h-.24L34,18.55l-.55,1.56h-.25l-.61-1.84h.25l.5,1.55Z"/><path class="l" d="M35.71,20.12a.24.24,0,0,1-.14-.05.2.2,0,0,1-.06-.15.21.21,0,0,1,.2-.2.2.2,0,0,1,.15.06.2.2,0,0,1,.06.14.2.2,0,0,1-.06.15A.25.25,0,0,1,35.71,20.12Z"/><path class="l" d="M36.33,19.62l.21-.08a.49.49,0,0,0,.16.31.52.52,0,0,0,.35.11.44.44,0,0,0,.29-.09.29.29,0,0,0,.12-.24c0-.17-.1-.27-.31-.31l-.31-.07c-.3-.07-.45-.24-.45-.49a.52.52,0,0,1,.19-.39.67.67,0,0,1,.44-.15.71.71,0,0,1,.47.16.59.59,0,0,1,.18.33l-.2.07a.47.47,0,0,0-.13-.25.52.52,0,0,0-.32-.11.45.45,0,0,0-.28.09.28.28,0,0,0-.12.23c0,.15.1.25.28.29l.31.07q.48.12.48.51a.52.52,0,0,1-.17.38.69.69,0,0,1-.48.17.72.72,0,0,1-.51-.18A.59.59,0,0,1,36.33,19.62Z"/><path class="l" d="M39.42,19.82a.51.51,0,0,1-.22.24.6.6,0,0,1-.35.1.63.63,0,0,1-.52-.23.77.77,0,0,1-.17-.51V18.27h.23v1.12a.61.61,0,0,0,.12.39.42.42,0,0,0,.38.17.46.46,0,0,0,.38-.16.57.57,0,0,0,.14-.4V18.27h.23v1.49c0,.12,0,.24,0,.35h-.22a1.34,1.34,0,0,1,0-.26Z"/><path class="l" d="M40.51,20.84h-.22V18.27h.22v.36a.87.87,0,0,1,.23-.27.74.74,0,0,1,.44-.14.77.77,0,0,1,.61.28,1.08,1.08,0,0,1,.22.69,1,1,0,0,1-.22.69.78.78,0,0,1-.62.27.77.77,0,0,1-.43-.12.74.74,0,0,1-.23-.27Zm1.1-1.11a.87.87,0,0,0,.17-.54.81.81,0,0,0-.17-.54.57.57,0,0,0-.47-.22.55.55,0,0,0-.46.22.94.94,0,0,0,0,1.08.55.55,0,0,0,.46.22A.57.57,0,0,0,41.61,19.73Z"/><path class="l" d="M43.85,19.51l.2.08a.81.81,0,0,1-.28.4.85.85,0,0,1-.52.17.83.83,0,0,1-.63-.26,1,1,0,0,1-.27-.72,1,1,0,0,1,.26-.7.79.79,0,0,1,.59-.26.8.8,0,0,1,.64.26,1,1,0,0,1,.22.67v.08H42.59v0a.69.69,0,0,0,.19.51.63.63,0,0,0,.47.19.59.59,0,0,0,.39-.13A.66.66,0,0,0,43.85,19.51ZM42.6,19h1.22a.66.66,0,0,0-.16-.44.6.6,0,0,0-.45-.17.57.57,0,0,0-.43.17A.67.67,0,0,0,42.6,19Z"/><path class="l" d="M45.49,18.26v.25a.37.37,0,0,0-.16,0,.55.55,0,0,0-.4.15.71.71,0,0,0-.14.47v1h-.24V18.27h.23v.34a.59.59,0,0,1,.57-.37A.37.37,0,0,1,45.49,18.26Z"/><path class="l" d="M45.94,20a.46.46,0,0,1-.15-.36c0-.3.18-.48.55-.54l.49-.07c.13,0,.19-.09.19-.19a.41.41,0,0,0-.12-.3.5.5,0,0,0-.34-.11.59.59,0,0,0-.36.11.46.46,0,0,0-.15.32l-.23-.05a.65.65,0,0,1,.24-.43.8.8,0,0,1,.5-.15.74.74,0,0,1,.53.18.65.65,0,0,1,.17.46v.93a1.67,1.67,0,0,0,0,.32h-.22a1.12,1.12,0,0,1,0-.32.53.53,0,0,1-.23.24.69.69,0,0,1-.41.12A.64.64,0,0,1,45.94,20Zm.08-.37a.34.34,0,0,0,.11.24.44.44,0,0,0,.29.1.61.61,0,0,0,.43-.16.57.57,0,0,0,.17-.44v-.22l-.09,0-.15,0-.41.06C46.14,19.3,46,19.42,46,19.62Z"/><path class="l" d="M48.09,20.84h-.23V18.27h.23v.36a.67.67,0,0,1,.23-.27.71.71,0,0,1,.43-.14.79.79,0,0,1,.62.28,1.14,1.14,0,0,1,.22.69,1,1,0,0,1-.23.69.76.76,0,0,1-.61.27.75.75,0,0,1-.43-.12.66.66,0,0,1-.23-.27Zm1.09-1.11a.87.87,0,0,0,.17-.54.81.81,0,0,0-.17-.54.55.55,0,0,0-.46-.22.53.53,0,0,0-.46.22.9.9,0,0,0,0,1.08.53.53,0,0,0,.46.22A.55.55,0,0,0,49.18,19.73Z"/><path class="l" d="M50.31,20.84h-.23V18.27h.23v.36a.67.67,0,0,1,.23-.27.71.71,0,0,1,.43-.14.8.8,0,0,1,.62.28,1.14,1.14,0,0,1,.22.69,1,1,0,0,1-.23.69.76.76,0,0,1-.61.27.75.75,0,0,1-.43-.12.66.66,0,0,1-.23-.27Zm1.09-1.11a.87.87,0,0,0,.17-.54.81.81,0,0,0-.17-.54.57.57,0,0,0-.47-.22.55.55,0,0,0-.46.22.94.94,0,0,0,0,1.08.55.55,0,0,0,.46.22A.57.57,0,0,0,51.4,19.73Z"/><path class="l" d="M52.35,20.12a.22.22,0,0,1-.14-.05.2.2,0,0,1-.06-.15.2.2,0,0,1,.06-.14.18.18,0,0,1,.14-.06.2.2,0,0,1,.15.06.2.2,0,0,1,.06.14.2.2,0,0,1-.06.15A.25.25,0,0,1,52.35,20.12Z"/><path class="l" d="M54.21,18.57a.61.61,0,0,0-.4-.14.62.62,0,0,0-.47.2.8.8,0,0,0-.2.56.77.77,0,0,0,.2.55.59.59,0,0,0,.47.21.58.58,0,0,0,.41-.15.8.8,0,0,0,.19-.3l.2.08a.85.85,0,0,1-.26.4.88.88,0,0,1-.54.18.8.8,0,0,1-.64-.28.9.9,0,0,1-.26-.69,1,1,0,0,1,.26-.7.84.84,0,0,1,.64-.27.76.76,0,0,1,.79.58l-.21.08A.61.61,0,0,0,54.21,18.57Z"/><path class="l" d="M55.16,18.49a.88.88,0,0,1,.65-.27.85.85,0,0,1,.64.27,1.07,1.07,0,0,1,0,1.4.85.85,0,0,1-.64.27.84.84,0,0,1-.64-.27,1,1,0,0,1-.27-.7A1,1,0,0,1,55.16,18.49Zm.18,1.26a.62.62,0,0,0,.47.2.65.65,0,0,0,.47-.2.88.88,0,0,0,0-1.12.6.6,0,0,0-.47-.2.59.59,0,0,0-.47.2.88.88,0,0,0,0,1.12Z"/><path class="l" d="M57.43,20.11h-.22V18.27h.22v.3a.59.59,0,0,1,.22-.25.66.66,0,0,1,.37-.1.65.65,0,0,1,.37.11.58.58,0,0,1,.21.31.62.62,0,0,1,.63-.42.64.64,0,0,1,.45.17.68.68,0,0,1,.19.5v1.22h-.24V18.92a.54.54,0,0,0-.12-.36.45.45,0,0,0-.35-.13.49.49,0,0,0-.37.16.58.58,0,0,0-.14.39v1.13h-.23V18.92a.52.52,0,0,0-.12-.36.45.45,0,0,0-.35-.13.47.47,0,0,0-.37.16.54.54,0,0,0-.15.39Z"/><path class="l" d="M36.79,97.77l.51-.18a.58.58,0,0,0,.21.39.68.68,0,0,0,.47.15.52.52,0,0,0,.36-.11.35.35,0,0,0,.13-.27c0-.19-.13-.32-.37-.37l-.5-.11a1,1,0,0,1-.52-.29.75.75,0,0,1-.2-.52.81.81,0,0,1,.31-.64,1,1,0,0,1,.72-.27,1.26,1.26,0,0,1,.49.08.76.76,0,0,1,.34.21,1.19,1.19,0,0,1,.18.25.92.92,0,0,1,.09.23l-.5.19a.57.57,0,0,0,0-.14.59.59,0,0,0-.1-.16.42.42,0,0,0-.18-.13.61.61,0,0,0-.28,0,.51.51,0,0,0-.35.11.35.35,0,0,0-.13.27c0,.19.11.3.33.35l.47.1a1.15,1.15,0,0,1,.59.31.77.77,0,0,1,.21.55.89.89,0,0,1-.28.62,1.09,1.09,0,0,1-.78.27,1.23,1.23,0,0,1-.83-.26A1,1,0,0,1,36.79,97.77Z"/><path class="l" d="M41.77,97.53l.49.17a1.25,1.25,0,0,1-.47.66,1.34,1.34,0,0,1-.83.25,1.46,1.46,0,0,1-1-.41,1.69,1.69,0,0,1,0-2.22,1.28,1.28,0,0,1,1-.43,1.26,1.26,0,0,1,1,.41,1.56,1.56,0,0,1,.37,1.1c0,.07,0,.13,0,.18H40.09a.9.9,0,0,0,.26.63.85.85,0,0,0,.61.24A.76.76,0,0,0,41.77,97.53Zm-1.66-.75h1.58a.77.77,0,0,0-.22-.53.87.87,0,0,0-1.12,0A.77.77,0,0,0,40.11,96.78Z"/><path class="l" d="M43.56,98.52H43V94.18h.56v1.87a.83.83,0,0,1,.36-.36,1.2,1.2,0,0,1,.59-.14,1.18,1.18,0,0,1,1,.43,1.65,1.65,0,0,1,.35,1.08,1.68,1.68,0,0,1-.36,1.11,1.21,1.21,0,0,1-1,.43,1,1,0,0,1-.93-.5ZM45,97.81a1.32,1.32,0,0,0,0-1.49.78.78,0,0,0-.62-.27.77.77,0,0,0-.62.28,1.07,1.07,0,0,0-.24.73,1.13,1.13,0,0,0,.24.75.81.81,0,0,0,1.24,0Z"/><path class="l" d="M49.68,97.7a.76.76,0,0,1-.38-.09.47.47,0,0,1-.21-.29.89.89,0,0,1-1.38.11,1.07,1.07,0,0,1-.25-.74,1.44,1.44,0,0,1,.35-1,1.09,1.09,0,0,1,.85-.4.76.76,0,0,1,.39.1.57.57,0,0,1,.25.3l.05-.32h.48l-.33,1.5a1.11,1.11,0,0,0,0,.17c0,.16.08.25.23.25s.32-.12.45-.35a1.57,1.57,0,0,0,.2-.79,1.44,1.44,0,0,0-.47-1.1,1.69,1.69,0,0,0-1.21-.43,1.76,1.76,0,0,0-1.32.53,1.86,1.86,0,0,0-.52,1.38,1.79,1.79,0,0,0,.51,1.32,1.9,1.9,0,0,0,1.4.52A2,2,0,0,0,50,98l.24.32a1.88,1.88,0,0,1-.67.39,2.31,2.31,0,0,1-.8.15A2.43,2.43,0,0,1,47,98.17a2.15,2.15,0,0,1-.67-1.65A2.25,2.25,0,0,1,47,94.84a2.3,2.3,0,0,1,1.65-.66,2.21,2.21,0,0,1,1.54.56,2,2,0,0,1,.28,2.51A1,1,0,0,1,49.68,97.7Zm-.51-1.4a.56.56,0,0,0-.14-.41.45.45,0,0,0-.37-.15.6.6,0,0,0-.51.27.93.93,0,0,0-.2.61c0,.44.17.65.51.65A.6.6,0,0,0,49,97,1.24,1.24,0,0,0,49.17,96.3Z"/><path class="l" d="M52.08,98.52h-.57V94.18h.57Z"/><path class="l" d="M55.06,97.53l.49.17a1.25,1.25,0,0,1-.47.66,1.34,1.34,0,0,1-.83.25,1.46,1.46,0,0,1-1-.41,1.69,1.69,0,0,1,0-2.22,1.28,1.28,0,0,1,1-.43,1.26,1.26,0,0,1,1,.41,1.56,1.56,0,0,1,.37,1.1c0,.07,0,.13,0,.18H53.38a.9.9,0,0,0,.26.63.84.84,0,0,0,.61.24A.76.76,0,0,0,55.06,97.53Zm-1.66-.75H55a.77.77,0,0,0-.22-.53.87.87,0,0,0-1.12,0A.77.77,0,0,0,53.4,96.78Z"/><path class="l" d="M57.88,95.64h.59l.75,2.17.63-2.17h.6l-.94,2.88h-.58l-.77-2.19-.75,2.19h-.59l-1-2.88h.62l.64,2.17Z"/><path class="l" d="M60.81,97.75a.78.78,0,0,1,.24-.6,1.15,1.15,0,0,1,.63-.28l.78-.11c.15,0,.22-.09.22-.22a.5.5,0,0,0-.15-.37.66.66,0,0,0-.47-.14.65.65,0,0,0-.46.16.64.64,0,0,0-.19.42l-.54-.13a.92.92,0,0,1,.37-.67,1.27,1.27,0,0,1,.81-.26,1.23,1.23,0,0,1,.9.29,1,1,0,0,1,.3.76v1.45a3.38,3.38,0,0,0,0,.47h-.55a2.38,2.38,0,0,1,0-.39,1,1,0,0,1-.93.48,1,1,0,0,1-.69-.25A.82.82,0,0,1,60.81,97.75Zm1,.39a.93.93,0,0,0,.61-.2.85.85,0,0,0,.22-.65v-.14l-.88.14a.47.47,0,0,0-.3.14.37.37,0,0,0-.12.29.37.37,0,0,0,.13.29A.45.45,0,0,0,61.85,98.14Z"/><path class="l" d="M63.91,98.68l.55-.13a.74.74,0,0,0,.25.51.77.77,0,0,0,.54.2c.58,0,.88-.31.88-.94v-.41a.85.85,0,0,1-.34.34,1.06,1.06,0,0,1-.54.14,1.28,1.28,0,0,1-1-.4,1.37,1.37,0,0,1-.37-1,1.41,1.41,0,0,1,.37-1,1.25,1.25,0,0,1,1-.41.88.88,0,0,1,.88.46v-.4h.56v2.67a1.79,1.79,0,0,1-.07.53,1.35,1.35,0,0,1-.24.46,1.1,1.1,0,0,1-.45.33,1.79,1.79,0,0,1-.68.12,1.4,1.4,0,0,1-.91-.3A1.14,1.14,0,0,1,63.91,98.68Zm1.42-.77a.75.75,0,0,0,.59-.25.94.94,0,0,0,.23-.67.93.93,0,0,0-.23-.67.76.76,0,0,0-.59-.26.79.79,0,0,0-.6.25,1.13,1.13,0,0,0,0,1.35A.76.76,0,0,0,65.33,97.91Z"/><path class="l" d="M67.77,96a1.52,1.52,0,0,1,2.12,0,1.56,1.56,0,0,1,.41,1.1,1.52,1.52,0,0,1-.41,1.1,1.4,1.4,0,0,1-1.06.43,1.39,1.39,0,0,1-1.06-.43,1.65,1.65,0,0,1,0-2.2Zm.42,1.86a.85.85,0,0,0,.64.27.87.87,0,0,0,.64-.27,1.24,1.24,0,0,0,0-1.52.87.87,0,0,0-.64-.27.85.85,0,0,0-.64.27,1.24,1.24,0,0,0,0,1.52Z"/><path class="l" d="M71.59,96.86v1.66H71V95.64h.56v.41a1.05,1.05,0,0,1,1.65-.18,1.23,1.23,0,0,1,.27.82v1.83h-.57V96.79c0-.48-.22-.73-.67-.73a.58.58,0,0,0-.49.23A.88.88,0,0,0,71.59,96.86Z"/><path class="l" d="M74.46,98.43a.38.38,0,0,1-.12-.29.41.41,0,0,1,.12-.3.38.38,0,0,1,.29-.12.42.42,0,0,1,.3.12.41.41,0,0,1,.12.3.38.38,0,0,1-.12.29.42.42,0,0,1-.3.12A.38.38,0,0,1,74.46,98.43Z"/><path class="l" d="M77.19,96.07a.85.85,0,0,0-.62.26,1.24,1.24,0,0,0,0,1.49.83.83,0,0,0,.63.27.78.78,0,0,0,.55-.18A.93.93,0,0,0,78,97.5l.5.21a1.37,1.37,0,0,1-.45.63,1.33,1.33,0,0,1-.85.27,1.4,1.4,0,0,1-1-.43,1.58,1.58,0,0,1-.41-1.1,1.53,1.53,0,0,1,.41-1.1,1.39,1.39,0,0,1,1-.43,1.32,1.32,0,0,1,.86.27,1.29,1.29,0,0,1,.43.65l-.51.21a.91.91,0,0,0-.26-.43A.7.7,0,0,0,77.19,96.07Z"/><path class="l" d="M79.31,96a1.51,1.51,0,0,1,2.11,0,1.52,1.52,0,0,1,.42,1.1,1.56,1.56,0,0,1-.41,1.1,1.53,1.53,0,0,1-2.13,0,1.56,1.56,0,0,1-.41-1.1A1.52,1.52,0,0,1,79.31,96Zm.42,1.86a.88.88,0,0,0,1.27,0,1.2,1.2,0,0,0,0-1.52.88.88,0,0,0-1.27,0,1.24,1.24,0,0,0,0,1.52Z"/><path class="l" d="M83.12,98.52h-.56V95.64h.54V96a.89.89,0,0,1,.37-.35,1.13,1.13,0,0,1,.51-.12,1,1,0,0,1,.51.14.79.79,0,0,1,.35.41,1,1,0,0,1,1-.55,1,1,0,0,1,.7.28,1.08,1.08,0,0,1,.29.82v1.87h-.55V96.71a.73.73,0,0,0-.16-.48.56.56,0,0,0-.46-.18.63.63,0,0,0-.48.21.77.77,0,0,0-.18.52v1.74H84.4V96.71a.73.73,0,0,0-.15-.48.56.56,0,0,0-.46-.18.6.6,0,0,0-.48.21.71.71,0,0,0-.19.52Z"/><polygon class="m" points="105.66 187.43 174.28 107.18 174.28 184.54 169.42 187.43 105.66 187.43"/></symbol></defs><title>email-step1</title><rect class="n" y="70" width="892.86" height="160"/><rect class="o" x="279" y="70" width="338.62" height="160"/><use width="174.65" height="187.81" transform="translate(323.82 14.76) scale(1.45)" xlink:href="#a"/></svg>