<svg xmlns="http://www.w3.org/2000/svg" xmlns:xlink="http://www.w3.org/1999/xlink" viewBox="0 0 900 300"><defs><style>.a{fill:#eae9e9;stroke:#d6d5d5;}.a,.b,.c,.d,.e,.f,.h{stroke-miterlimit:10;}.a,.e,.h{stroke-width:0.75px;}.b{fill:#ed2627;}.b,.c,.d,.h{stroke:#fff;}.b,.c,.d{stroke-width:0.5px;}.c{fill:#fec75e;}.d,.f,.k{fill:#5abd80;}.e{fill:#f1e5ce;stroke:#fef6ea;}.f{stroke:#e8f4ee;stroke-width:0.8px;}.g,.l{fill:#4b4b4b;}.h{fill:none;}.i,.j{fill:#fff;}.j{opacity:0.12;}.l{opacity:0.13;}</style><symbol id="b" viewBox="0 0 180.96 194.59"><rect class="a" x="0.38" y="0.37" width="180.21" height="193.84" rx="3"/><circle class="b" cx="5.93" cy="6.41" r="1.69"/><circle class="c" cx="11.05" cy="6.41" r="1.69"/><circle class="d" cx="16.18" cy="6.41" r="1.69"/></symbol><symbol id="a" viewBox="0 0 174.63 187.78"><use width="180.96" height="194.59" transform="scale(0.96)" xlink:href="#b"/><rect class="e" x="8.81" y="14.62" width="52.93" height="12.2"/><rect class="f" x="8.81" y="26.82" width="157.01" height="151.57"/><path class="g" d="M13,23.41a.29.29,0,0,1-.21-.08.29.29,0,0,1-.09-.22.31.31,0,0,1,.09-.22A.29.29,0,0,1,13,22.8a.34.34,0,0,1,.22.09.31.31,0,0,1,.09.22.29.29,0,0,1-.09.22A.33.33,0,0,1,13,23.41Z"/><path class="g" d="M14.53,23.41a.32.32,0,0,1-.21-.08.29.29,0,0,1-.09-.22.31.31,0,0,1,.09-.22.33.33,0,0,1,.21-.09.32.32,0,0,1,.22.09.31.31,0,0,1,.09.22.29.29,0,0,1-.09.22A.31.31,0,0,1,14.53,23.41Z"/><path class="g" d="M16,23.41a.33.33,0,0,1-.22-.08.29.29,0,0,1-.08-.22.3.3,0,0,1,.08-.22.31.31,0,0,1,.44,0,.3.3,0,0,1,.08.22.29.29,0,0,1-.08.22A.33.33,0,0,1,16,23.41Z"/><path class="g" d="M19.16,19.28l-2,4.11h-.35l2-4.11Z"/><path class="g" d="M21.19,23v-.11a1,1,0,0,1-.32.41,1.09,1.09,0,0,1-.65.2A1.12,1.12,0,0,1,19.3,23a1.69,1.69,0,0,1,0-2.06,1.16,1.16,0,0,1,.92-.42,1.11,1.11,0,0,1,.67.2,1,1,0,0,1,.3.39V19.21h.34v3.65a3.08,3.08,0,0,0,0,.53h-.34A2,2,0,0,1,21.19,23Zm-1.63-1.78a1.31,1.31,0,0,0-.26.83,1.29,1.29,0,0,0,.26.81.89.89,0,0,0,1.38,0,1.29,1.29,0,0,0,.25-.82,1.24,1.24,0,0,0-.25-.81.82.82,0,0,0-.68-.32A.87.87,0,0,0,19.56,21.18Z"/><path class="g" d="M22.55,23.22a.68.68,0,0,1-.24-.54c0-.45.28-.72.84-.82l.73-.11c.2,0,.29-.12.29-.27A.62.62,0,0,0,24,21a.73.73,0,0,0-.51-.17.8.8,0,0,0-.54.18.68.68,0,0,0-.23.47l-.34-.07a.93.93,0,0,1,.36-.64,1.15,1.15,0,0,1,.74-.24,1.11,1.11,0,0,1,.8.28,1,1,0,0,1,.25.68v1.41a2.42,2.42,0,0,0,0,.47h-.34a2.44,2.44,0,0,1,0-.47,1,1,0,0,1-.35.36,1.05,1.05,0,0,1-.62.18A1,1,0,0,1,22.55,23.22Zm.12-.56a.48.48,0,0,0,.16.35.59.59,0,0,0,.43.15.92.92,0,0,0,.66-.24.86.86,0,0,0,.25-.66v-.33A.31.31,0,0,1,24,22l-.22.05-.62.09C22.85,22.18,22.67,22.36,22.67,22.66Z"/><path class="g" d="M25.92,19.75v.88h.72V21h-.72v1.66c0,.33.16.5.47.5a.76.76,0,0,0,.25,0v.3a.9.9,0,0,1-.34.05.69.69,0,0,1-.53-.2.8.8,0,0,1-.2-.58V21H25v-.32h.21a.36.36,0,0,0,.4-.41v-.47Z"/><path class="g" d="M27.42,23.22a.68.68,0,0,1-.24-.54c0-.45.28-.72.84-.82l.73-.11c.2,0,.29-.12.29-.27a.62.62,0,0,0-.18-.46.73.73,0,0,0-.51-.17.8.8,0,0,0-.54.18.68.68,0,0,0-.23.47l-.34-.07a.93.93,0,0,1,.36-.64,1.13,1.13,0,0,1,.74-.24,1.11,1.11,0,0,1,.8.28,1,1,0,0,1,.25.68v1.41a3.59,3.59,0,0,0,0,.47h-.33a2.23,2.23,0,0,1,0-.47.9.9,0,0,1-.34.36,1.05,1.05,0,0,1-.62.18A1,1,0,0,1,27.42,23.22Zm.12-.56a.48.48,0,0,0,.16.35.59.59,0,0,0,.43.15.92.92,0,0,0,.66-.24.86.86,0,0,0,.25-.66v-.33a.31.31,0,0,1-.14.06l-.22.05-.62.09C27.72,22.18,27.54,22.36,27.54,22.66Z"/><path class="g" d="M30.64,23.39h-.35V19.21h.35v1.95a1,1,0,0,1,.34-.41,1.09,1.09,0,0,1,.66-.19,1.17,1.17,0,0,1,.92.41,1.57,1.57,0,0,1,.33,1,1.52,1.52,0,0,1-.34,1,1.17,1.17,0,0,1-.93.42,1.05,1.05,0,0,1-.64-.19,1.07,1.07,0,0,1-.34-.42Zm1.63-.57a1.22,1.22,0,0,0,.26-.82,1.21,1.21,0,0,0-.26-.82.85.85,0,0,0-.69-.31.82.82,0,0,0-.68.31,1.25,1.25,0,0,0-.27.82,1.23,1.23,0,0,0,.27.82.81.81,0,0,0,.68.33A.84.84,0,0,0,32.27,22.82Z"/><path class="g" d="M33.64,23.22a.68.68,0,0,1-.24-.54c0-.45.28-.72.84-.82l.73-.11c.19,0,.29-.12.29-.27a.62.62,0,0,0-.18-.46.73.73,0,0,0-.51-.17A.8.8,0,0,0,34,21a.65.65,0,0,0-.23.47l-.34-.07a1,1,0,0,1,.35-.64,1.16,1.16,0,0,1,.75-.24,1.09,1.09,0,0,1,.79.28,1,1,0,0,1,.26.68v1.41a3.59,3.59,0,0,0,0,.47h-.33a1.7,1.7,0,0,1,0-.47.9.9,0,0,1-.34.36,1.08,1.08,0,0,1-.62.18A1,1,0,0,1,33.64,23.22Zm.12-.56a.44.44,0,0,0,.16.35.59.59,0,0,0,.43.15.92.92,0,0,0,.66-.24.86.86,0,0,0,.25-.66v-.33a.38.38,0,0,1-.14.06L34.9,22l-.62.09C33.94,22.18,33.76,22.36,33.76,22.66Z"/><path class="g" d="M36.25,22.65l.32-.11a.75.75,0,0,0,.23.46.8.8,0,0,0,.53.16.68.68,0,0,0,.44-.13.43.43,0,0,0,.18-.36c0-.25-.16-.4-.47-.47L37,22.1c-.45-.11-.67-.35-.67-.74a.72.72,0,0,1,.28-.57,1,1,0,0,1,.65-.24,1,1,0,0,1,.71.25,1,1,0,0,1,.28.49L38,21.4a.69.69,0,0,0-.19-.37.71.71,0,0,0-.49-.18.64.64,0,0,0-.41.14.42.42,0,0,0-.18.35c0,.22.14.37.42.44l.46.1c.48.11.72.37.72.77a.73.73,0,0,1-.25.56,1,1,0,0,1-.72.25,1,1,0,0,1-.76-.26A.93.93,0,0,1,36.25,22.65Z"/><path class="g" d="M41.06,22.5l.3.11a1.18,1.18,0,0,1-.42.6,1.36,1.36,0,0,1-1.73-.13,1.46,1.46,0,0,1-.4-1.08A1.52,1.52,0,0,1,39.19,21,1.27,1.27,0,0,1,41,21a1.44,1.44,0,0,1,.34,1,.85.85,0,0,1,0,.13h-2.2v0a1.08,1.08,0,0,0,.29.77.93.93,0,0,0,.69.29.92.92,0,0,0,.91-.66Zm-1.88-.71H41a1,1,0,0,0-.25-.66.88.88,0,0,0-.67-.26.86.86,0,0,0-.64.26A1,1,0,0,0,39.18,21.79Z"/><path class="g" d="M44,19.28l-2,4.11h-.35l2-4.11Z"/><line class="h" x1="88.75" y1="138.04" x2="88.75" y2="162.41"/><polyline class="h" points="88.75 102.61 88.75 115.61 129.9 115.61 129.9 128.24"/><polygon class="i" points="126.16 127.14 129.9 133.62 133.64 127.14 126.16 127.14"/><rect class="h" x="50.74" y="86.67" width="76.14" height="15.94"/><path class="i" d="M55.27,97l.68-.24a.85.85,0,0,0,.27.52.87.87,0,0,0,.62.2.74.74,0,0,0,.48-.14.46.46,0,0,0,.18-.37c0-.25-.17-.42-.5-.49l-.65-.15a1.26,1.26,0,0,1-.71-.38,1,1,0,0,1-.25-.7,1.09,1.09,0,0,1,.4-.85,1.4,1.4,0,0,1,1-.36,1.89,1.89,0,0,1,.65.1,1.25,1.25,0,0,1,.45.29,1.15,1.15,0,0,1,.24.33,1.66,1.66,0,0,1,.12.31l-.66.25a.6.6,0,0,0-.06-.19l-.12-.21a.7.7,0,0,0-.25-.18,1,1,0,0,0-.37-.06.69.69,0,0,0-.46.15.45.45,0,0,0-.18.36c0,.24.14.4.44.46l.62.14a1.46,1.46,0,0,1,.79.41,1,1,0,0,1,.27.73,1.13,1.13,0,0,1-.37.83,1.42,1.42,0,0,1-1,.36,1.67,1.67,0,0,1-1.12-.35A1.3,1.3,0,0,1,55.27,97Z"/><path class="i" d="M61.91,96.64l.65.23a1.67,1.67,0,0,1-.63.87,1.76,1.76,0,0,1-1.1.34,1.86,1.86,0,0,1-1.37-.55,2,2,0,0,1-.57-1.5,2,2,0,0,1,.55-1.46A1.72,1.72,0,0,1,60.73,94a1.73,1.73,0,0,1,1.36.54A2.12,2.12,0,0,1,62.58,96a.82.82,0,0,1,0,.24H59.67a1.15,1.15,0,0,0,.34.84,1.11,1.11,0,0,0,.82.33A1,1,0,0,0,61.91,96.64Zm-2.22-1H61.8a1,1,0,0,0-1.06-1A1,1,0,0,0,60,95,1.1,1.1,0,0,0,59.69,95.64Z"/><path class="i" d="M64.28,98h-.74V92.17h.74v2.49a1.31,1.31,0,0,1,.49-.47,1.62,1.62,0,0,1,.79-.19,1.58,1.58,0,0,1,1.3.57A2.21,2.21,0,0,1,67.32,96a2.24,2.24,0,0,1-.48,1.47,1.59,1.59,0,0,1-1.31.58,1.34,1.34,0,0,1-1.25-.67Zm2-.94a1.73,1.73,0,0,0,0-2,1,1,0,0,0-.83-.36,1,1,0,0,0-.82.37,1.4,1.4,0,0,0-.32,1,1.48,1.48,0,0,0,.32,1,1,1,0,0,0,.82.38A1,1,0,0,0,66.24,97Z"/><path class="i" d="M72.45,96.87a.94.94,0,0,1-.51-.13.6.6,0,0,1-.28-.38,1.1,1.1,0,0,1-1,.52,1.16,1.16,0,0,1-.89-.37,1.45,1.45,0,0,1-.34-1A1.92,1.92,0,0,1,70,94.19a1.44,1.44,0,0,1,1.12-.54,1.08,1.08,0,0,1,.53.14.7.7,0,0,1,.33.39l.07-.42h.63l-.43,2a2,2,0,0,0,0,.23q0,.33.3.33c.23,0,.43-.16.6-.46a2.06,2.06,0,0,0,.27-1.06,1.93,1.93,0,0,0-.62-1.47,2.32,2.32,0,0,0-1.62-.57,2.36,2.36,0,0,0-1.76.7,2.52,2.52,0,0,0-.7,1.85,2.42,2.42,0,0,0,.68,1.76,2.51,2.51,0,0,0,1.86.69,2.57,2.57,0,0,0,1.64-.56l.33.43a2.54,2.54,0,0,1-.89.51,3.17,3.17,0,0,1-1.08.2,3.24,3.24,0,0,1-2.3-.84,2.89,2.89,0,0,1-.9-2.2,3.06,3.06,0,0,1,3.11-3.13,2.9,2.9,0,0,1,2,.75,2.61,2.61,0,0,1,.38,3.35A1.32,1.32,0,0,1,72.45,96.87ZM71.76,95a.77.77,0,0,0-.17-.55.64.64,0,0,0-.5-.2.81.81,0,0,0-.68.36,1.32,1.32,0,0,0-.27.82c0,.58.23.87.68.87a.81.81,0,0,0,.67-.36A1.71,1.71,0,0,0,71.76,95Z"/><path class="i" d="M75.64,98h-.75V92.17h.75Z"/><path class="i" d="M79.63,96.64l.65.23a1.67,1.67,0,0,1-.63.87,1.76,1.76,0,0,1-1.1.34,1.86,1.86,0,0,1-1.37-.55,2,2,0,0,1-.57-1.5,2,2,0,0,1,.55-1.46A1.72,1.72,0,0,1,78.45,94a1.73,1.73,0,0,1,1.36.54A2.12,2.12,0,0,1,80.3,96a1.44,1.44,0,0,1,0,.24H77.39a1.15,1.15,0,0,0,.34.84,1.11,1.11,0,0,0,.82.33A1,1,0,0,0,79.63,96.64Zm-2.22-1h2.11a1,1,0,0,0-1.06-1,1,1,0,0,0-.74.29A1.1,1.1,0,0,0,77.41,95.64Z"/><path class="i" d="M83.39,94.12h.77l1,2.89L86,94.12h.79L85.56,98h-.78l-1-2.92-1,2.92H82L80.7,94.12h.82L82.39,97Z"/><path class="i" d="M87.28,96.93a1,1,0,0,1,.32-.79,1.55,1.55,0,0,1,.85-.38l1-.15c.2,0,.3-.12.3-.29a.64.64,0,0,0-.21-.49.89.89,0,0,0-.62-.19.85.85,0,0,0-.61.21.9.9,0,0,0-.27.56l-.72-.17a1.3,1.3,0,0,1,.51-.9A1.69,1.69,0,0,1,88.94,94a1.66,1.66,0,0,1,1.21.39,1.39,1.39,0,0,1,.39,1v1.93a4,4,0,0,0,0,.63h-.74a4.07,4.07,0,0,1,0-.52,1.36,1.36,0,0,1-.47.45,1.4,1.4,0,0,1-.77.19,1.29,1.29,0,0,1-.93-.34A1.06,1.06,0,0,1,87.28,96.93Zm1.4.52a1.16,1.16,0,0,0,.8-.27,1.08,1.08,0,0,0,.31-.86v-.18l-1.18.18a.7.7,0,0,0-.41.18.53.53,0,0,0-.15.39.54.54,0,0,0,.17.39A.61.61,0,0,0,88.68,97.45Z"/><path class="i" d="M91.43,98.17l.73-.17a1,1,0,0,0,.32.68,1,1,0,0,0,.72.27c.79,0,1.18-.42,1.18-1.25v-.55a1.08,1.08,0,0,1-.45.45,1.44,1.44,0,0,1-.73.18,1.65,1.65,0,0,1-1.26-.52,1.84,1.84,0,0,1-.5-1.34,1.91,1.91,0,0,1,.49-1.34A1.66,1.66,0,0,1,93.2,94a1.21,1.21,0,0,1,1.19.61v-.53h.74v3.56a2.34,2.34,0,0,1-.1.71,1.76,1.76,0,0,1-.31.61,1.4,1.4,0,0,1-.61.44,2.31,2.31,0,0,1-.91.16,1.83,1.83,0,0,1-1.2-.4A1.51,1.51,0,0,1,91.43,98.17Zm1.89-1a1,1,0,0,0,.79-.34,1.49,1.49,0,0,0,0-1.79,1,1,0,0,0-.79-.34,1.08,1.08,0,0,0-.81.34,1.48,1.48,0,0,0,0,1.8A1.06,1.06,0,0,0,93.32,97.15Z"/><path class="i" d="M96.57,94.58a2,2,0,0,1,2.82,0A2,2,0,0,1,100,96a2,2,0,0,1-.55,1.46,2,2,0,0,1-2.84,0A2,2,0,0,1,96,96,2,2,0,0,1,96.57,94.58Zm.56,2.47a1.18,1.18,0,0,0,1.7,0,1.63,1.63,0,0,0,0-2,1.18,1.18,0,0,0-1.7,0,1.63,1.63,0,0,0,0,2Z"/><path class="i" d="M101.66,95.74V98h-.75V94.12h.73v.55a1.29,1.29,0,0,1,1.19-.67,1.28,1.28,0,0,1,1,.43,1.62,1.62,0,0,1,.35,1.09V98h-.75V95.65c0-.64-.3-1-.89-1a.77.77,0,0,0-.66.3A1.19,1.19,0,0,0,101.66,95.74Z"/><path class="i" d="M105.48,97.84a.53.53,0,0,1-.16-.39.57.57,0,0,1,.16-.39.54.54,0,0,1,.4-.17.58.58,0,0,1,.56.56.51.51,0,0,1-.17.39.53.53,0,0,1-.39.16A.54.54,0,0,1,105.48,97.84Z"/><path class="i" d="M109.13,94.69a1.14,1.14,0,0,0-.83.35,1.63,1.63,0,0,0,0,2,1.12,1.12,0,0,0,.84.36,1,1,0,0,0,.73-.24,1.24,1.24,0,0,0,.34-.55l.67.28a1.83,1.83,0,0,1-.61.84,1.72,1.72,0,0,1-1.13.36,1.83,1.83,0,0,1-1.39-.58A2,2,0,0,1,107.2,96a2,2,0,0,1,.55-1.47,1.85,1.85,0,0,1,1.38-.57,1.73,1.73,0,0,1,1.14.36,1.64,1.64,0,0,1,.57.86l-.68.29a1.16,1.16,0,0,0-.33-.58A1,1,0,0,0,109.13,94.69Z"/><path class="i" d="M112,94.58a1.86,1.86,0,0,1,1.41-.58,1.89,1.89,0,0,1,1.42.58,2.21,2.21,0,0,1,0,2.92,2,2,0,0,1-2.83,0,2.21,2.21,0,0,1,0-2.92Zm.56,2.47a1.14,1.14,0,0,0,.85.36,1.16,1.16,0,0,0,.86-.36,1.67,1.67,0,0,0,0-2,1.16,1.16,0,0,0-.86-.36,1.14,1.14,0,0,0-.85.36,1.63,1.63,0,0,0,0,2Z"/><path class="i" d="M117,98h-.75V94.12H117v.51a1.14,1.14,0,0,1,.5-.47,1.57,1.57,0,0,1,.67-.16,1.38,1.38,0,0,1,.69.19,1.07,1.07,0,0,1,.46.54,1.38,1.38,0,0,1,1.29-.73,1.31,1.31,0,0,1,.94.38,1.44,1.44,0,0,1,.39,1.09V98h-.75V95.55a.93.93,0,0,0-.2-.64.76.76,0,0,0-.61-.24.82.82,0,0,0-.64.27,1,1,0,0,0-.25.7V98h-.75V95.55a.93.93,0,0,0-.21-.64.75.75,0,0,0-.61-.24.86.86,0,0,0-.65.27,1,1,0,0,0-.24.7Z"/><path class="i" d="M61.92,50.29v-.07a1.2,1.2,0,0,1-.46.49,1.33,1.33,0,0,1-.73.2,1.64,1.64,0,0,1-1.32-.58,2.32,2.32,0,0,1,0-2.89,1.67,1.67,0,0,1,1.31-.59,1.49,1.49,0,0,1,.77.19,1.05,1.05,0,0,1,.41.46V45h.74v5.08a5.29,5.29,0,0,0,0,.72H62A3.93,3.93,0,0,1,61.92,50.29Zm-2.25-1.42a1.54,1.54,0,0,0,.3,1,1,1,0,0,0,.83.39,1,1,0,0,0,.81-.4,1.59,1.59,0,0,0,.3-1,1.45,1.45,0,0,0-.29-1,1,1,0,0,0-.81-.37,1,1,0,0,0-.82.37A1.48,1.48,0,0,0,59.67,48.87Z"/><path class="i" d="M63.92,45.88A.54.54,0,0,1,64.3,45a.52.52,0,0,1,.38.15.53.53,0,0,1,.16.39.54.54,0,0,1-.92.38Zm.75,4.93h-.74V47h.74Z"/><path class="i" d="M66.7,50.81H66V47h.72v.51a1.17,1.17,0,0,1,.5-.46,1.44,1.44,0,0,1,.67-.16,1.37,1.37,0,0,1,.69.18,1.07,1.07,0,0,1,.46.54,1.37,1.37,0,0,1,1.29-.72,1.3,1.3,0,0,1,.94.37,1.45,1.45,0,0,1,.39,1.09v2.5h-.74V48.39a.93.93,0,0,0-.21-.64.75.75,0,0,0-.61-.24.81.81,0,0,0-.64.28,1,1,0,0,0-.25.69v2.33h-.75V48.39a1,1,0,0,0-.2-.64.77.77,0,0,0-.62-.24.82.82,0,0,0-.64.27,1,1,0,0,0-.25.71Z"/><path class="i" d="M72.8,45.88a.54.54,0,0,1,.38-.92.52.52,0,0,1,.38.15.53.53,0,0,1,.16.39.54.54,0,0,1-.92.38Zm.75,4.93h-.74V47h.74Z"/><path class="i" d="M75.84,45.74V47h.83v.68h-.83v2A.54.54,0,0,0,76,50a.57.57,0,0,0,.41.13.85.85,0,0,0,.29,0v.64a1.36,1.36,0,0,1-.51.08,1.06,1.06,0,0,1-.78-.29,1.1,1.1,0,0,1-.29-.81V47.64h-.74V47h.21a.58.58,0,0,0,.45-.17.64.64,0,0,0,.14-.42v-.63Z"/><path class="i" d="M79.73,46.92v.8l-.33,0c-.7,0-1.05.4-1.05,1.19v1.93h-.76V47h.74v.67a1.19,1.19,0,0,1,1.15-.74A1,1,0,0,1,79.73,46.92Z"/><path class="i" d="M80.52,45.88A.54.54,0,0,1,80.9,45a.52.52,0,0,1,.38.15.53.53,0,0,1,.16.39.54.54,0,0,1-.92.38Zm.75,4.93h-.74V47h.74Z"/><path class="i" d="M86.72,49.71a.92.92,0,0,1-.51-.13.58.58,0,0,1-.28-.38,1.12,1.12,0,0,1-1,.53,1.16,1.16,0,0,1-.89-.38,1.45,1.45,0,0,1-.34-1A1.92,1.92,0,0,1,84.23,47a1.44,1.44,0,0,1,1.12-.54,1.08,1.08,0,0,1,.53.14.7.7,0,0,1,.33.39l.07-.42h.63l-.43,2a1.8,1.8,0,0,0,0,.22q0,.33.3.33c.23,0,.43-.16.6-.46a2.06,2.06,0,0,0,.27-1.06A2,2,0,0,0,87,46.17a2.56,2.56,0,0,0-3.38.14,2.48,2.48,0,0,0-.7,1.84,2.42,2.42,0,0,0,.68,1.76,2.51,2.51,0,0,0,1.86.69A2.57,2.57,0,0,0,87.11,50l.33.43a2.72,2.72,0,0,1-.89.52,3.2,3.2,0,0,1-1.08.19,3.24,3.24,0,0,1-2.3-.84,2.88,2.88,0,0,1-.9-2.2A3.06,3.06,0,0,1,85.38,45a2.9,2.9,0,0,1,2,.75,2.61,2.61,0,0,1,.38,3.35A1.32,1.32,0,0,1,86.72,49.71ZM86,47.85a.8.8,0,0,0-.17-.56.64.64,0,0,0-.5-.2.81.81,0,0,0-.68.36,1.32,1.32,0,0,0-.27.82c0,.58.23.87.68.87a.81.81,0,0,0,.67-.36A1.68,1.68,0,0,0,86,47.85Z"/><path class="i" d="M89.91,50.81h-.75V45h.75Z"/><path class="i" d="M93.9,49.49l.65.22a1.74,1.74,0,0,1-.63.88,1.82,1.82,0,0,1-1.1.34,1.87,1.87,0,0,1-1.37-.56,2,2,0,0,1-.57-1.5,2,2,0,0,1,.55-1.46,1.85,1.85,0,0,1,2.65,0,2.08,2.08,0,0,1,.49,1.46,1.44,1.44,0,0,1,0,.24H91.66a1.15,1.15,0,0,0,.34.84,1.11,1.11,0,0,0,.82.33A1,1,0,0,0,93.9,49.49Zm-2.22-1h2.11a1.07,1.07,0,0,0-.29-.71,1,1,0,0,0-.77-.28,1,1,0,0,0-.74.29A1.1,1.1,0,0,0,91.68,48.49Z"/><path class="i" d="M97.66,47h.77l1,2.89.85-2.89h.79l-1.24,3.85h-.78l-1-2.93-1,2.93h-.8L95,47h.82l.87,2.89Z"/><path class="i" d="M101.55,49.77a1,1,0,0,1,.32-.79,1.48,1.48,0,0,1,.85-.37l1-.16c.2,0,.3-.12.3-.28a.64.64,0,0,0-.21-.5.89.89,0,0,0-.62-.19.85.85,0,0,0-.61.21.9.9,0,0,0-.27.56l-.72-.16a1.26,1.26,0,0,1,.51-.9,1.64,1.64,0,0,1,1.07-.35,1.66,1.66,0,0,1,1.21.39,1.41,1.41,0,0,1,.39,1v1.92a4.26,4.26,0,0,0,0,.64h-.74a4.22,4.22,0,0,1,0-.52,1.25,1.25,0,0,1-.47.44,1.4,1.4,0,0,1-.77.2,1.33,1.33,0,0,1-.93-.34A1.09,1.09,0,0,1,101.55,49.77Zm1.4.52a1.16,1.16,0,0,0,.8-.27,1.08,1.08,0,0,0,.31-.86V49l-1.18.18a.77.77,0,0,0-.41.18.53.53,0,0,0-.15.39.58.58,0,0,0,.17.4A.65.65,0,0,0,103,50.29Z"/><path class="i" d="M105.7,51l.73-.16a1,1,0,0,0,.32.67,1,1,0,0,0,.72.27c.79,0,1.18-.42,1.18-1.25V50a1.17,1.17,0,0,1-.45.46,1.54,1.54,0,0,1-.73.17,1.65,1.65,0,0,1-1.26-.52,1.84,1.84,0,0,1-.5-1.34,1.89,1.89,0,0,1,.49-1.33,1.66,1.66,0,0,1,1.27-.54,1.2,1.2,0,0,1,1.19.6V47h.74v3.56a2.34,2.34,0,0,1-.1.71,1.81,1.81,0,0,1-.31.62,1.58,1.58,0,0,1-.61.44,2.51,2.51,0,0,1-.91.16,1.84,1.84,0,0,1-1.2-.41A1.51,1.51,0,0,1,105.7,51Zm1.89-1a1,1,0,0,0,.79-.34,1.3,1.3,0,0,0,.3-.89,1.28,1.28,0,0,0-.3-.89,1,1,0,0,0-.79-.34,1.07,1.07,0,0,0-.81.33,1.31,1.31,0,0,0-.31.9,1.29,1.29,0,0,0,.3.9A1,1,0,0,0,107.59,50Z"/><path class="i" d="M110.84,47.42a2,2,0,0,1,2.82,0,2,2,0,0,1,.56,1.46,2.09,2.09,0,0,1-.55,1.47,2,2,0,0,1-2.84,0,2.09,2.09,0,0,1-.55-1.47A2,2,0,0,1,110.84,47.42Zm.56,2.47a1.18,1.18,0,0,0,1.7,0,1.41,1.41,0,0,0,.35-1,1.42,1.42,0,0,0-.35-1,1.18,1.18,0,0,0-1.7,0,1.42,1.42,0,0,0-.35,1A1.41,1.41,0,0,0,111.4,49.89Z"/><path class="i" d="M115.93,48.58v2.23h-.75V47h.73v.55a1.42,1.42,0,0,1,2.21-.24,1.69,1.69,0,0,1,.35,1.1v2.44h-.75V48.49c0-.64-.3-1-.89-1a.77.77,0,0,0-.66.3A1.16,1.16,0,0,0,115.93,48.58Z"/><path class="i" d="M66.19,62.25a1.08,1.08,0,0,1-.52-.12.66.66,0,0,1-.28-.39,1.16,1.16,0,0,1-1.83.15,1.4,1.4,0,0,1-.34-1,2,2,0,0,1,.47-1.33A1.46,1.46,0,0,1,64.82,59a1.06,1.06,0,0,1,.52.13.72.72,0,0,1,.33.4l.08-.43h.63l-.43,2a1,1,0,0,0,0,.23.28.28,0,0,0,.31.32c.22,0,.42-.15.6-.46a2.13,2.13,0,0,0,.26-1.06,1.91,1.91,0,0,0-.62-1.46,2.29,2.29,0,0,0-1.62-.58,2.37,2.37,0,0,0-1.76.71,2.54,2.54,0,0,0-.7,1.84,2.36,2.36,0,0,0,.69,1.76,2.48,2.48,0,0,0,1.86.69,2.53,2.53,0,0,0,1.64-.56l.33.43a2.45,2.45,0,0,1-.9.52,3.16,3.16,0,0,1-1.07.2,3.21,3.21,0,0,1-2.31-.85,2.89,2.89,0,0,1-.89-2.19,3,3,0,0,1,.9-2.25,3,3,0,0,1,2.2-.88,2.93,2.93,0,0,1,2,.75,2.44,2.44,0,0,1,.82,1.86,2.4,2.4,0,0,1-.45,1.49A1.28,1.28,0,0,1,66.19,62.25Zm-.69-1.86a.78.78,0,0,0-.18-.55.59.59,0,0,0-.49-.2.84.84,0,0,0-.69.35,1.32,1.32,0,0,0-.27.82c0,.59.23.88.68.88a.77.77,0,0,0,.67-.37A1.58,1.58,0,0,0,65.5,60.39Z"/><path class="i" d="M69.38,63.35h-.75V57.56h.75Z"/><path class="i" d="M73.36,62l.65.22a1.72,1.72,0,0,1-.62.88,1.81,1.81,0,0,1-1.11.34,1.88,1.88,0,0,1-1.37-.55,2,2,0,0,1-.56-1.5A2,2,0,0,1,70.89,60a1.71,1.71,0,0,1,1.3-.58,1.75,1.75,0,0,1,1.36.55A2.17,2.17,0,0,1,74,61.4a1.77,1.77,0,0,1,0,.24h-2.9a1.19,1.19,0,0,0,.34.84,1.12,1.12,0,0,0,.82.33A1,1,0,0,0,73.36,62Zm-2.21-1h2.1a1,1,0,0,0-1.06-1,1,1,0,0,0-.73.29A1,1,0,0,0,71.15,61Z"/><path class="i" d="M77.12,59.5h.78l1,2.9.85-2.9h.79l-1.25,3.85h-.78l-1-2.93-1,2.93H75.7L74.43,59.5h.83l.86,2.9Z"/><path class="i" d="M81,62.32a1,1,0,0,1,.32-.8,1.48,1.48,0,0,1,.85-.37l1-.15c.19,0,.29-.12.29-.29a.66.66,0,0,0-.21-.5.9.9,0,0,0-.62-.19.85.85,0,0,0-.61.21.87.87,0,0,0-.26.57l-.72-.17a1.25,1.25,0,0,1,.5-.9,1.72,1.72,0,0,1,1.07-.35,1.61,1.61,0,0,1,1.21.4,1.37,1.37,0,0,1,.39,1v1.93a4,4,0,0,0,0,.63h-.73a2.82,2.82,0,0,1,0-.52,1.56,1.56,0,0,1-.47.45,1.42,1.42,0,0,1-.77.19,1.29,1.29,0,0,1-.93-.34A1.09,1.09,0,0,1,81,62.32Zm1.39.52a1.17,1.17,0,0,0,.81-.27,1.12,1.12,0,0,0,.3-.87v-.17l-1.17.17a.75.75,0,0,0-.41.19.56.56,0,0,0,0,.78A.61.61,0,0,0,82.41,62.84Z"/><path class="i" d="M85.16,63.56l.73-.17a1.07,1.07,0,0,0,.33.68,1,1,0,0,0,.72.27c.78,0,1.17-.42,1.17-1.25v-.56a1,1,0,0,1-.45.46,1.37,1.37,0,0,1-.72.18,1.68,1.68,0,0,1-1.27-.53,1.87,1.87,0,0,1-.5-1.34,1.89,1.89,0,0,1,.5-1.33,1.64,1.64,0,0,1,1.27-.54,1.18,1.18,0,0,1,1.18.61V59.5h.75v3.56a2.72,2.72,0,0,1-.1.72,2.1,2.1,0,0,1-.32.61,1.38,1.38,0,0,1-.6.44,2.31,2.31,0,0,1-.91.16,1.84,1.84,0,0,1-1.21-.4A1.54,1.54,0,0,1,85.16,63.56Zm1.89-1a1,1,0,0,0,.79-.34,1.24,1.24,0,0,0,.31-.89,1.25,1.25,0,0,0-.31-.89,1,1,0,0,0-.79-.34,1,1,0,0,0-.8.34,1.24,1.24,0,0,0-.31.89,1.29,1.29,0,0,0,.3.9A1,1,0,0,0,87.05,62.53Z"/><path class="i" d="M90.3,60a2,2,0,0,1,2.83,0,2.23,2.23,0,0,1,0,2.93,2,2,0,0,1-2.83,0,2.23,2.23,0,0,1,0-2.93Zm.56,2.47a1.11,1.11,0,0,0,.85.37,1.14,1.14,0,0,0,.86-.37,1.66,1.66,0,0,0,0-2,1.17,1.17,0,0,0-.86-.37,1.15,1.15,0,0,0-.85.37,1.62,1.62,0,0,0,0,2Z"/><path class="i" d="M95.39,61.13v2.22h-.75V59.5h.74v.55a1.41,1.41,0,0,1,2.2-.24,1.66,1.66,0,0,1,.36,1.1v2.44h-.75V61c0-.65-.3-1-.9-1a.8.8,0,0,0-.66.3A1.17,1.17,0,0,0,95.39,61.13Z"/><path class="i" d="M99.22,63.23a.53.53,0,0,1-.16-.39.54.54,0,0,1,.16-.4.51.51,0,0,1,.39-.16.55.55,0,0,1,.4.16.54.54,0,0,1,.16.4.53.53,0,0,1-.16.39.55.55,0,0,1-.4.16A.51.51,0,0,1,99.22,63.23Z"/><path class="i" d="M102.87,60.08a1.13,1.13,0,0,0-.83.35,1.37,1.37,0,0,0-.34,1,1.41,1.41,0,0,0,.34,1,1.13,1.13,0,0,0,.83.35,1,1,0,0,0,.74-.24A1.22,1.22,0,0,0,104,62l.66.29a1.88,1.88,0,0,1-.6.84,1.77,1.77,0,0,1-1.14.36,1.83,1.83,0,0,1-1.39-.58,2.24,2.24,0,0,1,0-2.94,1.85,1.85,0,0,1,1.39-.57,1.73,1.73,0,0,1,1.14.36,1.66,1.66,0,0,1,.57.87l-.68.28a1.2,1.2,0,0,0-.34-.57A.93.93,0,0,0,102.87,60.08Z"/><path class="i" d="M105.69,60a2,2,0,0,1,2.82,0,2.2,2.2,0,0,1,0,2.93,1.84,1.84,0,0,1-1.41.58,1.86,1.86,0,0,1-1.42-.58,2.21,2.21,0,0,1,0-2.93Zm.56,2.47a1.1,1.1,0,0,0,.85.37,1.11,1.11,0,0,0,.85-.37,1.62,1.62,0,0,0,0-2,1.15,1.15,0,0,0-.85-.37,1.13,1.13,0,0,0-.85.37,1.62,1.62,0,0,0,0,2Z"/><path class="i" d="M110.77,63.35H110V59.5h.72V60a1.15,1.15,0,0,1,.49-.46,1.47,1.47,0,0,1,.67-.16,1.34,1.34,0,0,1,.69.18,1.21,1.21,0,0,1,.47.55,1.34,1.34,0,0,1,1.28-.73,1.29,1.29,0,0,1,.94.38,1.43,1.43,0,0,1,.39,1.08v2.5h-.74V60.93a.9.9,0,0,0-.21-.63.72.72,0,0,0-.61-.25.85.85,0,0,0-.64.28,1,1,0,0,0-.25.69v2.33h-.75V60.93a1,1,0,0,0-.2-.63.74.74,0,0,0-.61-.25.84.84,0,0,0-.65.28,1,1,0,0,0-.25.7Z"/><path class="i" d="M54.87,75.9h-.74V70.1h.74v2.49a1.28,1.28,0,0,1,.48-.47,1.67,1.67,0,0,1,.79-.18,1.62,1.62,0,0,1,1.31.56,2.5,2.5,0,0,1,0,2.92,1.6,1.6,0,0,1-1.31.58,1.34,1.34,0,0,1-1.25-.66Zm2-1a1.75,1.75,0,0,0,0-2A1,1,0,0,0,56,72.6a1,1,0,0,0-.83.37,1.44,1.44,0,0,0-.32,1,1.54,1.54,0,0,0,.32,1,1.05,1.05,0,0,0,.83.38A1,1,0,0,0,56.83,75Z"/><path class="i" d="M59.11,72.51a2,2,0,0,1,2.82,0A2,2,0,0,1,62.49,74a2.06,2.06,0,0,1-.56,1.47,1.88,1.88,0,0,1-1.41.58,1.9,1.9,0,0,1-1.42-.58A2,2,0,0,1,58.55,74,2,2,0,0,1,59.11,72.51ZM59.67,75a1.13,1.13,0,0,0,.85.36,1.14,1.14,0,0,0,.85-.36,1.41,1.41,0,0,0,.35-1,1.42,1.42,0,0,0-.35-1,1.14,1.14,0,0,0-.85-.36,1.13,1.13,0,0,0-.85.36,1.38,1.38,0,0,0-.35,1A1.37,1.37,0,0,0,59.67,75Z"/><path class="i" d="M65.58,72v.8a1.84,1.84,0,0,0-.33,0c-.7,0-1,.4-1,1.19V75.9h-.75V72.05h.73v.67A1.2,1.2,0,0,1,65.33,72,1,1,0,0,1,65.58,72Z"/><path class="i" d="M66.37,71a.53.53,0,0,1,0-.76.49.49,0,0,1,.38-.16.52.52,0,0,1,.38.15.53.53,0,0,1,.16.39.54.54,0,0,1-.92.38Zm.76,4.93h-.75V72.05h.75Z"/><path class="i" d="M68.05,74.9l.68-.24a.74.74,0,0,0,.27.51.88.88,0,0,0,.62.21.69.69,0,0,0,.48-.15.46.46,0,0,0,.18-.37c0-.25-.17-.42-.5-.49l-.65-.15a1.26,1.26,0,0,1-.71-.38,1,1,0,0,1-.25-.7,1.09,1.09,0,0,1,.4-.85,1.4,1.4,0,0,1,1-.36,1.69,1.69,0,0,1,.66.11,1.12,1.12,0,0,1,.45.28,1.5,1.5,0,0,1,.24.33A1.66,1.66,0,0,1,71,73l-.67.25a.59.59,0,0,0,0-.19,1,1,0,0,0-.13-.2.45.45,0,0,0-.24-.18.89.89,0,0,0-.38-.07.71.71,0,0,0-.46.15.45.45,0,0,0-.18.36c0,.25.15.4.44.46l.63.14a1.46,1.46,0,0,1,.79.41,1.06,1.06,0,0,1,.27.73,1.13,1.13,0,0,1-.37.83,1.43,1.43,0,0,1-1,.37,1.61,1.61,0,0,1-1.11-.36A1.25,1.25,0,0,1,68.05,74.9Z"/><path class="i" d="M76.19,74.8a.92.92,0,0,1-.51-.13.55.55,0,0,1-.28-.38,1.12,1.12,0,0,1-1,.53,1.15,1.15,0,0,1-.89-.38,1.45,1.45,0,0,1-.34-1,2,2,0,0,1,.47-1.33,1.47,1.47,0,0,1,1.13-.54,1.1,1.1,0,0,1,.53.14.7.7,0,0,1,.33.39l.07-.42h.63l-.43,2a.86.86,0,0,0,0,.22q0,.33.3.33c.22,0,.42-.16.6-.46a2.06,2.06,0,0,0,.26-1.06,1.91,1.91,0,0,0-.62-1.47,2.29,2.29,0,0,0-1.62-.57,2.36,2.36,0,0,0-1.76.71,2.51,2.51,0,0,0-.69,1.84A2.42,2.42,0,0,0,73.08,75a2.51,2.51,0,0,0,1.86.69,2.57,2.57,0,0,0,1.64-.56l.33.43a2.83,2.83,0,0,1-.89.52,3.44,3.44,0,0,1-3.38-.65,2.88,2.88,0,0,1-.9-2.2A3,3,0,0,1,72.65,71a3,3,0,0,1,2.2-.88,2.92,2.92,0,0,1,2,.75,2.61,2.61,0,0,1,.38,3.35A1.32,1.32,0,0,1,76.19,74.8Zm-.69-1.86a.85.85,0,0,0-.17-.56.65.65,0,0,0-.5-.2.81.81,0,0,0-.68.36,1.32,1.32,0,0,0-.27.82c0,.58.23.87.68.87a.81.81,0,0,0,.67-.36A1.68,1.68,0,0,0,75.5,72.94Z"/><path class="i" d="M79.38,75.9h-.75V70.1h.75Z"/><path class="i" d="M83.37,74.58l.64.22a1.72,1.72,0,0,1-.62.88,1.82,1.82,0,0,1-1.1.34,1.91,1.91,0,0,1-1.38-.56,2,2,0,0,1-.56-1.5,2.06,2.06,0,0,1,.54-1.46,1.75,1.75,0,0,1,1.3-.57,1.71,1.71,0,0,1,1.36.55A2.08,2.08,0,0,1,84,73.94a1.44,1.44,0,0,1,0,.24H81.13a1.15,1.15,0,0,0,.34.84,1.11,1.11,0,0,0,.82.33A1,1,0,0,0,83.37,74.58Zm-2.22-1h2.1a1.06,1.06,0,0,0-1.79-.7A1.1,1.1,0,0,0,81.15,73.58Z"/><path class="i" d="M87.13,72.05h.77l1,2.89.85-2.89h.79L89.29,75.9h-.77l-1-2.93-1,2.93H85.7l-1.26-3.85h.82l.87,2.89Z"/><path class="i" d="M91,74.86a1,1,0,0,1,.32-.79,1.48,1.48,0,0,1,.85-.37l1-.16c.2,0,.3-.12.3-.28a.64.64,0,0,0-.21-.5.9.9,0,0,0-.63-.19.84.84,0,0,0-.6.21.9.9,0,0,0-.27.56l-.72-.16a1.26,1.26,0,0,1,.51-.9,1.62,1.62,0,0,1,1.07-.35,1.68,1.68,0,0,1,1.21.39,1.4,1.4,0,0,1,.39,1v1.92a3.26,3.26,0,0,0,0,.64h-.74a2.89,2.89,0,0,1,0-.52,1.33,1.33,0,0,1-.47.44,1.4,1.4,0,0,1-.77.2,1.33,1.33,0,0,1-.93-.34A1.09,1.09,0,0,1,91,74.86Zm1.39.52a1.17,1.17,0,0,0,.81-.27,1.11,1.11,0,0,0,.31-.86v-.18l-1.18.18a.74.74,0,0,0-.41.18.53.53,0,0,0-.15.39.58.58,0,0,0,.17.4A.64.64,0,0,0,92.41,75.38Z"/><path class="i" d="M95.17,76.1l.72-.16a1,1,0,0,0,.33.67,1,1,0,0,0,.72.27c.79,0,1.18-.42,1.18-1.25v-.55a1.17,1.17,0,0,1-.45.46,1.54,1.54,0,0,1-.73.17,1.69,1.69,0,0,1-1.27-.52,2,2,0,0,1,0-2.67A1.66,1.66,0,0,1,96.94,72a1.21,1.21,0,0,1,1.19.6v-.53h.74v3.56a2.34,2.34,0,0,1-.1.71,1.83,1.83,0,0,1-.32.62,1.47,1.47,0,0,1-.6.44,2.51,2.51,0,0,1-.91.16,1.88,1.88,0,0,1-1.21-.41A1.46,1.46,0,0,1,95.17,76.1Zm1.88-1a1,1,0,0,0,.8-.34,1.3,1.3,0,0,0,.3-.89,1.28,1.28,0,0,0-.3-.89,1,1,0,0,0-.8-.34,1,1,0,0,0-.8.33,1.31,1.31,0,0,0-.31.9,1.29,1.29,0,0,0,.3.9A1,1,0,0,0,97.05,75.08Z"/><path class="i" d="M100.31,72.51a2,2,0,0,1,2.82,0,2,2,0,0,1,.56,1.46,2.06,2.06,0,0,1-.56,1.47,1.88,1.88,0,0,1-1.41.58,1.9,1.9,0,0,1-1.42-.58A2,2,0,0,1,99.75,74,2,2,0,0,1,100.31,72.51Zm.56,2.47a1.13,1.13,0,0,0,.85.36,1.14,1.14,0,0,0,.85-.36,1.41,1.41,0,0,0,.35-1,1.42,1.42,0,0,0-.35-1,1.14,1.14,0,0,0-.85-.36,1.13,1.13,0,0,0-.85.36,1.38,1.38,0,0,0-.35,1A1.37,1.37,0,0,0,100.87,75Z"/><path class="i" d="M105.4,73.67V75.9h-.75V72.05h.73v.55a1.42,1.42,0,0,1,2.21-.24,1.69,1.69,0,0,1,.35,1.1V75.9h-.75V73.58q0-1-.9-1a.8.8,0,0,0-.66.3A1.22,1.22,0,0,0,105.4,73.67Z"/><path class="i" d="M110.76,72.62a1.1,1.1,0,0,0-.83.36,1.34,1.34,0,0,0-.34,1,1.37,1.37,0,0,0,.34,1,1.12,1.12,0,0,0,.84.36,1,1,0,0,0,.73-.24,1.18,1.18,0,0,0,.34-.55l.66.29a1.88,1.88,0,0,1-.6.84,1.76,1.76,0,0,1-1.13.36,1.86,1.86,0,0,1-1.4-.59,2.08,2.08,0,0,1-.55-1.46,2.06,2.06,0,0,1,.55-1.47,1.85,1.85,0,0,1,1.39-.57,1.73,1.73,0,0,1,1.14.36,1.68,1.68,0,0,1,.57.86l-.68.29a1.23,1.23,0,0,0-.34-.58A.93.93,0,0,0,110.76,72.62Z"/><path class="i" d="M113.58,72.51a2,2,0,0,1,2.82,0A2,2,0,0,1,117,74a2.09,2.09,0,0,1-.55,1.47,2,2,0,0,1-2.84,0A2.09,2.09,0,0,1,113,74,2,2,0,0,1,113.58,72.51Zm.56,2.47a1.18,1.18,0,0,0,1.7,0,1.41,1.41,0,0,0,.35-1,1.42,1.42,0,0,0-.35-1,1.18,1.18,0,0,0-1.7,0,1.42,1.42,0,0,0-.35,1A1.41,1.41,0,0,0,114.14,75Z"/><path class="i" d="M118.66,75.9h-.74V72.05h.72v.51a1.14,1.14,0,0,1,.49-.46,1.48,1.48,0,0,1,.68-.16,1.3,1.3,0,0,1,.68.18,1.09,1.09,0,0,1,.47.54,1.36,1.36,0,0,1,1.29-.72,1.31,1.31,0,0,1,.94.37,1.43,1.43,0,0,1,.38,1.09v2.5h-.74V73.48a1,1,0,0,0-.2-.64.77.77,0,0,0-.62-.24.81.81,0,0,0-.64.28,1,1,0,0,0-.24.69V75.9h-.76V73.48a.93.93,0,0,0-.2-.64.76.76,0,0,0-.61-.24.85.85,0,0,0-.65.27,1,1,0,0,0-.25.71Z"/><rect class="h" x="119.49" y="138.16" width="20.82" height="6.88" rx="1"/><rect class="h" x="119.49" y="146.85" width="20.82" height="6.88" rx="1"/><rect class="h" x="119.49" y="155.53" width="20.82" height="6.88" rx="1"/><path class="h" d="M54.77,162.41H41.56a.62.62,0,0,1-.52-.68l-2.65-22.89a.7.7,0,0,1,.72-.68H57.33a.7.7,0,0,1,.71.68l-2.76,22.89C55.28,162.1,55.05,162.41,54.77,162.41Z"/><polygon class="j" points="103.17 187.42 171.79 107.17 171.79 184.52 166.94 187.42 103.17 187.42"/></symbol></defs><rect class="k" y="70" width="900" height="158.05"/><rect class="l" x="279" y="70" width="338.62" height="160"/><use width="174.63" height="187.78" transform="translate(323.84 14.78) scale(1.45)" xlink:href="#a"/></svg>