<svg xmlns="http://www.w3.org/2000/svg" xmlns:xlink="http://www.w3.org/1999/xlink" viewBox="0 0 900 300"><defs><style>.a{fill:#eae9e9;stroke-width:0.75px;}.a,.f,.i{stroke:#d6d5d5;}.a,.b,.c,.d,.e,.f,.i{stroke-miterlimit:10;}.b{fill:#ed2627;}.b,.c,.d{stroke:#fff;}.b,.c,.d,.i{stroke-width:0.5px;}.c{fill:#fec75e;}.d{fill:#5abd80;}.e,.k{fill:#7e73ff;}.e{stroke:#eceaff;}.e,.f{stroke-width:0.8px;}.f,.h,.j{fill:#fff;}.g,.l{fill:#4b4b4b;}.i{fill:none;}.j{opacity:0.12;}.l{opacity:0.13;}</style><symbol id="b" viewBox="0 0 180.96 194.59"><rect class="a" x="0.38" y="0.37" width="180.21" height="193.84" rx="3"/><circle class="b" cx="5.93" cy="6.41" r="1.69"/><circle class="c" cx="11.05" cy="6.41" r="1.69"/><circle class="d" cx="16.18" cy="6.41" r="1.69"/></symbol><symbol id="a" viewBox="0 0 174.63 187.78"><use width="180.96" height="194.59" transform="scale(0.96)" xlink:href="#b"/><rect class="e" x="8.81" y="68.81" width="157.01" height="109.58"/><rect class="f" x="8.81" y="20.1" width="157.01" height="42.18"/><path class="g" d="M27,29.68H25.05v5h-.49v-5H22.63v-.45H27Z"/><path class="g" d="M27.29,31.46a1.69,1.69,0,0,1,1.28-.54,1.73,1.73,0,0,1,1.29.54,2,2,0,0,1,.52,1.41,1.9,1.9,0,0,1-.52,1.39,1.73,1.73,0,0,1-1.29.54,1.67,1.67,0,0,1-1.27-.54,1.89,1.89,0,0,1-.54-1.39A1.94,1.94,0,0,1,27.29,31.46ZM27.64,34a1.25,1.25,0,0,0,.93.4,1.29,1.29,0,0,0,.94-.4,1.57,1.57,0,0,0,.4-1.12,1.59,1.59,0,0,0-.4-1.13,1.24,1.24,0,0,0-.94-.39,1.21,1.21,0,0,0-.93.39,1.6,1.6,0,0,0-.41,1.13A1.58,1.58,0,0,0,27.64,34Z"/><path class="g" d="M31.65,31.8a.38.38,0,0,1-.4-.4.39.39,0,0,1,.4-.41.41.41,0,0,1,.41.41.39.39,0,0,1-.41.4Zm.3,2.82a.4.4,0,0,1-.29.12.38.38,0,0,1-.29-.12.38.38,0,0,1-.11-.29.39.39,0,0,1,.11-.29.38.38,0,0,1,.29-.12.41.41,0,0,1,.41.41A.38.38,0,0,1,32,34.62Z"/><path class="g" d="M34.92,33.72l.43-.14a.92.92,0,0,0,.31.6,1,1,0,0,0,.7.22.92.92,0,0,0,.59-.18.56.56,0,0,0,.23-.47c0-.33-.2-.54-.62-.63L35.94,33c-.59-.14-.89-.46-.89-1a1,1,0,0,1,.37-.76,1.32,1.32,0,0,1,.88-.32,1.38,1.38,0,0,1,.94.33,1.27,1.27,0,0,1,.37.65l-.41.16a1,1,0,0,0-.26-.51,1,1,0,0,0-.64-.23.85.85,0,0,0-.55.18.57.57,0,0,0-.24.47c0,.3.19.49.56.59l.61.13c.64.15,1,.49,1,1a1,1,0,0,1-.33.74,1.33,1.33,0,0,1-1,.34,1.45,1.45,0,0,1-1-.34A1.22,1.22,0,0,1,34.92,33.72Z"/><path class="g" d="M41.33,33.52l.41.14a1.65,1.65,0,0,1-.56.8,1.8,1.8,0,0,1-2.31-.17,1.94,1.94,0,0,1-.53-1.44,2,2,0,0,1,.51-1.4A1.56,1.56,0,0,1,40,30.92a1.64,1.64,0,0,1,1.27.53,2,2,0,0,1,.45,1.33,1.31,1.31,0,0,1,0,.17H38.81v0a1.42,1.42,0,0,0,.39,1,1.3,1.3,0,0,0,1.72.12A1.29,1.29,0,0,0,41.33,33.52Zm-2.5-1h2.45a1.28,1.28,0,0,0-.34-.88,1.26,1.26,0,0,0-1.74,0A1.36,1.36,0,0,0,38.83,32.57Z"/><path class="g" d="M43.2,34.7h-.46V29.13h.46v2.6a1.31,1.31,0,0,1,.45-.54,1.64,1.64,0,0,1,2.11.29,2,2,0,0,1,.44,1.37,2,2,0,0,1-.45,1.38,1.54,1.54,0,0,1-1.23.57A1.41,1.41,0,0,1,43.2,34ZM45.38,34a1.67,1.67,0,0,0,.35-1.1,1.61,1.61,0,0,0-.35-1.09,1.13,1.13,0,0,0-.92-.42,1.1,1.1,0,0,0-.91.42,1.65,1.65,0,0,0-.36,1.09,1.67,1.67,0,0,0,.36,1.1,1.09,1.09,0,0,0,.91.44A1.12,1.12,0,0,0,45.38,34Z"/><path class="g" d="M52.1,33a1.22,1.22,0,0,1-1,.55.77.77,0,0,1-.51-.17.63.63,0,0,1-.22-.44,1,1,0,0,1-1,.61,1,1,0,0,1-.8-.35,1.31,1.31,0,0,1-.33-.94,1.82,1.82,0,0,1,.43-1.22,1.36,1.36,0,0,1,1.05-.51,1,1,0,0,1,.56.16.72.72,0,0,1,.3.46l.09-.53h.4l-.39,1.93c0,.14,0,.21,0,.21,0,.29.14.44.42.44a.83.83,0,0,0,.69-.47,2,2,0,0,0,.32-1.13,2.09,2.09,0,0,0-.61-1.49,2.32,2.32,0,0,0-1.72-.66,2.43,2.43,0,0,0-1.79.74,2.63,2.63,0,0,0-.73,1.9A2.48,2.48,0,0,0,48,34a2.76,2.76,0,0,0,3.71,0l.21.26a2.77,2.77,0,0,1-.91.6,3.54,3.54,0,0,1-1.12.2,3,3,0,0,1-2.16-.81,2.85,2.85,0,0,1-.83-2.1A2.94,2.94,0,0,1,47.75,30a2.86,2.86,0,0,1,2.06-.85,2.75,2.75,0,0,1,2,.76,2.35,2.35,0,0,1,.74,1.74A2.3,2.3,0,0,1,52.1,33Zm-1.86-.28a2.13,2.13,0,0,0,.26-1,.84.84,0,0,0-.19-.59.68.68,0,0,0-.55-.22.91.91,0,0,0-.74.39,1.4,1.4,0,0,0-.31.92,1.12,1.12,0,0,0,.19.68.66.66,0,0,0,.58.29A.87.87,0,0,0,50.24,32.76Z"/><path class="g" d="M53.94,34.7h-.47V29.13h.47Z"/><path class="g" d="M57.92,33.52l.41.14a1.65,1.65,0,0,1-.56.8,1.8,1.8,0,0,1-2.31-.17,1.94,1.94,0,0,1-.53-1.44,2.07,2.07,0,0,1,.5-1.4,1.59,1.59,0,0,1,1.2-.53,1.64,1.64,0,0,1,1.27.53,2,2,0,0,1,.45,1.33,1.31,1.31,0,0,1,0,.17H55.4v0a1.42,1.42,0,0,0,.39,1,1.3,1.3,0,0,0,1.72.12A1.29,1.29,0,0,0,57.92,33.52Zm-2.5-1h2.45a1.28,1.28,0,0,0-.34-.88,1.26,1.26,0,0,0-1.74,0A1.36,1.36,0,0,0,55.42,32.57Z"/><path class="g" d="M61.34,31h.49l1.1,3.11,1-3.11h.49L63.18,34.7h-.5l-1.11-3.11L60.48,34.7H60L58.75,31h.51l1,3.11Z"/><path class="g" d="M65.21,34.47a.9.9,0,0,1-.32-.72q0-.89,1.11-1.08l1-.15q.39-.08.39-.36a.79.79,0,0,0-.24-.61,1,1,0,0,0-.69-.23,1.08,1.08,0,0,0-.71.23.91.91,0,0,0-.31.64l-.45-.1a1.22,1.22,0,0,1,.47-.85,1.58,1.58,0,0,1,1-.32,1.44,1.44,0,0,1,1,.37,1.27,1.27,0,0,1,.34.91v1.87a4.23,4.23,0,0,0,0,.63h-.45a3,3,0,0,1,0-.63,1.21,1.21,0,0,1-.46.49,1.45,1.45,0,0,1-.83.24A1.24,1.24,0,0,1,65.21,34.47Zm.16-.74a.62.62,0,0,0,.21.47.77.77,0,0,0,.58.2,1.2,1.2,0,0,0,.87-.32,1.15,1.15,0,0,0,.34-.88v-.44a.74.74,0,0,1-.19.08l-.3.07-.81.12C65.6,33.1,65.37,33.33,65.37,33.73Z"/><path class="g" d="M68.71,34.91l.43-.11a1.18,1.18,0,0,0,.38.75,1.16,1.16,0,0,0,.81.31,1.14,1.14,0,0,0,1-.42,1.63,1.63,0,0,0,.27-1v-.68a1.14,1.14,0,0,1-.43.51,1.34,1.34,0,0,1-.81.23A1.52,1.52,0,0,1,69.17,34a1.74,1.74,0,0,1-.46-1.27,1.84,1.84,0,0,1,.45-1.27,1.54,1.54,0,0,1,1.19-.51,1.42,1.42,0,0,1,.8.21,1.15,1.15,0,0,1,.45.53V31h.46v3.41a2.08,2.08,0,0,1-.36,1.25,1.63,1.63,0,0,1-1.38.59,1.68,1.68,0,0,1-1.11-.38A1.46,1.46,0,0,1,68.71,34.91Zm.81-1.2a1.14,1.14,0,0,0,.89.39,1.12,1.12,0,0,0,.88-.39,1.48,1.48,0,0,0,.33-1,1.45,1.45,0,0,0-.33-1,1.12,1.12,0,0,0-.88-.39,1.13,1.13,0,0,0-.89.38,1.44,1.44,0,0,0-.34,1A1.4,1.4,0,0,0,69.52,33.71Z"/><path class="g" d="M73.5,31.46a1.69,1.69,0,0,1,1.28-.54,1.73,1.73,0,0,1,1.29.54,2,2,0,0,1,.52,1.41,1.9,1.9,0,0,1-.52,1.39,1.73,1.73,0,0,1-1.29.54,1.69,1.69,0,0,1-1.27-.54A1.89,1.89,0,0,1,73,32.87,1.94,1.94,0,0,1,73.5,31.46ZM73.85,34a1.25,1.25,0,0,0,.93.4,1.27,1.27,0,0,0,.94-.4,1.57,1.57,0,0,0,.4-1.12,1.59,1.59,0,0,0-.4-1.13,1.23,1.23,0,0,0-.94-.39,1.21,1.21,0,0,0-.93.39,1.6,1.6,0,0,0-.41,1.13A1.58,1.58,0,0,0,73.85,34Z"/><path class="g" d="M78.05,32.5v2.2h-.47V31H78v.63a1.38,1.38,0,0,1,2.18-.32,1.45,1.45,0,0,1,.32,1v2.4h-.46V32.38a1.05,1.05,0,0,0-.24-.73,1,1,0,0,0-.76-.3,1,1,0,0,0-.75.34A1.24,1.24,0,0,0,78.05,32.5Z"/><path class="g" d="M82.09,34.74a.36.36,0,0,1-.28-.12.38.38,0,0,1-.12-.29.4.4,0,0,1,.12-.29.36.36,0,0,1,.28-.12.37.37,0,0,1,.29.12.4.4,0,0,1,.12.29.38.38,0,0,1-.12.29A.37.37,0,0,1,82.09,34.74Z"/><path class="g" d="M85.81,31.63a1.15,1.15,0,0,0-.8-.28,1.19,1.19,0,0,0-.94.4,1.61,1.61,0,0,0-.4,1.12,1.55,1.55,0,0,0,.4,1.1,1.29,1.29,0,0,0,1.76.12,1.34,1.34,0,0,0,.38-.61l.41.17a1.58,1.58,0,0,1-.54.79,1.79,1.79,0,0,1-2.36-.18,1.94,1.94,0,0,1-.52-1.39,2,2,0,0,1,.52-1.41A1.73,1.73,0,0,1,85,30.92a1.65,1.65,0,0,1,1.06.35,1.57,1.57,0,0,1,.51.81l-.4.17A1.49,1.49,0,0,0,85.81,31.63Z"/><path class="g" d="M87.72,31.46A1.69,1.69,0,0,1,89,30.92a1.73,1.73,0,0,1,1.29.54,2,2,0,0,1,.52,1.41,1.9,1.9,0,0,1-.52,1.39A1.73,1.73,0,0,1,89,34.8a1.69,1.69,0,0,1-1.27-.54,1.89,1.89,0,0,1-.54-1.39A1.94,1.94,0,0,1,87.72,31.46ZM88.07,34a1.25,1.25,0,0,0,.93.4,1.27,1.27,0,0,0,.94-.4,1.57,1.57,0,0,0,.4-1.12,1.59,1.59,0,0,0-.4-1.13,1.23,1.23,0,0,0-.94-.39,1.21,1.21,0,0,0-.93.39,1.59,1.59,0,0,0-.4,1.13A1.57,1.57,0,0,0,88.07,34Z"/><path class="g" d="M92.26,34.7H91.8V31h.45v.61a1.13,1.13,0,0,1,.45-.5,1.32,1.32,0,0,1,.72-.2,1.25,1.25,0,0,1,.75.22,1.1,1.1,0,0,1,.41.61,1.27,1.27,0,0,1,1.27-.83,1.29,1.29,0,0,1,.91.35,1.39,1.39,0,0,1,.36,1V34.7h-.46V32.33a1,1,0,0,0-.25-.71.85.85,0,0,0-.69-.28,1,1,0,0,0-.74.32,1.17,1.17,0,0,0-.29.79V34.7h-.46V32.33a1,1,0,0,0-.25-.72.87.87,0,0,0-.69-.27,1,1,0,0,0-.75.32,1.16,1.16,0,0,0-.28.79Z"/><path class="g" d="M26.76,48.87l-1,.29a1.06,1.06,0,0,0-.3-.53.93.93,0,0,0-.7-.24.91.91,0,0,0-.62.21.61.61,0,0,0-.23.49c0,.33.19.54.59.61l.76.15a2,2,0,0,1,1.13.58,1.47,1.47,0,0,1,.4,1,1.6,1.6,0,0,1-.53,1.19,2,2,0,0,1-1.44.51,2.76,2.76,0,0,1-.94-.16,1.77,1.77,0,0,1-.67-.41,2.27,2.27,0,0,1-.4-.55,1.79,1.79,0,0,1-.17-.6l1-.26a1.09,1.09,0,0,0,.34.73,1.16,1.16,0,0,0,.85.3,1.08,1.08,0,0,0,.66-.19.61.61,0,0,0,.23-.49.58.58,0,0,0-.17-.41,1,1,0,0,0-.49-.24l-.77-.15a1.9,1.9,0,0,1-1.05-.55,1.45,1.45,0,0,1-.38-1,1.55,1.55,0,0,1,.56-1.22,1.94,1.94,0,0,1,1.34-.49,2.49,2.49,0,0,1,.85.13,1.78,1.78,0,0,1,.59.35,2,2,0,0,1,.35.45A2.22,2.22,0,0,1,26.76,48.87Z"/><path class="g" d="M30,53a2.22,2.22,0,0,1,0-.41.85.85,0,0,1-.43.38,1.47,1.47,0,0,1-.62.13,1.32,1.32,0,0,1-1.05-.43,1.52,1.52,0,0,1-.39-1.07v-2.4h1v2.19a.91.91,0,0,0,.17.56.66.66,0,0,0,.52.21.69.69,0,0,0,.53-.21.79.79,0,0,0,.19-.54V49.24h1v3.11q0,.36,0,.69Z"/><path class="g" d="M33.08,53h-1V47.45h1v2.21a1.06,1.06,0,0,1,.45-.37,1.57,1.57,0,0,1,.7-.15,1.59,1.59,0,0,1,1.28.56,2.33,2.33,0,0,1,0,2.86,1.63,1.63,0,0,1-1.3.57,1.21,1.21,0,0,1-1.12-.55Zm1.62-1.12a1.1,1.1,0,0,0,.27-.79,1.13,1.13,0,0,0-.27-.79,1,1,0,0,0-1.35,0,1.13,1.13,0,0,0-.27.79,1.1,1.1,0,0,0,.27.79.87.87,0,0,0,.68.29A.85.85,0,0,0,34.7,51.92Z"/><path class="g" d="M36.81,53.27v-4h1v4.13a1.24,1.24,0,0,1-.32.9,1.12,1.12,0,0,1-.87.35,1.75,1.75,0,0,1-.58-.08v-.86a1.27,1.27,0,0,0,.32,0A.39.39,0,0,0,36.81,53.27Zm.06-4.84a.56.56,0,0,1-.19-.44.61.61,0,0,1,.19-.45.58.58,0,0,1,.45-.19.58.58,0,0,1,.44.19A.58.58,0,0,1,38,48a.56.56,0,0,1-.19.44.62.62,0,0,1-.89,0Z"/><path class="g" d="M41.48,51.7l.85.25a1.64,1.64,0,0,1-.6.87,1.87,1.87,0,0,1-1.13.34,1.95,1.95,0,0,1-2-2,2,2,0,0,1,.56-1.44,2,2,0,0,1,2.69,0,2,2,0,0,1,.5,1.44.71.71,0,0,1,0,.14v.18H39.65A.88.88,0,0,0,40,52a1,1,0,0,0,.66.24A.84.84,0,0,0,41.48,51.7Zm-1.8-1h1.7a.83.83,0,0,0-.23-.54.85.85,0,0,0-.62-.21.81.81,0,0,0-.6.23A.76.76,0,0,0,39.68,50.71Z"/><path class="g" d="M44.9,50.07a.91.91,0,0,0-.68.29,1.23,1.23,0,0,0,0,1.56.91.91,0,0,0,.69.29.83.83,0,0,0,.58-.19.92.92,0,0,0,.3-.45l.9.3a1.76,1.76,0,0,1-1.78,1.29,2,2,0,0,1-1.42-.58,1.92,1.92,0,0,1-.58-1.44,2,2,0,0,1,.57-1.44,1.91,1.91,0,0,1,1.4-.57,1.82,1.82,0,0,1,1.19.37,1.67,1.67,0,0,1,.6.91l-.92.31A.82.82,0,0,0,44.9,50.07Z"/><path class="g" d="M48.71,48.11v1.13h.77v.91h-.77v1.59a.38.38,0,0,0,.45.44,1.33,1.33,0,0,0,.32,0V53a1.61,1.61,0,0,1-.58.09,1.2,1.2,0,0,1-.88-.31,1.12,1.12,0,0,1-.33-.86V50.15H47v-.91h.19a.54.54,0,0,0,.43-.16.65.65,0,0,0,.15-.44v-.53Z"/><path class="g" d="M50.53,50.37a.7.7,0,0,1,0-1,.66.66,0,0,1,.49-.2.66.66,0,0,1,.5.2.7.7,0,0,1-1,1Zm0,2.52a.66.66,0,0,1-.2-.48.68.68,0,0,1,.2-.49.67.67,0,0,1,.49-.21.69.69,0,0,1,.5.21.68.68,0,0,1,.2.49.66.66,0,0,1-.2.48.68.68,0,0,1-.5.2A.66.66,0,0,1,50.54,52.89Z"/><path class="g" d="M54.44,50.31a2.72,2.72,0,0,1,.83-2.07,2.89,2.89,0,0,1,4,0,3,3,0,0,1,0,4.13,2.89,2.89,0,0,1-4,0A2.73,2.73,0,0,1,54.44,50.31ZM56.05,49a2,2,0,0,0,0,2.7,1.77,1.77,0,0,0,2.4,0,2,2,0,0,0,0-2.7,1.77,1.77,0,0,0-2.4,0Z"/><path class="g" d="M63.4,53a2.22,2.22,0,0,1,0-.41.87.87,0,0,1-.44.38,1.39,1.39,0,0,1-.61.13,1.34,1.34,0,0,1-1.06-.43,1.56,1.56,0,0,1-.38-1.07v-2.4h1v2.19a.86.86,0,0,0,.18.56.64.64,0,0,0,.52.21.66.66,0,0,0,.52-.21.75.75,0,0,0,.2-.54V49.24h1v3.11c0,.24,0,.47,0,.69Z"/><path class="g" d="M67.76,49.23v1l-.31,0a1,1,0,0,0-.71.25,1.08,1.08,0,0,0-.27.82V53h-1v-3.8h1v.56a1.07,1.07,0,0,1,1.08-.59A1.25,1.25,0,0,1,67.76,49.23Z"/><path class="g" d="M72.52,49.24H73.6l.82,2.45.7-2.45h1L75,53h-1L73,50.45,72.16,53h-1l-1.21-3.8H71l.7,2.44Z"/><path class="g" d="M79.23,51.7l.85.25a1.64,1.64,0,0,1-.6.87,1.86,1.86,0,0,1-1.12.34A1.92,1.92,0,0,1,77,52.6a2,2,0,0,1-.58-1.48A2,2,0,0,1,77,49.68a2,2,0,0,1,2.69,0,2,2,0,0,1,.5,1.44v.14a.66.66,0,0,0,0,.13v0H77.41a.83.83,0,0,0,.29.62,1,1,0,0,0,.66.24A.84.84,0,0,0,79.23,51.7Zm-1.8-1h1.7a.83.83,0,0,0-.23-.54.85.85,0,0,0-.62-.21.81.81,0,0,0-.6.23A.76.76,0,0,0,77.43,50.71Z"/><path class="g" d="M82,53H81V47.45h1v2.21a1,1,0,0,1,.44-.37,1.61,1.61,0,0,1,.71-.15,1.59,1.59,0,0,1,1.28.56,2.37,2.37,0,0,1,0,2.86,1.63,1.63,0,0,1-1.3.57A1.21,1.21,0,0,1,82,52.58Zm1.62-1.12a1.1,1.1,0,0,0,.27-.79,1.13,1.13,0,0,0-.27-.79,1,1,0,0,0-1.35,0,1.13,1.13,0,0,0-.27.79,1.1,1.1,0,0,0,.27.79.93.93,0,0,0,1.35,0Z"/><path class="g" d="M85.35,52l.88-.19a.6.6,0,0,0,.2.41.7.7,0,0,0,.5.17.6.6,0,0,0,.37-.11.35.35,0,0,0,.13-.27c0-.19-.14-.32-.41-.37l-.5-.12a1.36,1.36,0,0,1-.8-.41,1.06,1.06,0,0,1-.27-.72,1.13,1.13,0,0,1,.41-.88,1.45,1.45,0,0,1,1-.36,1.8,1.8,0,0,1,.68.11,1.2,1.2,0,0,1,.46.28,1.69,1.69,0,0,1,.24.35,1,1,0,0,1,.11.35l-.86.19a.62.62,0,0,0-.18-.35.61.61,0,0,0-.44-.16.53.53,0,0,0-.34.11.33.33,0,0,0-.15.27c0,.19.12.3.35.34l.54.12a1.59,1.59,0,0,1,.84.42,1.08,1.08,0,0,1,.29.74,1.16,1.16,0,0,1-.39.88,1.5,1.5,0,0,1-1.09.38,2,2,0,0,1-.71-.12,1.22,1.22,0,0,1-.49-.31,1.68,1.68,0,0,1-.27-.38A1.4,1.4,0,0,1,85.35,52Z"/><path class="g" d="M89.11,48a.58.58,0,0,1,.19-.45.58.58,0,0,1,.44-.19.61.61,0,0,1,.45.18.66.66,0,0,1,.19.46.63.63,0,0,1-.19.44.61.61,0,0,1-.45.18.6.6,0,0,1-.44-.18A.59.59,0,0,1,89.11,48Zm1.15,5h-1v-3.8h1Z"/><path class="g" d="M92.62,48.11v1.13h.77v.91h-.77v1.59a.46.46,0,0,0,.11.34.48.48,0,0,0,.34.1,1.33,1.33,0,0,0,.32,0V53a1.61,1.61,0,0,1-.58.09,1.2,1.2,0,0,1-.88-.31,1.12,1.12,0,0,1-.33-.86V50.15h-.68v-.91h.19a.58.58,0,0,0,.44-.16.65.65,0,0,0,.15-.44v-.53Z"/><path class="g" d="M96.77,51.7l.85.25a1.64,1.64,0,0,1-.6.87,1.86,1.86,0,0,1-1.12.34,1.92,1.92,0,0,1-1.39-.56,2,2,0,0,1-.58-1.48,2,2,0,0,1,.56-1.44,2,2,0,0,1,2.69,0,2,2,0,0,1,.5,1.44v.14a.66.66,0,0,0,0,.13v0H95a.83.83,0,0,0,.29.62,1,1,0,0,0,.66.24A.84.84,0,0,0,96.77,51.7Zm-1.8-1h1.7a.83.83,0,0,0-.23-.54.85.85,0,0,0-.62-.21.81.81,0,0,0-.6.23A.76.76,0,0,0,95,50.71Z"/><path class="g" d="M100.27,48a.62.62,0,0,1,.19-.45.58.58,0,0,1,.45-.19.6.6,0,0,1,.44.18.62.62,0,0,1,.19.46.59.59,0,0,1-.19.44.6.6,0,0,1-.44.18.61.61,0,0,1-.45-.18A.63.63,0,0,1,100.27,48Zm1.15,5h-1v-3.8h1Z"/><path class="g" d="M102.2,52l.88-.19a.59.59,0,0,0,.19.41.72.72,0,0,0,.5.17.58.58,0,0,0,.37-.11.32.32,0,0,0,.13-.27c0-.19-.13-.32-.41-.37l-.5-.12a1.42,1.42,0,0,1-.8-.41,1.1,1.1,0,0,1-.26-.72,1.12,1.12,0,0,1,.4-.88,1.48,1.48,0,0,1,1-.36,1.83,1.83,0,0,1,.68.11,1.24,1.24,0,0,1,.45.28,1.77,1.77,0,0,1,.25.35,1.28,1.28,0,0,1,.11.35l-.86.19a.62.62,0,0,0-.18-.35.61.61,0,0,0-.45-.16.58.58,0,0,0-.34.11.35.35,0,0,0-.14.27c0,.19.11.3.35.34l.54.12a1.59,1.59,0,0,1,.83.42,1,1,0,0,1,.29.74,1.19,1.19,0,0,1-.38.88,1.5,1.5,0,0,1-1.09.38,2,2,0,0,1-.72-.12,1.38,1.38,0,0,1-.49-.31,1.61,1.61,0,0,1-.26-.38A1.11,1.11,0,0,1,102.2,52Z"/><path class="g" d="M108.27,49.7a1.92,1.92,0,0,1,1.42-.57,1.94,1.94,0,0,1,1.43.57,2.13,2.13,0,0,1,0,2.88,2,2,0,0,1-1.43.58,1.93,1.93,0,0,1-1.42-.58,2.1,2.1,0,0,1,0-2.88Zm.74,2.24a.91.91,0,0,0,.68.28.94.94,0,0,0,.69-.28,1.13,1.13,0,0,0,.28-.8,1.14,1.14,0,0,0-.28-.8.94.94,0,0,0-.69-.28.91.91,0,0,0-.68.28,1.1,1.1,0,0,0-.28.8A1.08,1.08,0,0,0,109,51.94Z"/><path class="g" d="M113.52,50.85V53h-1v-3.8h1v.47a1,1,0,0,1,.46-.42,1.43,1.43,0,0,1,.64-.15,1.26,1.26,0,0,1,1,.42,1.66,1.66,0,0,1,.35,1.09V53h-1V50.82a.78.78,0,0,0-.17-.54.65.65,0,0,0-.53-.21.66.66,0,0,0-.52.22A.88.88,0,0,0,113.52,50.85Z"/><path class="g" d="M118,53h-1V47.45h1Z"/><path class="g" d="M119,48a.65.65,0,0,1,.64-.64.6.6,0,0,1,.44.18.62.62,0,0,1,.19.46.59.59,0,0,1-.19.44.6.6,0,0,1-.44.18.61.61,0,0,1-.45-.18A.59.59,0,0,1,119,48Zm1.15,5h-1v-3.8h1Z"/><path class="g" d="M122.28,50.85V53h-1v-3.8h1v.47a1,1,0,0,1,.46-.42,1.39,1.39,0,0,1,.63-.15,1.24,1.24,0,0,1,1,.42,1.61,1.61,0,0,1,.36,1.09V53h-1V50.82a.83.83,0,0,0-.17-.54.66.66,0,0,0-.53-.21.65.65,0,0,0-.52.22A.83.83,0,0,0,122.28,50.85Z"/><path class="g" d="M128.31,51.7l.85.25a1.64,1.64,0,0,1-.6.87,1.87,1.87,0,0,1-1.13.34,1.93,1.93,0,0,1-2-2,2,2,0,0,1,.56-1.44,2,2,0,0,1,2.69,0,2,2,0,0,1,.5,1.44.71.71,0,0,1,0,.14v.18h-2.72a.84.84,0,0,0,.3.62,1,1,0,0,0,.66.24A.84.84,0,0,0,128.31,51.7Zm-1.8-1h1.7a.83.83,0,0,0-.23-.54,1,1,0,0,0-1.23,0A.79.79,0,0,0,126.51,50.71Z"/><path class="g" d="M131.39,47.57l-.25,3.8h-.75l-.25-3.8Zm-1,5.35a.58.58,0,0,1-.18-.43.62.62,0,0,1,.18-.44.58.58,0,0,1,.42-.18.6.6,0,0,1,.44.18.62.62,0,0,1,.18.44.58.58,0,0,1-.18.43.6.6,0,0,1-.44.18A.58.58,0,0,1,130.34,52.92Z"/><path class="h" d="M25.37,87.06H23.23V80.91h2.15a2.87,2.87,0,0,1,2.09.82A3,3,0,0,1,28.31,84a2.85,2.85,0,0,1-2.94,3.06Zm-1.29-.75h1.26a2,2,0,0,0,1.5-.6A2.35,2.35,0,0,0,27.43,84a2.38,2.38,0,0,0-.58-1.73,2,2,0,0,0-1.49-.61H24.08Z"/><path class="h" d="M32.33,85.63l.7.24a1.79,1.79,0,0,1-.67.95,1.93,1.93,0,0,1-1.2.37,2,2,0,0,1-1.49-.6,2.45,2.45,0,0,1,0-3.21,1.85,1.85,0,0,1,1.4-.63,1.87,1.87,0,0,1,1.48.6,2.33,2.33,0,0,1,.53,1.59,1,1,0,0,1,0,.26H29.9a1.26,1.26,0,0,0,.37.92,1.25,1.25,0,0,0,.89.35A1.13,1.13,0,0,0,32.33,85.63Zm-2.4-1.09h2.28a1.1,1.1,0,0,0-.31-.76,1.14,1.14,0,0,0-.84-.3,1.09,1.09,0,0,0-.8.31A1.12,1.12,0,0,0,29.93,84.54Z"/><path class="h" d="M33.84,85.94a1.13,1.13,0,0,1,.35-.86,1.67,1.67,0,0,1,.92-.41l1.13-.16c.21,0,.32-.13.32-.31a.71.71,0,0,0-.23-.54.94.94,0,0,0-.67-.21.89.89,0,0,0-.95.84l-.78-.18a1.35,1.35,0,0,1,.55-1,1.84,1.84,0,0,1,1.16-.38,1.79,1.79,0,0,1,1.31.43,1.53,1.53,0,0,1,.43,1.1v2.1a3.62,3.62,0,0,0,0,.68h-.8a3.28,3.28,0,0,1,0-.56,1.55,1.55,0,0,1-1.35.69,1.4,1.4,0,0,1-1-.37A1.16,1.16,0,0,1,33.84,85.94Zm1.51.57a1.25,1.25,0,0,0,.88-.3,1.21,1.21,0,0,0,.33-.94v-.19l-1.28.19a.86.86,0,0,0-.44.2.62.62,0,0,0,0,.85A.66.66,0,0,0,35.35,86.51Z"/><path class="h" d="M41,82.84v.87l-.35,0c-.77,0-1.15.43-1.15,1.29v2.09h-.82V82.88h.8v.73a1.29,1.29,0,0,1,1.25-.79A1.14,1.14,0,0,1,41,82.84Z"/><path class="h" d="M48,82.3l-.77.27a1.26,1.26,0,0,0-.39-.72,1.39,1.39,0,0,0-1.76,0,.91.91,0,0,0-.34.73.88.88,0,0,0,.2.57,1.06,1.06,0,0,0,.59.32l.92.2a2.2,2.2,0,0,1,1.18.62,1.58,1.58,0,0,1,.42,1.11,1.67,1.67,0,0,1-.59,1.28,2.21,2.21,0,0,1-1.54.54,2.3,2.3,0,0,1-1.62-.54,2.05,2.05,0,0,1-.68-1.29l.81-.26a1.51,1.51,0,0,0,.44.94,1.41,1.41,0,0,0,1,.38,1.39,1.39,0,0,0,.94-.28.87.87,0,0,0,.33-.7.85.85,0,0,0-.24-.6,1.2,1.2,0,0,0-.68-.36l-.88-.19a2,2,0,0,1-1.09-.58,1.52,1.52,0,0,1-.41-1.1,1.7,1.7,0,0,1,.59-1.28,2.29,2.29,0,0,1,2.89-.09A2,2,0,0,1,48,82.3Z"/><path class="h" d="M52,85.63l.71.24a1.87,1.87,0,0,1-.68.95,1.93,1.93,0,0,1-1.2.37,2,2,0,0,1-1.49-.6,2.45,2.45,0,0,1,0-3.21,2,2,0,0,1,2.88,0,2.28,2.28,0,0,1,.53,1.59,1,1,0,0,1,0,.26H49.57a1.3,1.3,0,0,0,.37.92,1.25,1.25,0,0,0,.89.35A1.12,1.12,0,0,0,52,85.63Zm-2.4-1.09h2.28a1.1,1.1,0,0,0-.31-.76,1.14,1.14,0,0,0-.84-.3,1.09,1.09,0,0,0-.8.31A1.12,1.12,0,0,0,49.6,84.54Z"/><path class="h" d="M54.58,87.06h-.81V80.77h.81v2.71a1.25,1.25,0,0,1,.53-.51,1.65,1.65,0,0,1,.85-.21,1.74,1.74,0,0,1,1.42.62,2.72,2.72,0,0,1,0,3.17,1.75,1.75,0,0,1-1.42.63,1.44,1.44,0,0,1-1.36-.73Zm2.13-1A1.69,1.69,0,0,0,57.05,85a1.56,1.56,0,0,0-.34-1.07,1.12,1.12,0,0,0-.9-.4,1.15,1.15,0,0,0-.89.4,1.83,1.83,0,0,0,0,2.15,1.1,1.1,0,0,0,.89.42A1.13,1.13,0,0,0,56.71,86Z"/><path class="h" d="M58.71,86.51a.54.54,0,0,1,.18-.41.61.61,0,0,1,.45-.18.68.68,0,0,1,.5.22.85.85,0,0,1,.2.61,1.7,1.7,0,0,1-.4,1.21,1.44,1.44,0,0,1-.88.48V88a.81.81,0,0,0,.51-.34,1.09,1.09,0,0,0,.21-.6.31.31,0,0,1-.19,0,.61.61,0,0,1-.42-.16A.57.57,0,0,1,58.71,86.51Z"/><path class="h" d="M25.9,112.28a3,3,0,0,1-2.16-.87,3.09,3.09,0,0,1-.9-2.34,3.32,3.32,0,0,1,.45-1.74,2.89,2.89,0,0,1,1.14-1.11,3.1,3.1,0,0,1,1.47-.36,2.86,2.86,0,0,1,1.75.53,2.45,2.45,0,0,1,1,1.43l-.79.28a1.85,1.85,0,0,0-.66-1.08,2,2,0,0,0-1.25-.37,2.13,2.13,0,0,0-1.55.63,2.82,2.82,0,0,0,0,3.58,2.1,2.1,0,0,0,1.55.64,1.91,1.91,0,0,0,1.25-.4,2.08,2.08,0,0,0,.71-1.08l.75.28a2.63,2.63,0,0,1-1,1.44A2.85,2.85,0,0,1,25.9,112.28Z"/><path class="h" d="M29.74,108.47a2.17,2.17,0,0,1,3.06,0,2.18,2.18,0,0,1,.61,1.59,2.21,2.21,0,0,1-.6,1.59,2.2,2.2,0,0,1-3.08,0,2.42,2.42,0,0,1,0-3.18Zm.61,2.69a1.23,1.23,0,0,0,.92.39,1.25,1.25,0,0,0,.93-.39,1.54,1.54,0,0,0,.37-1.1A1.52,1.52,0,0,0,32.2,109a1.26,1.26,0,0,0-.93-.4,1.24,1.24,0,0,0-.92.4,1.48,1.48,0,0,0-.38,1.09A1.5,1.5,0,0,0,30.35,111.16Z"/><path class="h" d="M35.26,112.15h-.81V108h.78v.56a1.24,1.24,0,0,1,.54-.5,1.55,1.55,0,0,1,.73-.18,1.5,1.5,0,0,1,.75.2,1.26,1.26,0,0,1,.5.59,1.5,1.5,0,0,1,1.4-.79,1.42,1.42,0,0,1,1,.41,1.57,1.57,0,0,1,.42,1.18v2.71h-.81v-2.62a1,1,0,0,0-.22-.69.81.81,0,0,0-.66-.27.89.89,0,0,0-.7.3,1.09,1.09,0,0,0-.27.76v2.52h-.81v-2.62a1,1,0,0,0-.23-.69.78.78,0,0,0-.66-.27.89.89,0,0,0-.7.3,1.09,1.09,0,0,0-.27.76Z"/><path class="h" d="M44.83,110.72l.7.24a1.81,1.81,0,0,1-.68,1,1.9,1.9,0,0,1-1.19.37,2,2,0,0,1-1.49-.6,2.18,2.18,0,0,1-.61-1.63,2.22,2.22,0,0,1,.58-1.58,2,2,0,0,1,2.89,0,2.33,2.33,0,0,1,.53,1.59,1.72,1.72,0,0,1,0,.26H42.4a1.26,1.26,0,0,0,.37.92,1.23,1.23,0,0,0,.89.35A1.13,1.13,0,0,0,44.83,110.72Zm-2.41-1.09h2.29a1.06,1.06,0,0,0-.32-.76,1.24,1.24,0,0,0-1.63,0A1.14,1.14,0,0,0,42.42,109.63Z"/><path class="h" d="M48.51,111a1.11,1.11,0,0,1,.35-.86,1.67,1.67,0,0,1,.92-.41l1.13-.16c.21,0,.32-.13.32-.31a.71.71,0,0,0-.23-.54.94.94,0,0,0-.67-.21.89.89,0,0,0-.95.84l-.78-.18a1.37,1.37,0,0,1,.54-1,1.89,1.89,0,0,1,1.17-.38,1.79,1.79,0,0,1,1.31.43,1.53,1.53,0,0,1,.43,1.1v2.1a3.69,3.69,0,0,0,.05.68h-.8a3.28,3.28,0,0,1,0-.56,1.55,1.55,0,0,1-1.35.69,1.4,1.4,0,0,1-1-.37A1.16,1.16,0,0,1,48.51,111Zm1.51.57a1.25,1.25,0,0,0,.88-.3,1.21,1.21,0,0,0,.33-.94v-.19l-1.28.19a.86.86,0,0,0-.44.2.58.58,0,0,0-.17.43.59.59,0,0,0,.19.42A.66.66,0,0,0,50,111.6Z"/><path class="h" d="M54.13,109.74v2.41h-.82V108h.8v.6a1.54,1.54,0,0,1,2.4-.26,1.84,1.84,0,0,1,.38,1.19v2.65h-.81v-2.51c0-.7-.33-1-1-1a.85.85,0,0,0-.71.33A1.28,1.28,0,0,0,54.13,109.74Z"/><path class="h" d="M61.12,111.59v-.07a1.41,1.41,0,0,1-.5.53,1.46,1.46,0,0,1-.79.22,1.8,1.8,0,0,1-1.44-.63,2.36,2.36,0,0,1-.54-1.59,2.28,2.28,0,0,1,.55-1.55,1.83,1.83,0,0,1,1.43-.64,1.48,1.48,0,0,1,.83.21,1.05,1.05,0,0,1,.44.5v-2.71h.81v5.52c0,.28,0,.54,0,.77h-.79A4.45,4.45,0,0,1,61.12,111.59Zm-2.44-1.54a1.7,1.7,0,0,0,.33,1.08,1,1,0,0,0,.89.41,1.06,1.06,0,0,0,.88-.42,1.73,1.73,0,0,0,.33-1.09,1.61,1.61,0,0,0-.32-1,1.08,1.08,0,0,0-.88-.4A1.11,1.11,0,0,0,59,109,1.59,1.59,0,0,0,58.68,110.05Z"/><path class="h" d="M69.05,108l-1.67,4.18h-.82L64.86,108h.92L67,111.2l1.2-3.23Z"/><path class="h" d="M69.82,106.81a.59.59,0,0,1-.17-.42.57.57,0,0,1,.17-.41.54.54,0,0,1,.41-.18.58.58,0,0,1,.59.59.59.59,0,0,1-.17.42.61.61,0,0,1-.42.17A.57.57,0,0,1,69.82,106.81Zm.82,5.34h-.81V108h.81Z"/><path class="h" d="M71.64,111.07l.74-.26a.83.83,0,0,0,.29.56,1,1,0,0,0,.68.22.83.83,0,0,0,.52-.16.5.5,0,0,0,.19-.4q0-.42-.54-.54l-.71-.15a1.35,1.35,0,0,1-.76-.42,1.08,1.08,0,0,1-.28-.75,1.18,1.18,0,0,1,.44-.93,1.47,1.47,0,0,1,1-.4A2,2,0,0,1,74,108a1.21,1.21,0,0,1,.48.31,1.77,1.77,0,0,1,.26.36,1.51,1.51,0,0,1,.13.33l-.72.27a.89.89,0,0,0-.06-.2,1,1,0,0,0-.13-.22.71.71,0,0,0-.27-.2,1,1,0,0,0-.41-.07.75.75,0,0,0-.5.16.5.5,0,0,0-.19.4c0,.26.16.43.48.5l.67.15a1.64,1.64,0,0,1,.86.44,1.15,1.15,0,0,1,.3.8,1.22,1.22,0,0,1-.41.89,1.51,1.51,0,0,1-1.12.4,1.79,1.79,0,0,1-1.21-.38A1.38,1.38,0,0,1,71.64,111.07Z"/><path class="h" d="M75.94,106.81a.59.59,0,0,1-.17-.42.57.57,0,0,1,.17-.41.54.54,0,0,1,.41-.18.59.59,0,0,1,.42.17.57.57,0,0,1,.17.42.55.55,0,0,1-.17.42.59.59,0,0,1-.42.17A.57.57,0,0,1,75.94,106.81Zm.82,5.34H76V108h.81Z"/><path class="h" d="M79.25,106.65V108h.9v.74h-.9v2.17a.61.61,0,0,0,.13.44.62.62,0,0,0,.45.14,1,1,0,0,0,.32,0v.7a1.71,1.71,0,0,1-.56.08,1.15,1.15,0,0,1-.85-.32,1.17,1.17,0,0,1-.31-.87v-2.3h-.8V108h.23a.61.61,0,0,0,.48-.17.72.72,0,0,0,.16-.47v-.68Z"/><path class="h" d="M86.16,111.65a1.06,1.06,0,0,1-.51.47,1.58,1.58,0,0,1-.72.16,1.43,1.43,0,0,1-1.14-.47,1.72,1.72,0,0,1-.43-1.2V108h.82v2.51a1.21,1.21,0,0,0,.23.78.83.83,0,0,0,.71.3.93.93,0,0,0,.74-.29,1.13,1.13,0,0,0,.25-.78V108h.82v3.41a6.23,6.23,0,0,0,0,.77h-.79A3.25,3.25,0,0,1,86.16,111.65Z"/><path class="h" d="M87.93,111.07l.74-.26a.93.93,0,0,0,.29.56,1,1,0,0,0,.68.22.83.83,0,0,0,.52-.16.5.5,0,0,0,.19-.4q0-.42-.54-.54l-.71-.15a1.35,1.35,0,0,1-.76-.42,1.08,1.08,0,0,1-.28-.75,1.21,1.21,0,0,1,.44-.93,1.48,1.48,0,0,1,1-.4,2,2,0,0,1,.71.12,1.14,1.14,0,0,1,.48.31,1.87,1.87,0,0,1,.27.36,2.26,2.26,0,0,1,.13.33l-.73.27a.89.89,0,0,0-.06-.2,1,1,0,0,0-.13-.22.64.64,0,0,0-.27-.2,1,1,0,0,0-.4-.07.73.73,0,0,0-.5.16.51.51,0,0,0-.2.4c0,.26.16.43.48.5l.68.15a1.61,1.61,0,0,1,.85.44,1.15,1.15,0,0,1,.3.8,1.2,1.2,0,0,1-.4.89,1.53,1.53,0,0,1-1.13.4,1.78,1.78,0,0,1-1.2-.38A1.4,1.4,0,0,1,87.93,111.07Z"/><path class="h" d="M92.5,112a.56.56,0,0,1,0-.8.57.57,0,1,1,.8.8.56.56,0,0,1-.8,0Zm.91-6-.22,4.39h-.58L92.39,106Z"/><path class="h" d="M25.9,137.37a3,3,0,0,1-2.16-.87,3.1,3.1,0,0,1-.9-2.34,3.32,3.32,0,0,1,.45-1.74,2.89,2.89,0,0,1,1.14-1.11A3.1,3.1,0,0,1,25.9,131a2.86,2.86,0,0,1,1.75.53,2.45,2.45,0,0,1,1,1.43l-.79.28a1.85,1.85,0,0,0-.66-1.08,2,2,0,0,0-1.25-.37,2.13,2.13,0,0,0-1.55.63,2.82,2.82,0,0,0,0,3.58,2.1,2.1,0,0,0,1.55.64,1.91,1.91,0,0,0,1.25-.4,2.08,2.08,0,0,0,.71-1.08l.75.28a2.63,2.63,0,0,1-1,1.44A2.85,2.85,0,0,1,25.9,137.37Z"/><path class="h" d="M30.39,134.78v2.46h-.82V131h.82v2.6a1.43,1.43,0,0,1,1.26-.61,1.4,1.4,0,0,1,1.11.46,1.79,1.79,0,0,1,.39,1.19v2.65h-.82v-2.51c0-.7-.32-1-1-1a.86.86,0,0,0-.71.31A1.33,1.33,0,0,0,30.39,134.78Z"/><path class="h" d="M37.39,135.81l.7.24a1.81,1.81,0,0,1-.68.95,1.93,1.93,0,0,1-1.2.37,2.06,2.06,0,0,1-1.49-.6,2.45,2.45,0,0,1,0-3.21,2,2,0,0,1,2.89,0,2.33,2.33,0,0,1,.52,1.59,1.93,1.93,0,0,1,0,.26H35a1.3,1.3,0,0,0,.37.92,1.25,1.25,0,0,0,.89.35A1.14,1.14,0,0,0,37.39,135.81ZM35,134.72h2.28A1.06,1.06,0,0,0,37,134a1.24,1.24,0,0,0-1.63,0A1.14,1.14,0,0,0,35,134.72Z"/><path class="h" d="M42.09,135.81l.71.24a1.87,1.87,0,0,1-.68.95,1.93,1.93,0,0,1-1.2.37,2.06,2.06,0,0,1-1.49-.6,2.18,2.18,0,0,1-.61-1.63,2.22,2.22,0,0,1,.59-1.58,2,2,0,0,1,2.88,0,2.28,2.28,0,0,1,.53,1.59,1.93,1.93,0,0,1,0,.26H39.66a1.3,1.3,0,0,0,.37.92,1.25,1.25,0,0,0,.89.35A1.12,1.12,0,0,0,42.09,135.81Zm-2.4-1.09H42a1,1,0,0,0-1.15-1.06A1,1,0,0,0,40,134,1.09,1.09,0,0,0,39.69,134.72Z"/><path class="h" d="M46.18,133v.87l-.35,0c-.77,0-1.15.43-1.15,1.29v2.09h-.82v-4.18h.8v.73a1.29,1.29,0,0,1,1.25-.79A1.14,1.14,0,0,1,46.18,133Z"/><path class="h" d="M46.66,136.16l.74-.26a.93.93,0,0,0,.29.56,1,1,0,0,0,.68.22.81.81,0,0,0,.52-.16.5.5,0,0,0,.19-.4c0-.28-.18-.46-.53-.54l-.72-.15a1.35,1.35,0,0,1-.76-.42,1.08,1.08,0,0,1-.28-.76,1.21,1.21,0,0,1,.44-.92,1.48,1.48,0,0,1,1.05-.4,2,2,0,0,1,.71.12,1.25,1.25,0,0,1,.49.31,1.6,1.6,0,0,1,.39.69l-.73.27a.76.76,0,0,0-.06-.2.74.74,0,0,0-.13-.22.64.64,0,0,0-.27-.2,1,1,0,0,0-.4-.07.73.73,0,0,0-.5.16.51.51,0,0,0-.2.4c0,.26.16.43.48.5l.68.15a1.61,1.61,0,0,1,.85.44,1.15,1.15,0,0,1,.3.8,1.2,1.2,0,0,1-.4.89,1.53,1.53,0,0,1-1.13.4,1.78,1.78,0,0,1-1.2-.38A1.4,1.4,0,0,1,46.66,136.16Z"/><path class="h" d="M27.5,144.42H25.44v5.37h-.85v-5.37H22.53v-.79h5Z"/><path class="h" d="M29.1,147.33v2.46h-.82V143.5h.82v2.6a1.43,1.43,0,0,1,1.27-.61,1.36,1.36,0,0,1,1.11.46,1.81,1.81,0,0,1,.38,1.19v2.65h-.81v-2.51c0-.7-.33-1.05-1-1.05a.87.87,0,0,0-.7.3A1.28,1.28,0,0,0,29.1,147.33Z"/><path class="h" d="M36.1,148.35l.7.25a1.83,1.83,0,0,1-.67,1,2,2,0,0,1-1.2.37,2,2,0,0,1-1.49-.61,2.16,2.16,0,0,1-.61-1.62,2.21,2.21,0,0,1,.59-1.59,1.88,1.88,0,0,1,1.4-.62,1.9,1.9,0,0,1,1.48.59,2.34,2.34,0,0,1,.53,1.6,1.84,1.84,0,0,1,0,.26H33.67a1.24,1.24,0,0,0,.37.91,1.2,1.2,0,0,0,.89.36A1.12,1.12,0,0,0,36.1,148.35Zm-2.41-1.08H36a1.05,1.05,0,0,0-1.15-1.07,1.09,1.09,0,0,0-.8.32A1.14,1.14,0,0,0,33.69,147.27Z"/><path class="h" d="M41.14,144.29v1.32H42v.74h-.9v2.17a.49.49,0,0,0,.58.57,1.51,1.51,0,0,0,.32,0v.69a1.66,1.66,0,0,1-.56.08,1.16,1.16,0,0,1-.85-.31,1.22,1.22,0,0,1-.31-.88v-2.29h-.8v-.74h.23a.62.62,0,0,0,.48-.18.65.65,0,0,0,.16-.46v-.68Z"/><path class="h" d="M46,148.35l.7.25a1.85,1.85,0,0,1-.68,1,2,2,0,0,1-1.19.37,2,2,0,0,1-1.49-.61,2.16,2.16,0,0,1-.62-1.62,2.25,2.25,0,0,1,.59-1.59,2,2,0,0,1,2.89,0,2.34,2.34,0,0,1,.53,1.6,1.84,1.84,0,0,1,0,.26H43.59a1.24,1.24,0,0,0,.37.91,1.2,1.2,0,0,0,.89.36A1.13,1.13,0,0,0,46,148.35Zm-2.41-1.08H45.9a1.06,1.06,0,0,0-1.15-1.07,1.09,1.09,0,0,0-.8.32A1.14,1.14,0,0,0,43.61,147.27Z"/><path class="h" d="M47.53,148.67a1.12,1.12,0,0,1,.35-.87,1.66,1.66,0,0,1,.92-.4l1.13-.17c.21,0,.32-.13.32-.31a.71.71,0,0,0-.23-.54,1.13,1.13,0,0,0-1.34,0,1,1,0,0,0-.28.62l-.78-.19a1.35,1.35,0,0,1,.54-1,1.89,1.89,0,0,1,1.17-.38,1.77,1.77,0,0,1,1.31.43,1.51,1.51,0,0,1,.42,1.1v2.09a3.69,3.69,0,0,0,.06.69h-.8a3.36,3.36,0,0,1,0-.57,1.47,1.47,0,0,1-.5.49,1.59,1.59,0,0,1-.84.21,1.44,1.44,0,0,1-1-.37A1.18,1.18,0,0,1,47.53,148.67Zm1.51.56a1.3,1.3,0,0,0,.88-.29,1.21,1.21,0,0,0,.33-.94v-.19L49,148a.78.78,0,0,0-.44.2.54.54,0,0,0-.17.42.59.59,0,0,0,.19.43A.67.67,0,0,0,49,149.23Z"/><path class="h" d="M53.14,149.79h-.81v-4.18h.78v.56a1.33,1.33,0,0,1,.54-.51,1.7,1.7,0,0,1,.73-.17,1.41,1.41,0,0,1,.75.2,1.22,1.22,0,0,1,.5.59,1.48,1.48,0,0,1,1.4-.79,1.38,1.38,0,0,1,1,.41,1.56,1.56,0,0,1,.42,1.18v2.71h-.81v-2.63a1,1,0,0,0-.22-.69.82.82,0,0,0-.66-.26.89.89,0,0,0-.7.3,1.08,1.08,0,0,0-.27.75v2.53H55v-2.63a1.08,1.08,0,0,0-.22-.69.84.84,0,0,0-.67-.26.92.92,0,0,0-.7.29,1.11,1.11,0,0,0-.27.77Z"/><line class="i" x1="20.58" y1="40.84" x2="149.34" y2="40.84"/><polygon class="j" points="105.64 187.42 174.26 107.17 174.26 184.52 169.41 187.42 105.64 187.42"/></symbol></defs><rect class="k" y="70" width="900" height="160"/><rect class="l" x="279" y="70" width="338.62" height="160"/><use width="174.63" height="187.78" transform="translate(323.84 14.78) scale(1.45)" xlink:href="#a"/></svg>