<svg xmlns="http://www.w3.org/2000/svg" xmlns:xlink="http://www.w3.org/1999/xlink" viewBox="0 0 900 300"><defs><style>.a,.w{fill:#fef6ea;}.a,.b,.c,.d,.f,.g,.v{stroke:#f1e5ce;}.a,.b,.c,.d,.e,.f,.g,.i,.j,.n,.o,.p,.q,.u,.v{stroke-miterlimit:10;}.a,.n,.p{stroke-width:0.75px;}.b{fill:#ed2627;}.b,.c,.d,.f,.g{stroke-width:0.5px;}.ac,.c,.q{fill:#fec75e;}.aa,.d,.o{fill:#5abd80;}.e,.y{fill:#72cee7;}.e{stroke:#e9f6fc;}.e,.o,.q,.u,.v{stroke-width:0.8px;}.f,.i,.k,.m,.v{fill:#fff;}.g,.p{fill:none;}.h,.n{fill:#f1e5ce;}.i,.j{stroke:#00a4ff;stroke-width:0.25px;}.j{fill:#00a4ff;}.l{fill:#4b4b4b;}.m{opacity:0.12;}.n{stroke:#fef6ea;}.o{stroke:#e8f4ee;}.p{stroke:#fff;}.q{stroke:#fff7e8;}.r{fill:#ff9840;}.s{fill:#ffa940;}.t{fill:#ffb740;}.ae,.u{fill:#7e73ff;}.u{stroke:#eceaff;}.x{fill:#e9f6fc;}.z{fill:#e8f4ee;}.ab{fill:#fff7e8;}.ad{fill:#eceaff;}</style><symbol id="b" viewBox="0 0 180.96 194.59"><rect class="a" x="0.38" y="0.37" width="180.21" height="193.84" rx="3"/><circle class="b" cx="5.93" cy="6.41" r="1.69"/><circle class="c" cx="11.05" cy="6.41" r="1.69"/><circle class="d" cx="16.18" cy="6.41" r="1.69"/></symbol><symbol id="a" viewBox="0 0 174.65 187.81"><use width="180.96" height="194.59" transform="translate(0.01 0.01) scale(0.96)" xlink:href="#b"/><rect class="e" x="8.82" y="26.83" width="157.01" height="151.57"/><rect class="f" x="8.82" y="15" width="157.01" height="7.31"/><path class="g" d="M162.93,18.6a1.75,1.75,0,1,1-3.35-.25,1.75,1.75,0,0,1,1-1"/><polygon class="h" points="160.83 18.07 161.45 16.93 160.2 16.6 160.83 18.07"/><rect class="i" x="32.69" y="90.11" width="73.19" height="12.51" rx="1"/><rect class="j" x="108.31" y="90.47" width="28.81" height="12.15" rx="1"/><path class="k" d="M44.91,77.28c0,3.83-2.16,6.25-5.62,6.25s-5.63-2.41-5.63-6.25S35.83,71,39.29,71,44.91,73.44,44.91,77.28Zm-9.08,0c0,2.65,1.31,4.36,3.46,4.36s3.45-1.71,3.45-4.36-1.34-4.35-3.45-4.35S35.83,74.62,35.83,77.28Z"/><path class="k" d="M47.12,74.22h2v1.44h.14A2.7,2.7,0,0,1,51.91,74c2,0,3.11,1.22,3.11,3.37v5.83H53V77.88c0-1.37-.57-2.07-1.82-2.07a1.94,1.94,0,0,0-2,2.17v5.25H47.12Z"/><path class="k" d="M57.52,70.73h2v12.5h-2Z"/><path class="k" d="M62,71.5a1.22,1.22,0,1,1,2.44,0,1.22,1.22,0,0,1-2.44,0Zm.21,2.72h2v9h-2Z"/><path class="k" d="M66.73,74.22h2v1.44h.14A2.7,2.7,0,0,1,71.52,74c2,0,3.11,1.22,3.11,3.37v5.83h-2V77.88c0-1.37-.57-2.07-1.82-2.07a1.94,1.94,0,0,0-2,2.17v5.25h-2Z"/><path class="k" d="M84.86,80.75c-.37,1.64-1.88,2.66-4,2.66-2.66,0-4.26-1.75-4.26-4.65S78.23,74,80.84,74,85,75.74,85,78.58v.66H78.66v.11a2.23,2.23,0,0,0,2.25,2.44,2,2,0,0,0,2-1Zm-6.2-2.9h4.25a2,2,0,0,0-2.08-2.19A2.15,2.15,0,0,0,78.66,77.85Z"/><path class="k" d="M94.9,74c2.15,0,3.49,1,3.64,2.59H96.62c-.15-.63-.75-1-1.71-1s-1.63.45-1.63,1.1.43.82,1.34,1l1.59.36c1.72.39,2.52,1.13,2.52,2.46,0,1.73-1.59,2.88-3.84,2.88s-3.67-1-3.83-2.61h2c.2.67.84,1.06,1.86,1.06s1.74-.45,1.74-1.12c0-.51-.38-.83-1.24-1l-1.6-.37c-1.73-.4-2.54-1.2-2.54-2.56C91.3,75.16,92.78,74,94.9,74Z"/><path class="k" d="M100.35,78.72c0-2.91,1.66-4.69,4.33-4.69S109,75.81,109,78.72s-1.64,4.69-4.34,4.69S100.35,81.65,100.35,78.72Zm6.57,0c0-1.88-.82-3-2.24-3s-2.24,1.09-2.24,3,.82,3,2.24,3S106.92,80.61,106.92,78.72Z"/><path class="k" d="M110.63,78.72c0-2.91,1.66-4.69,4.34-4.69s4.33,1.78,4.33,4.69-1.64,4.69-4.33,4.69S110.63,81.65,110.63,78.72Zm6.57,0c0-1.88-.81-3-2.23-3s-2.24,1.09-2.24,3,.81,3,2.24,3S117.2,80.61,117.2,78.72Z"/><path class="k" d="M121.36,74.22h2v1.44h.14A2.7,2.7,0,0,1,126.15,74c2,0,3.11,1.22,3.11,3.37v5.83h-2V77.88c0-1.37-.57-2.07-1.82-2.07a1.94,1.94,0,0,0-2,2.17v5.25h-2Z"/><path class="k" d="M131.93,82.13a1.37,1.37,0,1,1,1.36,1.31A1.25,1.25,0,0,1,131.93,82.13Zm2.5-10.8-.19,8h-1.9l-.19-8Z"/><path class="k" d="M112.74,97.77c0,.21.24.35.55.35s.49-.14.49-.34-.13-.26-.45-.33l-.35-.08q-.72-.15-.72-.75c0-.5.4-.83,1-.83a.91.91,0,0,1,1,.8h-.52a.45.45,0,0,0-.49-.35c-.28,0-.46.13-.46.33s.12.26.43.32l.32.07c.53.11.76.34.76.75s-.41.86-1.07.86-1-.31-1.06-.8Z"/><path class="k" d="M115.4,97.53a.56.56,0,0,0,1.11,0V95.86h.55v1.73a1.11,1.11,0,0,1-2.21,0V95.86h.55Z"/><path class="k" d="M117.69,98.5V95.86h1.16c.51,0,.82.25.82.66a.57.57,0,0,1-.48.56v0a.62.62,0,0,1,.6.63c0,.46-.35.75-.91.75Zm.56-1.54h.41c.3,0,.46-.13.46-.34s-.15-.34-.41-.34h-.46Zm.49,1.12c.32,0,.49-.13.49-.38s-.18-.37-.5-.37h-.48v.75Z"/><path class="k" d="M120.7,97.77c0,.21.25.35.56.35s.49-.14.49-.34-.13-.26-.46-.33l-.34-.08q-.72-.15-.72-.75c0-.5.4-.83,1-.83s1,.33,1,.8h-.52c0-.21-.22-.35-.49-.35s-.45.13-.45.33.12.26.43.32l.32.07c.53.11.76.34.76.75s-.41.86-1.07.86-1-.31-1.06-.8Z"/><path class="k" d="M122.7,97.18a1.22,1.22,0,0,1,1.24-1.39,1.09,1.09,0,0,1,1.14,1h-.53a.6.6,0,0,0-.61-.5c-.42,0-.68.34-.68.9s.26.9.68.9a.58.58,0,0,0,.61-.47h.54a1.07,1.07,0,0,1-1.15,1A1.22,1.22,0,0,1,122.7,97.18Z"/><path class="k" d="M126.14,98.5h-.55V95.86h1.11a.83.83,0,0,1,.94.85.79.79,0,0,1-.48.75l.55,1h-.62l-.5-1h-.45Zm0-1.38h.49a.39.39,0,0,0,.44-.4.4.4,0,0,0-.45-.41h-.48Z"/><path class="k" d="M128.19,98.5V95.86h.55V98.5Z"/><path class="k" d="M129.38,98.5V95.86h1.15c.52,0,.82.25.82.66a.56.56,0,0,1-.48.56v0a.63.63,0,0,1,.61.63c0,.46-.35.75-.91.75Zm.55-1.54h.42c.3,0,.46-.13.46-.34s-.15-.34-.42-.34h-.46Zm.49,1.12c.32,0,.49-.13.49-.38s-.17-.37-.5-.37h-.48v.75Z"/><path class="k" d="M133.72,98.5H132V95.86h1.75v.47h-1.19V97h1.13v.44h-1.13V98h1.19Z"/><path class="k" d="M127.14,140.12a5.07,5.07,0,0,0-5.08-5.08l-.41,0a6.39,6.39,0,0,0-11-1.75,2.54,2.54,0,0,0-1.41-.42,2.61,2.61,0,0,0-2.56,2.1h0a5.13,5.13,0,0,0-.58,10.22l16.47,0A5.06,5.06,0,0,0,127.14,140.12Z"/><path class="k" d="M164.61,133.63a8.15,8.15,0,0,0-8.14,8.15c0,.18,0,.36,0,.55a6.44,6.44,0,0,0-11,4.54,6.18,6.18,0,0,0,.2,1.56,11.18,11.18,0,0,0-13.93,8.43,6.31,6.31,0,0,0-12.14,1.74,10.88,10.88,0,0,0-15.83,3.72,12,12,0,0,0-20.17-.39,8.69,8.69,0,0,0-3.24-.61,7.36,7.36,0,0,0-6.26,3,18.92,18.92,0,0,0-9-2.12,17.74,17.74,0,0,0-10.4,3,6,6,0,0,0-11.89-1.08,6,6,0,0,0-4.55-1.92H38c-1.46-6.94-8.87-12.23-17.83-12.29a8,8,0,0,0-.66-1.49A7.72,7.72,0,0,0,8.82,138v40.24h106.5a13.55,13.55,0,0,0,1.46-.37c.09.12.19.24.28.37h37.05c.07-.13.16-.24.22-.37.06.13.13.24.19.37h11.31V133.74A8.14,8.14,0,0,0,164.61,133.63ZM30.44,176.84l.26-.16C31.5,176.56,30.85,176.81,30.44,176.84Z"/><path class="k" d="M53.4,132.12a3,3,0,0,0-3-3h-.25a3.77,3.77,0,0,0-6.49-1,1.5,1.5,0,0,0-.83-.25,1.54,1.54,0,0,0-1.51,1.24h0a3,3,0,0,0-.35,6l9.74,0A3,3,0,0,0,53.4,132.12Z"/><path class="l" d="M14.55,19v1.11h-.23V17.32h.23v1.24a.62.62,0,0,1,.59-.34.63.63,0,0,1,.49.2.71.71,0,0,1,.16.49v1.2h-.23V19a.53.53,0,0,0-.12-.37.52.52,0,0,0-.75,0A.61.61,0,0,0,14.55,19Z"/><path class="l" d="M16.75,17.68v.59h.48v.21h-.48v1.11a.29.29,0,0,0,.32.33.35.35,0,0,0,.16,0v.2a.41.41,0,0,1-.22,0,.47.47,0,0,1-.36-.14.54.54,0,0,1-.13-.38V18.48h-.39v-.21h.14a.24.24,0,0,0,.27-.27v-.32Z"/><path class="l" d="M18.07,17.68v.59h.48v.21h-.48v1.11a.29.29,0,0,0,.32.33.35.35,0,0,0,.16,0v.2a.41.41,0,0,1-.22,0A.47.47,0,0,1,18,20a.54.54,0,0,1-.13-.38V18.48h-.39v-.21h.14a.24.24,0,0,0,.27-.27v-.32Z"/><path class="l" d="M19.25,20.84H19V18.27h.23v.36a.87.87,0,0,1,.23-.27.74.74,0,0,1,.44-.14.77.77,0,0,1,.61.28,1.08,1.08,0,0,1,.22.69,1,1,0,0,1-.22.69.78.78,0,0,1-.62.27.75.75,0,0,1-.43-.12.74.74,0,0,1-.23-.27Zm1.09-1.11a.82.82,0,0,0,.18-.54.77.77,0,0,0-.18-.54.54.54,0,0,0-.46-.22.55.55,0,0,0-.46.22.94.94,0,0,0,0,1.08.55.55,0,0,0,.46.22A.54.54,0,0,0,20.34,19.73Z"/><path class="l" d="M21.07,19.62l.21-.08a.49.49,0,0,0,.16.31.54.54,0,0,0,.35.11.49.49,0,0,0,.3-.09.3.3,0,0,0,.11-.24c0-.17-.1-.27-.31-.31l-.31-.07a.48.48,0,0,1-.44-.49.51.51,0,0,1,.18-.39.67.67,0,0,1,.44-.15.69.69,0,0,1,.47.16.59.59,0,0,1,.18.33l-.2.07a.47.47,0,0,0-.13-.25.5.5,0,0,0-.32-.11.45.45,0,0,0-.28.09.28.28,0,0,0-.12.23c0,.15.1.25.29.29l.3.07q.48.12.48.51a.52.52,0,0,1-.17.38.69.69,0,0,1-.48.17.72.72,0,0,1-.51-.18A.59.59,0,0,1,21.07,19.62Z"/><path class="l" d="M23.11,18.66A.17.17,0,0,1,23,18.6a.2.2,0,0,1-.06-.14.2.2,0,0,1,.06-.15.19.19,0,0,1,.28,0,.2.2,0,0,1,.06.15.2.2,0,0,1-.06.14A.17.17,0,0,1,23.11,18.66Zm.15,1.41a.25.25,0,0,1-.15.05.24.24,0,0,1-.14-.05.2.2,0,0,1-.06-.15.21.21,0,0,1,.2-.2.2.2,0,0,1,.15.06.2.2,0,0,1,.06.14A.2.2,0,0,1,23.26,20.07Z"/><path class="l" d="M25.2,17.37l-1.32,2.74h-.23L25,17.37Z"/><path class="l" d="M26.64,17.37l-1.32,2.74h-.24l1.33-2.74Z"/><path class="l" d="M27.91,18.27h.24l.55,1.55.49-1.55h.24l-.6,1.84h-.25L28,18.55l-.55,1.56h-.25l-.61-1.84h.25l.5,1.55Z"/><path class="l" d="M30.87,18.27h.25l.55,1.55.49-1.55h.24l-.61,1.84h-.25L31,18.55l-.55,1.56h-.25l-.62-1.84h.26l.49,1.55Z"/><path class="l" d="M33.83,18.27h.25l.55,1.55.49-1.55h.24l-.61,1.84h-.24L34,18.55l-.55,1.56h-.25l-.61-1.84h.25l.5,1.55Z"/><path class="l" d="M35.71,20.12a.24.24,0,0,1-.14-.05.2.2,0,0,1-.06-.15.21.21,0,0,1,.2-.2.2.2,0,0,1,.15.06.2.2,0,0,1,.06.14.2.2,0,0,1-.06.15A.25.25,0,0,1,35.71,20.12Z"/><path class="l" d="M36.33,19.62l.21-.08a.49.49,0,0,0,.16.31.52.52,0,0,0,.35.11.44.44,0,0,0,.29-.09.29.29,0,0,0,.12-.24c0-.17-.1-.27-.31-.31l-.31-.07c-.3-.07-.45-.24-.45-.49a.52.52,0,0,1,.19-.39.67.67,0,0,1,.44-.15.71.71,0,0,1,.47.16.59.59,0,0,1,.18.33l-.2.07a.47.47,0,0,0-.13-.25.52.52,0,0,0-.32-.11.45.45,0,0,0-.28.09.28.28,0,0,0-.12.23c0,.15.1.25.28.29l.31.07q.48.12.48.51a.52.52,0,0,1-.17.38.69.69,0,0,1-.48.17.72.72,0,0,1-.51-.18A.59.59,0,0,1,36.33,19.62Z"/><path class="l" d="M39.42,19.82a.51.51,0,0,1-.22.24.6.6,0,0,1-.35.1.63.63,0,0,1-.52-.23.77.77,0,0,1-.17-.51V18.27h.23v1.12a.61.61,0,0,0,.12.39.42.42,0,0,0,.38.17.46.46,0,0,0,.38-.16.57.57,0,0,0,.14-.4V18.27h.23v1.49c0,.12,0,.24,0,.35h-.22a1.34,1.34,0,0,1,0-.26Z"/><path class="l" d="M40.51,20.84h-.22V18.27h.22v.36a.87.87,0,0,1,.23-.27.74.74,0,0,1,.44-.14.77.77,0,0,1,.61.28,1.08,1.08,0,0,1,.22.69,1,1,0,0,1-.22.69.78.78,0,0,1-.62.27.77.77,0,0,1-.43-.12.74.74,0,0,1-.23-.27Zm1.1-1.11a.87.87,0,0,0,.17-.54.81.81,0,0,0-.17-.54.57.57,0,0,0-.47-.22.55.55,0,0,0-.46.22.94.94,0,0,0,0,1.08.55.55,0,0,0,.46.22A.57.57,0,0,0,41.61,19.73Z"/><path class="l" d="M43.85,19.51l.2.08a.81.81,0,0,1-.28.4.85.85,0,0,1-.52.17.83.83,0,0,1-.63-.26,1,1,0,0,1-.27-.72,1,1,0,0,1,.26-.7.79.79,0,0,1,.59-.26.8.8,0,0,1,.64.26,1,1,0,0,1,.22.67v.08H42.59v0a.69.69,0,0,0,.19.51.63.63,0,0,0,.47.19.59.59,0,0,0,.39-.13A.66.66,0,0,0,43.85,19.51ZM42.6,19h1.22a.66.66,0,0,0-.16-.44.6.6,0,0,0-.45-.17.57.57,0,0,0-.43.17A.67.67,0,0,0,42.6,19Z"/><path class="l" d="M45.49,18.26v.25a.37.37,0,0,0-.16,0,.55.55,0,0,0-.4.15.71.71,0,0,0-.14.47v1h-.24V18.27h.23v.34a.59.59,0,0,1,.57-.37A.37.37,0,0,1,45.49,18.26Z"/><path class="l" d="M45.94,20a.46.46,0,0,1-.15-.36c0-.3.18-.48.55-.54l.49-.07c.13,0,.19-.09.19-.19a.41.41,0,0,0-.12-.3.5.5,0,0,0-.34-.11.59.59,0,0,0-.36.11.46.46,0,0,0-.15.32l-.23-.05a.65.65,0,0,1,.24-.43.8.8,0,0,1,.5-.15.74.74,0,0,1,.53.18.65.65,0,0,1,.17.46v.93a1.67,1.67,0,0,0,0,.32h-.22a1.12,1.12,0,0,1,0-.32.53.53,0,0,1-.23.24.69.69,0,0,1-.41.12A.64.64,0,0,1,45.94,20Zm.08-.37a.34.34,0,0,0,.11.24.44.44,0,0,0,.29.1.61.61,0,0,0,.43-.16.57.57,0,0,0,.17-.44v-.22l-.09,0-.15,0-.41.06C46.14,19.3,46,19.42,46,19.62Z"/><path class="l" d="M48.09,20.84h-.23V18.27h.23v.36a.67.67,0,0,1,.23-.27.71.71,0,0,1,.43-.14.79.79,0,0,1,.62.28,1.14,1.14,0,0,1,.22.69,1,1,0,0,1-.23.69.76.76,0,0,1-.61.27.75.75,0,0,1-.43-.12.66.66,0,0,1-.23-.27Zm1.09-1.11a.87.87,0,0,0,.17-.54.81.81,0,0,0-.17-.54.55.55,0,0,0-.46-.22.53.53,0,0,0-.46.22.9.9,0,0,0,0,1.08.53.53,0,0,0,.46.22A.55.55,0,0,0,49.18,19.73Z"/><path class="l" d="M50.31,20.84h-.23V18.27h.23v.36a.67.67,0,0,1,.23-.27.71.71,0,0,1,.43-.14.8.8,0,0,1,.62.28,1.14,1.14,0,0,1,.22.69,1,1,0,0,1-.23.69.76.76,0,0,1-.61.27.75.75,0,0,1-.43-.12.66.66,0,0,1-.23-.27Zm1.09-1.11a.87.87,0,0,0,.17-.54.81.81,0,0,0-.17-.54.57.57,0,0,0-.47-.22.55.55,0,0,0-.46.22.94.94,0,0,0,0,1.08.55.55,0,0,0,.46.22A.57.57,0,0,0,51.4,19.73Z"/><path class="l" d="M52.35,20.12a.22.22,0,0,1-.14-.05.2.2,0,0,1-.06-.15.2.2,0,0,1,.06-.14.18.18,0,0,1,.14-.06.2.2,0,0,1,.15.06.2.2,0,0,1,.06.14.2.2,0,0,1-.06.15A.25.25,0,0,1,52.35,20.12Z"/><path class="l" d="M54.21,18.57a.61.61,0,0,0-.4-.14.62.62,0,0,0-.47.2.8.8,0,0,0-.2.56.77.77,0,0,0,.2.55.59.59,0,0,0,.47.21.58.58,0,0,0,.41-.15.8.8,0,0,0,.19-.3l.2.08a.85.85,0,0,1-.26.4.88.88,0,0,1-.54.18.8.8,0,0,1-.64-.28.9.9,0,0,1-.26-.69,1,1,0,0,1,.26-.7.84.84,0,0,1,.64-.27.76.76,0,0,1,.79.58l-.21.08A.61.61,0,0,0,54.21,18.57Z"/><path class="l" d="M55.16,18.49a.88.88,0,0,1,.65-.27.85.85,0,0,1,.64.27,1.07,1.07,0,0,1,0,1.4.85.85,0,0,1-.64.27.84.84,0,0,1-.64-.27,1,1,0,0,1-.27-.7A1,1,0,0,1,55.16,18.49Zm.18,1.26a.62.62,0,0,0,.47.2.65.65,0,0,0,.47-.2.88.88,0,0,0,0-1.12.6.6,0,0,0-.47-.2.59.59,0,0,0-.47.2.88.88,0,0,0,0,1.12Z"/><path class="l" d="M57.43,20.11h-.22V18.27h.22v.3a.59.59,0,0,1,.22-.25.66.66,0,0,1,.37-.1.65.65,0,0,1,.37.11.58.58,0,0,1,.21.31.62.62,0,0,1,.63-.42.64.64,0,0,1,.45.17.68.68,0,0,1,.19.5v1.22h-.24V18.92a.54.54,0,0,0-.12-.36.45.45,0,0,0-.35-.13.49.49,0,0,0-.37.16.58.58,0,0,0-.14.39v1.13h-.23V18.92a.52.52,0,0,0-.12-.36.45.45,0,0,0-.35-.13.47.47,0,0,0-.37.16.54.54,0,0,0-.15.39Z"/><path class="l" d="M36.79,97.77l.51-.18a.58.58,0,0,0,.21.39.68.68,0,0,0,.47.15.52.52,0,0,0,.36-.11.35.35,0,0,0,.13-.27c0-.19-.13-.32-.37-.37l-.5-.11a1,1,0,0,1-.52-.29.75.75,0,0,1-.2-.52.81.81,0,0,1,.31-.64,1,1,0,0,1,.72-.27,1.26,1.26,0,0,1,.49.08.76.76,0,0,1,.34.21,1.19,1.19,0,0,1,.18.25.92.92,0,0,1,.09.23l-.5.19a.57.57,0,0,0,0-.14.59.59,0,0,0-.1-.16.42.42,0,0,0-.18-.13.61.61,0,0,0-.28,0,.51.51,0,0,0-.35.11.35.35,0,0,0-.13.27c0,.19.11.3.33.35l.47.1a1.15,1.15,0,0,1,.59.31.77.77,0,0,1,.21.55.89.89,0,0,1-.28.62,1.09,1.09,0,0,1-.78.27,1.23,1.23,0,0,1-.83-.26A1,1,0,0,1,36.79,97.77Z"/><path class="l" d="M41.77,97.53l.49.17a1.25,1.25,0,0,1-.47.66,1.34,1.34,0,0,1-.83.25,1.46,1.46,0,0,1-1-.41,1.69,1.69,0,0,1,0-2.22,1.28,1.28,0,0,1,1-.43,1.26,1.26,0,0,1,1,.41,1.56,1.56,0,0,1,.37,1.1c0,.07,0,.13,0,.18H40.09a.9.9,0,0,0,.26.63.85.85,0,0,0,.61.24A.76.76,0,0,0,41.77,97.53Zm-1.66-.75h1.58a.77.77,0,0,0-.22-.53.87.87,0,0,0-1.12,0A.77.77,0,0,0,40.11,96.78Z"/><path class="l" d="M43.56,98.52H43V94.18h.56v1.87a.83.83,0,0,1,.36-.36,1.2,1.2,0,0,1,.59-.14,1.18,1.18,0,0,1,1,.43,1.65,1.65,0,0,1,.35,1.08,1.68,1.68,0,0,1-.36,1.11,1.21,1.21,0,0,1-1,.43,1,1,0,0,1-.93-.5ZM45,97.81a1.32,1.32,0,0,0,0-1.49.78.78,0,0,0-.62-.27.77.77,0,0,0-.62.28,1.07,1.07,0,0,0-.24.73,1.13,1.13,0,0,0,.24.75.81.81,0,0,0,1.24,0Z"/><path class="l" d="M49.68,97.7a.76.76,0,0,1-.38-.09.47.47,0,0,1-.21-.29.89.89,0,0,1-1.38.11,1.07,1.07,0,0,1-.25-.74,1.44,1.44,0,0,1,.35-1,1.09,1.09,0,0,1,.85-.4.76.76,0,0,1,.39.1.57.57,0,0,1,.25.3l.05-.32h.48l-.33,1.5a1.11,1.11,0,0,0,0,.17c0,.16.08.25.23.25s.32-.12.45-.35a1.57,1.57,0,0,0,.2-.79,1.44,1.44,0,0,0-.47-1.1,1.69,1.69,0,0,0-1.21-.43,1.76,1.76,0,0,0-1.32.53,1.86,1.86,0,0,0-.52,1.38,1.79,1.79,0,0,0,.51,1.32,1.9,1.9,0,0,0,1.4.52A2,2,0,0,0,50,98l.24.32a1.88,1.88,0,0,1-.67.39,2.31,2.31,0,0,1-.8.15A2.43,2.43,0,0,1,47,98.17a2.15,2.15,0,0,1-.67-1.65A2.25,2.25,0,0,1,47,94.84a2.3,2.3,0,0,1,1.65-.66,2.21,2.21,0,0,1,1.54.56,2,2,0,0,1,.28,2.51A1,1,0,0,1,49.68,97.7Zm-.51-1.4a.56.56,0,0,0-.14-.41.45.45,0,0,0-.37-.15.6.6,0,0,0-.51.27.93.93,0,0,0-.2.61c0,.44.17.65.51.65A.6.6,0,0,0,49,97,1.24,1.24,0,0,0,49.17,96.3Z"/><path class="l" d="M52.08,98.52h-.57V94.18h.57Z"/><path class="l" d="M55.06,97.53l.49.17a1.25,1.25,0,0,1-.47.66,1.34,1.34,0,0,1-.83.25,1.46,1.46,0,0,1-1-.41,1.69,1.69,0,0,1,0-2.22,1.28,1.28,0,0,1,1-.43,1.26,1.26,0,0,1,1,.41,1.56,1.56,0,0,1,.37,1.1c0,.07,0,.13,0,.18H53.38a.9.9,0,0,0,.26.63.84.84,0,0,0,.61.24A.76.76,0,0,0,55.06,97.53Zm-1.66-.75H55a.77.77,0,0,0-.22-.53.87.87,0,0,0-1.12,0A.77.77,0,0,0,53.4,96.78Z"/><path class="l" d="M57.88,95.64h.59l.75,2.17.63-2.17h.6l-.94,2.88h-.58l-.77-2.19-.75,2.19h-.59l-1-2.88h.62l.64,2.17Z"/><path class="l" d="M60.81,97.75a.78.78,0,0,1,.24-.6,1.15,1.15,0,0,1,.63-.28l.78-.11c.15,0,.22-.09.22-.22a.5.5,0,0,0-.15-.37.66.66,0,0,0-.47-.14.65.65,0,0,0-.46.16.64.64,0,0,0-.19.42l-.54-.13a.92.92,0,0,1,.37-.67,1.27,1.27,0,0,1,.81-.26,1.23,1.23,0,0,1,.9.29,1,1,0,0,1,.3.76v1.45a3.38,3.38,0,0,0,0,.47h-.55a2.38,2.38,0,0,1,0-.39,1,1,0,0,1-.93.48,1,1,0,0,1-.69-.25A.82.82,0,0,1,60.81,97.75Zm1,.39a.93.93,0,0,0,.61-.2.85.85,0,0,0,.22-.65v-.14l-.88.14a.47.47,0,0,0-.3.14.37.37,0,0,0-.12.29.37.37,0,0,0,.13.29A.45.45,0,0,0,61.85,98.14Z"/><path class="l" d="M63.91,98.68l.55-.13a.74.74,0,0,0,.25.51.77.77,0,0,0,.54.2c.58,0,.88-.31.88-.94v-.41a.85.85,0,0,1-.34.34,1.06,1.06,0,0,1-.54.14,1.28,1.28,0,0,1-1-.4,1.37,1.37,0,0,1-.37-1,1.41,1.41,0,0,1,.37-1,1.25,1.25,0,0,1,1-.41.88.88,0,0,1,.88.46v-.4h.56v2.67a1.79,1.79,0,0,1-.07.53,1.35,1.35,0,0,1-.24.46,1.1,1.1,0,0,1-.45.33,1.79,1.79,0,0,1-.68.12,1.4,1.4,0,0,1-.91-.3A1.14,1.14,0,0,1,63.91,98.68Zm1.42-.77a.75.75,0,0,0,.59-.25.94.94,0,0,0,.23-.67.93.93,0,0,0-.23-.67.76.76,0,0,0-.59-.26.79.79,0,0,0-.6.25,1.13,1.13,0,0,0,0,1.35A.76.76,0,0,0,65.33,97.91Z"/><path class="l" d="M67.77,96a1.52,1.52,0,0,1,2.12,0,1.56,1.56,0,0,1,.41,1.1,1.52,1.52,0,0,1-.41,1.1,1.4,1.4,0,0,1-1.06.43,1.39,1.39,0,0,1-1.06-.43,1.65,1.65,0,0,1,0-2.2Zm.42,1.86a.85.85,0,0,0,.64.27.87.87,0,0,0,.64-.27,1.24,1.24,0,0,0,0-1.52.87.87,0,0,0-.64-.27.85.85,0,0,0-.64.27,1.24,1.24,0,0,0,0,1.52Z"/><path class="l" d="M71.59,96.86v1.66H71V95.64h.56v.41a1.05,1.05,0,0,1,1.65-.18,1.23,1.23,0,0,1,.27.82v1.83h-.57V96.79c0-.48-.22-.73-.67-.73a.58.58,0,0,0-.49.23A.88.88,0,0,0,71.59,96.86Z"/><path class="l" d="M74.46,98.43a.38.38,0,0,1-.12-.29.41.41,0,0,1,.12-.3.38.38,0,0,1,.29-.12.42.42,0,0,1,.3.12.41.41,0,0,1,.12.3.38.38,0,0,1-.12.29.42.42,0,0,1-.3.12A.38.38,0,0,1,74.46,98.43Z"/><path class="l" d="M77.19,96.07a.85.85,0,0,0-.62.26,1.24,1.24,0,0,0,0,1.49.83.83,0,0,0,.63.27.78.78,0,0,0,.55-.18A.93.93,0,0,0,78,97.5l.5.21a1.37,1.37,0,0,1-.45.63,1.33,1.33,0,0,1-.85.27,1.4,1.4,0,0,1-1-.43,1.58,1.58,0,0,1-.41-1.1,1.53,1.53,0,0,1,.41-1.1,1.39,1.39,0,0,1,1-.43,1.32,1.32,0,0,1,.86.27,1.29,1.29,0,0,1,.43.65l-.51.21a.91.91,0,0,0-.26-.43A.7.7,0,0,0,77.19,96.07Z"/><path class="l" d="M79.31,96a1.51,1.51,0,0,1,2.11,0,1.52,1.52,0,0,1,.42,1.1,1.56,1.56,0,0,1-.41,1.1,1.53,1.53,0,0,1-2.13,0,1.56,1.56,0,0,1-.41-1.1A1.52,1.52,0,0,1,79.31,96Zm.42,1.86a.88.88,0,0,0,1.27,0,1.2,1.2,0,0,0,0-1.52.88.88,0,0,0-1.27,0,1.24,1.24,0,0,0,0,1.52Z"/><path class="l" d="M83.12,98.52h-.56V95.64h.54V96a.89.89,0,0,1,.37-.35,1.13,1.13,0,0,1,.51-.12,1,1,0,0,1,.51.14.79.79,0,0,1,.35.41,1,1,0,0,1,1-.55,1,1,0,0,1,.7.28,1.08,1.08,0,0,1,.29.82v1.87h-.55V96.71a.73.73,0,0,0-.16-.48.56.56,0,0,0-.46-.18.63.63,0,0,0-.48.21.77.77,0,0,0-.18.52v1.74H84.4V96.71a.73.73,0,0,0-.15-.48.56.56,0,0,0-.46-.18.6.6,0,0,0-.48.21.71.71,0,0,0-.19.52Z"/><polygon class="m" points="105.66 187.43 174.28 107.18 174.28 184.54 169.42 187.43 105.66 187.43"/></symbol><symbol id="c" viewBox="0 0 174.65 187.81"><use width="180.96" height="194.59" transform="translate(0.01 0.01) scale(0.96)" xlink:href="#b"/><rect class="n" x="8.82" y="14.63" width="52.93" height="12.2"/><rect class="o" x="8.82" y="26.83" width="157.01" height="151.57"/><path class="l" d="M13.05,23.43a.29.29,0,0,1-.21-.09.29.29,0,0,1-.09-.22.31.31,0,0,1,.3-.3.29.29,0,0,1,.22.09.29.29,0,0,1,.09.21.31.31,0,0,1-.31.31Z"/><path class="l" d="M14.55,23.43a.29.29,0,0,1-.22-.09.29.29,0,0,1-.08-.22.28.28,0,0,1,.08-.21.31.31,0,0,1,.44,0,.32.32,0,0,1,.08.21.33.33,0,0,1-.08.22A.29.29,0,0,1,14.55,23.43Z"/><path class="l" d="M16,23.43a.27.27,0,0,1-.21-.09.29.29,0,0,1-.09-.22.29.29,0,0,1,.09-.21.27.27,0,0,1,.21-.09.29.29,0,0,1,.22.09.29.29,0,0,1,.09.21.31.31,0,0,1-.31.31Z"/><path class="l" d="M19.17,19.3l-2,4.1h-.34l2-4.1Z"/><path class="l" d="M21.2,23v-.11a.94.94,0,0,1-.32.41,1.08,1.08,0,0,1-.64.2,1.16,1.16,0,0,1-.93-.41A1.58,1.58,0,0,1,19,22a1.52,1.52,0,0,1,.36-1,1.15,1.15,0,0,1,.92-.42,1.1,1.1,0,0,1,.66.2.94.94,0,0,1,.3.39V19.22h.35v3.66a2.94,2.94,0,0,0,0,.52h-.35A2,2,0,0,1,21.2,23ZM19.58,21.2a1.22,1.22,0,0,0-.26.82,1.31,1.31,0,0,0,.25.82.83.83,0,0,0,.7.33.82.82,0,0,0,.68-.33A1.32,1.32,0,0,0,21.2,22,1.26,1.26,0,0,0,21,21.2a.89.89,0,0,0-1.37,0Z"/><path class="l" d="M22.57,23.23a.68.68,0,0,1-.24-.54c0-.45.28-.72.83-.82l.74-.11c.19,0,.29-.12.29-.27A.55.55,0,0,0,24,21a.69.69,0,0,0-.51-.17A.75.75,0,0,0,23,21a.68.68,0,0,0-.24.48l-.33-.08a.9.9,0,0,1,.35-.64,1.22,1.22,0,0,1,.75-.23,1.1,1.1,0,0,1,.79.27,1,1,0,0,1,.25.69v1.4a3.57,3.57,0,0,0,0,.47h-.34a2.37,2.37,0,0,1,0-.47,1,1,0,0,1-.34.36,1.1,1.1,0,0,1-.62.18A.93.93,0,0,1,22.57,23.23Zm.12-.56a.49.49,0,0,0,.15.36.62.62,0,0,0,.44.15.88.88,0,0,0,.65-.25.87.87,0,0,0,.26-.66v-.33A.37.37,0,0,1,24,22a.91.91,0,0,1-.22.05l-.61.1C22.86,22.2,22.69,22.37,22.69,22.67Z"/><path class="l" d="M25.93,19.77v.87h.72V21h-.72v1.66c0,.33.16.5.47.5a.57.57,0,0,0,.25,0v.3a.9.9,0,0,1-.34.05.71.71,0,0,1-.53-.2.77.77,0,0,1-.19-.57V21H25v-.32h.21a.36.36,0,0,0,.41-.4v-.47Z"/><path class="l" d="M27.43,23.23a.71.71,0,0,1-.23-.54c0-.45.28-.72.83-.82l.74-.11c.19,0,.29-.12.29-.27a.55.55,0,0,0-.19-.45.69.69,0,0,0-.51-.17.75.75,0,0,0-.53.17.68.68,0,0,0-.24.48l-.34-.08a1,1,0,0,1,.36-.64,1.21,1.21,0,0,1,.74-.23,1.11,1.11,0,0,1,.8.27,1,1,0,0,1,.25.69v1.4a2.42,2.42,0,0,0,0,.47H29.1a2.37,2.37,0,0,1,0-.47,1,1,0,0,1-.34.36,1.1,1.1,0,0,1-.62.18A1,1,0,0,1,27.43,23.23Zm.13-.56a.49.49,0,0,0,.15.36.62.62,0,0,0,.44.15.88.88,0,0,0,.65-.25.87.87,0,0,0,.26-.66v-.33a.37.37,0,0,1-.15.06.91.91,0,0,1-.22.05l-.61.1C27.73,22.2,27.56,22.37,27.56,22.67Z"/><path class="l" d="M30.65,23.4h-.34V19.22h.34v2a1,1,0,0,1,.34-.4,1.12,1.12,0,0,1,.66-.2,1.17,1.17,0,0,1,.92.41,1.57,1.57,0,0,1,.33,1,1.5,1.5,0,0,1-.34,1,1.13,1.13,0,0,1-.92.42,1,1,0,0,1-.64-.19,1.1,1.1,0,0,1-.35-.42Zm1.64-.56a1.31,1.31,0,0,0,.26-.83,1.25,1.25,0,0,0-.26-.81.85.85,0,0,0-.7-.32.81.81,0,0,0-.68.32,1.22,1.22,0,0,0-.27.81,1.26,1.26,0,0,0,.27.83.82.82,0,0,0,.68.33A.86.86,0,0,0,32.29,22.84Z"/><path class="l" d="M33.65,23.23a.71.71,0,0,1-.23-.54c0-.45.27-.72.83-.82l.73-.11c.2,0,.29-.12.29-.27a.58.58,0,0,0-.18-.45.69.69,0,0,0-.51-.17A.8.8,0,0,0,34,21a.71.71,0,0,0-.23.48l-.34-.08a1,1,0,0,1,.36-.64,1.21,1.21,0,0,1,.74-.23,1.11,1.11,0,0,1,.8.27,1,1,0,0,1,.25.69v1.4a2.42,2.42,0,0,0,0,.47h-.34a2.37,2.37,0,0,1,0-.47,1,1,0,0,1-.35.36,1.05,1.05,0,0,1-.62.18A1,1,0,0,1,33.65,23.23Zm.12-.56a.5.5,0,0,0,.16.36.62.62,0,0,0,.44.15.88.88,0,0,0,.65-.25.86.86,0,0,0,.25-.66v-.33a.31.31,0,0,1-.14.06.91.91,0,0,1-.22.05l-.61.1C34,22.2,33.77,22.37,33.77,22.67Z"/><path class="l" d="M36.26,22.67l.32-.11a.71.71,0,0,0,.24.45.77.77,0,0,0,.52.17.73.73,0,0,0,.45-.14.44.44,0,0,0,.17-.35c0-.25-.16-.41-.47-.47L37,22.11c-.45-.1-.67-.35-.67-.73a.75.75,0,0,1,.28-.58,1,1,0,0,1,.65-.23,1.05,1.05,0,0,1,.71.24.92.92,0,0,1,.28.49l-.31.12a.66.66,0,0,0-.19-.38.68.68,0,0,0-.49-.17.65.65,0,0,0-.41.13.42.42,0,0,0-.18.35c0,.23.15.37.43.44l.45.1c.48.11.72.37.72.77a.73.73,0,0,1-.25.56,1,1,0,0,1-.71.26,1.1,1.1,0,0,1-.77-.26A1,1,0,0,1,36.26,22.67Z"/><path class="l" d="M41.07,22.51l.31.11a1.19,1.19,0,0,1-.43.6,1.33,1.33,0,0,1-1.73-.13,1.62,1.62,0,0,1,0-2.12,1.14,1.14,0,0,1,.89-.4,1.22,1.22,0,0,1,.95.39,1.44,1.44,0,0,1,.34,1,.78.78,0,0,1,0,.13h-2.2v0a1.08,1.08,0,0,0,.29.77,1,1,0,0,0,.7.29.9.9,0,0,0,.59-.2A.92.92,0,0,0,41.07,22.51Zm-1.88-.71H41a1,1,0,0,0-.25-.65.93.93,0,0,0-1.31,0A1,1,0,0,0,39.19,21.8Z"/><path class="l" d="M44,19.3l-2,4.1h-.34l2-4.1Z"/><line class="p" x1="88.76" y1="138.06" x2="88.76" y2="162.42"/><polyline class="p" points="88.76 102.62 88.76 115.62 129.92 115.62 129.92 128.25"/><polygon class="k" points="126.18 127.16 129.92 133.63 133.66 127.16 126.18 127.16"/><rect class="p" x="50.75" y="86.68" width="76.14" height="15.94"/><path class="k" d="M55.28,97l.68-.24a.83.83,0,0,0,.27.51.92.92,0,0,0,.63.21.73.73,0,0,0,.48-.15.48.48,0,0,0,.17-.37c0-.25-.16-.42-.49-.49l-.66-.14a1.3,1.3,0,0,1-.7-.39,1,1,0,0,1-.26-.69,1.11,1.11,0,0,1,.41-.86,1.38,1.38,0,0,1,1-.36,2,2,0,0,1,.66.11,1,1,0,0,1,.44.28,1.5,1.5,0,0,1,.24.33.91.91,0,0,1,.12.31l-.66.25a.7.7,0,0,0-.06-.19.62.62,0,0,0-.12-.2.55.55,0,0,0-.24-.18.92.92,0,0,0-.38-.07.69.69,0,0,0-.46.15.45.45,0,0,0-.18.36c0,.25.15.4.44.47l.62.13a1.49,1.49,0,0,1,.79.41,1,1,0,0,1,.28.73,1.17,1.17,0,0,1-.37.83,1.45,1.45,0,0,1-1,.37,1.58,1.58,0,0,1-1.11-.36A1.27,1.27,0,0,1,55.28,97Z"/><path class="k" d="M61.92,96.66l.65.22a1.72,1.72,0,0,1-.62.88,2,2,0,0,1-2.48-.22,2,2,0,0,1-.56-1.5,2,2,0,0,1,.54-1.45,1.7,1.7,0,0,1,1.3-.58,1.72,1.72,0,0,1,1.36.55A2.12,2.12,0,0,1,62.59,96a1.85,1.85,0,0,1,0,.25h-2.9a1.19,1.19,0,0,0,.34.84,1.16,1.16,0,0,0,.82.32A1,1,0,0,0,61.92,96.66Zm-2.21-1h2.1a1,1,0,0,0-.29-.71,1.05,1.05,0,0,0-.77-.28A1,1,0,0,0,60,95,1,1,0,0,0,59.71,95.66Z"/><path class="k" d="M64.3,98h-.75V92.19h.75v2.48a1.28,1.28,0,0,1,.48-.47,1.65,1.65,0,0,1,.79-.18,1.58,1.58,0,0,1,1.3.57A2.19,2.19,0,0,1,67.34,96a2.22,2.22,0,0,1-.48,1.47,1.6,1.6,0,0,1-1.31.58,1.33,1.33,0,0,1-1.25-.66Zm2-1a1.5,1.5,0,0,0,.31-1,1.44,1.44,0,0,0-.31-1,1,1,0,0,0-.83-.37,1,1,0,0,0-.82.37,1.44,1.44,0,0,0-.32,1,1.52,1.52,0,0,0,.32,1,1.09,1.09,0,0,0,1.65,0Z"/><path class="k" d="M72.47,96.88a1,1,0,0,1-.52-.13.61.61,0,0,1-.28-.38,1.11,1.11,0,0,1-1,.53,1.13,1.13,0,0,1-.88-.38,1.4,1.4,0,0,1-.34-1A1.92,1.92,0,0,1,70,94.2a1.43,1.43,0,0,1,1.13-.53,1.06,1.06,0,0,1,.52.13.7.7,0,0,1,.33.39l.08-.42h.63l-.43,2a.89.89,0,0,0,0,.22c0,.22.1.33.31.33s.42-.15.6-.46a2.16,2.16,0,0,0,.26-1.06,1.91,1.91,0,0,0-.62-1.46,2.25,2.25,0,0,0-1.62-.58,2.37,2.37,0,0,0-1.76.71,2.52,2.52,0,0,0-.7,1.84,2.37,2.37,0,0,0,.69,1.76,2.48,2.48,0,0,0,1.86.69,2.59,2.59,0,0,0,1.64-.56l.33.43a2.6,2.6,0,0,1-.9.52,3.14,3.14,0,0,1-1.07.19,3.25,3.25,0,0,1-2.31-.84,2.91,2.91,0,0,1-.89-2.2,3,3,0,0,1,.9-2.25,3.06,3.06,0,0,1,2.2-.87,2.92,2.92,0,0,1,2,.74A2.45,2.45,0,0,1,74,94.8a2.37,2.37,0,0,1-.45,1.48A1.29,1.29,0,0,1,72.47,96.88ZM71.78,95a.8.8,0,0,0-.18-.56.63.63,0,0,0-.49-.19.82.82,0,0,0-.69.35,1.32,1.32,0,0,0-.27.82c0,.58.23.87.68.87A.78.78,0,0,0,71.5,96,1.65,1.65,0,0,0,71.78,95Z"/><path class="k" d="M75.66,98h-.75V92.19h.75Z"/><path class="k" d="M79.64,96.66l.65.22a1.72,1.72,0,0,1-.62.88,2,2,0,0,1-2.48-.22,2,2,0,0,1-.56-1.5,2,2,0,0,1,.54-1.45,1.7,1.7,0,0,1,1.3-.58,1.72,1.72,0,0,1,1.36.55A2.12,2.12,0,0,1,80.31,96a1.85,1.85,0,0,1,0,.25H77.4a1.19,1.19,0,0,0,.34.84,1.16,1.16,0,0,0,.82.32A1,1,0,0,0,79.64,96.66Zm-2.21-1h2.1a1,1,0,0,0-.29-.71,1.05,1.05,0,0,0-.77-.28,1,1,0,0,0-.73.3A1,1,0,0,0,77.43,95.66Z"/><path class="k" d="M83.4,94.13h.78l1,2.89L86,94.13h.79L85.57,98h-.78l-1-2.93-1,2.93H82l-1.27-3.85h.83L82.4,97Z"/><path class="k" d="M87.3,96.94a1,1,0,0,1,.32-.79,1.42,1.42,0,0,1,.85-.37l1-.15c.19,0,.29-.13.29-.29a.64.64,0,0,0-.21-.5.87.87,0,0,0-.62-.19.81.81,0,0,0-.87.78l-.72-.17a1.22,1.22,0,0,1,.5-.9A1.72,1.72,0,0,1,89,94a1.64,1.64,0,0,1,1.21.39,1.41,1.41,0,0,1,.39,1v1.93a4.23,4.23,0,0,0,0,.63h-.73a2.89,2.89,0,0,1,0-.52,1.43,1.43,0,0,1-.47.44,1.45,1.45,0,0,1-.77.2,1.33,1.33,0,0,1-.93-.34A1.09,1.09,0,0,1,87.3,96.94Zm1.39.53a1.19,1.19,0,0,0,.81-.28,1.11,1.11,0,0,0,.3-.86v-.18l-1.17.18a.78.78,0,0,0-.41.18.57.57,0,0,0,0,.79A.61.61,0,0,0,88.69,97.47Z"/><path class="k" d="M91.44,98.19l.73-.17a1,1,0,0,0,.33.67,1,1,0,0,0,.72.27c.78,0,1.17-.41,1.17-1.25v-.55a1,1,0,0,1-.45.46,1.5,1.5,0,0,1-.72.17A1.67,1.67,0,0,1,92,97.27a1.88,1.88,0,0,1-.5-1.34A1.85,1.85,0,0,1,92,94.6a1.64,1.64,0,0,1,1.27-.54,1.19,1.19,0,0,1,1.18.61v-.54h.75v3.56a2.71,2.71,0,0,1-.1.71,2,2,0,0,1-.32.62,1.54,1.54,0,0,1-.6.44,2.55,2.55,0,0,1-.91.16A1.85,1.85,0,0,1,92,99.21,1.51,1.51,0,0,1,91.44,98.19Zm1.89-1a1,1,0,0,0,.79-.34,1.3,1.3,0,0,0,.31-.89,1.28,1.28,0,0,0-.31-.89,1,1,0,0,0-.79-.34,1,1,0,0,0-.8.33,1.48,1.48,0,0,0,0,1.8A1,1,0,0,0,93.33,97.16Z"/><path class="k" d="M96.58,94.59A1.86,1.86,0,0,1,98,94a1.89,1.89,0,0,1,1.42.58,2,2,0,0,1,.55,1.46,2,2,0,0,1-.55,1.47,2,2,0,0,1-2.83,0A2,2,0,0,1,96,96.05,2,2,0,0,1,96.58,94.59Zm.56,2.47a1.15,1.15,0,0,0,.85.37,1.17,1.17,0,0,0,.86-.37,1.4,1.4,0,0,0,.34-1,1.38,1.38,0,0,0-.34-1,1.14,1.14,0,0,0-.86-.37,1.11,1.11,0,0,0-.85.37,1.38,1.38,0,0,0-.35,1A1.41,1.41,0,0,0,97.14,97.06Z"/><path class="k" d="M101.67,95.75V98h-.75V94.13h.74v.55a1.41,1.41,0,0,1,2.2-.24,1.64,1.64,0,0,1,.36,1.1V98h-.75V95.67c0-.65-.3-1-.9-1a.8.8,0,0,0-.66.3A1.16,1.16,0,0,0,101.67,95.75Z"/><path class="k" d="M105.5,97.86a.53.53,0,0,1-.16-.39.54.54,0,0,1,.16-.4.51.51,0,0,1,.39-.17.56.56,0,0,1,.4.17.58.58,0,0,1,.16.4.57.57,0,0,1-.16.39.59.59,0,0,1-.4.16A.53.53,0,0,1,105.5,97.86Z"/><path class="k" d="M109.14,94.7a1.08,1.08,0,0,0-.82.36,1.34,1.34,0,0,0-.34,1,1.37,1.37,0,0,0,.34,1,1.08,1.08,0,0,0,.83.36,1,1,0,0,0,.74-.24,1.27,1.27,0,0,0,.34-.55l.66.29a1.88,1.88,0,0,1-.6.84,1.77,1.77,0,0,1-1.14.36,1.84,1.84,0,0,1-1.39-.59,2.23,2.23,0,0,1,0-2.93,1.85,1.85,0,0,1,1.38-.57,1.78,1.78,0,0,1,1.15.36,1.68,1.68,0,0,1,.57.86l-.68.29a1.28,1.28,0,0,0-.34-.58A1,1,0,0,0,109.14,94.7Z"/><path class="k" d="M112,94.59a1.89,1.89,0,0,1,1.42-.58,1.86,1.86,0,0,1,1.41.58,2,2,0,0,1,.55,1.46,2,2,0,0,1-.55,1.47,2,2,0,0,1-2.83,0,2,2,0,0,1-.55-1.47A2,2,0,0,1,112,94.59Zm.56,2.47a1.17,1.17,0,0,0,.86.37,1.15,1.15,0,0,0,.85-.37,1.41,1.41,0,0,0,.35-1,1.38,1.38,0,0,0-.35-1,1.11,1.11,0,0,0-.85-.37,1.14,1.14,0,0,0-.86.37,1.38,1.38,0,0,0-.34,1A1.4,1.4,0,0,0,112.52,97.06Z"/><path class="k" d="M117.05,98h-.74V94.13H117v.51a1.17,1.17,0,0,1,.5-.46,1.44,1.44,0,0,1,.67-.16,1.37,1.37,0,0,1,.69.18,1.18,1.18,0,0,1,.47.54,1.35,1.35,0,0,1,1.28-.72,1.3,1.3,0,0,1,.94.37,1.45,1.45,0,0,1,.39,1.09V98h-.74V95.56a.93.93,0,0,0-.21-.64.75.75,0,0,0-.61-.24.81.81,0,0,0-.64.28,1,1,0,0,0-.25.69V98h-.75V95.56a1,1,0,0,0-.2-.64.77.77,0,0,0-.62-.24.82.82,0,0,0-.64.27,1,1,0,0,0-.25.71Z"/><path class="k" d="M61.94,50.3v-.07a1.38,1.38,0,0,1-.46.5,1.36,1.36,0,0,1-.74.19,1.64,1.64,0,0,1-1.32-.58,2.16,2.16,0,0,1-.5-1.46,2.12,2.12,0,0,1,.51-1.43,1.66,1.66,0,0,1,1.31-.58,1.37,1.37,0,0,1,.77.19,1,1,0,0,1,.41.46V45h.74v5.08c0,.26,0,.5,0,.71H62A2.68,2.68,0,0,1,61.94,50.3Zm-2.25-1.42a1.54,1.54,0,0,0,.3,1,1,1,0,0,0,.83.39,1,1,0,0,0,.8-.39,1.55,1.55,0,0,0,.31-1,1.48,1.48,0,0,0-.3-1,1,1,0,0,0-.81-.37,1,1,0,0,0-.82.38A1.45,1.45,0,0,0,59.69,48.88Z"/><path class="k" d="M63.93,45.9a.55.55,0,0,1-.15-.38.56.56,0,0,1,.15-.39.51.51,0,0,1,.38-.16.53.53,0,0,1,.39.16.53.53,0,0,1,.16.39.53.53,0,0,1-.55.53A.54.54,0,0,1,63.93,45.9Zm.76,4.92h-.75V47h.75Z"/><path class="k" d="M66.71,50.82H66V47h.72v.51a1.15,1.15,0,0,1,.49-.46,1.48,1.48,0,0,1,.68-.16,1.3,1.3,0,0,1,.68.18,1.15,1.15,0,0,1,.47.55,1.34,1.34,0,0,1,1.29-.73,1.31,1.31,0,0,1,.94.37,1.5,1.5,0,0,1,.38,1.09v2.5h-.74V48.4a1,1,0,0,0-.2-.64.77.77,0,0,0-.62-.24.81.81,0,0,0-.64.28,1,1,0,0,0-.24.69v2.33h-.76V48.4a.94.94,0,0,0-.2-.64.76.76,0,0,0-.61-.24.83.83,0,0,0-.65.27,1,1,0,0,0-.25.71Z"/><path class="k" d="M72.81,45.9a.55.55,0,0,1-.15-.38.56.56,0,0,1,.15-.39.51.51,0,0,1,.38-.16.53.53,0,0,1,.39.16.53.53,0,0,1,.16.39.53.53,0,0,1-.55.53A.54.54,0,0,1,72.81,45.9Zm.76,4.92h-.75V47h.75Z"/><path class="k" d="M75.86,45.75V47h.83v.68h-.83v2a.56.56,0,0,0,.12.4.53.53,0,0,0,.41.13,1.39,1.39,0,0,0,.3,0v.64a1.74,1.74,0,0,1-.51.07,1.07,1.07,0,0,1-.79-.29,1.1,1.1,0,0,1-.29-.81V47.65h-.73V47h.21a.57.57,0,0,0,.44-.16.61.61,0,0,0,.15-.43v-.63Z"/><path class="k" d="M79.74,46.93v.8l-.32,0c-.71,0-1.06.39-1.06,1.18v1.93h-.75V47h.73v.67a1.2,1.2,0,0,1,1.16-.73A1,1,0,0,1,79.74,46.93Z"/><path class="k" d="M80.53,45.9a.55.55,0,0,1-.15-.38.56.56,0,0,1,.15-.39.51.51,0,0,1,.38-.16.53.53,0,0,1,.54.55.55.55,0,0,1-.15.38.56.56,0,0,1-.39.15A.54.54,0,0,1,80.53,45.9Zm.76,4.92h-.75V47h.75Z"/><path class="k" d="M86.74,49.72a1.08,1.08,0,0,1-.52-.12.66.66,0,0,1-.28-.39,1.11,1.11,0,0,1-1,.53,1.13,1.13,0,0,1-.88-.38,1.4,1.4,0,0,1-.34-1A1.92,1.92,0,0,1,84.24,47a1.46,1.46,0,0,1,1.13-.53,1.06,1.06,0,0,1,.52.13.7.7,0,0,1,.33.39l.08-.42h.63l-.43,2a.89.89,0,0,0,0,.22c0,.22.1.33.31.33s.42-.15.6-.46a2.16,2.16,0,0,0,.26-1.06A1.91,1.91,0,0,0,87,46.19a2.25,2.25,0,0,0-1.62-.58,2.37,2.37,0,0,0-1.76.71,2.54,2.54,0,0,0-.7,1.84,2.37,2.37,0,0,0,.69,1.76,2.48,2.48,0,0,0,1.86.69,2.59,2.59,0,0,0,1.64-.56l.32.43a2.33,2.33,0,0,1-.89.52,3.14,3.14,0,0,1-1.07.19,3.25,3.25,0,0,1-2.31-.84,2.89,2.89,0,0,1-.89-2.2,3,3,0,0,1,.9-2.24,3,3,0,0,1,2.2-.88,2.92,2.92,0,0,1,2,.74,2.59,2.59,0,0,1,.38,3.36A1.3,1.3,0,0,1,86.74,49.72Zm-.69-1.86a.8.8,0,0,0-.18-.56.63.63,0,0,0-.49-.19.84.84,0,0,0-.69.35,1.32,1.32,0,0,0-.27.82c0,.58.23.87.68.87a.78.78,0,0,0,.67-.36A1.65,1.65,0,0,0,86.05,47.86Z"/><path class="k" d="M89.93,50.82h-.75V45h.75Z"/><path class="k" d="M93.91,49.5l.65.22a1.68,1.68,0,0,1-.63.88,1.76,1.76,0,0,1-1.1.34,1.87,1.87,0,0,1-1.37-.56,2,2,0,0,1-.57-1.5,2,2,0,0,1,.55-1.45,1.84,1.84,0,0,1,2.65,0,2.09,2.09,0,0,1,.49,1.47,1.77,1.77,0,0,1,0,.24h-2.9A1.19,1.19,0,0,0,92,50a1.12,1.12,0,0,0,.82.32A1,1,0,0,0,93.91,49.5Zm-2.22-1H93.8a1,1,0,0,0-1.06-1,1,1,0,0,0-.73.29A1,1,0,0,0,91.69,48.5Z"/><path class="k" d="M97.67,47h.78l1,2.9.84-2.9h.8l-1.25,3.85h-.78l-1-2.93-1,2.93h-.79L95,47h.83l.86,2.9Z"/><path class="k" d="M101.57,49.79a1,1,0,0,1,.32-.8,1.48,1.48,0,0,1,.84-.37l1-.15c.2,0,.3-.13.3-.29a.66.66,0,0,0-.21-.5.92.92,0,0,0-.62-.19.81.81,0,0,0-.87.78l-.72-.17a1.22,1.22,0,0,1,.5-.9,1.72,1.72,0,0,1,1.07-.35,1.61,1.61,0,0,1,1.21.4,1.37,1.37,0,0,1,.39,1v1.93a4,4,0,0,0,.05.63h-.74a4.17,4.17,0,0,1,0-.52,1.4,1.4,0,0,1-1.25.64,1.28,1.28,0,0,1-.92-.34A1.09,1.09,0,0,1,101.57,49.79Zm1.39.52a1.16,1.16,0,0,0,.81-.28,1.09,1.09,0,0,0,.3-.86V49l-1.18.18a.72.72,0,0,0-.4.19.5.5,0,0,0-.16.39.51.51,0,0,0,.18.39A.61.61,0,0,0,103,50.31Z"/><path class="k" d="M105.71,51l.73-.17a1,1,0,0,0,.33.67,1,1,0,0,0,.72.27c.78,0,1.17-.41,1.17-1.24V50a1,1,0,0,1-.45.46,1.4,1.4,0,0,1-.72.18,1.68,1.68,0,0,1-1.27-.53,2,2,0,0,1,0-2.67,1.68,1.68,0,0,1,1.28-.54,1.19,1.19,0,0,1,1.18.61V47h.74v3.56a2.37,2.37,0,0,1-.1.72,1.85,1.85,0,0,1-.31.61,1.48,1.48,0,0,1-.61.44,2.26,2.26,0,0,1-.9.16,1.89,1.89,0,0,1-1.21-.4A1.54,1.54,0,0,1,105.71,51Zm1.89-1a1,1,0,0,0,.79-.34,1.28,1.28,0,0,0,.31-.89,1.3,1.3,0,0,0-.31-.89,1,1,0,0,0-.79-.34,1.07,1.07,0,0,0-.81.33,1.32,1.32,0,0,0-.3.9,1.29,1.29,0,0,0,.3.9A1,1,0,0,0,107.6,50Z"/><path class="k" d="M110.85,47.43a1.86,1.86,0,0,1,1.41-.58,1.89,1.89,0,0,1,1.42.58,2,2,0,0,1,.55,1.46,2,2,0,0,1-.55,1.47,2,2,0,0,1-2.83,0,2.06,2.06,0,0,1-.56-1.47A2,2,0,0,1,110.85,47.43Zm.56,2.47a1.11,1.11,0,0,0,.85.37,1.14,1.14,0,0,0,.86-.37,1.4,1.4,0,0,0,.34-1,1.38,1.38,0,0,0-.34-1,1.14,1.14,0,0,0-.86-.37,1.11,1.11,0,0,0-.85.37,1.38,1.38,0,0,0-.35,1A1.41,1.41,0,0,0,111.41,49.9Z"/><path class="k" d="M115.94,48.6v2.22h-.75V47h.74v.55a1.41,1.41,0,0,1,2.2-.24,1.66,1.66,0,0,1,.36,1.1v2.44h-.76V48.51c0-.65-.29-1-.89-1a.8.8,0,0,0-.66.3A1.17,1.17,0,0,0,115.94,48.6Z"/><path class="k" d="M66.2,62.27a.92.92,0,0,1-.51-.13.57.57,0,0,1-.28-.38,1.13,1.13,0,0,1-1,.52,1.14,1.14,0,0,1-.89-.37,1.4,1.4,0,0,1-.34-1,2,2,0,0,1,.47-1.33,1.46,1.46,0,0,1,1.13-.54,1.1,1.1,0,0,1,.53.14.7.7,0,0,1,.33.39l.07-.42h.63l-.43,2a.93.93,0,0,0,0,.23q0,.33.3.33c.22,0,.42-.16.6-.46a2.06,2.06,0,0,0,.26-1.06,1.9,1.9,0,0,0-.62-1.47,2.29,2.29,0,0,0-1.62-.57,2.37,2.37,0,0,0-1.76.7,2.55,2.55,0,0,0-.69,1.85,2.42,2.42,0,0,0,.68,1.76,2.51,2.51,0,0,0,1.86.69,2.57,2.57,0,0,0,1.64-.56l.33.43a2.63,2.63,0,0,1-.89.51,3.26,3.26,0,0,1-1.08.2,3.21,3.21,0,0,1-2.3-.84,2.89,2.89,0,0,1-.9-2.2,3.06,3.06,0,0,1,3.11-3.13,2.92,2.92,0,0,1,2,.75,2.41,2.41,0,0,1,.82,1.87,2.45,2.45,0,0,1-.44,1.48A1.32,1.32,0,0,1,66.2,62.27Zm-.69-1.87a.82.82,0,0,0-.17-.55.65.65,0,0,0-.5-.2.8.8,0,0,0-.68.36,1.32,1.32,0,0,0-.27.82c0,.58.22.87.68.87a.81.81,0,0,0,.67-.36A1.71,1.71,0,0,0,65.51,60.4Z"/><path class="k" d="M69.39,63.36h-.75V57.57h.75Z"/><path class="k" d="M73.38,62l.64.23a1.66,1.66,0,0,1-.62.87,1.76,1.76,0,0,1-1.1.34,1.9,1.9,0,0,1-1.38-.55,2,2,0,0,1-.56-1.5A2.06,2.06,0,0,1,70.9,60a1.87,1.87,0,0,1,2.66,0,2.17,2.17,0,0,1,.49,1.47,1.44,1.44,0,0,1,0,.24H71.14a1.14,1.14,0,0,0,1.16,1.17A1,1,0,0,0,73.38,62Zm-2.22-1h2.1a1,1,0,0,0-.28-.7,1,1,0,0,0-.77-.28,1,1,0,0,0-.74.29A1.1,1.1,0,0,0,71.16,61Z"/><path class="k" d="M77.14,59.52h.77l1,2.89.85-2.89h.79L79.3,63.36h-.77l-1-2.92-1,2.92h-.79l-1.26-3.84h.82l.87,2.89Z"/><path class="k" d="M81,62.33a1,1,0,0,1,.32-.79,1.52,1.52,0,0,1,.85-.38l1-.15c.2,0,.3-.12.3-.29a.64.64,0,0,0-.21-.49A.9.9,0,0,0,82.7,60a.83.83,0,0,0-.6.21.9.9,0,0,0-.27.56l-.72-.17a1.3,1.3,0,0,1,.51-.9,2,2,0,0,1,2.28,0,1.39,1.39,0,0,1,.39,1v1.93a3.1,3.1,0,0,0,0,.63H83.6a2.82,2.82,0,0,1,0-.52,1.45,1.45,0,0,1-.47.45,1.4,1.4,0,0,1-.77.19,1.29,1.29,0,0,1-.93-.34A1.06,1.06,0,0,1,81,62.33Zm1.39.52a1.17,1.17,0,0,0,.81-.27,1.11,1.11,0,0,0,.31-.86v-.18l-1.18.18a.68.68,0,0,0-.41.18.53.53,0,0,0-.15.39.54.54,0,0,0,.17.39A.6.6,0,0,0,82.42,62.85Z"/><path class="k" d="M85.18,63.57l.72-.17a1,1,0,0,0,.33.68,1,1,0,0,0,.72.27c.79,0,1.18-.42,1.18-1.25v-.55a1.14,1.14,0,0,1-.45.45,1.44,1.44,0,0,1-.73.18,1.69,1.69,0,0,1-1.27-.52,1.88,1.88,0,0,1-.5-1.34,1.92,1.92,0,0,1,.5-1.34A1.64,1.64,0,0,1,87,59.44a1.22,1.22,0,0,1,1.19.61v-.53h.74v3.56a2.34,2.34,0,0,1-.1.71,1.79,1.79,0,0,1-.32.61,1.31,1.31,0,0,1-.6.44A2.31,2.31,0,0,1,87,65a1.86,1.86,0,0,1-1.21-.4A1.46,1.46,0,0,1,85.18,63.57Zm1.88-1a1.06,1.06,0,0,0,.8-.34,1.49,1.49,0,0,0,0-1.79,1.11,1.11,0,0,0-1.6,0,1.25,1.25,0,0,0-.31.9,1.32,1.32,0,0,0,.3.9A1,1,0,0,0,87.06,62.55Z"/><path class="k" d="M90.32,60a2,2,0,0,1,2.82,0,2.18,2.18,0,0,1,0,2.92,1.84,1.84,0,0,1-1.41.58,1.86,1.86,0,0,1-1.42-.58,2.2,2.2,0,0,1,0-2.92Zm.56,2.47a1.13,1.13,0,0,0,.85.36,1.14,1.14,0,0,0,.85-.36,1.63,1.63,0,0,0,0-2,1.14,1.14,0,0,0-.85-.36,1.13,1.13,0,0,0-.85.36,1.63,1.63,0,0,0,0,2Z"/><path class="k" d="M95.41,61.14v2.22h-.75V59.52h.73v.55a1.29,1.29,0,0,1,1.19-.67,1.28,1.28,0,0,1,1,.43A1.68,1.68,0,0,1,98,60.92v2.44H97.2V61.05c0-.64-.3-1-.9-1a.8.8,0,0,0-.66.3A1.25,1.25,0,0,0,95.41,61.14Z"/><path class="k" d="M99.23,63.24a.5.5,0,0,1-.16-.39.51.51,0,0,1,.16-.39.54.54,0,0,1,.39-.17.54.54,0,0,1,.4.17.51.51,0,0,1,.16.39.5.5,0,0,1-.16.39.54.54,0,0,1-.4.16A.53.53,0,0,1,99.23,63.24Z"/><path class="k" d="M102.88,60.09a1.13,1.13,0,0,0-.83.35,1.63,1.63,0,0,0,0,2,1.12,1.12,0,0,0,.84.36,1,1,0,0,0,.73-.24A1.24,1.24,0,0,0,104,62l.66.28a1.76,1.76,0,0,1-1.73,1.2,1.81,1.81,0,0,1-1.39-.58,2,2,0,0,1-.56-1.46A2,2,0,0,1,101.5,60a1.82,1.82,0,0,1,1.38-.57,1.73,1.73,0,0,1,1.14.36,1.64,1.64,0,0,1,.57.86l-.68.29a1.24,1.24,0,0,0-.33-.58A1,1,0,0,0,102.88,60.09Z"/><path class="k" d="M105.7,60a2,2,0,0,1,2.82,0,2,2,0,0,1,.56,1.46,2,2,0,0,1-.55,1.46,1.86,1.86,0,0,1-1.42.58,1.84,1.84,0,0,1-1.41-.58,2.18,2.18,0,0,1,0-2.92Zm.56,2.47a1.14,1.14,0,0,0,.85.36,1.13,1.13,0,0,0,.85-.36,1.63,1.63,0,0,0,0-2,1.13,1.13,0,0,0-.85-.36,1.14,1.14,0,0,0-.85.36,1.63,1.63,0,0,0,0,2Z"/><path class="k" d="M110.78,63.36H110V59.52h.72V60a1.14,1.14,0,0,1,.5-.47,1.54,1.54,0,0,1,.67-.16,1.38,1.38,0,0,1,.69.19,1.12,1.12,0,0,1,.46.54,1.38,1.38,0,0,1,1.29-.73,1.31,1.31,0,0,1,.94.38,1.44,1.44,0,0,1,.39,1.09v2.49H115V61a1,1,0,0,0-.2-.64.76.76,0,0,0-.61-.24.81.81,0,0,0-.64.27,1,1,0,0,0-.25.7v2.32h-.75V61a.93.93,0,0,0-.21-.64.75.75,0,0,0-.61-.24.85.85,0,0,0-.65.27,1,1,0,0,0-.25.7Z"/><path class="k" d="M54.88,75.91h-.74V70.12h.74v2.49a1.24,1.24,0,0,1,.49-.47,1.52,1.52,0,0,1,.79-.19,1.58,1.58,0,0,1,1.3.57,2.49,2.49,0,0,1,0,2.91,1.59,1.59,0,0,1-1.31.58,1.35,1.35,0,0,1-1.25-.66Zm2-1a1.71,1.71,0,0,0,0-2,1,1,0,0,0-.83-.37,1,1,0,0,0-.82.37,1.41,1.41,0,0,0-.32,1,1.45,1.45,0,0,0,.32,1,1,1,0,0,0,.82.38A1,1,0,0,0,56.84,75Z"/><path class="k" d="M59.12,72.52a2,2,0,0,1,2.82,0,2.21,2.21,0,0,1,0,2.93,1.86,1.86,0,0,1-1.42.58,1.84,1.84,0,0,1-1.41-.58A2.06,2.06,0,0,1,58.56,74,2,2,0,0,1,59.12,72.52ZM59.68,75a1.11,1.11,0,0,0,.85.37,1.1,1.1,0,0,0,.85-.37,1.37,1.37,0,0,0,.35-1,1.34,1.34,0,0,0-.35-1,1.1,1.1,0,0,0-.85-.37,1.11,1.11,0,0,0-.85.37,1.38,1.38,0,0,0-.35,1A1.41,1.41,0,0,0,59.68,75Z"/><path class="k" d="M65.6,72v.8l-.33,0c-.71,0-1.06.39-1.06,1.18v1.93h-.75V72.06h.74v.67A1.18,1.18,0,0,1,65.35,72,1.06,1.06,0,0,1,65.6,72Z"/><path class="k" d="M66.38,71a.51.51,0,0,1-.15-.37.56.56,0,0,1,.15-.39.51.51,0,0,1,.38-.16.53.53,0,0,1,.39.16.53.53,0,0,1,.16.39.55.55,0,0,1-.55.53A.51.51,0,0,1,66.38,71Zm.76,4.93H66.4V72.06h.74Z"/><path class="k" d="M68.06,74.91l.68-.24a.85.85,0,0,0,.27.52,1,1,0,0,0,.63.2.73.73,0,0,0,.48-.15.48.48,0,0,0,.17-.36c0-.26-.16-.42-.49-.5l-.66-.14a1.3,1.3,0,0,1-.7-.39,1,1,0,0,1-.26-.69,1.11,1.11,0,0,1,.4-.86,1.4,1.4,0,0,1,1-.36,1.88,1.88,0,0,1,.65.11,1.16,1.16,0,0,1,.45.28,1.5,1.5,0,0,1,.24.33A2,2,0,0,1,71,73l-.66.25a.7.7,0,0,0-.06-.19.88.88,0,0,0-.12-.2.52.52,0,0,0-.25-.18.84.84,0,0,0-.37-.07.69.69,0,0,0-.46.15.45.45,0,0,0-.18.36c0,.25.14.4.44.47l.62.13a1.43,1.43,0,0,1,.79.42,1.05,1.05,0,0,1,.28.73,1.13,1.13,0,0,1-.38.82,1.37,1.37,0,0,1-1,.37,1.58,1.58,0,0,1-1.11-.36A1.24,1.24,0,0,1,68.06,74.91Z"/><path class="k" d="M76.2,74.81a1.07,1.07,0,0,1-.51-.12.62.62,0,0,1-.28-.39,1.11,1.11,0,0,1-1,.53,1.13,1.13,0,0,1-.88-.38,1.4,1.4,0,0,1-.34-1,1.92,1.92,0,0,1,.47-1.33,1.46,1.46,0,0,1,1.13-.53,1.06,1.06,0,0,1,.52.13.7.7,0,0,1,.33.39l.07-.42h.64l-.44,2a1.8,1.8,0,0,0,0,.22q0,.33.3.33c.23,0,.43-.15.6-.46a2.06,2.06,0,0,0,.27-1.06,1.91,1.91,0,0,0-.62-1.46,2.28,2.28,0,0,0-1.62-.58,2.37,2.37,0,0,0-1.76.71,2.5,2.5,0,0,0-.7,1.84A2.37,2.37,0,0,0,73.1,75,2.48,2.48,0,0,0,75,75.7a2.59,2.59,0,0,0,1.64-.56l.32.43a2.41,2.41,0,0,1-.89.52,3.14,3.14,0,0,1-1.07.19,3.25,3.25,0,0,1-2.31-.84,2.86,2.86,0,0,1-.89-2.2,3,3,0,0,1,.9-2.24,3,3,0,0,1,2.2-.88,2.92,2.92,0,0,1,2,.74,2.62,2.62,0,0,1,.38,3.36A1.32,1.32,0,0,1,76.2,74.81ZM75.52,73a.8.8,0,0,0-.18-.56.63.63,0,0,0-.5-.19.84.84,0,0,0-.68.35,1.32,1.32,0,0,0-.27.82c0,.58.23.87.68.87a.79.79,0,0,0,.67-.36A1.65,1.65,0,0,0,75.52,73Z"/><path class="k" d="M79.4,75.91h-.76V70.12h.76Z"/><path class="k" d="M83.38,74.59l.65.22a1.68,1.68,0,0,1-.63.88,1.76,1.76,0,0,1-1.1.34,1.87,1.87,0,0,1-1.37-.56,2.22,2.22,0,0,1,0-3,1.84,1.84,0,0,1,2.65,0A2.09,2.09,0,0,1,84.05,74a1.77,1.77,0,0,1,0,.24h-2.9a1.15,1.15,0,0,0,.34.84,1.1,1.1,0,0,0,.82.32A1,1,0,0,0,83.38,74.59Zm-2.22-1h2.11a1,1,0,0,0-.29-.71,1,1,0,0,0-.77-.27,1,1,0,0,0-.73.29A1,1,0,0,0,81.16,73.59Z"/><path class="k" d="M87.14,72.06h.78l1,2.9.84-2.9h.8l-1.25,3.85h-.78l-1-2.93-1,2.93h-.79l-1.27-3.85h.83l.86,2.9Z"/><path class="k" d="M91,74.88a1,1,0,0,1,.32-.8,1.48,1.48,0,0,1,.84-.37l1-.15c.2,0,.3-.13.3-.29a.66.66,0,0,0-.21-.5.94.94,0,0,0-.62-.19.81.81,0,0,0-.87.78l-.72-.17a1.22,1.22,0,0,1,.5-.9,1.72,1.72,0,0,1,1.07-.35,1.61,1.61,0,0,1,1.21.4,1.37,1.37,0,0,1,.39,1v1.93a4,4,0,0,0,0,.63H93.6a4.07,4.07,0,0,1,0-.52,1.42,1.42,0,0,1-.46.45,1.55,1.55,0,0,1-.78.19,1.3,1.3,0,0,1-.93-.34A1.11,1.11,0,0,1,91,74.88Zm1.39.52a1.16,1.16,0,0,0,.81-.28,1.09,1.09,0,0,0,.3-.86v-.18l-1.18.18a.86.86,0,0,0-.41.18.54.54,0,0,0-.15.4.51.51,0,0,0,.18.39A.61.61,0,0,0,92.43,75.4Z"/><path class="k" d="M95.18,76.12l.73-.17a.94.94,0,0,0,.33.67,1,1,0,0,0,.72.27c.78,0,1.17-.41,1.17-1.24v-.56a1,1,0,0,1-.45.46,1.43,1.43,0,0,1-.72.18,1.67,1.67,0,0,1-1.27-.53,1.84,1.84,0,0,1-.5-1.34,1.89,1.89,0,0,1,.49-1.33A1.66,1.66,0,0,1,97,72a1.19,1.19,0,0,1,1.18.61v-.54h.74v3.56a2.37,2.37,0,0,1-.1.72,1.85,1.85,0,0,1-.31.61,1.48,1.48,0,0,1-.61.44,2.29,2.29,0,0,1-.9.16,1.89,1.89,0,0,1-1.21-.4A1.54,1.54,0,0,1,95.18,76.12Zm1.89-1a1,1,0,0,0,.79-.34,1.28,1.28,0,0,0,.3-.89,1.3,1.3,0,0,0-.3-.89,1,1,0,0,0-.79-.34,1.07,1.07,0,0,0-.81.33,1.32,1.32,0,0,0-.3.9,1.29,1.29,0,0,0,.3.9A1,1,0,0,0,97.07,75.09Z"/><path class="k" d="M100.32,72.52a2,2,0,0,1,2.82,0,2.21,2.21,0,0,1,0,2.93,1.86,1.86,0,0,1-1.42.58,1.84,1.84,0,0,1-1.41-.58A2.06,2.06,0,0,1,99.76,74,2,2,0,0,1,100.32,72.52Zm.56,2.47a1.11,1.11,0,0,0,.85.37,1.1,1.1,0,0,0,.85-.37,1.37,1.37,0,0,0,.35-1,1.34,1.34,0,0,0-.35-1,1.1,1.1,0,0,0-.85-.37,1.11,1.11,0,0,0-.85.37,1.38,1.38,0,0,0-.35,1A1.41,1.41,0,0,0,100.88,75Z"/><path class="k" d="M105.41,73.69v2.22h-.75V72.06h.73v.55a1.29,1.29,0,0,1,1.19-.66,1.27,1.27,0,0,1,1,.42,1.65,1.65,0,0,1,.35,1.1v2.44h-.75V73.6c0-.65-.3-1-.89-1a.77.77,0,0,0-.66.3A1.17,1.17,0,0,0,105.41,73.69Z"/><path class="k" d="M110.77,72.64a1.1,1.1,0,0,0-.83.35,1.38,1.38,0,0,0-.34,1,1.41,1.41,0,0,0,.34,1,1.12,1.12,0,0,0,.84.36,1,1,0,0,0,.73-.24,1.18,1.18,0,0,0,.34-.55l.67.29a1.83,1.83,0,0,1-.61.84,1.72,1.72,0,0,1-1.13.36,1.84,1.84,0,0,1-1.39-.59,2.2,2.2,0,0,1,0-2.93,1.85,1.85,0,0,1,1.38-.57,1.73,1.73,0,0,1,1.14.36,1.68,1.68,0,0,1,.57.86l-.68.29a1.26,1.26,0,0,0-.33-.57A1,1,0,0,0,110.77,72.64Z"/><path class="k" d="M113.59,72.52a1.86,1.86,0,0,1,1.41-.58,1.89,1.89,0,0,1,1.42.58A2,2,0,0,1,117,74a2,2,0,0,1-.55,1.47,2,2,0,0,1-2.83,0A2,2,0,0,1,113,74,2,2,0,0,1,113.59,72.52Zm.56,2.47a1.11,1.11,0,0,0,.85.37,1.14,1.14,0,0,0,.86-.37,1.4,1.4,0,0,0,.34-1,1.38,1.38,0,0,0-.34-1,1.14,1.14,0,0,0-.86-.37,1.11,1.11,0,0,0-.85.37,1.38,1.38,0,0,0-.35,1A1.41,1.41,0,0,0,114.15,75Z"/><path class="k" d="M118.68,75.91h-.75V72.06h.72v.51a1.17,1.17,0,0,1,.5-.46,1.44,1.44,0,0,1,.67-.16,1.37,1.37,0,0,1,.69.18,1.13,1.13,0,0,1,.46.55,1.36,1.36,0,0,1,1.29-.73,1.3,1.3,0,0,1,.94.37,1.47,1.47,0,0,1,.39,1.09v2.5h-.75V73.49a.94.94,0,0,0-.2-.64.76.76,0,0,0-.61-.24.8.8,0,0,0-.64.28,1,1,0,0,0-.25.69v2.33h-.75V73.49a1,1,0,0,0-.21-.64.75.75,0,0,0-.61-.24.86.86,0,0,0-.65.27,1.05,1.05,0,0,0-.24.71Z"/><rect class="p" x="119.5" y="138.17" width="20.82" height="6.88" rx="1"/><rect class="p" x="119.5" y="146.86" width="20.82" height="6.88" rx="1"/><rect class="p" x="119.5" y="155.54" width="20.82" height="6.88" rx="1"/><path class="p" d="M54.78,162.42H41.57c-.28,0-.51-.3-.51-.68l-2.65-22.89a.7.7,0,0,1,.71-.68H57.34a.7.7,0,0,1,.72.68L55.3,161.74A.62.62,0,0,1,54.78,162.42Z"/><polygon class="m" points="103.19 187.43 171.81 107.18 171.81 184.54 166.95 187.43 103.19 187.43"/></symbol><symbol id="e" viewBox="0 0 174.65 187.81"><use width="180.96" height="194.59" transform="translate(0.01 0.01) scale(0.96)" xlink:href="#b"/><rect class="q" x="8.82" y="16.6" width="157.01" height="161.8"/><rect class="r" x="49.65" y="67.32" width="13.63" height="74.61"/><rect class="s" x="82.66" y="90.92" width="13.63" height="50.63"/><rect class="t" x="115.68" y="107.18" width="13.63" height="34.75"/><path class="k" d="M53.43,153.37h-.91v-1h.91v-.59c0-1.11.57-1.66,1.81-1.66a3.58,3.58,0,0,1,.7.06v.93a2.46,2.46,0,0,0-.43,0c-.6,0-.83.26-.83.79v.5h1.21v1h-1.2v4.53H53.43Z"/><path class="k" d="M57.11,152.32h1.22v.87h.08a1.49,1.49,0,0,1,1.48-1,2,2,0,0,1,.52.06v1.17a3.29,3.29,0,0,0-.65-.07,1.27,1.27,0,0,0-1.39,1.29v3.22H57.11Z"/><path class="k" d="M83.57,155.11c0-1.77.89-2.88,2.29-2.88a1.8,1.8,0,0,1,1.69,1h.09v-3H88.9v7.73H87.68V157h-.09a1.86,1.86,0,0,1-1.73,1C84.45,158,83.57,156.88,83.57,155.11Zm1.29,0c0,1.13.53,1.81,1.39,1.81s1.41-.69,1.41-1.81-.54-1.8-1.41-1.8S84.86,154,84.86,155.11Z"/><path class="k" d="M95.33,156.37A2.29,2.29,0,0,1,92.86,158c-1.64,0-2.63-1.08-2.63-2.88s1-2.92,2.62-2.92,2.54,1.06,2.54,2.82v.4H91.5v.07A1.38,1.38,0,0,0,92.89,157a1.26,1.26,0,0,0,1.25-.64Zm-3.83-1.8h2.63a1.27,1.27,0,0,0-1.29-1.35A1.34,1.34,0,0,0,91.5,154.57Z"/><path class="k" d="M116,154.2a1.15,1.15,0,0,0-1.22-.93c-.87,0-1.38.67-1.38,1.83s.52,1.85,1.38,1.85a1.13,1.13,0,0,0,1.22-.89h1.21a2.21,2.21,0,0,1-2.43,1.95c-1.67,0-2.66-1.08-2.66-2.91s1-2.89,2.66-2.89a2.22,2.22,0,0,1,2.43,2Z"/><path class="k" d="M118.09,155.11a2.69,2.69,0,1,1,2.68,2.9A2.59,2.59,0,0,1,118.09,155.11Zm4.07,0c0-1.16-.51-1.84-1.39-1.84s-1.38.68-1.38,1.84.5,1.84,1.38,1.84S122.16,156.28,122.16,155.11Z"/><path class="k" d="M124.73,152.32H126v.91H126a1.57,1.57,0,0,1,1.55-1,1.54,1.54,0,0,1,1.54,1h.08a1.8,1.8,0,0,1,1.69-1,1.68,1.68,0,0,1,1.79,1.86v3.83h-1.26v-3.51q0-1.08-1-1.08a1.06,1.06,0,0,0-1.09,1.12v3.47H128.1v-3.6a.93.93,0,0,0-1-1,1.12,1.12,0,0,0-1.09,1.2v3.39h-1.27Z"/><polyline class="p" points="33.08 44.3 33.08 141.93 150.02 141.93"/><polygon class="k" points="29.34 45.39 33.08 38.91 36.82 45.39 29.34 45.39"/><polygon class="m" points="105.66 187.43 174.28 107.18 174.28 184.54 169.42 187.43 105.66 187.43"/></symbol><symbol id="g" viewBox="0 0 174.65 187.81"><use width="180.96" height="194.59" transform="translate(0.01 0.01) scale(0.96)" xlink:href="#b"/><rect class="u" x="8.82" y="68.82" width="157.01" height="109.58"/><rect class="v" x="8.82" y="20.11" width="157.01" height="42.18"/><path class="l" d="M27,29.69H25.06v5h-.49v-5H22.64v-.45H27Z"/><path class="l" d="M27.3,31.48a1.68,1.68,0,0,1,1.28-.55,1.7,1.7,0,0,1,1.29.55,2.11,2.11,0,0,1,0,2.8,1.73,1.73,0,0,1-1.29.54,1.69,1.69,0,0,1-1.27-.54,2.13,2.13,0,0,1,0-2.8ZM27.65,34a1.21,1.21,0,0,0,.93.4,1.23,1.23,0,0,0,.94-.4,1.56,1.56,0,0,0,.41-1.12,1.62,1.62,0,0,0-.41-1.13,1.23,1.23,0,0,0-.94-.39,1.21,1.21,0,0,0-.93.39,1.61,1.61,0,0,0-.4,1.13A1.55,1.55,0,0,0,27.65,34Z"/><path class="l" d="M31.66,31.81a.36.36,0,0,1-.28-.11.41.41,0,0,1,0-.58.36.36,0,0,1,.28-.12.41.41,0,0,1,.3.12.44.44,0,0,1,0,.58A.4.4,0,0,1,31.66,31.81Zm.3,2.82a.41.41,0,0,1-.58,0,.39.39,0,0,1-.11-.28.42.42,0,0,1,.11-.29.41.41,0,0,1,.58,0,.38.38,0,0,1,.12.29A.36.36,0,0,1,32,34.63Z"/><path class="l" d="M34.94,33.74l.42-.15a1,1,0,0,0,.31.6,1.05,1.05,0,0,0,.7.23.92.92,0,0,0,.6-.19.57.57,0,0,0,.23-.47q0-.49-.63-.63L36,33a1,1,0,0,1-.51-1.75,1.3,1.3,0,0,1,.87-.32,1.37,1.37,0,0,1,.94.33,1.2,1.2,0,0,1,.37.65l-.41.16a.88.88,0,0,0-.25-.5.93.93,0,0,0-.65-.23.9.9,0,0,0-.55.17.58.58,0,0,0-.24.47c0,.3.19.5.57.59l.61.13c.63.15.95.49.95,1a1,1,0,0,1-.33.75,1.37,1.37,0,0,1-1,.34,1.45,1.45,0,0,1-1-.35A1.21,1.21,0,0,1,34.94,33.74Z"/><path class="l" d="M41.34,33.53l.41.15a1.67,1.67,0,0,1-.56.8,1.69,1.69,0,0,1-1,.34,1.65,1.65,0,0,1-1.26-.52,2,2,0,0,1-.53-1.44,2,2,0,0,1,.51-1.39,1.53,1.53,0,0,1,1.19-.54,1.64,1.64,0,0,1,1.27.53,2,2,0,0,1,.46,1.34s0,.08,0,.17H38.83v0a1.43,1.43,0,0,0,.38,1,1.24,1.24,0,0,0,.93.39,1.27,1.27,0,0,0,.79-.26A1.26,1.26,0,0,0,41.34,33.53Zm-2.5-1h2.45a1.3,1.3,0,0,0-.33-.87,1.19,1.19,0,0,0-.9-.36,1.16,1.16,0,0,0-.85.36A1.38,1.38,0,0,0,38.84,32.58Z"/><path class="l" d="M43.21,34.72h-.45V29.14h.45v2.6a1.42,1.42,0,0,1,.46-.54,1.5,1.5,0,0,1,.88-.26,1.55,1.55,0,0,1,1.23.55,2.1,2.1,0,0,1,.44,1.37,2.06,2.06,0,0,1-.45,1.39,1.56,1.56,0,0,1-1.24.56,1.4,1.4,0,0,1-.85-.25,1.42,1.42,0,0,1-.47-.56ZM45.4,34a1.7,1.7,0,0,0,.34-1.1,1.63,1.63,0,0,0-.34-1.08,1.15,1.15,0,0,0-.93-.43,1.1,1.1,0,0,0-.91.43,1.62,1.62,0,0,0-.36,1.08,1.66,1.66,0,0,0,.36,1.1,1.1,1.1,0,0,0,.91.44A1.16,1.16,0,0,0,45.4,34Z"/><path class="l" d="M52.11,33.05a1.19,1.19,0,0,1-1,.55.82.82,0,0,1-.51-.16.6.6,0,0,1-.21-.44,1.07,1.07,0,0,1-1,.61,1,1,0,0,1-.8-.36,1.28,1.28,0,0,1-.32-.93,1.85,1.85,0,0,1,.42-1.22,1.36,1.36,0,0,1,1.06-.52.9.9,0,0,1,.55.17.7.7,0,0,1,.3.45l.1-.53h.39l-.39,1.93c0,.14,0,.21,0,.22a.38.38,0,0,0,.43.43.81.81,0,0,0,.68-.46,2,2,0,0,0,.32-1.14,2.06,2.06,0,0,0-.61-1.49,2.35,2.35,0,0,0-1.71-.65,2.41,2.41,0,0,0-1.8.74,2.65,2.65,0,0,0-.73,1.9A2.43,2.43,0,0,0,48,34a2.75,2.75,0,0,0,3.7,0l.21.26a2.77,2.77,0,0,1-.91.6,3.29,3.29,0,0,1-1.11.21,3,3,0,0,1-2.16-.82,2.82,2.82,0,0,1-.84-2.1,2.94,2.94,0,0,1,2.93-3,2.78,2.78,0,0,1,2,.76,2.32,2.32,0,0,1,.74,1.75A2.21,2.21,0,0,1,52.11,33.05Zm-1.86-.28a2.1,2.1,0,0,0,.27-1,.86.86,0,0,0-.2-.59.68.68,0,0,0-.55-.22.91.91,0,0,0-.74.39,1.48,1.48,0,0,0-.31.92,1.17,1.17,0,0,0,.19.68.65.65,0,0,0,.58.29A.86.86,0,0,0,50.25,32.77Z"/><path class="l" d="M54,34.72h-.46V29.14H54Z"/><path class="l" d="M57.93,33.53l.41.15a1.67,1.67,0,0,1-.56.8,1.69,1.69,0,0,1-1.05.34,1.65,1.65,0,0,1-1.26-.52,2,2,0,0,1-.53-1.44,2,2,0,0,1,.51-1.39,1.53,1.53,0,0,1,1.19-.54,1.64,1.64,0,0,1,1.27.53,2,2,0,0,1,.46,1.34s0,.08,0,.17H55.42v0a1.43,1.43,0,0,0,.38,1,1.24,1.24,0,0,0,.93.39,1.27,1.27,0,0,0,.79-.26A1.33,1.33,0,0,0,57.93,33.53Zm-2.5-1h2.45a1.3,1.3,0,0,0-.33-.87,1.19,1.19,0,0,0-.9-.36,1.16,1.16,0,0,0-.85.36A1.38,1.38,0,0,0,55.43,32.58Z"/><path class="l" d="M61.35,31h.5l1.09,3.12,1-3.12h.49l-1.22,3.69H62.7L61.59,31.6l-1.1,3.12H60L58.76,31h.51l1,3.12Z"/><path class="l" d="M65.22,34.49a.92.92,0,0,1-.31-.72c0-.6.37-1,1.11-1.09l1-.15c.25,0,.38-.16.38-.36a.82.82,0,0,0-.24-.61,1,1,0,0,0-.68-.22,1.06,1.06,0,0,0-.72.23.91.91,0,0,0-.31.63L65,32.1a1.28,1.28,0,0,1,.47-.85,1.58,1.58,0,0,1,1-.32,1.43,1.43,0,0,1,1.06.38,1.3,1.3,0,0,1,.34.91v1.86a4.49,4.49,0,0,0,0,.64h-.44a2.4,2.4,0,0,1,0-.64,1.21,1.21,0,0,1-.46.49,1.41,1.41,0,0,1-.82.24A1.29,1.29,0,0,1,65.22,34.49Zm.16-.75a.66.66,0,0,0,.21.48.82.82,0,0,0,.58.2,1.18,1.18,0,0,0,.87-.33,1.14,1.14,0,0,0,.34-.88v-.44s-.09,0-.19.08l-.29.07-.82.12C65.62,33.11,65.38,33.34,65.38,33.74Z"/><path class="l" d="M68.72,34.93l.44-.11a1.13,1.13,0,0,0,.37.75,1.2,1.2,0,0,0,.81.31,1.17,1.17,0,0,0,1-.43,1.63,1.63,0,0,0,.27-1v-.67a1.14,1.14,0,0,1-.44.5,1.34,1.34,0,0,1-.81.24A1.52,1.52,0,0,1,69.18,34a1.76,1.76,0,0,1-.46-1.28,1.8,1.8,0,0,1,.45-1.26,1.68,1.68,0,0,1,2-.31,1.12,1.12,0,0,1,.44.53V31h.46v3.42a2,2,0,0,1-.36,1.24,1.85,1.85,0,0,1-2.48.21A1.41,1.41,0,0,1,68.72,34.93Zm.81-1.21a1.14,1.14,0,0,0,.89.39,1.12,1.12,0,0,0,.88-.39,1.64,1.64,0,0,0,0-2,1.12,1.12,0,0,0-.88-.39,1.16,1.16,0,0,0-.89.38,1.44,1.44,0,0,0-.34,1A1.4,1.4,0,0,0,69.53,33.72Z"/><path class="l" d="M73.51,31.48a1.68,1.68,0,0,1,1.28-.55,1.7,1.7,0,0,1,1.29.55,2.11,2.11,0,0,1,0,2.8,1.73,1.73,0,0,1-1.29.54,1.69,1.69,0,0,1-1.27-.54,2.13,2.13,0,0,1,0-2.8ZM73.86,34a1.21,1.21,0,0,0,.93.4,1.27,1.27,0,0,0,.95-.4,1.6,1.6,0,0,0,.4-1.12,1.66,1.66,0,0,0-.4-1.13,1.27,1.27,0,0,0-.95-.39,1.21,1.21,0,0,0-.93.39,1.61,1.61,0,0,0-.4,1.13A1.55,1.55,0,0,0,73.86,34Z"/><path class="l" d="M78.06,32.52v2.2H77.6V31H78v.63a1.24,1.24,0,0,1,1.2-.72,1.26,1.26,0,0,1,1,.4,1.41,1.41,0,0,1,.32,1v2.4h-.46V32.39a1.05,1.05,0,0,0-.24-.73.94.94,0,0,0-.75-.3.93.93,0,0,0-.75.35A1.16,1.16,0,0,0,78.06,32.52Z"/><path class="l" d="M82.1,34.75a.38.38,0,0,1-.28-.12.36.36,0,0,1-.12-.28.38.38,0,0,1,.12-.29.38.38,0,0,1,.28-.12.41.41,0,0,1,.3.12.42.42,0,0,1,.11.29.39.39,0,0,1-.11.28A.41.41,0,0,1,82.1,34.75Z"/><path class="l" d="M85.83,31.65a1.15,1.15,0,0,0-.81-.29,1.2,1.2,0,0,0-.94.4,1.61,1.61,0,0,0-.39,1.12,1.52,1.52,0,0,0,.39,1.1,1.18,1.18,0,0,0,.94.41,1.13,1.13,0,0,0,.82-.29,1.28,1.28,0,0,0,.38-.6l.41.17a1.58,1.58,0,0,1-.53.78,1.78,1.78,0,0,1-2.37-.18,1.94,1.94,0,0,1-.51-1.39,2,2,0,0,1,.51-1.4A1.7,1.7,0,0,1,85,30.93a1.56,1.56,0,0,1,1.58,1.16l-.41.17A1.34,1.34,0,0,0,85.83,31.65Z"/><path class="l" d="M87.73,31.48A1.68,1.68,0,0,1,89,30.93a1.7,1.7,0,0,1,1.29.55,2.11,2.11,0,0,1,0,2.8,1.73,1.73,0,0,1-1.29.54,1.69,1.69,0,0,1-1.27-.54,2,2,0,0,1-.53-1.4A1.91,1.91,0,0,1,87.73,31.48ZM88.08,34a1.21,1.21,0,0,0,.93.4A1.27,1.27,0,0,0,90,34a1.6,1.6,0,0,0,.4-1.12,1.66,1.66,0,0,0-.4-1.13,1.25,1.25,0,0,0-.95-.39,1.21,1.21,0,0,0-.93.39,1.61,1.61,0,0,0-.4,1.13A1.55,1.55,0,0,0,88.08,34Z"/><path class="l" d="M92.27,34.72h-.45V31h.44v.62a1.23,1.23,0,0,1,.45-.51,1.35,1.35,0,0,1,.73-.2,1.29,1.29,0,0,1,.74.22,1.15,1.15,0,0,1,.42.62,1.26,1.26,0,0,1,1.26-.84,1.28,1.28,0,0,1,.91.35,1.42,1.42,0,0,1,.37,1v2.43h-.47V32.34a1,1,0,0,0-.25-.71.85.85,0,0,0-.69-.28,1,1,0,0,0-.74.33,1.12,1.12,0,0,0-.29.78v2.26h-.46V32.34a1,1,0,0,0-.24-.71.88.88,0,0,0-.7-.28,1,1,0,0,0-.74.33,1.12,1.12,0,0,0-.29.78Z"/><path class="l" d="M26.77,48.88l-1,.3a.93.93,0,0,0-1-.78.9.9,0,0,0-.62.21.63.63,0,0,0-.24.49c0,.33.2.54.59.62l.77.14a2,2,0,0,1,1.12.58,1.5,1.5,0,0,1,.41,1,1.56,1.56,0,0,1-.54,1.18,2,2,0,0,1-1.44.51,2.45,2.45,0,0,1-.93-.16,1.82,1.82,0,0,1-.68-.41,1.85,1.85,0,0,1-.39-.55,1.6,1.6,0,0,1-.18-.6l1-.26a1.19,1.19,0,0,0,.34.74,1.22,1.22,0,0,0,.86.29,1,1,0,0,0,.65-.19.61.61,0,0,0,.06-.9.94.94,0,0,0-.49-.23l-.76-.16a1.89,1.89,0,0,1-1.05-.54,1.44,1.44,0,0,1-.39-1A1.57,1.57,0,0,1,23.46,48a2,2,0,0,1,1.35-.5,2.74,2.74,0,0,1,.84.13,1.56,1.56,0,0,1,.59.36,1.61,1.61,0,0,1,.35.45A2,2,0,0,1,26.77,48.88Z"/><path class="l" d="M30.06,53.05a2.22,2.22,0,0,1,0-.41.91.91,0,0,1-.44.38,1.42,1.42,0,0,1-.61.13,1.34,1.34,0,0,1-1.06-.43,1.52,1.52,0,0,1-.39-1.07v-2.4h1v2.2a.83.83,0,0,0,.18.55.64.64,0,0,0,.51.21.71.71,0,0,0,.53-.2.77.77,0,0,0,.19-.55V49.25h1v3.11a4.93,4.93,0,0,0,0,.69Z"/><path class="l" d="M33.09,53.05h-1V47.46h1v2.21a1.1,1.1,0,0,1,.44-.37,1.58,1.58,0,0,1,.71-.15,1.6,1.6,0,0,1,1.28.56A2.16,2.16,0,0,1,36,51.14a2.12,2.12,0,0,1-.5,1.44,1.61,1.61,0,0,1-1.29.57,1.23,1.23,0,0,1-1.13-.56Zm1.63-1.11a1.17,1.17,0,0,0,.26-.79,1.14,1.14,0,0,0-.26-.79.94.94,0,0,0-1.36,0,1.27,1.27,0,0,0,0,1.58.88.88,0,0,0,.67.29A.91.91,0,0,0,34.72,51.94Z"/><path class="l" d="M36.82,53.28v-4h1v4.13a1.27,1.27,0,0,1-.33.91,1.11,1.11,0,0,1-.86.35,1.46,1.46,0,0,1-.58-.09v-.86a1.2,1.2,0,0,0,.31,0C36.68,53.73,36.82,53.58,36.82,53.28Zm.06-4.83A.61.61,0,0,1,36.7,48a.64.64,0,0,1,.18-.45.62.62,0,0,1,.45-.19.64.64,0,0,1,.45,1.09.64.64,0,0,1-.45.18A.61.61,0,0,1,36.88,48.45Z"/><path class="l" d="M41.49,51.71l.86.25a1.72,1.72,0,0,1-.61.87,1.78,1.78,0,0,1-1.12.34,2.07,2.07,0,0,1-1.41-3.47,1.77,1.77,0,0,1,1.32-.56,1.79,1.79,0,0,1,1.37.52,2,2,0,0,1,.5,1.45v.14a.57.57,0,0,0,0,.12v.05H39.67A.85.85,0,0,0,40,52a1,1,0,0,0,.67.25A.83.83,0,0,0,41.49,51.71Zm-1.8-1h1.7a.78.78,0,0,0-.23-.53.94.94,0,0,0-1.22,0A.77.77,0,0,0,39.69,50.72Z"/><path class="l" d="M44.92,50.09a.94.94,0,0,0-.69.28,1.22,1.22,0,0,0,0,1.57.91.91,0,0,0,.69.29A.85.85,0,0,0,45.5,52a.94.94,0,0,0,.3-.45l.9.3a1.68,1.68,0,0,1-.6.9,1.81,1.81,0,0,1-1.17.38,1.91,1.91,0,0,1-1.43-.58,2,2,0,0,1-.57-1.44,2,2,0,0,1,.56-1.44,1.92,1.92,0,0,1,1.41-.57,1.79,1.79,0,0,1,1.18.37,1.67,1.67,0,0,1,.6.91l-.92.31A.79.79,0,0,0,44.92,50.09Z"/><path class="l" d="M48.72,48.12v1.13h.77v.91h-.77v1.6a.48.48,0,0,0,.11.34.53.53,0,0,0,.34.1.89.89,0,0,0,.32,0V53a1.37,1.37,0,0,1-.58.1,1.22,1.22,0,0,1-.88-.32,1.11,1.11,0,0,1-.33-.86V50.16H47v-.91h.19a.57.57,0,0,0,.44-.16.63.63,0,0,0,.15-.44v-.53Z"/><path class="l" d="M50.55,50.38a.62.62,0,0,1-.2-.48.66.66,0,0,1,.2-.5.66.66,0,0,1,.48-.2.69.69,0,0,1,.5.2.67.67,0,0,1,.21.5.63.63,0,0,1-.21.48.65.65,0,0,1-.5.2A.62.62,0,0,1,50.55,50.38Zm0,2.53a.7.7,0,0,1-.2-.49.68.68,0,0,1,.2-.49.69.69,0,0,1,1,0,.64.64,0,0,1,.2.49.66.66,0,0,1-.2.49.71.71,0,0,1-1,0Z"/><path class="l" d="M54.45,50.32a2.73,2.73,0,0,1,.83-2.07,2.89,2.89,0,0,1,4,0,3,3,0,0,1,0,4.13,2.89,2.89,0,0,1-4,0A2.71,2.71,0,0,1,54.45,50.32ZM56.07,49a2,2,0,0,0,0,2.7,1.77,1.77,0,0,0,2.4,0,2,2,0,0,0,0-2.7,1.77,1.77,0,0,0-2.4,0Z"/><path class="l" d="M63.42,53.05a2.09,2.09,0,0,1,0-.41A.85.85,0,0,1,63,53a1.44,1.44,0,0,1-.62.13,1.32,1.32,0,0,1-1-.43,1.52,1.52,0,0,1-.39-1.07v-2.4h1v2.2a.83.83,0,0,0,.18.55.62.62,0,0,0,.51.21.72.72,0,0,0,.53-.2.77.77,0,0,0,.19-.55V49.25h1v3.11a4.93,4.93,0,0,0,0,.69Z"/><path class="l" d="M67.77,49.24v1a1.63,1.63,0,0,0-.31,0,1,1,0,0,0-.71.25,1.08,1.08,0,0,0-.27.82v1.74h-1v-3.8h1v.57a1.06,1.06,0,0,1,1.08-.6Z"/><path class="l" d="M72.53,49.25h1.08l.82,2.45.7-2.45h1L75,53.05h-1l-.89-2.59-.87,2.59h-1l-1.22-3.8H71l.71,2.44Z"/><path class="l" d="M79.24,51.71l.86.25a1.72,1.72,0,0,1-.61.87,1.78,1.78,0,0,1-1.12.34A2.07,2.07,0,0,1,77,49.7a1.77,1.77,0,0,1,1.32-.56,1.79,1.79,0,0,1,1.37.52,2,2,0,0,1,.5,1.45v.14s0,.09,0,.12v.05H77.42a.85.85,0,0,0,.29.62,1,1,0,0,0,.67.25A.83.83,0,0,0,79.24,51.71Zm-1.8-1h1.7a.78.78,0,0,0-.23-.53.94.94,0,0,0-1.22,0A.82.82,0,0,0,77.44,50.72Z"/><path class="l" d="M82,53.05H81V47.46h1v2.21a1.14,1.14,0,0,1,.45-.37,1.57,1.57,0,0,1,.7-.15,1.62,1.62,0,0,1,1.29.56,2.16,2.16,0,0,1,.47,1.43,2.12,2.12,0,0,1-.5,1.44,1.63,1.63,0,0,1-1.29.57A1.23,1.23,0,0,1,82,52.59Zm1.62-1.11a1.13,1.13,0,0,0,.27-.79,1.1,1.1,0,0,0-.27-.79.87.87,0,0,0-.67-.29.91.91,0,0,0-.68.29,1.1,1.1,0,0,0-.27.79,1.13,1.13,0,0,0,.27.79.92.92,0,0,0,.68.29A.87.87,0,0,0,83.58,51.94Z"/><path class="l" d="M85.36,52l.88-.19a.58.58,0,0,0,.2.41.68.68,0,0,0,.5.17.58.58,0,0,0,.37-.11.32.32,0,0,0,.13-.27c0-.19-.14-.31-.41-.37l-.5-.11a1.46,1.46,0,0,1-.8-.42,1,1,0,0,1-.27-.72,1.15,1.15,0,0,1,.41-.88,1.47,1.47,0,0,1,1-.36,2,2,0,0,1,.68.11,1.1,1.1,0,0,1,.46.29,1.33,1.33,0,0,1,.25.35,1.18,1.18,0,0,1,.1.34l-.85.2a.65.65,0,0,0-.18-.36.61.61,0,0,0-.45-.15.5.5,0,0,0-.34.11.31.31,0,0,0-.14.27c0,.18.11.3.34.34l.54.11a1.53,1.53,0,0,1,.84.43,1,1,0,0,1,.29.74,1.18,1.18,0,0,1-.39.88,1.52,1.52,0,0,1-1.08.37,2,2,0,0,1-.72-.12,1.18,1.18,0,0,1-.49-.31,1.23,1.23,0,0,1-.26-.38A1.45,1.45,0,0,1,85.36,52Z"/><path class="l" d="M89.12,48a.61.61,0,0,1,.19-.45.58.58,0,0,1,.45-.19.58.58,0,0,1,.44.19.58.58,0,0,1,.19.45.58.58,0,0,1-.19.44.62.62,0,0,1-.89,0A.58.58,0,0,1,89.12,48Zm1.15,5h-1v-3.8h1Z"/><path class="l" d="M92.64,48.12v1.13h.76v.91h-.76v1.6a.48.48,0,0,0,.1.34.55.55,0,0,0,.34.1.89.89,0,0,0,.32,0V53a1.37,1.37,0,0,1-.58.1,1.22,1.22,0,0,1-.88-.32,1.1,1.1,0,0,1-.32-.86V50.16h-.69v-.91h.19a.57.57,0,0,0,.44-.16.63.63,0,0,0,.15-.44v-.53Z"/><path class="l" d="M96.78,51.71l.86.25a1.66,1.66,0,0,1-.61.87,1.78,1.78,0,0,1-1.12.34A2.07,2.07,0,0,1,94.5,49.7a1.77,1.77,0,0,1,1.32-.56,1.79,1.79,0,0,1,1.37.52,2,2,0,0,1,.5,1.45v.14s0,.09,0,.12v.05H95a.85.85,0,0,0,.29.62,1,1,0,0,0,.67.25A.83.83,0,0,0,96.78,51.71Zm-1.8-1h1.7a.78.78,0,0,0-.23-.53.94.94,0,0,0-1.22,0A.82.82,0,0,0,95,50.72Z"/><path class="l" d="M100.29,48a.64.64,0,0,1,.18-.45.6.6,0,0,1,.45-.19.63.63,0,0,1,.63.64.6.6,0,0,1-.18.44.65.65,0,0,1-.45.19.64.64,0,0,1-.45-.19A.6.6,0,0,1,100.29,48Zm1.15,5h-1v-3.8h1Z"/><path class="l" d="M102.21,52l.88-.19a.54.54,0,0,0,.2.41.65.65,0,0,0,.49.17.56.56,0,0,0,.37-.11.33.33,0,0,0,.14-.27c0-.19-.14-.31-.41-.37l-.51-.11a1.43,1.43,0,0,1-.79-.42,1,1,0,0,1-.27-.72,1.14,1.14,0,0,1,.4-.88,1.5,1.5,0,0,1,1-.36,2,2,0,0,1,.68.11,1.17,1.17,0,0,1,.46.29,1.29,1.29,0,0,1,.24.35,1.22,1.22,0,0,1,.11.34l-.86.2a.65.65,0,0,0-.18-.36.6.6,0,0,0-.44-.15.52.52,0,0,0-.35.11.33.33,0,0,0-.14.27c0,.18.12.3.35.34l.54.11a1.6,1.6,0,0,1,.84.43,1,1,0,0,1,.29.74,1.18,1.18,0,0,1-.39.88,1.54,1.54,0,0,1-1.09.37,2.05,2.05,0,0,1-.72-.12,1.25,1.25,0,0,1-.49-.31,1.72,1.72,0,0,1-.26-.38A1.11,1.11,0,0,1,102.21,52Z"/><path class="l" d="M108.28,49.71a2.07,2.07,0,0,1,2.85,0,2,2,0,0,1,.57,1.44,2,2,0,0,1-.57,1.45,2.07,2.07,0,0,1-2.85,0,2,2,0,0,1-.57-1.45A2,2,0,0,1,108.28,49.71ZM109,52a1,1,0,0,0,1.37,0,1.08,1.08,0,0,0,.28-.8,1.06,1.06,0,0,0-.28-.79,1,1,0,0,0-1.37,0,1.06,1.06,0,0,0-.28.79A1.08,1.08,0,0,0,109,52Z"/><path class="l" d="M113.54,50.87v2.18h-1v-3.8h1v.48a1.09,1.09,0,0,1,.47-.43,1.39,1.39,0,0,1,.63-.15,1.24,1.24,0,0,1,1,.42,1.64,1.64,0,0,1,.35,1.09v2.39h-1V50.84a.81.81,0,0,0-.18-.55.74.74,0,0,0-1,0A.84.84,0,0,0,113.54,50.87Z"/><path class="l" d="M118,53.05h-1V47.46h1Z"/><path class="l" d="M119,48a.64.64,0,0,1,.18-.45.6.6,0,0,1,.45-.19.63.63,0,0,1,.63.64.6.6,0,0,1-.18.44.65.65,0,0,1-.45.19.64.64,0,0,1-.45-.19A.6.6,0,0,1,119,48Zm1.15,5h-1v-3.8h1Z"/><path class="l" d="M122.29,50.87v2.18h-1v-3.8h1v.48a1.06,1.06,0,0,1,.46-.43,1.4,1.4,0,0,1,.64-.15,1.27,1.27,0,0,1,1,.42,1.7,1.7,0,0,1,.35,1.09v2.39h-1V50.84a.86.86,0,0,0-.17-.55.75.75,0,0,0-1,0A.84.84,0,0,0,122.29,50.87Z"/><path class="l" d="M128.32,51.71l.86.25a1.72,1.72,0,0,1-.61.87,1.8,1.8,0,0,1-1.12.34A2.07,2.07,0,0,1,126,49.7a1.76,1.76,0,0,1,1.31-.56,1.8,1.8,0,0,1,1.38.52,2,2,0,0,1,.5,1.45v.14a.57.57,0,0,0,0,.12v.05H126.5a.85.85,0,0,0,.29.62,1,1,0,0,0,.66.25A.83.83,0,0,0,128.32,51.71Zm-1.8-1h1.7a.78.78,0,0,0-.23-.53.94.94,0,0,0-1.22,0A.77.77,0,0,0,126.52,50.72Z"/><path class="l" d="M131.4,47.58l-.25,3.8h-.75l-.24-3.8Zm-1.05,5.36a.6.6,0,0,1-.18-.44.58.58,0,0,1,.18-.43.58.58,0,0,1,.42-.18.6.6,0,0,1,.44.18.58.58,0,0,1,.18.43.6.6,0,0,1-.18.44.6.6,0,0,1-.44.17A.57.57,0,0,1,130.35,52.94Z"/><path class="k" d="M25.38,87.08H23.24V80.92H25.4a2.86,2.86,0,0,1,2.08.82A3,3,0,0,1,28.32,84a3,3,0,0,1-.85,2.25A2.88,2.88,0,0,1,25.38,87.08Zm-1.29-.76h1.26a2,2,0,0,0,1.5-.6,2.31,2.31,0,0,0,.6-1.71,2.4,2.4,0,0,0-.59-1.73,2,2,0,0,0-1.49-.61H24.09Z"/><path class="k" d="M32.34,85.64l.71.25a1.89,1.89,0,0,1-.68,1,2,2,0,0,1-1.2.37,2.07,2.07,0,0,1-1.49-.61A2.16,2.16,0,0,1,29.07,85a2.24,2.24,0,0,1,.59-1.58,2,2,0,0,1,2.88,0,2.29,2.29,0,0,1,.53,1.6,2,2,0,0,1,0,.26H29.91a1.28,1.28,0,0,0,.37.91,1.21,1.21,0,0,0,.89.35A1.12,1.12,0,0,0,32.34,85.64Zm-2.4-1.08h2.28a1.08,1.08,0,0,0-.31-.77,1.11,1.11,0,0,0-.83-.3,1,1,0,0,0-.8.32A1.14,1.14,0,0,0,29.94,84.56Z"/><path class="k" d="M33.86,86a1.15,1.15,0,0,1,.34-.87,1.59,1.59,0,0,1,.92-.4l1.13-.17c.22,0,.32-.13.32-.31a.7.7,0,0,0-.22-.54,1,1,0,0,0-.68-.21.93.93,0,0,0-.66.23,1,1,0,0,0-.29.62l-.78-.19a1.33,1.33,0,0,1,.55-1,1.78,1.78,0,0,1,1.16-.38A1.75,1.75,0,0,1,37,83.2a1.46,1.46,0,0,1,.43,1.1v2.09a4.86,4.86,0,0,0,0,.69h-.8a3.48,3.48,0,0,1,0-.57,1.6,1.6,0,0,1-.51.49,1.54,1.54,0,0,1-.84.21,1.42,1.42,0,0,1-1-.37A1.18,1.18,0,0,1,33.86,86Zm1.51.56a1.24,1.24,0,0,0,.87-.3,1.17,1.17,0,0,0,.33-.93V85.1l-1.27.19a.78.78,0,0,0-.45.2.54.54,0,0,0-.16.42.57.57,0,0,0,.19.43A.66.66,0,0,0,35.37,86.52Z"/><path class="k" d="M41,82.86v.86l-.36,0c-.76,0-1.15.43-1.15,1.28v2.1h-.81V82.9h.8v.73a1.29,1.29,0,0,1,1.25-.8A1.24,1.24,0,0,1,41,82.86Z"/><path class="k" d="M48,82.32l-.77.27a1.28,1.28,0,0,0-.39-.73,1.22,1.22,0,0,0-.91-.33,1.24,1.24,0,0,0-.85.3.92.92,0,0,0-.34.73.8.8,0,0,0,.21.57,1,1,0,0,0,.58.32l.92.2a2.16,2.16,0,0,1,1.18.62,1.6,1.6,0,0,1,.42,1.11,1.7,1.7,0,0,1-.59,1.29,2.19,2.19,0,0,1-1.54.54,2.3,2.3,0,0,1-1.62-.55,2.05,2.05,0,0,1-.68-1.29l.82-.26a1.47,1.47,0,0,0,.43.94,1.66,1.66,0,0,0,2,.1.87.87,0,0,0,.33-.7.88.88,0,0,0-.23-.6,1.26,1.26,0,0,0-.69-.35l-.88-.19a2.07,2.07,0,0,1-1.09-.59,1.54,1.54,0,0,1-.41-1.1,1.69,1.69,0,0,1,.6-1.28,2,2,0,0,1,1.43-.55,2,2,0,0,1,1.45.46A2,2,0,0,1,48,82.32Z"/><path class="k" d="M52,85.64l.71.25a1.89,1.89,0,0,1-.68,1,2,2,0,0,1-1.2.37,2.07,2.07,0,0,1-1.49-.61A2.2,2.2,0,0,1,48.74,85a2.24,2.24,0,0,1,.59-1.58,1.9,1.9,0,0,1,1.41-.62,1.88,1.88,0,0,1,1.47.59,2.29,2.29,0,0,1,.53,1.6,2,2,0,0,1,0,.26H49.58a1.28,1.28,0,0,0,.37.91,1.21,1.21,0,0,0,.89.35A1.12,1.12,0,0,0,52,85.64Zm-2.4-1.08h2.28a1.08,1.08,0,0,0-.31-.77,1.11,1.11,0,0,0-.83-.3,1,1,0,0,0-.8.32A1.14,1.14,0,0,0,49.61,84.56Z"/><path class="k" d="M54.59,87.08h-.8V80.79h.8v2.7a1.37,1.37,0,0,1,.53-.51,1.79,1.79,0,0,1,.86-.2,1.73,1.73,0,0,1,1.41.61,2.72,2.72,0,0,1,0,3.17,1.73,1.73,0,0,1-1.42.63,1.45,1.45,0,0,1-1.36-.72Zm2.13-1A1.61,1.61,0,0,0,57.06,85a1.64,1.64,0,0,0-.33-1.08,1.14,1.14,0,0,0-.9-.39,1.12,1.12,0,0,0-.9.4A1.56,1.56,0,0,0,54.59,85a1.64,1.64,0,0,0,.34,1.08,1.13,1.13,0,0,0,.9.41A1.1,1.1,0,0,0,56.72,86.05Z"/><path class="k" d="M58.72,86.52a.55.55,0,0,1,.18-.41.64.64,0,0,1,.45-.17.66.66,0,0,1,.5.21.85.85,0,0,1,.21.61,1.73,1.73,0,0,1-.4,1.21,1.48,1.48,0,0,1-.89.49V88a.92.92,0,0,0,.52-.35,1,1,0,0,0,.2-.59.32.32,0,0,1-.19,0,.53.53,0,0,1-.41-.16A.58.58,0,0,1,58.72,86.52Z"/><path class="k" d="M25.91,112.3a3,3,0,0,1-2.16-.87,3.11,3.11,0,0,1-.9-2.35,3.26,3.26,0,0,1,.45-1.73,2.89,2.89,0,0,1,1.14-1.11,3.13,3.13,0,0,1,1.47-.36,2.91,2.91,0,0,1,1.76.52,2.5,2.5,0,0,1,.95,1.43l-.79.28a1.89,1.89,0,0,0-.67-1.07,2,2,0,0,0-1.25-.38,2.11,2.11,0,0,0-1.55.64,2.38,2.38,0,0,0-.64,1.78,2.41,2.41,0,0,0,.64,1.79,2.11,2.11,0,0,0,1.55.64,2,2,0,0,0,1.26-.4,2.14,2.14,0,0,0,.7-1.07l.76.28a2.65,2.65,0,0,1-1,1.43A2.83,2.83,0,0,1,25.91,112.3Z"/><path class="k" d="M29.75,108.49a2,2,0,0,1,1.54-.63,2.05,2.05,0,0,1,1.53.63,2.41,2.41,0,0,1,0,3.18,2.19,2.19,0,0,1-3.07,0,2.41,2.41,0,0,1,0-3.18Zm.61,2.68a1.27,1.27,0,0,0,1.85,0,1.77,1.77,0,0,0,0-2.19,1.29,1.29,0,0,0-1.85,0,1.77,1.77,0,0,0,0,2.19Z"/><path class="k" d="M35.27,112.17h-.81V108h.78v.55a1.3,1.3,0,0,1,.54-.5,1.57,1.57,0,0,1,.73-.17,1.38,1.38,0,0,1,.75.2,1.17,1.17,0,0,1,.5.59,1.48,1.48,0,0,1,1.4-.79,1.41,1.41,0,0,1,1,.4,1.6,1.6,0,0,1,.42,1.19v2.71h-.8v-2.63a1,1,0,0,0-.23-.69.79.79,0,0,0-.66-.26.91.91,0,0,0-.7.3,1.12,1.12,0,0,0-.26.75v2.53h-.82v-2.63a1,1,0,0,0-.22-.69.81.81,0,0,0-.67-.26.92.92,0,0,0-.7.29,1.1,1.1,0,0,0-.27.77Z"/><path class="k" d="M44.84,110.73l.71.25a2,2,0,0,1-.68,1,2,2,0,0,1-1.2.37,2.05,2.05,0,0,1-1.49-.61,2.16,2.16,0,0,1-.61-1.63,2.2,2.2,0,0,1,.59-1.58,2,2,0,0,1,2.88,0,2.29,2.29,0,0,1,.53,1.6,1,1,0,0,1,0,.26H42.41a1.28,1.28,0,0,0,.37.91,1.21,1.21,0,0,0,.89.35A1.12,1.12,0,0,0,44.84,110.73Zm-2.4-1.08h2.28a1.12,1.12,0,0,0-.31-.77,1.14,1.14,0,0,0-.84-.3,1,1,0,0,0-.79.32A1.09,1.09,0,0,0,42.44,109.65Z"/><path class="k" d="M48.52,111.05a1.15,1.15,0,0,1,.35-.87,1.59,1.59,0,0,1,.92-.4l1.13-.17c.22,0,.32-.13.32-.31a.7.7,0,0,0-.22-.54,1,1,0,0,0-.68-.21.93.93,0,0,0-.66.23,1,1,0,0,0-.29.62l-.78-.19a1.33,1.33,0,0,1,.55-1,1.78,1.78,0,0,1,1.16-.38,1.75,1.75,0,0,1,1.31.43,1.46,1.46,0,0,1,.43,1.1v2.09a4.86,4.86,0,0,0,0,.69h-.8a3.48,3.48,0,0,1,0-.57,1.6,1.6,0,0,1-.51.49,1.54,1.54,0,0,1-.84.21,1.46,1.46,0,0,1-1-.37A1.18,1.18,0,0,1,48.52,111.05Zm1.52.56a1.24,1.24,0,0,0,.87-.3,1.17,1.17,0,0,0,.33-.93v-.19l-1.27.19a.78.78,0,0,0-.45.2.54.54,0,0,0-.16.42.6.6,0,0,0,.18.43A.7.7,0,0,0,50,111.61Z"/><path class="k" d="M54.14,109.75v2.42h-.81V108h.8v.6a1.53,1.53,0,0,1,2.39-.26,1.76,1.76,0,0,1,.39,1.19v2.65h-.82v-2.51c0-.71-.33-1-1-1a.85.85,0,0,0-.72.32A1.3,1.3,0,0,0,54.14,109.75Z"/><path class="k" d="M61.13,111.6v-.07a1.36,1.36,0,0,1-.5.54,1.43,1.43,0,0,1-.79.21,1.8,1.8,0,0,1-1.44-.63,2.36,2.36,0,0,1-.54-1.59,2.26,2.26,0,0,1,.56-1.55,1.8,1.8,0,0,1,1.42-.63,1.48,1.48,0,0,1,.83.2,1.07,1.07,0,0,1,.45.5v-2.7h.8v5.51a6.14,6.14,0,0,0,0,.78h-.79A3.27,3.27,0,0,1,61.13,111.6Zm-2.44-1.54a1.7,1.7,0,0,0,.33,1.08,1.08,1.08,0,0,0,.9.42,1.05,1.05,0,0,0,.88-.43,1.7,1.7,0,0,0,.33-1.08,1.57,1.57,0,0,0-.33-1,1,1,0,0,0-.87-.4,1.12,1.12,0,0,0-.9.4A1.66,1.66,0,0,0,58.69,110.06Z"/><path class="k" d="M69.06,108l-1.66,4.18h-.83L64.88,108h.92L67,111.21l1.2-3.22Z"/><path class="k" d="M69.83,106.82a.57.57,0,0,1-.17-.41.61.61,0,0,1,.17-.42.53.53,0,0,1,.41-.17.55.55,0,0,1,.42.17.54.54,0,0,1,.17.42.53.53,0,0,1-.17.41.59.59,0,0,1-.42.17A.57.57,0,0,1,69.83,106.82Zm.82,5.35h-.81V108h.81Z"/><path class="k" d="M71.65,111.08l.74-.26a.9.9,0,0,0,.29.56,1,1,0,0,0,.68.22.77.77,0,0,0,.52-.16.49.49,0,0,0,.19-.39c0-.28-.18-.46-.53-.54l-.72-.16a1.35,1.35,0,0,1-.76-.42,1.06,1.06,0,0,1-.28-.75,1.21,1.21,0,0,1,.44-.93,1.52,1.52,0,0,1,1-.39A2,2,0,0,1,74,108a1.13,1.13,0,0,1,.48.3,1.87,1.87,0,0,1,.27.36,2,2,0,0,1,.13.34l-.73.27a.83.83,0,0,0-.06-.21,1.38,1.38,0,0,0-.13-.22.62.62,0,0,0-.27-.19,1,1,0,0,0-.4-.08.74.74,0,0,0-.5.17.5.5,0,0,0-.2.39c0,.26.16.43.48.5l.68.15a1.55,1.55,0,0,1,.85.45,1.11,1.11,0,0,1,.3.79,1.24,1.24,0,0,1-.4.9,1.57,1.57,0,0,1-1.13.4,1.73,1.73,0,0,1-1.2-.39A1.37,1.37,0,0,1,71.65,111.08Z"/><path class="k" d="M76,106.82a.56.56,0,0,1-.16-.41A.6.6,0,0,1,76,106a.55.55,0,0,1,.42-.17.53.53,0,0,1,.41.17.54.54,0,0,1,.18.42.54.54,0,0,1-.18.41.57.57,0,0,1-.41.17A.59.59,0,0,1,76,106.82Zm.83,5.35H76V108h.81Z"/><path class="k" d="M79.26,106.67V108h.9v.74h-.9v2.17a.6.6,0,0,0,.13.43.62.62,0,0,0,.45.14,1.51,1.51,0,0,0,.32,0v.69a1.64,1.64,0,0,1-.55.08,1.16,1.16,0,0,1-.86-.31,1.22,1.22,0,0,1-.31-.88v-2.29h-.8V108h.23a.62.62,0,0,0,.48-.18.65.65,0,0,0,.16-.46v-.68Z"/><path class="k" d="M86.17,111.66a1.11,1.11,0,0,1-.5.48,1.81,1.81,0,0,1-.73.16,1.44,1.44,0,0,1-1.14-.48,1.73,1.73,0,0,1-.43-1.2V108h.82v2.51a1.26,1.26,0,0,0,.23.77.85.85,0,0,0,.72.3.92.92,0,0,0,.74-.29,1.17,1.17,0,0,0,.25-.77V108h.81v3.4a6.53,6.53,0,0,0,0,.78h-.78A2.39,2.39,0,0,1,86.17,111.66Z"/><path class="k" d="M87.94,111.08l.74-.26a.86.86,0,0,0,.3.56,1,1,0,0,0,.67.22.8.8,0,0,0,.53-.16.52.52,0,0,0,.19-.39q0-.42-.54-.54l-.71-.16a1.38,1.38,0,0,1-.77-.42,1.1,1.1,0,0,1-.28-.75,1.21,1.21,0,0,1,.44-.93,1.52,1.52,0,0,1,1-.39,2,2,0,0,1,.71.12,1.24,1.24,0,0,1,.49.3,2.27,2.27,0,0,1,.26.36,1.4,1.4,0,0,1,.13.34l-.72.27a.83.83,0,0,0-.06-.21,1.54,1.54,0,0,0-.14-.22.65.65,0,0,0-.26-.19,1,1,0,0,0-.41-.08.76.76,0,0,0-.5.17.5.5,0,0,0-.2.39c0,.26.16.43.48.5l.68.15a1.55,1.55,0,0,1,.85.45,1.11,1.11,0,0,1,.3.79,1.24,1.24,0,0,1-.4.9,1.55,1.55,0,0,1-1.12.4,1.74,1.74,0,0,1-1.21-.39A1.37,1.37,0,0,1,87.94,111.08Z"/><path class="k" d="M92.51,112a.54.54,0,0,1-.16-.4.55.55,0,0,1,.16-.4.54.54,0,0,1,.4-.17.58.58,0,0,1,.41.17.55.55,0,0,1,.16.4.54.54,0,0,1-.16.4.58.58,0,0,1-.41.17A.54.54,0,0,1,92.51,112Zm.91-6-.21,4.39h-.59L92.4,106Z"/><path class="k" d="M25.91,137.39a3,3,0,0,1-2.16-.87,3.11,3.11,0,0,1-.9-2.35,3.26,3.26,0,0,1,.45-1.73,2.89,2.89,0,0,1,1.14-1.11,3.13,3.13,0,0,1,1.47-.36,2.91,2.91,0,0,1,1.76.52,2.5,2.5,0,0,1,.95,1.43l-.79.28a1.89,1.89,0,0,0-.67-1.07,2,2,0,0,0-1.25-.38,2.11,2.11,0,0,0-1.55.64,2.38,2.38,0,0,0-.64,1.78,2.41,2.41,0,0,0,.64,1.79,2.11,2.11,0,0,0,1.55.64,2,2,0,0,0,1.26-.4,2.14,2.14,0,0,0,.7-1.07l.76.28a2.65,2.65,0,0,1-1,1.43A2.83,2.83,0,0,1,25.91,137.39Z"/><path class="k" d="M30.4,134.8v2.46h-.82V131h.82v2.59a1.44,1.44,0,0,1,1.27-.6,1.33,1.33,0,0,1,1.1.46,1.76,1.76,0,0,1,.39,1.19v2.65h-.82v-2.51c0-.71-.32-1.06-1-1.06a.87.87,0,0,0-.7.31A1.28,1.28,0,0,0,30.4,134.8Z"/><path class="k" d="M37.4,135.82l.7.25a1.89,1.89,0,0,1-.68,1,2,2,0,0,1-1.19.37,2.05,2.05,0,0,1-1.49-.61,2.17,2.17,0,0,1-.62-1.63,2.24,2.24,0,0,1,.59-1.58,2,2,0,0,1,2.89,0,2.34,2.34,0,0,1,.53,1.6,1.84,1.84,0,0,1,0,.26H35a1.24,1.24,0,0,0,.37.91,1.19,1.19,0,0,0,.89.35A1.13,1.13,0,0,0,37.4,135.82ZM35,134.74h2.29a1.06,1.06,0,0,0-1.15-1.07,1.06,1.06,0,0,0-.8.32A1.14,1.14,0,0,0,35,134.74Z"/><path class="k" d="M42.11,135.82l.7.25a1.89,1.89,0,0,1-.68,1,2,2,0,0,1-1.2.37,2.07,2.07,0,0,1-1.49-.61,2.2,2.2,0,0,1-.61-1.63,2.24,2.24,0,0,1,.59-1.58,2,2,0,0,1,2.89,0,2.34,2.34,0,0,1,.52,1.6,2,2,0,0,1,0,.26H39.67a1.28,1.28,0,0,0,.37.91,1.21,1.21,0,0,0,.89.35A1.14,1.14,0,0,0,42.11,135.82Zm-2.41-1.08H42a1.08,1.08,0,0,0-.31-.77,1.11,1.11,0,0,0-.83-.3,1,1,0,0,0-.8.32A1.14,1.14,0,0,0,39.7,134.74Z"/><path class="k" d="M46.2,133v.87l-.36,0c-.76,0-1.15.43-1.15,1.28v2.1h-.81v-4.18h.8v.73a1.28,1.28,0,0,1,1.25-.8Z"/><path class="k" d="M46.67,136.17l.74-.26a.86.86,0,0,0,.3.56,1,1,0,0,0,.67.22.78.78,0,0,0,.53-.16.52.52,0,0,0,.19-.39q0-.42-.54-.54l-.71-.16a1.38,1.38,0,0,1-.77-.42,1.12,1.12,0,0,1-.28-.75,1.21,1.21,0,0,1,.44-.93,1.54,1.54,0,0,1,1-.39,2.2,2.2,0,0,1,.71.11,1.38,1.38,0,0,1,.49.31,2.27,2.27,0,0,1,.26.36,1.4,1.4,0,0,1,.13.34l-.72.27a.83.83,0,0,0-.06-.21,1.54,1.54,0,0,0-.14-.22.65.65,0,0,0-.26-.19,1,1,0,0,0-.41-.08.76.76,0,0,0-.5.17.5.5,0,0,0-.2.39c0,.26.16.43.48.5l.68.15a1.58,1.58,0,0,1,.86.45,1.16,1.16,0,0,1,.3.79,1.25,1.25,0,0,1-.41.9,1.55,1.55,0,0,1-1.12.4,1.74,1.74,0,0,1-1.21-.39A1.37,1.37,0,0,1,46.67,136.17Z"/><path class="k" d="M27.52,144.43H25.46v5.37h-.85v-5.37H22.55v-.79h5Z"/><path class="k" d="M29.11,147.34v2.46H28.3v-6.29h.81v2.6a1.43,1.43,0,0,1,1.27-.61,1.36,1.36,0,0,1,1.11.46,1.78,1.78,0,0,1,.39,1.19v2.65h-.82v-2.51c0-.7-.33-1-1-1a.86.86,0,0,0-.71.31A1.25,1.25,0,0,0,29.11,147.34Z"/><path class="k" d="M36.11,148.37l.71.24a1.85,1.85,0,0,1-.68.95,1.93,1.93,0,0,1-1.2.37,2.06,2.06,0,0,1-1.49-.6,2.45,2.45,0,0,1,0-3.21,2,2,0,0,1,2.88,0,2.27,2.27,0,0,1,.53,1.59,1.93,1.93,0,0,1,0,.26H33.68a1.26,1.26,0,0,0,.37.91,1.21,1.21,0,0,0,.89.36A1.12,1.12,0,0,0,36.11,148.37Zm-2.4-1.09H36a1.1,1.1,0,0,0-.31-.77,1.13,1.13,0,0,0-.83-.3,1.06,1.06,0,0,0-.8.32A1.14,1.14,0,0,0,33.71,147.28Z"/><path class="k" d="M41.15,144.3v1.32h.9v.74h-.9v2.17a.63.63,0,0,0,.14.44.58.58,0,0,0,.44.14,1.47,1.47,0,0,0,.32,0v.7a1.67,1.67,0,0,1-.55.07,1.14,1.14,0,0,1-.85-.31,1.19,1.19,0,0,1-.32-.88v-2.29h-.79v-.74h.22a.6.6,0,0,0,.48-.18.63.63,0,0,0,.16-.46v-.68Z"/><path class="k" d="M46,148.37l.71.24a1.9,1.9,0,0,1-1.88,1.32,2,2,0,0,1-1.49-.6,2.19,2.19,0,0,1-.61-1.63,2.17,2.17,0,0,1,.59-1.58,2,2,0,0,1,2.88,0,2.31,2.31,0,0,1,.53,1.59,1,1,0,0,1,0,.26H43.6a1.26,1.26,0,0,0,.37.91,1.21,1.21,0,0,0,.89.36A1.13,1.13,0,0,0,46,148.37Zm-2.4-1.09h2.28a1.05,1.05,0,0,0-1.15-1.07,1.09,1.09,0,0,0-.8.32A1.12,1.12,0,0,0,43.63,147.28Z"/><path class="k" d="M47.54,148.68a1.11,1.11,0,0,1,.35-.86,1.6,1.6,0,0,1,.92-.41l1.13-.16c.21,0,.32-.14.32-.32a.67.67,0,0,0-.22-.53,1,1,0,0,0-.68-.21.89.89,0,0,0-.66.23,1,1,0,0,0-.29.61l-.78-.18a1.35,1.35,0,0,1,.55-1,1.84,1.84,0,0,1,1.16-.38,1.79,1.79,0,0,1,1.31.43,1.49,1.49,0,0,1,.43,1.1v2.09a3.73,3.73,0,0,0,.05.69h-.8a3.28,3.28,0,0,1,0-.56,1.69,1.69,0,0,1-.51.48,1.54,1.54,0,0,1-.84.21,1.4,1.4,0,0,1-1-.37A1.18,1.18,0,0,1,47.54,148.68Zm1.51.56a1.25,1.25,0,0,0,.88-.29,1.21,1.21,0,0,0,.33-.94v-.19L49,148a.86.86,0,0,0-.44.2.56.56,0,0,0-.16.43.58.58,0,0,0,.18.42A.69.69,0,0,0,49.05,149.24Z"/><path class="k" d="M53.15,149.8h-.81v-4.18h.79v.56a1.17,1.17,0,0,1,.53-.5,1.61,1.61,0,0,1,.73-.18,1.45,1.45,0,0,1,.75.2,1.19,1.19,0,0,1,.51.59A1.47,1.47,0,0,1,57,145.5a1.42,1.42,0,0,1,1,.41,1.58,1.58,0,0,1,.43,1.18v2.71h-.81v-2.62a1.1,1.1,0,0,0-.22-.7.84.84,0,0,0-.67-.26.89.89,0,0,0-.69.3,1.08,1.08,0,0,0-.27.75v2.53H55v-2.62a1,1,0,0,0-.22-.7.84.84,0,0,0-.66-.26.91.91,0,0,0-.71.3,1.07,1.07,0,0,0-.27.76Z"/><line class="g" x1="20.59" y1="40.86" x2="149.36" y2="40.86"/><polygon class="m" points="105.66 187.43 174.28 107.18 174.28 184.54 169.42 187.43 105.66 187.43"/></symbol></defs><title>email-scenario</title><use width="174.65" height="187.81" transform="translate(26.25 40.48)" xlink:href="#a"/><use width="174.65" height="187.81" transform="translate(248.49 40.48)" xlink:href="#c"/><use width="174.65" height="187.81" transform="translate(470.74 40.48)" xlink:href="#e"/><use width="174.65" height="187.81" transform="translate(692.98 40.48)" xlink:href="#g"/><path class="l" d="M39.76,279c0-3.65,1.94-5.91,5.08-5.91a4.5,4.5,0,0,1,4.68,3.9H47.78a2.9,2.9,0,0,0-2.94-2.27c-2,0-3.29,1.65-3.29,4.28s1.26,4.28,3.29,4.28a2.83,2.83,0,0,0,2.94-2.08h1.74a4.4,4.4,0,0,1-4.68,3.71C41.71,284.88,39.76,282.62,39.76,279Z"/><path class="l" d="M51.2,280.35c0-2.74,1.53-4.42,4-4.42s4,1.68,4,4.42-1.53,4.42-4,4.42S51.2,283.11,51.2,280.35Zm6.3,0c0-1.85-.83-2.92-2.28-2.92s-2.28,1.07-2.28,2.92.82,2.93,2.28,2.93S57.5,282.2,57.5,280.35Z"/><path class="l" d="M61.32,272.78H63v11.83H61.32Z"/><path class="l" d="M65.59,272.78h1.68v11.83H65.59Z"/><path class="l" d="M77,282.31c-.36,1.51-1.74,2.46-3.68,2.46-2.44,0-3.93-1.67-3.93-4.39s1.52-4.45,3.92-4.45,3.8,1.62,3.8,4.29v.59h-6v.09a2.25,2.25,0,0,0,2.26,2.44,2.06,2.06,0,0,0,2-1Zm-5.9-2.74h4.3a2.06,2.06,0,0,0-2.1-2.21A2.18,2.18,0,0,0,71.08,279.57Z"/><path class="l" d="M84.67,278.88a1.89,1.89,0,0,0-2-1.45c-1.4,0-2.26,1.08-2.26,2.89s.87,2.95,2.26,2.95a1.84,1.84,0,0,0,2-1.4H86.3a3.32,3.32,0,0,1-3.63,2.9c-2.47,0-4-1.67-4-4.45s1.51-4.39,4-4.39a3.35,3.35,0,0,1,3.64,2.95Z"/><path class="l" d="M90.62,274v2.16h1.84v1.41H90.62v4.38c0,.89.36,1.28,1.2,1.28a6.28,6.28,0,0,0,.64,0v1.4a6.16,6.16,0,0,1-.91.08c-1.87,0-2.61-.65-2.61-2.29v-4.81H87.59v-1.41h1.35V274Z"/><path class="l" d="M103,284.61h-1.8l-3.07-8.51h1.8l2.11,6.71h.13l2.11-6.71H106Z"/><path class="l" d="M106.94,282.2c0-1.53,1.14-2.41,3.16-2.54l2.31-.13v-.74c0-.9-.6-1.4-1.75-1.4-.93,0-1.58.34-1.77.94h-1.62c.17-1.46,1.54-2.4,3.47-2.4,2.14,0,3.34,1.07,3.34,2.86v5.82h-1.62v-1.2h-.13a2.88,2.88,0,0,1-2.56,1.34A2.57,2.57,0,0,1,106.94,282.2Zm5.47-.73v-.71l-2.08.13c-1.17.08-1.71.48-1.71,1.23s.67,1.21,1.58,1.21A2,2,0,0,0,112.41,281.47Z"/><path class="l" d="M116.55,272.78h1.68v11.83h-1.68Z"/><path class="l" d="M120.55,273.53a1.06,1.06,0,1,1,1.06,1.09A1.08,1.08,0,0,1,120.55,273.53Zm.22,2.57h1.68v8.51h-1.68Z"/><path class="l" d="M124.49,280.35c0-2.69,1.39-4.39,3.53-4.39a2.79,2.79,0,0,1,2.61,1.49h.13v-4.67h1.68v11.83h-1.61v-1.35h-.13a3,3,0,0,1-2.68,1.49C125.86,284.75,124.49,283,124.49,280.35Zm1.74,0c0,1.8.85,2.89,2.27,2.89s2.29-1.1,2.29-2.88-.88-2.9-2.29-2.9S126.23,278.56,126.23,280.35Z"/><path class="l" d="M146.52,282.31c-.36,1.51-1.74,2.46-3.68,2.46-2.44,0-3.93-1.67-3.93-4.39s1.52-4.45,3.92-4.45,3.79,1.62,3.79,4.29v.59h-6v.09a2.25,2.25,0,0,0,2.26,2.44,2.06,2.06,0,0,0,2-1Zm-5.9-2.74h4.29a2,2,0,0,0-2.09-2.21A2.18,2.18,0,0,0,140.62,279.57Z"/><path class="l" d="M148.64,276.1h1.62v1.36h.12a2.58,2.58,0,0,1,4.71,0h.14a2.77,2.77,0,0,1,2.58-1.53,2.53,2.53,0,0,1,2.72,2.82v5.86h-1.68v-5.43q0-1.71-1.65-1.71a1.72,1.72,0,0,0-1.79,1.78v5.36h-1.65V279a1.49,1.49,0,0,0-1.64-1.55,1.83,1.83,0,0,0-1.8,1.93v5.21h-1.68Z"/><path class="l" d="M162.41,282.2c0-1.53,1.14-2.41,3.16-2.54l2.31-.13v-.74c0-.9-.6-1.4-1.75-1.4-.93,0-1.58.34-1.77.94h-1.63c.18-1.46,1.55-2.4,3.48-2.4,2.13,0,3.34,1.07,3.34,2.86v5.82h-1.62v-1.2h-.13a2.88,2.88,0,0,1-2.56,1.34A2.57,2.57,0,0,1,162.41,282.2Zm5.47-.73v-.71l-2.08.13c-1.18.08-1.71.48-1.71,1.23s.67,1.21,1.58,1.21A2,2,0,0,0,167.88,281.47Z"/><path class="l" d="M171.74,273.53a1.07,1.07,0,1,1,1.06,1.09A1.08,1.08,0,0,1,171.74,273.53Zm.23,2.57h1.67v8.51H172Z"/><path class="l" d="M176.19,272.78h1.68v11.83h-1.68Z"/><path class="l" d="M183.49,275.93c1.92,0,3.17.89,3.33,2.39h-1.61c-.16-.62-.76-1-1.72-1s-1.65.45-1.65,1.11c0,.51.43.83,1.36,1l1.41.33c1.62.37,2.37,1.07,2.37,2.32,0,1.6-1.49,2.67-3.52,2.67s-3.34-.91-3.49-2.42h1.68a1.73,1.73,0,0,0,1.85,1.06c1.05,0,1.79-.47,1.79-1.15,0-.51-.4-.83-1.25-1l-1.49-.34c-1.61-.38-2.36-1.11-2.36-2.38C180.19,277,181.57,275.93,183.49,275.93Z"/><path class="l" d="M263.78,279c0-3.65,1.94-5.91,5.08-5.91a4.5,4.5,0,0,1,4.68,3.9H271.8a2.9,2.9,0,0,0-2.94-2.27c-2,0-3.29,1.65-3.29,4.28s1.26,4.28,3.3,4.28a2.82,2.82,0,0,0,2.93-2.08h1.74a4.39,4.39,0,0,1-4.67,3.71C265.73,284.88,263.78,282.62,263.78,279Z"/><path class="l" d="M275.72,272.78h1.68v11.83h-1.68Z"/><path class="l" d="M287.12,282.31c-.37,1.51-1.75,2.46-3.69,2.46-2.44,0-3.93-1.67-3.93-4.39s1.52-4.45,3.92-4.45,3.8,1.62,3.8,4.29v.59h-6v.09a2.25,2.25,0,0,0,2.26,2.44,2,2,0,0,0,2-1Zm-5.91-2.74h4.3a2.06,2.06,0,0,0-2.1-2.21A2.18,2.18,0,0,0,281.21,279.57Z"/><path class="l" d="M288.75,282.2c0-1.53,1.14-2.41,3.16-2.54l2.31-.13v-.74c0-.9-.6-1.4-1.75-1.4-.93,0-1.58.34-1.77.94h-1.62c.17-1.46,1.54-2.4,3.47-2.4,2.14,0,3.34,1.07,3.34,2.86v5.82h-1.62v-1.2h-.13a2.88,2.88,0,0,1-2.56,1.34A2.57,2.57,0,0,1,288.75,282.2Zm5.47-.73v-.71l-2.08.13c-1.17.08-1.7.48-1.7,1.23s.66,1.21,1.57,1.21A2,2,0,0,0,294.22,281.47Z"/><path class="l" d="M298.28,276.1h1.62v1.35H300a2.55,2.55,0,0,1,2.54-1.52c1.9,0,2.95,1.14,2.95,3.17v5.51h-1.68v-5.09c0-1.37-.6-2-1.84-2a2,2,0,0,0-2,2.16v5h-1.68Z"/><path class="l" d="M314.51,274v2.16h1.85v1.41h-1.85v4.38c0,.89.37,1.28,1.21,1.28.25,0,.4,0,.64,0v1.4a6.43,6.43,0,0,1-.92.08c-1.86,0-2.61-.65-2.61-2.29v-4.81h-1.35v-1.41h1.35V274Z"/><path class="l" d="M318.41,272.78h1.67v4.68h.13a2.61,2.61,0,0,1,2.59-1.52c1.82,0,2.93,1.15,2.93,3.17v5.5h-1.68v-5.08c0-1.36-.63-2-1.82-2a2,2,0,0,0-2.14,2.16v5h-1.68Z"/><path class="l" d="M335.29,282.31c-.37,1.51-1.75,2.46-3.69,2.46-2.44,0-3.93-1.67-3.93-4.39s1.52-4.45,3.92-4.45,3.8,1.62,3.8,4.29v.59h-6v.09a2.25,2.25,0,0,0,2.27,2.44,2,2,0,0,0,2-1Zm-5.91-2.74h4.3a2.06,2.06,0,0,0-2.1-2.21A2.18,2.18,0,0,0,329.38,279.57Z"/><path class="l" d="M341.36,280.35c0-2.69,1.38-4.39,3.53-4.39a2.8,2.8,0,0,1,2.61,1.49h.12v-4.67h1.68v11.83h-1.61v-1.35h-.13a3,3,0,0,1-2.67,1.49C342.72,284.75,341.36,283,341.36,280.35Zm1.73,0c0,1.8.85,2.89,2.28,2.89s2.28-1.1,2.28-2.88-.88-2.9-2.28-2.9S343.09,278.56,343.09,280.35Z"/><path class="l" d="M351.33,282.2c0-1.53,1.14-2.41,3.17-2.54l2.3-.13v-.74c0-.9-.59-1.4-1.74-1.4-.94,0-1.59.34-1.77.94h-1.63c.17-1.46,1.55-2.4,3.48-2.4,2.13,0,3.33,1.07,3.33,2.86v5.82h-1.61v-1.2h-.14a2.85,2.85,0,0,1-2.55,1.34A2.58,2.58,0,0,1,351.33,282.2Zm5.47-.73v-.71l-2.08.13c-1.17.08-1.7.48-1.7,1.23s.67,1.21,1.58,1.21A2,2,0,0,0,356.8,281.47Z"/><path class="l" d="M363.14,274v2.16H365v1.41h-1.84v4.38c0,.89.37,1.28,1.2,1.28a6.28,6.28,0,0,0,.64,0v1.4a6.16,6.16,0,0,1-.91.08c-1.87,0-2.61-.65-2.61-2.29v-4.81h-1.35v-1.41h1.35V274Z"/><path class="l" d="M366.47,282.2c0-1.53,1.15-2.41,3.17-2.54l2.3-.13v-.74c0-.9-.59-1.4-1.74-1.4-.94,0-1.58.34-1.77.94H366.8c.17-1.46,1.55-2.4,3.48-2.4,2.13,0,3.34,1.07,3.34,2.86v5.82H372v-1.2h-.13a2.88,2.88,0,0,1-2.56,1.34A2.58,2.58,0,0,1,366.47,282.2Zm5.47-.73v-.71l-2.07.13c-1.18.08-1.71.48-1.71,1.23s.67,1.21,1.58,1.21A2,2,0,0,0,371.94,281.47Z"/><path class="l" d="M377.83,283.26h-.13v1.35h-1.62V272.78h1.68v4.67h.14a2.81,2.81,0,0,1,2.61-1.49c2.16,0,3.52,1.68,3.52,4.39s-1.37,4.4-3.52,4.4A2.93,2.93,0,0,1,377.83,283.26Zm-.1-2.9c0,1.78.89,2.88,2.3,2.88s2.27-1.09,2.27-2.89-.85-2.89-2.27-2.89S377.74,278.57,377.73,280.36Z"/><path class="l" d="M385.56,282.2c0-1.53,1.14-2.41,3.16-2.54l2.31-.13v-.74c0-.9-.59-1.4-1.74-1.4-.94,0-1.59.34-1.78.94h-1.62c.17-1.46,1.55-2.4,3.48-2.4,2.13,0,3.33,1.07,3.33,2.86v5.82h-1.62v-1.2H391a2.87,2.87,0,0,1-2.55,1.34A2.58,2.58,0,0,1,385.56,282.2Zm5.47-.73v-.71l-2.08.13c-1.17.08-1.7.48-1.7,1.23s.66,1.21,1.58,1.21A2,2,0,0,0,391,281.47Z"/><path class="l" d="M398.2,275.93c1.92,0,3.17.89,3.33,2.39h-1.61c-.16-.62-.77-1-1.72-1s-1.65.45-1.65,1.11c0,.51.43.83,1.35,1l1.42.33c1.62.37,2.37,1.07,2.37,2.32,0,1.6-1.49,2.67-3.52,2.67s-3.34-.91-3.49-2.42h1.68a1.73,1.73,0,0,0,1.85,1.06c1.05,0,1.79-.47,1.79-1.15,0-.51-.4-.83-1.25-1l-1.49-.34c-1.61-.38-2.36-1.11-2.36-2.38C394.9,277,396.28,275.93,398.2,275.93Z"/><path class="l" d="M410.91,282.31c-.37,1.51-1.74,2.46-3.69,2.46-2.43,0-3.93-1.67-3.93-4.39s1.53-4.45,3.93-4.45,3.79,1.62,3.79,4.29v.59h-6v.09a2.25,2.25,0,0,0,2.26,2.44,2,2,0,0,0,2-1Zm-5.9-2.74h4.29a2.05,2.05,0,0,0-2.09-2.21A2.18,2.18,0,0,0,405,279.57Z"/><path class="l" d="M506.84,284.61V273.33h4.53c2.11,0,3.39,1.08,3.39,2.81a2.48,2.48,0,0,1-2,2.43v.13a2.67,2.67,0,0,1,2.54,2.71c0,2-1.44,3.2-3.85,3.2Zm1.75-6.5h2.07c1.55,0,2.36-.57,2.36-1.65s-.76-1.64-2.06-1.64h-2.37Zm2.53,5c1.58,0,2.41-.64,2.41-1.83s-.87-1.8-2.51-1.8h-2.43v3.63Z"/><path class="l" d="M524.54,284.61h-1.62v-1.36h-.13a2.55,2.55,0,0,1-2.57,1.52c-1.88,0-2.93-1.15-2.93-3.15V276.1H519v5.08c0,1.38.55,2,1.79,2a1.93,1.93,0,0,0,2.1-2.14v-5h1.68Z"/><path class="l" d="M526.78,273.53a1.07,1.07,0,1,1,1.06,1.09A1.08,1.08,0,0,1,526.78,273.53Zm.23,2.57h1.67v8.51H527Z"/><path class="l" d="M531.23,272.78h1.68v11.83h-1.68Z"/><path class="l" d="M535,280.35c0-2.69,1.38-4.39,3.53-4.39a2.79,2.79,0,0,1,2.61,1.49h.13v-4.67H543v11.83h-1.61v-1.35h-.14a3,3,0,0,1-2.67,1.49C536.37,284.75,535,283,535,280.35Zm1.73,0c0,1.8.86,2.89,2.28,2.89s2.29-1.1,2.29-2.88-.89-2.9-2.29-2.9S536.73,278.56,536.73,280.35Z"/><path class="l" d="M553,275.93c1.91,0,3.16.89,3.32,2.39h-1.61c-.15-.62-.76-1-1.71-1s-1.65.45-1.65,1.11c0,.51.43.83,1.35,1l1.41.33c1.62.37,2.38,1.07,2.38,2.32,0,1.6-1.49,2.67-3.53,2.67s-3.34-.91-3.49-2.42h1.68a1.73,1.73,0,0,0,1.85,1.06c1,0,1.79-.47,1.79-1.15,0-.51-.4-.83-1.25-1l-1.48-.34c-1.62-.38-2.37-1.11-2.37-2.38C549.64,277,551,275.93,553,275.93Z"/><path class="l" d="M560.67,274v2.16h1.85v1.41h-1.85v4.38c0,.89.37,1.28,1.21,1.28.25,0,.4,0,.64,0v1.4a6.43,6.43,0,0,1-.92.08c-1.87,0-2.61-.65-2.61-2.29v-4.81h-1.35v-1.41H559V274Z"/><path class="l" d="M564,282.2c0-1.53,1.14-2.41,3.16-2.54l2.31-.13v-.74c0-.9-.6-1.4-1.75-1.4-.93,0-1.58.34-1.77.94h-1.62c.17-1.46,1.54-2.4,3.47-2.4,2.14,0,3.34,1.07,3.34,2.86v5.82h-1.62v-1.2h-.13a2.88,2.88,0,0,1-2.56,1.34A2.57,2.57,0,0,1,564,282.2Zm5.47-.73v-.71l-2.08.13c-1.17.08-1.7.48-1.7,1.23s.66,1.21,1.57,1.21A2,2,0,0,0,569.48,281.47Z"/><path class="l" d="M575.81,274v2.16h1.85v1.41h-1.85v4.38c0,.89.37,1.28,1.21,1.28.25,0,.4,0,.64,0v1.4a6.43,6.43,0,0,1-.92.08c-1.86,0-2.61-.65-2.61-2.29v-4.81h-1.35v-1.41h1.35V274Z"/><path class="l" d="M579.44,273.53a1.06,1.06,0,1,1,1.06,1.09A1.08,1.08,0,0,1,579.44,273.53Zm.22,2.57h1.68v8.51h-1.68Z"/><path class="l" d="M586.91,275.93c1.92,0,3.17.89,3.33,2.39h-1.61c-.15-.62-.76-1-1.72-1s-1.64.45-1.64,1.11c0,.51.43.83,1.35,1l1.41.33c1.62.37,2.38,1.07,2.38,2.32,0,1.6-1.5,2.67-3.53,2.67s-3.34-.91-3.49-2.42h1.68a1.73,1.73,0,0,0,1.85,1.06c1.05,0,1.79-.47,1.79-1.15,0-.51-.4-.83-1.25-1l-1.48-.34c-1.62-.38-2.37-1.11-2.37-2.38C583.61,277,585,275.93,586.91,275.93Z"/><path class="l" d="M594.64,274v2.16h1.84v1.41h-1.84v4.38c0,.89.37,1.28,1.2,1.28a6.28,6.28,0,0,0,.64,0v1.4a6.16,6.16,0,0,1-.91.08c-1.87,0-2.61-.65-2.61-2.29v-4.81h-1.35v-1.41H593V274Z"/><path class="l" d="M598.27,273.53a1.06,1.06,0,1,1,1.06,1.09A1.08,1.08,0,0,1,598.27,273.53Zm.22,2.57h1.67v8.51h-1.67Z"/><path class="l" d="M608.2,278.88a1.89,1.89,0,0,0-2-1.45c-1.41,0-2.27,1.08-2.27,2.89s.87,2.95,2.27,2.95a1.84,1.84,0,0,0,2-1.4h1.64a3.34,3.34,0,0,1-3.64,2.9c-2.47,0-4-1.67-4-4.45s1.51-4.39,4-4.39a3.36,3.36,0,0,1,3.64,2.95Z"/><path class="l" d="M614.86,275.93c1.91,0,3.16.89,3.33,2.39h-1.61c-.16-.62-.77-1-1.72-1s-1.65.45-1.65,1.11c0,.51.43.83,1.35,1l1.42.33c1.61.37,2.37,1.07,2.37,2.32,0,1.6-1.49,2.67-3.52,2.67s-3.35-.91-3.49-2.42H613a1.73,1.73,0,0,0,1.85,1.06c1,0,1.79-.47,1.79-1.15,0-.51-.4-.83-1.25-1l-1.49-.34c-1.62-.38-2.37-1.11-2.37-2.38C611.55,277,612.94,275.93,614.86,275.93Z"/><path class="l" d="M714.21,284.61h-7.16V273.33h7.16v1.6H708.8v3.18h5.12v1.52H708.8V283h5.41Z"/><path class="l" d="M716.54,276.1h1.61v1.36h.13a2.58,2.58,0,0,1,4.71,0h.13a2.79,2.79,0,0,1,2.59-1.53,2.53,2.53,0,0,1,2.72,2.82v5.86h-1.68v-5.43q0-1.71-1.65-1.71a1.72,1.72,0,0,0-1.8,1.78v5.36h-1.65V279a1.49,1.49,0,0,0-1.64-1.55,1.83,1.83,0,0,0-1.79,1.93v5.21h-1.68Z"/><path class="l" d="M730.3,282.2c0-1.53,1.14-2.41,3.17-2.54l2.3-.13v-.74c0-.9-.59-1.4-1.74-1.4-.94,0-1.59.34-1.78.94h-1.62c.17-1.46,1.55-2.4,3.48-2.4,2.13,0,3.33,1.07,3.33,2.86v5.82h-1.61v-1.2h-.14a2.87,2.87,0,0,1-2.55,1.34A2.58,2.58,0,0,1,730.3,282.2Zm5.47-.73v-.71l-2.08.13c-1.17.08-1.7.48-1.7,1.23s.66,1.21,1.58,1.21A2,2,0,0,0,735.77,281.47Z"/><path class="l" d="M739.64,273.53a1.06,1.06,0,1,1,1.06,1.09A1.08,1.08,0,0,1,739.64,273.53Zm.22,2.57h1.68v8.51h-1.68Z"/><path class="l" d="M744.08,272.78h1.68v11.83h-1.68Z"/><path class="l" d="M748.08,273.53a1.07,1.07,0,1,1,1.07,1.09A1.08,1.08,0,0,1,748.08,273.53Zm.23,2.57H750v8.51h-1.67Z"/><path class="l" d="M752.45,276.1h1.62v1.35h.12a2.55,2.55,0,0,1,2.54-1.52c1.9,0,2.95,1.14,2.95,3.17v5.51H758v-5.09c0-1.37-.6-2-1.84-2a2,2,0,0,0-2,2.16v5h-1.68Z"/><path class="l" d="M761.94,285.46h1.72c.14.61.85,1,2,1,1.39,0,2.22-.66,2.22-1.79v-1.63h-.12a2.88,2.88,0,0,1-2.63,1.43c-2.17,0-3.51-1.68-3.51-4.23S763,276,765.14,276a3,3,0,0,1,2.67,1.5h.13V276.1h1.61v8.58c0,1.94-1.52,3.18-3.93,3.18C763.5,287.86,762.12,286.9,761.94,285.46Zm6-5.21c0-1.7-.87-2.79-2.3-2.79s-2.26,1.09-2.26,2.79.81,2.78,2.26,2.78S767.9,282,767.9,280.25Z"/><path class="l" d="M781.93,278.88a1.89,1.89,0,0,0-2-1.45c-1.41,0-2.27,1.08-2.27,2.89s.87,2.95,2.27,2.95a1.83,1.83,0,0,0,2-1.4h1.64a3.33,3.33,0,0,1-3.64,2.9c-2.47,0-4-1.67-4-4.45s1.51-4.39,4-4.39a3.36,3.36,0,0,1,3.64,2.95Z"/><path class="l" d="M785,282.2c0-1.53,1.14-2.41,3.16-2.54l2.31-.13v-.74c0-.9-.6-1.4-1.75-1.4-.93,0-1.58.34-1.77.94h-1.62c.17-1.46,1.54-2.4,3.47-2.4,2.13,0,3.34,1.07,3.34,2.86v5.82h-1.62v-1.2h-.13a2.88,2.88,0,0,1-2.56,1.34A2.57,2.57,0,0,1,785,282.2Zm5.47-.73v-.71l-2.08.13c-1.17.08-1.71.48-1.71,1.23s.67,1.21,1.58,1.21A2,2,0,0,0,790.47,281.47Z"/><path class="l" d="M794.53,276.1h1.62v1.36h.12a2.58,2.58,0,0,1,4.71,0h.13a2.79,2.79,0,0,1,2.59-1.53,2.53,2.53,0,0,1,2.72,2.82v5.86h-1.68v-5.43q0-1.71-1.65-1.71a1.72,1.72,0,0,0-1.8,1.78v5.36h-1.64V279a1.49,1.49,0,0,0-1.65-1.55,1.83,1.83,0,0,0-1.79,1.93v5.21h-1.68Z"/><path class="l" d="M816.72,280.35c0,2.7-1.36,4.4-3.51,4.4a2.8,2.8,0,0,1-2.62-1.43h-.13v4.11h-1.68V276.1h1.62v1.4h.12a3,3,0,0,1,2.67-1.54C815.36,276,816.72,277.64,816.72,280.35Zm-1.72,0c0-1.8-.85-2.89-2.28-2.89s-2.29,1.11-2.29,2.9.88,2.88,2.29,2.88S815,282.15,815,280.35Z"/><path class="l" d="M818.25,282.2c0-1.53,1.15-2.41,3.17-2.54l2.3-.13v-.74c0-.9-.59-1.4-1.74-1.4-.94,0-1.58.34-1.77.94h-1.63c.17-1.46,1.55-2.4,3.48-2.4,2.13,0,3.34,1.07,3.34,2.86v5.82h-1.62v-1.2h-.13a2.88,2.88,0,0,1-2.56,1.34A2.58,2.58,0,0,1,818.25,282.2Zm5.47-.73v-.71l-2.07.13c-1.18.08-1.71.48-1.71,1.23s.67,1.21,1.58,1.21A2,2,0,0,0,823.72,281.47Z"/><path class="l" d="M827.59,273.53a1.07,1.07,0,1,1,1.06,1.09A1.08,1.08,0,0,1,827.59,273.53Zm.23,2.57h1.67v8.51h-1.67Z"/><path class="l" d="M831.86,285.46h1.72c.14.61.85,1,2,1,1.4,0,2.22-.66,2.22-1.79v-1.63h-.12a2.87,2.87,0,0,1-2.63,1.43c-2.17,0-3.51-1.68-3.51-4.23s1.36-4.29,3.53-4.29a3,3,0,0,1,2.67,1.5h.13V276.1h1.61v8.58c0,1.94-1.52,3.18-3.93,3.18C833.42,287.86,832,286.9,831.86,285.46Zm6-5.21c0-1.7-.88-2.79-2.31-2.79s-2.26,1.09-2.26,2.79.82,2.78,2.26,2.78S837.83,282,837.83,280.25Z"/><path class="l" d="M841.91,276.1h1.62v1.35h.12a2.55,2.55,0,0,1,2.54-1.52c1.9,0,2.95,1.14,2.95,3.17v5.51h-1.68v-5.09c0-1.37-.6-2-1.84-2a2,2,0,0,0-2,2.16v5h-1.68Z"/><rect class="w" x="30.08" y="247.19" width="170.83" height="5.59" rx="2.79"/><rect class="w" x="248.49" y="247.19" width="170.83" height="5.59" rx="2.79"/><rect class="w" x="472.22" y="247.19" width="170.83" height="5.59" rx="2.79"/><rect class="w" x="694.57" y="247.19" width="170.83" height="5.59" rx="2.79"/><circle class="x" cx="192.07" cy="45.11" r="23.72"/><path class="y" d="M191.62,36.59h-.27l-5.27,3.64V36l5.55-3.82h4.49V53.71h-4.5Z"/><circle class="x" cx="192.07" cy="45.11" r="23.72"/><path class="y" d="M191.62,36.59h-.27l-5.27,3.64V36l5.55-3.82h4.49V53.71h-4.5Z"/><circle class="z" cx="414.32" cy="45.11" r="23.72"/><path class="aa" d="M414.41,31.66c4.56,0,7.47,2.64,7.47,6.27,0,2.52-1.1,4.25-4.67,7.6l-4.47,4.17V50h9.44v3.74h-15.5V50.56l7.53-7.21c2.69-2.57,3.27-3.55,3.27-5a3,3,0,0,0-3.33-3.07,3.33,3.33,0,0,0-3.55,3.5h-4.17C406.43,34.57,409.7,31.66,414.41,31.66Z"/><circle class="ab" cx="636.56" cy="45.11" r="23.72"/><path class="ac" d="M633.72,41.05h2.68c2,0,3.43-1.21,3.43-3,0-1.6-1.27-2.83-3.37-2.83s-3.51,1.12-3.66,3h-4.16c.15-4,3.2-6.63,8-6.63s7.42,2.64,7.4,5.78a4.87,4.87,0,0,1-4,4.89v.28c3,.43,4.81,2.34,4.81,5.21,0,3.77-3.54,6.44-8.4,6.44s-8.16-2.65-8.35-6.72h4.3c.14,1.82,1.69,3,4,3s3.88-1.24,3.88-3.1-1.49-3.08-3.91-3.08h-2.72Z"/><circle class="ad" cx="858.81" cy="45.11" r="23.72"/><path class="ae" d="M860.52,49.82H850V46.17c2.71-4.82,5.63-9.55,8.5-14h6.3V46.08h2.81v3.74h-2.81v3.89h-4.29ZM854,46.23h6.59V35.72h-.24C858.29,38.89,856,42.55,854,46Z"/></svg>