<svg xmlns="http://www.w3.org/2000/svg" viewBox="0 0 900 400"><defs><style>.a,.c,.e{fill:none;stroke-miterlimit:10;}.a{stroke:#4a4a4a;}.b{fill:#4a4a4a;}.c{stroke:#fd1015;}.c,.e{stroke-width:3px;}.d{fill:#fd1015;}.e{stroke:#62ddf5;}.f{fill:#62ddf5;}</style></defs><title>equations</title><polyline class="a" points="284.98 25.87 284.98 357.69 617.86 357.69"/><path class="b" d="M260,23.12h-.11L257.35,25V23.65L260,21.72h1.25v10.1H260Z"/><path class="b" d="M264.11,26.77c0-3.34,1.33-5.29,3.59-5.29s3.57,2,3.57,5.31-1.3,5.27-3.57,5.27S264.11,30.13,264.11,26.77Zm5.89,0c0-2.69-.82-4.19-2.3-4.19s-2.32,1.52-2.32,4.19S266.21,31,267.7,31,270,29.48,270,26.77Z"/><path class="b" d="M273.14,26.77c0-3.34,1.33-5.29,3.59-5.29s3.57,2,3.57,5.31-1.3,5.27-3.57,5.27S273.14,30.13,273.14,26.77Zm5.89,0c0-2.69-.82-4.19-2.3-4.19s-2.32,1.52-2.32,4.19.83,4.19,2.32,4.19S279,29.48,279,26.77Z"/><path class="b" d="M269.06,321.56H269l-2.57,1.87V322.1l2.69-1.94h1.25v10.11h-1.26Z"/><path class="b" d="M273.14,325.21c0-3.33,1.33-5.29,3.59-5.29s3.57,2,3.57,5.31-1.3,5.28-3.57,5.28S273.14,328.57,273.14,325.21Zm5.9,0c0-2.68-.83-4.18-2.31-4.18s-2.32,1.51-2.32,4.18.83,4.2,2.32,4.2S279,327.92,279,325.21Z"/><path class="b" d="M313.49,363.51h-.11l-2.57,1.86V364l2.69-1.93h1.25v10.1h-1.26Z"/><path class="b" d="M317.57,367.16c0-3.34,1.32-5.29,3.59-5.29s3.57,2,3.57,5.31-1.3,5.27-3.57,5.27S317.57,370.52,317.57,367.16Zm5.89,0c0-2.69-.83-4.19-2.3-4.19s-2.32,1.52-2.32,4.19.82,4.19,2.32,4.19S323.46,369.87,323.46,367.16Z"/><path class="b" d="M346.68,361.87a2.91,2.91,0,0,1,3.12,2.83c0,1.17-.5,2-2.33,3.89L345.18,371v.11H350v1.13h-6.54v-.87l3.41-3.69c1.29-1.4,1.67-1.92,1.67-2.81A1.79,1.79,0,0,0,346.6,363a1.89,1.89,0,0,0-2,2h-1.22A3.1,3.1,0,0,1,346.68,361.87Z"/><path class="b" d="M351.9,367.16c0-3.34,1.32-5.29,3.58-5.29s3.58,2,3.58,5.31-1.31,5.27-3.58,5.27S351.9,370.52,351.9,367.16Zm5.89,0c0-2.69-.83-4.19-2.31-4.19s-2.31,1.52-2.31,4.19.82,4.19,2.31,4.19S357.79,369.87,357.79,367.16Z"/><path class="b" d="M378.72,366.48h1.2a1.83,1.83,0,0,0,2-1.8A1.75,1.75,0,0,0,380,363a1.89,1.89,0,0,0-2.12,1.76h-1.22a3.11,3.11,0,0,1,3.42-2.86c2,0,3.15,1.26,3.14,2.67a2.35,2.35,0,0,1-1.8,2.33V367a2.41,2.41,0,0,1,2.18,2.51c0,1.69-1.55,3-3.56,3s-3.47-1.13-3.56-2.84h1.22a2.08,2.08,0,0,0,2.33,1.74,2,2,0,0,0,2.27-1.9c0-1.17-.87-1.89-2.29-1.89h-1.26Z"/><path class="b" d="M385.4,367.16c0-3.34,1.33-5.29,3.59-5.29s3.57,2,3.57,5.31-1.3,5.27-3.57,5.27S385.4,370.52,385.4,367.16Zm5.89,0c0-2.69-.82-4.19-2.3-4.19s-2.32,1.52-2.32,4.19.83,4.19,2.32,4.19S391.29,369.87,391.29,367.16Z"/><path class="b" d="M414.44,370.12h-4.93V369c1.37-2.29,2.92-4.76,4.33-6.86h1.83V369h1.43v1.13h-1.43v2.09h-1.23ZM410.8,369h3.64v-5.72h-.08c-1.14,1.69-2.46,3.78-3.56,5.63Z"/><path class="b" d="M418.86,367.16c0-3.34,1.32-5.29,3.59-5.29s3.57,2,3.57,5.31-1.3,5.27-3.57,5.27S418.86,370.52,418.86,367.16Zm5.89,0c0-2.69-.83-4.19-2.3-4.19s-2.32,1.52-2.32,4.19.82,4.19,2.32,4.19S424.75,369.87,424.75,367.16Z"/><path class="b" d="M443.3,369.54h1.24a2,2,0,0,0,2.18,1.8,2.15,2.15,0,0,0,2.19-2.36,2.11,2.11,0,0,0-2.15-2.29,2.28,2.28,0,0,0-2.11,1.19h-1.18l.58-5.77h5.61v1.12H445l-.31,3.3h.11a2.72,2.72,0,0,1,2.25-.92,3.13,3.13,0,0,1,3.09,3.33,3.32,3.32,0,0,1-3.47,3.51A3.16,3.16,0,0,1,443.3,369.54Z"/><path class="b" d="M452,367.16c0-3.34,1.32-5.29,3.59-5.29s3.57,2,3.57,5.31-1.3,5.27-3.57,5.27S452,370.52,452,367.16Zm5.89,0c0-2.69-.83-4.19-2.3-4.19s-2.32,1.52-2.32,4.19.82,4.19,2.32,4.19S457.91,369.87,457.91,367.16Z"/><path class="b" d="M476.32,367.33c0-3.47,1.49-5.46,3.88-5.46a3.07,3.07,0,0,1,3.32,2.58h-1.3a1.85,1.85,0,0,0-2-1.46c-1.68,0-2.66,1.4-2.7,4.14h.11a2.9,2.9,0,0,1,2.69-1.55,3.24,3.24,0,0,1,3.32,3.38,3.38,3.38,0,0,1-3.54,3.48C477.92,372.44,476.32,370.74,476.32,367.33Zm6.07,1.67a2.29,2.29,0,1,0-4.57,0,2.29,2.29,0,1,0,4.57,0Z"/><path class="b" d="M485.5,367.16c0-3.34,1.32-5.29,3.58-5.29s3.57,2,3.57,5.31-1.3,5.27-3.57,5.27S485.5,370.52,485.5,367.16Zm5.89,0c0-2.69-.83-4.19-2.31-4.19s-2.32,1.52-2.32,4.19.83,4.19,2.32,4.19S491.39,369.87,491.39,367.16Z"/><path class="b" d="M515.43,363.33v-.1H510v-1.12h6.69v1.17l-4.5,8.93h-1.33Z"/><path class="b" d="M518.25,367.16c0-3.34,1.32-5.29,3.58-5.29s3.57,2,3.57,5.31-1.3,5.27-3.57,5.27S518.25,370.52,518.25,367.16Zm5.89,0c0-2.69-.83-4.19-2.31-4.19s-2.32,1.52-2.32,4.19.83,4.19,2.32,4.19S524.14,369.87,524.14,367.16Z"/><path class="b" d="M543,369.51a2.53,2.53,0,0,1,2.1-2.58v-.11a2.26,2.26,0,0,1-1.69-2.26c0-1.57,1.34-2.69,3.23-2.69s3.23,1.12,3.23,2.69a2.25,2.25,0,0,1-1.69,2.26v.11a2.53,2.53,0,0,1,2.1,2.58c0,1.73-1.5,2.94-3.64,2.94S543,371.24,543,369.51Zm6-.09c0-1.16-1-2-2.37-2s-2.37.8-2.37,2,1,1.95,2.37,1.95S549,370.57,549,369.42Zm-.38-4.74a2,2,0,1,0-2,1.72A1.77,1.77,0,0,0,548.66,364.68Z"/><path class="b" d="M552.18,367.16c0-3.34,1.33-5.29,3.59-5.29s3.57,2,3.57,5.31-1.3,5.27-3.57,5.27S552.18,370.52,552.18,367.16Zm5.9,0c0-2.69-.83-4.19-2.31-4.19s-2.32,1.52-2.32,4.19.83,4.19,2.32,4.19S558.08,369.87,558.08,367.16Z"/><path class="b" d="M576.48,369.86h1.3a2,2,0,0,0,2,1.46c1.64,0,2.57-1.45,2.65-4.14h-.12a2.88,2.88,0,0,1-2.69,1.55,3.24,3.24,0,0,1-3.32-3.38,3.38,3.38,0,0,1,3.55-3.48c2.18,0,3.8,1.67,3.8,5.11s-1.41,5.46-3.89,5.46A3.18,3.18,0,0,1,576.48,369.86Zm5.7-4.51a2.29,2.29,0,0,0-2.29-2.38,2.27,2.27,0,0,0-2.28,2.34,2.29,2.29,0,1,0,4.57,0Z"/><path class="b" d="M585.51,367.16c0-3.34,1.33-5.29,3.59-5.29s3.57,2,3.57,5.31-1.3,5.27-3.57,5.27S585.51,370.52,585.51,367.16Zm5.89,0c0-2.69-.82-4.19-2.3-4.19s-2.32,1.52-2.32,4.19.83,4.19,2.32,4.19S591.4,369.87,591.4,367.16Z"/><path class="b" d="M609,363.51h-.11l-2.57,1.86V364l2.69-1.93h1.25v10.1H609Z"/><path class="b" d="M613.11,367.16c0-3.34,1.33-5.29,3.59-5.29s3.57,2,3.57,5.31-1.3,5.27-3.57,5.27S613.11,370.52,613.11,367.16Zm5.89,0c0-2.69-.82-4.19-2.3-4.19s-2.32,1.52-2.32,4.19.83,4.19,2.32,4.19S619,369.87,619,367.16Z"/><path class="b" d="M622.14,367.16c0-3.34,1.33-5.29,3.59-5.29s3.57,2,3.57,5.31-1.3,5.27-3.57,5.27S622.14,370.52,622.14,367.16Zm5.9,0c0-2.69-.83-4.19-2.31-4.19s-2.32,1.52-2.32,4.19.83,4.19,2.32,4.19S628,369.87,628,367.16Z"/><path class="b" d="M267.93,286.76a2.92,2.92,0,0,1,3.12,2.84c0,1.16-.51,2-2.33,3.89l-2.3,2.37V296h4.79v1.14h-6.54v-.87l3.42-3.7c1.29-1.39,1.67-1.92,1.67-2.81a1.79,1.79,0,0,0-1.91-1.87,1.89,1.89,0,0,0-2,2h-1.22A3.1,3.1,0,0,1,267.93,286.76Z"/><path class="b" d="M273.14,292.05c0-3.33,1.33-5.29,3.59-5.29s3.57,2,3.57,5.31-1.3,5.28-3.57,5.28S273.14,295.41,273.14,292.05Zm5.9,0c0-2.68-.83-4.18-2.31-4.18s-2.32,1.51-2.32,4.18.83,4.2,2.32,4.2S279,294.76,279,292.05Z"/><path class="b" d="M266.47,258.21h1.19a1.82,1.82,0,0,0,2-1.79,1.75,1.75,0,0,0-1.94-1.72,1.88,1.88,0,0,0-2.11,1.76h-1.23a3.13,3.13,0,0,1,3.43-2.86c2,0,3.14,1.26,3.13,2.68a2.33,2.33,0,0,1-1.8,2.32v.12a2.4,2.4,0,0,1,2.18,2.5c0,1.7-1.55,3-3.56,3s-3.46-1.13-3.55-2.85h1.22a2.08,2.08,0,0,0,2.32,1.75,2,2,0,0,0,2.28-1.9c0-1.17-.88-1.9-2.3-1.9h-1.25Z"/><path class="b" d="M273.14,258.89c0-3.33,1.33-5.29,3.59-5.29s3.57,2,3.57,5.31-1.3,5.28-3.57,5.28S273.14,262.25,273.14,258.89Zm5.9,0c0-2.68-.83-4.18-2.31-4.18s-2.32,1.51-2.32,4.18.83,4.2,2.32,4.2S279,261.6,279,258.89Z"/><path class="b" d="M268.72,228.69H263.8v-1.15c1.36-2.29,2.91-4.75,4.33-6.86H270v6.89h1.44v1.12H270v2.1h-1.23Zm-3.63-1.12h3.64v-5.72h-.09c-1.13,1.69-2.45,3.78-3.55,5.64Z"/><path class="b" d="M273.14,225.73c0-3.33,1.33-5.29,3.59-5.29s3.57,2,3.57,5.31S279,231,276.73,231,273.14,229.09,273.14,225.73Zm5.9,0c0-2.68-.83-4.18-2.31-4.18s-2.32,1.51-2.32,4.18.83,4.2,2.32,4.2S279,228.44,279,225.73Z"/><path class="b" d="M264.43,195h1.24a2,2,0,0,0,2.17,1.8,2.16,2.16,0,0,0,2.2-2.37,2.11,2.11,0,0,0-2.15-2.28,2.29,2.29,0,0,0-2.12,1.19h-1.18l.58-5.78h5.61v1.13h-4.62l-.32,3.29H266a2.72,2.72,0,0,1,2.25-.92,3.13,3.13,0,0,1,3.1,3.34,3.33,3.33,0,0,1-3.48,3.51A3.14,3.14,0,0,1,264.43,195Z"/><path class="b" d="M273.14,192.57c0-3.33,1.33-5.29,3.59-5.29s3.57,2,3.57,5.31-1.3,5.28-3.57,5.28S273.14,195.93,273.14,192.57Zm5.9,0c0-2.68-.83-4.18-2.31-4.18s-2.32,1.51-2.32,4.18.83,4.2,2.32,4.2S279,195.28,279,192.57Z"/><path class="b" d="M264,159.58c0-3.47,1.49-5.46,3.88-5.46a3.08,3.08,0,0,1,3.32,2.59h-1.3a1.86,1.86,0,0,0-2-1.47c-1.68,0-2.66,1.4-2.7,4.15h.11a2.91,2.91,0,0,1,2.69-1.56,3.24,3.24,0,0,1,3.32,3.39,3.38,3.38,0,0,1-3.54,3.48C265.57,164.7,264,163,264,159.58Zm6.07,1.68a2.29,2.29,0,1,0-4.57,0,2.29,2.29,0,1,0,4.57,0Z"/><path class="b" d="M273.14,159.41c0-3.33,1.33-5.29,3.59-5.29s3.57,2,3.57,5.31-1.3,5.27-3.57,5.27S273.14,162.77,273.14,159.41Zm5.9,0c0-2.68-.83-4.18-2.31-4.18s-2.32,1.51-2.32,4.18.83,4.2,2.32,4.2S279,162.12,279,159.41Z"/><path class="b" d="M270.33,122.42v-.09h-5.4V121.2h6.68v1.17l-4.49,8.94h-1.33Z"/><path class="b" d="M273.14,126.25c0-3.34,1.33-5.29,3.59-5.29s3.57,2,3.57,5.31-1.3,5.27-3.57,5.27S273.14,129.61,273.14,126.25Zm5.9,0c0-2.68-.83-4.18-2.31-4.18s-2.32,1.51-2.32,4.18.83,4.19,2.32,4.19S279,129,279,126.25Z"/><path class="b" d="M264,95.44a2.53,2.53,0,0,1,2.1-2.58v-.11a2.26,2.26,0,0,1-1.69-2.26c0-1.57,1.34-2.69,3.23-2.69s3.23,1.12,3.23,2.69a2.25,2.25,0,0,1-1.69,2.26v.11a2.53,2.53,0,0,1,2.1,2.58c0,1.73-1.5,2.94-3.64,2.94S264,97.17,264,95.44Zm6-.09c0-1.16-1-2-2.36-2s-2.37.8-2.37,2,1,2,2.37,2S270,96.5,270,95.35Zm-.37-4.74a2,2,0,1,0-2,1.72A1.77,1.77,0,0,0,269.62,90.61Z"/><path class="b" d="M273.14,93.09c0-3.34,1.33-5.29,3.59-5.29s3.57,2,3.57,5.31-1.3,5.27-3.57,5.27S273.14,96.45,273.14,93.09Zm5.89,0c0-2.69-.82-4.19-2.3-4.19s-2.32,1.52-2.32,4.19.83,4.19,2.32,4.19S279,95.8,279,93.09Z"/><path class="b" d="M264.11,62.63h1.3a2,2,0,0,0,2,1.46c1.64,0,2.58-1.45,2.65-4.14H270a2.88,2.88,0,0,1-2.69,1.55A3.24,3.24,0,0,1,264,58.12a3.38,3.38,0,0,1,3.55-3.48c2.18,0,3.8,1.67,3.8,5.11s-1.41,5.46-3.89,5.46A3.18,3.18,0,0,1,264.11,62.63Zm5.69-4.51a2.28,2.28,0,1,0-4.56,0,2.28,2.28,0,1,0,4.56,0Z"/><path class="b" d="M273.14,59.93c0-3.34,1.33-5.29,3.59-5.29s3.57,2,3.57,5.31-1.3,5.27-3.57,5.27S273.14,63.29,273.14,59.93Zm5.89,0c0-2.69-.82-4.19-2.3-4.19s-2.32,1.52-2.32,4.19.83,4.19,2.32,4.19S279,62.64,279,59.93Z"/><line class="c" x1="284.98" y1="357.69" x2="617.86" y2="25.87"/><path class="d" d="M544.36,55.92h2.57v2.67h.25c.85-1.87,2.49-3,5.08-3,3.79,0,5.91,2.24,5.91,6.25V72.82h-2.7V62.54c0-3-1.28-4.49-4-4.49s-4.43,1.81-4.43,4.77v10h-2.7Z"/><path class="e" d="M289.3,357.69c11.32-23.39,328.56-22,328.56-22"/><path class="f" d="M526.81,295.76h2.7v23.6h-2.7Z"/><path class="f" d="M533.89,310.91c0-5.44,3-8.74,7.79-8.74s7.79,3.3,7.79,8.74-3,8.75-7.79,8.75S533.89,316.33,533.89,310.91Zm12.79,0c0-4-1.8-6.31-5-6.31s-5,2.3-5,6.31,1.8,6.32,5,6.32S546.68,314.91,546.68,310.91Z"/><path class="f" d="M553.57,321.22h2.85c.3,1.38,1.8,2.27,4.23,2.27,3,0,4.83-1.48,4.83-4v-3.32h-.25a5.86,5.86,0,0,1-5.3,2.92c-4.37,0-7.08-3.39-7.08-8.45s2.74-8.49,7.08-8.49a6,6,0,0,1,5.42,3h.25v-2.68h2.58v17.2c0,3.77-2.92,6.19-7.53,6.19C556.58,325.85,554,324,553.57,321.22Zm12-10.56c0-3.68-1.89-6.06-5-6.06s-4.89,2.38-4.89,6.06,1.75,6.07,4.89,6.07S565.54,314.34,565.54,310.66Z"/><path class="f" d="M580.52,296.21c4,0,7,2.68,7,6.35,0,2.6-1.13,4.48-5.2,8.7l-5.14,5.31v.25h10.72v2.54H573.23v-1.95l7.65-8.27c2.88-3.12,3.73-4.29,3.73-6.28a4,4,0,0,0-4.28-4.19,4.23,4.23,0,0,0-4.51,4.45h-2.73C573.09,299.1,576.19,296.21,580.52,296.21Z"/><path class="f" d="M601.68,302.46h2.57v2.67h.25c.85-1.87,2.49-3,5.08-3,3.79,0,5.91,2.24,5.91,6.25v10.94h-2.7V309.08c0-3-1.28-4.48-4-4.48s-4.43,1.8-4.43,4.76v10h-2.7Z"/><path class="b" d="M651.43,372.21v-10.1h1.23l5.48,7.86h.11v-7.86h1.25v10.1h-1.23l-5.48-7.83h-.11v7.83Z"/><path class="b" d="M668,372.21h-1.15V371h-.12a2.34,2.34,0,0,1-2.33,1.32c-1.7,0-2.58-1-2.58-2.8v-4.89h1.2v4.6c0,1.36.51,2,1.71,2a1.91,1.91,0,0,0,2.06-2.12v-4.47H668Z"/><path class="b" d="M670.29,364.66h1.15v1.19h.11a2.14,2.14,0,0,1,2.11-1.32,2.19,2.19,0,0,1,2.09,1.32h.11a2.53,2.53,0,0,1,2.31-1.32,2.2,2.2,0,0,1,2.4,2.46v5.22h-1.2v-4.93c0-1.12-.53-1.67-1.59-1.67a1.7,1.7,0,0,0-1.75,1.75v4.85h-1.21v-5.12a1.43,1.43,0,0,0-1.57-1.48,1.83,1.83,0,0,0-1.75,1.92v4.68h-1.21Z"/><path class="b" d="M684.1,371H684v1.2h-1.15V361.66H684v4.19h.12a2.6,2.6,0,0,1,2.36-1.32c1.92,0,3.17,1.53,3.17,3.91s-1.25,3.91-3.17,3.91A2.71,2.71,0,0,1,684.1,371Zm-.08-2.57c0,1.74.85,2.82,2.22,2.82s2.2-1.06,2.2-2.82-.82-2.83-2.2-2.83S684,366.69,684,368.44Z"/><path class="b" d="M697.78,370.26a3,3,0,0,1-3.18,2.09c-2.09,0-3.4-1.52-3.4-3.9s1.33-3.92,3.4-3.92,3.28,1.45,3.28,3.8v.46h-5.43v0c.07,1.5.9,2.44,2.18,2.44a2,2,0,0,0,2-1Zm-5.33-2.45h4.16a2,2,0,0,0-2-2.22A2.16,2.16,0,0,0,692.45,367.81Z"/><path class="b" d="M699.77,364.66h1.15v1.12H701a2.12,2.12,0,0,1,2.1-1.25,5.6,5.6,0,0,1,.6,0v1.21a4.61,4.61,0,0,0-.77-.07,1.85,1.85,0,0,0-2,1.83v4.68h-1.2Z"/><path class="b" d="M708.9,368.44c0-2.43,1.33-3.91,3.48-3.91s3.48,1.48,3.48,3.91-1.33,3.91-3.48,3.91S708.9,370.86,708.9,368.44Zm5.72,0c0-1.8-.81-2.83-2.24-2.83s-2.23,1-2.23,2.83.8,2.82,2.23,2.82S714.62,370.22,714.62,368.44Z"/><path class="b" d="M718.26,365.67H717v-1h1.26v-.84a2,2,0,0,1,2.19-2.23,5.09,5.09,0,0,1,.81.07v1a3.11,3.11,0,0,0-.57,0c-.87,0-1.23.42-1.23,1.25v.8h1.73v1h-1.73v6.54h-1.2Z"/><path class="b" d="M726.78,362.36a.84.84,0,0,1,1.68,0,.84.84,0,1,1-1.68,0Zm.23,2.3h1.21v7.55H727Z"/><path class="b" d="M732.22,362.71v2h1.68v1h-1.68v4.27c0,.89.34,1.27,1.12,1.27a5.25,5.25,0,0,0,.56,0v1a4.05,4.05,0,0,1-.7.07c-1.56,0-2.18-.58-2.18-2v-4.58H729.8v-1H731v-2Z"/><path class="b" d="M741.82,370.26a3,3,0,0,1-3.18,2.09c-2.09,0-3.4-1.52-3.4-3.9s1.33-3.92,3.4-3.92,3.28,1.45,3.28,3.8v.46h-5.43v0c.07,1.5.9,2.44,2.18,2.44a2,2,0,0,0,2-1Zm-5.33-2.45h4.16a2,2,0,0,0-2-2.22A2.17,2.17,0,0,0,736.49,367.81Z"/><path class="b" d="M743.81,364.66H745v1.19h.11a2.14,2.14,0,0,1,2.11-1.32,2.19,2.19,0,0,1,2.09,1.32h.11a2.53,2.53,0,0,1,2.31-1.32,2.2,2.2,0,0,1,2.4,2.46v5.22h-1.2v-4.93c0-1.12-.53-1.67-1.59-1.67a1.7,1.7,0,0,0-1.75,1.75v4.85h-1.21v-5.12a1.43,1.43,0,0,0-1.57-1.48,1.83,1.83,0,0,0-1.75,1.92v4.68h-1.21Z"/><path class="b" d="M758.93,364.53c1.58,0,2.68.78,2.84,2h-1.19a1.54,1.54,0,0,0-1.66-1c-.89,0-1.59.46-1.59,1.13,0,.52.42.84,1.3,1.06l1.17.28c1.42.34,2.11,1,2.11,2,0,1.35-1.31,2.29-3,2.29s-2.84-.81-3-2.06h1.24a1.67,1.67,0,0,0,1.77,1c1,0,1.75-.48,1.75-1.18,0-.51-.4-.87-1.2-1.06l-1.3-.32c-1.41-.34-2.06-.95-2.06-2C756.11,365.48,757.33,364.53,758.93,364.53Z"/><path class="b" d="M82.81,31.82V21.72H84l5.48,7.86h.11V21.72h1.25v10.1H89.65L84.17,24h-.11v7.83Z"/><path class="b" d="M99.41,31.82H98.26V30.64h-.11A2.37,2.37,0,0,1,95.81,32c-1.7,0-2.58-1-2.58-2.8V24.27h1.2v4.6c0,1.36.51,2,1.71,2a1.9,1.9,0,0,0,2.06-2.12V24.27h1.21Z"/><path class="b" d="M101.67,24.27h1.15v1.19h.11A2.14,2.14,0,0,1,105,24.14a2.18,2.18,0,0,1,2.09,1.32h.11a2.53,2.53,0,0,1,2.31-1.32A2.21,2.21,0,0,1,112,26.61v5.21h-1.21V26.89c0-1.12-.52-1.66-1.59-1.66A1.69,1.69,0,0,0,107.41,27v4.85h-1.2V26.7a1.43,1.43,0,0,0-1.58-1.47,1.82,1.82,0,0,0-1.75,1.91v4.68h-1.21Z"/><path class="b" d="M115.48,30.62h-.11v1.2h-1.15V21.28h1.21v4.18h.11a2.61,2.61,0,0,1,2.37-1.32c1.91,0,3.16,1.53,3.16,3.91S119.82,32,117.91,32A2.72,2.72,0,0,1,115.48,30.62Zm-.08-2.57c0,1.74.85,2.82,2.23,2.82s2.19-1.06,2.19-2.82-.81-2.82-2.19-2.82S115.4,26.3,115.4,28.05Z"/><path class="b" d="M129.17,29.87A3,3,0,0,1,126,32c-2.1,0-3.41-1.52-3.41-3.9s1.33-3.92,3.41-3.92,3.27,1.45,3.27,3.8v.46h-5.42v.05c.06,1.5.89,2.44,2.17,2.44a2,2,0,0,0,1.95-1Zm-5.33-2.45H128a2,2,0,0,0-2-2.22A2.15,2.15,0,0,0,123.84,27.42Z"/><path class="b" d="M131.15,24.27h1.15v1.12h.11a2.13,2.13,0,0,1,2.1-1.25,5.47,5.47,0,0,1,.6,0v1.21a4.61,4.61,0,0,0-.77-.07,1.85,1.85,0,0,0-2,1.83v4.68h-1.21Z"/><path class="b" d="M140.28,28.05c0-2.43,1.33-3.91,3.48-3.91s3.48,1.48,3.48,3.91S145.91,32,143.76,32,140.28,30.47,140.28,28.05Zm5.72,0c0-1.8-.81-2.82-2.24-2.82s-2.23,1-2.23,2.82.8,2.82,2.23,2.82S146,29.83,146,28.05Z"/><path class="b" d="M149.64,25.28h-1.26v-1h1.26v-.84a2,2,0,0,1,2.19-2.23,4.12,4.12,0,0,1,.81.08v1a3.11,3.11,0,0,0-.57,0c-.86,0-1.23.42-1.23,1.25v.8h1.73v1h-1.73v6.54h-1.2Z"/><path class="b" d="M158.16,22a.84.84,0,1,1,.84.84A.84.84,0,0,1,158.16,22Zm.24,2.29h1.2v7.55h-1.2Z"/><path class="b" d="M161.9,24.27h1.15v1.19h.11a2.27,2.27,0,0,1,2.27-1.32,2.46,2.46,0,0,1,2.64,2.79v4.89h-1.21V27.23c0-1.36-.57-2-1.78-2a1.91,1.91,0,0,0-2,2.12v4.47h-1.2Z"/><path class="b" d="M172.9,24.14c1.59,0,2.69.78,2.85,2h-1.19a1.54,1.54,0,0,0-1.66-1c-.9,0-1.6.46-1.6,1.13s.42.84,1.31,1.06l1.16.28c1.42.34,2.11,1,2.11,2,0,1.35-1.31,2.29-3,2.29s-2.83-.81-3-2.06h1.24a1.66,1.66,0,0,0,1.77,1c1,0,1.74-.48,1.74-1.18,0-.51-.39-.86-1.2-1.06l-1.29-.32c-1.42-.34-2.06-.95-2.06-2C170.09,25.09,171.3,24.14,172.9,24.14Z"/><path class="b" d="M179.41,22.32v1.95h1.68v1h-1.68v4.27c0,.89.34,1.27,1.12,1.27a5.25,5.25,0,0,0,.56,0v1a4.27,4.27,0,0,1-.71.07c-1.55,0-2.18-.58-2.18-2V25.28H177v-1h1.21V22.32Z"/><path class="b" d="M182.91,24.27h1.15v1.12h.11a2.1,2.1,0,0,1,2.09-1.25,5.66,5.66,0,0,1,.61,0v1.21a4.72,4.72,0,0,0-.77-.07,1.85,1.85,0,0,0-2,1.83v4.68h-1.2Z"/><path class="b" d="M194.48,31.82h-1.15V30.64h-.11A2.37,2.37,0,0,1,190.88,32c-1.7,0-2.58-1-2.58-2.8V24.27h1.21v4.6c0,1.36.5,2,1.71,2a1.89,1.89,0,0,0,2.05-2.12V24.27h1.21Z"/><path class="b" d="M201.77,26.58a1.86,1.86,0,0,0-1.94-1.35c-1.36,0-2.22,1.08-2.22,2.79s.87,2.85,2.22,2.85a1.81,1.81,0,0,0,1.94-1.32H203A2.91,2.91,0,0,1,199.83,32c-2.11,0-3.46-1.54-3.46-3.94s1.34-3.88,3.46-3.88A3,3,0,0,1,203,26.58Z"/><path class="b" d="M206.62,22.32v1.95h1.68v1h-1.68v4.27c0,.89.33,1.27,1.12,1.27a5.25,5.25,0,0,0,.56,0v1a4.27,4.27,0,0,1-.71.07c-1.55,0-2.18-.58-2.18-2V25.28h-1.22v-1h1.22V22.32Z"/><path class="b" d="M209.91,22a.84.84,0,1,1,.84.84A.84.84,0,0,1,209.91,22Zm.24,2.29h1.2v7.55h-1.2Z"/><path class="b" d="M213.27,28.05c0-2.43,1.33-3.91,3.48-3.91s3.48,1.48,3.48,3.91S218.9,32,216.75,32,213.27,30.47,213.27,28.05Zm5.71,0c0-1.8-.8-2.82-2.23-2.82s-2.23,1-2.23,2.82.8,2.82,2.23,2.82S219,29.83,219,28.05Z"/><path class="b" d="M222.12,24.27h1.15v1.19h.11a2.27,2.27,0,0,1,2.27-1.32,2.46,2.46,0,0,1,2.64,2.79v4.89h-1.2V27.23c0-1.36-.58-2-1.78-2a1.91,1.91,0,0,0-2,2.12v4.47h-1.2Z"/><path class="b" d="M233.13,24.14c1.58,0,2.68.78,2.84,2h-1.19a1.54,1.54,0,0,0-1.66-1c-.9,0-1.6.46-1.6,1.13s.42.84,1.31,1.06l1.17.28c1.42.34,2.1,1,2.1,2,0,1.35-1.31,2.29-3,2.29s-2.84-.81-3-2.06h1.24a1.66,1.66,0,0,0,1.77,1c1,0,1.74-.48,1.74-1.18,0-.51-.39-.86-1.19-1.06l-1.3-.32c-1.41-.34-2.06-.95-2.06-2C230.31,25.09,231.52,24.14,233.13,24.14Z"/></svg>