<svg xmlns="http://www.w3.org/2000/svg" xmlns:xlink="http://www.w3.org/1999/xlink" viewBox="0 0 900 630"><defs><style>.a{fill:#3e8a99;}.b{fill:#4baabd;}.c{fill:#f2f0f0;}.d{fill:#62ddf5;}.e{fill:#4f402f;}.f{fill:#786548;}.g{fill:#a18462;}.h{fill:#ba9572;}.i{fill:#a37f3a;}.j{fill:#c29644;}.k{fill:#ffc65a;}.l{fill:#73070a;}.m{fill:#a80b0e;}.n{fill:#fd1015;}.o{fill:#149159;}.p{fill:#19b56f;}.q{fill:#1edd88;}.r{fill:#574fb0;}.s{fill:#6057c2;}.t{fill:#7e73ff;}.u{fill:#ccab78;}.v{fill:#d9b580;}.w{fill:#e3be86;}.x{fill:#f5cd90;}.y{fill:#dbb781;}.z{fill:#deb983;}.aa{fill:#f2cb8f;}.ab{fill:#dbdbdb;}.ac{fill:none;stroke:#dbdbdb;stroke-miterlimit:10;}</style><symbol id="b" viewBox="0 0 54 96.22"><polygon class="o" points="10.09 0.28 52.3 24.65 52.3 89.65 10.09 65.28 10.09 0.28"/><polygon class="p" points="10.09 0.28 10.58 0 53 24.26 52.3 24.65 10.09 0.28"/><polygon class="c" points="0.49 10.46 10.09 4.97 52.3 29.34 42.91 34.72 0.49 10.46"/><polygon class="o" points="0 6.05 43.45 31.22 43.45 96.22 0 71.05 0 6.05"/><polygon class="p" points="0 6.05 0.49 5.77 42.91 30.03 42.22 30.43 0 6.05"/><polygon class="q" points="43.45 31.22 54 25.26 54 90.08 43.45 96.22 43.45 31.22"/><polygon class="p" points="54 25.26 53 24.26 42.22 30.43 43.59 31.22 54 25.26"/></symbol><symbol id="c" viewBox="0 0 54 96.22"><polygon class="i" points="10.09 0.28 52.3 24.65 52.3 89.65 10.09 65.28 10.09 0.28"/><polygon class="j" points="10.09 0.28 10.58 0 53 24.26 52.3 24.65 10.09 0.28"/><polygon class="c" points="0.49 10.46 10.09 4.97 52.3 29.34 42.91 34.72 0.49 10.46"/><polygon class="i" points="0 6.05 43.45 31.22 43.45 96.22 0 71.05 0 6.05"/><polygon class="j" points="0 6.05 0.49 5.77 42.91 30.03 42.22 30.43 0 6.05"/><polygon class="k" points="43.45 31.22 54 25.26 54 90.08 43.45 96.22 43.45 31.22"/><polygon class="j" points="54 25.26 53 24.26 42.22 30.43 43.59 31.22 54 25.26"/></symbol><symbol id="d" viewBox="0 0 54 96.22"><polygon class="r" points="10.09 0.28 52.3 24.65 52.3 89.65 10.09 65.28 10.09 0.28"/><polygon class="s" points="10.09 0.28 10.58 0 53 24.26 52.3 24.65 10.09 0.28"/><polygon class="c" points="0.49 10.46 10.09 4.97 52.3 29.34 42.91 34.72 0.49 10.46"/><polygon class="r" points="0 6.05 43.45 31.22 43.45 96.22 0 71.05 0 6.05"/><polygon class="s" points="0 6.05 0.49 5.77 42.91 30.03 42.22 30.43 0 6.05"/><polygon class="t" points="43.45 31.22 54 25.26 54 90.08 43.45 96.22 43.45 31.22"/><polygon class="s" points="54 25.26 53 24.26 42.22 30.43 43.59 31.22 54 25.26"/></symbol><symbol id="e" viewBox="0 0 54 96.22"><polygon class="l" points="10.09 0.28 52.3 24.65 52.3 89.65 10.09 65.28 10.09 0.28"/><polygon class="m" points="10.09 0.28 10.58 0 53 24.26 52.3 24.65 10.09 0.28"/><polygon class="c" points="0.49 10.46 10.09 4.97 52.3 29.34 42.91 34.72 0.49 10.46"/><polygon class="l" points="0 6.05 43.45 31.22 43.45 96.22 0 71.05 0 6.05"/><polygon class="m" points="0 6.05 0.49 5.77 42.91 30.03 42.22 30.43 0 6.05"/><polygon class="n" points="43.45 31.22 54 25.26 54 90.08 43.45 96.22 43.45 31.22"/><polygon class="m" points="54 25.26 53 24.26 42.22 30.43 43.59 31.22 54 25.26"/></symbol><symbol id="g" viewBox="0 0 54 96.22"><polygon class="a" points="10.09 0.28 52.3 24.65 52.3 89.65 10.09 65.28 10.09 0.28"/><polygon class="b" points="10.09 0.28 10.58 0 53 24.26 52.3 24.65 10.09 0.28"/><polygon class="c" points="0.49 10.46 10.09 4.97 52.3 29.34 42.91 34.72 0.49 10.46"/><polygon class="a" points="0 6.05 43.45 31.22 43.45 96.22 0 71.05 0 6.05"/><polygon class="b" points="0 6.05 0.49 5.77 42.91 30.03 42.22 30.43 0 6.05"/><polygon class="d" points="43.45 31.22 54 25.26 54 90.08 43.45 96.22 43.45 31.22"/><polygon class="b" points="54 25.26 53 24.26 42.22 30.43 43.59 31.22 54 25.26"/></symbol><symbol id="a" viewBox="0 0 234.18 479.08"><polyline class="e" points="175.39 16.52 175 348.5 13.91 438.14 13.07 101.49 168.18 0"/><polyline class="f" points="224.88 55.86 224.88 55.86 173.38 25.66 173.38 343.94 224.88 374.42 224.88 55.86"/><polygon class="g" points="224.88 374.42 224.88 386.56 76.8 472.27 76.8 459.75 224.88 374.42"/><polygon class="h" points="22.89 431.58 74.38 462.05 224.88 374.42 173.38 343.94 22.89 431.58"/><use width="54" height="96.22" transform="matrix(-0.33, 0.59, -0.59, -0.33, 225.11, 367.83)" xlink:href="#b"/><use width="54" height="96.22" transform="matrix(-0.33, 0.59, -0.59, -0.33, 226.7, 356.49)" xlink:href="#c"/><use width="54" height="96.22" transform="matrix(-0.33, 0.59, -0.59, -0.33, 226.51, 350.38)" xlink:href="#d"/><use width="54" height="96.22" transform="matrix(0.76, 0.16, -0.16, 0.76, 146.77, 322.76)" xlink:href="#e"/><use width="54" height="96.22" transform="translate(107.8 343.22) scale(0.78)" xlink:href="#b"/><use width="54" height="96.22" transform="translate(93.21 350.72) scale(0.78)" xlink:href="#g"/><use width="54" height="96.22" transform="translate(81.35 359.11) scale(0.78)" xlink:href="#c"/><use width="54" height="96.22" transform="translate(68.94 365.69) scale(0.78)" xlink:href="#d"/><use width="54" height="96.22" transform="translate(56.63 369.63) scale(0.78)" xlink:href="#e"/><polygon class="g" points="224.88 264.42 224.88 276.56 76.8 362.27 76.8 349.75 224.88 264.42"/><polygon class="h" points="19.4 322.8 70.9 353.27 224.88 264.42 173.38 233.94 19.4 322.8"/><use width="54" height="96.22" transform="translate(182.7 210.17) scale(0.63)" xlink:href="#b"/><use width="54" height="96.22" transform="translate(170.49 212.35) scale(0.67)" xlink:href="#c"/><use width="54" height="96.22" transform="translate(139.47 194.41) scale(0.93)" xlink:href="#g"/><use width="54" height="96.22" transform="translate(128.86 206.74) scale(0.88)" xlink:href="#d"/><use width="54" height="96.22" transform="translate(117.22 236.21) scale(0.72)" xlink:href="#e"/><use width="54" height="96.22" transform="translate(96.82 226.81) scale(0.88)" xlink:href="#g"/><use width="54" height="96.22" transform="translate(89.65 251.63) scale(0.69 0.76)" xlink:href="#d"/><use width="54" height="96.22" transform="translate(43.44 269.86) rotate(-22.92) scale(0.88)" xlink:href="#e"/><polygon class="g" points="224.88 165.42 224.88 177.56 76.8 263.27 76.8 250.75 224.88 165.42"/><polygon class="h" points="19.4 223.8 70.9 254.27 224.88 165.42 173.38 134.94 19.4 223.8"/><use width="54" height="96.22" transform="translate(168.74 74.52)" xlink:href="#g"/><use width="54" height="96.22" transform="translate(170.21 98.44) rotate(10.06) scale(0.8)" xlink:href="#c"/><use width="54" height="96.22" transform="translate(151.97 121.12) scale(0.62 0.7)" xlink:href="#e"/><use width="54" height="96.22" transform="translate(112.6 102.78)" xlink:href="#b"/><use width="54" height="96.22" transform="translate(93.06 111.21) scale(1.05)" xlink:href="#d"/><use width="54" height="96.22" transform="translate(83 139.38) scale(0.8)" xlink:href="#e"/><use width="54" height="96.22" transform="translate(67.84 146.92) scale(0.8)" xlink:href="#c"/><use width="54" height="96.22" transform="translate(46.14 142.74)" xlink:href="#g"/><polygon class="f" points="0 98.03 0 440.98 66 479.08 66 136.13 0 98.03"/><polygon class="g" points="76.8 129.29 66 136.13 66 479.08 76.8 472.83 76.8 129.29"/><polygon class="g" points="233.96 38.32 224.88 43.61 224.88 386.56 233.96 381.87 233.96 38.32"/><polygon class="h" points="0 98.03 66 136.13 234.18 38.1 168.18 0 0 98.03"/><polygon class="f" points="234.18 38.1 234.18 50.24 76.8 141.6 66 136.13 234.18 38.1"/><polygon class="g" points="234.18 38.1 234.18 50.24 66 148.65 66 136.13 234.18 38.1"/></symbol><symbol id="hb" viewBox="0 0 54 96.22"><polygon class="y" points="10.09 0.28 52.3 24.65 52.3 89.65 10.09 65.28 10.09 0.28"/><polygon class="z" points="10.09 0.28 10.58 0 53 24.26 52.3 24.65 10.09 0.28"/><polygon class="aa" points="0.49 10.46 10.09 4.97 52.3 29.34 42.91 34.72 0.49 10.46"/><polygon class="y" points="0 6.05 43.45 31.22 43.45 96.22 0 71.05 0 6.05"/><polygon class="z" points="0 6.05 0.49 5.77 42.91 30.03 42.22 30.43 0 6.05"/><polygon class="aa" points="43.45 31.22 54 25.26 54 90.08 43.45 96.22 43.45 31.22"/><polygon class="z" points="54 25.26 53 24.26 42.22 30.43 43.59 31.22 54 25.26"/></symbol><symbol id="ha" viewBox="0 0 234.18 479.08"><polyline class="u" points="175.39 16.52 175 348.5 13.91 438.14 13.07 101.49 168.18 0"/><polyline class="v" points="224.88 55.86 224.88 55.86 173.38 25.66 173.38 343.94 224.88 374.42 224.88 55.86"/><polygon class="w" points="224.88 374.42 224.88 386.56 76.8 472.27 76.8 459.75 224.88 374.42"/><polygon class="x" points="22.89 431.58 74.38 462.05 224.88 374.42 173.38 343.94 22.89 431.58"/><use width="54" height="96.22" transform="matrix(-0.33, 0.59, -0.59, -0.33, 225.11, 367.83)" xlink:href="#hb"/><use width="54" height="96.22" transform="matrix(-0.33, 0.59, -0.59, -0.33, 226.7, 356.49)" xlink:href="#hb"/><use width="54" height="96.22" transform="matrix(-0.33, 0.59, -0.59, -0.33, 226.51, 350.38)" xlink:href="#hb"/><use width="54" height="96.22" transform="matrix(0.76, 0.16, -0.16, 0.76, 146.77, 322.76)" xlink:href="#hb"/><use width="54" height="96.22" transform="translate(107.8 343.22) scale(0.78)" xlink:href="#hb"/><use width="54" height="96.22" transform="translate(93.21 350.72) scale(0.78)" xlink:href="#hb"/><use width="54" height="96.22" transform="translate(81.35 359.11) scale(0.78)" xlink:href="#hb"/><use width="54" height="96.22" transform="translate(68.94 365.69) scale(0.78)" xlink:href="#hb"/><use width="54" height="96.22" transform="translate(56.63 369.63) scale(0.78)" xlink:href="#hb"/><polygon class="w" points="224.88 264.42 224.88 276.56 76.8 362.27 76.8 349.75 224.88 264.42"/><polygon class="x" points="19.4 322.8 70.9 353.27 224.88 264.42 173.38 233.94 19.4 322.8"/><use width="54" height="96.22" transform="translate(182.7 210.17) scale(0.63 0.61)" xlink:href="#hb"/><use width="54" height="96.22" transform="translate(170.49 212.35) scale(0.67)" xlink:href="#hb"/><use width="54" height="96.22" transform="translate(139.47 194.41) scale(0.93)" xlink:href="#hb"/><use width="54" height="96.22" transform="translate(128.86 206.74) scale(0.88)" xlink:href="#hb"/><use width="54" height="96.22" transform="translate(117.22 236.21) scale(0.72)" xlink:href="#hb"/><use width="54" height="96.22" transform="translate(96.82 226.81) scale(0.88)" xlink:href="#hb"/><use width="54" height="96.22" transform="translate(89.65 251.63) scale(0.69 0.76)" xlink:href="#hb"/><use width="54" height="96.22" transform="translate(43.44 269.86) rotate(-22.92) scale(0.88)" xlink:href="#hb"/><polygon class="w" points="224.88 165.42 224.88 177.56 76.8 263.27 76.8 250.75 224.88 165.42"/><polygon class="x" points="19.4 223.8 70.9 254.27 224.88 165.42 173.38 134.94 19.4 223.8"/><use width="54" height="96.22" transform="translate(168.74 74.52) scale(1 0.97)" xlink:href="#hb"/><use width="54" height="96.22" transform="translate(170.21 98.44) rotate(10.06) scale(0.8)" xlink:href="#hb"/><use width="54" height="96.22" transform="translate(151.97 121.12) scale(0.62 0.7)" xlink:href="#hb"/><use width="54" height="96.22" transform="translate(113.01 102.55) rotate(0.49)" xlink:href="#hb"/><use width="54" height="96.22" transform="translate(93.06 111.21) scale(1.05)" xlink:href="#hb"/><use width="54" height="96.22" transform="translate(83 139.38) scale(0.8 0.82)" xlink:href="#hb"/><use width="54" height="96.22" transform="translate(67.84 146.92) scale(0.8)" xlink:href="#hb"/><use width="54" height="96.22" transform="translate(46.14 142.74)" xlink:href="#hb"/><polygon class="v" points="0 98.03 0 440.98 66 479.08 66 136.13 0 98.03"/><polygon class="w" points="76.8 129.29 66 136.13 66 479.08 76.8 472.83 76.8 129.29"/><polygon class="w" points="233.96 38.32 224.88 43.61 224.88 386.56 233.96 381.87 233.96 38.32"/><polygon class="x" points="0 98.03 66 136.13 234.18 38.1 168.18 0 0 98.03"/><polygon class="f" points="234.18 38.1 234.18 50.24 76.8 141.6 66 136.13 234.18 38.1"/><polygon class="w" points="234.18 38.1 234.18 50.24 66 148.65 66 136.13 234.18 38.1"/></symbol></defs><title>library</title><polygon class="k" points="25.36 189.43 223.87 74.82 422.37 189.43 223.87 303.82 25.36 189.43"/><polygon class="k" points="471.24 189.43 669.75 74.82 868.26 189.43 669.75 303.82 471.24 189.43"/><polygon class="k" points="25.36 504.06 223.87 389.45 422.37 504.06 223.87 618.45 25.36 504.06"/><polygon class="k" points="471.24 504.06 669.75 389.45 868.26 504.06 669.75 618.45 471.24 504.06"/><use width="234.18" height="479.08" transform="translate(181.38 7.12) scale(0.29)" xlink:href="#a"/><use width="234.18" height="479.08" transform="translate(221.6 30.64) scale(0.29)" xlink:href="#a"/><use width="234.18" height="479.08" transform="translate(261.82 54.17) scale(0.29)" xlink:href="#a"/><use width="234.18" height="479.08" transform="translate(302.04 77.7) scale(0.29)" xlink:href="#a"/><use width="234.18" height="479.08" transform="translate(87.56 63.35) scale(0.29)" xlink:href="#a"/><use width="234.18" height="479.08" transform="translate(127.78 86.87) scale(0.29)" xlink:href="#a"/><use width="234.18" height="479.08" transform="translate(168 110.4) scale(0.29)" xlink:href="#a"/><use width="234.18" height="479.08" transform="translate(208.23 133.92) scale(0.29)" xlink:href="#a"/><use width="234.18" height="479.08" transform="translate(627.26 7.12) scale(0.29)" xlink:href="#ha"/><use width="234.18" height="479.08" transform="translate(667.48 30.64) scale(0.29)" xlink:href="#ha"/><use width="234.18" height="479.08" transform="translate(707.71 54.17) scale(0.29)" xlink:href="#ha"/><use width="234.18" height="479.08" transform="translate(747.93 77.7) scale(0.29)" xlink:href="#ha"/><use width="234.18" height="479.08" transform="translate(533.44 63.35) scale(0.29)" xlink:href="#a"/><use width="234.18" height="479.08" transform="translate(573.66 86.87) scale(0.29)" xlink:href="#a"/><use width="234.18" height="479.08" transform="translate(613.89 110.4) scale(0.29)" xlink:href="#a"/><use width="234.18" height="479.08" transform="translate(654.11 133.92) scale(0.29)" xlink:href="#a"/><use width="234.18" height="479.08" transform="translate(181.38 321.75) scale(0.29)" xlink:href="#ha"/><use width="234.18" height="479.08" transform="translate(221.6 345.27) scale(0.29)" xlink:href="#ha"/><use width="234.18" height="479.08" transform="translate(261.82 368.8) scale(0.29)" xlink:href="#ha"/><use width="234.18" height="479.08" transform="translate(302.04 392.33) scale(0.29)" xlink:href="#ha"/><use width="234.18" height="479.08" transform="translate(87.56 377.98) scale(0.29)" xlink:href="#ha"/><use width="234.18" height="479.08" transform="translate(127.78 401.5) scale(0.29)" xlink:href="#ha"/><use width="234.18" height="479.08" transform="translate(168 425.03) scale(0.29)" xlink:href="#a"/><use width="234.18" height="479.08" transform="translate(208.23 448.55) scale(0.29)" xlink:href="#ha"/><use width="234.18" height="479.08" transform="translate(627.26 321.75) scale(0.29)" xlink:href="#ha"/><use width="234.18" height="479.08" transform="translate(667.48 345.27) scale(0.29)" xlink:href="#ha"/><use width="234.18" height="479.08" transform="translate(707.71 368.8) scale(0.29)" xlink:href="#ha"/><use width="234.18" height="479.08" transform="translate(747.93 392.33) scale(0.29)" xlink:href="#ha"/><use width="234.18" height="479.08" transform="translate(533.44 377.98) scale(0.29)" xlink:href="#ha"/><use width="234.18" height="479.08" transform="translate(574.65 399.04) scale(0.29)" xlink:href="#ha"/><use width="234.18" height="479.08" transform="translate(613.89 425.03) scale(0.29)" xlink:href="#a"/><use width="234.18" height="479.08" transform="translate(654.11 448.55) scale(0.29)" xlink:href="#a"/><polygon class="ab" points="453.34 387.95 453.89 367.48 437.13 377.28 453.34 387.95"/><path class="ac" d="M421.81,290.24A49.08,49.08,0,1,1,447.59,379"/></svg>