<svg xmlns="http://www.w3.org/2000/svg" xmlns:xlink="http://www.w3.org/1999/xlink" viewBox="0 0 900 400"><defs><style>.a{fill:#3e8a99;}.b{fill:#4baabd;}.c{fill:#f2f0f0;}.d{fill:#62ddf5;}.e{fill:#a37f3a;}.f{fill:#c29644;}.g{fill:#ffc65a;}.h{fill:#73070a;}.i{fill:#a80b0e;}.j{fill:#fd1015;}.k{fill:#149159;}.l{fill:#19b56f;}.m{fill:#1edd88;}.n{fill:#574fb0;}.o{fill:#6057c2;}.p{fill:#7e73ff;}.q{fill:#a18462;}.r{fill:#ba9572;}.s{fill:#786548;}.t{fill:#dbdbdb;}.u{fill:#eaeaea;}.v{fill:#cecece;}.w{fill:#c9c9c9;}.x{fill:#d8d8d8;stroke:#fff;stroke-miterlimit:10;}</style><symbol id="b" viewBox="0 0 54 96.22"><polygon class="k" points="10.09 0.28 52.3 24.65 52.3 89.65 10.09 65.28 10.09 0.28"/><polygon class="l" points="10.09 0.28 10.58 0 53 24.26 52.3 24.65 10.09 0.28"/><polygon class="c" points="0.49 10.46 10.09 4.97 52.3 29.34 42.91 34.72 0.49 10.46"/><polygon class="k" points="0 6.05 43.45 31.22 43.45 96.22 0 71.05 0 6.05"/><polygon class="l" points="0 6.05 0.49 5.77 42.91 30.03 42.22 30.43 0 6.05"/><polygon class="m" points="43.45 31.22 54 25.26 54 90.08 43.45 96.22 43.45 31.22"/><polygon class="l" points="54 25.26 53 24.26 42.22 30.43 43.59 31.22 54 25.26"/></symbol><symbol id="c" viewBox="0 0 54 96.22"><polygon class="a" points="10.09 0.28 52.3 24.65 52.3 89.65 10.09 65.28 10.09 0.28"/><polygon class="b" points="10.09 0.28 10.58 0 53 24.26 52.3 24.65 10.09 0.28"/><polygon class="c" points="0.49 10.46 10.09 4.97 52.3 29.34 42.91 34.72 0.49 10.46"/><polygon class="a" points="0 6.05 43.45 31.22 43.45 96.22 0 71.05 0 6.05"/><polygon class="b" points="0 6.05 0.49 5.77 42.91 30.03 42.22 30.43 0 6.05"/><polygon class="d" points="43.45 31.22 54 25.26 54 90.08 43.45 96.22 43.45 31.22"/><polygon class="b" points="54 25.26 53 24.26 42.22 30.43 43.59 31.22 54 25.26"/></symbol><symbol id="d" viewBox="0 0 54 96.22"><polygon class="e" points="10.09 0.28 52.3 24.65 52.3 89.65 10.09 65.28 10.09 0.28"/><polygon class="f" points="10.09 0.28 10.58 0 53 24.26 52.3 24.65 10.09 0.28"/><polygon class="c" points="0.49 10.46 10.09 4.97 52.3 29.34 42.91 34.72 0.49 10.46"/><polygon class="e" points="0 6.05 43.45 31.22 43.45 96.22 0 71.05 0 6.05"/><polygon class="f" points="0 6.05 0.49 5.77 42.91 30.03 42.22 30.43 0 6.05"/><polygon class="g" points="43.45 31.22 54 25.26 54 90.08 43.45 96.22 43.45 31.22"/><polygon class="f" points="54 25.26 53 24.26 42.22 30.43 43.59 31.22 54 25.26"/></symbol><symbol id="e" viewBox="0 0 54 96.22"><polygon class="n" points="10.09 0.28 52.3 24.65 52.3 89.65 10.09 65.28 10.09 0.28"/><polygon class="o" points="10.09 0.28 10.58 0 53 24.26 52.3 24.65 10.09 0.28"/><polygon class="c" points="0.49 10.46 10.09 4.97 52.3 29.34 42.91 34.72 0.49 10.46"/><polygon class="n" points="0 6.05 43.45 31.22 43.45 96.22 0 71.05 0 6.05"/><polygon class="o" points="0 6.05 0.49 5.77 42.91 30.03 42.22 30.43 0 6.05"/><polygon class="p" points="43.45 31.22 54 25.26 54 90.08 43.45 96.22 43.45 31.22"/><polygon class="o" points="54 25.26 53 24.26 42.22 30.43 43.59 31.22 54 25.26"/></symbol><symbol id="f" viewBox="0 0 54 96.22"><polygon class="h" points="10.09 0.28 52.3 24.65 52.3 89.65 10.09 65.28 10.09 0.28"/><polygon class="i" points="10.09 0.28 10.58 0 53 24.26 52.3 24.65 10.09 0.28"/><polygon class="c" points="0.49 10.46 10.09 4.97 52.3 29.34 42.91 34.72 0.49 10.46"/><polygon class="h" points="0 6.05 43.45 31.22 43.45 96.22 0 71.05 0 6.05"/><polygon class="i" points="0 6.05 0.49 5.77 42.91 30.03 42.22 30.43 0 6.05"/><polygon class="j" points="43.45 31.22 54 25.26 54 90.08 43.45 96.22 43.45 31.22"/><polygon class="i" points="54 25.26 53 24.26 42.22 30.43 43.59 31.22 54 25.26"/></symbol><symbol id="a" viewBox="0 0 199.57 162.69"><polygon class="q" points="199.57 64.83 199.57 76.97 51.5 162.69 51.5 150.17 199.57 64.83"/><polygon class="r" points="0 119.44 51.5 150.17 199.57 64.83 148.08 34.36 0 119.44"/><path class="q" d="M7.5,115.54s46.84,24.84,46,25.12S182.55,64.9,182.55,64.9L140.12,38.29Z"/><use width="54" height="96.22" transform="translate(143.35) scale(0.73)" xlink:href="#b"/><use width="54" height="96.22" transform="translate(131.08 9.17) scale(0.73)" xlink:href="#c"/><use width="54" height="96.22" transform="translate(111.66 12.77) scale(0.78)" xlink:href="#d"/><use width="54" height="96.22" transform="translate(106.45 27.97) scale(0.73)" xlink:href="#e"/><use width="54" height="96.22" transform="translate(90.23 33.51) scale(0.66)" xlink:href="#f"/><use width="54" height="96.22" transform="translate(97.59 50.3) scale(0.58)" xlink:href="#c"/><use width="54" height="96.22" transform="translate(90.03 53.09) scale(0.58)" xlink:href="#e"/><use width="54" height="96.22" transform="translate(84.02 57.68) scale(0.58)" xlink:href="#b"/><use width="54" height="96.22" transform="translate(62.62 52.36) scale(0.69)" xlink:href="#f"/><use width="54" height="96.22" transform="translate(49.81 54.63) scale(0.72)" xlink:href="#d"/><use width="54" height="96.22" transform="translate(38.76 70.03) scale(0.65)" xlink:href="#e"/><use width="54" height="96.22" transform="translate(22.46 71.58) scale(0.73)" xlink:href="#c"/><polygon class="s" points="0 119.44 0 131.94 51.5 162.69 51.5 150.19 0 119.44"/></symbol></defs><title>shelf</title><rect class="t" x="449.69" width="450.31" height="400"/><rect class="u" width="450.31" height="400"/><path class="v" d="M461.05,173.74c-3.35.84-354.69,203.52-354.69,203.52v-68"/><polygon class="w" points="123.12 200.44 140.71 189.55 152.02 192.27 167.57 182.22 184.37 160.86 200.57 150.51 209.82 154.57 225.89 147.05 244.54 158.97 291.43 136.75 291.43 107.56 328.32 93 328.32 73.53 346.93 65.47 381.04 49.03 393.28 38.97 410.76 31.43 410.76 136.75 123.12 309.13 123.12 200.44"/><use width="199.57" height="162.69" transform="translate(106.36 13.84) scale(2.23)" xlink:href="#a"/><path class="x" d="M608.17,289.64c-1.06,2.67-1.46,5.4-2.33,8.15-1.09,3.49-2.69,6.77-3.32,10.38"/><path class="x" d="M631.29,327.3c-4.48-1.8-50.62-20.14-50.62-20.14-1.12-6.65-2.47-8.25-5.25-11.5-1.29-1.51-9-13.83-16.6-13.83s-8.23,6.09-7.31,11c.56,6.41,4.6,8.47,6.47,12.84,2.41,5.66,3.16,13.71,4.73,16.54.27.48.44,1.07.73,1.52s29.6,17.06,34.21,20.54c3.42,2.58,29.69,19.28,32.29,20.9s20.78,9,26.8,11.78c3.3,1.53,23.58,15.73,25.26,16.45,0,0,55.69-8.44,59.06-18.56s-15.57-40.35-18.65-44.33c-1.85-2.39-64.12-74.06-64.12-74.06-1.82-3.21-6.42-6.51-8.25-7.73-.93-.66-4.16.6-6.24.92-2.31.36-4.52,1.12-6.82,1.5-8.93,1.48-18,1.73-26.87,3.23-4.8.8-9.73,1.27-14.48,2.35-5.66,1.28-11.23,3-16.82,4.55-4.53,1.24-6.69,3.62-6.67,6.68s0,6.61,0,9.92c-.07,8.33-.66,6.4.9,14.57"/><path class="x" d="M622.09,282c-7.31,4.78-5.71,8.48-4,16.65.79,3.75.74,19.2.74,23.7"/><path class="x" d="M631.94,324.74c-3-2.11-5.07-7-5.07-8.43"/><path class="x" d="M588.91,277.21c-.15.51,3.3,4.78,5.36,5.45-1.15,1.58-2.49,21-5.37,27.77"/><path class="x" d="M601.28,288.74c.56,2,5.14,6.53,6.2,7.46-2.13,2.25-3.38,14.23-6.76,18.42"/><path class="x" d="M594.27,282.66a62.61,62.61,0,0,0,10.67,1c1.22,0,11.7-.28,13.22-.29"/><path class="x" d="M607.74,296.33c.44.05,3.34-.6,4.36-.69,1.72-.15,3.92-.19,5.21-1.56"/><path class="x" d="M608.94,274.08c-5.87-2.95-27.39-10.75-33.8-12.8-5.29-1.69-13.32-8.72-13.32-8.72-.24-1-19.84,2.34-22.07,2.74-4.84.85-10.87,1.55-13.34,1.69s-8.64-1.4-8.64-1.4c-18.6-6.81-3.78-15.91-3.78-15.91a48.07,48.07,0,0,0,8.39-.43c3.42-.59,6.84-1.16,10.27-1.74,3-.49,5.72-1.4,8.66-1.94,5.34-1,21.58-5,23.83-5s65.09,15.95,80,21.75l11.5,13.38"/></svg>