<svg xmlns="http://www.w3.org/2000/svg" viewBox="0 0 900 470">
  <defs>
    <style>
      .a {
        fill: #4a4a4a;
      }

      .b {
        fill: #3be197;
      }

      .c {
        fill: #1edd88;
      }

      .d {
        fill: #fd2e33;
      }

      .e {
        fill: #fd1015;
      }

      .f, .g {
        fill: none;
        stroke-miterlimit: 10;
      }

      .f {
        stroke: #fd1015;
      }

      .g {
        stroke: #1edd88;
      }
    </style>
  </defs>
  <g>
    <path class="a" d="M236.75,113.25l4.52-16.12H243l-5.3,18.43h-1.8l-5.14-16.27-5.15,16.27h-1.72l-5.38-18.43h1.72l4.57,16,5.07-16h1.8Z"/>
    <path class="a" d="M251.62,103.14v1.63a3.8,3.8,0,0,0-1.09-.13,3.5,3.5,0,0,0-2.67,1.06,4.36,4.36,0,0,0-1,3.13v6.73H245.3v-12.4h1.51v2.32a3.93,3.93,0,0,1,3.85-2.47A2.36,2.36,0,0,1,251.62,103.14Z"/>
    <path class="a" d="M255.21,99.29a1.22,1.22,0,0,1-.9-.37,1.17,1.17,0,0,1-.38-.88,1.32,1.32,0,0,1,.38-.94,1.2,1.2,0,0,1,.9-.39,1.23,1.23,0,0,1,.92.39,1.32,1.32,0,0,1,.38.94,1.17,1.17,0,0,1-.38.88A1.25,1.25,0,0,1,255.21,99.29Zm.78,16.27h-1.54v-12.4H256Z"/>
    <path class="a" d="M262.72,99.24v3.92h3.22v1.43h-3.22v7.46c0,1.49.7,2.24,2.11,2.24a2.82,2.82,0,0,0,1.11-.18v1.35a3.59,3.59,0,0,1-1.53.23,3.18,3.18,0,0,1-2.39-.89,3.61,3.61,0,0,1-.86-2.59v-7.62h-2.63v-1.43h.94a1.61,1.61,0,0,0,1.82-1.82v-2.1Z"/>
    <path class="a" d="M278.16,111.56l1.38.49a5.45,5.45,0,0,1-1.9,2.71,6,6,0,0,1-7.77-.6,6.53,6.53,0,0,1-1.79-4.84,6.75,6.75,0,0,1,1.71-4.7,5.24,5.24,0,0,1,4-1.8,5.51,5.51,0,0,1,4.27,1.77,6.56,6.56,0,0,1,1.53,4.5c0,.1,0,.29-.05.57h-9.88v.11a4.76,4.76,0,0,0,1.3,3.45,4.13,4.13,0,0,0,3.12,1.3,4.27,4.27,0,0,0,2.68-.88A4.5,4.5,0,0,0,278.16,111.56Zm-8.42-3.2H278a4.34,4.34,0,0,0-1.12-2.94,4,4,0,0,0-3-1.19,3.93,3.93,0,0,0-2.86,1.19A4.59,4.59,0,0,0,269.74,108.36Z"/>
    <path class="a" d="M289.71,114.78a3.06,3.06,0,0,1-1.07-2.41q0-3,3.75-3.67l3.3-.49c.87-.16,1.3-.57,1.3-1.23a2.65,2.65,0,0,0-.82-2,3.24,3.24,0,0,0-2.3-.76,3.62,3.62,0,0,0-2.41.78,3.08,3.08,0,0,0-1,2.13l-1.51-.34a4.13,4.13,0,0,1,1.59-2.86,5.25,5.25,0,0,1,3.35-1.07,4.82,4.82,0,0,1,3.56,1.25,4.3,4.3,0,0,1,1.15,3.07v6.29a14.84,14.84,0,0,0,.15,2.13h-1.5a9.09,9.09,0,0,1-.16-2.13,4.1,4.1,0,0,1-1.53,1.64,4.87,4.87,0,0,1-2.79.81A4.23,4.23,0,0,1,289.71,114.78Zm.54-2.49a2.13,2.13,0,0,0,.71,1.58,2.67,2.67,0,0,0,2,.68,4.06,4.06,0,0,0,2.93-1.09,3.89,3.89,0,0,0,1.15-3V109a1.47,1.47,0,0,1-.65.26,5.56,5.56,0,0,1-1,.24l-2.76.41Q290.25,110.27,290.25,112.29Z"/>
    <path class="a" d="M208.67,135.79h-3.43v11h-1.62v-11H201.1v-1.43h2.52v-2.57a4.06,4.06,0,0,1,1-3,3.62,3.62,0,0,1,2.7-1,3.48,3.48,0,0,1,1.41.26v1.41a2.91,2.91,0,0,0-1.17-.21,2.35,2.35,0,0,0-1.69.62,2.67,2.67,0,0,0-.65,2v2.49h3.43Z"/>
    <path class="a" d="M211.35,146a3,3,0,0,1-1.07-2.41c0-2,1.25-3.24,3.74-3.67l3.31-.49q1.29-.24,1.29-1.23a2.67,2.67,0,0,0-.81-2,3.27,3.27,0,0,0-2.31-.76,3.61,3.61,0,0,0-2.4.78,3,3,0,0,0-1,2.13l-1.51-.34a4.15,4.15,0,0,1,1.58-2.86,5.28,5.28,0,0,1,3.36-1.07,4.82,4.82,0,0,1,3.56,1.25,4.35,4.35,0,0,1,1.15,3.07v6.29a14.84,14.84,0,0,0,.15,2.13h-1.51a9.89,9.89,0,0,1-.15-2.13,4.13,4.13,0,0,1-1.54,1.64,4.81,4.81,0,0,1-2.78.81A4.21,4.21,0,0,1,211.35,146Zm.54-2.49a2.12,2.12,0,0,0,.7,1.58,2.71,2.71,0,0,0,1.95.68,4.07,4.07,0,0,0,2.94-1.09,3.92,3.92,0,0,0,1.14-3v-1.48a1.41,1.41,0,0,1-.64.26,5.77,5.77,0,0,1-1,.24l-2.76.41Q211.89,141.46,211.89,143.49Z"/>
    <path class="a" d="M225,130.49a1.22,1.22,0,0,1-.9-.37,1.17,1.17,0,0,1-.38-.88,1.32,1.32,0,0,1,.38-.94,1.2,1.2,0,0,1,.9-.39,1.23,1.23,0,0,1,.92.39,1.31,1.31,0,0,1,.37.94,1.16,1.16,0,0,1-.37.88A1.25,1.25,0,0,1,225,130.49Zm.77,16.27h-1.53v-12.4h1.53Z"/>
    <path class="a" d="M231.7,146.76h-1.56V128h1.56Z"/>
    <path class="a" d="M236.82,130.49a1.22,1.22,0,0,1-.89-.37,1.17,1.17,0,0,1-.38-.88,1.32,1.32,0,0,1,.38-.94,1.2,1.2,0,0,1,.89-.39,1.24,1.24,0,0,1,.93.39,1.31,1.31,0,0,1,.37.94,1.16,1.16,0,0,1-.37.88A1.26,1.26,0,0,1,236.82,130.49Zm.78,16.27h-1.53v-12.4h1.53Z"/>
    <path class="a" d="M243.53,139.35v7.41H242v-12.4h1.51v2.11a4.62,4.62,0,0,1,7.33-1.07,4.79,4.79,0,0,1,1.09,3.28v8.08h-1.56v-7.82a3.57,3.57,0,0,0-.8-2.47,3.19,3.19,0,0,0-2.55-1,3.16,3.16,0,0,0-2.52,1.17A4,4,0,0,0,243.53,139.35Z"/>
    <path class="a" d="M255,147.47l1.49-.37a3.85,3.85,0,0,0,1.24,2.52,4,4,0,0,0,2.73,1,3.85,3.85,0,0,0,3.36-1.43,5.38,5.38,0,0,0,.91-3.35v-2.29a3.94,3.94,0,0,1-1.46,1.72,4.63,4.63,0,0,1-2.73.78,5.13,5.13,0,0,1-4-1.72,5.89,5.89,0,0,1-1.56-4.29,6.11,6.11,0,0,1,1.54-4.26,5.14,5.14,0,0,1,4-1.72,4.91,4.91,0,0,1,2.71.69,3.74,3.74,0,0,1,1.5,1.78v-2.21h1.54v11.49a7,7,0,0,1-1.2,4.19,6.21,6.21,0,0,1-8.37.7A4.81,4.81,0,0,1,255,147.47Zm2.73-4.06a3.86,3.86,0,0,0,3,1.33,3.78,3.78,0,0,0,3-1.33,5.55,5.55,0,0,0,0-6.63,3.78,3.78,0,0,0-3-1.33,3.9,3.9,0,0,0-3,1.3,4.88,4.88,0,0,0-1.14,3.33A4.81,4.81,0,0,0,257.75,143.41Z"/>
    <path class="a" d="M279.39,130.44v3.92h3.22v1.43h-3.22v7.46c0,1.49.7,2.24,2.1,2.24a2.88,2.88,0,0,0,1.12-.18v1.35a3.59,3.59,0,0,1-1.53.23,3.2,3.2,0,0,1-2.4-.89,3.61,3.61,0,0,1-.85-2.59v-7.62H275.2v-1.43h.94a1.61,1.61,0,0,0,1.82-1.82v-2.1Z"/>
    <path class="a" d="M294.83,142.76l1.38.49a5.58,5.58,0,0,1-1.9,2.71,6,6,0,0,1-7.77-.6,6.54,6.54,0,0,1-1.8-4.84,6.71,6.71,0,0,1,1.72-4.7,5.23,5.23,0,0,1,4-1.8,5.47,5.47,0,0,1,4.26,1.77,6.57,6.57,0,0,1,1.54,4.5,4.93,4.93,0,0,1-.06.57h-9.88V141a4.8,4.8,0,0,0,1.3,3.45,4.16,4.16,0,0,0,3.12,1.3,4.23,4.23,0,0,0,2.68-.88A4.44,4.44,0,0,0,294.83,142.76Zm-8.42-3.2h8.24a4.43,4.43,0,0,0-1.12-2.94,4,4,0,0,0-3-1.19,3.93,3.93,0,0,0-2.86,1.19A4.58,4.58,0,0,0,286.41,139.56Z"/>
    <path class="a" d="M298.42,143.46l1.43-.49a3.19,3.19,0,0,0,1,2,3.49,3.49,0,0,0,2.35.75,3.15,3.15,0,0,0,2-.61,1.94,1.94,0,0,0,.78-1.6c0-1.11-.71-1.81-2.11-2.11l-2.08-.46q-3-.71-3-3.31a3.28,3.28,0,0,1,1.25-2.57,4.38,4.38,0,0,1,2.94-1.07,4.7,4.7,0,0,1,3.17,1.1,4.35,4.35,0,0,1,1.25,2.21l-1.38.52a3.08,3.08,0,0,0-.86-1.69,3.18,3.18,0,0,0-2.18-.78,2.93,2.93,0,0,0-1.85.59,1.94,1.94,0,0,0-.81,1.59c0,1,.64,1.66,1.9,2l2.06.44c2.14.5,3.22,1.65,3.22,3.46a3.35,3.35,0,0,1-1.12,2.52,4.53,4.53,0,0,1-3.22,1.14,4.8,4.8,0,0,1-3.43-1.17A4,4,0,0,1,298.42,143.46Z"/>
    <path class="a" d="M313.32,130.44v3.92h3.22v1.43h-3.22v7.46c0,1.49.7,2.24,2.1,2.24a2.88,2.88,0,0,0,1.12-.18v1.35a3.59,3.59,0,0,1-1.53.23,3.2,3.2,0,0,1-2.4-.89,3.61,3.61,0,0,1-.85-2.59v-7.62h-2.63v-1.43h.94a1.61,1.61,0,0,0,1.82-1.82v-2.1Z"/>
  </g>
  <g>
    <path class="a" d="M566.33,116.35H564.7v-16l-7.23,16h-1.56l-7.2-16v16h-1.64V97.92h2.31l7.33,16.27L564,97.92h2.29Z"/>
    <path class="a" d="M571.17,115.57a3.07,3.07,0,0,1-1.07-2.42q0-3,3.75-3.66l3.3-.5c.86-.15,1.3-.56,1.3-1.22a2.65,2.65,0,0,0-.82-2,3.24,3.24,0,0,0-2.3-.77,3.62,3.62,0,0,0-2.41.78,3.08,3.08,0,0,0-1,2.13l-1.51-.33a4.11,4.11,0,0,1,1.59-2.86,5.19,5.19,0,0,1,3.35-1.07,4.82,4.82,0,0,1,3.56,1.25,4.29,4.29,0,0,1,1.15,3.07v6.29a14.84,14.84,0,0,0,.15,2.13h-1.5a9.09,9.09,0,0,1-.16-2.13,4.17,4.17,0,0,1-1.53,1.64,4.94,4.94,0,0,1-2.79.8A4.22,4.22,0,0,1,571.17,115.57Zm.54-2.5a2.14,2.14,0,0,0,.71,1.59,2.67,2.67,0,0,0,2,.68,4.06,4.06,0,0,0,2.93-1.1,3.86,3.86,0,0,0,1.15-3V109.8a1.85,1.85,0,0,1-.65.26,5.31,5.31,0,0,1-1,.23l-2.76.42C572.49,110.93,571.71,111.72,571.71,113.07Z"/>
    <path class="a" d="M594.26,104,589,109.23l5.38,7.12h-2l-4.52-6.06-2.29,2.26v3.8h-1.54V97.58h1.54V110.5l6.5-6.55Z"/>
    <path class="a" d="M605.59,112.35l1.38.49a5.44,5.44,0,0,1-1.9,2.7,6,6,0,0,1-7.77-.59,6.54,6.54,0,0,1-1.8-4.84,6.8,6.8,0,0,1,1.72-4.71,5.26,5.26,0,0,1,4-1.79,5.51,5.51,0,0,1,4.27,1.77,6.56,6.56,0,0,1,1.53,4.5c0,.1,0,.29,0,.57h-9.88v.1a4.76,4.76,0,0,0,1.3,3.46,4.13,4.13,0,0,0,3.12,1.3,4.22,4.22,0,0,0,2.67-.88A4.44,4.44,0,0,0,605.59,112.35Zm-8.42-3.2h8.24a4.38,4.38,0,0,0-1.12-2.94,4,4,0,0,0-3-1.2,3.88,3.88,0,0,0-2.86,1.2A4.59,4.59,0,0,0,597.17,109.15Z"/>
    <path class="a" d="M619.29,100V104h3.23v1.43h-3.23v7.46c0,1.49.71,2.24,2.11,2.24a2.69,2.69,0,0,0,1.12-.19v1.36a3.81,3.81,0,0,1-1.54.23,3.14,3.14,0,0,1-2.39-.9,3.6,3.6,0,0,1-.86-2.58v-7.62h-2.62V104H616a1.61,1.61,0,0,0,1.82-1.82V100Z"/>
    <path class="a" d="M627.38,108.89v7.46h-1.56V97.58h1.56v8.32a4.24,4.24,0,0,1,1.55-1.63,4.53,4.53,0,0,1,2.43-.63,4.19,4.19,0,0,1,3.3,1.35,4.77,4.77,0,0,1,1.09,3.27v8.09h-1.56v-7.83a3.63,3.63,0,0,0-.8-2.47,3.22,3.22,0,0,0-2.55-1,3.12,3.12,0,0,0-2.5,1.14A4,4,0,0,0,627.38,108.89Z"/>
    <path class="a" d="M648.91,112.35l1.38.49a5.51,5.51,0,0,1-1.9,2.7,6,6,0,0,1-7.78-.59,6.57,6.57,0,0,1-1.79-4.84,6.75,6.75,0,0,1,1.72-4.71,5.25,5.25,0,0,1,4-1.79,5.5,5.5,0,0,1,4.26,1.77,6.56,6.56,0,0,1,1.53,4.5,4.27,4.27,0,0,1-.05.57h-9.88v.1a4.81,4.81,0,0,0,1.3,3.46,4.13,4.13,0,0,0,3.12,1.3,4.25,4.25,0,0,0,2.68-.88A4.44,4.44,0,0,0,648.91,112.35Zm-8.43-3.2h8.25a4.43,4.43,0,0,0-1.12-2.94,4,4,0,0,0-3-1.2,3.9,3.9,0,0,0-2.86,1.2A4.65,4.65,0,0,0,640.48,109.15Z"/>
    <path class="a" d="M555.87,131.22v3.93h3.22v1.43h-3.22V144c0,1.49.7,2.24,2.1,2.24a2.69,2.69,0,0,0,1.12-.19v1.36a3.76,3.76,0,0,1-1.53.23,3.14,3.14,0,0,1-2.39-.9,3.56,3.56,0,0,1-.86-2.58v-7.62h-2.63v-1.43h.94a1.61,1.61,0,0,0,1.82-1.82v-2.11Z"/>
    <path class="a" d="M571.31,143.55l1.38.49a5.44,5.44,0,0,1-1.9,2.7,6,6,0,0,1-7.77-.59,6.54,6.54,0,0,1-1.8-4.84,6.8,6.8,0,0,1,1.72-4.71,5.26,5.26,0,0,1,4-1.79,5.47,5.47,0,0,1,4.26,1.77,6.52,6.52,0,0,1,1.54,4.5c0,.1,0,.29,0,.57h-9.88v.1a4.76,4.76,0,0,0,1.3,3.46,4.13,4.13,0,0,0,3.12,1.3,4.22,4.22,0,0,0,2.67-.88A4.44,4.44,0,0,0,571.31,143.55Zm-8.42-3.2h8.24a4.43,4.43,0,0,0-1.12-2.94,4,4,0,0,0-3-1.2,3.88,3.88,0,0,0-2.86,1.2A4.54,4.54,0,0,0,562.89,140.35Z"/>
    <path class="a" d="M574.9,144.25l1.43-.5a3.16,3.16,0,0,0,1,2,3.5,3.5,0,0,0,2.36.76,3.14,3.14,0,0,0,2-.62,1.92,1.92,0,0,0,.78-1.59c0-1.11-.7-1.82-2.11-2.11l-2.08-.47q-3-.7-3-3.3a3.27,3.27,0,0,1,1.25-2.57,4.38,4.38,0,0,1,2.94-1.07,4.7,4.7,0,0,1,3.17,1.09,4.32,4.32,0,0,1,1.25,2.21l-1.38.52a3.12,3.12,0,0,0-.86-1.69,3.17,3.17,0,0,0-2.18-.78,2.89,2.89,0,0,0-1.85.6,1.94,1.94,0,0,0-.8,1.59c0,1,.63,1.66,1.89,2l2.06.44q3.23.77,3.22,3.46a3.35,3.35,0,0,1-1.12,2.52,4.49,4.49,0,0,1-3.22,1.15,4.8,4.8,0,0,1-3.43-1.17A4.14,4.14,0,0,1,574.9,144.25Z"/>
    <path class="a" d="M589.8,131.22v3.93H593v1.43H589.8V144c0,1.49.7,2.24,2.1,2.24a2.69,2.69,0,0,0,1.12-.19v1.36a3.76,3.76,0,0,1-1.53.23,3.13,3.13,0,0,1-2.39-.9,3.56,3.56,0,0,1-.86-2.58v-7.62h-2.63v-1.43h.94a1.61,1.61,0,0,0,1.82-1.82v-2.11Z"/>
    <path class="a" d="M604.44,152.49H602.9V135.15h1.54v2.47a4.78,4.78,0,0,1,1.56-1.87,4.94,4.94,0,0,1,2.93-.89,5.21,5.21,0,0,1,4.14,1.85,7.27,7.27,0,0,1,1.48,4.63A7,7,0,0,1,613,146a5.18,5.18,0,0,1-4.16,1.87A4.73,4.73,0,0,1,606,147a4.53,4.53,0,0,1-1.56-1.79Zm7.35-7.49a5.65,5.65,0,0,0,1.17-3.66,5.49,5.49,0,0,0-1.17-3.64,3.83,3.83,0,0,0-3.12-1.46,3.77,3.77,0,0,0-3.09,1.46,5.62,5.62,0,0,0-1.17,3.64,5.52,5.52,0,0,0,1.17,3.66,3.69,3.69,0,0,0,3.09,1.48A3.79,3.79,0,0,0,611.79,145Z"/>
    <path class="a" d="M617.93,146.77a3.07,3.07,0,0,1-1.07-2.42q0-3,3.75-3.66l3.3-.5c.87-.15,1.3-.56,1.3-1.22a2.65,2.65,0,0,0-.82-2,3.24,3.24,0,0,0-2.3-.77,3.57,3.57,0,0,0-2.4.78,3,3,0,0,0-1.06,2.13l-1.51-.33a4.14,4.14,0,0,1,1.59-2.86,5.25,5.25,0,0,1,3.35-1.07,4.85,4.85,0,0,1,3.57,1.25,4.32,4.32,0,0,1,1.14,3.07v6.29a13.52,13.52,0,0,0,.16,2.13h-1.51a9.09,9.09,0,0,1-.16-2.13,4.1,4.1,0,0,1-1.53,1.64,4.93,4.93,0,0,1-2.78.8A4.23,4.23,0,0,1,617.93,146.77Zm.55-2.5a2.13,2.13,0,0,0,.7,1.59,2.71,2.71,0,0,0,2,.68,4.1,4.1,0,0,0,2.94-1.1,3.89,3.89,0,0,0,1.14-3V141a1.76,1.76,0,0,1-.65.26,5.31,5.31,0,0,1-1,.23l-2.75.42C619.26,142.13,618.48,142.92,618.48,144.27Z"/>
    <path class="a" d="M629.66,144.25l1.43-.5a3.16,3.16,0,0,0,1,2,3.47,3.47,0,0,0,2.35.76,3.12,3.12,0,0,0,2-.62,1.92,1.92,0,0,0,.78-1.59c0-1.11-.7-1.82-2.1-2.11l-2.08-.47c-2-.47-3-1.57-3-3.3a3.24,3.24,0,0,1,1.25-2.57,4.38,4.38,0,0,1,2.93-1.07,4.71,4.71,0,0,1,3.18,1.09,4.31,4.31,0,0,1,1.24,2.21l-1.37.52a2.85,2.85,0,0,0-3.05-2.47,2.87,2.87,0,0,0-1.84.6,1.92,1.92,0,0,0-.81,1.59c0,1,.63,1.66,1.9,2l2.05.44q3.23.77,3.23,3.46a3.39,3.39,0,0,1-1.12,2.52,4.49,4.49,0,0,1-3.22,1.15,4.85,4.85,0,0,1-3.44-1.17A4.07,4.07,0,0,1,629.66,144.25Z"/>
    <path class="a" d="M641,144.25l1.43-.5a3.16,3.16,0,0,0,1,2,3.49,3.49,0,0,0,2.35.76,3.15,3.15,0,0,0,2-.62,1.92,1.92,0,0,0,.78-1.59c0-1.11-.71-1.82-2.11-2.11l-2.08-.47q-3-.7-3-3.3a3.27,3.27,0,0,1,1.25-2.57,4.38,4.38,0,0,1,2.94-1.07,4.7,4.7,0,0,1,3.17,1.09,4.39,4.39,0,0,1,1.25,2.21l-1.38.52a3.12,3.12,0,0,0-.86-1.69,3.18,3.18,0,0,0-2.18-.78,2.87,2.87,0,0,0-1.85.6,1.92,1.92,0,0,0-.81,1.59c0,1,.64,1.66,1.9,2l2.06.44c2.14.51,3.22,1.66,3.22,3.46a3.35,3.35,0,0,1-1.12,2.52,4.49,4.49,0,0,1-3.22,1.15,4.8,4.8,0,0,1-3.43-1.17A4,4,0,0,1,641,144.25Z"/>
  </g>
  <g>
    <path class="a" d="M412.21,196.54h-9.86v25.12h-7.12V196.54h-9.81v-6.8h26.79Z"/>
    <path class="a" d="M428.05,221.66H416.53V189.74H428.1q7.25,0,11.63,4.33t4.39,11.66q0,7.34-4.39,11.63T428.05,221.66Zm-4.41-6.7h4.14a9,9,0,0,0,6.42-2.35c1.66-1.56,2.5-3.85,2.5-6.88s-.84-5.38-2.5-6.94a9,9,0,0,0-6.42-2.34h-4.14Z"/>
    <path class="a" d="M460.74,221.66H449.21V189.74h11.57q7.25,0,11.64,4.33t4.39,11.66q0,7.34-4.39,11.63T460.74,221.66Zm-4.41-6.7h4.14a9,9,0,0,0,6.41-2.35q2.5-2.34,2.5-6.88c0-3.06-.83-5.38-2.5-6.94a9,9,0,0,0-6.41-2.34h-4.14Z"/>
  </g>
  <g>
    <path class="a" d="M402.38,387.25l-4.45-7.95h-3.85v7.95h-1.66V368.82h6.45a5.5,5.5,0,0,1,4,1.51,5.33,5.33,0,0,1,.26,7.15,5.31,5.31,0,0,1-3.38,1.69l4.58,8.08Zm-8.3-9.46h4.5a4.21,4.21,0,0,0,3-1,3.44,3.44,0,0,0,1.12-2.7,3.52,3.52,0,0,0-1.12-2.74,4.17,4.17,0,0,0-3-1h-4.5Z"/>
    <path class="a" d="M416.29,383.25l1.37.49a5.5,5.5,0,0,1-1.89,2.71,6,6,0,0,1-7.78-.6A6.57,6.57,0,0,1,406.2,381a6.75,6.75,0,0,1,1.71-4.7,5.26,5.26,0,0,1,4-1.8,5.51,5.51,0,0,1,4.27,1.77,6.56,6.56,0,0,1,1.53,4.5c0,.1,0,.29-.05.57h-9.88v.1a4.76,4.76,0,0,0,1.3,3.46,4.13,4.13,0,0,0,3.12,1.3,4.25,4.25,0,0,0,2.68-.88A4.59,4.59,0,0,0,416.29,383.25Zm-8.43-3.2h8.24a4.38,4.38,0,0,0-1.11-2.94,4,4,0,0,0-3-1.19,3.89,3.89,0,0,0-2.86,1.19A4.59,4.59,0,0,0,407.86,380.05Z"/>
    <path class="a" d="M426.71,376.28h-3.43v11h-1.61v-11h-2.52v-1.43h2.52v-2.57a4.09,4.09,0,0,1,1-3,3.63,3.63,0,0,1,2.71-1,3.43,3.43,0,0,1,1.4.26v1.41a2.85,2.85,0,0,0-1.17-.21,2.36,2.36,0,0,0-1.69.62,2.7,2.7,0,0,0-.65,2v2.5h3.43Z"/>
    <path class="a" d="M429.39,386.47a3.07,3.07,0,0,1-1.07-2.42q0-3,3.75-3.66l3.3-.5c.87-.15,1.3-.56,1.3-1.22a2.65,2.65,0,0,0-.82-2,3.23,3.23,0,0,0-2.3-.77,3.57,3.57,0,0,0-2.4.78,3.07,3.07,0,0,0-1.06,2.14l-1.51-.34a4.14,4.14,0,0,1,1.59-2.86,5.25,5.25,0,0,1,3.35-1.07,4.85,4.85,0,0,1,3.57,1.25,4.34,4.34,0,0,1,1.14,3.07v6.29a13.52,13.52,0,0,0,.16,2.13h-1.51a9.09,9.09,0,0,1-.16-2.13,4.1,4.1,0,0,1-1.53,1.64,4.93,4.93,0,0,1-2.78.8A4.24,4.24,0,0,1,429.39,386.47Zm.55-2.49a2.12,2.12,0,0,0,.7,1.58,2.71,2.71,0,0,0,1.95.68,4.14,4.14,0,0,0,2.94-1.09,3.92,3.92,0,0,0,1.14-3V380.7a1.6,1.6,0,0,1-.65.26,4.6,4.6,0,0,1-1,.23l-2.75.42Q429.94,381.94,429.94,384Z"/>
    <path class="a" d="M449.9,376.9a3.93,3.93,0,0,0-2.7-1,4.07,4.07,0,0,0-3.17,1.35,5.36,5.36,0,0,0-1.33,3.77,5.15,5.15,0,0,0,1.33,3.72,4,4,0,0,0,3.17,1.38,3.89,3.89,0,0,0,2.76-1,4.41,4.41,0,0,0,1.27-2l1.38.58a5.43,5.43,0,0,1-1.8,2.65,5.71,5.71,0,0,1-3.61,1.22,5.61,5.61,0,0,1-4.34-1.85,6.42,6.42,0,0,1-1.74-4.68,6.69,6.69,0,0,1,1.74-4.73,5.77,5.77,0,0,1,4.34-1.82,5.51,5.51,0,0,1,3.56,1.17,5.34,5.34,0,0,1,1.74,2.73l-1.37.57A4.7,4.7,0,0,0,449.9,376.9Z"/>
    <path class="a" d="M458,370.92v3.93h3.23v1.43H458v7.46c0,1.49.71,2.24,2.11,2.24a2.88,2.88,0,0,0,1.12-.18v1.35a3.81,3.81,0,0,1-1.54.23,3.18,3.18,0,0,1-2.39-.89,3.63,3.63,0,0,1-.86-2.59v-7.62h-2.62v-1.43h.93a1.61,1.61,0,0,0,1.82-1.82v-2.11Z"/>
    <path class="a" d="M465.09,376.33a5.74,5.74,0,0,1,4.31-1.82,5.84,5.84,0,0,1,4.35,1.82,6.59,6.59,0,0,1,1.76,4.73,6.5,6.5,0,0,1-1.76,4.71,5.84,5.84,0,0,1-4.35,1.82,5.71,5.71,0,0,1-4.28-1.82,7.13,7.13,0,0,1,0-9.44Zm1.17,8.5a4.13,4.13,0,0,0,3.14,1.36,4.23,4.23,0,0,0,3.18-1.36,5.26,5.26,0,0,0,1.35-3.77,5.41,5.41,0,0,0-1.35-3.79,4.15,4.15,0,0,0-3.18-1.33,4.05,4.05,0,0,0-3.14,1.33,5.41,5.41,0,0,0-1.35,3.79A5.26,5.26,0,0,0,466.26,384.83Z"/>
    <path class="a" d="M485.16,374.82v1.64a3.8,3.8,0,0,0-1.09-.13,3.52,3.52,0,0,0-2.67,1.05,4.45,4.45,0,0,0-1,3.14v6.73h-1.56v-12.4h1.51v2.31a4,4,0,0,1,3.85-2.47A2.51,2.51,0,0,1,485.16,374.82Z"/>
  </g>
  <g>
    <path class="b" d="M337.38,368.83a189.51,189.51,0,0,1-67.16-69.1,182.92,182.92,0,0,1-18.1-45.09l-2.19-9.57c-.25-1-.37-2.12-.56-3.17-2,1.33-4,2.69-6,4.08.9-4.32,1.88-8.55,2.85-12.67q1.82-6.23,3.68-12.16,3,5.58,6,10.87c2.23,3.49,4.42,6.89,6.64,10.17-2.33-.44-4.62-.92-6.94-1.43.19,1,.3,2.05.54,3.06l2.12,9.25a176.5,176.5,0,0,0,17.49,43.55,183.14,183.14,0,0,0,64.88,66.77Z"/>
    <polygon class="c" points="250.96 221.34 249.81 219.72 248.97 221.53 250.96 221.34"/>
  </g>
  <g>
    <path class="b" d="M619.79,225.13A186.67,186.67,0,0,1,587.71,314a189.15,189.15,0,0,1-31.66,35.55c-1.48,1.32-3.07,2.53-4.6,3.8l-1.62,1.31-1.25,1c-.84.67-1.66,1.37-2.55,2,2.11,1.22,4.2,2.36,6.31,3.47-2.05.68-4.23,1.13-6.33,1.67l-6.26,1.49c-4.21.86-8.43,1.53-12.5,2.21,2.41-3.49,4.79-6.84,7-10.28l3.13-5.26c1-1.77,2.08-3.41,3-5.25.67,2.3,1.31,4.61,1.88,6.89.86-.59,1.65-1.26,2.45-1.91l1.21-1,1.57-1.27c1.48-1.22,3-2.39,4.45-3.66a183.13,183.13,0,0,0,30.59-34.36,180.44,180.44,0,0,0,31-85.8Z"/>
    <polygon class="c" points="526.95 365.42 526.01 367.18 528 367.11 526.95 365.42"/>
  </g>
  <g>
    <path class="d" d="M324.88,55.72A186.91,186.91,0,0,1,505.11,35.31c2.45.95,4.82,2.1,7.22,3.17.59.27,1.21.53,1.78.83l.18.09.36.18,1.44.71L519,41.73c.16-2.38.28-4.77.38-7.18a179.22,179.22,0,0,1,15.71,20.29,169.87,169.87,0,0,0-24.39-2.78q2.64-2.37,5.39-4.69L513.28,46l-1.39-.7-.35-.17-.17-.09c-.55-.28-1.15-.53-1.72-.8-2.32-1-4.61-2.14-7-3.06a181.6,181.6,0,0,0-29-9.27,183.5,183.5,0,0,0-30.16-4.19A180.12,180.12,0,0,0,328.57,60.89Z"/>
    <polygon class="e" points="534.27 55.54 536.26 55.64 535.36 53.87 534.27 55.54"/>
  </g>
  <circle class="f" cx="259.17" cy="125.09" r="72.19"/>
  <circle class="g" cx="601.34" cy="125.9" r="72.19"/>
  <circle class="g" cx="437.89" cy="377.81" r="72.19"/>
</svg>
