<svg xmlns="http://www.w3.org/2000/svg" viewBox="0 0 900 500"><defs><style>.a{isolation:isolate;}.b{fill:#4cabbd;}.c{fill:#a9e7f7;}.d{fill:#fff;}.e{fill:#72cee7;}.f{fill:#3a89a4;}.g{fill:#2b6a7e;}.h{fill:#327984;}.i{mix-blend-mode:multiply;}</style></defs><title>get</title><g class="a"><rect class="b" y="158.15" width="900" height="341.85"/><rect class="c" y="1.2" width="900" height="156.65"/><polygon class="d" points="383.96 158.15 377.83 133.39 263.13 26.79 231.02 53.23 164.08 124.71 102.43 157.85 383.96 158.15"/><polygon class="e" points="263.13 26.79 377.83 133.39 383.96 158.15 299.36 158.15 266.35 126.64 260 119.76 298.99 119.76 263.13 26.79"/><polygon class="f" points="102.43 157.85 383.96 158.15 393.86 272.6 316.98 446.07 230.12 491.59 137.2 380.46 96.14 213.54 102.43 157.85"/><polygon class="g" points="383.96 158.15 393.86 272.6 316.98 446.07 230.12 491.59 243.16 460.23 261.28 438.2 282.14 250.03 301.89 192 299.36 158.15 383.96 158.15"/><path class="h" d="M530.38,80.48h2v7h.19a3.92,3.92,0,0,1,3.89-2.22c2.67,0,4.36,1.71,4.36,4.68v8.18h-2V90.44c0-2.24-1-3.35-2.92-3.35a3.26,3.26,0,0,0-3.5,3.56v7.48h-2Z"/><path class="h" d="M547.38,82.22v3.27h2.81v1.69h-2.81v7.15c0,1.49.56,2.12,1.87,2.12a7.6,7.6,0,0,0,.94,0v1.7a6.86,6.86,0,0,1-1.19.12c-2.6,0-3.64-1-3.64-3.37V87.18h-2V85.49h2V82.22Z"/><path class="h" d="M556.09,82.22v3.27h2.82v1.69h-2.82v7.15c0,1.49.57,2.12,1.88,2.12a7.6,7.6,0,0,0,.94,0v1.7a6.86,6.86,0,0,1-1.19.12c-2.6,0-3.64-1-3.64-3.37V87.18h-2V85.49h2V82.22Z"/><path class="h" d="M573.42,91.81c0,4-2.1,6.54-5.31,6.54a4.24,4.24,0,0,1-4-2.12H564v6.12h-2V85.49h1.93V87.6h.18a4.56,4.56,0,0,1,4.05-2.33C571.33,85.27,573.42,87.84,573.42,91.81Zm-2.09,0c0-3-1.38-4.72-3.69-4.72s-3.73,1.81-3.73,4.72,1.44,4.72,3.72,4.72S571.33,94.76,571.33,91.81Z"/><path class="h" d="M574.77,101.72l6.1-21.24h1.71l-6.09,21.24Z"/><path class="h" d="M582.77,101.72l6.09-21.24h1.71l-6.09,21.24Z"/><path class="h" d="M592.56,85.49h1.93v2h.18a3.58,3.58,0,0,1,3.53-2.22,3.63,3.63,0,0,1,3.49,2.22h.19a4.23,4.23,0,0,1,3.87-2.22c2.58,0,4,1.48,4,4.13v8.73h-2V89.87c0-1.87-.88-2.78-2.66-2.78A2.84,2.84,0,0,0,602.16,90v8.12h-2V89.55a2.4,2.4,0,0,0-2.64-2.46,3.05,3.05,0,0,0-2.93,3.21v7.83h-2Z"/><path class="h" d="M613.15,102.63V100.9a4.66,4.66,0,0,0,.85.06c1.16,0,1.79-.55,2.32-2.07l.23-.75-4.67-12.65h2.17l3.47,10.4h.19l3.46-10.4h2.14L618.38,98.9c-1.08,2.93-2.09,3.8-4.33,3.8A7.09,7.09,0,0,1,613.15,102.63Z"/><path class="h" d="M624.79,94.59c0-2.26,1.66-3.56,4.6-3.74l3.65-.22V89.48c0-1.56-1-2.42-2.86-2.42-1.51,0-2.57.58-2.85,1.57h-2c.27-2,2.26-3.36,5-3.36,3.08,0,4.8,1.58,4.8,4.21v8.65h-1.92V96.26H633a4.39,4.39,0,0,1-3.9,2.09C626.61,98.35,624.79,96.9,624.79,94.59ZM633,93.42V92.26l-3.4.22c-1.92.13-2.76.8-2.76,2.06s1.08,2,2.55,2A3.33,3.33,0,0,0,633,93.42Z"/><path class="h" d="M650.24,91.81c0,4-2.1,6.54-5.31,6.54A4.27,4.27,0,0,1,641,96.23h-.18v6.12h-2V85.49h1.92V87.6h.19a4.56,4.56,0,0,1,4-2.33C648.16,85.27,650.24,87.84,650.24,91.81Zm-2.08,0c0-3-1.39-4.72-3.7-4.72s-3.72,1.81-3.72,4.72,1.44,4.72,3.71,4.72S648.16,94.76,648.16,91.81Z"/><path class="h" d="M664.87,91.81c0,4-2.1,6.54-5.31,6.54a4.24,4.24,0,0,1-3.95-2.12h-.19v6.12h-2V85.49h1.92V87.6h.19a4.55,4.55,0,0,1,4-2.33C662.78,85.27,664.87,87.84,664.87,91.81Zm-2.09,0c0-3-1.38-4.72-3.69-4.72s-3.73,1.81-3.73,4.72,1.44,4.72,3.72,4.72S662.78,94.76,662.78,91.81Z"/><path class="h" d="M667.94,96.72a1.52,1.52,0,1,1,1.52,1.52A1.53,1.53,0,0,1,667.94,96.72Z"/><path class="h" d="M682.87,89.36a3.13,3.13,0,0,0-3.26-2.27c-2.27,0-3.7,1.81-3.7,4.67s1.45,4.77,3.7,4.77a3,3,0,0,0,3.26-2.21h2c-.37,2.32-2.25,4-5.29,4-3.54,0-5.8-2.57-5.8-6.59s2.25-6.49,5.79-6.49c3.07,0,4.94,1.84,5.3,4.09Z"/><path class="h" d="M687.25,91.81c0-4.07,2.23-6.54,5.82-6.54s5.83,2.47,5.83,6.54-2.23,6.54-5.83,6.54S687.25,95.87,687.25,91.81Zm9.56,0c0-3-1.35-4.72-3.74-4.72s-3.73,1.72-3.73,4.72,1.34,4.72,3.73,4.72S696.81,94.8,696.81,91.81Z"/><path class="h" d="M702.06,85.49H704v2h.19a3.58,3.58,0,0,1,3.53-2.22,3.63,3.63,0,0,1,3.49,2.22h.19a4.23,4.23,0,0,1,3.87-2.22c2.57,0,4,1.48,4,4.13v8.73h-2V89.87c0-1.87-.88-2.78-2.66-2.78A2.84,2.84,0,0,0,711.66,90v8.12h-2V89.55A2.39,2.39,0,0,0,707,87.09a3.05,3.05,0,0,0-2.93,3.21v7.83h-2Z"/><path class="d" d="M532.61,283.58c0,2.56,1.68,4.41,4.61,4.41s4.6-1.85,4.6-4.41v-11h2.11v11.1c0,3.61-2.52,6.21-6.71,6.21s-6.72-2.6-6.72-6.21v-11.1h2.11Z"/><path class="d" d="M552.38,276.68c2.65,0,4.49,1.31,4.76,3.39h-2c-.27-1-1.26-1.68-2.78-1.68s-2.67.76-2.67,1.89c0,.86.7,1.4,2.19,1.77l1.94.46c2.38.58,3.53,1.61,3.53,3.43,0,2.26-2.19,3.82-5.06,3.82s-4.75-1.35-5-3.45h2.07c.34,1.07,1.35,1.75,3,1.75s2.92-.81,2.92-2c0-.87-.66-1.45-2-1.78l-2.17-.53c-2.36-.57-3.44-1.59-3.44-3.42C547.67,278.26,549.7,276.68,552.38,276.68Z"/><path class="d" d="M570.91,286.26c-.59,2.16-2.56,3.5-5.32,3.5-3.51,0-5.7-2.53-5.7-6.53s2.23-6.55,5.7-6.55,5.48,2.42,5.48,6.35v.77H562v.1c.1,2.49,1.5,4.08,3.64,4.08a3.27,3.27,0,0,0,3.26-1.72ZM562,282.17h7c-.05-2.23-1.38-3.71-3.39-3.71S562.14,279.94,562,282.17Z"/><path class="d" d="M574.24,276.9h1.92v1.88h.18a3.54,3.54,0,0,1,3.51-2.1,7.73,7.73,0,0,1,1,.06v2a9.26,9.26,0,0,0-1.29-.11,3.09,3.09,0,0,0-3.32,3.07v7.82h-2Z"/><path class="d" d="M582.36,283.69v-1.91H590v1.91Z"/><path class="d" d="M603,284.69h-6.73l-1.7,4.84h-2.21l6.23-16.91h2.09l6.23,16.91h-2.21Zm-6.11-1.79h5.49l-2.65-7.55h-.19Z"/><path class="d" d="M608.78,290.93h2.14c.22,1,1.34,1.7,3.16,1.7,2.26,0,3.61-1.12,3.61-3v-2.48h-.19a4.4,4.4,0,0,1-4,2.18c-3.27,0-5.3-2.53-5.3-6.32s2-6.35,5.3-6.35a4.51,4.51,0,0,1,4.05,2.23h.19v-2h1.92v12.86c0,2.82-2.18,4.63-5.62,4.63C611,294.39,609.09,293,608.78,290.93Zm9-7.9c0-2.75-1.41-4.53-3.75-4.53s-3.65,1.78-3.65,4.53,1.31,4.54,3.65,4.54S617.73,285.78,617.73,283Z"/><path class="d" d="M633.88,286.26c-.58,2.16-2.55,3.5-5.32,3.5-3.5,0-5.69-2.53-5.69-6.53s2.22-6.55,5.69-6.55,5.49,2.42,5.49,6.35v.77H625v.1c.11,2.49,1.5,4.08,3.65,4.08a3.27,3.27,0,0,0,3.26-1.72ZM625,282.17h7c0-2.23-1.39-3.71-3.39-3.71S625.12,279.94,625,282.17Z"/><path class="d" d="M637.21,276.9h1.92v2h.19a3.8,3.8,0,0,1,3.8-2.21c2.83,0,4.42,1.67,4.42,4.67v8.18h-2v-7.68c0-2.28-1-3.35-3-3.35s-3.31,1.34-3.31,3.56v7.47h-2Z"/><path class="d" d="M654.07,273.63v3.27h2.82v1.69h-2.82v7.15c0,1.49.57,2.12,1.88,2.12a7.6,7.6,0,0,0,.94-.05v1.7a6.86,6.86,0,0,1-1.19.12c-2.6,0-3.64-1-3.64-3.38v-7.66h-2V276.9h2v-3.27Z"/><path class="d" d="M529.87,313.08c0-5.46,2.86-8.85,7.45-8.85a6.6,6.6,0,0,1,6.85,5.49H542a4.65,4.65,0,0,0-4.7-3.55c-3.24,0-5.28,2.67-5.28,6.91s2,6.91,5.29,6.91a4.53,4.53,0,0,0,4.69-3.17h2.15c-.57,3.11-3.24,5.11-6.84,5.11C532.74,321.93,529.87,318.53,529.87,313.08Z"/><path class="d" d="M546.81,315.22c0-4.07,2.23-6.54,5.83-6.54s5.82,2.47,5.82,6.54-2.22,6.54-5.82,6.54S546.81,319.27,546.81,315.22Zm9.57,0c0-3-1.35-4.72-3.74-4.72s-3.74,1.72-3.74,4.72,1.35,4.72,3.74,4.72S556.38,318.21,556.38,315.22Z"/><path class="d" d="M561,315.22c0-4.07,2.23-6.54,5.83-6.54s5.82,2.47,5.82,6.54-2.22,6.54-5.82,6.54S561,319.27,561,315.22Zm9.57,0c0-3-1.35-4.72-3.74-4.72s-3.74,1.72-3.74,4.72,1.35,4.72,3.74,4.72S570.56,318.21,570.56,315.22Z"/><path class="d" d="M583.61,308.9h2.47l-5.43,5.42,5.8,7.21h-2.57l-4.73-5.91-1.21,1.12v4.79h-2V303.89h2v10.53h.19Z"/><path class="d" d="M588.49,305.06a1.41,1.41,0,1,1,1.4,1.4A1.41,1.41,0,0,1,588.49,305.06Zm.39,3.84h2v12.63h-2Z"/><path class="d" d="M605.13,318.26c-.59,2.16-2.56,3.5-5.32,3.5-3.51,0-5.7-2.53-5.7-6.53s2.23-6.55,5.7-6.55,5.48,2.42,5.48,6.35v.77h-9.08v.1c.1,2.49,1.5,4.08,3.64,4.08a3.27,3.27,0,0,0,3.26-1.72Zm-8.92-4.09h7c0-2.23-1.38-3.71-3.39-3.71S596.36,311.94,596.21,314.17Z"/><path class="d" d="M612.87,308.68c2.65,0,4.49,1.31,4.76,3.39h-2c-.27-1-1.26-1.68-2.78-1.68s-2.67.76-2.67,1.89c0,.86.7,1.4,2.19,1.77l1.94.46c2.38.58,3.53,1.61,3.53,3.43,0,2.26-2.19,3.82-5.06,3.82s-4.75-1.35-5-3.45h2.08c.34,1.07,1.34,1.75,3,1.75s2.92-.81,2.92-2c0-.87-.66-1.45-2-1.78l-2.16-.53c-2.37-.57-3.45-1.59-3.45-3.42C608.16,310.26,610.19,308.68,612.87,308.68Z"/><path class="d" d="M539.82,348.69h-6.73l-1.7,4.84h-2.21l6.23-16.91h2.09l6.23,16.91h-2.21Zm-6.11-1.79h5.49l-2.65-7.55h-.19Z"/><path class="d" d="M554.15,344.77a3.12,3.12,0,0,0-3.26-2.27c-2.27,0-3.7,1.81-3.7,4.67s1.45,4.77,3.7,4.77a3,3,0,0,0,3.26-2.21h2c-.36,2.32-2.25,4-5.29,4-3.54,0-5.8-2.57-5.8-6.59s2.25-6.49,5.79-6.49c3.07,0,5,1.84,5.3,4.09Z"/><path class="d" d="M567.58,344.77a3.12,3.12,0,0,0-3.26-2.27c-2.27,0-3.7,1.81-3.7,4.67s1.45,4.77,3.7,4.77a3,3,0,0,0,3.26-2.21h2c-.37,2.32-2.25,4-5.29,4-3.54,0-5.8-2.57-5.8-6.59s2.25-6.49,5.79-6.49c3.07,0,4.95,1.84,5.3,4.09Z"/><path class="d" d="M583,350.26c-.59,2.16-2.56,3.5-5.32,3.5-3.51,0-5.7-2.53-5.7-6.53s2.23-6.55,5.7-6.55,5.48,2.42,5.48,6.35v.77h-9.08v.1c.11,2.49,1.5,4.08,3.64,4.08a3.27,3.27,0,0,0,3.26-1.72Zm-8.92-4.09h7c0-2.23-1.38-3.71-3.39-3.71S574.21,343.94,574.06,346.17Z"/><path class="d" d="M597.77,347.22c0,3.95-2.1,6.54-5.31,6.54a4.24,4.24,0,0,1-4-2.12h-.19v6.11h-2V340.9h1.92V343h.19a4.55,4.55,0,0,1,4-2.33C595.68,340.68,597.77,343.25,597.77,347.22Zm-2.09,0c0-3-1.38-4.72-3.69-4.72s-3.73,1.81-3.73,4.72,1.44,4.72,3.72,4.72S595.68,350.17,595.68,347.22Z"/><path class="d" d="M603.79,337.63v3.27h2.81v1.69h-2.81v7.15c0,1.49.56,2.12,1.88,2.12a7.34,7.34,0,0,0,.93-.05v1.7a6.75,6.75,0,0,1-1.18.12c-2.6,0-3.65-1-3.65-3.38v-7.66h-2V340.9h2v-3.27Z"/><path class="d" d="M609.1,347.69v-1.91h7.69v1.91Z"/><path class="d" d="M631,353.53H620.76V336.62h2.11v15H631Z"/><path class="d" d="M633.38,350c0-2.27,1.66-3.57,4.6-3.74l3.65-.23v-1.14c0-1.56-1-2.42-2.86-2.42-1.51,0-2.57.58-2.85,1.57h-2c.27-2,2.26-3.36,5-3.36,3.08,0,4.8,1.58,4.8,4.21v8.64h-1.92v-1.86h-.18a4.39,4.39,0,0,1-3.9,2.09C635.2,353.76,633.38,352.3,633.38,350Zm8.25-1.18v-1.16l-3.4.23c-1.92.12-2.77.79-2.77,2.06s1.09,2,2.56,2A3.33,3.33,0,0,0,641.63,348.82Z"/><path class="d" d="M647.37,340.9h1.92v2h.19a3.8,3.8,0,0,1,3.8-2.21c2.83,0,4.42,1.67,4.42,4.67v8.18h-2v-7.68c0-2.28-1-3.35-3-3.35s-3.31,1.34-3.31,3.56v7.47h-2Z"/><path class="d" d="M661.28,354.93h2.13c.23,1,1.35,1.7,3.17,1.7,2.26,0,3.61-1.12,3.61-3v-2.48H670a4.4,4.4,0,0,1-4,2.18c-3.27,0-5.3-2.53-5.3-6.32s2-6.35,5.3-6.35a4.51,4.51,0,0,1,4.05,2.23h.19v-2h1.92v12.86c0,2.82-2.18,4.63-5.62,4.63C663.53,358.39,661.59,357,661.28,354.93Zm9-7.9c0-2.75-1.41-4.53-3.75-4.53s-3.65,1.78-3.65,4.53,1.31,4.54,3.65,4.54S670.23,349.78,670.23,347Z"/><path class="d" d="M686.22,353.53H684.3v-2h-.19a3.94,3.94,0,0,1-3.91,2.21c-2.84,0-4.32-1.69-4.32-4.68V340.9h2v7.69c0,2.27.84,3.33,2.86,3.33,2.22,0,3.44-1.33,3.44-3.54V340.9h2Z"/><path class="d" d="M689.27,350c0-2.27,1.66-3.57,4.6-3.74l3.65-.23v-1.14c0-1.56-1-2.42-2.86-2.42-1.52,0-2.57.58-2.85,1.57h-2c.27-2,2.26-3.36,5-3.36,3.08,0,4.8,1.58,4.8,4.21v8.64h-1.92v-1.86h-.19a4.36,4.36,0,0,1-3.89,2.09C691.08,353.76,689.27,352.3,689.27,350Zm8.25-1.18v-1.16l-3.4.23c-1.92.12-2.77.79-2.77,2.06s1.09,2,2.56,2A3.33,3.33,0,0,0,697.52,348.82Z"/><path class="d" d="M703.16,354.93h2.14c.22,1,1.34,1.7,3.16,1.7,2.26,0,3.61-1.12,3.61-3v-2.48h-.19a4.38,4.38,0,0,1-4,2.18c-3.27,0-5.3-2.53-5.3-6.32s2.06-6.35,5.3-6.35a4.54,4.54,0,0,1,4.06,2.23h.18v-2h1.93v12.86c0,2.82-2.18,4.63-5.63,4.63C705.41,358.39,703.47,357,703.16,354.93Zm9-7.9c0-2.75-1.42-4.53-3.75-4.53s-3.66,1.78-3.66,4.53,1.31,4.54,3.66,4.54S712.12,349.78,712.12,347Z"/><path class="d" d="M728.27,350.26c-.59,2.16-2.56,3.5-5.32,3.5-3.51,0-5.7-2.53-5.7-6.53s2.23-6.55,5.7-6.55,5.48,2.42,5.48,6.35v.77h-9.08v.1c.1,2.49,1.5,4.08,3.64,4.08a3.27,3.27,0,0,0,3.26-1.72Zm-8.92-4.09h7c0-2.23-1.38-3.71-3.39-3.71S719.5,343.94,719.35,346.17Z"/><g class="i"><path class="h" d="M238.46,108.09a11.49,11.49,0,0,1-14.51,0,9.18,9.18,0,0,1-2.86-7.21V84.57h5.69v15.84a4.75,4.75,0,0,0,1.17,3.46,5.08,5.08,0,0,0,6.51,0,4.75,4.75,0,0,0,1.17-3.46V84.57h5.69v16.31A9.18,9.18,0,0,1,238.46,108.09Z"/><path class="h" d="M258.93,110.09l-4.58-9.5h-2v9.5h-5.69V84.57h10.12a8.15,8.15,0,0,1,6,2.27,7.74,7.74,0,0,1,2.29,5.72A7.56,7.56,0,0,1,263.71,97a7.31,7.31,0,0,1-3.7,2.72l5.18,10.33Zm-6.59-14.4h3.35a3.84,3.84,0,0,0,2.66-.84,2.92,2.92,0,0,0,.94-2.25,2.89,2.89,0,0,0-.94-2.27,3.89,3.89,0,0,0-2.66-.83h-3.35Z"/><path class="h" d="M286,110.09h-16.7V84.57h5.68v20.09h11Z"/></g><path class="d" d="M196.64,317.46h-5.73V307.3H180.73v10.16H175V291.93h5.69v10h10.18v-10h5.73Z"/><path class="d" d="M213.31,311l4.57,1.3a7.45,7.45,0,0,1-2.85,4.08,8.81,8.81,0,0,1-5.4,1.61A9.7,9.7,0,0,1,203,301.65a8.64,8.64,0,0,1,6.29-2.63,8.82,8.82,0,0,1,6.57,2.43,9.23,9.23,0,0,1,2.39,6.75,7.65,7.65,0,0,1-.11,1.7H205.64a3.28,3.28,0,0,0,1.26,2.46,4.22,4.22,0,0,0,2.8,1A3.44,3.44,0,0,0,213.31,311Zm-7.57-4.64h7.17a3.23,3.23,0,0,0-1-2.13,3.53,3.53,0,0,0-2.64-.9,3.41,3.41,0,0,0-2.52.94A3.36,3.36,0,0,0,205.74,306.37Z"/><path class="d" d="M220.65,312.52a4.78,4.78,0,0,1,1.47-3.65,7,7,0,0,1,3.82-1.75l4.21-.65c.87-.11,1.3-.52,1.3-1.22a1.69,1.69,0,0,0-.7-1.38,3,3,0,0,0-1.93-.56,3.05,3.05,0,0,0-2.18.77,2.75,2.75,0,0,0-.88,1.86L221,305a6.18,6.18,0,0,1,2.21-4.08,8.06,8.06,0,0,1,5.64-1.86q4.06,0,6,2a6.77,6.77,0,0,1,1.93,5v8.74a15.06,15.06,0,0,0,.21,2.78h-4.93a8.81,8.81,0,0,1-.18-2,5.46,5.46,0,0,1-5,2.52,6.3,6.3,0,0,1-4.52-1.6A5.15,5.15,0,0,1,220.65,312.52Zm7.52,1.48a3.4,3.4,0,0,0,2.34-.83,3.46,3.46,0,0,0,.94-2.73v-.8l-3.39.54q-2,.33-2,2a1.79,1.79,0,0,0,.52,1.3A2.13,2.13,0,0,0,228.17,314Z"/><path class="d" d="M258.88,291.39v22.86c0,1.08.05,2.15.14,3.21h-5.25a10.2,10.2,0,0,1-.15-1.73,4.7,4.7,0,0,1-1.92,1.53,6.8,6.8,0,0,1-2.86.59,8.39,8.39,0,0,1-6.34-2.64,10.32,10.32,0,0,1-.07-13.43,8.1,8.1,0,0,1,6.23-2.65q3.66,0,4.82,1.84v-9.58Zm-12.22,13.82a4.41,4.41,0,0,0-1.17,3.28,4.46,4.46,0,0,0,1.17,3.3,4.08,4.08,0,0,0,5.72,0,4.46,4.46,0,0,0,1.17-3.3,4.41,4.41,0,0,0-1.17-3.28,4.13,4.13,0,0,0-5.72,0Z"/><path class="d" d="M275.51,311l4.57,1.3a7.38,7.38,0,0,1-2.84,4.08,8.81,8.81,0,0,1-5.4,1.61,9.24,9.24,0,0,1-6.61-2.6,10.17,10.17,0,0,1-.07-13.75,8.63,8.63,0,0,1,6.28-2.63,8.82,8.82,0,0,1,6.58,2.43,9.23,9.23,0,0,1,2.39,6.75,7.65,7.65,0,0,1-.11,1.7H267.85a3.27,3.27,0,0,0,1.25,2.46,4.27,4.27,0,0,0,2.81,1A3.42,3.42,0,0,0,275.51,311ZM268,306.37h7.17a3.23,3.23,0,0,0-1-2.13,3.55,3.55,0,0,0-2.64-.9,3.41,3.41,0,0,0-2.52.94A3.31,3.31,0,0,0,268,306.37Z"/><path class="d" d="M295.31,299.56V305a7.48,7.48,0,0,0-1.73-.18,4,4,0,0,0-3,1.19,5.05,5.05,0,0,0-1.17,3.67v7.82h-5.47v-17.9h5.29V302a3.92,3.92,0,0,1,2-2,6.3,6.3,0,0,1,2.66-.62A5.15,5.15,0,0,1,295.31,299.56Z"/><path class="d" d="M297.29,312.38l4.65-.83a2.56,2.56,0,0,0,.77,1.71,2.75,2.75,0,0,0,2,.7,2.35,2.35,0,0,0,1.55-.45,1.37,1.37,0,0,0,.54-1.09c0-.72-.59-1.22-1.76-1.48l-2.05-.47a7.23,7.23,0,0,1-4-2,5.09,5.09,0,0,1-1.29-3.48,5.4,5.4,0,0,1,2-4.21,7.18,7.18,0,0,1,4.91-1.73,7.28,7.28,0,0,1,5.24,1.68,5.71,5.71,0,0,1,1.93,3.65l-4.54.83a2.32,2.32,0,0,0-2.55-2.2,2.2,2.2,0,0,0-1.37.44,1.31,1.31,0,0,0-.58,1.11c0,.72.47,1.17,1.41,1.33l2.37.47a7.49,7.49,0,0,1,4.11,2.05A5.1,5.1,0,0,1,312,312a5.66,5.66,0,0,1-1.87,4.26,7.32,7.32,0,0,1-5.26,1.79,10,10,0,0,1-3.51-.58,5.64,5.64,0,0,1-2.34-1.5,7.29,7.29,0,0,1-1.22-1.81A5.22,5.22,0,0,1,297.29,312.38Z"/></g></svg>