<svg xmlns="http://www.w3.org/2000/svg" viewBox="0 0 900 430"><defs><style>.a{isolation:isolate;}.b{fill:#4cabbd;}.c{fill:#a9e7f7;}.d{fill:#fff;}.e{fill:#72cee7;}.f{fill:#3a89a4;}.g{fill:#2b6a7e;}.h{fill:#327984;}.i{mix-blend-mode:multiply;}</style></defs><title>get</title><g class="a"><rect class="b" x="62.07" y="135.9" width="775.87" height="294.1"/><rect class="c" x="62.07" y="0.6" width="775.87" height="135.04"/><polygon class="d" points="393.07 135.9 387.78 114.55 288.9 22.66 261.22 45.45 203.52 107.07 150.37 135.65 393.07 135.9"/><polygon class="e" points="288.9 22.66 387.78 114.55 393.07 135.9 320.14 135.9 291.68 108.73 286.21 102.81 319.82 102.81 288.9 22.66"/><polygon class="f" points="150.37 135.65 393.07 135.9 401.6 234.57 335.33 384.11 260.44 423.35 180.35 327.55 144.95 183.65 150.37 135.65"/><polygon class="g" points="393.07 135.9 401.6 234.57 335.33 384.11 260.44 423.35 271.69 396.31 287.31 377.32 305.29 215.11 322.32 165.09 320.14 135.9 393.07 135.9"/><path class="h" d="M519.3,68.94H521v6h.17a3.37,3.37,0,0,1,3.35-1.9c2.3,0,3.76,1.47,3.76,4v7h-1.74V77.53c0-1.93-.87-2.89-2.52-2.89a2.81,2.81,0,0,0-3,3.07v6.45H519.3Z"/><path class="h" d="M533.94,70.45v2.82h2.43v1.45h-2.43v6.16c0,1.29.49,1.83,1.62,1.83a7.57,7.57,0,0,0,.81,0v1.47a6,6,0,0,1-1,.1c-2.24,0-3.14-.83-3.14-2.91V74.72h-1.76V73.27h1.76V70.45Z"/><path class="h" d="M541.46,70.45v2.82h2.42v1.45h-2.42v6.16c0,1.29.49,1.83,1.62,1.83a7.26,7.26,0,0,0,.8,0v1.47a5.78,5.78,0,0,1-1,.1c-2.24,0-3.14-.83-3.14-2.91V74.72H538V73.27h1.75V70.45Z"/><path class="h" d="M556.39,78.71c0,3.41-1.81,5.64-4.57,5.64a3.67,3.67,0,0,1-3.41-1.83h-.16v5.27h-1.74V73.27h1.66v1.82h.16a3.92,3.92,0,0,1,3.49-2C554.59,73.08,556.39,75.29,556.39,78.71Zm-1.8,0c0-2.54-1.19-4.07-3.18-4.07s-3.21,1.57-3.21,4.07,1.24,4.07,3.2,4.07S554.59,81.26,554.59,78.71Z"/><path class="h" d="M557.56,87.26l5.26-18.32h1.47L559,87.26Z"/><path class="h" d="M564.45,87.26l5.26-18.32h1.47l-5.25,18.32Z"/><path class="h" d="M572.9,73.27h1.66V75h.16a3.07,3.07,0,0,1,3-1.9,3.15,3.15,0,0,1,3,1.9h.16a3.65,3.65,0,0,1,3.33-1.9c2.23,0,3.47,1.27,3.47,3.55v7.53H586V77c0-1.61-.76-2.4-2.29-2.4a2.45,2.45,0,0,0-2.53,2.52v7h-1.74v-7.4a2.06,2.06,0,0,0-2.27-2.12,2.63,2.63,0,0,0-2.52,2.77v6.75H572.9Z"/><path class="h" d="M590.65,88V86.55a4.19,4.19,0,0,0,.73,0c1,0,1.54-.47,2-1.79l.2-.64-4-10.9h1.88l3,9h.16l3-9h1.85l-4.26,11.55c-.92,2.53-1.79,3.28-3.72,3.28A5.12,5.12,0,0,1,590.65,88Z"/><path class="h" d="M600.68,81.11c0-2,1.44-3.07,4-3.23l3.14-.19v-1c0-1.34-.84-2.08-2.46-2.08-1.31,0-2.21.5-2.46,1.35h-1.75c.23-1.74,2-2.89,4.27-2.89,2.65,0,4.14,1.36,4.14,3.62v7.46h-1.66V82.55h-.16a3.77,3.77,0,0,1-3.35,1.8C602.25,84.35,600.68,83.1,600.68,81.11Zm7.11-1v-1l-2.93.19c-1.65.11-2.38.68-2.38,1.78s.94,1.75,2.2,1.75A2.86,2.86,0,0,0,607.79,80.1Z"/><path class="h" d="M622.62,78.71c0,3.41-1.81,5.64-4.57,5.64a3.67,3.67,0,0,1-3.41-1.83h-.16v5.27h-1.74V73.27h1.66v1.82h.16a3.92,3.92,0,0,1,3.49-2C620.83,73.08,622.62,75.29,622.62,78.71Zm-1.79,0c0-2.54-1.2-4.07-3.19-4.07s-3.21,1.57-3.21,4.07,1.24,4.07,3.2,4.07S620.83,81.26,620.83,78.71Z"/><path class="h" d="M635.23,78.71c0,3.41-1.81,5.64-4.58,5.64a3.66,3.66,0,0,1-3.4-1.83h-.16v5.27h-1.74V73.27H627v1.82h.16a3.91,3.91,0,0,1,3.48-2C633.43,73.08,635.23,75.29,635.23,78.71Zm-1.8,0c0-2.54-1.19-4.07-3.18-4.07S627,76.21,627,78.71s1.24,4.07,3.2,4.07S633.43,81.26,633.43,78.71Z"/><path class="h" d="M637.88,82.94a1.31,1.31,0,1,1,1.31,1.32A1.31,1.31,0,0,1,637.88,82.94Z"/><path class="h" d="M650.75,76.6a2.7,2.7,0,0,0-2.81-2c-2,0-3.19,1.57-3.19,4s1.25,4.11,3.19,4.11a2.61,2.61,0,0,0,2.81-1.91h1.76c-.32,2-1.94,3.48-4.56,3.48-3.05,0-5-2.21-5-5.68s1.94-5.59,5-5.59a4.28,4.28,0,0,1,4.57,3.52Z"/><path class="h" d="M654.53,78.71c0-3.5,1.92-5.63,5-5.63s5,2.13,5,5.63-1.92,5.64-5,5.64S654.53,82.21,654.53,78.71Zm8.24,0c0-2.58-1.16-4.07-3.22-4.07s-3.22,1.49-3.22,4.07,1.16,4.07,3.22,4.07S662.77,81.29,662.77,78.71Z"/><path class="h" d="M667.3,73.27H669V75h.17a3.07,3.07,0,0,1,3-1.9,3.15,3.15,0,0,1,3,1.9h.16a3.63,3.63,0,0,1,3.33-1.9c2.22,0,3.46,1.27,3.46,3.55v7.53h-1.73V77c0-1.61-.76-2.4-2.3-2.4a2.45,2.45,0,0,0-2.52,2.52v7h-1.74v-7.4a2.06,2.06,0,0,0-2.27-2.12A2.63,2.63,0,0,0,669,77.41v6.75H667.3Z"/><path class="d" d="M521.21,244a4,4,0,0,0,7.95,0v-9.44H531v9.56c0,3.12-2.17,5.36-5.78,5.36s-5.79-2.24-5.79-5.36v-9.56h1.81Z"/><path class="d" d="M538.26,238.08c2.28,0,3.87,1.13,4.1,2.92h-1.72a2.21,2.21,0,0,0-2.39-1.44c-1.29,0-2.3.65-2.3,1.62,0,.75.6,1.22,1.88,1.53l1.68.4c2,.5,3,1.39,3,2.95,0,1.95-1.89,3.3-4.36,3.3s-4.09-1.17-4.29-3h1.79a2.4,2.4,0,0,0,2.56,1.5c1.46,0,2.51-.7,2.51-1.7,0-.74-.56-1.25-1.72-1.53l-1.87-.46c-2-.49-3-1.37-3-2.95C534.2,239.45,536,238.08,538.26,238.08Z"/><path class="d" d="M554.23,246.35c-.51,1.85-2.2,3-4.59,3-3,0-4.91-2.19-4.91-5.63s1.92-5.65,4.91-5.65,4.73,2.09,4.73,5.48v.66h-7.83v.09c.09,2.15,1.29,3.51,3.14,3.51a2.81,2.81,0,0,0,2.81-1.47Zm-7.69-3.53h6c0-1.93-1.19-3.2-2.92-3.2A3.1,3.1,0,0,0,546.54,242.82Z"/><path class="d" d="M557.1,238.27h1.66v1.62h.16a3,3,0,0,1,3-1.81,7.71,7.71,0,0,1,.87,0v1.74a7.05,7.05,0,0,0-1.11-.1,2.67,2.67,0,0,0-2.86,2.65v6.74H557.1Z"/><path class="d" d="M564.1,244.12v-1.64h6.63v1.64Z"/><path class="d" d="M581.86,245h-5.8l-1.46,4.17h-1.91l5.37-14.57h1.8l5.37,14.57h-1.91Zm-5.26-1.54h4.72L579,236.94h-.16Z"/><path class="d" d="M586.88,250.37h1.84c.19.88,1.16,1.46,2.73,1.46,1.95,0,3.11-1,3.11-2.56v-2.15h-.16A3.77,3.77,0,0,1,591,249c-2.81,0-4.56-2.18-4.56-5.44s1.76-5.48,4.56-5.48a3.91,3.91,0,0,1,3.5,1.92h.16v-1.73h1.66v11.09c0,2.43-1.88,4-4.85,4C588.82,253.35,587.14,252.16,586.88,250.37Zm7.72-6.81c0-2.38-1.22-3.91-3.23-3.91s-3.16,1.53-3.16,3.91,1.14,3.91,3.16,3.91S594.6,245.93,594.6,243.56Z"/><path class="d" d="M608.52,246.35c-.51,1.85-2.2,3-4.59,3-3,0-4.91-2.19-4.91-5.63s1.92-5.65,4.91-5.65,4.73,2.09,4.73,5.48v.66h-7.83v.09c.09,2.15,1.3,3.51,3.14,3.51a2.81,2.81,0,0,0,2.81-1.47Zm-7.69-3.53h6c0-1.93-1.19-3.2-2.92-3.2A3.1,3.1,0,0,0,600.83,242.82Z"/><path class="d" d="M611.39,238.27h1.66V240h.16a3.26,3.26,0,0,1,3.27-1.91c2.44,0,3.81,1.45,3.81,4v7h-1.74v-6.62c0-2-.83-2.89-2.56-2.89a2.76,2.76,0,0,0-2.86,3.07v6.44h-1.74Z"/><path class="d" d="M625.93,235.46v2.81h2.42v1.46h-2.42v6.16c0,1.28.48,1.83,1.61,1.83a7.32,7.32,0,0,0,.81,0v1.46a5.89,5.89,0,0,1-1,.11c-2.24,0-3.14-.83-3.14-2.91v-6.61h-1.76v-1.46h1.76v-2.81Z"/><path class="d" d="M518.85,269.47c0-4.71,2.47-7.64,6.43-7.64a5.67,5.67,0,0,1,5.89,4.74h-1.84a4,4,0,0,0-4.05-3.06c-2.8,0-4.56,2.3-4.56,6s1.76,5.95,4.57,5.95a3.9,3.9,0,0,0,4-2.73h1.84c-.48,2.68-2.78,4.4-5.88,4.4C521.33,277.09,518.85,274.16,518.85,269.47Z"/><path class="d" d="M533.46,271.31c0-3.51,1.92-5.64,5-5.64s5,2.13,5,5.64-1.92,5.63-5,5.63S533.46,274.8,533.46,271.31Zm8.24,0c0-2.59-1.16-4.08-3.22-4.08s-3.22,1.49-3.22,4.08,1.16,4.07,3.22,4.07S541.7,273.88,541.7,271.31Z"/><path class="d" d="M545.68,271.31c0-3.51,1.92-5.64,5-5.64s5,2.13,5,5.64-1.92,5.63-5,5.63S545.68,274.8,545.68,271.31Zm8.25,0c0-2.59-1.17-4.08-3.23-4.08s-3.22,1.49-3.22,4.08,1.16,4.07,3.22,4.07S553.93,273.88,553.93,271.31Z"/><path class="d" d="M565.18,265.86h2.13l-4.69,4.67,5,6.22h-2.21l-4.08-5.1-1,1v4.13h-1.74V261.54h1.74v9.08h.16Z"/><path class="d" d="M569.38,262.55a1.22,1.22,0,1,1,1.22,1.21A1.22,1.22,0,0,1,569.38,262.55Zm.35,3.31h1.73v10.89h-1.73Z"/><path class="d" d="M583.73,273.93c-.51,1.86-2.2,3-4.59,3-3,0-4.91-2.18-4.91-5.62s1.92-5.65,4.91-5.65,4.73,2.09,4.73,5.47v.67H576v.08c.09,2.15,1.29,3.52,3.14,3.52a2.82,2.82,0,0,0,2.81-1.48ZM576,270.41h6c0-1.93-1.19-3.21-2.92-3.21A3.11,3.11,0,0,0,576,270.41Z"/><path class="d" d="M590.41,265.67c2.28,0,3.87,1.13,4.1,2.92h-1.72a2.22,2.22,0,0,0-2.39-1.45c-1.3,0-2.31.66-2.31,1.63,0,.75.61,1.21,1.89,1.53l1.68.4c2.05.49,3,1.38,3,2.95,0,2-1.89,3.29-4.36,3.29s-4.09-1.16-4.29-3h1.79a2.4,2.4,0,0,0,2.56,1.51c1.46,0,2.51-.7,2.51-1.7,0-.75-.56-1.25-1.73-1.53l-1.86-.46c-2-.49-3-1.37-3-3C586.35,267,588.09,265.67,590.41,265.67Z"/><path class="d" d="M527.43,300.17h-5.8l-1.46,4.17h-1.91l5.37-14.58h1.8l5.37,14.58h-1.91Zm-5.26-1.55h4.72l-2.28-6.51h-.16Z"/><path class="d" d="M539.78,296.78a2.7,2.7,0,0,0-2.81-2c-2,0-3.19,1.57-3.19,4S535,303,537,303a2.61,2.61,0,0,0,2.81-1.91h1.76c-.31,2-1.94,3.48-4.56,3.48-3.05,0-5-2.21-5-5.68s1.94-5.59,5-5.59a4.27,4.27,0,0,1,4.57,3.52Z"/><path class="d" d="M551.36,296.78a2.7,2.7,0,0,0-2.81-2c-2,0-3.19,1.57-3.19,4s1.25,4.11,3.19,4.11a2.61,2.61,0,0,0,2.81-1.91h1.76c-.32,2-1.94,3.48-4.56,3.48-3,0-5-2.21-5-5.68s1.94-5.59,5-5.59a4.28,4.28,0,0,1,4.57,3.52Z"/><path class="d" d="M564.63,301.52c-.5,1.86-2.2,3-4.58,3-3,0-4.91-2.18-4.91-5.63s1.92-5.64,4.91-5.64,4.73,2.09,4.73,5.47v.67H557v.08c.09,2.15,1.29,3.51,3.14,3.51a2.83,2.83,0,0,0,2.81-1.47ZM557,298h6c0-1.93-1.19-3.2-2.92-3.2A3.1,3.1,0,0,0,557,298Z"/><path class="d" d="M577.38,298.89c0,3.41-1.8,5.64-4.57,5.64a3.67,3.67,0,0,1-3.41-1.83h-.16V308H567.5V293.45h1.66v1.82h.16a3.92,3.92,0,0,1,3.49-2C575.59,293.26,577.38,295.47,577.38,298.89Zm-1.79,0c0-2.54-1.2-4.07-3.19-4.07s-3.21,1.57-3.21,4.07,1.24,4.07,3.2,4.07S575.59,301.44,575.59,298.89Z"/><path class="d" d="M582.58,290.63v2.82H585v1.45h-2.42v6.16c0,1.29.48,1.83,1.61,1.83a7.32,7.32,0,0,0,.81,0v1.47a5.78,5.78,0,0,1-1,.1c-2.24,0-3.14-.83-3.14-2.91V294.9h-1.76v-1.45h1.76v-2.82Z"/><path class="d" d="M587.15,299.3v-1.65h6.63v1.65Z"/><path class="d" d="M606.05,304.34h-8.84V289.76H599V302.7h7Z"/><path class="d" d="M608.09,301.29c0-2,1.43-3.07,4-3.23l3.14-.19v-1c0-1.34-.84-2.08-2.47-2.08-1.3,0-2.21.5-2.45,1.35h-1.76c.23-1.74,2-2.89,4.27-2.89,2.66,0,4.15,1.36,4.15,3.62v7.46h-1.66v-1.61h-.16a3.77,3.77,0,0,1-3.36,1.8C609.65,304.53,608.09,303.28,608.09,301.29Zm7.11-1v-1l-2.93.19c-1.66.11-2.39.68-2.39,1.78s.94,1.75,2.21,1.75A2.86,2.86,0,0,0,615.2,300.28Z"/><path class="d" d="M620.15,293.45h1.65v1.72H622a3.25,3.25,0,0,1,3.27-1.91c2.44,0,3.81,1.44,3.81,4v7h-1.74v-6.63c0-2-.83-2.89-2.57-2.89a2.76,2.76,0,0,0-2.85,3.07v6.45h-1.74Z"/><path class="d" d="M632.14,305.54H634c.19.89,1.16,1.46,2.73,1.46,1.95,0,3.11-1,3.11-2.56V302.3h-.16a3.79,3.79,0,0,1-3.42,1.88c-2.82,0-4.56-2.19-4.56-5.45s1.76-5.47,4.56-5.47a3.9,3.9,0,0,1,3.5,1.91h.16v-1.72h1.65v11.08c0,2.43-1.87,4-4.84,4C634.08,308.52,632.4,307.34,632.14,305.54Zm7.72-6.81c0-2.37-1.22-3.91-3.23-3.91s-3.16,1.54-3.16,3.91,1.14,3.91,3.16,3.91S639.86,301.1,639.86,298.73Z"/><path class="d" d="M653.64,304.34H652v-1.71h-.16a3.41,3.41,0,0,1-3.37,1.9c-2.45,0-3.72-1.46-3.72-4v-7.05h1.73v6.62c0,2,.73,2.87,2.47,2.87a2.74,2.74,0,0,0,3-3.05v-6.44h1.74Z"/><path class="d" d="M656.27,301.29c0-2,1.43-3.07,4-3.23l3.14-.19v-1c0-1.34-.84-2.08-2.47-2.08-1.3,0-2.21.5-2.45,1.35H656.7c.23-1.74,1.95-2.89,4.27-2.89,2.66,0,4.14,1.36,4.14,3.62v7.46h-1.65v-1.61h-.16a3.77,3.77,0,0,1-3.36,1.8C657.83,304.53,656.27,303.28,656.27,301.29Zm7.11-1v-1l-2.93.19c-1.66.11-2.39.68-2.39,1.78S659,303,660.27,303A2.87,2.87,0,0,0,663.38,300.28Z"/><path class="d" d="M668.25,305.54h1.83c.2.89,1.17,1.46,2.73,1.46,2,0,3.11-1,3.11-2.56V302.3h-.16a3.78,3.78,0,0,1-3.41,1.88c-2.82,0-4.57-2.19-4.57-5.45s1.77-5.47,4.57-5.47a3.89,3.89,0,0,1,3.49,1.91H676v-1.72h1.66v11.08c0,2.43-1.88,4-4.85,4C670.19,308.52,668.51,307.34,668.25,305.54Zm7.71-6.81c0-2.37-1.22-3.91-3.23-3.91s-3.15,1.54-3.15,3.91,1.13,3.91,3.15,3.91S676,301.1,676,298.73Z"/><path class="d" d="M689.88,301.52c-.5,1.86-2.2,3-4.58,3-3,0-4.91-2.18-4.91-5.63s1.92-5.64,4.91-5.64,4.73,2.09,4.73,5.47v.67H682.2v.08c.09,2.15,1.29,3.51,3.14,3.51a2.83,2.83,0,0,0,2.81-1.47ZM682.2,298h6c0-1.93-1.19-3.2-2.92-3.2A3.1,3.1,0,0,0,682.2,298Z"/><g class="i"><path class="h" d="M267.64,92.75a9.92,9.92,0,0,1-12.51,0,7.92,7.92,0,0,1-2.47-6.22V72.47h4.91V86.12a4.07,4.07,0,0,0,1,3,4.35,4.35,0,0,0,5.62,0,4.07,4.07,0,0,0,1-3V72.47h4.9V86.53A7.94,7.94,0,0,1,267.64,92.75Z"/><path class="h" d="M285.28,94.47l-3.94-8.19H279.6v8.19h-4.9v-22h8.72a7,7,0,0,1,5.16,2,6.66,6.66,0,0,1,2,4.94,6.55,6.55,0,0,1-1.15,3.86,6.36,6.36,0,0,1-3.2,2.35l4.47,8.9ZM279.6,82.06h2.89a3.28,3.28,0,0,0,2.29-.73,2.75,2.75,0,0,0,0-3.9,3.37,3.37,0,0,0-2.29-.71H279.6Z"/><path class="h" d="M308.59,94.47h-14.4v-22h4.9V89.79h9.5Z"/></g><path class="d" d="M231.58,273.23h-4.93v-8.75h-8.79v8.75H213v-22h4.9v8.63h8.79v-8.63h4.93Z"/><path class="d" d="M246,267.68l3.94,1.12a6.42,6.42,0,0,1-2.45,3.52,7.6,7.6,0,0,1-4.66,1.38,7.94,7.94,0,0,1-5.69-2.24,8.75,8.75,0,0,1-.06-11.85,7.42,7.42,0,0,1,5.41-2.27,7.6,7.6,0,0,1,5.67,2.1,8,8,0,0,1,2.06,5.82,6.77,6.77,0,0,1-.09,1.46H239.34a2.81,2.81,0,0,0,1.09,2.12,3.66,3.66,0,0,0,2.42.86A3,3,0,0,0,246,267.68Zm-6.52-4h6.18a2.81,2.81,0,0,0-.82-1.84,3.1,3.1,0,0,0-2.28-.77,2.94,2.94,0,0,0-2.18.81A2.88,2.88,0,0,0,239.43,263.68Z"/><path class="d" d="M252.28,269a4.16,4.16,0,0,1,1.27-3.15,6,6,0,0,1,3.29-1.5l3.63-.56c.75-.1,1.12-.46,1.12-1.06a1.47,1.47,0,0,0-.6-1.19,3.05,3.05,0,0,0-3.54.18,2.35,2.35,0,0,0-.76,1.6l-4.1-.84a5.31,5.31,0,0,1,1.91-3.52,7,7,0,0,1,4.86-1.6c2.33,0,4.06.56,5.16,1.68a5.81,5.81,0,0,1,1.66,4.28v7.54a12.81,12.81,0,0,0,.19,2.39h-4.25a7.62,7.62,0,0,1-.16-1.73,4.71,4.71,0,0,1-4.34,2.17,5.42,5.42,0,0,1-3.9-1.38A4.42,4.42,0,0,1,252.28,269Zm6.49,1.27a2.89,2.89,0,0,0,2-.71,3,3,0,0,0,.81-2.36v-.68l-2.92.46c-1.15.19-1.73.76-1.73,1.71a1.55,1.55,0,0,0,.45,1.12A1.84,1.84,0,0,0,258.77,270.25Z"/><path class="d" d="M285.24,250.76v19.71q0,1.39.12,2.76h-4.53a9.26,9.26,0,0,1-.12-1.49,4,4,0,0,1-1.66,1.32,5.84,5.84,0,0,1-2.47.52,7.24,7.24,0,0,1-5.46-2.29,8.89,8.89,0,0,1-.06-11.57,7,7,0,0,1,5.37-2.28c2.11,0,3.49.52,4.15,1.58v-8.26ZM274.7,262.68a3.8,3.8,0,0,0-1,2.83,3.86,3.86,0,0,0,1,2.84,3.55,3.55,0,0,0,4.94,0,3.86,3.86,0,0,0,1-2.84,3.81,3.81,0,0,0-1-2.83,3.58,3.58,0,0,0-4.94,0Z"/><path class="d" d="M299.58,267.68l3.94,1.12a6.42,6.42,0,0,1-2.45,3.52,7.62,7.62,0,0,1-4.66,1.38,7.94,7.94,0,0,1-5.69-2.24,8.73,8.73,0,0,1-.06-11.85,7.42,7.42,0,0,1,5.41-2.27,7.56,7.56,0,0,1,5.66,2.1,7.93,7.93,0,0,1,2.07,5.82,6.77,6.77,0,0,1-.09,1.46H293a2.84,2.84,0,0,0,1.08,2.12,3.68,3.68,0,0,0,2.42.86A3,3,0,0,0,299.58,267.68Zm-6.52-4h6.18a2.82,2.82,0,0,0-.83-1.84,3.06,3.06,0,0,0-2.28-.77,2.93,2.93,0,0,0-2.17.81A2.83,2.83,0,0,0,293.06,263.68Z"/><path class="d" d="M316.65,257.81v4.65a6.7,6.7,0,0,0-1.49-.15,3.47,3.47,0,0,0-2.59,1,4.34,4.34,0,0,0-1,3.17v6.73h-4.72V257.81h4.56v2.08a3.39,3.39,0,0,1,1.71-1.71,5.47,5.47,0,0,1,2.3-.53A4.61,4.61,0,0,1,316.65,257.81Z"/><path class="d" d="M318.35,268.86l4-.72a2.27,2.27,0,0,0,.66,1.48,2.41,2.41,0,0,0,1.76.6,2.07,2.07,0,0,0,1.33-.38,1.21,1.21,0,0,0,.47-.95c0-.62-.51-1.05-1.52-1.27l-1.77-.41a6.2,6.2,0,0,1-3.48-1.75,4.4,4.4,0,0,1-1.12-3,4.68,4.68,0,0,1,1.7-3.63,6.17,6.17,0,0,1,4.23-1.49,6.33,6.33,0,0,1,4.52,1.45,5,5,0,0,1,1.66,3.15l-3.91.71a2.15,2.15,0,0,0-.64-1.36,2.12,2.12,0,0,0-1.57-.53,1.93,1.93,0,0,0-1.18.37,1.15,1.15,0,0,0-.49,1c0,.62.4,1,1.21,1.15l2,.4a6.33,6.33,0,0,1,3.53,1.77,4.38,4.38,0,0,1,1.22,3.08,4.88,4.88,0,0,1-1.62,3.67,6.28,6.28,0,0,1-4.53,1.54,8.59,8.59,0,0,1-3-.5,5,5,0,0,1-2-1.28,6.48,6.48,0,0,1-1.06-1.57A4.49,4.49,0,0,1,318.35,268.86Z"/></g></svg>