<svg xmlns="http://www.w3.org/2000/svg" xmlns:xlink="http://www.w3.org/1999/xlink" viewBox="0 0 900 600"><defs><style>.a,.w{fill:#eae9e9;}.ag,.b,.v{fill:#5abd80;}.c,.u{fill:#fec75e;}.d,.l,.t{fill:#ed2627;}.e,.m{fill:#4b4b4b;}.f{fill:#66d38d;}.g{fill:#50b5c9;}.h{fill:#72cee7;}.i{fill:#4baabd;}.j{fill:#3e8a99;}.ae,.k{fill:#e8f4ee;}.k{stroke:#4b4b4b;}.ad,.ag,.ah,.k,.l,.m,.r,.t,.u,.v,.w,.x,.y{stroke-miterlimit:10;}.l,.m{stroke:#3e8a99;stroke-width:0.25px;}.n{fill:#262626;}.o{fill:#333;}.p{fill:#969696;}.q{fill:#c2c2c2;}.r{fill:#d7d7d7;stroke:#e8e8e8;}.aa,.s,.x{fill:#fff;}.t,.u,.v{stroke:#f1e5ce;}.t,.u,.v,.x,.y{stroke-width:0.5px;}.ag,.w,.x,.y{stroke:#eae9e9;}.ag,.w{stroke-width:0.8px;}.ah,.y{fill:none;}.z{fill:#eceaff;}.aa{opacity:0.24;}.ab{fill:#fedd9e;}.ac{fill:#ce9851;}.ad{fill:#e9f6fc;}.ad,.ah{stroke:#72cee7;stroke-width:4px;}.af{fill:#cdebd9;}.ai{fill:#7e73ff;}</style><symbol id="b" viewBox="0 0 21.16 17.82"><polygon class="a" points="0 0 0.16 5.61 21.16 17.82 21.16 12.31 0 0"/><polygon class="b" points="0.49 0.87 0.64 5.25 15.38 13.77 15.38 9.47 0.49 0.87"/><polygon class="c" points="17.45 10.74 17.45 15.04 16.07 14.25 16.07 9.95 17.45 10.74"/><polygon class="d" points="19.56 12.02 19.56 16.31 18.18 15.52 18.18 11.22 19.56 12.02"/></symbol><symbol id="d" viewBox="0 0 6.67 7.71"><polygon class="c" points="0 0 0 3.85 6.67 7.71 6.67 3.85 0 0"/><polygon class="ab" points="0 0.52 6.67 4.37 6.67 5.14 0 1.3 0 0.52"/><polygon class="ac" points="0 3.43 6.67 7.29 6.67 7.43 0 3.58 0 3.43"/></symbol><symbol id="i" viewBox="0 0 8.15 5.95"><polygon class="e" points="0 0 0.06 1.73 5.88 5.09 5.88 3.39 0 0"/><ellipse class="b" cx="7.29" cy="4.96" rx="0.64" ry="1.14" transform="translate(-1.52 5.38) rotate(-36.95)"/><ellipse class="f" cx="7.29" cy="4.96" rx="0.43" ry="0.76" transform="translate(-1.52 5.38) rotate(-36.95)"/></symbol><symbol id="h" viewBox="0 0 10.6 18.87"><polygon class="g" points="0 0 10.46 6.04 10.6 18.87 0 12.75 0 0"/><use width="8.15" height="5.95" transform="translate(1.2 3.01) scale(1 1.05)" xlink:href="#i"/><use width="8.15" height="5.95" transform="translate(1.2 9.27)" xlink:href="#i"/><use width="8.15" height="5.95" transform="translate(1.2 6.21)" xlink:href="#i"/></symbol><symbol id="a" viewBox="0 0 231.21 171.61"><polygon class="h" points="0.21 57.3 132.21 133.51 132.21 171.61 0.21 95.4 0.21 57.3"/><polygon class="i" points="0 57.16 99 0 231 76.21 132 133.37 0 57.16"/><polygon class="j" points="231.21 114.46 231.21 76.35 132.21 133.51 132.21 171.61 231.21 114.46"/><polygon class="k" points="127.85 135.22 127.85 152.81 98.5 135.87 98.5 118.92 127.85 135.22"/><polygon class="g" points="21.96 74.87 68.91 101.98 68.91 129.09 21.96 101.98 21.96 74.87"/><use width="21.16" height="17.82" transform="translate(24.28 88.22)" xlink:href="#b"/><use width="21.16" height="17.82" transform="translate(24.29 94.68)" xlink:href="#b"/><polygon class="e" points="17.54 73.14 17.54 100.04 5.89 93.32 5.86 66.39 17.54 73.14"/><polygon class="e" points="8.36 70.8 8.36 74.66 15.03 78.51 15.03 74.66 8.36 70.8"/><use width="6.67" height="7.71" transform="translate(8.36 71.32)" xlink:href="#d"/><use width="6.67" height="7.71" transform="translate(8.36 75.92)" xlink:href="#d"/><use width="6.67" height="7.71" transform="translate(8.36 83.62)" xlink:href="#d"/><use width="6.67" height="7.71" transform="translate(8.36 88.22)" xlink:href="#d"/><ellipse class="l" cx="109.05" cy="150.34" rx="1.16" ry="2.05" transform="translate(-68.47 95.74) rotate(-36.95)"/><use width="10.6" height="18.87" transform="translate(71.49 103.47)" xlink:href="#h"/><use width="10.6" height="18.87" transform="translate(83.83 110.64)" xlink:href="#h"/><use width="10.6" height="18.87" transform="translate(71.49 118.09)" xlink:href="#h"/><use width="10.6" height="18.87" transform="translate(83.83 125.27)" xlink:href="#h"/><ellipse class="m" cx="51.2" cy="112.58" rx="1.62" ry="2.87" transform="translate(-57.39 53.39) rotate(-36.95)"/><ellipse class="m" cx="56.95" cy="115.9" rx="1.62" ry="2.87" transform="translate(-58.23 57.51) rotate(-36.95)"/><ellipse class="m" cx="62.69" cy="118.92" rx="1.62" ry="2.87" transform="translate(-58.9 61.57) rotate(-36.95)"/></symbol><symbol id="y" viewBox="0 0 51.86 32.2"><polygon class="n" points="0 10.73 18.86 0 51.86 19.05 33 29.79 0 10.73"/><polygon class="o" points="33 32.2 33 29.79 51.86 19.05 51.86 21.47 33 32.2"/><polygon class="e" points="33 32.2 0 13.15 0 10.73 33 29.79 33 32.2"/></symbol><symbol id="ag" viewBox="0 0 66 40.52"><polygon class="n" points="0 19.05 33 0 66 19.05 33 38.1 0 19.05"/><polygon class="o" points="33 40.52 33 38.1 66 19.05 66 21.47 33 40.52"/><polygon class="e" points="33 40.52 0 21.47 0 19.05 33 38.1 33 40.52"/></symbol><symbol id="x" viewBox="0 0 299.9 323.56"><path class="p" d="M162.85,319.17v4.39c3,.13,127.44-69.8,127.44-69.8s2.27-5.84,1.31-8.44l-1.31,2.3L167.4,318.14Z"/><path class="a" d="M1.11,227.18l-1-2.06a11.09,11.09,0,0,0,1,5.88s157.36,93.54,161.74,92.56v-4.39L158.14,318Z"/><path class="q" d="M158.14,318l-155.93-90c-2.67-1.53-2.87-4-.44-5.4l124.64-70.32a10.19,10.19,0,0,1,9.27.18l153.78,90c2.67,1.54,2.87,4,.44,5.41L167.4,318.14A10.16,10.16,0,0,1,158.14,318Z"/><path class="r" d="M185.15,288.65,50.46,210.88c-2.3-1.32-2.47-3.43-.38-4.67l79-44.18a8.83,8.83,0,0,1,8,.16L269.89,240c2.31,1.32,2.48,3.42.39,4.67L193.15,288.8A8.79,8.79,0,0,1,185.15,288.65Z"/><use width="51.86" height="32.21" transform="translate(151.87 181.68) scale(0.33)" xlink:href="#y"/><use width="51.86" height="32.21" transform="translate(165.22 189.33) scale(0.33)" xlink:href="#y"/><use width="51.86" height="32.21" transform="translate(178.57 196.98) scale(0.33)" xlink:href="#y"/><use width="51.86" height="32.21" transform="translate(191.92 204.63) scale(0.33)" xlink:href="#y"/><use width="51.86" height="32.21" transform="translate(205.27 212.27) scale(0.33)" xlink:href="#y"/><use width="51.86" height="32.21" transform="translate(218.62 219.92) scale(0.33)" xlink:href="#y"/><use width="51.86" height="32.21" transform="translate(231.77 227.46) scale(0.33)" xlink:href="#y"/><use width="51.86" height="32.21" transform="translate(245.09 235.09) scale(0.33)" xlink:href="#y"/><use width="66" height="40.52" transform="translate(138.82 186.89) scale(0.33)" xlink:href="#ag"/><use width="66" height="40.52" transform="translate(152.14 194.53) scale(0.33)" xlink:href="#ag"/><use width="66" height="40.52" transform="translate(165.46 202.16) scale(0.33)" xlink:href="#ag"/><use width="66" height="40.52" transform="translate(178.79 209.79) scale(0.33)" xlink:href="#ag"/><use width="66" height="40.52" transform="translate(192.11 217.42) scale(0.33)" xlink:href="#ag"/><use width="66" height="40.52" transform="translate(205.43 225.05) scale(0.33)" xlink:href="#ag"/><polygon class="n" points="218.75 238.93 229.56 232.69 253.69 246.56 242.88 252.8 218.75 238.93"/><polygon class="o" points="242.88 253.59 242.88 252.8 253.69 246.56 253.69 247.35 242.88 253.59"/><polygon class="e" points="242.88 253.59 218.75 239.72 218.75 238.93 242.88 252.8 242.88 253.59"/><use width="66" height="40.52" transform="translate(125.6 194.53) scale(0.33)" xlink:href="#ag"/><use width="66" height="40.52" transform="translate(138.92 202.16) scale(0.33)" xlink:href="#ag"/><use width="66" height="40.52" transform="translate(152.24 209.79) scale(0.33)" xlink:href="#ag"/><use width="66" height="40.52" transform="translate(165.57 217.42) scale(0.33)" xlink:href="#ag"/><use width="66" height="40.52" transform="translate(178.89 225.05) scale(0.33)" xlink:href="#ag"/><use width="66" height="40.52" transform="translate(192.21 232.69) scale(0.33)" xlink:href="#ag"/><use width="66" height="40.52" transform="translate(205.53 240.32) scale(0.33)" xlink:href="#ag"/><polygon class="n" points="205.63 261.82 229.66 247.95 240.47 254.19 216.44 268.06 205.63 261.82"/><polygon class="o" points="216.44 268.86 216.44 268.06 240.47 254.19 240.47 254.98 216.44 268.86"/><polygon class="e" points="216.44 268.86 205.63 262.62 205.63 261.82 216.44 268.06 216.44 268.86"/><use width="66" height="40.52" transform="translate(112.38 202.16) scale(0.33)" xlink:href="#ag"/><use width="66" height="40.52" transform="translate(125.7 209.79) scale(0.33)" xlink:href="#ag"/><use width="66" height="40.52" transform="translate(139.02 217.42) scale(0.33)" xlink:href="#ag"/><use width="66" height="40.52" transform="translate(152.35 225.05) scale(0.33)" xlink:href="#ag"/><use width="66" height="40.52" transform="translate(165.67 232.69) scale(0.33)" xlink:href="#ag"/><use width="66" height="40.52" transform="translate(178.99 240.32) scale(0.33)" xlink:href="#ag"/><use width="66" height="40.52" transform="translate(192.31 247.95) scale(0.33)" xlink:href="#ag"/><use width="66" height="40.52" transform="translate(99.16 209.79) scale(0.33)" xlink:href="#ag"/><use width="66" height="40.52" transform="translate(112.48 217.42) scale(0.33)" xlink:href="#ag"/><use width="66" height="40.52" transform="translate(125.81 225.05) scale(0.33)" xlink:href="#ag"/><use width="66" height="40.52" transform="translate(139.13 232.69) scale(0.33)" xlink:href="#ag"/><use width="66" height="40.52" transform="translate(152.45 240.32) scale(0.33)" xlink:href="#ag"/><polygon class="n" points="165.77 254.19 176.58 247.95 214.03 269.46 203.22 275.7 165.77 254.19"/><polygon class="o" points="203.22 276.49 203.22 275.7 214.03 269.46 214.03 270.25 203.22 276.49"/><polygon class="e" points="203.22 276.49 165.77 254.98 165.77 254.19 203.22 275.7 203.22 276.49"/><use width="66" height="40.52" transform="translate(85.94 217.42) scale(0.33)" xlink:href="#ag"/><use width="51.86" height="32.21" transform="translate(138.73 174.04) scale(0.33)" xlink:href="#y"/><use width="66" height="40.52" transform="translate(125.7 179.26) scale(0.33)" xlink:href="#ag"/><use width="66" height="40.52" transform="translate(86.04 202.16) scale(0.33)" xlink:href="#ag"/><use width="66" height="40.52" transform="translate(72.82 209.79) scale(0.33)" xlink:href="#ag"/><use width="51.86" height="32.21" transform="translate(125.81 166.32) scale(0.33)" xlink:href="#y"/><use width="66" height="40.52" transform="translate(112.59 171.63) scale(0.33)" xlink:href="#ag"/><polygon class="n" points="99.16 185.5 109.97 179.26 134.1 193.13 123.29 199.38 99.16 185.5"/><polygon class="o" points="123.29 200.17 123.29 199.38 134.1 193.13 134.1 193.93 123.29 200.17"/><polygon class="e" points="123.29 200.17 99.16 186.29 99.16 185.5 123.29 199.38 123.29 200.17"/><polygon class="n" points="86.15 193.13 96.96 186.89 120.88 200.77 110.07 207.01 86.15 193.13"/><polygon class="o" points="110.07 207.8 110.07 207.01 120.88 200.77 120.88 201.56 110.07 207.8"/><polygon class="e" points="110.07 207.8 86.15 193.93 86.15 193.13 110.07 207.01 110.07 207.8"/><use width="66" height="40.52" transform="translate(72.93 194.53) scale(0.33)" xlink:href="#ag"/><use width="66" height="40.52" transform="translate(59.71 202.16) scale(0.33)" xlink:href="#ag"/><polygon class="n" points="99.26 231.3 110.07 225.06 160.85 254.19 150.04 260.43 99.26 231.3"/><polygon class="o" points="150.04 261.23 150.04 260.43 160.85 254.19 160.85 254.98 150.04 261.23"/><polygon class="e" points="150.04 261.23 99.26 232.09 99.26 231.3 150.04 260.43 150.04 261.23"/><use width="66" height="40.52" transform="translate(152.55 255.58) scale(0.33)" xlink:href="#ag"/><use width="66" height="40.52" transform="translate(165.87 263.22) scale(0.33)" xlink:href="#ag"/><use width="66" height="40.52" transform="translate(179.2 270.85) scale(0.33)" xlink:href="#ag"/><polygon class="r" points="92.04 241.84 128.44 262.85 104.18 276.86 67.78 255.85 92.04 241.84"/><path class="q" d="M296.81,91.38l-156-91c-1.83-1.06-3.43.17-3.56,2.74l-7.16,141.63c-.13,2.57,1.25,5.55,3.08,6.61l156,91c1.82,1.07,3.43-.17,3.56-2.74L299.89,98C300,95.42,298.63,92.45,296.81,91.38Z"/><path class="s" d="M285,233.55a1.92,1.92,0,0,1-.94-.29L139.36,148.88c-1.53-.89-2.73-3.5-2.62-5.69l6.55-127.93c.08-1.47.71-2.43,1.62-2.43a1.92,1.92,0,0,1,.94.29L290.51,97.51c1.53.89,2.73,3.49,2.62,5.68l-6.55,127.93c-.08,1.48-.71,2.43-1.62,2.43Z"/><path class="a" d="M144.91,13.33a1.42,1.42,0,0,1,.68.22L290.26,97.94c1.36.79,2.47,3.24,2.37,5.23L286.08,231.1c-.06,1.17-.51,2-1.12,2a1.42,1.42,0,0,1-.68-.22L139.61,148.45c-1.36-.8-2.47-3.24-2.37-5.23l6.55-127.93c.06-1.17.51-2,1.12-2m0-1c-1.16,0-2,1.1-2.12,2.91l-6.55,127.92c-.12,2.39,1.17,5.16,2.87,6.15l144.66,84.38a2.32,2.32,0,0,0,1.19.36c1.15,0,2-1.09,2.12-2.9l6.55-127.93c.12-2.39-1.17-5.16-2.87-6.15L146.1,12.69a2.42,2.42,0,0,0-1.19-.36Z"/><ellipse class="t" cx="149.78" cy="24.74" rx="1.6" ry="2.6" transform="translate(1.63 57.87) rotate(-21.99)"/><ellipse class="u" cx="155.13" cy="27.85" rx="1.6" ry="2.6" transform="translate(0.86 60.1) rotate(-21.99)"/><ellipse class="v" cx="160.47" cy="30.96" rx="1.6" ry="2.6" transform="translate(0.08 62.33) rotate(-21.99)"/><polygon class="w" points="278.12 218.05 144.92 141.36 150.44 47.73 281.46 123.93 278.12 218.05"/><polygon class="x" points="281.8 119.11 150.78 42.91 151.31 35.09 282.33 111.29 281.8 119.11"/><path class="y" d="M279.65,113.72a2.11,2.11,0,0,1-.14,1c-.35.8-1.22.8-1.95,0a3,3,0,0,1-.69-2.91.88.88,0,0,1,.94-.59"/><polygon class="a" points="277.93 112.14 278.54 111.23 277.51 110.26 277.93 112.14"/><path class="z" d="M155.78,42.11l-.08,1.19-.2-.11.21-3,.19.11-.09,1.32a.32.32,0,0,1,.21-.15.5.5,0,0,1,.31.08,1,1,0,0,1,.39.45,1.19,1.19,0,0,1,.1.6l-.09,1.28-.19-.11.09-1.24a.93.93,0,0,0-.08-.45.69.69,0,0,0-.3-.35.27.27,0,0,0-.32,0A.5.5,0,0,0,155.78,42.11Z"/><path class="z" d="M157.71,41.78l0,.62.4.23,0,.23-.39-.23-.09,1.18a.52.52,0,0,0,.24.51.34.34,0,0,0,.14,0v.21a.36.36,0,0,1-.2-.07.7.7,0,0,1-.28-.31.94.94,0,0,1-.08-.48l.08-1.21-.32-.19V42.1l.12.07c.15.08.23,0,.24-.16l0-.34Z"/><path class="z" d="M158.81,42.42l0,.62.4.23v.23l-.4-.23-.08,1.18a.49.49,0,0,0,.23.51.39.39,0,0,0,.14,0v.21a.32.32,0,0,1-.19-.07.67.67,0,0,1-.29-.31.94.94,0,0,1-.08-.48l.08-1.21-.32-.18v-.23l.12.07c.15.08.23,0,.24-.16l0-.34Z"/><path class="z" d="M159.57,46.36l-.19-.11.19-2.75.18.11,0,.39a.37.37,0,0,1,.21-.18.51.51,0,0,1,.38.07,1.22,1.22,0,0,1,.49.59,1.86,1.86,0,0,1,.13.84.88.88,0,0,1-.24.63.43.43,0,0,1-.53,0,1,1,0,0,1-.35-.34,1.59,1.59,0,0,1-.18-.4Zm1-.65a.7.7,0,0,0,.18-.5,1.44,1.44,0,0,0-.1-.66.88.88,0,0,0-.37-.46.31.31,0,0,0-.4,0,.72.72,0,0,0-.19.49,1.5,1.5,0,0,0,.11.67.91.91,0,0,0,.37.46A.31.31,0,0,0,160.56,45.71Z"/><path class="z" d="M161.17,45.94l.19,0a.88.88,0,0,0,.1.4.74.74,0,0,0,.29.29.31.31,0,0,0,.25.05.22.22,0,0,0,.12-.2.6.6,0,0,0-.24-.49l-.26-.22a.88.88,0,0,1-.33-.74.34.34,0,0,1,.18-.32.41.41,0,0,1,.38,0,1,1,0,0,1,.38.41,1.19,1.19,0,0,1,.13.44l-.18,0a.73.73,0,0,0-.08-.33.67.67,0,0,0-.27-.28.26.26,0,0,0-.23,0,.21.21,0,0,0-.12.19.54.54,0,0,0,.22.45l.25.22a1,1,0,0,1,.36.78.37.37,0,0,1-.17.32.38.38,0,0,1-.41,0,1,1,0,0,1-.41-.43A1.16,1.16,0,0,1,161.17,45.94Z"/><path class="z" d="M163,47.48a.11.11,0,0,1-.12,0,.3.3,0,0,1-.12-.13.29.29,0,0,1,0-.18.15.15,0,0,1,.06-.13.11.11,0,0,1,.12,0s.08.07.12.13a.29.29,0,0,1,0,.18C163,47.42,163,47.46,163,47.48Zm0-1.58a.36.36,0,0,1-.11-.13.39.39,0,0,1,0-.18c0-.07,0-.11.06-.13a.11.11,0,0,1,.12,0,.3.3,0,0,1,.12.13.39.39,0,0,1,0,.18c0,.06,0,.11-.06.13A.12.12,0,0,1,162.94,45.9Z"/><path class="z" d="M164.79,45.54l-1.31,2.29-.19-.11,1.31-2.29Z"/><path class="z" d="M166,46.24l-1.3,2.28-.19-.11,1.3-2.28Z"/><path class="z" d="M167,47.81l.2.12.35,1.93.52-1.42.2.11-.64,1.68-.21-.12-.35-1.94-.57,1.4-.21-.12-.38-2.27.22.13.3,1.9Z"/><path class="z" d="M169.45,49.25l.21.12L170,51.3l.52-1.43.21.12-.65,1.67-.2-.12-.35-1.93L169,51l-.21-.12-.37-2.27.21.12.3,1.91Z"/><path class="z" d="M171.92,50.69l.21.12.34,1.93.53-1.43.2.12-.65,1.67-.2-.12L172,51.05l-.57,1.4-.21-.12-.38-2.27.21.12.3,1.91Z"/><path class="z" d="M173.36,53.59a.3.3,0,0,1-.12-.13.46.46,0,0,1,0-.19.17.17,0,0,1,.06-.12s.08,0,.13,0a.31.31,0,0,1,.11.14.3.3,0,0,1,0,.18.15.15,0,0,1-.06.13S173.41,53.61,173.36,53.59Z"/><path class="z" d="M174.21,54.06,174,54l.21-3,.19.11Z"/><path class="z" d="M175.91,54.39l.17.18a.51.51,0,0,1-.27.3.52.52,0,0,1-.45-.08,1.25,1.25,0,0,1-.5-.58,1.71,1.71,0,0,1-.17-.9.84.84,0,0,1,.26-.62.43.43,0,0,1,.52,0,1.22,1.22,0,0,1,.51.58,1.8,1.8,0,0,1,.14.83.54.54,0,0,0,0,.08l-1.23-.71v0a1.29,1.29,0,0,0,.13.64.88.88,0,0,0,.37.43.4.4,0,0,0,.34.06A.4.4,0,0,0,175.91,54.39Zm-1-1.11,1,.59a1.24,1.24,0,0,0-.11-.54,1,1,0,0,0-.36-.41.34.34,0,0,0-.37,0A.51.51,0,0,0,174.91,53.28Z"/><path class="z" d="M177.43,53.89l.21.12.34,1.93.52-1.42.21.11-.65,1.68-.2-.12-.35-1.94-.57,1.4-.21-.12-.38-2.27.21.13.3,1.9Z"/><path class="z" d="M178.92,56.68a.9.9,0,0,1-.11-.47c0-.31.19-.42.51-.31l.41.16c.11,0,.17,0,.18-.1a.84.84,0,0,0-.08-.38.78.78,0,0,0-.28-.29.34.34,0,0,0-.31,0,.32.32,0,0,0-.15.26l-.18-.16a.41.41,0,0,1,.22-.34.5.5,0,0,1,.43.07,1.19,1.19,0,0,1,.43.46,1.24,1.24,0,0,1,.11.57l-.07,1c0,.11,0,.23,0,.35l-.18-.11a2,2,0,0,1,0-.35.32.32,0,0,1-.21.15.47.47,0,0,1-.35-.07A1,1,0,0,1,178.92,56.68Zm.09-.36a.69.69,0,0,0,.07.3.58.58,0,0,0,.24.25.37.37,0,0,0,.37,0,.48.48,0,0,0,.18-.39v-.24h-.08a.33.33,0,0,1-.13,0l-.34-.13C179.13,56,179,56.1,179,56.32Z"/><path class="z" d="M180.36,57.76l.19.05a1,1,0,0,0,.13.49.94.94,0,0,0,.32.36c.19.11.34.12.43,0a.64.64,0,0,0,.15-.46l0-.36a.31.31,0,0,1-.2.16.44.44,0,0,1-.35-.07,1.2,1.2,0,0,1-.47-.56,1.53,1.53,0,0,1-.15-.79.74.74,0,0,1,.24-.57.42.42,0,0,1,.51,0,.87.87,0,0,1,.33.3,1.22,1.22,0,0,1,.17.39l0-.35.19.11-.12,1.83a.91.91,0,0,1-.2.57c-.14.14-.34.14-.59,0a1.16,1.16,0,0,1-.45-.48A1.24,1.24,0,0,1,180.36,57.76Zm.38-.45a.92.92,0,0,0,.36.43.31.31,0,0,0,.39,0,.63.63,0,0,0,.17-.45,1.36,1.36,0,0,0-.1-.6.84.84,0,0,0-.36-.42c-.15-.09-.28-.1-.38,0a.55.55,0,0,0-.18.44A1.25,1.25,0,0,0,180.74,57.31Z"/><path class="z" d="M182.49,57.08a.48.48,0,0,1,.55,0,1.24,1.24,0,0,1,.52.6,1.78,1.78,0,0,1,.17.88.76.76,0,0,1-.27.62.5.5,0,0,1-.56,0,1.39,1.39,0,0,1-.51-.6,1.69,1.69,0,0,1-.17-.88A.76.76,0,0,1,182.49,57.08Zm0,1.43a.93.93,0,0,0,.38.44.35.35,0,0,0,.4,0,.6.6,0,0,0,.21-.5,1.39,1.39,0,0,0-.12-.7.93.93,0,0,0-.38-.44.35.35,0,0,0-.41,0,.64.64,0,0,0-.2.51A1.35,1.35,0,0,0,182.54,58.51Z"/><path class="z" d="M184.35,58.74l-.08,1.17-.2-.11.14-2,.19.11,0,.34c.12-.2.29-.23.53-.1a.94.94,0,0,1,.39.46,1.17,1.17,0,0,1,.1.59l-.09,1.29-.19-.12.09-1.24a1,1,0,0,0-.08-.45.66.66,0,0,0-.3-.34.27.27,0,0,0-.33,0A.51.51,0,0,0,184.35,58.74Z"/><path class="z" d="M186,60.91a.36.36,0,0,1-.11-.13.39.39,0,0,1,0-.18.15.15,0,0,1,.06-.13.11.11,0,0,1,.12,0,.3.3,0,0,1,.12.13.46.46,0,0,1,0,.19c0,.06,0,.1-.06.12A.12.12,0,0,1,186,60.91Z"/><path class="z" d="M187.62,60.16a.84.84,0,0,0-.32-.35.35.35,0,0,0-.41,0,.69.69,0,0,0-.21.51,1.43,1.43,0,0,0,.13.68.89.89,0,0,0,.37.45.35.35,0,0,0,.36,0,.39.39,0,0,0,.18-.23l.16.19a.46.46,0,0,1-.25.29.49.49,0,0,1-.46-.06,1.32,1.32,0,0,1-.52-.61,1.62,1.62,0,0,1-.16-.87.77.77,0,0,1,.26-.62.5.5,0,0,1,.56,0,1.21,1.21,0,0,1,.43.44,1.42,1.42,0,0,1,.18.56h-.17A1.31,1.31,0,0,0,187.62,60.16Z"/><path class="z" d="M188.42,60.53a.5.5,0,0,1,.56,0,1.28,1.28,0,0,1,.51.6,1.68,1.68,0,0,1,.17.88.76.76,0,0,1-.27.62.5.5,0,0,1-.56,0,1.39,1.39,0,0,1-.51-.6,1.8,1.8,0,0,1-.17-.88A.76.76,0,0,1,188.42,60.53Zm.05,1.43a.93.93,0,0,0,.38.44.36.36,0,0,0,.41,0,.67.67,0,0,0,.21-.5,1.51,1.51,0,0,0-.13-.7.92.92,0,0,0-.38-.44.33.33,0,0,0-.4,0,.61.61,0,0,0-.21.51A1.35,1.35,0,0,0,188.47,62Z"/><path class="z" d="M190.2,63.36l-.19-.11.13-2,.19.11,0,.33a.27.27,0,0,1,.2-.16.42.42,0,0,1,.31.07.86.86,0,0,1,.3.3,1,1,0,0,1,.15.42c.12-.24.31-.28.56-.13a.9.9,0,0,1,.37.4,1.22,1.22,0,0,1,.11.62l-.09,1.3-.19-.11.09-1.27a1,1,0,0,0-.08-.44.67.67,0,0,0-.28-.32.27.27,0,0,0-.32,0,.48.48,0,0,0-.15.35l-.08,1.2-.19-.11.09-1.27a.93.93,0,0,0-.08-.44.73.73,0,0,0-.28-.32.27.27,0,0,0-.32,0,.44.44,0,0,0-.15.35Z"/><polygon class="aa" points="176.68 169.09 287.76 123.19 247.8 165.59 243.54 166.32 176.68 169.09"/></symbol></defs><title>http-response</title><circle class="ad" cx="717.47" cy="315.56" r="117.96"/><circle class="ae" cx="178.13" cy="316.93" r="117.96"/><path class="s" d="M692.89,234.25a5.07,5.07,0,0,0-5.08-5.08l-.41,0a6.39,6.39,0,0,0-11-1.75,2.6,2.6,0,0,0-4,1.68h-.05a5.13,5.13,0,0,0-.59,10.22l16.48,0A5.06,5.06,0,0,0,692.89,234.25Z"/><path class="s" d="M805.26,265.33a9,9,0,0,0-9-9c-.25,0-.49,0-.73,0a11.33,11.33,0,0,0-19.46-3.11,4.6,4.6,0,0,0-7,3H769a9.08,9.08,0,0,0-1.05,18.09l29.17-.07A9,9,0,0,0,805.26,265.33Z"/><use width="231.21" height="171.61" transform="translate(631.73 259.1) rotate(-0.05) scale(0.74)" xlink:href="#a"/><polygon class="af" points="159.72 304.29 176.91 297.75 273.97 349.82 204.35 387.5 176.59 387.5 159.72 304.29"/><use width="299.9" height="323.56" transform="translate(97.29 231.66) scale(0.48 0.48)" xlink:href="#x"/><path d="M326.51,88.92h-7.07V76.39H306.87V88.92h-7V57.42h7V69.77h12.57V57.42h7.07Z"/><path d="M357.16,64.13h-9.73V88.92h-7V64.13h-9.68V57.42h26.43Z"/><path d="M386.17,64.13h-9.73V88.92h-7V64.13h-9.69V57.42h26.44Z"/><path d="M402.29,77.59h-4.84V88.92h-7V57.42h11.86a10.9,10.9,0,0,1,7.8,2.84,10.32,10.32,0,0,1,0,14.53A11,11,0,0,1,402.29,77.59Zm-4.8-6h4.09a4.77,4.77,0,0,0,3.24-1.09,3.69,3.69,0,0,0,1.25-2.91,3.75,3.75,0,0,0-1.23-3,4.73,4.73,0,0,0-3.26-1.08h-4.09Z"/><path d="M434.9,97.36h-6.76V66.84h6.53V69.1a5.83,5.83,0,0,1,2.51-2,9.26,9.26,0,0,1,4-.83,9.39,9.39,0,0,1,7.48,3.22,12.26,12.26,0,0,1,2.78,8.29,11.94,11.94,0,0,1-2.95,8.33,9.75,9.75,0,0,1-7.58,3.26q-4.17,0-6-2.22Zm8.46-15.44a5.51,5.51,0,0,0,1.44-4.07,5.44,5.44,0,0,0-1.44-4,4.89,4.89,0,0,0-3.58-1.42,4.83,4.83,0,0,0-3.53,1.42,5.44,5.44,0,0,0-1.44,4,5.51,5.51,0,0,0,1.44,4.07,4.81,4.81,0,0,0,3.53,1.44A4.87,4.87,0,0,0,443.36,81.92Z"/><path d="M469.81,66.84V73.5a9.12,9.12,0,0,0-2.13-.22A5,5,0,0,0,464,74.74a6.26,6.26,0,0,0-1.44,4.54v9.64h-6.76V66.84h6.53v3a4.93,4.93,0,0,1,2.45-2.44,7.84,7.84,0,0,1,3.28-.76A6.2,6.2,0,0,1,469.81,66.84Z"/><path d="M483.76,66.17a11.47,11.47,0,0,1,8.37,3.29,12.19,12.19,0,0,1,0,16.81A11.75,11.75,0,0,1,472,77.85a11.24,11.24,0,0,1,3.38-8.37A11.44,11.44,0,0,1,483.76,66.17Zm0,17.19a4.83,4.83,0,0,0,3.53-1.42,5.5,5.5,0,0,0,1.45-4.09,5.41,5.41,0,0,0-1.45-4.06,5.1,5.1,0,0,0-7,0,5.37,5.37,0,0,0-1.47,4,5.44,5.44,0,0,0,1.47,4.07A4.84,4.84,0,0,0,483.76,83.36Z"/><path d="M507.88,60.4v6.44h4.31v5.91h-4.31V81c0,1.54.82,2.31,2.45,2.31a8.54,8.54,0,0,0,1.77-.22v5.59a7.94,7.94,0,0,1-3.51.62,7.38,7.38,0,0,1-5.39-1.91,6.86,6.86,0,0,1-2-5.19V72.75h-3.91V66.84h1.11a3.21,3.21,0,0,0,2.55-1,3.82,3.82,0,0,0,.87-2.6V60.4Z"/><path d="M526.85,66.17a11.47,11.47,0,0,1,8.37,3.29,12.19,12.19,0,0,1,0,16.81,11.75,11.75,0,0,1-20.1-8.42,11.24,11.24,0,0,1,3.38-8.37A11.44,11.44,0,0,1,526.85,66.17Zm0,17.19a4.83,4.83,0,0,0,3.53-1.42,5.5,5.5,0,0,0,1.45-4.09,5.41,5.41,0,0,0-1.45-4.06,5.1,5.1,0,0,0-7,0,5.37,5.37,0,0,0-1.47,4,5.44,5.44,0,0,0,1.47,4.07A4.84,4.84,0,0,0,526.85,83.36Z"/><path d="M553.1,72.39a4.86,4.86,0,0,0-3.62,1.47,5.5,5.5,0,0,0-1.44,4,5.33,5.33,0,0,0,1.49,4,5,5,0,0,0,3.66,1.46,4.63,4.63,0,0,0,3-1,4.71,4.71,0,0,0,1.58-2.33l6,1.82a10.12,10.12,0,0,1-3.58,5.42,10.62,10.62,0,0,1-6.95,2.26,11.7,11.7,0,0,1-8.42-3.31,11.13,11.13,0,0,1-3.44-8.37A11.4,11.4,0,0,1,553,66.17,10.88,10.88,0,0,1,560,68.39a10,10,0,0,1,3.56,5.47l-6.05,1.82a4.59,4.59,0,0,0-1.5-2.36A4.45,4.45,0,0,0,553.1,72.39Z"/><path d="M577.76,66.17a11.48,11.48,0,0,1,8.37,3.29,12.19,12.19,0,0,1,0,16.81A11.75,11.75,0,0,1,566,77.85a11.24,11.24,0,0,1,3.38-8.37A11.44,11.44,0,0,1,577.76,66.17Zm0,17.19a4.83,4.83,0,0,0,3.53-1.42,5.5,5.5,0,0,0,1.44-4.09,5.41,5.41,0,0,0-1.44-4.06,5.1,5.1,0,0,0-7,0,5.37,5.37,0,0,0-1.47,4,5.44,5.44,0,0,0,1.47,4.07A4.84,4.84,0,0,0,577.76,83.36Z"/><path d="M600.59,88.92h-6.75V56.75h6.75Z"/><polygon class="ag" points="231.25 336.89 166.93 299.86 169.6 254.65 232.87 291.44 231.25 336.89"/><line class="ah" x1="325.1" y1="388.51" x2="622.84" y2="388.51"/><polygon class="h" points="329.77 404.47 302.14 388.51 329.77 372.56 329.77 404.47"/><path d="M441.94,495.72v-6.1h-7.35v6.1h-1.67V482.33h1.67v5.79h7.35v-5.79h1.67v13.39Z"/><path d="M450.5,495.72V483.84h-4.31v-1.51h10.3v1.51h-4.32v11.88Z"/><path d="M470.7,495.72V485.5h-.11l-4.22,10.22H465l-4.22-10.22h-.11v10.22h-1.56V482.33H461l4.58,11.17h.15l4.58-11.17h1.94v13.39Z"/><path d="M483.8,495.72h-8.13V482.33h1.67v11.89h6.46Z"/><path d="M492.29,487.06h-1.66v-1.34h1.66v-1.11c0-2,1-2.95,2.9-2.95a5.24,5.24,0,0,1,1.08.09v1.3a4.15,4.15,0,0,0-.75-.05,1.44,1.44,0,0,0-1.64,1.65v1.07h2.3v1.34h-2.3v8.66h-1.59Z"/><path d="M498.22,482.68a1.11,1.11,0,1,1,1.11,1.11A1.12,1.12,0,0,1,498.22,482.68Zm.31,3h1.6v10h-1.6Z"/><path d="M503.26,481.75h1.6v14h-1.6Z"/><path d="M516.18,493.13c-.47,1.71-2,2.77-4.21,2.77-2.78,0-4.51-2-4.51-5.17s1.76-5.19,4.51-5.19,4.34,1.92,4.34,5v.61h-7.19v.08c.08,2,1.18,3.23,2.88,3.23a2.6,2.6,0,0,0,2.58-1.36Zm-7.06-3.24h5.51A2.7,2.7,0,0,0,512,487,2.85,2.85,0,0,0,509.12,489.89Z"/><path d="M522.31,485.54c2.1,0,3.55,1,3.77,2.68H524.5a2,2,0,0,0-2.2-1.32c-1.19,0-2.11.6-2.11,1.49,0,.69.55,1.11,1.73,1.4l1.54.37c1.88.46,2.79,1.27,2.79,2.71,0,1.79-1.73,3-4,3s-3.76-1.07-3.94-2.73H520a2.19,2.19,0,0,0,2.34,1.38c1.35,0,2.31-.64,2.31-1.56,0-.68-.52-1.15-1.58-1.41l-1.72-.41c-1.87-.46-2.73-1.27-2.73-2.71C518.58,486.8,520.19,485.54,522.31,485.54Z"/><rect class="ae" x="333.07" y="418.61" width="292.34" height="46.19"/><path class="h" d="M424.68,452.63l-3.81-7.92h-1.68v7.92h-4.74V431.36h8.43a6.8,6.8,0,0,1,5,1.89,6.44,6.44,0,0,1,1.9,4.77,6.3,6.3,0,0,1-1.11,3.73,6.13,6.13,0,0,1-3.09,2.27l4.32,8.61Zm-5.49-12H422a3.2,3.2,0,0,0,2.22-.71,2.66,2.66,0,0,0,0-3.76,3.24,3.24,0,0,0-2.22-.69h-2.79Z"/><path class="h" d="M442.41,447.26l3.81,1.08a6.19,6.19,0,0,1-2.37,3.4,7.35,7.35,0,0,1-4.5,1.34,8.07,8.07,0,0,1-5.56-13.62,7.17,7.17,0,0,1,5.23-2.19,7.35,7.35,0,0,1,5.48,2,7.68,7.68,0,0,1,2,5.63,6.25,6.25,0,0,1-.09,1.41H436a2.75,2.75,0,0,0,1.05,2.05,3.54,3.54,0,0,0,2.34.83A2.85,2.85,0,0,0,442.41,447.26Zm-6.3-3.87h6a2.68,2.68,0,0,0-.79-1.77,3,3,0,0,0-2.21-.75,2.84,2.84,0,0,0-2.1.78A2.8,2.8,0,0,0,436.11,443.39Z"/><path class="h" d="M448.2,448.4l3.87-.69a2.16,2.16,0,0,0,.65,1.42,2.28,2.28,0,0,0,1.69.59,2,2,0,0,0,1.29-.38,1.14,1.14,0,0,0,.45-.91q0-.9-1.47-1.23l-1.71-.39a6,6,0,0,1-3.36-1.7,4.2,4.2,0,0,1-1.08-2.89,4.51,4.51,0,0,1,1.64-3.51,6,6,0,0,1,4.09-1.44,6.1,6.1,0,0,1,4.37,1.39,4.8,4.8,0,0,1,1.6,3l-3.78.69a1.93,1.93,0,0,0-2.13-1.83,1.85,1.85,0,0,0-1.14.36,1.11,1.11,0,0,0-.48.93q0,.9,1.17,1.11l2,.39a6.17,6.17,0,0,1,3.42,1.71,4.22,4.22,0,0,1,1.17,3,4.73,4.73,0,0,1-1.56,3.55,6.1,6.1,0,0,1-4.38,1.49,8.24,8.24,0,0,1-2.92-.48,4.8,4.8,0,0,1-1.95-1.25,6.28,6.28,0,0,1-1-1.51A4.37,4.37,0,0,1,448.2,448.4Z"/><path class="h" d="M468,458.33h-4.56V437.72h4.41v1.53a4,4,0,0,1,1.7-1.34,6.23,6.23,0,0,1,2.68-.55,6.34,6.34,0,0,1,5.06,2.17,8.27,8.27,0,0,1,1.87,5.6,8,8,0,0,1-2,5.62A6.6,6.6,0,0,1,472,453a5,5,0,0,1-4-1.5Zm5.72-10.43a3.7,3.7,0,0,0,1-2.74,3.66,3.66,0,0,0-1-2.73,3.32,3.32,0,0,0-2.42-1,3.26,3.26,0,0,0-2.38,1,3.66,3.66,0,0,0-1,2.73,3.7,3.7,0,0,0,1,2.74,3.24,3.24,0,0,0,2.38,1A3.3,3.3,0,0,0,473.69,447.9Z"/><path class="h" d="M488.91,437.27a7.77,7.77,0,0,1,5.66,2.22,8.26,8.26,0,0,1,0,11.35,8.23,8.23,0,0,1-11.3,0,8.18,8.18,0,0,1,0-11.33A7.74,7.74,0,0,1,488.91,437.27Zm0,11.61a3.28,3.28,0,0,0,2.39-1,3.7,3.7,0,0,0,1-2.76,3.66,3.66,0,0,0-1-2.75,3.46,3.46,0,0,0-4.76,0,3.63,3.63,0,0,0-1,2.73,3.67,3.67,0,0,0,1,2.74A3.26,3.26,0,0,0,488.91,448.88Z"/><path class="h" d="M504.33,444.08v8.55h-4.56V437.72h4.41v1.71a3.84,3.84,0,0,1,1.76-1.55,5.61,5.61,0,0,1,2.41-.55,5,5,0,0,1,4,1.66,6.49,6.49,0,0,1,1.38,4.28v9.36h-4.56v-8.58a2.76,2.76,0,0,0-.61-1.88,2.62,2.62,0,0,0-3.6,0A2.68,2.68,0,0,0,504.33,444.08Z"/><path class="h" d="M516.39,448.4l3.87-.69a2.16,2.16,0,0,0,.65,1.42,2.28,2.28,0,0,0,1.69.59,2,2,0,0,0,1.29-.38,1.14,1.14,0,0,0,.45-.91q0-.9-1.47-1.23l-1.71-.39a6,6,0,0,1-3.36-1.7,4.2,4.2,0,0,1-1.08-2.89,4.51,4.51,0,0,1,1.64-3.51,6,6,0,0,1,4.09-1.44,6.1,6.1,0,0,1,4.37,1.39,4.8,4.8,0,0,1,1.6,3l-3.78.69a1.93,1.93,0,0,0-2.13-1.83,1.85,1.85,0,0,0-1.14.36,1.11,1.11,0,0,0-.48.93q0,.9,1.17,1.11l2,.39a6.17,6.17,0,0,1,3.42,1.71,4.22,4.22,0,0,1,1.17,3,4.73,4.73,0,0,1-1.56,3.55,6.1,6.1,0,0,1-4.38,1.49,8.24,8.24,0,0,1-2.92-.48,4.8,4.8,0,0,1-1.95-1.25,6.28,6.28,0,0,1-1-1.51A4.37,4.37,0,0,1,516.39,448.4Z"/><path class="h" d="M541.32,447.26l3.81,1.08a6.19,6.19,0,0,1-2.37,3.4,7.35,7.35,0,0,1-4.5,1.34,8.07,8.07,0,0,1-5.56-13.62,7.17,7.17,0,0,1,5.23-2.19,7.35,7.35,0,0,1,5.48,2,7.68,7.68,0,0,1,2,5.63,6.25,6.25,0,0,1-.09,1.41H534.93a2.75,2.75,0,0,0,1.05,2.05,3.54,3.54,0,0,0,2.34.83A2.85,2.85,0,0,0,541.32,447.26Zm-6.3-3.87h6a2.68,2.68,0,0,0-.79-1.77,3,3,0,0,0-2.21-.75,2.84,2.84,0,0,0-2.1.78A2.8,2.8,0,0,0,535,443.39Z"/><polygon class="ai" points="243.94 323.28 284.44 347.38 284.44 409.41 243.94 386.66 243.94 323.28"/><polygon class="c" points="240.03 330.01 280.54 354.1 280.54 416.13 240.03 393.38 240.03 330.01"/><polygon class="b" points="232.39 335.18 272.89 359.28 272.89 421.31 232.39 398.56 232.39 335.18"/><path class="s" d="M240.68,374.84l.92-1.83L251,373l-1.18,2.34-6.06-.13,3.7,4.82-1.2,2.37Z"/><path class="s" d="M261.15,375l-12.41,9.42-2.29-1.15,12.39-9.44Z"/><path class="s" d="M266,385.27,265,387.1l-9.35,0,1.17-2.33,6.07.13-3.7-4.83,1.2-2.37Z"/></svg>