<svg xmlns="http://www.w3.org/2000/svg" xmlns:xlink="http://www.w3.org/1999/xlink" viewBox="0 0 900 340"><defs><style>.a,.ac{fill:#4b4b4b;}.b,.n,.o{fill:#5abd80;}.c{fill:#66d38d;}.d{fill:#50b5c9;}.e{fill:#262626;}.f{fill:#333;}.g{fill:#969696;}.h{fill:#eae9e9;}.i{fill:#c2c2c2;}.j{fill:#d7d7d7;stroke:#e8e8e8;}.aa,.ab,.ac,.ad,.af,.j,.l,.m,.n,.o,.p,.q{stroke-miterlimit:10;}.k,.p,.s{fill:#fff;}.ab,.l,.w{fill:#ed2627;}.l,.m,.n{stroke:#f1e5ce;}.l,.m,.n,.p,.q{stroke-width:0.5px;}.m,.t{fill:#fec75e;}.o,.p,.q{stroke:#eae9e9;}.o{stroke-width:0.8px;}.q{fill:none;}.r{fill:#eceaff;}.s{opacity:0.24;}.u{fill:#fedd9e;}.v{fill:#ce9851;}.x{fill:#72cee7;}.y{fill:#4baabd;}.z{fill:#3e8a99;}.aa,.ad,.ag{fill:#e8f4ee;}.aa{stroke:#4b4b4b;}.ab,.ac{stroke:#3e8a99;stroke-width:0.25px;}.ad{stroke:#5abd80;stroke-width:5px;}.ae{fill:#cdebd9;}.af,.ah{fill:#e9f6fc;}.af{stroke:#72cee7;stroke-width:4px;}.ai{fill:#130d0d;}</style><symbol id="b" viewBox="0 0 51.86 32.2"><polygon class="e" points="0 10.73 18.86 0 51.86 19.05 33 29.79 0 10.73"/><polygon class="f" points="33 32.2 33 29.79 51.86 19.05 51.86 21.47 33 32.2"/><polygon class="a" points="33 32.2 0 13.15 0 10.73 33 29.79 33 32.2"/></symbol><symbol id="j" viewBox="0 0 66 40.52"><polygon class="e" points="0 19.05 33 0 66 19.05 33 38.1 0 19.05"/><polygon class="f" points="33 40.52 33 38.1 66 19.05 66 21.47 33 40.52"/><polygon class="a" points="33 40.52 0 21.47 0 19.05 33 38.1 33 40.52"/></symbol><symbol id="a" viewBox="0 0 299.9 323.56"><path class="g" d="M162.85,319.17v4.39c3,.13,127.44-69.8,127.44-69.8s2.27-5.84,1.31-8.44l-1.31,2.3L167.4,318.14Z"/><path class="h" d="M1.11,227.18l-1-2.06a11.09,11.09,0,0,0,1,5.88s157.36,93.54,161.74,92.56v-4.39L158.14,318Z"/><path class="i" d="M158.14,318l-155.93-90c-2.67-1.53-2.87-4-.44-5.4l124.64-70.32a10.19,10.19,0,0,1,9.27.18l153.78,90c2.67,1.54,2.87,4,.44,5.41L167.4,318.14A10.16,10.16,0,0,1,158.14,318Z"/><path class="j" d="M185.15,288.65,50.46,210.88c-2.3-1.32-2.47-3.43-.38-4.67l79-44.18a8.83,8.83,0,0,1,8,.16L269.89,240c2.31,1.32,2.48,3.42.39,4.67L193.15,288.8A8.79,8.79,0,0,1,185.15,288.65Z"/><use width="51.86" height="32.21" transform="translate(151.87 181.68) scale(0.33)" xlink:href="#b"/><use width="51.86" height="32.21" transform="translate(165.22 189.33) scale(0.33)" xlink:href="#b"/><use width="51.86" height="32.21" transform="translate(178.57 196.98) scale(0.33)" xlink:href="#b"/><use width="51.86" height="32.21" transform="translate(191.92 204.63) scale(0.33)" xlink:href="#b"/><use width="51.86" height="32.21" transform="translate(205.27 212.27) scale(0.33)" xlink:href="#b"/><use width="51.86" height="32.21" transform="translate(218.62 219.92) scale(0.33)" xlink:href="#b"/><use width="51.86" height="32.21" transform="translate(231.77 227.46) scale(0.33)" xlink:href="#b"/><use width="51.86" height="32.21" transform="translate(245.09 235.09) scale(0.33)" xlink:href="#b"/><use width="66" height="40.52" transform="translate(138.82 186.89) scale(0.33)" xlink:href="#j"/><use width="66" height="40.52" transform="translate(152.14 194.53) scale(0.33)" xlink:href="#j"/><use width="66" height="40.52" transform="translate(165.46 202.16) scale(0.33)" xlink:href="#j"/><use width="66" height="40.52" transform="translate(178.79 209.79) scale(0.33)" xlink:href="#j"/><use width="66" height="40.52" transform="translate(192.11 217.42) scale(0.33)" xlink:href="#j"/><use width="66" height="40.52" transform="translate(205.43 225.05) scale(0.33)" xlink:href="#j"/><polygon class="e" points="218.75 238.93 229.56 232.69 253.69 246.56 242.88 252.8 218.75 238.93"/><polygon class="f" points="242.88 253.59 242.88 252.8 253.69 246.56 253.69 247.35 242.88 253.59"/><polygon class="a" points="242.88 253.59 218.75 239.72 218.75 238.93 242.88 252.8 242.88 253.59"/><use width="66" height="40.52" transform="translate(125.6 194.53) scale(0.33)" xlink:href="#j"/><use width="66" height="40.52" transform="translate(138.92 202.16) scale(0.33)" xlink:href="#j"/><use width="66" height="40.52" transform="translate(152.24 209.79) scale(0.33)" xlink:href="#j"/><use width="66" height="40.52" transform="translate(165.57 217.42) scale(0.33)" xlink:href="#j"/><use width="66" height="40.52" transform="translate(178.89 225.05) scale(0.33)" xlink:href="#j"/><use width="66" height="40.52" transform="translate(192.21 232.69) scale(0.33)" xlink:href="#j"/><use width="66" height="40.52" transform="translate(205.53 240.32) scale(0.33)" xlink:href="#j"/><polygon class="e" points="205.63 261.82 229.66 247.95 240.47 254.19 216.44 268.06 205.63 261.82"/><polygon class="f" points="216.44 268.86 216.44 268.06 240.47 254.19 240.47 254.98 216.44 268.86"/><polygon class="a" points="216.44 268.86 205.63 262.62 205.63 261.82 216.44 268.06 216.44 268.86"/><use width="66" height="40.52" transform="translate(112.38 202.16) scale(0.33)" xlink:href="#j"/><use width="66" height="40.52" transform="translate(125.7 209.79) scale(0.33)" xlink:href="#j"/><use width="66" height="40.52" transform="translate(139.02 217.42) scale(0.33)" xlink:href="#j"/><use width="66" height="40.52" transform="translate(152.35 225.05) scale(0.33)" xlink:href="#j"/><use width="66" height="40.52" transform="translate(165.67 232.69) scale(0.33)" xlink:href="#j"/><use width="66" height="40.52" transform="translate(178.99 240.32) scale(0.33)" xlink:href="#j"/><use width="66" height="40.52" transform="translate(192.31 247.95) scale(0.33)" xlink:href="#j"/><use width="66" height="40.52" transform="translate(99.16 209.79) scale(0.33)" xlink:href="#j"/><use width="66" height="40.52" transform="translate(112.48 217.42) scale(0.33)" xlink:href="#j"/><use width="66" height="40.52" transform="translate(125.81 225.05) scale(0.33)" xlink:href="#j"/><use width="66" height="40.52" transform="translate(139.13 232.69) scale(0.33)" xlink:href="#j"/><use width="66" height="40.52" transform="translate(152.45 240.32) scale(0.33)" xlink:href="#j"/><polygon class="e" points="165.77 254.19 176.58 247.95 214.03 269.46 203.22 275.7 165.77 254.19"/><polygon class="f" points="203.22 276.49 203.22 275.7 214.03 269.46 214.03 270.25 203.22 276.49"/><polygon class="a" points="203.22 276.49 165.77 254.98 165.77 254.19 203.22 275.7 203.22 276.49"/><use width="66" height="40.52" transform="translate(85.94 217.42) scale(0.33)" xlink:href="#j"/><use width="51.86" height="32.21" transform="translate(138.73 174.04) scale(0.33)" xlink:href="#b"/><use width="66" height="40.52" transform="translate(125.7 179.26) scale(0.33)" xlink:href="#j"/><use width="66" height="40.52" transform="translate(86.04 202.16) scale(0.33)" xlink:href="#j"/><use width="66" height="40.52" transform="translate(72.82 209.79) scale(0.33)" xlink:href="#j"/><use width="51.86" height="32.21" transform="translate(125.81 166.32) scale(0.33)" xlink:href="#b"/><use width="66" height="40.52" transform="translate(112.59 171.63) scale(0.33)" xlink:href="#j"/><polygon class="e" points="99.16 185.5 109.97 179.26 134.1 193.13 123.29 199.38 99.16 185.5"/><polygon class="f" points="123.29 200.17 123.29 199.38 134.1 193.13 134.1 193.93 123.29 200.17"/><polygon class="a" points="123.29 200.17 99.16 186.29 99.16 185.5 123.29 199.38 123.29 200.17"/><polygon class="e" points="86.15 193.13 96.96 186.89 120.88 200.77 110.07 207.01 86.15 193.13"/><polygon class="f" points="110.07 207.8 110.07 207.01 120.88 200.77 120.88 201.56 110.07 207.8"/><polygon class="a" points="110.07 207.8 86.15 193.93 86.15 193.13 110.07 207.01 110.07 207.8"/><use width="66" height="40.52" transform="translate(72.93 194.53) scale(0.33)" xlink:href="#j"/><use width="66" height="40.52" transform="translate(59.71 202.16) scale(0.33)" xlink:href="#j"/><polygon class="e" points="99.26 231.3 110.07 225.06 160.85 254.19 150.04 260.43 99.26 231.3"/><polygon class="f" points="150.04 261.23 150.04 260.43 160.85 254.19 160.85 254.98 150.04 261.23"/><polygon class="a" points="150.04 261.23 99.26 232.09 99.26 231.3 150.04 260.43 150.04 261.23"/><use width="66" height="40.52" transform="translate(152.55 255.58) scale(0.33)" xlink:href="#j"/><use width="66" height="40.52" transform="translate(165.87 263.22) scale(0.33)" xlink:href="#j"/><use width="66" height="40.52" transform="translate(179.2 270.85) scale(0.33)" xlink:href="#j"/><polygon class="j" points="92.04 241.84 128.44 262.85 104.18 276.86 67.78 255.85 92.04 241.84"/><path class="i" d="M296.81,91.38l-156-91c-1.83-1.06-3.43.17-3.56,2.74l-7.16,141.63c-.13,2.57,1.25,5.55,3.08,6.61l156,91c1.82,1.07,3.43-.17,3.56-2.74L299.89,98C300,95.42,298.63,92.45,296.81,91.38Z"/><path class="k" d="M285,233.55a1.92,1.92,0,0,1-.94-.29L139.36,148.88c-1.53-.89-2.73-3.5-2.62-5.69l6.55-127.93c.08-1.47.71-2.43,1.62-2.43a1.92,1.92,0,0,1,.94.29L290.51,97.51c1.53.89,2.73,3.49,2.62,5.69l-6.55,127.92c-.08,1.48-.71,2.43-1.62,2.43Z"/><path class="h" d="M144.91,13.33a1.42,1.42,0,0,1,.68.22L290.26,97.94c1.36.79,2.47,3.24,2.37,5.23L286.08,231.1c-.06,1.17-.51,2-1.12,2a1.42,1.42,0,0,1-.68-.22L139.61,148.45c-1.36-.8-2.47-3.24-2.37-5.23l6.55-127.93c.06-1.17.51-2,1.12-2m0-1c-1.16,0-2,1.1-2.12,2.91l-6.55,127.92c-.12,2.39,1.17,5.16,2.87,6.15l144.66,84.38a2.32,2.32,0,0,0,1.19.36c1.15,0,2-1.09,2.12-2.9l6.55-127.93c.12-2.39-1.17-5.16-2.87-6.15L146.1,12.69a2.42,2.42,0,0,0-1.19-.36Z"/><ellipse class="l" cx="149.78" cy="24.74" rx="1.6" ry="2.6" transform="translate(1.63 57.87) rotate(-21.99)"/><ellipse class="m" cx="155.13" cy="27.85" rx="1.6" ry="2.6" transform="translate(0.86 60.1) rotate(-21.99)"/><ellipse class="n" cx="160.47" cy="30.96" rx="1.6" ry="2.6" transform="translate(0.08 62.33) rotate(-21.99)"/><polygon class="o" points="278.12 218.05 144.92 141.36 150.44 47.73 281.46 123.93 278.12 218.05"/><polygon class="p" points="281.8 119.11 150.78 42.91 151.31 35.09 282.33 111.29 281.8 119.11"/><path class="q" d="M279.65,113.72a2.11,2.11,0,0,1-.14,1c-.35.8-1.22.8-1.95,0a3,3,0,0,1-.69-2.91.88.88,0,0,1,.94-.59"/><polygon class="h" points="277.93 112.14 278.54 111.23 277.51 110.26 277.93 112.14"/><path class="r" d="M155.78,42.11l-.08,1.19-.2-.11.21-3,.19.11-.09,1.32a.32.32,0,0,1,.21-.15.5.5,0,0,1,.31.08,1,1,0,0,1,.39.45,1.19,1.19,0,0,1,.1.6l-.09,1.28-.19-.11.09-1.24a.93.93,0,0,0-.08-.45.69.69,0,0,0-.3-.35.27.27,0,0,0-.32,0A.5.5,0,0,0,155.78,42.11Z"/><path class="r" d="M157.71,41.78l0,.62.4.23,0,.23-.39-.23-.09,1.18a.52.52,0,0,0,.24.51.34.34,0,0,0,.14,0v.21a.36.36,0,0,1-.2-.07.7.7,0,0,1-.28-.31.94.94,0,0,1-.08-.48l.08-1.21-.32-.19V42.1l.12.07c.15.08.23,0,.24-.16l0-.34Z"/><path class="r" d="M158.81,42.42l0,.62.4.23v.23l-.4-.23-.08,1.18a.49.49,0,0,0,.23.51.39.39,0,0,0,.14,0v.21a.32.32,0,0,1-.19-.07.67.67,0,0,1-.29-.31.94.94,0,0,1-.08-.48l.08-1.21-.32-.18v-.23l.12.07c.15.08.23,0,.24-.16l0-.34Z"/><path class="r" d="M159.57,46.36l-.19-.11.19-2.75.18.11,0,.39a.37.37,0,0,1,.21-.18.51.51,0,0,1,.38.07,1.22,1.22,0,0,1,.49.59,1.86,1.86,0,0,1,.13.84.88.88,0,0,1-.24.63.43.43,0,0,1-.53,0,1,1,0,0,1-.35-.34,1.59,1.59,0,0,1-.18-.4Zm1-.65a.7.7,0,0,0,.18-.5,1.44,1.44,0,0,0-.1-.66.88.88,0,0,0-.37-.46.31.31,0,0,0-.4,0,.72.72,0,0,0-.19.49,1.5,1.5,0,0,0,.11.67.91.91,0,0,0,.37.46A.31.31,0,0,0,160.56,45.71Z"/><path class="r" d="M161.17,45.94l.19,0a.88.88,0,0,0,.1.4.74.74,0,0,0,.29.29.31.31,0,0,0,.25.05.22.22,0,0,0,.12-.2.6.6,0,0,0-.24-.49l-.26-.22a.88.88,0,0,1-.33-.74.34.34,0,0,1,.18-.32.41.41,0,0,1,.38,0,1,1,0,0,1,.38.41,1.19,1.19,0,0,1,.13.44l-.18,0a.73.73,0,0,0-.08-.33.67.67,0,0,0-.27-.28.26.26,0,0,0-.23,0,.21.21,0,0,0-.12.19.54.54,0,0,0,.22.45l.25.22a1,1,0,0,1,.36.78.37.37,0,0,1-.17.32.38.38,0,0,1-.41,0,1,1,0,0,1-.41-.43A1.16,1.16,0,0,1,161.17,45.94Z"/><path class="r" d="M163,47.48a.11.11,0,0,1-.12,0,.3.3,0,0,1-.12-.13.29.29,0,0,1,0-.18.15.15,0,0,1,.06-.13.11.11,0,0,1,.12,0s.08.07.12.13a.29.29,0,0,1,0,.18C163,47.42,163,47.46,163,47.48Zm0-1.58a.36.36,0,0,1-.11-.13.39.39,0,0,1,0-.18c0-.07,0-.11.06-.13a.11.11,0,0,1,.12,0,.3.3,0,0,1,.12.13.39.39,0,0,1,0,.18c0,.06,0,.11-.06.13A.12.12,0,0,1,162.94,45.9Z"/><path class="r" d="M164.79,45.54l-1.31,2.29-.19-.11,1.31-2.29Z"/><path class="r" d="M166,46.24l-1.3,2.28-.19-.11,1.3-2.28Z"/><path class="r" d="M167,47.81l.2.12.35,1.93.52-1.42.2.11-.64,1.68-.21-.12-.35-1.94-.57,1.4-.21-.12-.38-2.27.22.13.3,1.9Z"/><path class="r" d="M169.45,49.25l.21.12L170,51.3l.52-1.43.21.12-.65,1.67-.2-.12-.35-1.93L169,51l-.21-.12-.37-2.27.21.12.3,1.91Z"/><path class="r" d="M171.92,50.69l.21.12.34,1.93.53-1.43.2.12-.65,1.67-.2-.12L172,51.05l-.57,1.4-.21-.12-.38-2.27.21.12.3,1.91Z"/><path class="r" d="M173.36,53.59a.3.3,0,0,1-.12-.13.46.46,0,0,1,0-.19.17.17,0,0,1,.06-.12s.08,0,.13,0a.31.31,0,0,1,.11.14.3.3,0,0,1,0,.18.15.15,0,0,1-.06.13S173.41,53.61,173.36,53.59Z"/><path class="r" d="M174.21,54.06,174,54l.21-3,.19.11Z"/><path class="r" d="M175.91,54.39l.17.18a.51.51,0,0,1-.27.3.52.52,0,0,1-.45-.08,1.25,1.25,0,0,1-.5-.58,1.71,1.71,0,0,1-.17-.9.84.84,0,0,1,.26-.62.43.43,0,0,1,.52,0,1.22,1.22,0,0,1,.51.58,1.8,1.8,0,0,1,.14.83.54.54,0,0,0,0,.08l-1.23-.71v0a1.29,1.29,0,0,0,.13.64.88.88,0,0,0,.37.43.4.4,0,0,0,.34.06A.4.4,0,0,0,175.91,54.39Zm-1-1.11,1,.59a1.24,1.24,0,0,0-.11-.54,1,1,0,0,0-.36-.41.34.34,0,0,0-.37,0A.51.51,0,0,0,174.91,53.28Z"/><path class="r" d="M177.43,53.89l.21.12.34,1.93.52-1.42.21.11-.65,1.68-.2-.12-.35-1.94-.57,1.4-.21-.12-.38-2.27.21.13.3,1.9Z"/><path class="r" d="M178.92,56.68a.9.9,0,0,1-.11-.47c0-.31.19-.42.51-.31l.41.16c.11,0,.17,0,.18-.1a.84.84,0,0,0-.08-.38.78.78,0,0,0-.28-.29.34.34,0,0,0-.31,0,.32.32,0,0,0-.15.26l-.18-.16a.41.41,0,0,1,.22-.34.5.5,0,0,1,.43.07,1.19,1.19,0,0,1,.43.46,1.24,1.24,0,0,1,.11.57l-.07,1c0,.11,0,.23,0,.35l-.18-.11a2,2,0,0,1,0-.35.32.32,0,0,1-.21.15.47.47,0,0,1-.35-.07A1,1,0,0,1,178.92,56.68Zm.09-.36a.69.69,0,0,0,.07.3.58.58,0,0,0,.24.25.37.37,0,0,0,.37,0,.48.48,0,0,0,.18-.39v-.24h-.08a.33.33,0,0,1-.13,0l-.34-.13C179.13,56,179,56.1,179,56.32Z"/><path class="r" d="M180.36,57.76l.19.05a1,1,0,0,0,.13.49.94.94,0,0,0,.32.36c.19.11.34.12.43,0a.64.64,0,0,0,.15-.46l0-.36a.31.31,0,0,1-.2.16.44.44,0,0,1-.35-.07,1.2,1.2,0,0,1-.47-.56,1.53,1.53,0,0,1-.15-.79.74.74,0,0,1,.24-.57.42.42,0,0,1,.51,0,.87.87,0,0,1,.33.3,1.22,1.22,0,0,1,.17.39l0-.35.19.11-.12,1.83a.91.91,0,0,1-.2.57c-.14.14-.34.14-.59,0a1.16,1.16,0,0,1-.45-.48A1.24,1.24,0,0,1,180.36,57.76Zm.38-.45a.92.92,0,0,0,.36.43.31.31,0,0,0,.39,0,.63.63,0,0,0,.17-.45,1.36,1.36,0,0,0-.1-.6.84.84,0,0,0-.36-.42c-.15-.09-.28-.1-.38,0a.55.55,0,0,0-.18.44A1.25,1.25,0,0,0,180.74,57.31Z"/><path class="r" d="M182.49,57.08a.48.48,0,0,1,.55,0,1.24,1.24,0,0,1,.52.6,1.78,1.78,0,0,1,.17.88.76.76,0,0,1-.27.62.5.5,0,0,1-.56,0,1.39,1.39,0,0,1-.51-.6,1.69,1.69,0,0,1-.17-.88A.76.76,0,0,1,182.49,57.08Zm0,1.43a.93.93,0,0,0,.38.44.35.35,0,0,0,.4,0,.6.6,0,0,0,.21-.5,1.39,1.39,0,0,0-.12-.7.93.93,0,0,0-.38-.44.35.35,0,0,0-.41,0,.64.64,0,0,0-.2.51A1.35,1.35,0,0,0,182.54,58.51Z"/><path class="r" d="M184.35,58.74l-.08,1.17-.2-.11.14-2,.19.11,0,.34c.12-.2.29-.23.53-.1a.94.94,0,0,1,.39.46,1.17,1.17,0,0,1,.1.59l-.09,1.29-.19-.12.09-1.24a1,1,0,0,0-.08-.45.66.66,0,0,0-.3-.34.27.27,0,0,0-.33,0A.51.51,0,0,0,184.35,58.74Z"/><path class="r" d="M186,60.91a.36.36,0,0,1-.11-.13.39.39,0,0,1,0-.18.15.15,0,0,1,.06-.13.11.11,0,0,1,.12,0,.3.3,0,0,1,.12.13.46.46,0,0,1,0,.19c0,.06,0,.1-.06.12A.12.12,0,0,1,186,60.91Z"/><path class="r" d="M187.62,60.16a.84.84,0,0,0-.32-.35.35.35,0,0,0-.41,0,.69.69,0,0,0-.21.51,1.43,1.43,0,0,0,.13.68.89.89,0,0,0,.37.45.35.35,0,0,0,.36,0,.39.39,0,0,0,.18-.23l.16.19a.46.46,0,0,1-.25.29.49.49,0,0,1-.46-.06,1.32,1.32,0,0,1-.52-.61,1.62,1.62,0,0,1-.16-.87.77.77,0,0,1,.26-.62.5.5,0,0,1,.56,0,1.21,1.21,0,0,1,.43.44,1.42,1.42,0,0,1,.18.56h-.17A1.31,1.31,0,0,0,187.62,60.16Z"/><path class="r" d="M188.42,60.53a.5.5,0,0,1,.56,0,1.28,1.28,0,0,1,.51.6,1.68,1.68,0,0,1,.17.88.76.76,0,0,1-.27.62.5.5,0,0,1-.56,0,1.39,1.39,0,0,1-.51-.6,1.8,1.8,0,0,1-.17-.88A.76.76,0,0,1,188.42,60.53Zm.05,1.43a.93.93,0,0,0,.38.44.36.36,0,0,0,.41,0,.67.67,0,0,0,.21-.5,1.51,1.51,0,0,0-.13-.7.92.92,0,0,0-.38-.44.33.33,0,0,0-.4,0,.61.61,0,0,0-.21.51A1.35,1.35,0,0,0,188.47,62Z"/><path class="r" d="M190.2,63.36l-.19-.11.13-2,.19.11,0,.33a.27.27,0,0,1,.2-.16.42.42,0,0,1,.31.07.86.86,0,0,1,.3.3,1,1,0,0,1,.15.42c.12-.24.31-.28.56-.13a.9.9,0,0,1,.37.4,1.22,1.22,0,0,1,.11.62l-.09,1.3-.19-.11.09-1.27a1,1,0,0,0-.08-.44.67.67,0,0,0-.28-.32.27.27,0,0,0-.32,0,.48.48,0,0,0-.15.35l-.08,1.2-.19-.11.09-1.27a.93.93,0,0,0-.08-.44.73.73,0,0,0-.28-.32.27.27,0,0,0-.32,0,.44.44,0,0,0-.15.35Z"/><polygon class="s" points="176.68 169.09 287.76 123.19 247.8 165.59 243.54 166.32 176.68 169.09"/></symbol><symbol id="av" viewBox="0 0 21.16 17.82"><polygon class="h" points="0 0 0.16 5.61 21.16 17.82 21.16 12.31 0 0"/><polygon class="b" points="0.49 0.87 0.64 5.25 15.38 13.77 15.38 9.47 0.49 0.87"/><polygon class="t" points="17.45 10.74 17.45 15.04 16.07 14.25 16.07 9.95 17.45 10.74"/><polygon class="w" points="19.56 12.02 19.56 16.31 18.18 15.52 18.18 11.22 19.56 12.02"/></symbol><symbol id="ax" viewBox="0 0 6.67 7.71"><polygon class="t" points="0 0 0 3.85 6.67 7.71 6.67 3.85 0 0"/><polygon class="u" points="0 0.52 6.67 4.37 6.67 5.14 0 1.3 0 0.52"/><polygon class="v" points="0 3.43 6.67 7.29 6.67 7.43 0 3.58 0 3.43"/></symbol><symbol id="bc" viewBox="0 0 8.15 5.95"><polygon class="a" points="0 0 0.06 1.73 5.88 5.09 5.88 3.39 0 0"/><ellipse class="b" cx="7.29" cy="4.96" rx="0.64" ry="1.14" transform="translate(-1.52 5.38) rotate(-36.95)"/><ellipse class="c" cx="7.29" cy="4.96" rx="0.43" ry="0.76" transform="translate(-1.52 5.38) rotate(-36.95)"/></symbol><symbol id="bb" viewBox="0 0 10.6 18.87"><polygon class="d" points="0 0 10.46 6.04 10.6 18.87 0 12.75 0 0"/><use width="8.15" height="5.95" transform="translate(1.2 3.01) scale(1 1.05)" xlink:href="#bc"/><use width="8.15" height="5.95" transform="translate(1.2 9.27)" xlink:href="#bc"/><use width="8.15" height="5.95" transform="translate(1.2 6.21)" xlink:href="#bc"/></symbol><symbol id="au" viewBox="0 0 231.21 171.61"><polygon class="x" points="0.21 57.3 132.21 133.51 132.21 171.61 0.21 95.4 0.21 57.3"/><polygon class="y" points="0 57.16 99 0 231 76.21 132 133.37 0 57.16"/><polygon class="z" points="231.21 114.46 231.21 76.35 132.21 133.51 132.21 171.61 231.21 114.46"/><polygon class="aa" points="127.85 135.22 127.85 152.81 98.5 135.87 98.5 118.92 127.85 135.22"/><polygon class="d" points="21.96 74.87 68.91 101.98 68.91 129.09 21.96 101.98 21.96 74.87"/><use width="21.16" height="17.82" transform="translate(24.28 88.22)" xlink:href="#av"/><use width="21.16" height="17.82" transform="translate(24.29 94.68)" xlink:href="#av"/><polygon class="a" points="17.54 73.14 17.54 100.04 5.89 93.32 5.86 66.39 17.54 73.14"/><polygon class="a" points="8.36 70.8 8.36 74.66 15.03 78.51 15.03 74.66 8.36 70.8"/><use width="6.67" height="7.71" transform="translate(8.36 71.32)" xlink:href="#ax"/><use width="6.67" height="7.71" transform="translate(8.36 75.92)" xlink:href="#ax"/><use width="6.67" height="7.71" transform="translate(8.36 83.62)" xlink:href="#ax"/><use width="6.67" height="7.71" transform="translate(8.36 88.22)" xlink:href="#ax"/><ellipse class="ab" cx="109.05" cy="150.34" rx="1.16" ry="2.05" transform="translate(-68.47 95.74) rotate(-36.95)"/><use width="10.6" height="18.87" transform="translate(71.49 103.47)" xlink:href="#bb"/><use width="10.6" height="18.87" transform="translate(83.83 110.64)" xlink:href="#bb"/><use width="10.6" height="18.87" transform="translate(71.49 118.09)" xlink:href="#bb"/><use width="10.6" height="18.87" transform="translate(83.83 125.27)" xlink:href="#bb"/><ellipse class="ac" cx="51.2" cy="112.58" rx="1.62" ry="2.87" transform="translate(-57.39 53.39) rotate(-36.95)"/><ellipse class="ac" cx="56.95" cy="115.9" rx="1.62" ry="2.87" transform="translate(-58.23 57.51) rotate(-36.95)"/><ellipse class="ac" cx="62.69" cy="118.92" rx="1.62" ry="2.87" transform="translate(-58.9 61.57) rotate(-36.95)"/></symbol></defs><title>http-protocol</title><circle class="ad" cx="178.13" cy="166.24" r="117.96"/><polygon class="ae" points="146.66 151.93 163.84 145.39 260.9 197.46 191.29 235.14 163.53 235.14 146.66 151.93"/><use width="299.9" height="323.56" transform="translate(84.22 79.3) scale(0.48 0.48)" xlink:href="#a"/><circle class="af" cx="717.47" cy="164.87" r="117.96"/><path class="k" d="M805.26,114.64a9,9,0,0,0-9-9c-.25,0-.49,0-.73,0a11.33,11.33,0,0,0-19.46-3.1,4.57,4.57,0,0,0-2.5-.75,4.62,4.62,0,0,0-4.52,3.73H769a9.08,9.08,0,0,0-1.05,18.09l29.17-.07A9,9,0,0,0,805.26,114.64Z"/><use width="231.21" height="171.61" transform="matrix(0.74, 0, 0, 0.74, 631.73, 108.41)" xlink:href="#au"/><path class="k" d="M692.89,83.56a5.08,5.08,0,0,0-5.08-5.08l-.41,0a6.39,6.39,0,0,0-11-1.75,2.6,2.6,0,0,0-4,1.68h-.05a5.13,5.13,0,0,0-.59,10.22l16.48,0A5.06,5.06,0,0,0,692.89,83.56Z"/><path class="x" d="M608.71,210.63H259.92l-18.1,19.07,18.1,19.06H634.55A118.22,118.22,0,0,1,608.71,210.63Z"/><path class="k" d="M399.5,237.66l-3.3-6.86h-1.46v6.86h-4.11V219.23h7.31a5.88,5.88,0,0,1,4.33,1.64,5.58,5.58,0,0,1,1.65,4.13,5.49,5.49,0,0,1-1,3.24,5.33,5.33,0,0,1-2.68,2l3.74,7.46Zm-4.76-10.4h2.42a2.75,2.75,0,0,0,1.92-.61,2.29,2.29,0,0,0,0-3.26,2.8,2.8,0,0,0-1.92-.6h-2.42Z"/><path class="k" d="M414.87,233l3.3.94a5.4,5.4,0,0,1-2.06,3,6.37,6.37,0,0,1-3.9,1.15,7,7,0,0,1-4.82-11.8,6.22,6.22,0,0,1,4.54-1.9,6.35,6.35,0,0,1,4.74,1.76A6.6,6.6,0,0,1,418.4,231a4.85,4.85,0,0,1-.08,1.22h-9a2.35,2.35,0,0,0,.91,1.78,3.06,3.06,0,0,0,2,.72A2.47,2.47,0,0,0,414.87,233Zm-5.46-3.35h5.17a2.31,2.31,0,0,0-.69-1.54,2.57,2.57,0,0,0-1.91-.65,2.47,2.47,0,0,0-1.82.68A2.4,2.4,0,0,0,409.41,229.66Z"/><path class="k" d="M419.88,234l3.36-.6a1.81,1.81,0,0,0,.56,1.23,2,2,0,0,0,1.47.51,1.73,1.73,0,0,0,1.11-.32,1,1,0,0,0,.39-.8c0-.52-.42-.87-1.27-1.06l-1.48-.34a5.21,5.21,0,0,1-2.91-1.47,3.63,3.63,0,0,1-.94-2.51,3.89,3.89,0,0,1,1.42-3,5.16,5.16,0,0,1,3.55-1.25,5.25,5.25,0,0,1,3.78,1.21,4.2,4.2,0,0,1,1.39,2.64l-3.28.6a1.85,1.85,0,0,0-.53-1.15,1.82,1.82,0,0,0-1.31-.44,1.67,1.67,0,0,0-1,.31,1,1,0,0,0-.42.81q0,.78,1,1l1.71.34a5.36,5.36,0,0,1,3,1.48,3.7,3.7,0,0,1,1,2.58,4.12,4.12,0,0,1-1.35,3.08,5.33,5.33,0,0,1-3.8,1.28,7.11,7.11,0,0,1-2.53-.41,4.18,4.18,0,0,1-1.69-1.08,5.19,5.19,0,0,1-.88-1.31A4,4,0,0,1,419.88,234Z"/><path class="k" d="M437,242.6h-3.95V224.74h3.82v1.33a3.38,3.38,0,0,1,1.47-1.16,5.41,5.41,0,0,1,2.32-.48,5.53,5.53,0,0,1,4.39,1.88,7.2,7.2,0,0,1,1.62,4.85A7,7,0,0,1,445,236a5.72,5.72,0,0,1-4.43,1.91,4.28,4.28,0,0,1-3.51-1.3Zm5-9a3.74,3.74,0,0,0,0-4.75,2.87,2.87,0,0,0-2.09-.83,2.84,2.84,0,0,0-2.07.83,3.78,3.78,0,0,0,0,4.75,2.81,2.81,0,0,0,2.07.84A2.84,2.84,0,0,0,442,233.57Z"/><path class="k" d="M455.17,224.35a6.71,6.71,0,0,1,4.9,1.93,7.16,7.16,0,0,1,0,9.84,7.15,7.15,0,0,1-9.79,0,7.07,7.07,0,0,1,0-9.81A6.7,6.7,0,0,1,455.17,224.35Zm0,10.06a2.8,2.8,0,0,0,2.06-.83,3.77,3.77,0,0,0,0-4.77,3,3,0,0,0-4.12,0,3.71,3.71,0,0,0,0,4.75A2.84,2.84,0,0,0,455.17,234.41Z"/><path class="k" d="M468.53,230.25v7.41h-3.95V224.74h3.82v1.48a3.4,3.4,0,0,1,1.52-1.34,4.9,4.9,0,0,1,2.09-.48,4.26,4.26,0,0,1,3.51,1.45,5.58,5.58,0,0,1,1.2,3.7v8.11h-4v-7.43a2.42,2.42,0,0,0-.53-1.63,2,2,0,0,0-1.58-.61,2,2,0,0,0-1.54.64A2.26,2.26,0,0,0,468.53,230.25Z"/><path class="k" d="M479,234l3.36-.6a1.85,1.85,0,0,0,.55,1.23,2,2,0,0,0,1.47.51,1.74,1.74,0,0,0,1.12-.32,1,1,0,0,0,.39-.8c0-.52-.42-.87-1.27-1.06l-1.48-.34a5.28,5.28,0,0,1-2.92-1.47,3.66,3.66,0,0,1-.93-2.51,3.92,3.92,0,0,1,1.41-3,5.2,5.2,0,0,1,3.55-1.25,5.26,5.26,0,0,1,3.79,1.21,4.2,4.2,0,0,1,1.39,2.64l-3.28.6a1.67,1.67,0,0,0-1.84-1.59,1.64,1.64,0,0,0-1,.31,1,1,0,0,0-.42.81q0,.78,1,1l1.71.34a5.36,5.36,0,0,1,3,1.48,3.7,3.7,0,0,1,1,2.58,4.12,4.12,0,0,1-1.35,3.08,5.33,5.33,0,0,1-3.8,1.28,7.07,7.07,0,0,1-2.53-.41,4.18,4.18,0,0,1-1.69-1.08,5.53,5.53,0,0,1-.89-1.31A3.94,3.94,0,0,1,479,234Z"/><path class="k" d="M500.59,233l3.3.94a5.38,5.38,0,0,1-2.05,3,6.37,6.37,0,0,1-3.9,1.15,7,7,0,0,1-4.83-11.8,6.22,6.22,0,0,1,4.54-1.9,6.35,6.35,0,0,1,4.74,1.76,6.6,6.6,0,0,1,1.73,4.87,5.7,5.7,0,0,1-.07,1.22h-9A2.35,2.35,0,0,0,496,234a3.06,3.06,0,0,0,2,.72A2.47,2.47,0,0,0,500.59,233Zm-5.46-3.35h5.17a2.31,2.31,0,0,0-.69-1.54,2.57,2.57,0,0,0-1.91-.65,2.47,2.47,0,0,0-1.82.68A2.4,2.4,0,0,0,495.13,229.66Z"/><path class="b" d="M633.88,81.25h-374a118.23,118.23,0,0,1,25.27,35.42l2.42,2.71H633.88L652,100.31Z"/><path class="k" d="M377.31,109.78h-4.13v-7.33h-7.36v7.33h-4.11V91.34h4.11v7.23h7.36V91.34h4.13Z"/><path class="k" d="M395.25,95.27h-5.69v14.51h-4.11V95.27h-5.67V91.34h15.47Z"/><path class="k" d="M412.23,95.27h-5.7v14.51h-4.1V95.27h-5.67V91.34h15.47Z"/><path class="k" d="M421.67,103.15h-2.84v6.63h-4.11V91.34h6.95A6.36,6.36,0,0,1,426.23,93a6,6,0,0,1,0,8.5A6.42,6.42,0,0,1,421.67,103.15Zm-2.81-3.54h2.39a2.77,2.77,0,0,0,1.9-.64,2.16,2.16,0,0,0,.73-1.7,2.2,2.2,0,0,0-.72-1.73,2.78,2.78,0,0,0-1.91-.63h-2.39Z"/><path class="k" d="M445.92,109.78l-3.3-6.87h-1.45v6.87h-4.11V91.34h7.3A5.88,5.88,0,0,1,448.69,93a5.58,5.58,0,0,1,1.65,4.14,5.48,5.48,0,0,1-1,3.23,5.3,5.3,0,0,1-2.68,2l3.75,7.46Zm-4.75-10.4h2.41a2.81,2.81,0,0,0,1.93-.61,2.33,2.33,0,0,0,0-3.27,2.8,2.8,0,0,0-1.93-.59h-2.41Z"/><path class="k" d="M461.29,105.12l3.3.94a5.38,5.38,0,0,1-2,3,6.38,6.38,0,0,1-3.9,1.16,6.64,6.64,0,0,1-4.77-1.88,6.57,6.57,0,0,1-2-5,6.66,6.66,0,0,1,1.91-4.92,6.26,6.26,0,0,1,4.54-1.9,6.38,6.38,0,0,1,4.75,1.76,6.65,6.65,0,0,1,1.73,4.87,5.61,5.61,0,0,1-.08,1.23h-9a2.42,2.42,0,0,0,.91,1.78,3,3,0,0,0,2,.71A2.47,2.47,0,0,0,461.29,105.12Zm-5.46-3.35H461a2.26,2.26,0,0,0-.69-1.53,2.53,2.53,0,0,0-1.91-.66,2.47,2.47,0,0,0-1.82.68A2.4,2.4,0,0,0,455.83,101.77Z"/><path class="k" d="M480.09,114.72h-3.88v-6a3.87,3.87,0,0,1-3.38,1.32,6,6,0,0,1-4.59-1.91,6.82,6.82,0,0,1-1.8-4.87,6.92,6.92,0,0,1,1.74-4.83,5.82,5.82,0,0,1,4.5-1.91,5,5,0,0,1,2.43.51,2.84,2.84,0,0,1,1.21,1.08V96.86h3.77Zm-8.8-13.78a3.13,3.13,0,0,0-.85,2.36,3.18,3.18,0,0,0,.85,2.38,2.93,2.93,0,0,0,4.13,0,3.21,3.21,0,0,0,.84-2.38,3.16,3.16,0,0,0-.84-2.36,3,3,0,0,0-4.13,0Z"/><path class="k" d="M491.89,109.78a6.39,6.39,0,0,1-.1-1.3,3,3,0,0,1-1.43,1.18,5.21,5.21,0,0,1-2,.4,4.61,4.61,0,0,1-3.6-1.44,5.12,5.12,0,0,1-1.31-3.6V96.86h3.95v7.33a2.37,2.37,0,0,0,.53,1.61,1.93,1.93,0,0,0,1.55.62,2.06,2.06,0,0,0,1.57-.61,2.2,2.2,0,0,0,.58-1.6V96.86h4v10.6a18.3,18.3,0,0,0,.13,2.32Z"/><path class="k" d="M507.46,105.12l3.31.94a5.4,5.4,0,0,1-2.06,3,6.38,6.38,0,0,1-3.9,1.16,6.66,6.66,0,0,1-4.77-1.88,6.57,6.57,0,0,1-2-5A6.66,6.66,0,0,1,500,98.36a6.24,6.24,0,0,1,4.54-1.9,6.35,6.35,0,0,1,4.74,1.76,6.65,6.65,0,0,1,1.73,4.87,5.61,5.61,0,0,1-.08,1.23h-9a2.35,2.35,0,0,0,.91,1.78,3,3,0,0,0,2,.71A2.46,2.46,0,0,0,507.46,105.12ZM502,101.77h5.18a2.36,2.36,0,0,0-.69-1.53,2.55,2.55,0,0,0-1.91-.66,2.49,2.49,0,0,0-2.58,2.19Z"/><path class="k" d="M512.48,106.11l3.36-.6a1.86,1.86,0,0,0,.56,1.24,2,2,0,0,0,1.46.5,1.68,1.68,0,0,0,1.12-.32,1,1,0,0,0,.39-.79c0-.52-.42-.88-1.27-1.07l-1.48-.34a5.09,5.09,0,0,1-2.91-1.47,3.61,3.61,0,0,1-.94-2.51,3.89,3.89,0,0,1,1.42-3,5.16,5.16,0,0,1,3.54-1.25,5.31,5.31,0,0,1,3.79,1.21,4.2,4.2,0,0,1,1.39,2.64l-3.28.6a1.8,1.8,0,0,0-.53-1.14,1.78,1.78,0,0,0-1.31-.44,1.6,1.6,0,0,0-1,.31.94.94,0,0,0-.42.8c0,.52.34.84,1,1l1.71.33a5.37,5.37,0,0,1,3,1.49,3.65,3.65,0,0,1,1,2.57,4.1,4.1,0,0,1-1.35,3.08,5.29,5.29,0,0,1-3.8,1.29,7.06,7.06,0,0,1-2.53-.42,4.18,4.18,0,0,1-1.69-1.08,5.53,5.53,0,0,1-.89-1.31A3.87,3.87,0,0,1,512.48,106.11Z"/><path class="k" d="M530.4,93.08v3.78h2.52v3.45H530.4v4.84c0,.9.47,1.35,1.43,1.35a4.54,4.54,0,0,0,1-.13v3.28a4.76,4.76,0,0,1-2.06.36,4.34,4.34,0,0,1-3.16-1.12,4,4,0,0,1-1.15-3v-5.54h-2.29V96.86h.65a1.85,1.85,0,0,0,1.49-.59,2.24,2.24,0,0,0,.51-1.52V93.08Z"/><circle class="ag" cx="279.75" cy="100.31" r="14.48"/><path class="b" d="M282.69,106.59h-3.36v-9H276V95.31a4.39,4.39,0,0,0,2.56-.77,2.88,2.88,0,0,0,1.23-1.84h2.89Z"/><circle class="ah" cx="620.07" cy="229.7" r="14.48"/><path class="x" d="M618.22,227.65l-3.17,0a3.86,3.86,0,0,1-.13-1.16,4.5,4.5,0,0,1,1.41-3.34,6,6,0,0,1,7.54,0,4.24,4.24,0,0,1,1.42,3.24,4.91,4.91,0,0,1-2.74,4.33l-2.64,1.56a2.47,2.47,0,0,0-.94.94h6.42V236H614.84a8,8,0,0,1,.74-3.57,6.13,6.13,0,0,1,2.53-2.55l2.27-1.33a3.7,3.7,0,0,0,1.18-1,1.94,1.94,0,0,0,.34-1.16,1.58,1.58,0,0,0-.48-1.18,1.91,1.91,0,0,0-1.38-.47,1.78,1.78,0,0,0-1.44.58,2.12,2.12,0,0,0-.51,1.47A2.71,2.71,0,0,0,618.22,227.65Z"/><path class="ai" d="M350,145.66c-3.12,0-5.11-2.3-5.11-5.91s2-5.9,5.11-5.9a4.43,4.43,0,0,1,4.71,3.63h-1.43a3.15,3.15,0,0,0-3.28-2.33c-2.24,0-3.67,1.8-3.67,4.6s1.41,4.61,3.67,4.61a3.13,3.13,0,0,0,3.39-3.19v-.28h-3.18v-1.23h4.57V141A4.44,4.44,0,0,1,350,145.66Z"/><path class="ai" d="M364.21,145.39h-7V134.12h7v1.26h-5.57V139h5.28v1.25h-5.28v3.88h5.57Z"/><path class="ai" d="M369.69,145.39v-10h-3.63v-1.26h8.67v1.26H371.1v10Z"/><path class="ai" d="M383.51,134.12l-.9,4.44h-1.49l1.38-4.44Zm3,0-.74,4.44h-1.49l1.22-4.44Z"/><path class="ai" d="M389.24,133.63h1.34v4.67h.13a2.62,2.62,0,0,1,2.59-1.48,2.78,2.78,0,0,1,2.91,3.12v5.45h-1.35v-5.12c0-1.5-.67-2.24-1.94-2.24a2.18,2.18,0,0,0-2.34,2.38v5h-1.34Z"/><path class="ai" d="M400.56,134.79V137h1.88v1.12h-1.88v4.77c0,1,.38,1.41,1.25,1.41a4.43,4.43,0,0,0,.63,0v1.14a5.27,5.27,0,0,1-.79.07c-1.73,0-2.43-.64-2.43-2.25v-5.11h-1.36V137h1.36v-2.18Z"/><path class="ai" d="M406.38,134.79V137h1.87v1.12h-1.87v4.77c0,1,.37,1.41,1.25,1.41a4.36,4.36,0,0,0,.62,0v1.14a5.16,5.16,0,0,1-.79.07c-1.73,0-2.43-.64-2.43-2.25v-5.11h-1.36V137H405v-2.18Z"/><path class="ai" d="M417.92,141.18c0,2.63-1.39,4.36-3.53,4.36a2.83,2.83,0,0,1-2.64-1.41h-.12v4.07h-1.35V137h1.28v1.41h.13a3,3,0,0,1,2.7-1.56C416.53,136.82,417.92,138.53,417.92,141.18Zm-1.39,0c0-2-.92-3.15-2.46-3.15s-2.48,1.21-2.48,3.15,1,3.15,2.47,3.15S416.53,143.15,416.53,141.18Z"/><path class="ai" d="M420.13,138.41a1,1,0,1,1,1,1A1,1,0,0,1,420.13,138.41Zm0,6a1,1,0,1,1,1,1A1,1,0,0,1,420.13,144.45Z"/><path class="ai" d="M423.58,147.79l4.06-14.16h1.14l-4.06,14.16Z"/><path class="ai" d="M428.91,147.79,433,133.63h1.14l-4.06,14.16Z"/><path class="ai" d="M435.52,133.63h1.34v11.76h-1.34Z"/><path class="ai" d="M446.39,143.21a3.36,3.36,0,0,1-3.54,2.33c-2.34,0-3.8-1.69-3.8-4.35s1.48-4.37,3.8-4.37,3.65,1.62,3.65,4.24v.51h-6.05v.06c.07,1.67,1,2.72,2.43,2.72a2.19,2.19,0,0,0,2.17-1.14Zm-5.94-2.72h4.64a2.26,2.26,0,0,0-2.26-2.48A2.4,2.4,0,0,0,440.45,140.49Z"/><path class="ai" d="M456.85,145.39h-1.37l-1.88-6.51h-.13l-1.87,6.51h-1.36L447.88,137h1.36l1.65,6.73H451L452.9,137h1.29l1.88,6.73h.13l1.65-6.73h1.36Z"/><path class="ai" d="M460.27,143c0-1.51,1.11-2.37,3.07-2.49l2.43-.15v-.76c0-1-.65-1.61-1.91-1.61-1,0-1.71.38-1.9,1H460.6c.18-1.35,1.51-2.24,3.31-2.24,2,0,3.2,1.06,3.2,2.81v5.76h-1.28v-1.24h-.12a2.91,2.91,0,0,1-2.6,1.39A2.56,2.56,0,0,1,460.27,143Zm5.5-.78v-.77l-2.27.15c-1.28.08-1.84.53-1.84,1.37s.73,1.36,1.7,1.36A2.22,2.22,0,0,0,465.77,142.25Z"/><path class="ai" d="M469.53,146.32H471c.14.69.89,1.13,2.11,1.13,1.5,0,2.4-.74,2.4-2v-1.66h-.12a2.93,2.93,0,0,1-2.64,1.46c-2.18,0-3.54-1.69-3.54-4.21s1.37-4.24,3.54-4.24a3,3,0,0,1,2.7,1.49h.12V137h1.29v8.57c0,1.88-1.46,3.09-3.75,3.09C471,148.63,469.74,147.71,469.53,146.32Zm6-5.26c0-1.84-.94-3-2.5-3s-2.43,1.19-2.43,3,.87,3,2.43,3S475.5,142.89,475.5,141.06Z"/><path class="ai" d="M478.92,141.18c0-2.71,1.49-4.36,3.89-4.36s3.88,1.65,3.88,4.36-1.48,4.36-3.88,4.36S478.92,143.88,478.92,141.18Zm6.38,0c0-2-.9-3.15-2.49-3.15s-2.49,1.15-2.49,3.15.89,3.15,2.49,3.15S485.3,143.17,485.3,141.18Z"/><path class="ai" d="M488.8,137h1.28v1.33h.13a2.53,2.53,0,0,1,2.53-1.48c1.89,0,2.94,1.12,2.94,3.12v5.45h-1.34v-5.12c0-1.52-.64-2.24-2-2.24a2.14,2.14,0,0,0-2.21,2.38v5H488.8Z"/><path class="ai" d="M498.23,144.45a1,1,0,1,1,1,1A1,1,0,0,1,498.23,144.45Z"/><path class="ai" d="M508.18,139.55A2.09,2.09,0,0,0,506,138c-1.51,0-2.47,1.21-2.47,3.12s1,3.18,2.47,3.18a2,2,0,0,0,2.17-1.48h1.36a3.25,3.25,0,0,1-3.52,2.69c-2.36,0-3.87-1.71-3.87-4.39s1.5-4.33,3.86-4.33a3.3,3.3,0,0,1,3.53,2.73Z"/><path class="ai" d="M511.1,141.18c0-2.71,1.49-4.36,3.89-4.36s3.88,1.65,3.88,4.36-1.48,4.36-3.88,4.36S511.1,143.88,511.1,141.18Zm6.38,0c0-2-.9-3.15-2.49-3.15s-2.49,1.15-2.49,3.15.89,3.15,2.49,3.15S517.48,143.17,517.48,141.18Z"/><path class="ai" d="M521,137h1.28v1.33h.13a2.37,2.37,0,0,1,2.35-1.48,2.44,2.44,0,0,1,2.33,1.48h.12a2.82,2.82,0,0,1,2.58-1.48,2.46,2.46,0,0,1,2.68,2.75v5.82H531.1v-5.51c0-1.24-.58-1.85-1.77-1.85a1.9,1.9,0,0,0-2,1.95v5.41H526v-5.72a1.59,1.59,0,0,0-1.75-1.64,2,2,0,0,0-2,2.14v5.22H521Z"/><path class="ai" d="M535,138.56l.74-4.44h1.49L536,138.56Zm3,0,.9-4.44h1.49L539,138.56Z"/><path class="ai" d="M415.48,272.4v-5.14h-6.19v5.14h-1.41V261.12h1.41V266h6.19v-4.88h1.4V272.4Z"/><path class="ai" d="M422.69,272.4v-10h-3.63v-1.27h8.67v1.27H424.1v10Z"/><path class="ai" d="M439.7,272.4v-8.61h-.1l-3.55,8.61h-1.19l-3.55-8.61h-.1v8.61H429.9V261.12h1.63l3.86,9.41h.13l3.86-9.41H441V272.4Z"/><path class="ai" d="M450.73,272.4h-6.85V261.12h1.41v10h5.44Z"/><path class="ai" d="M457.88,265.1h-1.4V264h1.4V263a2.18,2.18,0,0,1,2.44-2.49,5.14,5.14,0,0,1,.91.08v1.09a3.77,3.77,0,0,0-.63,0c-1,0-1.38.47-1.38,1.4V264h1.93v1.13h-1.93v7.3h-1.34Z"/><path class="ai" d="M462.87,261.41a.94.94,0,1,1,.94.94A.95.95,0,0,1,462.87,261.41Zm.27,2.56h1.34v8.43h-1.34Z"/><path class="ai" d="M467.12,260.63h1.34V272.4h-1.34Z"/><path class="ai" d="M478,270.22a3.38,3.38,0,0,1-3.55,2.32c-2.34,0-3.8-1.68-3.8-4.35s1.49-4.36,3.8-4.36,3.65,1.61,3.65,4.23v.52h-6.05v.06c.07,1.66,1,2.72,2.43,2.72a2.18,2.18,0,0,0,2.17-1.14Zm-5.95-2.73h4.64a2.27,2.27,0,0,0-2.26-2.48A2.4,2.4,0,0,0,472.05,267.49Z"/></svg>