<svg xmlns="http://www.w3.org/2000/svg" viewBox="0 0 900 430"><defs><style>.a{isolation:isolate;}.b{fill:#327984;}.c{fill:#4cabbd;}.d{fill:#a9e7f7;}.e{fill:#fff;}.f{fill:#72cee7;}.g{fill:#276172;}.h{fill:#3a89a4;}.i{fill:#2b6a7e;}.j{fill:#1d4b59;}.k{mix-blend-mode:multiply;}</style></defs><title>post</title><g class="a"><rect class="b" x="62.07" y="282.73" width="775.87" height="146.83"/><rect class="c" x="62.07" y="135.9" width="775.87" height="146.83"/><rect class="d" x="62.07" y="0.6" width="775.87" height="135.04"/><polygon class="e" points="393.07 135.9 387.78 114.55 288.9 22.66 261.22 45.45 203.52 107.07 150.37 135.65 393.07 135.9"/><polygon class="f" points="288.9 22.66 387.78 114.55 393.07 135.9 320.14 135.9 291.68 108.73 286.21 102.81 319.82 102.81 288.9 22.66"/><polygon class="g" points="380.26 282.73 335.33 384.11 260.44 423.35 180.35 327.55 169.32 282.73 380.26 282.73"/><polyline class="h" points="169.32 282.73 144.95 183.65 150.37 135.65 393.07 135.9 401.6 234.57 380.26 282.73"/><polygon class="i" points="297.8 282.73 305.29 215.11 322.32 165.09 320.14 135.9 393.07 135.9 401.6 234.57 380.26 282.73 297.8 282.73"/><polygon class="j" points="380.26 282.73 335.33 384.11 260.44 423.35 271.69 396.31 287.31 377.32 297.8 282.73 380.26 282.73"/><path class="b" d="M519.3,68.94H521v6h.17a3.37,3.37,0,0,1,3.35-1.9c2.3,0,3.76,1.47,3.76,4v7h-1.74V77.53c0-1.93-.87-2.89-2.52-2.89a2.81,2.81,0,0,0-3,3.07v6.45H519.3Z"/><path class="b" d="M533.94,70.45v2.82h2.43v1.45h-2.43v6.16c0,1.29.49,1.83,1.62,1.83a7.57,7.57,0,0,0,.81,0v1.47a6,6,0,0,1-1,.1c-2.24,0-3.14-.83-3.14-2.91V74.72h-1.76V73.27h1.76V70.45Z"/><path class="b" d="M541.46,70.45v2.82h2.42v1.45h-2.42v6.16c0,1.29.49,1.83,1.62,1.83a7.26,7.26,0,0,0,.8,0v1.47a5.78,5.78,0,0,1-1,.1c-2.24,0-3.14-.83-3.14-2.91V74.72H538V73.27h1.75V70.45Z"/><path class="b" d="M556.39,78.71c0,3.41-1.81,5.64-4.57,5.64a3.67,3.67,0,0,1-3.41-1.83h-.16v5.27h-1.74V73.27h1.66v1.82h.16a3.92,3.92,0,0,1,3.49-2C554.59,73.08,556.39,75.29,556.39,78.71Zm-1.8,0c0-2.54-1.19-4.07-3.18-4.07s-3.21,1.57-3.21,4.07,1.24,4.07,3.2,4.07S554.59,81.26,554.59,78.71Z"/><path class="b" d="M557.56,87.26l5.26-18.32h1.47L559,87.26Z"/><path class="b" d="M564.45,87.26l5.26-18.32h1.47l-5.25,18.32Z"/><path class="b" d="M572.9,73.27h1.66V75h.16a3.07,3.07,0,0,1,3-1.9,3.15,3.15,0,0,1,3,1.9h.16a3.65,3.65,0,0,1,3.33-1.9c2.23,0,3.47,1.27,3.47,3.55v7.53H586V77c0-1.61-.76-2.4-2.29-2.4a2.45,2.45,0,0,0-2.53,2.52v7h-1.74v-7.4a2.06,2.06,0,0,0-2.27-2.12,2.63,2.63,0,0,0-2.52,2.77v6.75H572.9Z"/><path class="b" d="M590.65,88V86.55a4.19,4.19,0,0,0,.73,0c1,0,1.54-.47,2-1.79l.2-.64-4-10.9h1.88l3,9h.16l3-9h1.85l-4.26,11.55c-.92,2.53-1.79,3.28-3.72,3.28A5.12,5.12,0,0,1,590.65,88Z"/><path class="b" d="M600.68,81.11c0-2,1.44-3.07,4-3.23l3.14-.19v-1c0-1.34-.84-2.08-2.46-2.08-1.31,0-2.21.5-2.46,1.35h-1.75c.23-1.74,2-2.89,4.27-2.89,2.65,0,4.14,1.36,4.14,3.62v7.46h-1.66V82.55h-.16a3.77,3.77,0,0,1-3.35,1.8C602.25,84.35,600.68,83.1,600.68,81.11Zm7.11-1v-1l-2.93.19c-1.65.11-2.38.68-2.38,1.78s.94,1.75,2.2,1.75A2.86,2.86,0,0,0,607.79,80.1Z"/><path class="b" d="M622.62,78.71c0,3.41-1.81,5.64-4.57,5.64a3.67,3.67,0,0,1-3.41-1.83h-.16v5.27h-1.74V73.27h1.66v1.82h.16a3.92,3.92,0,0,1,3.49-2C620.83,73.08,622.62,75.29,622.62,78.71Zm-1.79,0c0-2.54-1.2-4.07-3.19-4.07s-3.21,1.57-3.21,4.07,1.24,4.07,3.2,4.07S620.83,81.26,620.83,78.71Z"/><path class="b" d="M635.23,78.71c0,3.41-1.81,5.64-4.58,5.64a3.66,3.66,0,0,1-3.4-1.83h-.16v5.27h-1.74V73.27H627v1.82h.16a3.91,3.91,0,0,1,3.48-2C633.43,73.08,635.23,75.29,635.23,78.71Zm-1.8,0c0-2.54-1.19-4.07-3.18-4.07S627,76.21,627,78.71s1.24,4.07,3.2,4.07S633.43,81.26,633.43,78.71Z"/><path class="b" d="M637.88,82.94a1.31,1.31,0,1,1,1.31,1.32A1.31,1.31,0,0,1,637.88,82.94Z"/><path class="b" d="M650.75,76.6a2.7,2.7,0,0,0-2.81-2c-2,0-3.19,1.57-3.19,4s1.25,4.11,3.19,4.11a2.61,2.61,0,0,0,2.81-1.91h1.76c-.32,2-1.94,3.48-4.56,3.48-3.05,0-5-2.21-5-5.68s1.94-5.59,5-5.59a4.28,4.28,0,0,1,4.57,3.52Z"/><path class="b" d="M654.53,78.71c0-3.5,1.92-5.63,5-5.63s5,2.13,5,5.63-1.92,5.64-5,5.64S654.53,82.21,654.53,78.71Zm8.24,0c0-2.58-1.16-4.07-3.22-4.07s-3.22,1.49-3.22,4.07,1.16,4.07,3.22,4.07S662.77,81.29,662.77,78.71Z"/><path class="b" d="M667.3,73.27H669V75h.17a3.07,3.07,0,0,1,3-1.9,3.15,3.15,0,0,1,3,1.9h.16a3.63,3.63,0,0,1,3.33-1.9c2.22,0,3.46,1.27,3.46,3.55v7.53h-1.73V77c0-1.61-.76-2.4-2.3-2.4a2.45,2.45,0,0,0-2.52,2.52v7h-1.74v-7.4a2.06,2.06,0,0,0-2.27-2.12A2.63,2.63,0,0,0,669,77.41v6.75H667.3Z"/><path class="e" d="M518.55,347.19c0-1.95,1.43-3.07,4-3.22l3.14-.19v-1c0-1.35-.84-2.08-2.46-2.08-1.31,0-2.22.49-2.46,1.35H519c.23-1.75,1.95-2.9,4.28-2.9,2.65,0,4.14,1.36,4.14,3.63v7.45h-1.66v-1.61h-.16a3.75,3.75,0,0,1-3.35,1.8C520.11,350.43,518.55,349.18,518.55,347.19Zm7.11-1v-1l-2.93.19c-1.66.11-2.38.69-2.38,1.78s.94,1.76,2.2,1.76A2.86,2.86,0,0,0,525.66,346.18Z"/><path class="e" d="M539.42,350.24h-1.66v-1.71h-.16a3.38,3.38,0,0,1-3.37,1.9c-2.45,0-3.72-1.45-3.72-4v-7h1.74V346c0,2,.72,2.87,2.46,2.87a2.74,2.74,0,0,0,3-3.05v-6.45h1.74Z"/><path class="e" d="M545.16,336.53v2.82h2.42v1.46h-2.42V347c0,1.28.48,1.83,1.61,1.83a7.32,7.32,0,0,0,.81,0v1.46a5.78,5.78,0,0,1-1,.1c-2.24,0-3.14-.83-3.14-2.91v-6.6h-1.76v-1.46h1.76v-2.82Z"/><path class="e" d="M550.31,335h1.74v6h.16a3.39,3.39,0,0,1,3.35-1.91c2.31,0,3.76,1.47,3.76,4v7.05h-1.74v-6.62c0-1.93-.87-2.89-2.51-2.89a2.81,2.81,0,0,0-3,3.07v6.44h-1.74Z"/><path class="e" d="M562,344.8c0-3.51,1.92-5.64,5-5.64s5,2.13,5,5.64-1.92,5.63-5,5.63S562,348.29,562,344.8Zm8.24,0c0-2.59-1.16-4.07-3.22-4.07s-3.22,1.48-3.22,4.07,1.16,4.07,3.22,4.07S570.19,347.37,570.19,344.8Z"/><path class="e" d="M574.72,339.35h1.66V341h.16a3,3,0,0,1,3-1.81,7.71,7.71,0,0,1,.87,0V341a7.2,7.2,0,0,0-1.12-.1,2.66,2.66,0,0,0-2.85,2.64v6.75h-1.74Z"/><path class="e" d="M582.72,341.21a1.32,1.32,0,1,1,1.31,1.31A1.31,1.31,0,0,1,582.72,341.21Zm0,7.82a1.32,1.32,0,1,1,1.31,1.31A1.31,1.31,0,0,1,582.72,349Z"/><path class="e" d="M597.49,335.67l-1.12,5.44h-2l1.83-5.44Z"/><path class="e" d="M600.8,350.24V335.67h5.58c2.67,0,4.31,1.4,4.31,3.63a3.21,3.21,0,0,1-2.51,3.14v.16a3.46,3.46,0,0,1,3.25,3.55c0,2.57-1.84,4.09-4.94,4.09Zm1.82-8.29h2.91c2.2,0,3.32-.79,3.32-2.33s-1.05-2.35-2.86-2.35h-3.37Zm3.6,6.68c2.19,0,3.34-.88,3.34-2.57s-1.19-2.55-3.52-2.55h-3.42v5.12Z"/><path class="e" d="M613.63,344.8c0-3.51,1.92-5.64,5-5.64s5,2.13,5,5.64-1.92,5.63-5,5.63S613.63,348.29,613.63,344.8Zm8.25,0c0-2.59-1.17-4.07-3.23-4.07s-3.22,1.48-3.22,4.07,1.16,4.07,3.22,4.07S621.88,347.37,621.88,344.8Z"/><path class="e" d="M626.4,339.35h1.66V341h.16a3,3,0,0,1,3-1.81,7.57,7.57,0,0,1,.87,0V341a7.05,7.05,0,0,0-1.11-.1,2.66,2.66,0,0,0-2.86,2.64v6.75H626.4Z"/><path class="e" d="M634,336a1.21,1.21,0,1,1,1.21,1.21A1.21,1.21,0,0,1,634,336Zm.34,3.31h1.74v10.89h-1.74Z"/><path class="e" d="M643.18,339.16c2.28,0,3.87,1.13,4.1,2.92h-1.71a2.23,2.23,0,0,0-2.4-1.45c-1.29,0-2.3.66-2.3,1.63,0,.75.6,1.21,1.89,1.53l1.67.4c2.06.5,3,1.38,3,2.95,0,1.95-1.88,3.29-4.36,3.29s-4.09-1.16-4.28-3h1.79a2.39,2.39,0,0,0,2.55,1.51c1.47,0,2.52-.7,2.52-1.7,0-.75-.57-1.25-1.73-1.53l-1.87-.46c-2-.49-3-1.37-3-2.95C639.12,340.52,640.87,339.16,643.18,339.16Z"/><path class="e" d="M650,341.11l1.12-5.44h2l-1.83,5.44Z"/><path class="e" d="M526.45,370.27a2.7,2.7,0,0,0-2.81-2c-2,0-3.19,1.57-3.19,4s1.25,4.11,3.19,4.11a2.62,2.62,0,0,0,2.81-1.91h1.76c-.32,2-1.94,3.48-4.56,3.48-3,0-5-2.21-5-5.68s1.94-5.59,5-5.59a4.28,4.28,0,0,1,4.57,3.52Z"/><path class="e" d="M530.23,372.38c0-3.5,1.92-5.63,5-5.63s5,2.13,5,5.63-1.92,5.64-5,5.64S530.23,375.88,530.23,372.38Zm8.24,0c0-2.58-1.16-4.07-3.22-4.07S532,369.8,532,372.38s1.17,4.07,3.23,4.07S538.47,375,538.47,372.38Z"/><path class="e" d="M543,366.94h1.65v1.72h.17a3.25,3.25,0,0,1,3.27-1.91c2.44,0,3.81,1.44,3.81,4v7.05h-1.74V371.2c0-2-.83-2.89-2.57-2.89a2.76,2.76,0,0,0-2.86,3.07v6.45H543Z"/><path class="e" d="M557.53,364.12v2.82H560v1.45h-2.43v6.16c0,1.29.49,1.83,1.62,1.83a7.57,7.57,0,0,0,.81,0v1.47a6,6,0,0,1-1,.1c-2.24,0-3.14-.83-3.14-2.91v-6.61H554v-1.45h1.76v-2.82Z"/><path class="e" d="M571.38,375c-.5,1.86-2.2,3-4.58,3-3,0-4.91-2.18-4.91-5.63s1.92-5.64,4.91-5.64,4.72,2.09,4.72,5.47v.67H563.7V373c.09,2.15,1.29,3.51,3.14,3.51a2.83,2.83,0,0,0,2.81-1.47Zm-7.68-3.53h6c0-1.93-1.2-3.2-2.92-3.2A3.1,3.1,0,0,0,563.7,371.48Z"/><path class="e" d="M574.25,366.94h1.66v1.72h.16a3.27,3.27,0,0,1,3.27-1.91c2.45,0,3.81,1.44,3.81,4v7.05h-1.73V371.2c0-2-.83-2.89-2.57-2.89a2.76,2.76,0,0,0-2.86,3.07v6.45h-1.74Z"/><path class="e" d="M588.79,364.12v2.82h2.42v1.45h-2.42v6.16c0,1.29.49,1.83,1.62,1.83a7.26,7.26,0,0,0,.8,0v1.47a5.78,5.78,0,0,1-1,.1c-2.24,0-3.14-.83-3.14-2.91v-6.61H585.3v-1.45h1.75v-2.82Z"/><path class="e" d="M594,368.8a1.32,1.32,0,1,1,1.32,1.31A1.33,1.33,0,0,1,594,368.8Zm0,7.82a1.32,1.32,0,1,1,1.32,1.31A1.33,1.33,0,0,1,594,376.62Z"/><path class="e" d="M608.73,363.25l-1.12,5.45h-2l1.83-5.45Z"/><path class="e" d="M621.86,377.83v-6.64h-8v6.64h-1.81V363.25h1.81v6.3h8v-6.3h1.82v14.58Z"/><path class="e" d="M636.13,375c-.51,1.86-2.2,3-4.59,3-3,0-4.91-2.18-4.91-5.63s1.92-5.64,4.91-5.64,4.73,2.09,4.73,5.47v.67h-7.83V373c.09,2.15,1.3,3.51,3.14,3.51a2.81,2.81,0,0,0,2.81-1.47Zm-7.69-3.53h6c0-1.93-1.19-3.2-2.92-3.2A3.1,3.1,0,0,0,628.44,371.48Z"/><path class="e" d="M639.1,362.61h1.74v15.22H639.1Z"/><path class="e" d="M644.31,362.61h1.74v15.22h-1.74Z"/><path class="e" d="M648.88,372.38c0-3.5,1.92-5.63,5-5.63s5,2.13,5,5.63S657,378,653.9,378,648.88,375.88,648.88,372.38Zm8.24,0c0-2.58-1.16-4.07-3.22-4.07s-3.22,1.49-3.22,4.07,1.16,4.07,3.22,4.07S657.12,375,657.12,372.38Z"/><path class="e" d="M661.47,368.7l1.12-5.45h2l-1.83,5.45Z"/><path class="e" d="M521.21,183.69a4,4,0,0,0,7.95,0v-9.45H531v9.57c0,3.11-2.17,5.35-5.78,5.35s-5.79-2.24-5.79-5.35v-9.57h1.81Z"/><path class="e" d="M538.26,177.74c2.28,0,3.87,1.13,4.1,2.92h-1.72a2.22,2.22,0,0,0-2.39-1.45c-1.29,0-2.3.66-2.3,1.63,0,.75.6,1.21,1.88,1.52l1.68.41c2,.49,3,1.38,3,2.95,0,1.95-1.89,3.29-4.36,3.29s-4.09-1.16-4.29-3h1.79a2.41,2.41,0,0,0,2.56,1.51c1.46,0,2.51-.7,2.51-1.7,0-.75-.56-1.25-1.72-1.54l-1.87-.45c-2-.5-3-1.37-3-3C534.2,179.1,536,177.74,538.26,177.74Z"/><path class="e" d="M554.23,186c-.51,1.86-2.2,3-4.59,3-3,0-4.91-2.18-4.91-5.63s1.92-5.64,4.91-5.64,4.73,2.09,4.73,5.47v.67h-7.83V184c.09,2.15,1.29,3.52,3.14,3.52a2.82,2.82,0,0,0,2.81-1.48Zm-7.69-3.53h6c0-1.92-1.19-3.2-2.92-3.2A3.1,3.1,0,0,0,546.54,182.47Z"/><path class="e" d="M557.1,177.93h1.66v1.62h.16a3,3,0,0,1,3-1.81,7.71,7.71,0,0,1,.87,0v1.74a6.86,6.86,0,0,0-1.11-.11,2.67,2.67,0,0,0-2.86,2.65v6.75H557.1Z"/><path class="e" d="M564.1,183.78v-1.65h6.63v1.65Z"/><path class="e" d="M581.86,184.65h-5.8l-1.46,4.17h-1.91l5.37-14.58h1.8l5.37,14.58h-1.91Zm-5.26-1.55h4.72L579,176.6h-.16Z"/><path class="e" d="M586.88,190h1.84c.19.89,1.16,1.47,2.73,1.47,1.95,0,3.11-1,3.11-2.57v-2.14h-.16a3.79,3.79,0,0,1-3.42,1.88c-2.81,0-4.56-2.18-4.56-5.45s1.76-5.47,4.56-5.47a3.91,3.91,0,0,1,3.5,1.92h.16v-1.73h1.66V189c0,2.44-1.88,4-4.85,4C588.82,193,587.14,191.82,586.88,190Zm7.72-6.81c0-2.37-1.22-3.91-3.23-3.91s-3.16,1.54-3.16,3.91,1.14,3.91,3.16,3.91S594.6,185.59,594.6,183.21Z"/><path class="e" d="M608.52,186c-.51,1.86-2.2,3-4.59,3-3,0-4.91-2.18-4.91-5.63s1.92-5.64,4.91-5.64,4.73,2.09,4.73,5.47v.67h-7.83V184c.09,2.15,1.3,3.52,3.14,3.52a2.82,2.82,0,0,0,2.81-1.48Zm-7.69-3.53h6c0-1.92-1.19-3.2-2.92-3.2A3.11,3.11,0,0,0,600.83,182.47Z"/><path class="e" d="M611.39,177.93h1.66v1.72h.16a3.26,3.26,0,0,1,3.27-1.91c2.44,0,3.81,1.44,3.81,4v7h-1.74v-6.63c0-2-.83-2.89-2.56-2.89a2.76,2.76,0,0,0-2.86,3.07v6.45h-1.74Z"/><path class="e" d="M625.93,175.11v2.82h2.42v1.45h-2.42v6.17c0,1.28.48,1.83,1.61,1.83a7.34,7.34,0,0,0,.81,0v1.47a5.87,5.87,0,0,1-1,.1c-2.24,0-3.14-.83-3.14-2.91v-6.61h-1.76v-1.45h1.76v-2.82Z"/><path class="e" d="M518.85,209.12c0-4.7,2.47-7.63,6.43-7.63a5.67,5.67,0,0,1,5.89,4.73h-1.84a4,4,0,0,0-4.05-3.06c-2.8,0-4.56,2.3-4.56,6s1.76,5.95,4.57,5.95a3.9,3.9,0,0,0,4-2.73h1.84c-.48,2.68-2.78,4.41-5.88,4.41C521.33,216.75,518.85,213.82,518.85,209.12Z"/><path class="e" d="M533.46,211c0-3.5,1.92-5.64,5-5.64s5,2.14,5,5.64-1.92,5.64-5,5.64S533.46,214.46,533.46,211Zm8.24,0c0-2.58-1.16-4.07-3.22-4.07s-3.22,1.49-3.22,4.07,1.16,4.07,3.22,4.07S541.7,213.54,541.7,211Z"/><path class="e" d="M545.68,211c0-3.5,1.92-5.64,5-5.64s5,2.14,5,5.64-1.92,5.64-5,5.64S545.68,214.46,545.68,211Zm8.25,0c0-2.58-1.17-4.07-3.23-4.07s-3.22,1.49-3.22,4.07,1.16,4.07,3.22,4.07S553.93,213.54,553.93,211Z"/><path class="e" d="M565.18,205.52h2.13l-4.69,4.66,5,6.23h-2.21l-4.08-5.11-1,1v4.14h-1.74V201.19h1.74v9.08h.16Z"/><path class="e" d="M569.38,202.2a1.22,1.22,0,1,1,1.22,1.22A1.22,1.22,0,0,1,569.38,202.2Zm.35,3.32h1.73v10.89h-1.73Z"/><path class="e" d="M583.73,213.59c-.51,1.86-2.2,3-4.59,3-3,0-4.91-2.18-4.91-5.63s1.92-5.65,4.91-5.65,4.73,2.1,4.73,5.48v.67H576v.08c.09,2.15,1.29,3.51,3.14,3.51a2.81,2.81,0,0,0,2.81-1.47ZM576,210.06h6c0-1.93-1.19-3.2-2.92-3.2A3.1,3.1,0,0,0,576,210.06Z"/><path class="e" d="M590.41,205.32c2.28,0,3.87,1.14,4.1,2.92h-1.72a2.22,2.22,0,0,0-2.39-1.44c-1.3,0-2.31.66-2.31,1.63,0,.74.61,1.21,1.89,1.52l1.68.4c2.05.5,3,1.39,3,3,0,1.95-1.89,3.3-4.36,3.3s-4.09-1.16-4.29-3h1.79a2.39,2.39,0,0,0,2.56,1.5c1.46,0,2.51-.69,2.51-1.69,0-.75-.56-1.26-1.73-1.54l-1.86-.45c-2-.5-3-1.38-3-2.95C586.35,206.69,588.09,205.32,590.41,205.32Z"/><path class="e" d="M527.43,239.82h-5.8L520.17,244h-1.91l5.37-14.57h1.8L530.8,244h-1.91Zm-5.26-1.55h4.72l-2.28-6.5h-.16Z"/><path class="e" d="M539.78,236.44a2.7,2.7,0,0,0-2.81-2c-2,0-3.19,1.56-3.19,4s1.26,4.11,3.19,4.11a2.62,2.62,0,0,0,2.81-1.91h1.76c-.31,2-1.94,3.47-4.56,3.47-3.05,0-5-2.21-5-5.67s1.94-5.6,5-5.6a4.28,4.28,0,0,1,4.57,3.53Z"/><path class="e" d="M551.36,236.44a2.7,2.7,0,0,0-2.81-2c-2,0-3.19,1.56-3.19,4s1.25,4.11,3.19,4.11a2.62,2.62,0,0,0,2.81-1.91h1.76c-.32,2-1.94,3.47-4.56,3.47-3,0-5-2.21-5-5.67s1.94-5.6,5-5.6a4.28,4.28,0,0,1,4.57,3.53Z"/><path class="e" d="M564.63,241.17c-.5,1.86-2.2,3-4.58,3-3,0-4.91-2.18-4.91-5.62s1.92-5.65,4.91-5.65,4.73,2.09,4.73,5.47v.67H557v.08c.09,2.16,1.29,3.52,3.14,3.52a2.84,2.84,0,0,0,2.81-1.48ZM557,237.65h6c0-1.93-1.19-3.2-2.92-3.2A3.1,3.1,0,0,0,557,237.65Z"/><path class="e" d="M577.38,238.55c0,3.4-1.8,5.63-4.57,5.63a3.66,3.66,0,0,1-3.41-1.82h-.16v5.27H567.5V233.1h1.66v1.82h.16a3.94,3.94,0,0,1,3.49-2C575.59,232.91,577.38,235.12,577.38,238.55Zm-1.79,0c0-2.55-1.2-4.07-3.19-4.07s-3.21,1.56-3.21,4.07,1.24,4.07,3.2,4.07S575.59,241.09,575.59,238.55Z"/><path class="e" d="M582.58,230.28v2.82H585v1.46h-2.42v6.16c0,1.28.48,1.83,1.61,1.83a7.32,7.32,0,0,0,.81,0V244a5.78,5.78,0,0,1-1,.1c-2.24,0-3.14-.83-3.14-2.91v-6.6h-1.76V233.1h1.76v-2.82Z"/><path class="e" d="M587.15,239V237.3h6.63V239Z"/><path class="e" d="M606.05,244h-8.84V229.42H599v12.94h7Z"/><path class="e" d="M608.09,240.94c0-1.95,1.43-3.07,4-3.22l3.14-.19v-1c0-1.35-.84-2.08-2.47-2.08-1.3,0-2.21.49-2.45,1.35h-1.76c.23-1.75,2-2.9,4.27-2.9,2.66,0,4.15,1.36,4.15,3.63V244h-1.66v-1.6h-.16a3.77,3.77,0,0,1-3.36,1.79C609.65,244.18,608.09,242.93,608.09,240.94Zm7.11-1v-1l-2.93.19c-1.66.11-2.39.69-2.39,1.78s.94,1.76,2.21,1.76A2.86,2.86,0,0,0,615.2,239.93Z"/><path class="e" d="M620.15,233.1h1.65v1.72H622a3.26,3.26,0,0,1,3.27-1.91c2.44,0,3.81,1.45,3.81,4V244h-1.74v-6.62c0-2-.83-2.89-2.57-2.89a2.76,2.76,0,0,0-2.85,3.07V244h-1.74Z"/><path class="e" d="M632.14,245.19H634c.19.89,1.16,1.47,2.73,1.47,1.95,0,3.11-1,3.11-2.57V242h-.16a3.79,3.79,0,0,1-3.42,1.88c-2.82,0-4.56-2.18-4.56-5.45s1.76-5.47,4.56-5.47a3.91,3.91,0,0,1,3.5,1.92h.16V233.1h1.65v11.08c0,2.44-1.87,4-4.84,4C634.08,248.17,632.4,247,632.14,245.19Zm7.72-6.81c0-2.37-1.22-3.9-3.23-3.9s-3.16,1.53-3.16,3.9,1.14,3.91,3.16,3.91S639.86,240.76,639.86,238.38Z"/><path class="e" d="M653.64,244H652v-1.7h-.16a3.4,3.4,0,0,1-3.37,1.89c-2.45,0-3.72-1.45-3.72-4V233.1h1.73v6.63c0,2,.73,2.87,2.47,2.87a2.74,2.74,0,0,0,3-3V233.1h1.74Z"/><path class="e" d="M656.27,240.94c0-1.95,1.43-3.07,4-3.22l3.14-.19v-1c0-1.35-.84-2.08-2.47-2.08-1.3,0-2.21.49-2.45,1.35H656.7c.23-1.75,1.95-2.9,4.27-2.9,2.66,0,4.14,1.36,4.14,3.63V244h-1.65v-1.6h-.16a3.77,3.77,0,0,1-3.36,1.79C657.83,244.18,656.27,242.93,656.27,240.94Zm7.11-1v-1l-2.93.19c-1.66.11-2.39.69-2.39,1.78s.94,1.76,2.21,1.76A2.87,2.87,0,0,0,663.38,239.93Z"/><path class="e" d="M668.25,245.19h1.83c.2.89,1.17,1.47,2.73,1.47,2,0,3.11-1,3.11-2.57V242h-.16a3.78,3.78,0,0,1-3.41,1.88c-2.82,0-4.57-2.18-4.57-5.45s1.77-5.47,4.57-5.47a3.89,3.89,0,0,1,3.49,1.92H676V233.1h1.66v11.08c0,2.44-1.88,4-4.85,4C670.19,248.17,668.51,247,668.25,245.19Zm7.71-6.81c0-2.37-1.22-3.9-3.23-3.9s-3.15,1.53-3.15,3.9,1.13,3.91,3.15,3.91S676,240.76,676,238.38Z"/><path class="e" d="M689.88,241.17c-.5,1.86-2.2,3-4.58,3-3,0-4.91-2.18-4.91-5.62s1.92-5.65,4.91-5.65S690,235,690,238.38v.67H682.2v.08c.09,2.16,1.29,3.52,3.14,3.52a2.84,2.84,0,0,0,2.81-1.48Zm-7.68-3.52h6c0-1.93-1.19-3.2-2.92-3.2A3.1,3.1,0,0,0,682.2,237.65Z"/><g class="k"><path class="b" d="M267.64,92.75a9.92,9.92,0,0,1-12.51,0,7.92,7.92,0,0,1-2.47-6.22V72.47h4.91V86.12a4.07,4.07,0,0,0,1,3,4.35,4.35,0,0,0,5.62,0,4.07,4.07,0,0,0,1-3V72.47h4.9V86.53A7.94,7.94,0,0,1,267.64,92.75Z"/><path class="b" d="M285.28,94.47l-3.94-8.19H279.6v8.19h-4.9v-22h8.72a7,7,0,0,1,5.16,2,6.66,6.66,0,0,1,2,4.94,6.55,6.55,0,0,1-1.15,3.86,6.36,6.36,0,0,1-3.2,2.35l4.47,8.9ZM279.6,82.06h2.89a3.28,3.28,0,0,0,2.29-.73,2.75,2.75,0,0,0,0-3.9,3.37,3.37,0,0,0-2.29-.71H279.6Z"/><path class="b" d="M308.59,94.47h-14.4v-22h4.9V89.79h9.5Z"/></g><path class="e" d="M236.19,340.24h8.22a7.29,7.29,0,0,1,5,1.64,5.47,5.47,0,0,1,1.83,4.26,5,5,0,0,1-.91,2.94,4.53,4.53,0,0,1-2.31,1.77,5.05,5.05,0,0,1,2.76,1.76A5.16,5.16,0,0,1,252,356a5.82,5.82,0,0,1-1.91,4.48,7.09,7.09,0,0,1-5,1.75h-8.88Zm4.78,8.81h2.67a3.13,3.13,0,0,0,2.06-.63,2.39,2.39,0,0,0,0-3.48,3.23,3.23,0,0,0-2.14-.64H241Zm0,9.19H244a3.3,3.3,0,0,0,2.24-.7,2.37,2.37,0,0,0,.8-1.88,2.4,2.4,0,0,0-.8-1.86,3.31,3.31,0,0,0-2.24-.71H241Z"/><path class="e" d="M262.26,346.35a8,8,0,0,1,5.85,2.3,8.55,8.55,0,0,1,0,11.75,8.52,8.52,0,0,1-11.69,0,8.44,8.44,0,0,1,0-11.71A8,8,0,0,1,262.26,346.35Zm0,12a3.41,3.41,0,0,0,2.47-1,3.82,3.82,0,0,0,1-2.85,3.77,3.77,0,0,0-1-2.84,3.56,3.56,0,0,0-4.92,0,3.72,3.72,0,0,0-1,2.83,3.79,3.79,0,0,0,1,2.84A3.37,3.37,0,0,0,262.26,358.36Z"/><path class="e" d="M288.67,339.77v19.71q0,1.39.12,2.76h-4.53a9.26,9.26,0,0,1-.12-1.49,4,4,0,0,1-1.66,1.32,5.84,5.84,0,0,1-2.47.51,7.23,7.23,0,0,1-5.46-2.28,8.89,8.89,0,0,1-.06-11.57,7,7,0,0,1,5.36-2.28c2.12,0,3.5.52,4.16,1.58v-8.26Zm-10.54,11.92a3.79,3.79,0,0,0-1,2.83,3.86,3.86,0,0,0,1,2.84,3.55,3.55,0,0,0,4.94,0,3.86,3.86,0,0,0,1-2.84,3.79,3.79,0,0,0-1-2.83,3.58,3.58,0,0,0-4.94,0Z"/><path class="e" d="M299,368.17h-5l3.5-8L291,346.82h5.27l3.76,8.25,3.41-8.25h5Z"/><path class="e" d="M231.58,217.2h-4.93v-8.75h-8.79v8.75H213v-22h4.9v8.62h8.79V195.2h4.93Z"/><path class="e" d="M246,211.64l3.94,1.12a6.38,6.38,0,0,1-2.45,3.52,7.6,7.6,0,0,1-4.66,1.38A8.35,8.35,0,0,1,237,203.58a7.38,7.38,0,0,1,5.41-2.27,7.63,7.63,0,0,1,5.67,2.09,8,8,0,0,1,2.06,5.82,6.64,6.64,0,0,1-.09,1.46H239.34a2.83,2.83,0,0,0,1.09,2.13,3.65,3.65,0,0,0,2.42.85A3,3,0,0,0,246,211.64Zm-6.52-4h6.18a2.81,2.81,0,0,0-.82-1.83,3.06,3.06,0,0,0-2.28-.78,3,3,0,0,0-3.08,2.61Z"/><path class="e" d="M252.28,213a4.13,4.13,0,0,1,1.27-3.15,6,6,0,0,1,3.29-1.51l3.63-.56c.75-.1,1.12-.45,1.12-1a1.48,1.48,0,0,0-.6-1.2,2.62,2.62,0,0,0-1.66-.48,2.58,2.58,0,0,0-1.88.67,2.35,2.35,0,0,0-.76,1.6l-4.1-.84a5.29,5.29,0,0,1,1.91-3.52,6.93,6.93,0,0,1,4.86-1.6c2.33,0,4.06.56,5.16,1.68a5.8,5.8,0,0,1,1.66,4.28v7.54a12.88,12.88,0,0,0,.19,2.39h-4.25a7.66,7.66,0,0,1-.16-1.74,4.69,4.69,0,0,1-4.34,2.17,5.42,5.42,0,0,1-3.9-1.38A4.41,4.41,0,0,1,252.28,213Zm6.49,1.27a2.94,2.94,0,0,0,2-.71,3,3,0,0,0,.81-2.36v-.69l-2.92.47c-1.15.19-1.73.76-1.73,1.71a1.54,1.54,0,0,0,.45,1.11A1.84,1.84,0,0,0,258.77,214.22Z"/><path class="e" d="M285.24,194.73v19.71q0,1.4.12,2.76h-4.53a9.36,9.36,0,0,1-.12-1.49,4,4,0,0,1-1.66,1.32,5.84,5.84,0,0,1-2.47.51,7.23,7.23,0,0,1-5.46-2.28,8.9,8.9,0,0,1-.06-11.58,7,7,0,0,1,5.37-2.28c2.11,0,3.49.53,4.15,1.59v-8.26ZM274.7,206.65a3.78,3.78,0,0,0-1,2.82,3.84,3.84,0,0,0,1,2.84,3.53,3.53,0,0,0,4.94,0,3.85,3.85,0,0,0,1-2.84,3.78,3.78,0,0,0-1-2.82,3.55,3.55,0,0,0-4.94,0Z"/><path class="e" d="M299.58,211.64l3.94,1.12a6.38,6.38,0,0,1-2.45,3.52,7.62,7.62,0,0,1-4.66,1.38,8.34,8.34,0,0,1-5.75-14.08,7.38,7.38,0,0,1,5.41-2.27,7.59,7.59,0,0,1,5.66,2.09,7.93,7.93,0,0,1,2.07,5.82,6.64,6.64,0,0,1-.09,1.46H293a2.86,2.86,0,0,0,1.08,2.13,3.67,3.67,0,0,0,2.42.85A3,3,0,0,0,299.58,211.64Zm-6.52-4h6.18a2.82,2.82,0,0,0-.83-1.83,3,3,0,0,0-2.28-.78,2.93,2.93,0,0,0-2.17.81A2.88,2.88,0,0,0,293.06,207.64Z"/><path class="e" d="M316.65,201.78v4.65a6.7,6.7,0,0,0-1.49-.15,3.47,3.47,0,0,0-2.59,1,4.32,4.32,0,0,0-1,3.16v6.74h-4.72V201.78h4.56v2.07a3.41,3.41,0,0,1,1.71-1.7,5.47,5.47,0,0,1,2.3-.53A4.24,4.24,0,0,1,316.65,201.78Z"/><path class="e" d="M318.35,212.82l4-.71a2.23,2.23,0,0,0,.66,1.47,2.37,2.37,0,0,0,1.76.61,2,2,0,0,0,1.33-.39,1.19,1.19,0,0,0,.47-1c0-.62-.51-1-1.52-1.27l-1.77-.4a6.21,6.21,0,0,1-3.48-1.76,4.35,4.35,0,0,1-1.12-3,4.65,4.65,0,0,1,1.7-3.63,6.17,6.17,0,0,1,4.23-1.49,6.32,6.32,0,0,1,4.52,1.44,5,5,0,0,1,1.66,3.15l-3.91.72a2,2,0,0,0-2.21-1.9,1.94,1.94,0,0,0-1.18.38,1.14,1.14,0,0,0-.49,1c0,.62.4,1,1.21,1.15l2,.4a6.33,6.33,0,0,1,3.53,1.77,4.36,4.36,0,0,1,1.22,3.07,4.9,4.9,0,0,1-1.62,3.68,6.32,6.32,0,0,1-4.53,1.53,8.6,8.6,0,0,1-3-.49,4.86,4.86,0,0,1-2-1.29,6.48,6.48,0,0,1-1.06-1.57A4.36,4.36,0,0,1,318.35,212.82Z"/></g></svg>