<svg xmlns="http://www.w3.org/2000/svg" viewBox="0 0 900 500"><defs><style>.a{isolation:isolate;}.b{fill:#327984;}.c{fill:#4cabbd;}.d{fill:#a9e7f7;}.e{fill:#fff;}.f{fill:#72cee7;}.g{fill:#276172;}.h{fill:#3a89a4;}.i{fill:#2b6a7e;}.j{fill:#1d4b59;}.k{mix-blend-mode:multiply;}</style></defs><title>post</title><g class="a"><rect class="b" y="328.47" width="900" height="170.32"/><rect class="c" y="158.15" width="900" height="170.32"/><rect class="d" y="1.2" width="900" height="156.65"/><polygon class="e" points="383.96 158.15 377.83 133.39 263.13 26.79 231.02 53.23 164.08 124.71 102.43 157.85 383.96 158.15"/><polygon class="f" points="263.13 26.79 377.83 133.39 383.96 158.15 299.36 158.15 266.35 126.64 260 119.76 298.99 119.76 263.13 26.79"/><polygon class="g" points="369.1 328.48 316.98 446.07 230.12 491.59 137.2 380.46 124.41 328.48 369.1 328.48"/><polyline class="h" points="124.41 328.48 96.14 213.54 102.43 157.85 383.96 158.15 393.86 272.6 369.1 328.48"/><polygon class="i" points="273.45 328.48 282.14 250.03 301.89 192 299.36 158.15 383.96 158.15 393.86 272.6 369.1 328.48 273.45 328.48"/><polygon class="j" points="369.1 328.48 316.98 446.07 230.12 491.59 243.16 460.23 261.28 438.2 273.45 328.48 369.1 328.48"/><path class="b" d="M530.38,80.48h2v7h.19a3.92,3.92,0,0,1,3.89-2.22c2.67,0,4.36,1.71,4.36,4.68v8.18h-2V90.44c0-2.24-1-3.35-2.92-3.35a3.26,3.26,0,0,0-3.5,3.56v7.48h-2Z"/><path class="b" d="M547.38,82.22v3.27h2.81v1.69h-2.81v7.15c0,1.49.56,2.12,1.87,2.12a7.6,7.6,0,0,0,.94,0v1.7a6.86,6.86,0,0,1-1.19.12c-2.6,0-3.64-1-3.64-3.37V87.18h-2V85.49h2V82.22Z"/><path class="b" d="M556.09,82.22v3.27h2.82v1.69h-2.82v7.15c0,1.49.57,2.12,1.88,2.12a7.6,7.6,0,0,0,.94,0v1.7a6.86,6.86,0,0,1-1.19.12c-2.6,0-3.64-1-3.64-3.37V87.18h-2V85.49h2V82.22Z"/><path class="b" d="M573.42,91.81c0,4-2.1,6.54-5.31,6.54a4.24,4.24,0,0,1-4-2.12H564v6.12h-2V85.49h1.93V87.6h.18a4.56,4.56,0,0,1,4.05-2.33C571.33,85.27,573.42,87.84,573.42,91.81Zm-2.09,0c0-3-1.38-4.72-3.69-4.72s-3.73,1.81-3.73,4.72,1.44,4.72,3.72,4.72S571.33,94.76,571.33,91.81Z"/><path class="b" d="M574.77,101.72l6.1-21.24h1.71l-6.09,21.24Z"/><path class="b" d="M582.77,101.72l6.09-21.24h1.71l-6.09,21.24Z"/><path class="b" d="M592.56,85.49h1.93v2h.18a3.58,3.58,0,0,1,3.53-2.22,3.63,3.63,0,0,1,3.49,2.22h.19a4.23,4.23,0,0,1,3.87-2.22c2.58,0,4,1.48,4,4.13v8.73h-2V89.87c0-1.87-.88-2.78-2.66-2.78A2.84,2.84,0,0,0,602.16,90v8.12h-2V89.55a2.4,2.4,0,0,0-2.64-2.46,3.05,3.05,0,0,0-2.93,3.21v7.83h-2Z"/><path class="b" d="M613.15,102.63V100.9a4.66,4.66,0,0,0,.85.06c1.16,0,1.79-.55,2.32-2.07l.23-.75-4.67-12.65h2.17l3.47,10.4h.19l3.46-10.4h2.14L618.38,98.9c-1.08,2.93-2.09,3.8-4.33,3.8A7.09,7.09,0,0,1,613.15,102.63Z"/><path class="b" d="M624.79,94.59c0-2.26,1.66-3.56,4.6-3.74l3.65-.22V89.48c0-1.56-1-2.42-2.86-2.42-1.51,0-2.57.58-2.85,1.57h-2c.27-2,2.26-3.36,5-3.36,3.08,0,4.8,1.58,4.8,4.21v8.65h-1.92V96.26H633a4.39,4.39,0,0,1-3.9,2.09C626.61,98.35,624.79,96.9,624.79,94.59ZM633,93.42V92.26l-3.4.22c-1.92.13-2.76.8-2.76,2.06s1.08,2,2.55,2A3.33,3.33,0,0,0,633,93.42Z"/><path class="b" d="M650.24,91.81c0,4-2.1,6.54-5.31,6.54A4.27,4.27,0,0,1,641,96.23h-.18v6.12h-2V85.49h1.92V87.6h.19a4.56,4.56,0,0,1,4-2.33C648.16,85.27,650.24,87.84,650.24,91.81Zm-2.08,0c0-3-1.39-4.72-3.7-4.72s-3.72,1.81-3.72,4.72,1.44,4.72,3.71,4.72S648.16,94.76,648.16,91.81Z"/><path class="b" d="M664.87,91.81c0,4-2.1,6.54-5.31,6.54a4.24,4.24,0,0,1-3.95-2.12h-.19v6.12h-2V85.49h1.92V87.6h.19a4.55,4.55,0,0,1,4-2.33C662.78,85.27,664.87,87.84,664.87,91.81Zm-2.09,0c0-3-1.38-4.72-3.69-4.72s-3.73,1.81-3.73,4.72,1.44,4.72,3.72,4.72S662.78,94.76,662.78,91.81Z"/><path class="b" d="M667.94,96.72a1.52,1.52,0,1,1,1.52,1.52A1.53,1.53,0,0,1,667.94,96.72Z"/><path class="b" d="M682.87,89.36a3.13,3.13,0,0,0-3.26-2.27c-2.27,0-3.7,1.81-3.7,4.67s1.45,4.77,3.7,4.77a3,3,0,0,0,3.26-2.21h2c-.37,2.32-2.25,4-5.29,4-3.54,0-5.8-2.57-5.8-6.59s2.25-6.49,5.79-6.49c3.07,0,4.94,1.84,5.3,4.09Z"/><path class="b" d="M687.25,91.81c0-4.07,2.23-6.54,5.82-6.54s5.83,2.47,5.83,6.54-2.23,6.54-5.83,6.54S687.25,95.87,687.25,91.81Zm9.56,0c0-3-1.35-4.72-3.74-4.72s-3.73,1.72-3.73,4.72,1.34,4.72,3.73,4.72S696.81,94.8,696.81,91.81Z"/><path class="b" d="M702.06,85.49H704v2h.19a3.58,3.58,0,0,1,3.53-2.22,3.63,3.63,0,0,1,3.49,2.22h.19a4.23,4.23,0,0,1,3.87-2.22c2.57,0,4,1.48,4,4.13v8.73h-2V89.87c0-1.87-.88-2.78-2.66-2.78A2.84,2.84,0,0,0,711.66,90v8.12h-2V89.55A2.39,2.39,0,0,0,707,87.09a3.05,3.05,0,0,0-2.93,3.21v7.83h-2Z"/><path class="e" d="M529.52,403.24c0-2.26,1.66-3.56,4.6-3.73l3.65-.23v-1.15c0-1.55-1-2.41-2.86-2.41-1.51,0-2.57.57-2.85,1.57h-2c.27-2,2.26-3.36,5-3.36,3.08,0,4.8,1.58,4.8,4.2v8.65h-1.92v-1.86h-.19a4.36,4.36,0,0,1-3.89,2.09C531.33,407,529.52,405.55,529.52,403.24Zm8.25-1.17v-1.16l-3.4.22c-1.92.13-2.77.8-2.77,2.07s1.09,2,2.56,2A3.33,3.33,0,0,0,537.77,402.07Z"/><path class="e" d="M553.73,406.78h-1.92v-2h-.19A3.94,3.94,0,0,1,547.7,407c-2.83,0-4.31-1.69-4.31-4.68v-8.18h2v7.69c0,2.27.84,3.33,2.86,3.33,2.22,0,3.44-1.33,3.44-3.54v-7.48h2Z"/><path class="e" d="M560.38,390.88v3.27h2.82v1.69h-2.82V403c0,1.48.57,2.12,1.88,2.12a7.6,7.6,0,0,0,.94-.05v1.7a6.86,6.86,0,0,1-1.19.12c-2.6,0-3.64-1-3.64-3.38v-7.66h-2v-1.69h2v-3.27Z"/><path class="e" d="M566.36,389.13h2v7h.18a3.94,3.94,0,0,1,3.89-2.21c2.68,0,4.36,1.71,4.36,4.67v8.18h-2V399.1c0-2.24-1-3.36-2.92-3.36a3.26,3.26,0,0,0-3.5,3.57v7.47h-2Z"/><path class="e" d="M579.86,400.47c0-4.07,2.23-6.54,5.82-6.54s5.83,2.47,5.83,6.54-2.23,6.54-5.83,6.54S579.86,404.52,579.86,400.47Zm9.56,0c0-3-1.34-4.73-3.74-4.73s-3.73,1.73-3.73,4.73,1.34,4.72,3.73,4.72S589.42,403.46,589.42,400.47Z"/><path class="e" d="M594.67,394.15h1.92V396h.19a3.53,3.53,0,0,1,3.51-2.1,7.57,7.57,0,0,1,1,.06v2a8.86,8.86,0,0,0-1.29-.12,3.09,3.09,0,0,0-3.31,3.08v7.82h-2Z"/><path class="e" d="M604,396.31a1.53,1.53,0,1,1,1.53,1.52A1.54,1.54,0,0,1,604,396.31Zm0,9.07a1.53,1.53,0,1,1,1.53,1.52A1.54,1.54,0,0,1,604,405.38Z"/><path class="e" d="M621.09,389.87l-1.3,6.32H617.5l2.12-6.32Z"/><path class="e" d="M624.93,406.78V389.87h6.47c3.1,0,5,1.63,5,4.22a3.74,3.74,0,0,1-2.91,3.65v.18a4,4,0,0,1,3.77,4.12c0,3-2.13,4.74-5.73,4.74Zm2.11-9.62h3.38c2.55,0,3.85-.91,3.85-2.7s-1.22-2.72-3.32-2.72H627Zm4.17,7.76c2.54,0,3.88-1,3.88-3S633.71,399,631,399h-4v5.94Z"/><path class="e" d="M639.81,400.47c0-4.07,2.23-6.54,5.83-6.54s5.82,2.47,5.82,6.54-2.22,6.54-5.82,6.54S639.81,404.52,639.81,400.47Zm9.57,0c0-3-1.35-4.73-3.74-4.73s-3.74,1.73-3.74,4.73,1.35,4.72,3.74,4.72S649.38,403.46,649.38,400.47Z"/><path class="e" d="M654.63,394.15h1.92V396h.19a3.5,3.5,0,0,1,3.5-2.1,7.73,7.73,0,0,1,1,.06v2a9,9,0,0,0-1.29-.12,3.1,3.1,0,0,0-3.32,3.08v7.82h-2Z"/><path class="e" d="M663.42,390.31a1.41,1.41,0,1,1,1.4,1.4A1.41,1.41,0,0,1,663.42,390.31Zm.39,3.84h2v12.63h-2Z"/><path class="e" d="M674.09,393.93c2.65,0,4.49,1.31,4.76,3.38h-2c-.27-1-1.26-1.67-2.78-1.67s-2.67.76-2.67,1.89c0,.86.7,1.4,2.19,1.76l1.94.47c2.38.58,3.53,1.61,3.53,3.43,0,2.26-2.19,3.82-5.06,3.82s-4.75-1.35-5-3.45h2.07c.34,1.07,1.35,1.75,3,1.75s2.92-.81,2.92-2c0-.87-.66-1.46-2-1.78l-2.16-.53c-2.37-.57-3.45-1.59-3.45-3.42C669.38,395.51,671.41,393.93,674.09,393.93Z"/><path class="e" d="M682,396.19l1.31-6.32h2.28l-2.12,6.32Z"/><path class="e" d="M538.68,430a3.13,3.13,0,0,0-3.26-2.28c-2.27,0-3.7,1.82-3.7,4.68s1.45,4.77,3.7,4.77a3,3,0,0,0,3.26-2.22h2c-.36,2.32-2.25,4-5.29,4-3.53,0-5.8-2.57-5.8-6.59s2.25-6.49,5.79-6.49c3.07,0,5,1.84,5.3,4.09Z"/><path class="e" d="M543.06,432.47c0-4.07,2.23-6.54,5.83-6.54s5.82,2.47,5.82,6.54-2.22,6.54-5.82,6.54S543.06,436.52,543.06,432.47Zm9.57,0c0-3-1.35-4.73-3.74-4.73s-3.74,1.73-3.74,4.73,1.35,4.72,3.74,4.72S552.63,435.46,552.63,432.47Z"/><path class="e" d="M557.88,426.15h1.92v2H560a3.79,3.79,0,0,1,3.79-2.21c2.84,0,4.42,1.67,4.42,4.67v8.18h-2V431.1c0-2.28-1-3.36-3-3.36s-3.32,1.35-3.32,3.57v7.47h-2Z"/><path class="e" d="M574.74,422.88v3.27h2.81v1.69h-2.81V435c0,1.48.56,2.12,1.87,2.12a7.4,7.4,0,0,0,.94-.05v1.7a6.75,6.75,0,0,1-1.18.12c-2.6,0-3.65-1-3.65-3.38v-7.66h-2v-1.69h2v-3.27Z"/><path class="e" d="M590.81,435.51c-.59,2.16-2.56,3.5-5.32,3.5-3.51,0-5.7-2.54-5.7-6.53s2.23-6.55,5.7-6.55,5.48,2.42,5.48,6.35v.77h-9.08v.1c.1,2.49,1.5,4.07,3.64,4.07a3.27,3.27,0,0,0,3.26-1.71Zm-8.92-4.09h7c-.05-2.23-1.38-3.71-3.39-3.71S582,429.19,581.89,431.42Z"/><path class="e" d="M594.13,426.15h1.93v2h.18a3.81,3.81,0,0,1,3.8-2.21c2.84,0,4.42,1.67,4.42,4.67v8.18h-2V431.1c0-2.28-1-3.36-3-3.36s-3.32,1.35-3.32,3.57v7.47h-2Z"/><path class="e" d="M611,422.88v3.27h2.81v1.69H611V435c0,1.48.56,2.12,1.87,2.12a7.5,7.5,0,0,0,.94-.05v1.7a6.84,6.84,0,0,1-1.18.12c-2.61,0-3.65-1-3.65-3.38v-7.66h-2v-1.69h2v-3.27Z"/><path class="e" d="M617,428.31a1.52,1.52,0,1,1,1.52,1.52A1.53,1.53,0,0,1,617,428.31Zm0,9.07a1.52,1.52,0,1,1,1.52,1.52A1.53,1.53,0,0,1,617,437.38Z"/><path class="e" d="M634.13,421.87l-1.3,6.32h-2.29l2.13-6.32Z"/><path class="e" d="M649.36,438.78v-7.7h-9.28v7.7H638V421.87h2.11v7.32h9.28v-7.32h2.11v16.91Z"/><path class="e" d="M665.91,435.51c-.58,2.16-2.55,3.5-5.32,3.5-3.5,0-5.69-2.54-5.69-6.53s2.22-6.55,5.69-6.55,5.49,2.42,5.49,6.35v.77H657v.1c.11,2.49,1.5,4.07,3.65,4.07a3.27,3.27,0,0,0,3.26-1.71ZM657,431.42h7c0-2.23-1.38-3.71-3.38-3.71S657.15,429.19,657,431.42Z"/><path class="e" d="M669.36,421.13h2v17.65h-2Z"/><path class="e" d="M675.4,421.13h2v17.65h-2Z"/><path class="e" d="M680.7,432.47c0-4.07,2.23-6.54,5.82-6.54s5.83,2.47,5.83,6.54-2.23,6.54-5.83,6.54S680.7,436.52,680.7,432.47Zm9.56,0c0-3-1.34-4.73-3.74-4.73s-3.73,1.73-3.73,4.73,1.34,4.72,3.73,4.72S690.26,435.46,690.26,432.47Z"/><path class="e" d="M695.3,428.19l1.3-6.32h2.29l-2.12,6.32Z"/><path class="e" d="M532.61,213.58c0,2.56,1.68,4.41,4.61,4.41s4.6-1.85,4.6-4.41v-11h2.11v11.1c0,3.61-2.52,6.21-6.71,6.21s-6.72-2.6-6.72-6.21v-11.1h2.11Z"/><path class="e" d="M552.38,206.68c2.65,0,4.49,1.31,4.76,3.39h-2c-.27-1-1.26-1.68-2.78-1.68s-2.67.76-2.67,1.89c0,.86.7,1.4,2.19,1.77l1.94.46c2.38.58,3.53,1.61,3.53,3.43,0,2.26-2.19,3.82-5.06,3.82s-4.75-1.35-5-3.45h2.07c.34,1.07,1.35,1.75,3,1.75s2.92-.81,2.92-2c0-.87-.66-1.45-2-1.78l-2.17-.53c-2.36-.57-3.44-1.59-3.44-3.42C547.67,208.26,549.7,206.68,552.38,206.68Z"/><path class="e" d="M570.91,216.26c-.59,2.16-2.56,3.5-5.32,3.5-3.51,0-5.7-2.53-5.7-6.53s2.23-6.55,5.7-6.55,5.48,2.42,5.48,6.35v.77H562v.1c.1,2.49,1.5,4.08,3.64,4.08a3.27,3.27,0,0,0,3.26-1.72ZM562,212.17h7c-.05-2.23-1.38-3.71-3.39-3.71S562.14,209.94,562,212.17Z"/><path class="e" d="M574.24,206.9h1.92v1.88h.18a3.54,3.54,0,0,1,3.51-2.1,7.73,7.73,0,0,1,1,.06v2a9.26,9.26,0,0,0-1.29-.11,3.09,3.09,0,0,0-3.32,3.07v7.82h-2Z"/><path class="e" d="M582.36,213.69v-1.91H590v1.91Z"/><path class="e" d="M603,214.69h-6.73l-1.7,4.84h-2.21l6.23-16.91h2.09l6.23,16.91h-2.21Zm-6.11-1.79h5.49l-2.65-7.55h-.19Z"/><path class="e" d="M608.78,220.93h2.14c.22,1,1.34,1.7,3.16,1.7,2.26,0,3.61-1.12,3.61-3v-2.48h-.19a4.4,4.4,0,0,1-4,2.18c-3.27,0-5.3-2.53-5.3-6.32s2-6.35,5.3-6.35a4.51,4.51,0,0,1,4.05,2.23h.19v-2h1.92v12.86c0,2.82-2.18,4.63-5.62,4.63C611,224.39,609.09,223,608.78,220.93Zm9-7.9c0-2.75-1.41-4.53-3.75-4.53s-3.65,1.78-3.65,4.53,1.31,4.54,3.65,4.54S617.73,215.78,617.73,213Z"/><path class="e" d="M633.88,216.26c-.58,2.16-2.55,3.5-5.32,3.5-3.5,0-5.69-2.53-5.69-6.53s2.22-6.55,5.69-6.55,5.49,2.42,5.49,6.35v.77H625v.1c.11,2.49,1.5,4.08,3.65,4.08a3.27,3.27,0,0,0,3.26-1.72ZM625,212.17h7c0-2.23-1.39-3.71-3.39-3.71S625.12,209.94,625,212.17Z"/><path class="e" d="M637.21,206.9h1.92v2h.19a3.8,3.8,0,0,1,3.8-2.21c2.83,0,4.42,1.67,4.42,4.67v8.18h-2v-7.68c0-2.28-1-3.35-3-3.35s-3.31,1.34-3.31,3.56v7.47h-2Z"/><path class="e" d="M654.07,203.63v3.27h2.82v1.69h-2.82v7.15c0,1.49.57,2.12,1.88,2.12a7.6,7.6,0,0,0,.94-.05v1.7a6.86,6.86,0,0,1-1.19.12c-2.6,0-3.64-1-3.64-3.38v-7.66h-2V206.9h2v-3.27Z"/><path class="e" d="M529.87,243.08c0-5.46,2.86-8.85,7.45-8.85a6.6,6.6,0,0,1,6.85,5.49H542a4.65,4.65,0,0,0-4.7-3.55c-3.24,0-5.28,2.67-5.28,6.91s2,6.91,5.29,6.91a4.53,4.53,0,0,0,4.69-3.17h2.15c-.57,3.11-3.24,5.11-6.84,5.11C532.74,251.93,529.87,248.53,529.87,243.08Z"/><path class="e" d="M546.81,245.22c0-4.07,2.23-6.54,5.83-6.54s5.82,2.47,5.82,6.54-2.22,6.54-5.82,6.54S546.81,249.27,546.81,245.22Zm9.57,0c0-3-1.35-4.72-3.74-4.72s-3.74,1.72-3.74,4.72,1.35,4.72,3.74,4.72S556.38,248.21,556.38,245.22Z"/><path class="e" d="M561,245.22c0-4.07,2.23-6.54,5.83-6.54s5.82,2.47,5.82,6.54-2.22,6.54-5.82,6.54S561,249.27,561,245.22Zm9.57,0c0-3-1.35-4.72-3.74-4.72s-3.74,1.72-3.74,4.72,1.35,4.72,3.74,4.72S570.56,248.21,570.56,245.22Z"/><path class="e" d="M583.61,238.9h2.47l-5.43,5.42,5.8,7.21h-2.57l-4.73-5.91-1.21,1.12v4.79h-2V233.89h2v10.53h.19Z"/><path class="e" d="M588.49,235.06a1.41,1.41,0,1,1,1.4,1.4A1.41,1.41,0,0,1,588.49,235.06Zm.39,3.84h2v12.63h-2Z"/><path class="e" d="M605.13,248.26c-.59,2.16-2.56,3.5-5.32,3.5-3.51,0-5.7-2.53-5.7-6.53s2.23-6.55,5.7-6.55,5.48,2.42,5.48,6.35v.77h-9.08v.1c.1,2.49,1.5,4.08,3.64,4.08a3.27,3.27,0,0,0,3.26-1.72Zm-8.92-4.09h7c0-2.23-1.38-3.71-3.39-3.71S596.36,241.94,596.21,244.17Z"/><path class="e" d="M612.87,238.68c2.65,0,4.49,1.31,4.76,3.39h-2c-.27-1-1.26-1.68-2.78-1.68s-2.67.76-2.67,1.89c0,.86.7,1.4,2.19,1.77l1.94.46c2.38.58,3.53,1.61,3.53,3.43,0,2.26-2.19,3.82-5.06,3.82s-4.75-1.35-5-3.45h2.08c.34,1.07,1.34,1.75,3,1.75s2.92-.81,2.92-2c0-.87-.66-1.45-2-1.78l-2.16-.53c-2.37-.57-3.45-1.59-3.45-3.42C608.16,240.26,610.19,238.68,612.87,238.68Z"/><path class="e" d="M539.82,278.69h-6.73l-1.7,4.84h-2.21l6.23-16.91h2.09l6.23,16.91h-2.21Zm-6.11-1.79h5.49l-2.65-7.55h-.19Z"/><path class="e" d="M554.15,274.77a3.12,3.12,0,0,0-3.26-2.27c-2.27,0-3.7,1.81-3.7,4.67s1.45,4.77,3.7,4.77a3,3,0,0,0,3.26-2.21h2c-.36,2.32-2.25,4-5.29,4-3.54,0-5.8-2.57-5.8-6.59s2.25-6.49,5.79-6.49c3.07,0,5,1.84,5.3,4.09Z"/><path class="e" d="M567.58,274.77a3.12,3.12,0,0,0-3.26-2.27c-2.27,0-3.7,1.81-3.7,4.67s1.45,4.77,3.7,4.77a3,3,0,0,0,3.26-2.21h2c-.37,2.32-2.25,4-5.29,4-3.54,0-5.8-2.57-5.8-6.59s2.25-6.49,5.79-6.49c3.07,0,4.95,1.84,5.3,4.09Z"/><path class="e" d="M583,280.26c-.59,2.16-2.56,3.5-5.32,3.5-3.51,0-5.7-2.53-5.7-6.53s2.23-6.55,5.7-6.55,5.48,2.42,5.48,6.35v.77h-9.08v.1c.11,2.49,1.5,4.08,3.64,4.08a3.27,3.27,0,0,0,3.26-1.72Zm-8.92-4.09h7c0-2.23-1.38-3.71-3.39-3.71S574.21,273.94,574.06,276.17Z"/><path class="e" d="M597.77,277.22c0,3.95-2.1,6.54-5.31,6.54a4.24,4.24,0,0,1-4-2.12h-.19v6.11h-2V270.9h1.92V273h.19a4.55,4.55,0,0,1,4-2.33C595.68,270.68,597.77,273.25,597.77,277.22Zm-2.09,0c0-3-1.38-4.72-3.69-4.72s-3.73,1.81-3.73,4.72,1.44,4.72,3.72,4.72S595.68,280.17,595.68,277.22Z"/><path class="e" d="M603.79,267.63v3.27h2.81v1.69h-2.81v7.15c0,1.49.56,2.12,1.88,2.12a7.34,7.34,0,0,0,.93-.05v1.7a6.75,6.75,0,0,1-1.18.12c-2.6,0-3.65-1-3.65-3.38v-7.66h-2V270.9h2v-3.27Z"/><path class="e" d="M609.1,277.69v-1.91h7.69v1.91Z"/><path class="e" d="M631,283.53H620.76V266.62h2.11v15H631Z"/><path class="e" d="M633.38,280c0-2.27,1.66-3.57,4.6-3.74l3.65-.23v-1.14c0-1.56-1-2.42-2.86-2.42-1.51,0-2.57.58-2.85,1.57h-2c.27-2,2.26-3.36,5-3.36,3.08,0,4.8,1.58,4.8,4.21v8.64h-1.92v-1.86h-.18a4.39,4.39,0,0,1-3.9,2.09C635.2,283.76,633.38,282.3,633.38,280Zm8.25-1.18v-1.16l-3.4.23c-1.92.12-2.77.79-2.77,2.06s1.09,2,2.56,2A3.33,3.33,0,0,0,641.63,278.82Z"/><path class="e" d="M647.37,270.9h1.92v2h.19a3.8,3.8,0,0,1,3.8-2.21c2.83,0,4.42,1.67,4.42,4.67v8.18h-2v-7.68c0-2.28-1-3.35-3-3.35s-3.31,1.34-3.31,3.56v7.47h-2Z"/><path class="e" d="M661.28,284.93h2.13c.23,1,1.35,1.7,3.17,1.7,2.26,0,3.61-1.12,3.61-3v-2.48H670a4.4,4.4,0,0,1-4,2.18c-3.27,0-5.3-2.53-5.3-6.32s2-6.35,5.3-6.35a4.51,4.51,0,0,1,4.05,2.23h.19v-2h1.92v12.86c0,2.82-2.18,4.63-5.62,4.63C663.53,288.39,661.59,287,661.28,284.93Zm9-7.9c0-2.75-1.41-4.53-3.75-4.53s-3.65,1.78-3.65,4.53,1.31,4.54,3.65,4.54S670.23,279.78,670.23,277Z"/><path class="e" d="M686.22,283.53H684.3v-2h-.19a3.94,3.94,0,0,1-3.91,2.21c-2.84,0-4.32-1.69-4.32-4.68V270.9h2v7.69c0,2.27.84,3.33,2.86,3.33,2.22,0,3.44-1.33,3.44-3.54V270.9h2Z"/><path class="e" d="M689.27,280c0-2.27,1.66-3.57,4.6-3.74l3.65-.23v-1.14c0-1.56-1-2.42-2.86-2.42-1.52,0-2.57.58-2.85,1.57h-2c.27-2,2.26-3.36,5-3.36,3.08,0,4.8,1.58,4.8,4.21v8.64h-1.92v-1.86h-.19a4.36,4.36,0,0,1-3.89,2.09C691.08,283.76,689.27,282.3,689.27,280Zm8.25-1.18v-1.16l-3.4.23c-1.92.12-2.77.79-2.77,2.06s1.09,2,2.56,2A3.33,3.33,0,0,0,697.52,278.82Z"/><path class="e" d="M703.16,284.93h2.14c.22,1,1.34,1.7,3.16,1.7,2.26,0,3.61-1.12,3.61-3v-2.48h-.19a4.38,4.38,0,0,1-4,2.18c-3.27,0-5.3-2.53-5.3-6.32s2.06-6.35,5.3-6.35a4.54,4.54,0,0,1,4.06,2.23h.18v-2h1.93v12.86c0,2.82-2.18,4.63-5.63,4.63C705.41,288.39,703.47,287,703.16,284.93Zm9-7.9c0-2.75-1.42-4.53-3.75-4.53s-3.66,1.78-3.66,4.53,1.31,4.54,3.66,4.54S712.12,279.78,712.12,277Z"/><path class="e" d="M728.27,280.26c-.59,2.16-2.56,3.5-5.32,3.5-3.51,0-5.7-2.53-5.7-6.53s2.23-6.55,5.7-6.55,5.48,2.42,5.48,6.35v.77h-9.08v.1c.1,2.49,1.5,4.08,3.64,4.08a3.27,3.27,0,0,0,3.26-1.72Zm-8.92-4.09h7c0-2.23-1.38-3.71-3.39-3.71S719.5,273.94,719.35,276.17Z"/><g class="k"><path class="b" d="M238.46,108.09a11.49,11.49,0,0,1-14.51,0,9.18,9.18,0,0,1-2.86-7.21V84.57h5.69v15.84a4.75,4.75,0,0,0,1.17,3.46,5.08,5.08,0,0,0,6.51,0,4.75,4.75,0,0,0,1.17-3.46V84.57h5.69v16.31A9.18,9.18,0,0,1,238.46,108.09Z"/><path class="b" d="M258.93,110.09l-4.58-9.5h-2v9.5h-5.69V84.57h10.12a8.15,8.15,0,0,1,6,2.27,7.74,7.74,0,0,1,2.29,5.72A7.56,7.56,0,0,1,263.71,97a7.31,7.31,0,0,1-3.7,2.72l5.18,10.33Zm-6.59-14.4h3.35a3.84,3.84,0,0,0,2.66-.84,2.92,2.92,0,0,0,.94-2.25,2.89,2.89,0,0,0-.94-2.27,3.89,3.89,0,0,0-2.66-.83h-3.35Z"/><path class="b" d="M286,110.09h-16.7V84.57h5.68v20.09h11Z"/></g><path class="e" d="M202,395.18h9.54a8.41,8.41,0,0,1,5.83,1.91,6.3,6.3,0,0,1,2.13,4.93,5.87,5.87,0,0,1-1.06,3.42,5.28,5.28,0,0,1-2.69,2.05,5.82,5.82,0,0,1,3.21,2,6,6,0,0,1,1.33,3.94,6.76,6.76,0,0,1-2.21,5.2,8.21,8.21,0,0,1-5.78,2H202Zm5.55,10.23h3.09a3.64,3.64,0,0,0,2.4-.74,2.53,2.53,0,0,0,.88-2,2.5,2.5,0,0,0-.87-2,3.71,3.71,0,0,0-2.48-.73h-3Zm0,10.65h3.56a3.83,3.83,0,0,0,2.59-.81,2.71,2.71,0,0,0,.94-2.18,2.75,2.75,0,0,0-.94-2.16,3.78,3.78,0,0,0-2.59-.83h-3.56Z"/><path class="e" d="M232.22,402.27a9.3,9.3,0,0,1,6.79,2.67,9.89,9.89,0,0,1,0,13.62,9.86,9.86,0,0,1-13.56,0,9.81,9.81,0,0,1,0-13.58A9.3,9.3,0,0,1,232.22,402.27Zm0,13.94a3.92,3.92,0,0,0,2.86-1.16,4.42,4.42,0,0,0,1.17-3.31,4.36,4.36,0,0,0-1.17-3.29,4.12,4.12,0,0,0-5.7,0,4.38,4.38,0,0,0-1.19,3.28,4.43,4.43,0,0,0,1.19,3.3A3.9,3.9,0,0,0,232.22,416.21Z"/><path class="e" d="M262.86,394.64V417.5c0,1.08,0,2.15.14,3.21h-5.25a10.2,10.2,0,0,1-.15-1.73,4.7,4.7,0,0,1-1.92,1.53,6.85,6.85,0,0,1-2.87.59,8.38,8.38,0,0,1-6.33-2.64,10.32,10.32,0,0,1-.07-13.43,8.08,8.08,0,0,1,6.22-2.65q3.68,0,4.83,1.84v-9.58Zm-12.22,13.82a4.37,4.37,0,0,0-1.17,3.28,4.42,4.42,0,0,0,1.17,3.3,4.08,4.08,0,0,0,5.72,0,4.46,4.46,0,0,0,1.17-3.3,4.41,4.41,0,0,0-1.17-3.28,4.13,4.13,0,0,0-5.72,0Z"/><path class="e" d="M274.81,427.58h-5.76l4.07-9.29-7.53-15.48h6.12l4.36,9.58,4-9.58h5.8Z"/><path class="e" d="M196.64,252.46h-5.73V242.3H180.73v10.16H175V226.93h5.69v10h10.18v-10h5.73Z"/><path class="e" d="M213.31,246l4.57,1.3a7.45,7.45,0,0,1-2.85,4.08,8.81,8.81,0,0,1-5.4,1.61A9.7,9.7,0,0,1,203,236.65a8.64,8.64,0,0,1,6.29-2.63,8.82,8.82,0,0,1,6.57,2.43,9.23,9.23,0,0,1,2.39,6.75,7.65,7.65,0,0,1-.11,1.7H205.64a3.28,3.28,0,0,0,1.26,2.46,4.22,4.22,0,0,0,2.8,1A3.44,3.44,0,0,0,213.31,246Zm-7.57-4.64h7.17a3.23,3.23,0,0,0-1-2.13,3.53,3.53,0,0,0-2.64-.9,3.41,3.41,0,0,0-2.52.94A3.36,3.36,0,0,0,205.74,241.37Z"/><path class="e" d="M220.65,247.52a4.78,4.78,0,0,1,1.47-3.65,7,7,0,0,1,3.82-1.75l4.21-.65c.87-.11,1.3-.52,1.3-1.22a1.69,1.69,0,0,0-.7-1.38,3,3,0,0,0-1.93-.56,3.05,3.05,0,0,0-2.18.77,2.75,2.75,0,0,0-.88,1.86L221,240a6.18,6.18,0,0,1,2.21-4.08,8.06,8.06,0,0,1,5.64-1.86q4.06,0,6,1.95a6.77,6.77,0,0,1,1.93,5v8.74a15.06,15.06,0,0,0,.21,2.78h-4.93a8.81,8.81,0,0,1-.18-2,5.46,5.46,0,0,1-5,2.52,6.3,6.3,0,0,1-4.52-1.6A5.15,5.15,0,0,1,220.65,247.52Zm7.52,1.48a3.4,3.4,0,0,0,2.34-.83,3.46,3.46,0,0,0,.94-2.73v-.8l-3.39.54q-2,.33-2,2a1.79,1.79,0,0,0,.52,1.3A2.13,2.13,0,0,0,228.17,249Z"/><path class="e" d="M258.88,226.39v22.86c0,1.08.05,2.15.14,3.21h-5.25a10.2,10.2,0,0,1-.15-1.73,4.7,4.7,0,0,1-1.92,1.53,6.8,6.8,0,0,1-2.86.59,8.39,8.39,0,0,1-6.34-2.64,10.32,10.32,0,0,1-.07-13.43,8.1,8.1,0,0,1,6.23-2.65q3.66,0,4.82,1.84v-9.58Zm-12.22,13.82a4.41,4.41,0,0,0-1.17,3.28,4.46,4.46,0,0,0,1.17,3.3,4.08,4.08,0,0,0,5.72,0,4.46,4.46,0,0,0,1.17-3.3,4.41,4.41,0,0,0-1.17-3.28,4.13,4.13,0,0,0-5.72,0Z"/><path class="e" d="M275.51,246l4.57,1.3a7.38,7.38,0,0,1-2.84,4.08,8.81,8.81,0,0,1-5.4,1.61,9.24,9.24,0,0,1-6.61-2.6,10.17,10.17,0,0,1-.07-13.75,8.63,8.63,0,0,1,6.28-2.63,8.82,8.82,0,0,1,6.58,2.43,9.23,9.23,0,0,1,2.39,6.75,7.65,7.65,0,0,1-.11,1.7H267.85a3.27,3.27,0,0,0,1.25,2.46,4.27,4.27,0,0,0,2.81,1A3.42,3.42,0,0,0,275.51,246ZM268,241.37h7.17a3.23,3.23,0,0,0-1-2.13,3.55,3.55,0,0,0-2.64-.9,3.41,3.41,0,0,0-2.52.94A3.31,3.31,0,0,0,268,241.37Z"/><path class="e" d="M295.31,234.56V240a7.48,7.48,0,0,0-1.73-.18,4,4,0,0,0-3,1.19,5.05,5.05,0,0,0-1.17,3.67v7.82h-5.47v-17.9h5.29V237a3.92,3.92,0,0,1,2-2,6.3,6.3,0,0,1,2.66-.62A5.15,5.15,0,0,1,295.31,234.56Z"/><path class="e" d="M297.29,247.38l4.65-.83a2.56,2.56,0,0,0,.77,1.71,2.75,2.75,0,0,0,2,.7,2.35,2.35,0,0,0,1.55-.45,1.37,1.37,0,0,0,.54-1.09c0-.72-.59-1.22-1.76-1.48l-2.05-.47a7.23,7.23,0,0,1-4-2,5.09,5.09,0,0,1-1.29-3.48,5.4,5.4,0,0,1,2-4.21,7.18,7.18,0,0,1,4.91-1.73,7.28,7.28,0,0,1,5.24,1.68,5.71,5.71,0,0,1,1.93,3.65l-4.54.83a2.32,2.32,0,0,0-2.55-2.2,2.2,2.2,0,0,0-1.37.44,1.31,1.31,0,0,0-.58,1.11c0,.72.47,1.17,1.41,1.33l2.37.47a7.49,7.49,0,0,1,4.11,2A5.1,5.1,0,0,1,312,247a5.66,5.66,0,0,1-1.87,4.26,7.32,7.32,0,0,1-5.26,1.79,10,10,0,0,1-3.51-.58,5.64,5.64,0,0,1-2.34-1.5,7.29,7.29,0,0,1-1.22-1.81A5.22,5.22,0,0,1,297.29,247.38Z"/></g></svg>