<svg xmlns="http://www.w3.org/2000/svg" xmlns:xlink="http://www.w3.org/1999/xlink" viewBox="0 0 900 500"><defs><style>.a,.ac{fill:#4b4b4b;}.b,.n,.o{fill:#5abd80;}.c{fill:#66d38d;}.d{fill:#50b5c9;}.e{fill:#262626;}.f{fill:#333;}.g{fill:#969696;}.h{fill:#eae9e9;}.i{fill:#c2c2c2;}.j{fill:#d7d7d7;stroke:#e8e8e8;}.aa,.ab,.ac,.ae,.ag,.ai,.j,.l,.m,.n,.o,.p,.q{stroke-miterlimit:10;}.k,.p,.s{fill:#fff;}.ab,.l,.w{fill:#ed2627;}.l,.m,.n{stroke:#f1e5ce;}.l,.m,.n,.p,.q{stroke-width:0.5px;}.m,.t{fill:#fec75e;}.o,.p,.q{stroke:#eae9e9;}.o{stroke-width:0.8px;}.ai,.q{fill:none;}.r{fill:#eceaff;}.s{opacity:0.24;}.u{fill:#fedd9e;}.v{fill:#ce9851;}.x{fill:#72cee7;}.y{fill:#4baabd;}.z{fill:#3e8a99;}.aa,.ad,.ae{fill:#e8f4ee;}.aa{stroke:#4b4b4b;}.ab,.ac{stroke:#3e8a99;stroke-width:0.25px;}.ae{stroke:#5abd80;}.ae,.ag{stroke-width:4px;}.af{fill:#cdebd9;}.ag{fill:#e9f6fc;stroke:#72cee7;}.ah{fill:#c00;}.ai{stroke:#110809;}.aj{fill:#110809;}.ak{fill:#fff7e8;}.al{fill:#fddfe0;}</style><symbol id="b" viewBox="0 0 51.86 32.2"><polygon class="e" points="0 10.73 18.86 0 51.86 19.05 33 29.79 0 10.73"/><polygon class="f" points="33 32.2 33 29.79 51.86 19.05 51.86 21.47 33 32.2"/><polygon class="a" points="33 32.2 0 13.15 0 10.73 33 29.79 33 32.2"/></symbol><symbol id="j" viewBox="0 0 66 40.52"><polygon class="e" points="0 19.05 33 0 66 19.05 33 38.1 0 19.05"/><polygon class="f" points="33 40.52 33 38.1 66 19.05 66 21.47 33 40.52"/><polygon class="a" points="33 40.52 0 21.47 0 19.05 33 38.1 33 40.52"/></symbol><symbol id="a" viewBox="0 0 299.9 323.56"><path class="g" d="M162.85,319.17v4.39c3,.13,127.44-69.8,127.44-69.8s2.27-5.84,1.31-8.44l-1.31,2.3L167.4,318.14Z"/><path class="h" d="M1.11,227.18l-1-2.06a11.09,11.09,0,0,0,1,5.88s157.36,93.54,161.74,92.56v-4.39L158.14,318Z"/><path class="i" d="M158.14,318l-155.93-90c-2.67-1.53-2.87-4-.44-5.4l124.64-70.32a10.19,10.19,0,0,1,9.27.18l153.78,90c2.67,1.54,2.87,4,.44,5.41L167.4,318.14A10.16,10.16,0,0,1,158.14,318Z"/><path class="j" d="M185.15,288.65,50.46,210.88c-2.3-1.32-2.47-3.43-.38-4.67l79-44.18a8.83,8.83,0,0,1,8,.16L269.89,240c2.31,1.32,2.48,3.42.39,4.67L193.15,288.8A8.79,8.79,0,0,1,185.15,288.65Z"/><use width="51.86" height="32.21" transform="translate(151.87 181.68) scale(0.33)" xlink:href="#b"/><use width="51.86" height="32.21" transform="translate(165.22 189.33) scale(0.33)" xlink:href="#b"/><use width="51.86" height="32.21" transform="translate(178.57 196.98) scale(0.33)" xlink:href="#b"/><use width="51.86" height="32.21" transform="translate(191.92 204.63) scale(0.33)" xlink:href="#b"/><use width="51.86" height="32.21" transform="translate(205.27 212.27) scale(0.33)" xlink:href="#b"/><use width="51.86" height="32.21" transform="translate(218.62 219.92) scale(0.33)" xlink:href="#b"/><use width="51.86" height="32.21" transform="translate(231.77 227.46) scale(0.33)" xlink:href="#b"/><use width="51.86" height="32.21" transform="translate(245.09 235.09) scale(0.33)" xlink:href="#b"/><use width="66" height="40.52" transform="translate(138.82 186.89) scale(0.33)" xlink:href="#j"/><use width="66" height="40.52" transform="translate(152.14 194.53) scale(0.33)" xlink:href="#j"/><use width="66" height="40.52" transform="translate(165.46 202.16) scale(0.33)" xlink:href="#j"/><use width="66" height="40.52" transform="translate(178.79 209.79) scale(0.33)" xlink:href="#j"/><use width="66" height="40.52" transform="translate(192.11 217.42) scale(0.33)" xlink:href="#j"/><use width="66" height="40.52" transform="translate(205.43 225.05) scale(0.33)" xlink:href="#j"/><polygon class="e" points="218.75 238.93 229.56 232.69 253.69 246.56 242.88 252.8 218.75 238.93"/><polygon class="f" points="242.88 253.59 242.88 252.8 253.69 246.56 253.69 247.35 242.88 253.59"/><polygon class="a" points="242.88 253.59 218.75 239.72 218.75 238.93 242.88 252.8 242.88 253.59"/><use width="66" height="40.52" transform="translate(125.6 194.53) scale(0.33)" xlink:href="#j"/><use width="66" height="40.52" transform="translate(138.92 202.16) scale(0.33)" xlink:href="#j"/><use width="66" height="40.52" transform="translate(152.24 209.79) scale(0.33)" xlink:href="#j"/><use width="66" height="40.52" transform="translate(165.57 217.42) scale(0.33)" xlink:href="#j"/><use width="66" height="40.52" transform="translate(178.89 225.05) scale(0.33)" xlink:href="#j"/><use width="66" height="40.52" transform="translate(192.21 232.69) scale(0.33)" xlink:href="#j"/><use width="66" height="40.52" transform="translate(205.53 240.32) scale(0.33)" xlink:href="#j"/><polygon class="e" points="205.63 261.82 229.66 247.95 240.47 254.19 216.44 268.06 205.63 261.82"/><polygon class="f" points="216.44 268.86 216.44 268.06 240.47 254.19 240.47 254.98 216.44 268.86"/><polygon class="a" points="216.44 268.86 205.63 262.62 205.63 261.82 216.44 268.06 216.44 268.86"/><use width="66" height="40.52" transform="translate(112.38 202.16) scale(0.33)" xlink:href="#j"/><use width="66" height="40.52" transform="translate(125.7 209.79) scale(0.33)" xlink:href="#j"/><use width="66" height="40.52" transform="translate(139.02 217.42) scale(0.33)" xlink:href="#j"/><use width="66" height="40.52" transform="translate(152.35 225.05) scale(0.33)" xlink:href="#j"/><use width="66" height="40.52" transform="translate(165.67 232.69) scale(0.33)" xlink:href="#j"/><use width="66" height="40.52" transform="translate(178.99 240.32) scale(0.33)" xlink:href="#j"/><use width="66" height="40.52" transform="translate(192.31 247.95) scale(0.33)" xlink:href="#j"/><use width="66" height="40.52" transform="translate(99.16 209.79) scale(0.33)" xlink:href="#j"/><use width="66" height="40.52" transform="translate(112.48 217.42) scale(0.33)" xlink:href="#j"/><use width="66" height="40.52" transform="translate(125.81 225.05) scale(0.33)" xlink:href="#j"/><use width="66" height="40.52" transform="translate(139.13 232.69) scale(0.33)" xlink:href="#j"/><use width="66" height="40.52" transform="translate(152.45 240.32) scale(0.33)" xlink:href="#j"/><polygon class="e" points="165.77 254.19 176.58 247.95 214.03 269.46 203.22 275.7 165.77 254.19"/><polygon class="f" points="203.22 276.49 203.22 275.7 214.03 269.46 214.03 270.25 203.22 276.49"/><polygon class="a" points="203.22 276.49 165.77 254.98 165.77 254.19 203.22 275.7 203.22 276.49"/><use width="66" height="40.52" transform="translate(85.94 217.42) scale(0.33)" xlink:href="#j"/><use width="51.86" height="32.21" transform="translate(138.73 174.04) scale(0.33)" xlink:href="#b"/><use width="66" height="40.52" transform="translate(125.7 179.26) scale(0.33)" xlink:href="#j"/><use width="66" height="40.52" transform="translate(86.04 202.16) scale(0.33)" xlink:href="#j"/><use width="66" height="40.52" transform="translate(72.82 209.79) scale(0.33)" xlink:href="#j"/><use width="51.86" height="32.21" transform="translate(125.81 166.32) scale(0.33)" xlink:href="#b"/><use width="66" height="40.52" transform="translate(112.59 171.63) scale(0.33)" xlink:href="#j"/><polygon class="e" points="99.16 185.5 109.97 179.26 134.1 193.13 123.29 199.38 99.16 185.5"/><polygon class="f" points="123.29 200.17 123.29 199.38 134.1 193.13 134.1 193.93 123.29 200.17"/><polygon class="a" points="123.29 200.17 99.16 186.29 99.16 185.5 123.29 199.38 123.29 200.17"/><polygon class="e" points="86.15 193.13 96.96 186.89 120.88 200.77 110.07 207.01 86.15 193.13"/><polygon class="f" points="110.07 207.8 110.07 207.01 120.88 200.77 120.88 201.56 110.07 207.8"/><polygon class="a" points="110.07 207.8 86.15 193.93 86.15 193.13 110.07 207.01 110.07 207.8"/><use width="66" height="40.52" transform="translate(72.93 194.53) scale(0.33)" xlink:href="#j"/><use width="66" height="40.52" transform="translate(59.71 202.16) scale(0.33)" xlink:href="#j"/><polygon class="e" points="99.26 231.3 110.07 225.06 160.85 254.19 150.04 260.43 99.26 231.3"/><polygon class="f" points="150.04 261.23 150.04 260.43 160.85 254.19 160.85 254.98 150.04 261.23"/><polygon class="a" points="150.04 261.23 99.26 232.09 99.26 231.3 150.04 260.43 150.04 261.23"/><use width="66" height="40.52" transform="translate(152.55 255.58) scale(0.33)" xlink:href="#j"/><use width="66" height="40.52" transform="translate(165.87 263.22) scale(0.33)" xlink:href="#j"/><use width="66" height="40.52" transform="translate(179.2 270.85) scale(0.33)" xlink:href="#j"/><polygon class="j" points="92.04 241.84 128.44 262.85 104.18 276.86 67.78 255.85 92.04 241.84"/><path class="i" d="M296.81,91.38l-156-91c-1.83-1.06-3.43.17-3.56,2.74l-7.16,141.63c-.13,2.57,1.25,5.55,3.08,6.61l156,91c1.82,1.07,3.43-.17,3.56-2.74L299.89,98C300,95.42,298.63,92.45,296.81,91.38Z"/><path class="k" d="M285,233.55a1.92,1.92,0,0,1-.94-.29L139.36,148.88c-1.53-.89-2.73-3.5-2.62-5.69l6.55-127.93c.08-1.47.71-2.43,1.62-2.43a1.92,1.92,0,0,1,.94.29L290.51,97.51c1.53.89,2.73,3.49,2.62,5.69l-6.55,127.92c-.08,1.48-.71,2.43-1.62,2.43Z"/><path class="h" d="M144.91,13.33a1.42,1.42,0,0,1,.68.22L290.26,97.94c1.36.79,2.47,3.24,2.37,5.23L286.08,231.1c-.06,1.17-.51,2-1.12,2a1.42,1.42,0,0,1-.68-.22L139.61,148.45c-1.36-.8-2.47-3.24-2.37-5.23l6.55-127.93c.06-1.17.51-2,1.12-2m0-1c-1.16,0-2,1.1-2.12,2.91l-6.55,127.92c-.12,2.39,1.17,5.16,2.87,6.15l144.66,84.38a2.32,2.32,0,0,0,1.19.36c1.15,0,2-1.09,2.12-2.9l6.55-127.93c.12-2.39-1.17-5.16-2.87-6.15L146.1,12.69a2.42,2.42,0,0,0-1.19-.36Z"/><ellipse class="l" cx="149.78" cy="24.74" rx="1.6" ry="2.6" transform="translate(1.63 57.87) rotate(-21.99)"/><ellipse class="m" cx="155.13" cy="27.85" rx="1.6" ry="2.6" transform="translate(0.86 60.1) rotate(-21.99)"/><ellipse class="n" cx="160.47" cy="30.96" rx="1.6" ry="2.6" transform="translate(0.08 62.33) rotate(-21.99)"/><polygon class="o" points="278.12 218.05 144.92 141.36 150.44 47.73 281.46 123.93 278.12 218.05"/><polygon class="p" points="281.8 119.11 150.78 42.91 151.31 35.09 282.33 111.29 281.8 119.11"/><path class="q" d="M279.65,113.72a2.11,2.11,0,0,1-.14,1c-.35.8-1.22.8-1.95,0a3,3,0,0,1-.69-2.91.88.88,0,0,1,.94-.59"/><polygon class="h" points="277.93 112.14 278.54 111.23 277.51 110.26 277.93 112.14"/><path class="r" d="M155.78,42.11l-.08,1.19-.2-.11.21-3,.19.11-.09,1.32a.32.32,0,0,1,.21-.15.5.5,0,0,1,.31.08,1,1,0,0,1,.39.45,1.19,1.19,0,0,1,.1.6l-.09,1.28-.19-.11.09-1.24a.93.93,0,0,0-.08-.45.69.69,0,0,0-.3-.35.27.27,0,0,0-.32,0A.5.5,0,0,0,155.78,42.11Z"/><path class="r" d="M157.71,41.78l0,.62.4.23,0,.23-.39-.23-.09,1.18a.52.52,0,0,0,.24.51.34.34,0,0,0,.14,0v.21a.36.36,0,0,1-.2-.07.7.7,0,0,1-.28-.31.94.94,0,0,1-.08-.48l.08-1.21-.32-.19V42.1l.12.07c.15.08.23,0,.24-.16l0-.34Z"/><path class="r" d="M158.81,42.42l0,.62.4.23v.23l-.4-.23-.08,1.18a.49.49,0,0,0,.23.51.39.39,0,0,0,.14,0v.21a.32.32,0,0,1-.19-.07.67.67,0,0,1-.29-.31.94.94,0,0,1-.08-.48l.08-1.21-.32-.18v-.23l.12.07c.15.08.23,0,.24-.16l0-.34Z"/><path class="r" d="M159.57,46.36l-.19-.11.19-2.75.18.11,0,.39a.37.37,0,0,1,.21-.18.51.51,0,0,1,.38.07,1.22,1.22,0,0,1,.49.59,1.86,1.86,0,0,1,.13.84.88.88,0,0,1-.24.63.43.43,0,0,1-.53,0,1,1,0,0,1-.35-.34,1.59,1.59,0,0,1-.18-.4Zm1-.65a.7.7,0,0,0,.18-.5,1.44,1.44,0,0,0-.1-.66.88.88,0,0,0-.37-.46.31.31,0,0,0-.4,0,.72.72,0,0,0-.19.49,1.5,1.5,0,0,0,.11.67.91.91,0,0,0,.37.46A.31.31,0,0,0,160.56,45.71Z"/><path class="r" d="M161.17,45.94l.19,0a.88.88,0,0,0,.1.4.74.74,0,0,0,.29.29.31.31,0,0,0,.25.05.22.22,0,0,0,.12-.2.6.6,0,0,0-.24-.49l-.26-.22a.88.88,0,0,1-.33-.74.34.34,0,0,1,.18-.32.41.41,0,0,1,.38,0,1,1,0,0,1,.38.41,1.19,1.19,0,0,1,.13.44l-.18,0a.73.73,0,0,0-.08-.33.67.67,0,0,0-.27-.28.26.26,0,0,0-.23,0,.21.21,0,0,0-.12.19.54.54,0,0,0,.22.45l.25.22a1,1,0,0,1,.36.78.37.37,0,0,1-.17.32.38.38,0,0,1-.41,0,1,1,0,0,1-.41-.43A1.16,1.16,0,0,1,161.17,45.94Z"/><path class="r" d="M163,47.48a.11.11,0,0,1-.12,0,.3.3,0,0,1-.12-.13.29.29,0,0,1,0-.18.15.15,0,0,1,.06-.13.11.11,0,0,1,.12,0s.08.07.12.13a.29.29,0,0,1,0,.18C163,47.42,163,47.46,163,47.48Zm0-1.58a.36.36,0,0,1-.11-.13.39.39,0,0,1,0-.18c0-.07,0-.11.06-.13a.11.11,0,0,1,.12,0,.3.3,0,0,1,.12.13.39.39,0,0,1,0,.18c0,.06,0,.11-.06.13A.12.12,0,0,1,162.94,45.9Z"/><path class="r" d="M164.79,45.54l-1.31,2.29-.19-.11,1.31-2.29Z"/><path class="r" d="M166,46.24l-1.3,2.28-.19-.11,1.3-2.28Z"/><path class="r" d="M167,47.81l.2.12.35,1.93.52-1.42.2.11-.64,1.68-.21-.12-.35-1.94-.57,1.4-.21-.12-.38-2.27.22.13.3,1.9Z"/><path class="r" d="M169.45,49.25l.21.12L170,51.3l.52-1.43.21.12-.65,1.67-.2-.12-.35-1.93L169,51l-.21-.12-.37-2.27.21.12.3,1.91Z"/><path class="r" d="M171.92,50.69l.21.12.34,1.93.53-1.43.2.12-.65,1.67-.2-.12L172,51.05l-.57,1.4-.21-.12-.38-2.27.21.12.3,1.91Z"/><path class="r" d="M173.36,53.59a.3.3,0,0,1-.12-.13.46.46,0,0,1,0-.19.17.17,0,0,1,.06-.12s.08,0,.13,0a.31.31,0,0,1,.11.14.3.3,0,0,1,0,.18.15.15,0,0,1-.06.13S173.41,53.61,173.36,53.59Z"/><path class="r" d="M174.21,54.06,174,54l.21-3,.19.11Z"/><path class="r" d="M175.91,54.39l.17.18a.51.51,0,0,1-.27.3.52.52,0,0,1-.45-.08,1.25,1.25,0,0,1-.5-.58,1.71,1.71,0,0,1-.17-.9.84.84,0,0,1,.26-.62.43.43,0,0,1,.52,0,1.22,1.22,0,0,1,.51.58,1.8,1.8,0,0,1,.14.83.54.54,0,0,0,0,.08l-1.23-.71v0a1.29,1.29,0,0,0,.13.64.88.88,0,0,0,.37.43.4.4,0,0,0,.34.06A.4.4,0,0,0,175.91,54.39Zm-1-1.11,1,.59a1.24,1.24,0,0,0-.11-.54,1,1,0,0,0-.36-.41.34.34,0,0,0-.37,0A.51.51,0,0,0,174.91,53.28Z"/><path class="r" d="M177.43,53.89l.21.12.34,1.93.52-1.42.21.11-.65,1.68-.2-.12-.35-1.94-.57,1.4-.21-.12-.38-2.27.21.13.3,1.9Z"/><path class="r" d="M178.92,56.68a.9.9,0,0,1-.11-.47c0-.31.19-.42.51-.31l.41.16c.11,0,.17,0,.18-.1a.84.84,0,0,0-.08-.38.78.78,0,0,0-.28-.29.34.34,0,0,0-.31,0,.32.32,0,0,0-.15.26l-.18-.16a.41.41,0,0,1,.22-.34.5.5,0,0,1,.43.07,1.19,1.19,0,0,1,.43.46,1.24,1.24,0,0,1,.11.57l-.07,1c0,.11,0,.23,0,.35l-.18-.11a2,2,0,0,1,0-.35.32.32,0,0,1-.21.15.47.47,0,0,1-.35-.07A1,1,0,0,1,178.92,56.68Zm.09-.36a.69.69,0,0,0,.07.3.58.58,0,0,0,.24.25.37.37,0,0,0,.37,0,.48.48,0,0,0,.18-.39v-.24h-.08a.33.33,0,0,1-.13,0l-.34-.13C179.13,56,179,56.1,179,56.32Z"/><path class="r" d="M180.36,57.76l.19.05a1,1,0,0,0,.13.49.94.94,0,0,0,.32.36c.19.11.34.12.43,0a.64.64,0,0,0,.15-.46l0-.36a.31.31,0,0,1-.2.16.44.44,0,0,1-.35-.07,1.2,1.2,0,0,1-.47-.56,1.53,1.53,0,0,1-.15-.79.74.74,0,0,1,.24-.57.42.42,0,0,1,.51,0,.87.87,0,0,1,.33.3,1.22,1.22,0,0,1,.17.39l0-.35.19.11-.12,1.83a.91.91,0,0,1-.2.57c-.14.14-.34.14-.59,0a1.16,1.16,0,0,1-.45-.48A1.24,1.24,0,0,1,180.36,57.76Zm.38-.45a.92.92,0,0,0,.36.43.31.31,0,0,0,.39,0,.63.63,0,0,0,.17-.45,1.36,1.36,0,0,0-.1-.6.84.84,0,0,0-.36-.42c-.15-.09-.28-.1-.38,0a.55.55,0,0,0-.18.44A1.25,1.25,0,0,0,180.74,57.31Z"/><path class="r" d="M182.49,57.08a.48.48,0,0,1,.55,0,1.24,1.24,0,0,1,.52.6,1.78,1.78,0,0,1,.17.88.76.76,0,0,1-.27.62.5.5,0,0,1-.56,0,1.39,1.39,0,0,1-.51-.6,1.69,1.69,0,0,1-.17-.88A.76.76,0,0,1,182.49,57.08Zm0,1.43a.93.93,0,0,0,.38.44.35.35,0,0,0,.4,0,.6.6,0,0,0,.21-.5,1.39,1.39,0,0,0-.12-.7.93.93,0,0,0-.38-.44.35.35,0,0,0-.41,0,.64.64,0,0,0-.2.51A1.35,1.35,0,0,0,182.54,58.51Z"/><path class="r" d="M184.35,58.74l-.08,1.17-.2-.11.14-2,.19.11,0,.34c.12-.2.29-.23.53-.1a.94.94,0,0,1,.39.46,1.17,1.17,0,0,1,.1.59l-.09,1.29-.19-.12.09-1.24a1,1,0,0,0-.08-.45.66.66,0,0,0-.3-.34.27.27,0,0,0-.33,0A.51.51,0,0,0,184.35,58.74Z"/><path class="r" d="M186,60.91a.36.36,0,0,1-.11-.13.39.39,0,0,1,0-.18.15.15,0,0,1,.06-.13.11.11,0,0,1,.12,0,.3.3,0,0,1,.12.13.46.46,0,0,1,0,.19c0,.06,0,.1-.06.12A.12.12,0,0,1,186,60.91Z"/><path class="r" d="M187.62,60.16a.84.84,0,0,0-.32-.35.35.35,0,0,0-.41,0,.69.69,0,0,0-.21.51,1.43,1.43,0,0,0,.13.68.89.89,0,0,0,.37.45.35.35,0,0,0,.36,0,.39.39,0,0,0,.18-.23l.16.19a.46.46,0,0,1-.25.29.49.49,0,0,1-.46-.06,1.32,1.32,0,0,1-.52-.61,1.62,1.62,0,0,1-.16-.87.77.77,0,0,1,.26-.62.5.5,0,0,1,.56,0,1.21,1.21,0,0,1,.43.44,1.42,1.42,0,0,1,.18.56h-.17A1.31,1.31,0,0,0,187.62,60.16Z"/><path class="r" d="M188.42,60.53a.5.5,0,0,1,.56,0,1.28,1.28,0,0,1,.51.6,1.68,1.68,0,0,1,.17.88.76.76,0,0,1-.27.62.5.5,0,0,1-.56,0,1.39,1.39,0,0,1-.51-.6,1.8,1.8,0,0,1-.17-.88A.76.76,0,0,1,188.42,60.53Zm.05,1.43a.93.93,0,0,0,.38.44.36.36,0,0,0,.41,0,.67.67,0,0,0,.21-.5,1.51,1.51,0,0,0-.13-.7.92.92,0,0,0-.38-.44.33.33,0,0,0-.4,0,.61.61,0,0,0-.21.51A1.35,1.35,0,0,0,188.47,62Z"/><path class="r" d="M190.2,63.36l-.19-.11.13-2,.19.11,0,.33a.27.27,0,0,1,.2-.16.42.42,0,0,1,.31.07.86.86,0,0,1,.3.3,1,1,0,0,1,.15.42c.12-.24.31-.28.56-.13a.9.9,0,0,1,.37.4,1.22,1.22,0,0,1,.11.62l-.09,1.3-.19-.11.09-1.27a1,1,0,0,0-.08-.44.67.67,0,0,0-.28-.32.27.27,0,0,0-.32,0,.48.48,0,0,0-.15.35l-.08,1.2-.19-.11.09-1.27a.93.93,0,0,0-.08-.44.73.73,0,0,0-.28-.32.27.27,0,0,0-.32,0,.44.44,0,0,0-.15.35Z"/><polygon class="s" points="176.68 169.09 287.76 123.19 247.8 165.59 243.54 166.32 176.68 169.09"/></symbol><symbol id="av" viewBox="0 0 21.16 17.82"><polygon class="h" points="0 0 0.16 5.61 21.16 17.82 21.16 12.31 0 0"/><polygon class="b" points="0.49 0.87 0.64 5.25 15.38 13.77 15.38 9.47 0.49 0.87"/><polygon class="t" points="17.45 10.74 17.45 15.04 16.07 14.25 16.07 9.95 17.45 10.74"/><polygon class="w" points="19.56 12.02 19.56 16.31 18.18 15.52 18.18 11.22 19.56 12.02"/></symbol><symbol id="ax" viewBox="0 0 6.67 7.71"><polygon class="t" points="0 0 0 3.85 6.67 7.71 6.67 3.85 0 0"/><polygon class="u" points="0 0.52 6.67 4.37 6.67 5.14 0 1.3 0 0.52"/><polygon class="v" points="0 3.43 6.67 7.29 6.67 7.43 0 3.58 0 3.43"/></symbol><symbol id="bc" viewBox="0 0 8.15 5.95"><polygon class="a" points="0 0 0.06 1.73 5.88 5.09 5.88 3.39 0 0"/><ellipse class="b" cx="7.29" cy="4.96" rx="0.64" ry="1.14" transform="translate(-1.52 5.38) rotate(-36.95)"/><ellipse class="c" cx="7.29" cy="4.96" rx="0.43" ry="0.76" transform="translate(-1.52 5.38) rotate(-36.95)"/></symbol><symbol id="bb" viewBox="0 0 10.6 18.87"><polygon class="d" points="0 0 10.46 6.04 10.6 18.87 0 12.75 0 0"/><use width="8.15" height="5.95" transform="translate(1.2 3.01) scale(1 1.05)" xlink:href="#bc"/><use width="8.15" height="5.95" transform="translate(1.2 9.27)" xlink:href="#bc"/><use width="8.15" height="5.95" transform="translate(1.2 6.21)" xlink:href="#bc"/></symbol><symbol id="au" viewBox="0 0 231.21 171.61"><polygon class="x" points="0.21 57.3 132.21 133.51 132.21 171.61 0.21 95.4 0.21 57.3"/><polygon class="y" points="0 57.16 99 0 231 76.21 132 133.37 0 57.16"/><polygon class="z" points="231.21 114.46 231.21 76.35 132.21 133.51 132.21 171.61 231.21 114.46"/><polygon class="aa" points="127.85 135.22 127.85 152.81 98.5 135.87 98.5 118.92 127.85 135.22"/><polygon class="d" points="21.96 74.87 68.91 101.98 68.91 129.09 21.96 101.98 21.96 74.87"/><use width="21.16" height="17.82" transform="translate(24.28 88.22)" xlink:href="#av"/><use width="21.16" height="17.82" transform="translate(24.29 94.68)" xlink:href="#av"/><polygon class="a" points="17.54 73.14 17.54 100.04 5.89 93.32 5.86 66.39 17.54 73.14"/><polygon class="a" points="8.36 70.8 8.36 74.66 15.03 78.51 15.03 74.66 8.36 70.8"/><use width="6.67" height="7.71" transform="translate(8.36 71.32)" xlink:href="#ax"/><use width="6.67" height="7.71" transform="translate(8.36 75.92)" xlink:href="#ax"/><use width="6.67" height="7.71" transform="translate(8.36 83.62)" xlink:href="#ax"/><use width="6.67" height="7.71" transform="translate(8.36 88.22)" xlink:href="#ax"/><ellipse class="ab" cx="109.05" cy="150.34" rx="1.16" ry="2.05" transform="translate(-68.47 95.74) rotate(-36.95)"/><use width="10.6" height="18.87" transform="translate(71.49 103.47)" xlink:href="#bb"/><use width="10.6" height="18.87" transform="translate(83.83 110.64)" xlink:href="#bb"/><use width="10.6" height="18.87" transform="translate(71.49 118.09)" xlink:href="#bb"/><use width="10.6" height="18.87" transform="translate(83.83 125.27)" xlink:href="#bb"/><ellipse class="ac" cx="51.2" cy="112.58" rx="1.62" ry="2.87" transform="translate(-57.39 53.39) rotate(-36.95)"/><ellipse class="ac" cx="56.95" cy="115.9" rx="1.62" ry="2.87" transform="translate(-58.23 57.51) rotate(-36.95)"/><ellipse class="ac" cx="62.69" cy="118.92" rx="1.62" ry="2.87" transform="translate(-58.9 61.57) rotate(-36.95)"/></symbol></defs><rect class="ad" x="313.54" y="96.2" width="268.33" height="62.32"/><path class="b" d="M336.11,145.67h-1.92l-.15-1.08a3,3,0,0,1-1.16.93,4.12,4.12,0,0,1-1.83.38,5.24,5.24,0,0,1-3.83-1.54,5.37,5.37,0,0,1-1.55-4,5.3,5.3,0,0,1,1.61-4,5.45,5.45,0,0,1,3.92-1.55,5.06,5.06,0,0,1,3.29,1,4.79,4.79,0,0,1,1.63,2.3l-2.28.8a2.55,2.55,0,0,0-.82-1.27,2.62,2.62,0,0,0-1.82-.59,3.15,3.15,0,0,0-2.18.85,3.12,3.12,0,0,0-.95,2.48,3.29,3.29,0,0,0,.91,2.48,3.11,3.11,0,0,0,2.28.89,2.71,2.71,0,0,0,1.83-.56,2.19,2.19,0,0,0,.8-1.17h-3.2v-2h5.42Z"/><path class="b" d="M344.85,145.67H338.1V135h6.74v2.23h-4.37v2h4v2.09h-4v2h4.38Z"/><path class="b" d="M355.17,137.3h-3.28v8.37h-2.37V137.3h-3.27V135h8.92Z"/><path class="b" d="M362.43,141.29v4.38h-2.28V134.81h2.28v3.88a3.06,3.06,0,0,1,4,.16,3.17,3.17,0,0,1,.72,2.14v4.68h-2.28v-4.29a1.42,1.42,0,0,0-.31-.94,1.17,1.17,0,0,0-.91-.35,1.14,1.14,0,0,0-.86.34A1.24,1.24,0,0,0,362.43,141.29Z"/><path class="b" d="M371.81,136v2.17h1.45v2h-1.45V143c0,.52.27.78.82.78a3.46,3.46,0,0,0,.6-.07v1.88a2.68,2.68,0,0,1-1.18.21,2.54,2.54,0,0,1-1.83-.64,2.34,2.34,0,0,1-.66-1.76v-3.19h-1.32v-2h.37a1.08,1.08,0,0,0,.86-.33,1.29,1.29,0,0,0,.3-.88v-1Z"/><path class="b" d="M377.54,136v2.17H379v2h-1.45V143c0,.52.27.78.82.78a3.46,3.46,0,0,0,.6-.07v1.88a2.68,2.68,0,0,1-1.18.21,2.54,2.54,0,0,1-1.83-.64,2.34,2.34,0,0,1-.66-1.76v-3.19H374v-2h.37a1.08,1.08,0,0,0,.86-.33,1.29,1.29,0,0,0,.3-.88v-1Z"/><path class="b" d="M382.8,148.52h-2.28V138.21h2.21V139a2,2,0,0,1,.84-.67,3.25,3.25,0,0,1,1.35-.27,3.15,3.15,0,0,1,2.52,1.08,4.12,4.12,0,0,1,.94,2.8,4,4,0,0,1-1,2.81,3.25,3.25,0,0,1-2.55,1.1,2.49,2.49,0,0,1-2-.75Zm2.86-5.21a1.9,1.9,0,0,0,.49-1.37,1.86,1.86,0,0,0-.49-1.37,1.67,1.67,0,0,0-1.21-.48,1.62,1.62,0,0,0-1.19.48,1.82,1.82,0,0,0-.49,1.37,1.85,1.85,0,0,0,.49,1.37,1.62,1.62,0,0,0,1.19.48A1.67,1.67,0,0,0,385.66,143.31Z"/><path class="b" d="M389.61,139.58a1.5,1.5,0,0,1,3,0,1.49,1.49,0,0,1-2.56,1A1.47,1.47,0,0,1,389.61,139.58Zm0,4.72a1.5,1.5,0,0,1,3,0,1.42,1.42,0,0,1-.45,1,1.5,1.5,0,0,1-2.55-1Z"/><path class="b" d="M401,134.82l-5.4,11.06h-2l5.38-11.06Z"/><path class="b" d="M408.17,134.82l-5.4,11.06h-2l5.39-11.06Z"/><path class="b" d="M411.45,145.67h-2.28V134.81h2.28Z"/><path class="b" d="M416.88,138a3.89,3.89,0,0,1,2.83,1.11,4.13,4.13,0,0,1,0,5.68,4.11,4.11,0,0,1-5.65,0,3.82,3.82,0,0,1-1.14-2.83,3.77,3.77,0,0,1,1.14-2.83A3.85,3.85,0,0,1,416.88,138Zm0,5.8a1.58,1.58,0,0,0,1.19-.48,1.79,1.79,0,0,0,.49-1.37,1.82,1.82,0,0,0-.49-1.38,1.65,1.65,0,0,0-1.19-.47,1.63,1.63,0,0,0-1.18.48,1.83,1.83,0,0,0-.5,1.37,1.86,1.86,0,0,0,.5,1.37A1.63,1.63,0,0,0,416.88,143.79Z"/><path class="b" d="M425.75,140.09a1.67,1.67,0,0,0-1.23.49A1.91,1.91,0,0,0,424,142a1.79,1.79,0,0,0,.5,1.35,1.69,1.69,0,0,0,1.24.49,1.53,1.53,0,0,0,1.54-1.1l2,.61a3.39,3.39,0,0,1-1.21,1.83,3.56,3.56,0,0,1-2.34.77,4,4,0,0,1-2.85-1.12,3.78,3.78,0,0,1-1.16-2.83,3.85,3.85,0,0,1,3.93-4,3.69,3.69,0,0,1,2.39.75,3.35,3.35,0,0,1,1.2,1.84l-2,.62a1.58,1.58,0,0,0-.51-.8A1.49,1.49,0,0,0,425.75,140.09Z"/><path class="b" d="M430.26,143.61a2,2,0,0,1,.62-1.52,2.94,2.94,0,0,1,1.59-.73l1.75-.27c.36-.05.54-.21.54-.51a.7.7,0,0,0-.29-.57,1.43,1.43,0,0,0-1.71.09,1.11,1.11,0,0,0-.37.77l-2-.41a2.62,2.62,0,0,1,.92-1.7,4.12,4.12,0,0,1,4.85,0,2.84,2.84,0,0,1,.8,2.07v3.65a6.09,6.09,0,0,0,.09,1.15H435a3.6,3.6,0,0,1-.08-.84,2.28,2.28,0,0,1-2.1,1,2.58,2.58,0,0,1-1.88-.67A2.12,2.12,0,0,1,430.26,143.61Zm3.14.62a1.36,1.36,0,0,0,1-.35,1.45,1.45,0,0,0,.39-1.13v-.33l-1.41.22c-.56.09-.84.36-.84.82a.73.73,0,0,0,.22.54A.89.89,0,0,0,433.4,144.23Z"/><path class="b" d="M441.18,145.67H438.9V134.81h2.28Z"/><path class="b" d="M445.47,141.29v4.38h-2.28V134.81h2.28v3.88a3.06,3.06,0,0,1,4,.16,3.17,3.17,0,0,1,.72,2.14v4.68h-2.28v-4.29a1.42,1.42,0,0,0-.31-.94,1.17,1.17,0,0,0-.91-.35,1.14,1.14,0,0,0-.86.34A1.24,1.24,0,0,0,445.47,141.29Z"/><path class="b" d="M455.54,138a3.85,3.85,0,0,1,2.82,1.11,4.11,4.11,0,0,1,0,5.68,4,4,0,0,1-6.78-2.84,3.8,3.8,0,0,1,1.13-2.83A3.88,3.88,0,0,1,455.54,138Zm0,5.8a1.61,1.61,0,0,0,1.19-.48,1.83,1.83,0,0,0,.48-1.37,1.85,1.85,0,0,0-.48-1.38,1.69,1.69,0,0,0-1.19-.47,1.65,1.65,0,0,0-1.19.48,1.82,1.82,0,0,0-.49,1.37,1.85,1.85,0,0,0,.49,1.37A1.65,1.65,0,0,0,455.54,143.79Z"/><path class="b" d="M460.35,143.55l1.94-.34a1,1,0,0,0,.32.71,1.11,1.11,0,0,0,.85.29,1,1,0,0,0,.64-.18.59.59,0,0,0,.23-.46c0-.3-.25-.51-.74-.61l-.85-.2a3,3,0,0,1-1.69-.85,2.15,2.15,0,0,1-.54-1.45,2.26,2.26,0,0,1,.82-1.75,3.5,3.5,0,0,1,4.23,0,2.42,2.42,0,0,1,.81,1.52l-1.9.34a1,1,0,0,0-.3-.65,1.06,1.06,0,0,0-.76-.26.92.92,0,0,0-.57.18.57.57,0,0,0-.24.47c0,.29.19.48.58.55l1,.2a3,3,0,0,1,1.71.85,2.07,2.07,0,0,1,.59,1.49,2.36,2.36,0,0,1-.78,1.77,3,3,0,0,1-2.19.75,4.09,4.09,0,0,1-1.46-.25,2.27,2.27,0,0,1-1-.62,3.37,3.37,0,0,1-.51-.76A2.23,2.23,0,0,1,460.35,143.55Z"/><path class="b" d="M470.68,136v2.17h1.46v2h-1.46V143c0,.52.28.78.83.78a3.46,3.46,0,0,0,.6-.07v1.88a2.73,2.73,0,0,1-1.19.21,2.51,2.51,0,0,1-1.82-.64,2.34,2.34,0,0,1-.67-1.76v-3.19h-1.32v-2h.38a1.08,1.08,0,0,0,.86-.33,1.28,1.28,0,0,0,.29-.88v-1Z"/><path class="b" d="M473.73,139.58a1.5,1.5,0,0,1,3,0,1.49,1.49,0,0,1-2.56,1A1.47,1.47,0,0,1,473.73,139.58Zm0,4.72a1.5,1.5,0,0,1,3,0,1.42,1.42,0,0,1-.45,1,1.5,1.5,0,0,1-2.55-1Z"/><path class="b" d="M480.78,141.44l-1-1.56,2.4-2h-4.07v-2h7v1.83l-2.4,1.85a2.89,2.89,0,0,1,2.73,3,3,3,0,0,1-1,2.32,3.89,3.89,0,0,1-2.78,1,4,4,0,0,1-2.69-.91,3.22,3.22,0,0,1-1.17-2.21l2.28-.42a1.65,1.65,0,0,0,.46,1.1,1.48,1.48,0,0,0,1.1.43,1.44,1.44,0,0,0,1.06-.39,1.26,1.26,0,0,0,.4-.94,1.19,1.19,0,0,0-.42-1,1.56,1.56,0,0,0-1-.34A1.83,1.83,0,0,0,480.78,141.44Z"/><path class="b" d="M486.33,140.81a6.09,6.09,0,0,1,.85-3.43,4.12,4.12,0,0,1,6.62,0,6.09,6.09,0,0,1,.85,3.43,6.17,6.17,0,0,1-.85,3.44,4.13,4.13,0,0,1-6.62,0A6.17,6.17,0,0,1,486.33,140.81Zm2.37,0a5,5,0,0,0,.36,2.11,1.58,1.58,0,0,0,2.85,0,4.81,4.81,0,0,0,.37-2.11,4.89,4.89,0,0,0-.37-2.12,1.58,1.58,0,0,0-2.85,0A5.12,5.12,0,0,0,488.7,140.81Z"/><path class="b" d="M495.73,140.81a6.09,6.09,0,0,1,.86-3.43,4.11,4.11,0,0,1,6.61,0,6.09,6.09,0,0,1,.86,3.43,6.17,6.17,0,0,1-.86,3.44,4.12,4.12,0,0,1-6.61,0A6.17,6.17,0,0,1,495.73,140.81Zm2.37,0a5,5,0,0,0,.36,2.11,1.58,1.58,0,0,0,2.85,0,4.79,4.79,0,0,0,.38-2.11,4.87,4.87,0,0,0-.38-2.12,1.58,1.58,0,0,0-2.85,0A5.12,5.12,0,0,0,498.1,140.81Z"/><path class="b" d="M505.14,140.81a6.09,6.09,0,0,1,.85-3.43,4.12,4.12,0,0,1,6.62,0,6.09,6.09,0,0,1,.85,3.43,6.17,6.17,0,0,1-.85,3.44,4.13,4.13,0,0,1-6.62,0A6.17,6.17,0,0,1,505.14,140.81Zm2.37,0a5,5,0,0,0,.36,2.11,1.58,1.58,0,0,0,2.85,0,4.81,4.81,0,0,0,.37-2.11,4.89,4.89,0,0,0-.37-2.12,1.58,1.58,0,0,0-2.85,0A5.12,5.12,0,0,0,507.51,140.81Z"/><path class="b" d="M521.1,134.82l-5.4,11.06h-2l5.39-11.06Z"/><path class="b" d="M526,140.13h-1.62v5.54h-2.28v-5.54H520.9v-1.92h1.19v-.64a2.86,2.86,0,0,1,.76-2.09,2.74,2.74,0,0,1,2.09-.79,2.77,2.77,0,0,1,1.08.16v1.86a3.47,3.47,0,0,0-.68-.07,1.09,1.09,0,0,0-.68.22,1,1,0,0,0-.29.79v.56H526Z"/><path class="b" d="M531.93,138.21v2.25a3.82,3.82,0,0,0-.72-.07,1.66,1.66,0,0,0-1.25.49,2.11,2.11,0,0,0-.49,1.54v3.25h-2.28v-7.46h2.2v1a1.62,1.62,0,0,1,.83-.82,2.65,2.65,0,0,1,1.11-.26A2.6,2.6,0,0,1,531.93,138.21Z"/><path class="b" d="M533.5,136.88a1.34,1.34,0,0,1,.93-2.28,1.34,1.34,0,0,1,1,.39,1.34,1.34,0,0,1,0,1.89,1.34,1.34,0,0,1-1,.39A1.27,1.27,0,0,1,533.5,136.88Zm2.09,8.79h-2.28v-7.46h2.28Z"/><path class="b" d="M542.46,143l1.9.54a3.13,3.13,0,0,1-1.18,1.71,3.71,3.71,0,0,1-2.25.67,4,4,0,0,1-2.78-6.82,3.56,3.56,0,0,1,2.61-1.09,3.68,3.68,0,0,1,2.74,1,3.82,3.82,0,0,1,1,2.81,3,3,0,0,1,0,.71h-5.19a1.4,1.4,0,0,0,.53,1A1.79,1.79,0,0,0,541,144,1.42,1.42,0,0,0,542.46,143Zm-3.15-1.93h3a1.34,1.34,0,0,0-.39-.88,1.51,1.51,0,0,0-1.11-.38,1.42,1.42,0,0,0-1,.39A1.39,1.39,0,0,0,539.31,141.05Z"/><path class="b" d="M548.25,141.4v4.27H546v-7.46h2.2v.86a1.91,1.91,0,0,1,.88-.77,2.78,2.78,0,0,1,1.21-.28,2.48,2.48,0,0,1,2,.83A3.25,3.25,0,0,1,553,141v4.68h-2.28v-4.29a1.41,1.41,0,0,0-.3-.94,1.17,1.17,0,0,0-.91-.35,1.13,1.13,0,0,0-.89.37A1.31,1.31,0,0,0,548.25,141.4Z"/><path class="b" d="M562.23,134.81v9.52c0,.46,0,.9.06,1.34H560.1A4.37,4.37,0,0,1,560,145a2,2,0,0,1-.8.64,2.92,2.92,0,0,1-1.2.24,3.47,3.47,0,0,1-2.64-1.1,4.29,4.29,0,0,1,0-5.59A3.37,3.37,0,0,1,558,138a2.21,2.21,0,0,1,2,.76v-4Zm-5.09,5.76a1.82,1.82,0,0,0-.49,1.37,1.85,1.85,0,0,0,.49,1.37,1.72,1.72,0,0,0,2.38,0,1.85,1.85,0,0,0,.49-1.37,1.82,1.82,0,0,0-.49-1.37,1.72,1.72,0,0,0-2.38,0Z"/><path class="b" d="M563.67,143.55l1.93-.34a1.05,1.05,0,0,0,.33.71,1.1,1.1,0,0,0,.84.29,1,1,0,0,0,.65-.18.58.58,0,0,0,.22-.46c0-.3-.24-.51-.73-.61l-.86-.2a3,3,0,0,1-1.68-.85,2.1,2.1,0,0,1-.54-1.45,2.26,2.26,0,0,1,.82-1.75,3.5,3.5,0,0,1,4.23,0,2.35,2.35,0,0,1,.8,1.52l-1.89.34a1,1,0,0,0-.3-.65,1.06,1.06,0,0,0-.76-.26.92.92,0,0,0-.57.18.57.57,0,0,0-.24.47c0,.29.19.48.58.55l1,.2a3.08,3.08,0,0,1,1.71.85,2.11,2.11,0,0,1,.59,1.49,2.36,2.36,0,0,1-.78,1.77,3,3,0,0,1-2.19.75,4.09,4.09,0,0,1-1.46-.25,2.27,2.27,0,0,1-1-.62,3.37,3.37,0,0,1-.51-.76A2.23,2.23,0,0,1,563.67,143.55Z"/><path class="k" d="M653.71,270.54a5.84,5.84,0,0,0-5.84-5.84l-.47,0a7.35,7.35,0,0,0-12.64-2,3,3,0,0,0-4.55,1.94h-.06a5.89,5.89,0,0,0-.68,11.75l18.94,0A5.84,5.84,0,0,0,653.71,270.54Z"/><circle class="ae" cx="178.13" cy="166.65" r="117.96"/><polygon class="af" points="146.66 152.34 163.84 145.79 260.9 197.86 191.29 235.54 163.53 235.54 146.66 152.34"/><use width="299.9" height="323.56" transform="translate(84.22 79.7) scale(0.48 0.48)" xlink:href="#a"/><circle class="ag" cx="717.47" cy="165.27" r="117.96"/><path class="k" d="M805.26,115.05a9,9,0,0,0-9-9c-.25,0-.49,0-.73,0a11.33,11.33,0,0,0-19.46-3.1,4.56,4.56,0,0,0-2.5-.74,4.61,4.61,0,0,0-4.52,3.72H769a9.08,9.08,0,0,0-1.05,18.09L797.1,124A9,9,0,0,0,805.26,115.05Z"/><use width="231.21" height="171.61" transform="matrix(0.74, 0, 0, 0.74, 631.73, 108.81)" xlink:href="#au"/><path class="k" d="M692.89,84a5.08,5.08,0,0,0-5.08-5.08l-.41,0a6.39,6.39,0,0,0-11-1.75,2.6,2.6,0,0,0-4,1.69h-.05a5.13,5.13,0,0,0-.59,10.22l16.48,0A5.08,5.08,0,0,0,692.89,84Z"/><path class="b" d="M633.88,81.65h-374a118.23,118.23,0,0,1,25.27,35.42l2.42,2.71H633.88L652,100.71Z"/><path class="k" d="M377.31,110.18h-4.13v-7.33h-7.36v7.33h-4.11V91.75h4.11V99h7.36V91.75h4.13Z"/><path class="k" d="M395.25,95.67h-5.69v14.51h-4.11V95.67h-5.67V91.75h15.47Z"/><path class="k" d="M412.23,95.67h-5.7v14.51h-4.1V95.67h-5.67V91.75h15.47Z"/><path class="k" d="M421.67,103.55h-2.84v6.63h-4.11V91.75h6.95a6.35,6.35,0,0,1,4.56,1.66,6,6,0,0,1,0,8.5A6.42,6.42,0,0,1,421.67,103.55ZM418.86,100h2.39a2.81,2.81,0,0,0,1.9-.63,2.4,2.4,0,0,0,0-3.44,2.78,2.78,0,0,0-1.91-.63h-2.39Z"/><path class="k" d="M445.92,110.18l-3.3-6.86h-1.45v6.86h-4.11V91.75h7.3a5.88,5.88,0,0,1,4.33,1.63,5.6,5.6,0,0,1,1.65,4.14,5.46,5.46,0,0,1-1,3.23,5.3,5.3,0,0,1-2.68,2l3.75,7.46Zm-4.75-10.4h2.41a2.76,2.76,0,0,0,1.93-.61,2.09,2.09,0,0,0,.67-1.63,2,2,0,0,0-.67-1.63,2.81,2.81,0,0,0-1.93-.6h-2.41Z"/><path class="k" d="M461.29,105.53l3.3.93a5.35,5.35,0,0,1-2,3,6.38,6.38,0,0,1-3.9,1.16,7,7,0,0,1-4.83-11.8,6.22,6.22,0,0,1,4.54-1.9,6.38,6.38,0,0,1,4.75,1.75,6.67,6.67,0,0,1,1.73,4.88,5.49,5.49,0,0,1-.08,1.22h-9a2.42,2.42,0,0,0,.91,1.78,3.06,3.06,0,0,0,2,.72A2.49,2.49,0,0,0,461.29,105.53Zm-5.46-3.36H461a2.26,2.26,0,0,0-.69-1.53,2.53,2.53,0,0,0-1.91-.65,2.46,2.46,0,0,0-1.82.67A2.42,2.42,0,0,0,455.83,102.17Z"/><path class="k" d="M480.09,115.12h-3.88v-6a3.87,3.87,0,0,1-3.38,1.33,6,6,0,0,1-4.59-1.92,6.8,6.8,0,0,1-1.8-4.87,6.88,6.88,0,0,1,1.74-4.82,5.79,5.79,0,0,1,4.5-1.91,5,5,0,0,1,2.43.5,2.84,2.84,0,0,1,1.21,1.08V97.26h3.77Zm-8.8-13.78a3.73,3.73,0,0,0,0,4.74,2.93,2.93,0,0,0,4.13,0,3.76,3.76,0,0,0,0-4.74,3,3,0,0,0-4.13,0Z"/><path class="k" d="M491.89,110.18a6.33,6.33,0,0,1-.1-1.3,3,3,0,0,1-1.43,1.18,5.22,5.22,0,0,1-2,.41,4.62,4.62,0,0,1-3.6-1.45,5.12,5.12,0,0,1-1.31-3.6V97.26h3.95v7.33a2.35,2.35,0,0,0,.53,1.61,1.91,1.91,0,0,0,1.55.63,2.06,2.06,0,0,0,1.57-.62,2.19,2.19,0,0,0,.58-1.59V97.26h4v10.61a18.13,18.13,0,0,0,.13,2.31Z"/><path class="k" d="M507.46,105.53l3.31.93a5.36,5.36,0,0,1-2.06,3,6.38,6.38,0,0,1-3.9,1.16A7,7,0,0,1,500,98.77a6.2,6.2,0,0,1,4.54-1.9,6.34,6.34,0,0,1,4.74,1.75A6.67,6.67,0,0,1,511,103.5a5.49,5.49,0,0,1-.08,1.22h-9a2.35,2.35,0,0,0,.91,1.78,3,3,0,0,0,2,.72A2.47,2.47,0,0,0,507.46,105.53ZM502,102.17h5.18a2.36,2.36,0,0,0-.69-1.53,2.54,2.54,0,0,0-1.91-.65,2.46,2.46,0,0,0-1.82.67A2.49,2.49,0,0,0,502,102.17Z"/><path class="k" d="M512.48,106.51l3.36-.59a1.85,1.85,0,0,0,.56,1.23,2,2,0,0,0,1.46.51,1.68,1.68,0,0,0,1.12-.33,1,1,0,0,0,.39-.79c0-.52-.42-.88-1.27-1.07l-1.48-.33a5.21,5.21,0,0,1-2.91-1.47,3.64,3.64,0,0,1-.94-2.51,3.88,3.88,0,0,1,1.42-3,5.11,5.11,0,0,1,3.54-1.25,5.26,5.26,0,0,1,3.79,1.21,4.15,4.15,0,0,1,1.39,2.64l-3.28.59a1.82,1.82,0,0,0-.53-1.14,1.78,1.78,0,0,0-1.31-.44,1.6,1.6,0,0,0-1,.31,1,1,0,0,0-.42.81q0,.78,1,1l1.71.34a5.36,5.36,0,0,1,3,1.48,3.65,3.65,0,0,1,1,2.57,4.1,4.1,0,0,1-1.35,3.08,5.29,5.29,0,0,1-3.8,1.29,7.06,7.06,0,0,1-2.53-.42,4,4,0,0,1-1.69-1.08,5.53,5.53,0,0,1-.89-1.31A3.87,3.87,0,0,1,512.48,106.51Z"/><path class="k" d="M530.4,93.49v3.77h2.52v3.46H530.4v4.83c0,.9.47,1.35,1.43,1.35a4.54,4.54,0,0,0,1-.13v3.28a4.76,4.76,0,0,1-2.06.36,4.38,4.38,0,0,1-3.16-1.11,4,4,0,0,1-1.15-3v-5.53h-2.29V97.26h.65a1.85,1.85,0,0,0,1.49-.59,2.22,2.22,0,0,0,.51-1.52V93.49Z"/><circle class="ad" cx="279.75" cy="100.71" r="14.48"/><path class="b" d="M282.69,107h-3.36V98H276V95.71a4.32,4.32,0,0,0,2.56-.77,2.86,2.86,0,0,0,1.23-1.84h2.89Z"/><ellipse class="k" cx="717.47" cy="156.64" rx="31.52" ry="23.06" transform="matrix(0.99, -0.14, 0.14, 0.99, -14.7, 99.79)"/><path class="ah" d="M728,166.58l-1.58,1.31,3,1.92a3,3,0,0,0,3.31-.25l.61-.51a1.42,1.42,0,0,0-.06-2.44l-1.48-1,.74-.61,2.92,1.89,1.59-1.31-2.81-1.82a3,3,0,0,0-3.34.27l-.55.45a1.44,1.44,0,0,0,.07,2.45c2,1.33-.49-.32,1.39.9l-.77.64"/><path class="ah" d="M712.55,156a3.4,3.4,0,0,0,3.69-.71c2-1.64.24-3,.24-3L713,150l-6.22,5.15,1.73,1.13L710,155v2.21l2.57,1.67Zm.61-1.49-1.39-.89,1.43-1.18,1.39.9s.25.37-.32.84A1.33,1.33,0,0,1,713.16,154.49Z"/><path class="ah" d="M722.64,156.3l-1.76-1.15a3,3,0,0,0-3.31.26L713,159.18l1.77,1.15,1.09-.91,1.65,1.08-1.09.9,1.71,1.11,4.56-3.77A1.42,1.42,0,0,0,722.64,156.3ZM719.29,159,717.62,158l1.51-1.25s.34-.29.9.07l.6.39c.49.32.16.61.16.61L719.28,159Z"/><polygon class="ah" points="725.13 157.91 726.97 159.1 720.78 164.22 718.95 163.03 725.13 157.91"/><polygon class="ah" points="724.96 164.57 729.54 160.78 727.72 159.59 723.13 163.39 721.54 164.71 723.36 165.9 725.83 167.5 727.43 166.18 724.96 164.57"/><path class="ah" d="M695.89,148.08l7.15,4.64s4.65-5.87,11.61-5c1.45.26,6.32.86,7.79,7.23H723s-.17-6.8-5.92-9.78c-2.86-1.52-8.41-1.7-13.37-.4A27.15,27.15,0,0,0,695.89,148.08Z"/><path class="ah" d="M695.89,148.08l7.15,4.64s4.65-5.87,11.61-5c1.45.26,6.32.86,7.79,7.23H723s-.17-6.8-5.92-9.78c-2.86-1.52-8.41-1.7-13.37-.4A27.15,27.15,0,0,0,695.89,148.08Z"/><path class="ah" d="M695.89,148.08l7.15,4.64s4.65-5.87,11.61-5c1.45.26,6.32.86,7.79,7.23H723s-.17-6.8-5.92-9.78c-2.87-1.52-8.42-1.71-13.37-.41A26.81,26.81,0,0,0,695.89,148.08Z"/><path class="ah" d="M721.53,148.84l.62-.47a3.4,3.4,0,0,0-.57-.82L721,148A9.28,9.28,0,0,1,721.53,148.84Z"/><path class="ah" d="M718.82,149.81l-.58.43a6.49,6.49,0,0,1,.79.67l.58-.42A6.31,6.31,0,0,0,718.82,149.81Z"/><path class="ah" d="M718.2,145.38l.09.06.35-.56c-.28-.18-.59-.35-.92-.52l-.34.54A9.29,9.29,0,0,1,718.2,145.38Z"/><path class="ah" d="M715.42,148.33,715,149a8.69,8.69,0,0,1,1.09.26l.38-.61A10.88,10.88,0,0,0,715.42,148.33Z"/><path class="ah" d="M713.61,143.76l.19-.76c-.34-.05-.69-.11-1.08-.15l-.19.78C712.9,143.66,713.26,143.7,713.61,143.76Z"/><path class="ah" d="M711.54,148.22l-.2.8a10.25,10.25,0,0,1,1.15-.17l.19-.75A10.21,10.21,0,0,0,711.54,148.22Z"/><path class="ah" d="M707.41,149.7l.18.94a11.75,11.75,0,0,1,1.21-.73l-.16-.83A12.84,12.84,0,0,0,707.41,149.7Z"/><path class="ah" d="M707.6,143.69l-.11-.86c-.45,0-.89.06-1.32.1l.12.93C706.72,143.79,707.16,143.73,707.6,143.69Z"/><path class="ah" d="M701,145.15l-.67-1c-.55.2-1.18.44-1.5.58l.67,1Z"/><path class="ah" d="M705.06,151.45a9.15,9.15,0,0,0-1,1l.71,1c.26-.33.56-.7.92-1.08Z"/><polyline class="ai" points="224.81 434.33 224.81 448.81 636.92 448.81 636.8 434.33"/><rect class="k" x="382.94" y="436.72" width="95.85" height="23.66"/><path class="aj" d="M148,451.48,144.14,440h2.71l2.61,8.79h.15l2.56-8.79h2.59l-3.83,11.49Z"/><path class="aj" d="M163.37,449c-.34,1.65-1.86,2.7-4,2.7-2.68,0-4.25-1.69-4.25-4.54s1.61-4.63,4.22-4.63,4.12,1.65,4.12,4.43v.71h-6v.12a1.94,1.94,0,0,0,2,2.12,1.79,1.79,0,0,0,1.8-.91Zm-6-2.81h3.75a1.78,1.78,0,0,0-1.83-1.89A1.88,1.88,0,0,0,157.42,446.17Z"/><path class="aj" d="M165.34,442.7h2.25v1.4h.14a2.25,2.25,0,0,1,2.26-1.54,3.33,3.33,0,0,1,.91.11v2.11a4.35,4.35,0,0,0-1.1-.15,1.94,1.94,0,0,0-2.14,2v4.86h-2.32Z"/><path class="aj" d="M174.91,450.11h-.14v1.37h-2.25V439.35h2.32v4.75H175a2.8,2.8,0,0,1,2.64-1.54c2.22,0,3.56,1.69,3.56,4.53s-1.35,4.53-3.56,4.53A2.88,2.88,0,0,1,174.91,450.11Zm-.09-3c0,1.59.77,2.58,2,2.58s2-1,2-2.59-.76-2.59-2-2.59S174.82,445.49,174.82,447.1Z"/><path class="aj" d="M393.44,453.54V442.05h5c2.23,0,3.56,1.09,3.56,2.87a2.49,2.49,0,0,1-2.08,2.45v.14a2.73,2.73,0,0,1,2.63,2.74c0,2-1.53,3.29-4,3.29Zm2.41-6.73h1.8c1.3,0,2-.53,2-1.46s-.66-1.46-1.81-1.46h-2ZM398,451.7c1.38,0,2.13-.58,2.13-1.65s-.77-1.61-2.19-1.61h-2.08v3.26Z"/><path class="aj" d="M404.05,451c0-1.59,1.22-2.51,3.4-2.64l2.13-.13v-.72c0-.73-.53-1.14-1.48-1.14s-1.39.28-1.59.81h-2.13c.15-1.63,1.64-2.64,3.85-2.64s3.64,1.1,3.64,3v6h-2.25V452.4h-.14a2.84,2.84,0,0,1-2.55,1.28A2.63,2.63,0,0,1,404.05,451Zm5.53-.67v-.65l-1.78.11c-1,.07-1.48.43-1.48,1.06s.57,1.05,1.37,1.05A1.72,1.72,0,0,0,409.58,450.36Z"/><path class="aj" d="M417.6,444.57c2.23,0,3.55.93,3.68,2.61h-2.15c-.12-.57-.65-.92-1.51-.92s-1.44.38-1.44.93.37.7,1.18.88l1.65.36c1.71.37,2.47,1.09,2.47,2.4,0,1.76-1.57,2.9-3.87,2.9s-3.72-.94-3.88-2.63H416c.18.59.75.94,1.67.94s1.52-.38,1.52-.94-.33-.7-1.11-.86l-1.59-.36c-1.7-.38-2.53-1.19-2.53-2.54C414,445.67,415.41,444.57,417.6,444.57Z"/><path class="aj" d="M431.23,451c-.35,1.65-1.87,2.69-4,2.69-2.68,0-4.25-1.69-4.25-4.54s1.61-4.62,4.22-4.62,4.12,1.64,4.12,4.43v.71h-6v.12a1.94,1.94,0,0,0,2,2.12,1.79,1.79,0,0,0,1.8-.91Zm-6-2.81H429a1.78,1.78,0,0,0-1.83-1.89A1.87,1.87,0,0,0,425.28,448.23Z"/><path class="aj" d="M440,449.33a2.41,2.41,0,0,0,4.82,0v-7.28h2.4v7.53c0,2.54-1.87,4.26-4.81,4.26s-4.82-1.72-4.82-4.26v-7.53H440Z"/><path class="aj" d="M452.44,453.54H450V442.05h4.82c2.53,0,4.08,1.4,4.08,3.69a3.38,3.38,0,0,1-2.08,3.26l2.42,4.54h-2.73l-2.14-4.16h-2Zm0-6h2.11a1.69,1.69,0,0,0,1.92-1.76,1.74,1.74,0,0,0-1.94-1.78h-2.09Z"/><path class="aj" d="M468.89,453.54h-7.52V442.05h2.4v9.4h5.12Z"/><polyline class="ai" points="651.14 434.39 651.14 448.48 808.52 448.48 808.48 434.39"/><rect class="k" x="701.64" y="436.45" width="56.38" height="23.94"/><path class="aj" d="M717.3,441.91a3.77,3.77,0,0,1,4,4,3.83,3.83,0,0,1-4.1,3.95h-2.27v3.57H712.5v-11.5Zm-2.39,6h1.74c1.38,0,2.19-.7,2.19-2s-.79-2-2.18-2h-1.75Z"/><path class="aj" d="M722.48,450.9c0-1.6,1.22-2.52,3.4-2.65l2.13-.12v-.72c0-.73-.53-1.15-1.48-1.15s-1.4.29-1.59.82h-2.13c.15-1.63,1.64-2.65,3.84-2.65s3.64,1.1,3.64,3v6h-2.24v-1.15h-.15a2.83,2.83,0,0,1-2.55,1.28A2.62,2.62,0,0,1,722.48,450.9Zm5.53-.68v-.64l-1.78.11c-1,.07-1.48.43-1.48,1.06s.56,1.05,1.37,1.05A1.73,1.73,0,0,0,728,450.22Z"/><path class="aj" d="M735.55,442.53v2.18h1.83v1.82h-1.83v4c0,.77.35,1.12,1.14,1.12a6.87,6.87,0,0,0,.69,0v1.76a6.12,6.12,0,0,1-1.17.11c-2.13,0-3-.69-3-2.41v-4.5h-1.37v-1.82h1.37v-2.18Z"/><path class="aj" d="M739.38,441.27h2.28v4.79h.15a2.67,2.67,0,0,1,2.65-1.61c1.89,0,3,1.19,3,3.3v5.66h-2.32V448.3c0-1.22-.56-1.85-1.61-1.85a1.75,1.75,0,0,0-1.84,1.92v5h-2.32Z"/><rect class="ak" x="651.04" y="355.13" width="157.58" height="69.23"/><rect class="ad" x="112.71" y="355.13" width="95.22" height="69.23"/><rect class="al" x="225.78" y="355.13" width="412.2" height="69.23"/><path class="b" d="M138.81,403.11c-7,0-11.53-5.19-11.53-13.34s4.57-13.31,11.53-13.31c5.65,0,9.74,3.14,10.66,8.18h-3.23c-1.09-3.44-3.65-5.26-7.43-5.26-5,0-8.27,4.06-8.27,10.39s3.18,10.41,8.29,10.41c4.55,0,7.64-2.91,7.64-7.21v-.62h-7.16v-2.79h10.32v3.11C149.63,399,145.32,403.11,138.81,403.11Z"/><path class="b" d="M171,402.51H155.22V377.06H171v2.85H158.4v8.17h11.94v2.82H158.4v8.75H171Z"/><path class="b" d="M183.35,402.51v-22.6h-8.2v-2.85h19.58v2.85h-8.21v22.6Z"/><path class="w" d="M249.27,375.94h3v10.55h.28c.95-2.1,2.94-3.33,5.85-3.33,4,0,6.57,2.57,6.57,7v12.31h-3V390.94c0-3.37-1.52-5.05-4.39-5.05-3.41,0-5.27,2.15-5.27,5.36v11.26h-3Z"/><path class="w" d="M274.84,378.57v4.92h4.23V386h-4.23v10.76c0,2.24.85,3.2,2.82,3.2a13.45,13.45,0,0,0,1.41-.07v2.55a9.77,9.77,0,0,1-1.78.18c-3.91,0-5.48-1.45-5.48-5.08V386h-3.07v-2.54h3.07v-4.92Z"/><path class="w" d="M288,378.57v4.92h4.23V386H288v10.76c0,2.24.84,3.2,2.82,3.2a13.45,13.45,0,0,0,1.41-.07v2.55a9.77,9.77,0,0,1-1.78.18c-3.92,0-5.49-1.45-5.49-5.08V386h-3.07v-2.54h3.07v-4.92Z"/><path class="w" d="M314,393c0,5.95-3.16,9.84-8,9.84a6.38,6.38,0,0,1-5.94-3.19h-.28v9.21h-3V383.49h2.89v3.18H300a6.84,6.84,0,0,1,6.08-3.51C310.88,383.16,314,387,314,393Zm-3.14,0c0-4.44-2.08-7.11-5.55-7.11s-5.61,2.74-5.61,7.11,2.17,7.11,5.59,7.11S310.88,397.45,310.88,393Z"/><path class="w" d="M319,386.74a2.29,2.29,0,1,1,2.29,2.29A2.3,2.3,0,0,1,319,386.74Zm0,13.65a2.29,2.29,0,1,1,2.29,2.3A2.3,2.3,0,0,1,319,400.39Z"/><path class="w" d="M326.78,407.92l9.17-32h2.58l-9.18,32Z"/><path class="w" d="M338.8,407.92l9.18-32h2.57l-9.17,32Z"/><path class="w" d="M353.72,375.94h3v26.57h-3Z"/><path class="w" d="M361.69,393c0-6.12,3.35-9.84,8.77-9.84s8.76,3.72,8.76,9.84-3.35,9.84-8.76,9.84S361.69,399.1,361.69,393Zm14.39,0c0-4.51-2-7.11-5.62-7.11s-5.63,2.6-5.63,7.11,2,7.11,5.63,7.11S376.08,397.5,376.08,393Z"/><path class="w" d="M396.64,389.31a4.71,4.71,0,0,0-4.9-3.42c-3.42,0-5.57,2.74-5.57,7s2.18,7.18,5.57,7.18c2.56,0,4.34-1.18,4.9-3.33h3.07c-.54,3.49-3.38,6.06-7.95,6.06-5.33,0-8.73-3.86-8.73-9.91s3.38-9.77,8.71-9.77c4.62,0,7.44,2.77,8,6.15Z"/><path class="w" d="M403.06,397.18c0-3.4,2.5-5.36,6.93-5.63l5.48-.33v-1.73c0-2.34-1.46-3.63-4.3-3.63-2.28,0-3.86.86-4.29,2.36h-3.07c.41-3.05,3.41-5.06,7.47-5.06,4.63,0,7.23,2.38,7.23,6.33v13h-2.9V399.7h-.28a6.55,6.55,0,0,1-5.85,3.14C405.79,402.84,403.06,400.66,403.06,397.18Zm12.41-1.76v-1.75l-5.11.34c-2.9.19-4.16,1.2-4.16,3.1s1.64,3.07,3.84,3.07C413.16,400.18,415.47,398.13,415.47,395.42Z"/><path class="w" d="M424.29,375.94h3v26.57h-3Z"/><path class="w" d="M433.38,375.94h3v10.55h.28c.95-2.1,2.94-3.33,5.85-3.33,4,0,6.57,2.57,6.57,7v12.31h-3V390.94c0-3.37-1.51-5.05-4.39-5.05-3.4,0-5.27,2.15-5.27,5.36v11.26h-3Z"/><path class="w" d="M453.69,393c0-6.12,3.36-9.84,8.77-9.84s8.77,3.72,8.77,9.84-3.35,9.84-8.77,9.84S453.69,399.1,453.69,393Zm14.4,0c0-4.51-2-7.11-5.63-7.11s-5.63,2.6-5.63,7.11,2,7.11,5.63,7.11S468.09,397.5,468.09,393Z"/><path class="w" d="M482.63,383.16c4,0,6.76,2,7.16,5.1h-3c-.4-1.52-1.88-2.53-4.18-2.53s-4,1.15-4,2.84c0,1.31,1.06,2.12,3.3,2.67l2.93.7c3.58.87,5.31,2.42,5.31,5.15,0,3.41-3.3,5.75-7.62,5.75s-7.15-2-7.48-5.18h3.12c.51,1.6,2,2.63,4.46,2.63s4.4-1.22,4.4-3c0-1.3-1-2.18-3-2.68l-3.26-.79c-3.57-.87-5.19-2.4-5.19-5.15C475.54,385.54,478.59,383.16,482.63,383.16Z"/><path class="w" d="M499,378.57v4.92h4.23V386H499v10.76c0,2.24.85,3.2,2.82,3.2a13.45,13.45,0,0,0,1.41-.07v2.55a9.77,9.77,0,0,1-1.78.18c-3.91,0-5.48-1.45-5.48-5.08V386h-3.07v-2.54H496v-4.92Z"/><path class="w" d="M508,386.74a2.29,2.29,0,1,1,2.29,2.29A2.3,2.3,0,0,1,508,386.74Zm0,13.65a2.29,2.29,0,1,1,2.29,2.3A2.3,2.3,0,0,1,508,400.39Z"/><path class="w" d="M523.7,388.06h3c2.93,0,5-1.87,5-4.51,0-2.38-1.82-4.33-4.89-4.33s-5.06,1.57-5.32,4.43h-3.09c.32-4.14,3.48-7.19,8.63-7.19s7.92,3.17,7.9,6.73a5.93,5.93,0,0,1-4.53,5.86v.28a6.06,6.06,0,0,1,5.48,6.32c0,4.27-3.9,7.46-9,7.46s-8.73-2.84-9-7.16h3.07c.28,2.68,2.57,4.39,5.86,4.39s5.73-1.92,5.73-4.78-2.21-4.78-5.79-4.78H523.7Z"/><path class="w" d="M540.51,389.77c0-8.39,3.34-13.31,9-13.31s9,4.93,9,13.37-3.28,13.28-9,13.28S540.51,398.24,540.51,389.77Zm14.84,0c0-6.75-2.08-10.53-5.81-10.53s-5.83,3.81-5.83,10.53,2.08,10.57,5.83,10.57S555.35,396.6,555.35,389.77Z"/><path class="w" d="M563.26,389.77c0-8.39,3.33-13.31,9-13.31s9,4.93,9,13.37-3.29,13.28-9,13.28S563.26,398.24,563.26,389.77Zm14.83,0c0-6.75-2.08-10.53-5.8-10.53s-5.84,3.81-5.84,10.53,2.08,10.57,5.84,10.57S578.09,396.6,578.09,389.77Z"/><path class="w" d="M586,389.77c0-8.39,3.34-13.31,9-13.31s9,4.93,9,13.37-3.28,13.28-9,13.28S586,398.24,586,389.77Zm14.84,0c0-6.75-2.08-10.53-5.81-10.53s-5.83,3.81-5.83,10.53,2.08,10.57,5.83,10.57S600.84,396.6,600.84,389.77Z"/><path class="w" d="M606.53,407.92l9.17-32h2.57l-9.17,32Z"/><path class="t" d="M676.42,386h-3.16v-2.54h3.16v-2.11c0-3.8,1.9-5.61,5.52-5.61a10.86,10.86,0,0,1,2,.17v2.47a8.44,8.44,0,0,0-1.42-.08c-2.19,0-3.11,1.05-3.11,3.13v2h4.36V386h-4.36v16.48h-3Z"/><path class="t" d="M688.21,383.49h2.9v2.83h.28c.56-1.86,2.75-3.16,5.27-3.16a11.62,11.62,0,0,1,1.52.09v3a12.21,12.21,0,0,0-1.94-.18,4.66,4.66,0,0,0-5,4.63v11.78h-3Z"/><path class="t" d="M701.44,377.71a2.12,2.12,0,1,1,2.11,2.12A2.12,2.12,0,0,1,701.44,377.71Zm.6,5.78h3v19h-3Z"/><path class="t" d="M726.48,397.59c-.88,3.24-3.85,5.25-8,5.25-5.27,0-8.57-3.81-8.57-9.82s3.35-9.86,8.57-9.86,8.26,3.65,8.26,9.56v1.16H713.06V394c.15,3.76,2.25,6.14,5.48,6.14,2.45,0,4.11-.9,4.91-2.57Zm-13.42-6.16h10.47c-.07-3.37-2.08-5.59-5.09-5.59S713.29,388.06,713.06,391.43Z"/><path class="t" d="M731.48,383.49h2.89v3h.29c1-2.1,2.8-3.33,5.71-3.33,4.27,0,6.65,2.52,6.65,7v12.31h-3V390.94c0-3.42-1.45-5.05-4.48-5.05s-5,2-5,5.36v11.26h-3Z"/><path class="t" d="M751.6,393c0-6,3.16-9.84,8-9.84a6.51,6.51,0,0,1,6,3.33h.27V375.94h3v26.57H766v-3h-.29a6.8,6.8,0,0,1-6.08,3.37C754.72,402.84,751.6,399,751.6,393Zm3.14,0c0,4.45,2.08,7.11,5.55,7.11s5.6-2.72,5.6-7.11-2.16-7.11-5.6-7.11S754.74,388.57,754.74,393Z"/><path class="t" d="M781.38,383.16c4,0,6.76,2,7.16,5.1h-3c-.4-1.52-1.88-2.53-4.18-2.53s-4,1.15-4,2.84c0,1.31,1.06,2.12,3.3,2.67l2.93.7c3.58.87,5.31,2.42,5.31,5.15,0,3.41-3.3,5.75-7.62,5.75s-7.15-2-7.48-5.18h3.12c.51,1.6,2,2.63,4.46,2.63s4.4-1.22,4.4-3c0-1.3-1-2.18-3-2.68l-3.26-.79c-3.57-.87-5.19-2.4-5.19-5.15C774.29,385.54,777.34,383.16,781.38,383.16Z"/></svg>