<svg xmlns="http://www.w3.org/2000/svg" xmlns:xlink="http://www.w3.org/1999/xlink" viewBox="0 0 900 600"><defs><style>.a,.v{fill:#eae9e9;}.b,.u{fill:#5abd80;}.c,.t{fill:#fec75e;}.d,.k,.s{fill:#ed2627;}.e,.l{fill:#4b4b4b;}.f{fill:#66d38d;}.g{fill:#f95f6a;}.h{fill:#a80b0e;}.i{fill:#73070a;}.ad,.j{fill:#e8f4ee;}.j{stroke:#4b4b4b;}.ad,.af,.j,.k,.l,.q,.s,.t,.u,.v,.w,.x{stroke-miterlimit:10;}.k,.l{stroke:#3e8a99;stroke-width:0.25px;}.m{fill:#262626;}.n{fill:#333;}.o{fill:#969696;}.p{fill:#c2c2c2;}.q{fill:#d7d7d7;stroke:#e8e8e8;}.r,.w,.z{fill:#fff;}.s,.t,.u{stroke:#f1e5ce;}.s,.t,.u,.w,.x{stroke-width:0.5px;}.v,.w,.x{stroke:#eae9e9;}.v{stroke-width:0.8px;}.af,.x{fill:none;}.y{fill:#eceaff;}.z{opacity:0.24;}.aa{fill:#fedd9e;}.ab{fill:#ce9851;}.ac{fill:#fddfe0;}.ad,.af{stroke:#5abd80;}.ad{stroke-width:5px;}.ae{fill:#cdebd9;}.af{stroke-width:4px;}.ag{fill:#c00;}.ah{fill:#fff6e8;}.ai{fill:#fbdfe0;}.aj{fill:#fdc55b;}.ak{fill:#ec2224;}.al{fill:#7e73ff;}.am{fill:#110809;}</style><symbol id="b" viewBox="0 0 21.16 17.82"><polygon class="a" points="0 0 0.16 5.61 21.16 17.82 21.16 12.31 0 0"/><polygon class="b" points="0.49 0.87 0.64 5.25 15.38 13.77 15.38 9.47 0.49 0.87"/><polygon class="c" points="17.45 10.74 17.45 15.04 16.07 14.25 16.07 9.95 17.45 10.74"/><polygon class="d" points="19.56 12.02 19.56 16.31 18.18 15.52 18.18 11.22 19.56 12.02"/></symbol><symbol id="d" viewBox="0 0 6.67 7.71"><polygon class="c" points="0 0 0 3.85 6.67 7.71 6.67 3.85 0 0"/><polygon class="aa" points="0 0.52 6.67 4.37 6.67 5.14 0 1.3 0 0.52"/><polygon class="ab" points="0 3.43 6.67 7.29 6.67 7.43 0 3.58 0 3.43"/></symbol><symbol id="i" viewBox="0 0 8.15 5.95"><polygon class="e" points="0 0 0.06 1.73 5.88 5.09 5.88 3.39 0 0"/><ellipse class="b" cx="7.29" cy="4.96" rx="0.64" ry="1.14" transform="translate(-1.52 5.38) rotate(-36.95)"/><ellipse class="f" cx="7.29" cy="4.96" rx="0.43" ry="0.76" transform="translate(-1.52 5.38) rotate(-36.95)"/></symbol><symbol id="h" viewBox="0 0 10.6 18.87"><polygon class="g" points="0 0 10.46 6.04 10.6 18.87 0 12.75 0 0"/><use width="8.15" height="5.95" transform="translate(1.2 3.01) scale(1 1.05)" xlink:href="#i"/><use width="8.15" height="5.95" transform="translate(1.2 9.27)" xlink:href="#i"/><use width="8.15" height="5.95" transform="translate(1.2 6.21)" xlink:href="#i"/></symbol><symbol id="a" viewBox="0 0 231.21 171.61"><polygon class="d" points="0.21 57.3 132.21 133.51 132.21 171.61 0.21 95.4 0.21 57.3"/><polygon class="h" points="0 57.16 99 0 231 76.21 132 133.37 0 57.16"/><polygon class="i" points="231.21 114.46 231.21 76.35 132.21 133.51 132.21 171.61 231.21 114.46"/><polygon class="j" points="127.85 135.22 127.85 152.81 98.5 135.87 98.5 118.92 127.85 135.22"/><polygon class="g" points="21.96 74.87 68.91 101.98 68.91 129.09 21.96 101.98 21.96 74.87"/><use width="21.16" height="17.82" transform="translate(24.28 88.22)" xlink:href="#b"/><use width="21.16" height="17.82" transform="translate(24.29 94.68)" xlink:href="#b"/><polygon class="e" points="17.54 73.14 17.54 100.04 5.89 93.32 5.86 66.39 17.54 73.14"/><polygon class="e" points="8.36 70.8 8.36 74.66 15.03 78.51 15.03 74.66 8.36 70.8"/><use width="6.67" height="7.71" transform="translate(8.36 71.32)" xlink:href="#d"/><use width="6.67" height="7.71" transform="translate(8.36 75.92)" xlink:href="#d"/><use width="6.67" height="7.71" transform="translate(8.36 83.62)" xlink:href="#d"/><use width="6.67" height="7.71" transform="translate(8.36 88.22)" xlink:href="#d"/><ellipse class="k" cx="109.05" cy="150.34" rx="1.16" ry="2.05" transform="translate(-68.47 95.74) rotate(-36.95)"/><use width="10.6" height="18.87" transform="translate(71.49 103.47)" xlink:href="#h"/><use width="10.6" height="18.87" transform="translate(83.83 110.64)" xlink:href="#h"/><use width="10.6" height="18.87" transform="translate(71.49 118.09)" xlink:href="#h"/><use width="10.6" height="18.87" transform="translate(83.83 125.27)" xlink:href="#h"/><ellipse class="l" cx="51.2" cy="112.58" rx="1.62" ry="2.87" transform="translate(-57.39 53.39) rotate(-36.95)"/><ellipse class="l" cx="56.95" cy="115.9" rx="1.62" ry="2.87" transform="translate(-58.23 57.51) rotate(-36.95)"/><ellipse class="l" cx="62.69" cy="118.92" rx="1.62" ry="2.87" transform="translate(-58.9 61.57) rotate(-36.95)"/></symbol><symbol id="y" viewBox="0 0 51.86 32.2"><polygon class="m" points="0 10.73 18.86 0 51.86 19.05 33 29.79 0 10.73"/><polygon class="n" points="33 32.2 33 29.79 51.86 19.05 51.86 21.47 33 32.2"/><polygon class="e" points="33 32.2 0 13.15 0 10.73 33 29.79 33 32.2"/></symbol><symbol id="ag" viewBox="0 0 66 40.52"><polygon class="m" points="0 19.05 33 0 66 19.05 33 38.1 0 19.05"/><polygon class="n" points="33 40.52 33 38.1 66 19.05 66 21.47 33 40.52"/><polygon class="e" points="33 40.52 0 21.47 0 19.05 33 38.1 33 40.52"/></symbol><symbol id="x" viewBox="0 0 299.9 323.56"><path class="o" d="M162.85,319.17v4.39c3,.13,127.44-69.8,127.44-69.8s2.27-5.84,1.31-8.44l-1.31,2.3L167.4,318.14Z"/><path class="a" d="M1.11,227.18l-1-2.06a11.09,11.09,0,0,0,1,5.88s157.36,93.54,161.74,92.56v-4.39L158.14,318Z"/><path class="p" d="M158.14,318l-155.93-90c-2.67-1.53-2.87-4-.44-5.4l124.64-70.32a10.19,10.19,0,0,1,9.27.18l153.78,90c2.67,1.54,2.87,4,.44,5.41L167.4,318.14A10.16,10.16,0,0,1,158.14,318Z"/><path class="q" d="M185.15,288.65,50.46,210.88c-2.3-1.32-2.47-3.43-.38-4.67l79-44.18a8.83,8.83,0,0,1,8,.16L269.89,240c2.31,1.32,2.48,3.42.39,4.67L193.15,288.8A8.79,8.79,0,0,1,185.15,288.65Z"/><use width="51.86" height="32.21" transform="translate(151.87 181.68) scale(0.33)" xlink:href="#y"/><use width="51.86" height="32.21" transform="translate(165.22 189.33) scale(0.33)" xlink:href="#y"/><use width="51.86" height="32.21" transform="translate(178.57 196.98) scale(0.33)" xlink:href="#y"/><use width="51.86" height="32.21" transform="translate(191.92 204.63) scale(0.33)" xlink:href="#y"/><use width="51.86" height="32.21" transform="translate(205.27 212.27) scale(0.33)" xlink:href="#y"/><use width="51.86" height="32.21" transform="translate(218.62 219.92) scale(0.33)" xlink:href="#y"/><use width="51.86" height="32.21" transform="translate(231.77 227.46) scale(0.33)" xlink:href="#y"/><use width="51.86" height="32.21" transform="translate(245.09 235.09) scale(0.33)" xlink:href="#y"/><use width="66" height="40.52" transform="translate(138.82 186.89) scale(0.33)" xlink:href="#ag"/><use width="66" height="40.52" transform="translate(152.14 194.53) scale(0.33)" xlink:href="#ag"/><use width="66" height="40.52" transform="translate(165.46 202.16) scale(0.33)" xlink:href="#ag"/><use width="66" height="40.52" transform="translate(178.79 209.79) scale(0.33)" xlink:href="#ag"/><use width="66" height="40.52" transform="translate(192.11 217.42) scale(0.33)" xlink:href="#ag"/><use width="66" height="40.52" transform="translate(205.43 225.05) scale(0.33)" xlink:href="#ag"/><polygon class="m" points="218.75 238.93 229.56 232.69 253.69 246.56 242.88 252.8 218.75 238.93"/><polygon class="n" points="242.88 253.59 242.88 252.8 253.69 246.56 253.69 247.35 242.88 253.59"/><polygon class="e" points="242.88 253.59 218.75 239.72 218.75 238.93 242.88 252.8 242.88 253.59"/><use width="66" height="40.52" transform="translate(125.6 194.53) scale(0.33)" xlink:href="#ag"/><use width="66" height="40.52" transform="translate(138.92 202.16) scale(0.33)" xlink:href="#ag"/><use width="66" height="40.52" transform="translate(152.24 209.79) scale(0.33)" xlink:href="#ag"/><use width="66" height="40.52" transform="translate(165.57 217.42) scale(0.33)" xlink:href="#ag"/><use width="66" height="40.52" transform="translate(178.89 225.05) scale(0.33)" xlink:href="#ag"/><use width="66" height="40.52" transform="translate(192.21 232.69) scale(0.33)" xlink:href="#ag"/><use width="66" height="40.52" transform="translate(205.53 240.32) scale(0.33)" xlink:href="#ag"/><polygon class="m" points="205.63 261.82 229.66 247.95 240.47 254.19 216.44 268.06 205.63 261.82"/><polygon class="n" points="216.44 268.86 216.44 268.06 240.47 254.19 240.47 254.98 216.44 268.86"/><polygon class="e" points="216.44 268.86 205.63 262.62 205.63 261.82 216.44 268.06 216.44 268.86"/><use width="66" height="40.52" transform="translate(112.38 202.16) scale(0.33)" xlink:href="#ag"/><use width="66" height="40.52" transform="translate(125.7 209.79) scale(0.33)" xlink:href="#ag"/><use width="66" height="40.52" transform="translate(139.02 217.42) scale(0.33)" xlink:href="#ag"/><use width="66" height="40.52" transform="translate(152.35 225.05) scale(0.33)" xlink:href="#ag"/><use width="66" height="40.52" transform="translate(165.67 232.69) scale(0.33)" xlink:href="#ag"/><use width="66" height="40.52" transform="translate(178.99 240.32) scale(0.33)" xlink:href="#ag"/><use width="66" height="40.52" transform="translate(192.31 247.95) scale(0.33)" xlink:href="#ag"/><use width="66" height="40.52" transform="translate(99.16 209.79) scale(0.33)" xlink:href="#ag"/><use width="66" height="40.52" transform="translate(112.48 217.42) scale(0.33)" xlink:href="#ag"/><use width="66" height="40.52" transform="translate(125.81 225.05) scale(0.33)" xlink:href="#ag"/><use width="66" height="40.52" transform="translate(139.13 232.69) scale(0.33)" xlink:href="#ag"/><use width="66" height="40.52" transform="translate(152.45 240.32) scale(0.33)" xlink:href="#ag"/><polygon class="m" points="165.77 254.19 176.58 247.95 214.03 269.46 203.22 275.7 165.77 254.19"/><polygon class="n" points="203.22 276.49 203.22 275.7 214.03 269.46 214.03 270.25 203.22 276.49"/><polygon class="e" points="203.22 276.49 165.77 254.98 165.77 254.19 203.22 275.7 203.22 276.49"/><use width="66" height="40.52" transform="translate(85.94 217.42) scale(0.33)" xlink:href="#ag"/><use width="51.86" height="32.21" transform="translate(138.73 174.04) scale(0.33)" xlink:href="#y"/><use width="66" height="40.52" transform="translate(125.7 179.26) scale(0.33)" xlink:href="#ag"/><use width="66" height="40.52" transform="translate(86.04 202.16) scale(0.33)" xlink:href="#ag"/><use width="66" height="40.52" transform="translate(72.82 209.79) scale(0.33)" xlink:href="#ag"/><use width="51.86" height="32.21" transform="translate(125.81 166.32) scale(0.33)" xlink:href="#y"/><use width="66" height="40.52" transform="translate(112.59 171.63) scale(0.33)" xlink:href="#ag"/><polygon class="m" points="99.16 185.5 109.97 179.26 134.1 193.13 123.29 199.38 99.16 185.5"/><polygon class="n" points="123.29 200.17 123.29 199.38 134.1 193.13 134.1 193.93 123.29 200.17"/><polygon class="e" points="123.29 200.17 99.16 186.29 99.16 185.5 123.29 199.38 123.29 200.17"/><polygon class="m" points="86.15 193.13 96.96 186.89 120.88 200.77 110.07 207.01 86.15 193.13"/><polygon class="n" points="110.07 207.8 110.07 207.01 120.88 200.77 120.88 201.56 110.07 207.8"/><polygon class="e" points="110.07 207.8 86.15 193.93 86.15 193.13 110.07 207.01 110.07 207.8"/><use width="66" height="40.52" transform="translate(72.93 194.53) scale(0.33)" xlink:href="#ag"/><use width="66" height="40.52" transform="translate(59.71 202.16) scale(0.33)" xlink:href="#ag"/><polygon class="m" points="99.26 231.3 110.07 225.06 160.85 254.19 150.04 260.43 99.26 231.3"/><polygon class="n" points="150.04 261.23 150.04 260.43 160.85 254.19 160.85 254.98 150.04 261.23"/><polygon class="e" points="150.04 261.23 99.26 232.09 99.26 231.3 150.04 260.43 150.04 261.23"/><use width="66" height="40.52" transform="translate(152.55 255.58) scale(0.33)" xlink:href="#ag"/><use width="66" height="40.52" transform="translate(165.87 263.22) scale(0.33)" xlink:href="#ag"/><use width="66" height="40.52" transform="translate(179.2 270.85) scale(0.33)" xlink:href="#ag"/><polygon class="q" points="92.04 241.84 128.44 262.85 104.18 276.86 67.78 255.85 92.04 241.84"/><path class="p" d="M296.81,91.38l-156-91c-1.83-1.06-3.43.17-3.56,2.74l-7.16,141.63c-.13,2.57,1.25,5.55,3.08,6.61l156,91c1.82,1.07,3.43-.17,3.56-2.74L299.89,98C300,95.42,298.63,92.45,296.81,91.38Z"/><path class="r" d="M285,233.55a1.92,1.92,0,0,1-.94-.29L139.36,148.88c-1.53-.89-2.73-3.5-2.62-5.69l6.55-127.93c.08-1.47.71-2.43,1.62-2.43a1.92,1.92,0,0,1,.94.29L290.51,97.51c1.53.89,2.73,3.49,2.62,5.68l-6.55,127.93c-.08,1.48-.71,2.43-1.62,2.43Z"/><path class="a" d="M144.91,13.33a1.42,1.42,0,0,1,.68.22L290.26,97.94c1.36.79,2.47,3.24,2.37,5.23L286.08,231.1c-.06,1.17-.51,2-1.12,2a1.42,1.42,0,0,1-.68-.22L139.61,148.45c-1.36-.8-2.47-3.24-2.37-5.23l6.55-127.93c.06-1.17.51-2,1.12-2m0-1c-1.16,0-2,1.1-2.12,2.91l-6.55,127.92c-.12,2.39,1.17,5.16,2.87,6.15l144.66,84.38a2.32,2.32,0,0,0,1.19.36c1.15,0,2-1.09,2.12-2.9l6.55-127.93c.12-2.39-1.17-5.16-2.87-6.15L146.1,12.69a2.42,2.42,0,0,0-1.19-.36Z"/><ellipse class="s" cx="149.78" cy="24.74" rx="1.6" ry="2.6" transform="translate(1.63 57.87) rotate(-21.99)"/><ellipse class="t" cx="155.13" cy="27.85" rx="1.6" ry="2.6" transform="translate(0.86 60.1) rotate(-21.99)"/><ellipse class="u" cx="160.47" cy="30.96" rx="1.6" ry="2.6" transform="translate(0.08 62.33) rotate(-21.99)"/><polygon class="v" points="278.12 218.05 144.92 141.36 150.44 47.73 281.46 123.93 278.12 218.05"/><polygon class="w" points="281.8 119.11 150.78 42.91 151.31 35.09 282.33 111.29 281.8 119.11"/><path class="x" d="M279.65,113.72a2.11,2.11,0,0,1-.14,1c-.35.8-1.22.8-1.95,0a3,3,0,0,1-.69-2.91.88.88,0,0,1,.94-.59"/><polygon class="a" points="277.93 112.14 278.54 111.23 277.51 110.26 277.93 112.14"/><path class="y" d="M155.78,42.11l-.08,1.19-.2-.11.21-3,.19.11-.09,1.32a.32.32,0,0,1,.21-.15.5.5,0,0,1,.31.08,1,1,0,0,1,.39.45,1.19,1.19,0,0,1,.1.6l-.09,1.28-.19-.11.09-1.24a.93.93,0,0,0-.08-.45.69.69,0,0,0-.3-.35.27.27,0,0,0-.32,0A.5.5,0,0,0,155.78,42.11Z"/><path class="y" d="M157.71,41.78l0,.62.4.23,0,.23-.39-.23-.09,1.18a.52.52,0,0,0,.24.51.34.34,0,0,0,.14,0v.21a.36.36,0,0,1-.2-.07.7.7,0,0,1-.28-.31.94.94,0,0,1-.08-.48l.08-1.21-.32-.19V42.1l.12.07c.15.08.23,0,.24-.16l0-.34Z"/><path class="y" d="M158.81,42.42l0,.62.4.23v.23l-.4-.23-.08,1.18a.49.49,0,0,0,.23.51.39.39,0,0,0,.14,0v.21a.32.32,0,0,1-.19-.07.67.67,0,0,1-.29-.31.94.94,0,0,1-.08-.48l.08-1.21-.32-.18v-.23l.12.07c.15.08.23,0,.24-.16l0-.34Z"/><path class="y" d="M159.57,46.36l-.19-.11.19-2.75.18.11,0,.39a.37.37,0,0,1,.21-.18.51.51,0,0,1,.38.07,1.22,1.22,0,0,1,.49.59,1.86,1.86,0,0,1,.13.84.88.88,0,0,1-.24.63.43.43,0,0,1-.53,0,1,1,0,0,1-.35-.34,1.59,1.59,0,0,1-.18-.4Zm1-.65a.7.7,0,0,0,.18-.5,1.44,1.44,0,0,0-.1-.66.88.88,0,0,0-.37-.46.31.31,0,0,0-.4,0,.72.72,0,0,0-.19.49,1.5,1.5,0,0,0,.11.67.91.91,0,0,0,.37.46A.31.31,0,0,0,160.56,45.71Z"/><path class="y" d="M161.17,45.94l.19,0a.88.88,0,0,0,.1.4.74.74,0,0,0,.29.29.31.31,0,0,0,.25.05.22.22,0,0,0,.12-.2.6.6,0,0,0-.24-.49l-.26-.22a.88.88,0,0,1-.33-.74.34.34,0,0,1,.18-.32.41.41,0,0,1,.38,0,1,1,0,0,1,.38.41,1.19,1.19,0,0,1,.13.44l-.18,0a.73.73,0,0,0-.08-.33.67.67,0,0,0-.27-.28.26.26,0,0,0-.23,0,.21.21,0,0,0-.12.19.54.54,0,0,0,.22.45l.25.22a1,1,0,0,1,.36.78.37.37,0,0,1-.17.32.38.38,0,0,1-.41,0,1,1,0,0,1-.41-.43A1.16,1.16,0,0,1,161.17,45.94Z"/><path class="y" d="M163,47.48a.11.11,0,0,1-.12,0,.3.3,0,0,1-.12-.13.29.29,0,0,1,0-.18.15.15,0,0,1,.06-.13.11.11,0,0,1,.12,0s.08.07.12.13a.29.29,0,0,1,0,.18C163,47.42,163,47.46,163,47.48Zm0-1.58a.36.36,0,0,1-.11-.13.39.39,0,0,1,0-.18c0-.07,0-.11.06-.13a.11.11,0,0,1,.12,0,.3.3,0,0,1,.12.13.39.39,0,0,1,0,.18c0,.06,0,.11-.06.13A.12.12,0,0,1,162.94,45.9Z"/><path class="y" d="M164.79,45.54l-1.31,2.29-.19-.11,1.31-2.29Z"/><path class="y" d="M166,46.24l-1.3,2.28-.19-.11,1.3-2.28Z"/><path class="y" d="M167,47.81l.2.12.35,1.93.52-1.42.2.11-.64,1.68-.21-.12-.35-1.94-.57,1.4-.21-.12-.38-2.27.22.13.3,1.9Z"/><path class="y" d="M169.45,49.25l.21.12L170,51.3l.52-1.43.21.12-.65,1.67-.2-.12-.35-1.93L169,51l-.21-.12-.37-2.27.21.12.3,1.91Z"/><path class="y" d="M171.92,50.69l.21.12.34,1.93.53-1.43.2.12-.65,1.67-.2-.12L172,51.05l-.57,1.4-.21-.12-.38-2.27.21.12.3,1.91Z"/><path class="y" d="M173.36,53.59a.3.3,0,0,1-.12-.13.46.46,0,0,1,0-.19.17.17,0,0,1,.06-.12s.08,0,.13,0a.31.31,0,0,1,.11.14.3.3,0,0,1,0,.18.15.15,0,0,1-.06.13S173.41,53.61,173.36,53.59Z"/><path class="y" d="M174.21,54.06,174,54l.21-3,.19.11Z"/><path class="y" d="M175.91,54.39l.17.18a.51.51,0,0,1-.27.3.52.52,0,0,1-.45-.08,1.25,1.25,0,0,1-.5-.58,1.71,1.71,0,0,1-.17-.9.84.84,0,0,1,.26-.62.43.43,0,0,1,.52,0,1.22,1.22,0,0,1,.51.58,1.8,1.8,0,0,1,.14.83.54.54,0,0,0,0,.08l-1.23-.71v0a1.29,1.29,0,0,0,.13.64.88.88,0,0,0,.37.43.4.4,0,0,0,.34.06A.4.4,0,0,0,175.91,54.39Zm-1-1.11,1,.59a1.24,1.24,0,0,0-.11-.54,1,1,0,0,0-.36-.41.34.34,0,0,0-.37,0A.51.51,0,0,0,174.91,53.28Z"/><path class="y" d="M177.43,53.89l.21.12.34,1.93.52-1.42.21.11-.65,1.68-.2-.12-.35-1.94-.57,1.4-.21-.12-.38-2.27.21.13.3,1.9Z"/><path class="y" d="M178.92,56.68a.9.9,0,0,1-.11-.47c0-.31.19-.42.51-.31l.41.16c.11,0,.17,0,.18-.1a.84.84,0,0,0-.08-.38.78.78,0,0,0-.28-.29.34.34,0,0,0-.31,0,.32.32,0,0,0-.15.26l-.18-.16a.41.41,0,0,1,.22-.34.5.5,0,0,1,.43.07,1.19,1.19,0,0,1,.43.46,1.24,1.24,0,0,1,.11.57l-.07,1c0,.11,0,.23,0,.35l-.18-.11a2,2,0,0,1,0-.35.32.32,0,0,1-.21.15.47.47,0,0,1-.35-.07A1,1,0,0,1,178.92,56.68Zm.09-.36a.69.69,0,0,0,.07.3.58.58,0,0,0,.24.25.37.37,0,0,0,.37,0,.48.48,0,0,0,.18-.39v-.24h-.08a.33.33,0,0,1-.13,0l-.34-.13C179.13,56,179,56.1,179,56.32Z"/><path class="y" d="M180.36,57.76l.19.05a1,1,0,0,0,.13.49.94.94,0,0,0,.32.36c.19.11.34.12.43,0a.64.64,0,0,0,.15-.46l0-.36a.31.31,0,0,1-.2.16.44.44,0,0,1-.35-.07,1.2,1.2,0,0,1-.47-.56,1.53,1.53,0,0,1-.15-.79.74.74,0,0,1,.24-.57.42.42,0,0,1,.51,0,.87.87,0,0,1,.33.3,1.22,1.22,0,0,1,.17.39l0-.35.19.11-.12,1.83a.91.91,0,0,1-.2.57c-.14.14-.34.14-.59,0a1.16,1.16,0,0,1-.45-.48A1.24,1.24,0,0,1,180.36,57.76Zm.38-.45a.92.92,0,0,0,.36.43.31.31,0,0,0,.39,0,.63.63,0,0,0,.17-.45,1.36,1.36,0,0,0-.1-.6.84.84,0,0,0-.36-.42c-.15-.09-.28-.1-.38,0a.55.55,0,0,0-.18.44A1.25,1.25,0,0,0,180.74,57.31Z"/><path class="y" d="M182.49,57.08a.48.48,0,0,1,.55,0,1.24,1.24,0,0,1,.52.6,1.78,1.78,0,0,1,.17.88.76.76,0,0,1-.27.62.5.5,0,0,1-.56,0,1.39,1.39,0,0,1-.51-.6,1.69,1.69,0,0,1-.17-.88A.76.76,0,0,1,182.49,57.08Zm0,1.43a.93.93,0,0,0,.38.44.35.35,0,0,0,.4,0,.6.6,0,0,0,.21-.5,1.39,1.39,0,0,0-.12-.7.93.93,0,0,0-.38-.44.35.35,0,0,0-.41,0,.64.64,0,0,0-.2.51A1.35,1.35,0,0,0,182.54,58.51Z"/><path class="y" d="M184.35,58.74l-.08,1.17-.2-.11.14-2,.19.11,0,.34c.12-.2.29-.23.53-.1a.94.94,0,0,1,.39.46,1.17,1.17,0,0,1,.1.59l-.09,1.29-.19-.12.09-1.24a1,1,0,0,0-.08-.45.66.66,0,0,0-.3-.34.27.27,0,0,0-.33,0A.51.51,0,0,0,184.35,58.74Z"/><path class="y" d="M186,60.91a.36.36,0,0,1-.11-.13.39.39,0,0,1,0-.18.15.15,0,0,1,.06-.13.11.11,0,0,1,.12,0,.3.3,0,0,1,.12.13.46.46,0,0,1,0,.19c0,.06,0,.1-.06.12A.12.12,0,0,1,186,60.91Z"/><path class="y" d="M187.62,60.16a.84.84,0,0,0-.32-.35.35.35,0,0,0-.41,0,.69.69,0,0,0-.21.51,1.43,1.43,0,0,0,.13.68.89.89,0,0,0,.37.45.35.35,0,0,0,.36,0,.39.39,0,0,0,.18-.23l.16.19a.46.46,0,0,1-.25.29.49.49,0,0,1-.46-.06,1.32,1.32,0,0,1-.52-.61,1.62,1.62,0,0,1-.16-.87.77.77,0,0,1,.26-.62.5.5,0,0,1,.56,0,1.21,1.21,0,0,1,.43.44,1.42,1.42,0,0,1,.18.56h-.17A1.31,1.31,0,0,0,187.62,60.16Z"/><path class="y" d="M188.42,60.53a.5.5,0,0,1,.56,0,1.28,1.28,0,0,1,.51.6,1.68,1.68,0,0,1,.17.88.76.76,0,0,1-.27.62.5.5,0,0,1-.56,0,1.39,1.39,0,0,1-.51-.6,1.8,1.8,0,0,1-.17-.88A.76.76,0,0,1,188.42,60.53Zm.05,1.43a.93.93,0,0,0,.38.44.36.36,0,0,0,.41,0,.67.67,0,0,0,.21-.5,1.51,1.51,0,0,0-.13-.7.92.92,0,0,0-.38-.44.33.33,0,0,0-.4,0,.61.61,0,0,0-.21.51A1.35,1.35,0,0,0,188.47,62Z"/><path class="y" d="M190.2,63.36l-.19-.11.13-2,.19.11,0,.33a.27.27,0,0,1,.2-.16.42.42,0,0,1,.31.07.86.86,0,0,1,.3.3,1,1,0,0,1,.15.42c.12-.24.31-.28.56-.13a.9.9,0,0,1,.37.4,1.22,1.22,0,0,1,.11.62l-.09,1.3-.19-.11.09-1.27a1,1,0,0,0-.08-.44.67.67,0,0,0-.28-.32.27.27,0,0,0-.32,0,.48.48,0,0,0-.15.35l-.08,1.2-.19-.11.09-1.27a.93.93,0,0,0-.08-.44.73.73,0,0,0-.28-.32.27.27,0,0,0-.32,0,.44.44,0,0,0-.15.35Z"/><polygon class="z" points="176.68 169.09 287.76 123.19 247.8 165.59 243.54 166.32 176.68 169.09"/></symbol></defs><title>rails-routes</title><circle class="ac" cx="717.47" cy="250.56" r="117.96"/><circle class="ad" cx="178.13" cy="251.93" r="117.96"/><path class="r" d="M813.15,292.07a9,9,0,0,0-9-9c-.25,0-.49,0-.73,0A11.33,11.33,0,0,0,784,280a4.53,4.53,0,0,0-2.49-.75A4.61,4.61,0,0,0,777,283h-.09a9.08,9.08,0,0,0-1,18.09L805,301A9,9,0,0,0,813.15,292.07Z"/><path class="r" d="M653.71,270.13a5.84,5.84,0,0,0-5.84-5.83l-.47,0a7.35,7.35,0,0,0-12.64-2,2.91,2.91,0,0,0-1.62-.48,3,3,0,0,0-2.93,2.41h-.06a5.89,5.89,0,0,0-.68,11.75l18.94-.05A5.83,5.83,0,0,0,653.71,270.13Z"/><use width="231.21" height="171.61" transform="translate(634.49 156.71) rotate(-0.05) scale(0.74)" xlink:href="#a"/><polygon class="ae" points="159.72 239.29 176.91 232.75 273.97 284.82 204.35 322.5 176.59 322.5 159.72 239.29"/><use width="299.9" height="323.56" transform="translate(97.29 166.66) scale(0.48 0.48)" xlink:href="#x"/><line class="af" x1="273.97" y1="185.12" x2="570.5" y2="185.12"/><polygon class="b" points="565.83 201.08 593.47 185.12 565.83 169.17 565.83 201.08"/><path d="M336.08,88.92H329V76.39H316.45V88.92h-7V57.42h7V69.77H329V57.42h7.06Z"/><path d="M366.73,64.13H357V88.92h-7V64.13H340.3V57.42h26.43Z"/><path d="M395.74,64.13H386V88.92h-7V64.13h-9.68V57.42h26.43Z"/><path d="M411.86,77.59H407V88.92h-7V57.42h11.86a10.9,10.9,0,0,1,7.8,2.84,10.3,10.3,0,0,1,0,14.53A11,11,0,0,1,411.86,77.59Zm-4.79-6h4.08a4.78,4.78,0,0,0,3.25-1.09,3.71,3.71,0,0,0,1.24-2.91,3.78,3.78,0,0,0-1.22-3,4.76,4.76,0,0,0-3.27-1.08h-4.08Z"/><path d="M451.75,66.84V73.5a9.12,9.12,0,0,0-2.13-.22,5,5,0,0,0-3.71,1.46,6.26,6.26,0,0,0-1.44,4.54v9.64h-6.75V66.84h6.53v3a4.87,4.87,0,0,1,2.44-2.44,7.87,7.87,0,0,1,3.29-.75A6.2,6.2,0,0,1,451.75,66.84Z"/><path d="M470,81l5.64,1.6a9.1,9.1,0,0,1-3.51,5,10.83,10.83,0,0,1-6.66,2A11.21,11.21,0,0,1,454,77.81a11.33,11.33,0,0,1,3.26-8.4A10.63,10.63,0,0,1,465,66.17a10.86,10.86,0,0,1,8.11,3q3,3,2.95,8.33a9.35,9.35,0,0,1-.13,2.09H460.55a4.09,4.09,0,0,0,1.56,3,5.24,5.24,0,0,0,3.46,1.22Q469,83.85,470,81Zm-9.33-5.73h8.84a4,4,0,0,0-1.17-2.62,4.4,4.4,0,0,0-3.27-1.11A4.21,4.21,0,0,0,462,72.66,4.15,4.15,0,0,0,460.68,75.23Z"/><path d="M502.13,97.36h-6.62V87.14q-1.61,2.27-5.77,2.26a10.29,10.29,0,0,1-7.84-3.26,11.63,11.63,0,0,1-3.09-8.33,11.78,11.78,0,0,1,3-8.24,9.93,9.93,0,0,1,7.69-3.27,8.56,8.56,0,0,1,4.15.87A4.84,4.84,0,0,1,495.69,69V66.84h6.44Zm-15-23.55a5.44,5.44,0,0,0-1.44,4,5.51,5.51,0,0,0,1.44,4.07,5.06,5.06,0,0,0,7.07,0,5.51,5.51,0,0,0,1.44-4.07,5.44,5.44,0,0,0-1.44-4,5.11,5.11,0,0,0-7.07,0Z"/><path d="M522.3,88.92a10.77,10.77,0,0,1-.18-2.23,4.93,4.93,0,0,1-2.44,2,8.92,8.92,0,0,1-3.47.69,7.89,7.89,0,0,1-6.15-2.46,8.8,8.8,0,0,1-2.25-6.15v-14h6.76V79.36a4.08,4.08,0,0,0,.91,2.76,3.27,3.27,0,0,0,2.64,1.06,3.53,3.53,0,0,0,2.69-1,3.79,3.79,0,0,0,1-2.73V66.84h6.75V85a31.89,31.89,0,0,0,.22,4Z"/><path d="M548.91,81l5.64,1.6a9.15,9.15,0,0,1-3.51,5,10.87,10.87,0,0,1-6.66,2,11.21,11.21,0,0,1-11.51-11.77,11.37,11.37,0,0,1,3.26-8.4,10.64,10.64,0,0,1,7.76-3.24,10.85,10.85,0,0,1,8.1,3q3,3,3,8.33a9.1,9.1,0,0,1-.14,2.09H539.44a4.09,4.09,0,0,0,1.56,3,5.26,5.26,0,0,0,3.46,1.22Q547.88,83.85,548.91,81Zm-9.33-5.73h8.84a4,4,0,0,0-1.18-2.62A4.39,4.39,0,0,0,544,71.5a4.17,4.17,0,0,0-3.1,1.16A4.1,4.1,0,0,0,539.58,75.23Z"/><path d="M557.48,82.65l5.73-1a3.21,3.21,0,0,0,1,2.11,3.36,3.36,0,0,0,2.5.87,2.9,2.9,0,0,0,1.91-.56,1.68,1.68,0,0,0,.67-1.35c0-.89-.72-1.5-2.18-1.82l-2.53-.58a8.9,8.9,0,0,1-5-2.51A6.22,6.22,0,0,1,558,73.5a6.66,6.66,0,0,1,2.42-5.2,8.83,8.83,0,0,1,6.06-2.13c2.88,0,5,.69,6.47,2.07a7.12,7.12,0,0,1,2.37,4.51l-5.59,1a3.19,3.19,0,0,0-.91-2,3.12,3.12,0,0,0-2.25-.75,2.72,2.72,0,0,0-1.69.53,1.67,1.67,0,0,0-.71,1.38c0,.89.58,1.43,1.74,1.64l2.93.58a9.1,9.1,0,0,1,5.06,2.53,6.22,6.22,0,0,1,1.73,4.4,7,7,0,0,1-2.31,5.26,9,9,0,0,1-6.48,2.2,12.32,12.32,0,0,1-4.33-.71A7.14,7.14,0,0,1,559.59,87a9.33,9.33,0,0,1-1.51-2.25A6.48,6.48,0,0,1,557.48,82.65Z"/><path d="M588.09,60.4v6.44h4.3v5.91h-4.3V81c0,1.54.81,2.31,2.44,2.31a8.71,8.71,0,0,0,1.78-.22v5.59a7.94,7.94,0,0,1-3.51.62,7.42,7.42,0,0,1-5.4-1.91,6.86,6.86,0,0,1-2-5.19V72.75h-3.91V66.84h1.11a3.23,3.23,0,0,0,2.56-1,3.83,3.83,0,0,0,.86-2.6V60.4Z"/><path class="ag" d="M756.23,329.57v5.05h9.13a5.22,5.22,0,0,0,5.19-5.19v-1.95a5.15,5.15,0,0,0-5.19-5.19h-4.55v-2.35h9v-5.08h-8.65a5.31,5.31,0,0,0-5.22,5.28v1.76a5.22,5.22,0,0,0,5.22,5.19c6.28,0-1.51,0,4.3,0v2.45"/><path class="ag" d="M707.34,328.34s4.88-.42,4.88-6.72a6.68,6.68,0,0,0-5.92-6.9H695.64v19.9H701v-4.8l4.63,4.8h7.93Zm-2.07-4.07H701v-4.55h4.3a2.25,2.25,0,0,1,1.2,2.26A2.31,2.31,0,0,1,705.27,324.27Z"/><path class="ag" d="M725.45,314.86H720a5.23,5.23,0,0,0-5.19,5.19v14.57h5.44v-3.49h5.1v3.49h5.28V320.05A5.15,5.15,0,0,0,725.45,314.86Zm-.09,10.64h-5.13v-4.83s0-1.09,1.7-1.09h1.87c1.51,0,1.54,1.09,1.54,1.09v4.83Z"/><rect class="ag" x="733.12" y="314.86" width="5.67" height="19.76"/><polygon class="ag" points="746.74 329.51 746.74 314.86 741.11 314.86 741.11 329.51 741.11 334.62 746.74 334.62 754.36 334.62 754.36 329.51 746.74 329.51"/><path class="ag" d="M662,334.62h22s-4.21-19.23,9.74-27c3-1.48,12.73-7,28.58,4.71.5-.42,1-.75,1-.75s-14.52-14.48-30.68-12.87c-8.12.73-18.11,8.13-24,17.89A48.33,48.33,0,0,0,662,334.62Z"/><path class="ag" d="M662,334.62h22s-4.21-19.23,9.74-27c3-1.48,12.73-7,28.58,4.71.5-.42,1-.75,1-.75s-14.52-14.48-30.68-12.87c-8.12.73-18.11,8.13-24,17.89A48.33,48.33,0,0,0,662,334.62Z"/><path class="ag" d="M662,334.62h22s-4.21-19.23,9.74-27c3-1.48,12.73-7,28.58,4.71.5-.42,1-.75,1-.75s-14.52-14.48-30.68-12.87c-8.14.73-18.14,8.13-24,17.89S662,334.62,662,334.62Z"/><path class="ag" d="M708,300.27l.11-1.87a13.32,13.32,0,0,0-2.71-1l-.11,1.84C706.16,299.57,707.06,299.9,708,300.27Z"/><path class="ag" d="M705.3,306.18l-.11,1.76a15.31,15.31,0,0,1,2.76.34l.11-1.73A19.78,19.78,0,0,0,705.3,306.18Z"/><path class="ag" d="M695,297.48h.28l-.56-1.71a22.83,22.83,0,0,0-2.68.17l.54,1.65A21.67,21.67,0,0,1,695,297.48Z"/><path class="ag" d="M696.31,307.75l.64,1.92a19,19,0,0,1,2.43-1l-.61-1.84A20,20,0,0,0,696.31,307.75Z"/><path class="ag" d="M683.64,300.41l-1.25-1.93c-.7.36-1.43.75-2.18,1.2l1.28,1.95C682.22,301.19,682.92,300.77,683.64,300.41Z"/><path class="ag" d="M689.36,313l1.34,2a16.81,16.81,0,0,1,1.65-2l-1.26-1.9A16.74,16.74,0,0,0,689.36,313Z"/><path class="ag" d="M685.32,322l2.26,1.79a22,22,0,0,1,.58-3.27l-2-1.59A26.5,26.5,0,0,0,685.32,322Z"/><path class="ag" d="M673.09,308.69l-2-1.73c-.72.7-1.42,1.4-2.06,2.1l2.15,1.84A28,28,0,0,1,673.09,308.69Z"/><path class="ag" d="M664.66,321.17l-3.2-1.17c-.53,1.2-1.12,2.59-1.4,3.35l3.21,1.17C663.63,323.57,664.22,322.2,664.66,321.17Z"/><path class="ag" d="M684.9,329a27.43,27.43,0,0,0,.33,3.52l3.35,1.2c-.25-1.09-.5-2.32-.67-3.63Z"/><rect class="y" x="640.14" y="424.73" width="150.33" height="103.73"/><rect class="ah" x="132.71" y="424.73" width="95.22" height="103.73"/><rect class="ai" x="245.78" y="424.73" width="395.74" height="103.73"/><path class="aj" d="M171.45,472.11h-4.62l-.36-2.6a7.23,7.23,0,0,1-2.78,2.24,10,10,0,0,1-4.41.9,12.57,12.57,0,0,1-9.22-3.7,13,13,0,0,1-3.74-9.63,12.76,12.76,0,0,1,3.88-9.62,13.13,13.13,0,0,1,9.44-3.74,12.3,12.3,0,0,1,7.91,2.35,11.58,11.58,0,0,1,3.94,5.56L166,455.79a6.15,6.15,0,0,0-2-3.06,6.3,6.3,0,0,0-4.39-1.42,7.68,7.68,0,0,0-5.25,2,7.57,7.57,0,0,0-2.29,6,8,8,0,0,0,2.2,6,7.57,7.57,0,0,0,5.49,2.15,6.53,6.53,0,0,0,4.4-1.36,5.33,5.33,0,0,0,1.92-2.83h-7.69v-4.84h13Z"/><path class="aj" d="M192.5,472.11H176.25V446.5h16.22v5.38H182v4.88h9.53v5H182v4.91H192.5Z"/><path class="aj" d="M217.35,452h-7.91v20.15h-5.71V452h-7.87V446.5h21.49Z"/><path class="ak" d="M274.15,461.56v10.55h-5.49V446h5.49v9.36a6.16,6.16,0,0,1,4.58-1.63,6.31,6.31,0,0,1,5.07,2,7.63,7.63,0,0,1,1.72,5.15v11.27H280V461.78a3.34,3.34,0,0,0-.74-2.26,2.75,2.75,0,0,0-2.18-.85,2.78,2.78,0,0,0-2.08.82A3,3,0,0,0,274.15,461.56Z"/><path class="ak" d="M296.71,448.92v5.24h3.51V459h-3.51v6.72c0,1.25.67,1.88,2,1.88a6.58,6.58,0,0,0,1.44-.18v4.55a6.59,6.59,0,0,1-2.85.5,6.08,6.08,0,0,1-4.39-1.55,5.61,5.61,0,0,1-1.6-4.23V459h-3.18v-4.8h.9a2.6,2.6,0,0,0,2.08-.81,3.11,3.11,0,0,0,.7-2.11v-2.32Z"/><path class="ak" d="M310.51,448.92v5.24H314V459h-3.5v6.72c0,1.25.66,1.88,2,1.88a6.59,6.59,0,0,0,1.45-.18v4.55a6.67,6.67,0,0,1-2.86.5,6.05,6.05,0,0,1-4.38-1.55,5.61,5.61,0,0,1-1.61-4.23V459h-3.18v-4.8h.91a2.6,2.6,0,0,0,2.07-.81,3.11,3.11,0,0,0,.71-2.11v-2.32Z"/><path class="ak" d="M323.18,479h-5.49V454.16H323V456a4.86,4.86,0,0,1,2-1.61,8.35,8.35,0,0,1,9.32,1.95,10,10,0,0,1,2.25,6.74,9.72,9.72,0,0,1-2.4,6.77,7.91,7.91,0,0,1-6.15,2.65c-2.27,0-3.89-.6-4.88-1.8Zm6.88-12.55a5.22,5.22,0,0,0,0-6.59,4,4,0,0,0-2.91-1.16,3.94,3.94,0,0,0-2.87,1.16,5.22,5.22,0,0,0,0,6.59,3.91,3.91,0,0,0,2.87,1.17A4,4,0,0,0,330.06,466.42Z"/><path class="ak" d="M339.58,457.45a3.61,3.61,0,0,1,7.22,0,3.59,3.59,0,0,1-6.16,2.52A3.47,3.47,0,0,1,339.58,457.45Zm0,11.37a3.61,3.61,0,0,1,7.22,0,3.59,3.59,0,0,1-6.16,2.53A3.49,3.49,0,0,1,339.58,468.82Z"/><path class="ak" d="M366.87,446l-13,26.61H349L362,446Z"/><path class="ak" d="M384.24,446l-13,26.61h-4.87l13-26.61Z"/><path class="ak" d="M392.15,472.11h-5.49V446h5.49Z"/><path class="ak" d="M405.22,453.62a9.35,9.35,0,0,1,6.81,2.67A9.92,9.92,0,0,1,412,470a9.91,9.91,0,0,1-13.6,0,9.85,9.85,0,0,1,0-13.63A9.35,9.35,0,0,1,405.22,453.62Zm0,14a3.93,3.93,0,0,0,2.87-1.15,4.43,4.43,0,0,0,1.18-3.32,4.38,4.38,0,0,0-1.18-3.31,4.13,4.13,0,0,0-5.72,0,5.16,5.16,0,0,0,0,6.59A3.94,3.94,0,0,0,405.22,467.59Z"/><path class="ak" d="M426.56,458.67a3.94,3.94,0,0,0-2.94,1.2,4.46,4.46,0,0,0-1.17,3.28,4.34,4.34,0,0,0,1.21,3.25,4,4,0,0,0,3,1.19,3.7,3.7,0,0,0,3.72-2.67l4.83,1.48a8.23,8.23,0,0,1-2.9,4.41,8.7,8.7,0,0,1-5.65,1.84,9.53,9.53,0,0,1-6.85-2.69,9,9,0,0,1-2.79-6.81,9.25,9.25,0,0,1,9.46-9.53,8.89,8.89,0,0,1,5.74,1.8,8.17,8.17,0,0,1,2.89,4.45l-4.92,1.48a3.77,3.77,0,0,0-1.22-1.92A3.62,3.62,0,0,0,426.56,458.67Z"/><path class="ak" d="M437.43,467.16a4.83,4.83,0,0,1,1.48-3.67,7.06,7.06,0,0,1,3.83-1.75l4.23-.65c.86-.12,1.3-.53,1.3-1.22a1.73,1.73,0,0,0-.71-1.4,3.57,3.57,0,0,0-4.12.22,2.77,2.77,0,0,0-.88,1.86l-4.77-1a6.18,6.18,0,0,1,2.22-4.1,8.1,8.1,0,0,1,5.66-1.86q4.08,0,6,1.95a6.77,6.77,0,0,1,1.93,5v8.78a14.19,14.19,0,0,0,.22,2.78h-4.95a8.91,8.91,0,0,1-.18-2,5.48,5.48,0,0,1-5.06,2.53,6.25,6.25,0,0,1-4.53-1.61A5.13,5.13,0,0,1,437.43,467.16Zm7.55,1.48a3.44,3.44,0,0,0,2.35-.83,3.52,3.52,0,0,0,.94-2.74v-.8l-3.4.54c-1.35.22-2,.88-2,2a1.8,1.8,0,0,0,.52,1.3A2.16,2.16,0,0,0,445,468.64Z"/><path class="ak" d="M463.72,472.11h-5.49V446h5.49Z"/><path class="ak" d="M474.05,461.56v10.55h-5.49V446h5.49v9.36a6.16,6.16,0,0,1,4.58-1.63,6.35,6.35,0,0,1,5.08,2,7.68,7.68,0,0,1,1.71,5.15v11.27h-5.49V461.78a3.29,3.29,0,0,0-.74-2.26,2.75,2.75,0,0,0-2.18-.85,2.8,2.8,0,0,0-2.08.82A3.07,3.07,0,0,0,474.05,461.56Z"/><path class="ak" d="M498.28,453.62a9.31,9.31,0,0,1,6.8,2.67,9.92,9.92,0,0,1,0,13.67,9.9,9.9,0,0,1-13.59,0,9.82,9.82,0,0,1,0-13.63A9.33,9.33,0,0,1,498.28,453.62Zm0,14a3.93,3.93,0,0,0,2.87-1.15,4.46,4.46,0,0,0,1.17-3.32,4.41,4.41,0,0,0-1.17-3.31,4.14,4.14,0,0,0-5.73,0,5.16,5.16,0,0,0,0,6.59A4,4,0,0,0,498.28,467.59Z"/><path class="ak" d="M509.87,467l4.66-.83a2.56,2.56,0,0,0,.77,1.72,2.76,2.76,0,0,0,2,.7,2.38,2.38,0,0,0,1.56-.45,1.39,1.39,0,0,0,.54-1.1c0-.72-.59-1.21-1.77-1.48l-2.06-.47a7.14,7.14,0,0,1-4-2,5,5,0,0,1-1.3-3.48,5.44,5.44,0,0,1,2-4.23,7.23,7.23,0,0,1,4.93-1.73,7.34,7.34,0,0,1,5.26,1.68,5.81,5.81,0,0,1,1.93,3.66l-4.55.83a2.33,2.33,0,0,0-2.56-2.2,2.24,2.24,0,0,0-1.38.43,1.36,1.36,0,0,0-.57,1.12c0,.73.46,1.17,1.4,1.34l2.39.47a7.43,7.43,0,0,1,4.11,2.06,5.07,5.07,0,0,1,1.41,3.57,5.68,5.68,0,0,1-1.88,4.28,7.35,7.35,0,0,1-5.27,1.79,9.84,9.84,0,0,1-3.52-.58,5.68,5.68,0,0,1-2.35-1.5,7.34,7.34,0,0,1-1.22-1.82A5.2,5.2,0,0,1,509.87,467Z"/><path class="ak" d="M534.75,448.92v5.24h3.5V459h-3.5v6.72c0,1.25.66,1.88,2,1.88a6.59,6.59,0,0,0,1.45-.18v4.55a6.65,6.65,0,0,1-2.85.5,6.06,6.06,0,0,1-4.39-1.55,5.61,5.61,0,0,1-1.61-4.23V459h-3.18v-4.8h.91a2.6,2.6,0,0,0,2.07-.81,3.11,3.11,0,0,0,.71-2.11v-2.32Z"/><path class="ak" d="M542.08,457.45a3.57,3.57,0,1,1,3.61,3.61,3.43,3.43,0,0,1-2.55-1.09A3.47,3.47,0,0,1,542.08,457.45Zm0,11.37a3.58,3.58,0,1,1,3.61,3.61,3.46,3.46,0,0,1-2.55-1.08A3.49,3.49,0,0,1,542.08,468.82Z"/><path class="ak" d="M559.05,461.92l-2.46-3.75,5.78-4.73h-9.79v-4.77h16.9v4.41l-5.77,4.47a6.8,6.8,0,0,1,4.67,2.19,6.93,6.93,0,0,1,1.9,5,7.35,7.35,0,0,1-2.51,5.58,9.43,9.43,0,0,1-6.7,2.33,9.55,9.55,0,0,1-6.46-2.18,7.76,7.76,0,0,1-2.82-5.33l5.49-1a3.87,3.87,0,0,0,1.1,2.64,3.59,3.59,0,0,0,2.66,1,3.47,3.47,0,0,0,2.54-.94,3,3,0,0,0,1-2.27,2.88,2.88,0,0,0-1-2.37,3.72,3.72,0,0,0-2.39-.81A4.37,4.37,0,0,0,559.05,461.92Z"/><path class="ak" d="M572.41,460.41a14.76,14.76,0,0,1,2.06-8.27,9.91,9.91,0,0,1,15.92,0,17.63,17.63,0,0,1,0,16.54,9.92,9.92,0,0,1-15.92,0A14.78,14.78,0,0,1,572.41,460.41Zm5.7,0a12.17,12.17,0,0,0,.87,5.09,3.8,3.8,0,0,0,6.86,0,14.69,14.69,0,0,0,0-10.18,3.8,3.8,0,0,0-6.86,0A12.11,12.11,0,0,0,578.11,460.41Z"/><path class="ak" d="M595.05,460.41a14.76,14.76,0,0,1,2.06-8.27,9.91,9.91,0,0,1,15.92,0,17.63,17.63,0,0,1,0,16.54,9.92,9.92,0,0,1-15.92,0A14.78,14.78,0,0,1,595.05,460.41Zm5.71,0a12.19,12.19,0,0,0,.86,5.09,3.8,3.8,0,0,0,6.86,0,14.69,14.69,0,0,0,0-10.18,3.8,3.8,0,0,0-6.86,0A12.12,12.12,0,0,0,600.76,460.41Z"/><path class="ak" d="M617.69,460.41a14.76,14.76,0,0,1,2.06-8.27,9.91,9.91,0,0,1,15.92,0,17.63,17.63,0,0,1,0,16.54,9.92,9.92,0,0,1-15.92,0A14.78,14.78,0,0,1,617.69,460.41Zm5.71,0a12.35,12.35,0,0,0,.86,5.09,3.8,3.8,0,0,0,6.86,0,14.69,14.69,0,0,0,0-10.18,3.8,3.8,0,0,0-6.86,0A12.29,12.29,0,0,0,623.4,460.41Z"/><path class="al" d="M663.33,446l-13,26.61h-4.87l13-26.61Z"/><path class="al" d="M675.11,458.78h-3.9v13.33h-5.49V458.78h-2.85v-4.62h2.85v-1.55a7,7,0,0,1,1.82-5,6.69,6.69,0,0,1,5-1.9,6.3,6.3,0,0,1,2.6.4v4.48a6.72,6.72,0,0,0-1.63-.18,2.63,2.63,0,0,0-1.64.54,2.23,2.23,0,0,0-.7,1.88v1.37h3.9Z"/><path class="al" d="M689.41,454.16v5.42a7.63,7.63,0,0,0-1.74-.18,4,4,0,0,0-3,1.19,5.07,5.07,0,0,0-1.18,3.68v7.84H678V454.16h5.3v2.42a4.06,4.06,0,0,1,2-2A6.33,6.33,0,0,1,688,454,5.17,5.17,0,0,1,689.41,454.16Z"/><path class="al" d="M693.2,451a3.1,3.1,0,0,1-.94-2.28,3.06,3.06,0,0,1,.94-2.27,3,3,0,0,1,2.24-.94,3.14,3.14,0,0,1,2.29.94,3,3,0,0,1,1,2.27,3.08,3.08,0,0,1-1,2.28,3.17,3.17,0,0,1-2.29.93A3.06,3.06,0,0,1,693.2,451Zm5,21.16h-5.49V454.16h5.49Z"/><path class="al" d="M714.75,465.64l4.59,1.3a7.49,7.49,0,0,1-2.85,4.1,8.87,8.87,0,0,1-5.42,1.61,9.73,9.73,0,0,1-6.7-16.4,8.66,8.66,0,0,1,6.3-2.63,8.8,8.8,0,0,1,6.59,2.44,9.19,9.19,0,0,1,2.41,6.77,7.53,7.53,0,0,1-.11,1.69h-12.5a3.33,3.33,0,0,0,1.27,2.48,4.25,4.25,0,0,0,2.81,1A3.42,3.42,0,0,0,714.75,465.64ZM707.17,461h7.19a3.27,3.27,0,0,0-1-2.13,3.56,3.56,0,0,0-2.65-.9,3.4,3.4,0,0,0-2.53.94A3.34,3.34,0,0,0,707.17,461Z"/><path class="al" d="M728.69,461.82v10.29H723.2V454.16h5.31v2.06a4.55,4.55,0,0,1,2.11-1.86,6.76,6.76,0,0,1,2.91-.67,6,6,0,0,1,4.88,2,7.86,7.86,0,0,1,1.66,5.15v11.27h-5.49V461.78a3.34,3.34,0,0,0-.74-2.26,3.14,3.14,0,0,0-4.34,0A3.21,3.21,0,0,0,728.69,461.82Z"/><path class="al" d="M762.35,446v22.93c0,1.09,0,2.16.14,3.22h-5.27a10.22,10.22,0,0,1-.15-1.74,4.61,4.61,0,0,1-1.93,1.54,6.82,6.82,0,0,1-2.87.59,8.38,8.38,0,0,1-6.35-2.65,9.41,9.41,0,0,1-2.53-6.77,9.51,9.51,0,0,1,2.45-6.7,8.14,8.14,0,0,1,6.25-2.65q3.69,0,4.84,1.84V446Zm-12.26,13.87a5.19,5.19,0,0,0,0,6.59,4.11,4.11,0,0,0,5.74,0,5.22,5.22,0,0,0,0-6.59,4.13,4.13,0,0,0-5.74,0Z"/><path class="al" d="M765.81,467l4.66-.83a2.62,2.62,0,0,0,.78,1.72,2.76,2.76,0,0,0,2,.7,2.37,2.37,0,0,0,1.55-.45,1.39,1.39,0,0,0,.54-1.1c0-.72-.59-1.21-1.77-1.48l-2.06-.47a7.17,7.17,0,0,1-4-2,5,5,0,0,1-1.3-3.48,5.45,5.45,0,0,1,2-4.23,7.2,7.2,0,0,1,4.93-1.73,7.33,7.33,0,0,1,5.25,1.68,5.76,5.76,0,0,1,1.93,3.66l-4.55.83a2.33,2.33,0,0,0-2.56-2.2,2.2,2.2,0,0,0-1.37.43,1.34,1.34,0,0,0-.58,1.12c0,.73.47,1.17,1.41,1.34L775,461a7.43,7.43,0,0,1,4.12,2.06,5.07,5.07,0,0,1,1.41,3.57,5.71,5.71,0,0,1-1.88,4.28,7.35,7.35,0,0,1-5.27,1.79,9.8,9.8,0,0,1-3.52-.58,5.62,5.62,0,0,1-2.35-1.5,7.68,7.68,0,0,1-1.23-1.82A5.2,5.2,0,0,1,765.81,467Z"/><path class="am" d="M162.06,510.4l-5.16-15.25h3.61L164,506.81h.19l3.4-11.66H171l-5.09,15.25Z"/><path class="am" d="M182.45,507.08c-.46,2.19-2.48,3.58-5.33,3.58-3.56,0-5.65-2.24-5.65-6s2.14-6.14,5.61-6.14,5.46,2.19,5.46,5.89v.94h-8v.16a2.58,2.58,0,0,0,2.66,2.81,2.34,2.34,0,0,0,2.38-1.21Zm-7.9-3.73h5a2.37,2.37,0,0,0-2.43-2.51A2.49,2.49,0,0,0,174.55,503.35Z"/><path class="am" d="M185.06,498.74h3v1.86h.19a3,3,0,0,1,3-2.05,4.2,4.2,0,0,1,1.21.15v2.8a6,6,0,0,0-1.46-.19,2.56,2.56,0,0,0-2.84,2.63v6.46h-3.08Z"/><path class="am" d="M197.77,508.58h-.19v1.82h-3V494.29h3.07v6.31h.19a3.71,3.71,0,0,1,3.5-2.05c2.95,0,4.73,2.25,4.73,6s-1.8,6-4.73,6A3.81,3.81,0,0,1,197.77,508.58Zm-.13-4c0,2.11,1,3.43,2.66,3.43s2.63-1.31,2.63-3.44-1-3.44-2.63-3.44S197.65,502.45,197.64,504.58Z"/><path class="am" d="M398.29,510.4V495.15H405c3,0,4.72,1.44,4.72,3.8a3.29,3.29,0,0,1-2.76,3.26v.19a3.63,3.63,0,0,1,3.49,3.64c0,2.67-2,4.36-5.27,4.36Zm3.2-8.93h2.4c1.72,0,2.66-.71,2.66-1.94s-.87-1.94-2.4-1.94h-2.66Zm2.84,6.49c1.84,0,2.84-.77,2.84-2.2s-1-2.13-2.91-2.13h-2.77V508Z"/><path class="am" d="M412.39,507.07c0-2.11,1.61-3.34,4.51-3.51l2.83-.17v-.95c0-1-.7-1.52-2-1.52-1.11,0-1.85.38-2.11,1.08h-2.83c.2-2.16,2.18-3.51,5.11-3.51,3.09,0,4.83,1.46,4.83,3.95v8h-3v-1.52h-.19a3.76,3.76,0,0,1-3.39,1.7C414,510.58,412.39,509.21,412.39,507.07Zm7.34-.9v-.85l-2.36.15c-1.33.09-2,.57-2,1.4s.75,1.4,1.82,1.4A2.29,2.29,0,0,0,419.73,506.17Z"/><path class="am" d="M430.38,498.49c3,0,4.7,1.23,4.87,3.47h-2.84c-.16-.75-.87-1.22-2-1.22s-1.91.5-1.91,1.24c0,.57.49.92,1.57,1.16l2.19.48c2.26.49,3.28,1.44,3.28,3.19,0,2.33-2.08,3.85-5.14,3.85s-4.94-1.26-5.15-3.5h3c.24.79,1,1.25,2.21,1.25s2-.5,2-1.25c0-.57-.44-.92-1.47-1.14l-2.11-.48c-2.27-.5-3.37-1.58-3.37-3.37C425.52,500,427.47,498.49,430.38,498.49Z"/><path class="am" d="M448.47,507.08c-.46,2.19-2.48,3.58-5.33,3.58-3.56,0-5.65-2.24-5.65-6s2.14-6.14,5.6-6.14,5.47,2.19,5.47,5.89v.94h-8v.16a2.58,2.58,0,0,0,2.66,2.81,2.34,2.34,0,0,0,2.38-1.21Zm-7.9-3.73h5a2.37,2.37,0,0,0-2.43-2.51A2.49,2.49,0,0,0,440.57,503.35Z"/><path class="am" d="M460.16,504.81a3.2,3.2,0,0,0,6.4,0v-9.66h3.19v10c0,3.38-2.48,5.66-6.39,5.66s-6.39-2.28-6.39-5.66v-10h3.19Z"/><path class="am" d="M476.64,510.4h-3.19V495.15h6.41c3.35,0,5.41,1.86,5.41,4.89a4.52,4.52,0,0,1-2.77,4.34l3.21,6H482.1l-2.85-5.53h-2.61Zm0-8h2.8a2.24,2.24,0,0,0,2.55-2.34,2.29,2.29,0,0,0-2.58-2.35h-2.77Z"/><path class="am" d="M498.47,510.4h-10V495.15h3.2v12.47h6.78Z"/><path class="am" d="M698.66,495.15a5,5,0,0,1,5.29,5.27,5.09,5.09,0,0,1-5.45,5.25h-3v4.73h-3.2V495.15Zm-3.17,7.93h2.31c1.83,0,2.9-.93,2.9-2.65s-1.05-2.66-2.89-2.66h-2.32Z"/><path class="am" d="M705.54,507.07c0-2.11,1.62-3.34,4.51-3.51l2.83-.17v-.95c0-1-.7-1.52-2-1.52-1.11,0-1.85.38-2.1,1.08H706c.2-2.16,2.18-3.51,5.11-3.51,3.09,0,4.83,1.46,4.83,3.95v8h-3v-1.52h-.19a3.74,3.74,0,0,1-3.38,1.7C707.11,510.58,705.54,509.21,705.54,507.07Zm7.34-.9v-.85l-2.36.15c-1.32.09-2,.57-2,1.4s.75,1.4,1.82,1.4A2.29,2.29,0,0,0,712.88,506.17Z"/><path class="am" d="M722.9,496v2.89h2.42v2.42H722.9v5.24c0,1,.46,1.48,1.51,1.48a8,8,0,0,0,.91,0v2.35a8.94,8.94,0,0,1-1.55.14c-2.83,0-3.95-.92-3.95-3.2v-6H718v-2.42h1.82V496Z"/><path class="am" d="M728,494.29h3v6.36h.19a3.55,3.55,0,0,1,3.52-2.13c2.51,0,4,1.57,4,4.38v7.5h-3.08v-6.77c0-1.62-.75-2.46-2.14-2.46a2.32,2.32,0,0,0-2.44,2.54v6.69H728Z"/></svg>