<svg xmlns="http://www.w3.org/2000/svg" xmlns:xlink="http://www.w3.org/1999/xlink" viewBox="0 0 900 500"><defs><style>.a,.ac{fill:#4b4b4b;}.b,.n{fill:#5abd80;}.c{fill:#66d38d;}.d{fill:#50b5c9;}.e{fill:#262626;}.f{fill:#333;}.g{fill:#969696;}.h,.o{fill:#eae9e9;}.i{fill:#c2c2c2;}.j{fill:#d7d7d7;stroke:#e8e8e8;}.aa,.ab,.ac,.j,.l,.m,.n,.o,.p,.q{stroke-miterlimit:10;}.k,.p,.s{fill:#fff;}.ab,.l,.w{fill:#ed2627;}.l,.m,.n{stroke:#f1e5ce;}.l,.m,.n,.p,.q{stroke-width:0.5px;}.m,.t{fill:#fec75e;}.o,.p,.q{stroke:#eae9e9;}.o{stroke-width:0.8px;}.q{fill:none;}.r{fill:#eceaff;}.s{opacity:0.24;}.u{fill:#fedd9e;}.v{fill:#ce9851;}.x{fill:#72cee7;}.y{fill:#4baabd;}.z{fill:#3e8a99;}.aa,.ae{fill:#e8f4ee;}.aa{stroke:#4b4b4b;}.ab,.ac{stroke:#3e8a99;stroke-width:0.25px;}.ad{fill:#e9f6fc;}</style><symbol id="b" viewBox="0 0 21.16 17.82"><polygon class="h" points="0 0 0.16 5.61 21.16 17.82 21.16 12.31 0 0"/><polygon class="b" points="0.49 0.87 0.64 5.25 15.38 13.77 15.38 9.47 0.49 0.87"/><polygon class="t" points="17.45 10.74 17.45 15.04 16.07 14.25 16.07 9.95 17.45 10.74"/><polygon class="w" points="19.56 12.02 19.56 16.31 18.18 15.52 18.18 11.22 19.56 12.02"/></symbol><symbol id="d" viewBox="0 0 6.67 7.71"><polygon class="t" points="0 0 0 3.85 6.67 7.71 6.67 3.85 0 0"/><polygon class="u" points="0 0.52 6.67 4.37 6.67 5.14 0 1.3 0 0.52"/><polygon class="v" points="0 3.43 6.67 7.29 6.67 7.43 0 3.58 0 3.43"/></symbol><symbol id="i" viewBox="0 0 8.15 5.95"><polygon class="a" points="0 0 0.06 1.73 5.88 5.09 5.88 3.39 0 0"/><ellipse class="b" cx="7.29" cy="4.96" rx="0.64" ry="1.14" transform="translate(-1.52 5.38) rotate(-36.95)"/><ellipse class="c" cx="7.29" cy="4.96" rx="0.43" ry="0.76" transform="translate(-1.52 5.38) rotate(-36.95)"/></symbol><symbol id="h" viewBox="0 0 10.6 18.87"><polygon class="d" points="0 0 10.46 6.04 10.6 18.87 0 12.75 0 0"/><use width="8.15" height="5.95" transform="translate(1.2 3.01) scale(1 1.05)" xlink:href="#i"/><use width="8.15" height="5.95" transform="translate(1.2 9.27)" xlink:href="#i"/><use width="8.15" height="5.95" transform="translate(1.2 6.21)" xlink:href="#i"/></symbol><symbol id="a" viewBox="0 0 231.21 171.61"><polygon class="x" points="0.21 57.3 132.21 133.51 132.21 171.61 0.21 95.4 0.21 57.3"/><polygon class="y" points="0 57.16 99 0 231 76.21 132 133.37 0 57.16"/><polygon class="z" points="231.21 114.46 231.21 76.35 132.21 133.51 132.21 171.61 231.21 114.46"/><polygon class="aa" points="127.85 135.22 127.85 152.81 98.5 135.87 98.5 118.92 127.85 135.22"/><polygon class="d" points="21.96 74.87 68.91 101.98 68.91 129.09 21.96 101.98 21.96 74.87"/><use width="21.16" height="17.82" transform="translate(24.28 88.22)" xlink:href="#b"/><use width="21.16" height="17.82" transform="translate(24.29 94.68)" xlink:href="#b"/><polygon class="a" points="17.54 73.14 17.54 100.04 5.89 93.32 5.86 66.39 17.54 73.14"/><polygon class="a" points="8.36 70.8 8.36 74.66 15.03 78.51 15.03 74.66 8.36 70.8"/><use width="6.67" height="7.71" transform="translate(8.36 71.32)" xlink:href="#d"/><use width="6.67" height="7.71" transform="translate(8.36 75.92)" xlink:href="#d"/><use width="6.67" height="7.71" transform="translate(8.36 83.62)" xlink:href="#d"/><use width="6.67" height="7.71" transform="translate(8.36 88.22)" xlink:href="#d"/><ellipse class="ab" cx="109.05" cy="150.34" rx="1.16" ry="2.05" transform="translate(-68.47 95.74) rotate(-36.95)"/><use width="10.6" height="18.87" transform="translate(71.49 103.47)" xlink:href="#h"/><use width="10.6" height="18.87" transform="translate(83.83 110.64)" xlink:href="#h"/><use width="10.6" height="18.87" transform="translate(71.49 118.09)" xlink:href="#h"/><use width="10.6" height="18.87" transform="translate(83.83 125.27)" xlink:href="#h"/><ellipse class="ac" cx="51.2" cy="112.58" rx="1.62" ry="2.87" transform="translate(-57.39 53.39) rotate(-36.95)"/><ellipse class="ac" cx="56.95" cy="115.9" rx="1.62" ry="2.87" transform="translate(-58.23 57.51) rotate(-36.95)"/><ellipse class="ac" cx="62.69" cy="118.92" rx="1.62" ry="2.87" transform="translate(-58.9 61.57) rotate(-36.95)"/></symbol><symbol id="y" viewBox="0 0 51.86 32.2"><polygon class="e" points="0 10.73 18.86 0 51.86 19.05 33 29.79 0 10.73"/><polygon class="f" points="33 32.2 33 29.79 51.86 19.05 51.86 21.47 33 32.2"/><polygon class="a" points="33 32.2 0 13.15 0 10.73 33 29.79 33 32.2"/></symbol><symbol id="ag" viewBox="0 0 66 40.52"><polygon class="e" points="0 19.05 33 0 66 19.05 33 38.1 0 19.05"/><polygon class="f" points="33 40.52 33 38.1 66 19.05 66 21.47 33 40.52"/><polygon class="a" points="33 40.52 0 21.47 0 19.05 33 38.1 33 40.52"/></symbol><symbol id="x" viewBox="0 0 299.9 323.56"><path class="g" d="M162.85,319.17v4.39c3,.13,127.44-69.8,127.44-69.8s2.27-5.84,1.31-8.44l-1.31,2.3L167.4,318.14Z"/><path class="h" d="M1.11,227.18l-1-2.06a11.09,11.09,0,0,0,1,5.88s157.36,93.54,161.74,92.56v-4.39L158.14,318Z"/><path class="i" d="M158.14,318l-155.93-90c-2.67-1.53-2.87-4-.44-5.4l124.64-70.32a10.19,10.19,0,0,1,9.27.18l153.78,90c2.67,1.54,2.87,4,.44,5.41L167.4,318.14A10.16,10.16,0,0,1,158.14,318Z"/><path class="j" d="M185.15,288.65,50.46,210.88c-2.3-1.32-2.47-3.43-.38-4.67l79-44.18a8.83,8.83,0,0,1,8,.16L269.89,240c2.31,1.32,2.48,3.42.39,4.67L193.15,288.8A8.79,8.79,0,0,1,185.15,288.65Z"/><use width="51.86" height="32.21" transform="translate(151.87 181.68) scale(0.33)" xlink:href="#y"/><use width="51.86" height="32.21" transform="translate(165.22 189.33) scale(0.33)" xlink:href="#y"/><use width="51.86" height="32.21" transform="translate(178.57 196.98) scale(0.33)" xlink:href="#y"/><use width="51.86" height="32.21" transform="translate(191.92 204.63) scale(0.33)" xlink:href="#y"/><use width="51.86" height="32.21" transform="translate(205.27 212.27) scale(0.33)" xlink:href="#y"/><use width="51.86" height="32.21" transform="translate(218.62 219.92) scale(0.33)" xlink:href="#y"/><use width="51.86" height="32.21" transform="translate(231.77 227.46) scale(0.33)" xlink:href="#y"/><use width="51.86" height="32.21" transform="translate(245.09 235.09) scale(0.33)" xlink:href="#y"/><use width="66" height="40.52" transform="translate(138.82 186.89) scale(0.33)" xlink:href="#ag"/><use width="66" height="40.52" transform="translate(152.14 194.53) scale(0.33)" xlink:href="#ag"/><use width="66" height="40.52" transform="translate(165.46 202.16) scale(0.33)" xlink:href="#ag"/><use width="66" height="40.52" transform="translate(178.79 209.79) scale(0.33)" xlink:href="#ag"/><use width="66" height="40.52" transform="translate(192.11 217.42) scale(0.33)" xlink:href="#ag"/><use width="66" height="40.52" transform="translate(205.43 225.05) scale(0.33)" xlink:href="#ag"/><polygon class="e" points="218.75 238.93 229.56 232.69 253.69 246.56 242.88 252.8 218.75 238.93"/><polygon class="f" points="242.88 253.59 242.88 252.8 253.69 246.56 253.69 247.35 242.88 253.59"/><polygon class="a" points="242.88 253.59 218.75 239.72 218.75 238.93 242.88 252.8 242.88 253.59"/><use width="66" height="40.52" transform="translate(125.6 194.53) scale(0.33)" xlink:href="#ag"/><use width="66" height="40.52" transform="translate(138.92 202.16) scale(0.33)" xlink:href="#ag"/><use width="66" height="40.52" transform="translate(152.24 209.79) scale(0.33)" xlink:href="#ag"/><use width="66" height="40.52" transform="translate(165.57 217.42) scale(0.33)" xlink:href="#ag"/><use width="66" height="40.52" transform="translate(178.89 225.05) scale(0.33)" xlink:href="#ag"/><use width="66" height="40.52" transform="translate(192.21 232.69) scale(0.33)" xlink:href="#ag"/><use width="66" height="40.52" transform="translate(205.53 240.32) scale(0.33)" xlink:href="#ag"/><polygon class="e" points="205.63 261.82 229.66 247.95 240.47 254.19 216.44 268.06 205.63 261.82"/><polygon class="f" points="216.44 268.86 216.44 268.06 240.47 254.19 240.47 254.98 216.44 268.86"/><polygon class="a" points="216.44 268.86 205.63 262.62 205.63 261.82 216.44 268.06 216.44 268.86"/><use width="66" height="40.52" transform="translate(112.38 202.16) scale(0.33)" xlink:href="#ag"/><use width="66" height="40.52" transform="translate(125.7 209.79) scale(0.33)" xlink:href="#ag"/><use width="66" height="40.52" transform="translate(139.02 217.42) scale(0.33)" xlink:href="#ag"/><use width="66" height="40.52" transform="translate(152.35 225.05) scale(0.33)" xlink:href="#ag"/><use width="66" height="40.52" transform="translate(165.67 232.69) scale(0.33)" xlink:href="#ag"/><use width="66" height="40.52" transform="translate(178.99 240.32) scale(0.33)" xlink:href="#ag"/><use width="66" height="40.52" transform="translate(192.31 247.95) scale(0.33)" xlink:href="#ag"/><use width="66" height="40.52" transform="translate(99.16 209.79) scale(0.33)" xlink:href="#ag"/><use width="66" height="40.52" transform="translate(112.48 217.42) scale(0.33)" xlink:href="#ag"/><use width="66" height="40.52" transform="translate(125.81 225.05) scale(0.33)" xlink:href="#ag"/><use width="66" height="40.52" transform="translate(139.13 232.69) scale(0.33)" xlink:href="#ag"/><use width="66" height="40.52" transform="translate(152.45 240.32) scale(0.33)" xlink:href="#ag"/><polygon class="e" points="165.77 254.19 176.58 247.95 214.03 269.46 203.22 275.7 165.77 254.19"/><polygon class="f" points="203.22 276.49 203.22 275.7 214.03 269.46 214.03 270.25 203.22 276.49"/><polygon class="a" points="203.22 276.49 165.77 254.98 165.77 254.19 203.22 275.7 203.22 276.49"/><use width="66" height="40.52" transform="translate(85.94 217.42) scale(0.33)" xlink:href="#ag"/><use width="51.86" height="32.21" transform="translate(138.73 174.04) scale(0.33)" xlink:href="#y"/><use width="66" height="40.52" transform="translate(125.7 179.26) scale(0.33)" xlink:href="#ag"/><use width="66" height="40.52" transform="translate(86.04 202.16) scale(0.33)" xlink:href="#ag"/><use width="66" height="40.52" transform="translate(72.82 209.79) scale(0.33)" xlink:href="#ag"/><use width="51.86" height="32.21" transform="translate(125.81 166.32) scale(0.33)" xlink:href="#y"/><use width="66" height="40.52" transform="translate(112.59 171.63) scale(0.33)" xlink:href="#ag"/><polygon class="e" points="99.16 185.5 109.97 179.26 134.1 193.13 123.29 199.38 99.16 185.5"/><polygon class="f" points="123.29 200.17 123.29 199.38 134.1 193.13 134.1 193.93 123.29 200.17"/><polygon class="a" points="123.29 200.17 99.16 186.29 99.16 185.5 123.29 199.38 123.29 200.17"/><polygon class="e" points="86.15 193.13 96.96 186.89 120.88 200.77 110.07 207.01 86.15 193.13"/><polygon class="f" points="110.07 207.8 110.07 207.01 120.88 200.77 120.88 201.56 110.07 207.8"/><polygon class="a" points="110.07 207.8 86.15 193.93 86.15 193.13 110.07 207.01 110.07 207.8"/><use width="66" height="40.52" transform="translate(72.93 194.53) scale(0.33)" xlink:href="#ag"/><use width="66" height="40.52" transform="translate(59.71 202.16) scale(0.33)" xlink:href="#ag"/><polygon class="e" points="99.26 231.3 110.07 225.06 160.85 254.19 150.04 260.43 99.26 231.3"/><polygon class="f" points="150.04 261.23 150.04 260.43 160.85 254.19 160.85 254.98 150.04 261.23"/><polygon class="a" points="150.04 261.23 99.26 232.09 99.26 231.3 150.04 260.43 150.04 261.23"/><use width="66" height="40.52" transform="translate(152.55 255.58) scale(0.33)" xlink:href="#ag"/><use width="66" height="40.52" transform="translate(165.87 263.22) scale(0.33)" xlink:href="#ag"/><use width="66" height="40.52" transform="translate(179.2 270.85) scale(0.33)" xlink:href="#ag"/><polygon class="j" points="92.04 241.84 128.44 262.85 104.18 276.86 67.78 255.85 92.04 241.84"/><path class="i" d="M296.81,91.38l-156-91c-1.83-1.06-3.43.17-3.56,2.74l-7.16,141.63c-.13,2.57,1.25,5.55,3.08,6.61l156,91c1.82,1.07,3.43-.17,3.56-2.74L299.89,98C300,95.42,298.63,92.45,296.81,91.38Z"/><path class="k" d="M285,233.55a1.92,1.92,0,0,1-.94-.29L139.36,148.88c-1.53-.89-2.73-3.5-2.62-5.69l6.55-127.93c.08-1.47.71-2.43,1.62-2.43a1.92,1.92,0,0,1,.94.29L290.51,97.51c1.53.89,2.73,3.49,2.62,5.68l-6.55,127.93c-.08,1.48-.71,2.43-1.62,2.43Z"/><path class="h" d="M144.91,13.33a1.42,1.42,0,0,1,.68.22L290.26,97.94c1.36.79,2.47,3.24,2.37,5.23L286.08,231.1c-.06,1.17-.51,2-1.12,2a1.42,1.42,0,0,1-.68-.22L139.61,148.45c-1.36-.8-2.47-3.24-2.37-5.23l6.55-127.93c.06-1.17.51-2,1.12-2m0-1c-1.16,0-2,1.1-2.12,2.91l-6.55,127.92c-.12,2.39,1.17,5.16,2.87,6.15l144.66,84.38a2.32,2.32,0,0,0,1.19.36c1.15,0,2-1.09,2.12-2.9l6.55-127.93c.12-2.39-1.17-5.16-2.87-6.15L146.1,12.69a2.42,2.42,0,0,0-1.19-.36Z"/><ellipse class="l" cx="149.78" cy="24.74" rx="1.6" ry="2.6" transform="translate(1.63 57.87) rotate(-21.99)"/><ellipse class="m" cx="155.13" cy="27.85" rx="1.6" ry="2.6" transform="translate(0.86 60.1) rotate(-21.99)"/><ellipse class="n" cx="160.47" cy="30.96" rx="1.6" ry="2.6" transform="translate(0.08 62.33) rotate(-21.99)"/><polygon class="o" points="278.12 218.05 144.92 141.36 150.44 47.73 281.46 123.93 278.12 218.05"/><polygon class="p" points="281.8 119.11 150.78 42.91 151.31 35.09 282.33 111.29 281.8 119.11"/><path class="q" d="M279.65,113.72a2.11,2.11,0,0,1-.14,1c-.35.8-1.22.8-1.95,0a3,3,0,0,1-.69-2.91.88.88,0,0,1,.94-.59"/><polygon class="h" points="277.93 112.14 278.54 111.23 277.51 110.26 277.93 112.14"/><path class="r" d="M155.78,42.11l-.08,1.19-.2-.11.21-3,.19.11-.09,1.32a.32.32,0,0,1,.21-.15.5.5,0,0,1,.31.08,1,1,0,0,1,.39.45,1.19,1.19,0,0,1,.1.6l-.09,1.28-.19-.11.09-1.24a.93.93,0,0,0-.08-.45.69.69,0,0,0-.3-.35.27.27,0,0,0-.32,0A.5.5,0,0,0,155.78,42.11Z"/><path class="r" d="M157.71,41.78l0,.62.4.23,0,.23-.39-.23-.09,1.18a.52.52,0,0,0,.24.51.34.34,0,0,0,.14,0v.21a.36.36,0,0,1-.2-.07.7.7,0,0,1-.28-.31.94.94,0,0,1-.08-.48l.08-1.21-.32-.19V42.1l.12.07c.15.08.23,0,.24-.16l0-.34Z"/><path class="r" d="M158.81,42.42l0,.62.4.23v.23l-.4-.23-.08,1.18a.49.49,0,0,0,.23.51.39.39,0,0,0,.14,0v.21a.32.32,0,0,1-.19-.07.67.67,0,0,1-.29-.31.94.94,0,0,1-.08-.48l.08-1.21-.32-.18v-.23l.12.07c.15.08.23,0,.24-.16l0-.34Z"/><path class="r" d="M159.57,46.36l-.19-.11.19-2.75.18.11,0,.39a.37.37,0,0,1,.21-.18.51.51,0,0,1,.38.07,1.22,1.22,0,0,1,.49.59,1.86,1.86,0,0,1,.13.84.88.88,0,0,1-.24.63.43.43,0,0,1-.53,0,1,1,0,0,1-.35-.34,1.59,1.59,0,0,1-.18-.4Zm1-.65a.7.7,0,0,0,.18-.5,1.44,1.44,0,0,0-.1-.66.88.88,0,0,0-.37-.46.31.31,0,0,0-.4,0,.72.72,0,0,0-.19.49,1.5,1.5,0,0,0,.11.67.91.91,0,0,0,.37.46A.31.31,0,0,0,160.56,45.71Z"/><path class="r" d="M161.17,45.94l.19,0a.88.88,0,0,0,.1.4.74.74,0,0,0,.29.29.31.31,0,0,0,.25.05.22.22,0,0,0,.12-.2.6.6,0,0,0-.24-.49l-.26-.22a.88.88,0,0,1-.33-.74.34.34,0,0,1,.18-.32.41.41,0,0,1,.38,0,1,1,0,0,1,.38.41,1.19,1.19,0,0,1,.13.44l-.18,0a.73.73,0,0,0-.08-.33.67.67,0,0,0-.27-.28.26.26,0,0,0-.23,0,.21.21,0,0,0-.12.19.54.54,0,0,0,.22.45l.25.22a1,1,0,0,1,.36.78.37.37,0,0,1-.17.32.38.38,0,0,1-.41,0,1,1,0,0,1-.41-.43A1.16,1.16,0,0,1,161.17,45.94Z"/><path class="r" d="M163,47.48a.11.11,0,0,1-.12,0,.3.3,0,0,1-.12-.13.29.29,0,0,1,0-.18.15.15,0,0,1,.06-.13.11.11,0,0,1,.12,0s.08.07.12.13a.29.29,0,0,1,0,.18C163,47.42,163,47.46,163,47.48Zm0-1.58a.36.36,0,0,1-.11-.13.39.39,0,0,1,0-.18c0-.07,0-.11.06-.13a.11.11,0,0,1,.12,0,.3.3,0,0,1,.12.13.39.39,0,0,1,0,.18c0,.06,0,.11-.06.13A.12.12,0,0,1,162.94,45.9Z"/><path class="r" d="M164.79,45.54l-1.31,2.29-.19-.11,1.31-2.29Z"/><path class="r" d="M166,46.24l-1.3,2.28-.19-.11,1.3-2.28Z"/><path class="r" d="M167,47.81l.2.12.35,1.93.52-1.42.2.11-.64,1.68-.21-.12-.35-1.94-.57,1.4-.21-.12-.38-2.27.22.13.3,1.9Z"/><path class="r" d="M169.45,49.25l.21.12L170,51.3l.52-1.43.21.12-.65,1.67-.2-.12-.35-1.93L169,51l-.21-.12-.37-2.27.21.12.3,1.91Z"/><path class="r" d="M171.92,50.69l.21.12.34,1.93.53-1.43.2.12-.65,1.67-.2-.12L172,51.05l-.57,1.4-.21-.12-.38-2.27.21.12.3,1.91Z"/><path class="r" d="M173.36,53.59a.3.3,0,0,1-.12-.13.46.46,0,0,1,0-.19.17.17,0,0,1,.06-.12s.08,0,.13,0a.31.31,0,0,1,.11.14.3.3,0,0,1,0,.18.15.15,0,0,1-.06.13S173.41,53.61,173.36,53.59Z"/><path class="r" d="M174.21,54.06,174,54l.21-3,.19.11Z"/><path class="r" d="M175.91,54.39l.17.18a.51.51,0,0,1-.27.3.52.52,0,0,1-.45-.08,1.25,1.25,0,0,1-.5-.58,1.71,1.71,0,0,1-.17-.9.84.84,0,0,1,.26-.62.43.43,0,0,1,.52,0,1.22,1.22,0,0,1,.51.58,1.8,1.8,0,0,1,.14.83.54.54,0,0,0,0,.08l-1.23-.71v0a1.29,1.29,0,0,0,.13.64.88.88,0,0,0,.37.43.4.4,0,0,0,.34.06A.4.4,0,0,0,175.91,54.39Zm-1-1.11,1,.59a1.24,1.24,0,0,0-.11-.54,1,1,0,0,0-.36-.41.34.34,0,0,0-.37,0A.51.51,0,0,0,174.91,53.28Z"/><path class="r" d="M177.43,53.89l.21.12.34,1.93.52-1.42.21.11-.65,1.68-.2-.12-.35-1.94-.57,1.4-.21-.12-.38-2.27.21.13.3,1.9Z"/><path class="r" d="M178.92,56.68a.9.9,0,0,1-.11-.47c0-.31.19-.42.51-.31l.41.16c.11,0,.17,0,.18-.1a.84.84,0,0,0-.08-.38.78.78,0,0,0-.28-.29.34.34,0,0,0-.31,0,.32.32,0,0,0-.15.26l-.18-.16a.41.41,0,0,1,.22-.34.5.5,0,0,1,.43.07,1.19,1.19,0,0,1,.43.46,1.24,1.24,0,0,1,.11.57l-.07,1c0,.11,0,.23,0,.35l-.18-.11a2,2,0,0,1,0-.35.32.32,0,0,1-.21.15.47.47,0,0,1-.35-.07A1,1,0,0,1,178.92,56.68Zm.09-.36a.69.69,0,0,0,.07.3.58.58,0,0,0,.24.25.37.37,0,0,0,.37,0,.48.48,0,0,0,.18-.39v-.24h-.08a.33.33,0,0,1-.13,0l-.34-.13C179.13,56,179,56.1,179,56.32Z"/><path class="r" d="M180.36,57.76l.19.05a1,1,0,0,0,.13.49.94.94,0,0,0,.32.36c.19.11.34.12.43,0a.64.64,0,0,0,.15-.46l0-.36a.31.31,0,0,1-.2.16.44.44,0,0,1-.35-.07,1.2,1.2,0,0,1-.47-.56,1.53,1.53,0,0,1-.15-.79.74.74,0,0,1,.24-.57.42.42,0,0,1,.51,0,.87.87,0,0,1,.33.3,1.22,1.22,0,0,1,.17.39l0-.35.19.11-.12,1.83a.91.91,0,0,1-.2.57c-.14.14-.34.14-.59,0a1.16,1.16,0,0,1-.45-.48A1.24,1.24,0,0,1,180.36,57.76Zm.38-.45a.92.92,0,0,0,.36.43.31.31,0,0,0,.39,0,.63.63,0,0,0,.17-.45,1.36,1.36,0,0,0-.1-.6.84.84,0,0,0-.36-.42c-.15-.09-.28-.1-.38,0a.55.55,0,0,0-.18.44A1.25,1.25,0,0,0,180.74,57.31Z"/><path class="r" d="M182.49,57.08a.48.48,0,0,1,.55,0,1.24,1.24,0,0,1,.52.6,1.78,1.78,0,0,1,.17.88.76.76,0,0,1-.27.62.5.5,0,0,1-.56,0,1.39,1.39,0,0,1-.51-.6,1.69,1.69,0,0,1-.17-.88A.76.76,0,0,1,182.49,57.08Zm0,1.43a.93.93,0,0,0,.38.44.35.35,0,0,0,.4,0,.6.6,0,0,0,.21-.5,1.39,1.39,0,0,0-.12-.7.93.93,0,0,0-.38-.44.35.35,0,0,0-.41,0,.64.64,0,0,0-.2.51A1.35,1.35,0,0,0,182.54,58.51Z"/><path class="r" d="M184.35,58.74l-.08,1.17-.2-.11.14-2,.19.11,0,.34c.12-.2.29-.23.53-.1a.94.94,0,0,1,.39.46,1.17,1.17,0,0,1,.1.59l-.09,1.29-.19-.12.09-1.24a1,1,0,0,0-.08-.45.66.66,0,0,0-.3-.34.27.27,0,0,0-.33,0A.51.51,0,0,0,184.35,58.74Z"/><path class="r" d="M186,60.91a.36.36,0,0,1-.11-.13.39.39,0,0,1,0-.18.15.15,0,0,1,.06-.13.11.11,0,0,1,.12,0,.3.3,0,0,1,.12.13.46.46,0,0,1,0,.19c0,.06,0,.1-.06.12A.12.12,0,0,1,186,60.91Z"/><path class="r" d="M187.62,60.16a.84.84,0,0,0-.32-.35.35.35,0,0,0-.41,0,.69.69,0,0,0-.21.51,1.43,1.43,0,0,0,.13.68.89.89,0,0,0,.37.45.35.35,0,0,0,.36,0,.39.39,0,0,0,.18-.23l.16.19a.46.46,0,0,1-.25.29.49.49,0,0,1-.46-.06,1.32,1.32,0,0,1-.52-.61,1.62,1.62,0,0,1-.16-.87.77.77,0,0,1,.26-.62.5.5,0,0,1,.56,0,1.21,1.21,0,0,1,.43.44,1.42,1.42,0,0,1,.18.56h-.17A1.31,1.31,0,0,0,187.62,60.16Z"/><path class="r" d="M188.42,60.53a.5.5,0,0,1,.56,0,1.28,1.28,0,0,1,.51.6,1.68,1.68,0,0,1,.17.88.76.76,0,0,1-.27.62.5.5,0,0,1-.56,0,1.39,1.39,0,0,1-.51-.6,1.8,1.8,0,0,1-.17-.88A.76.76,0,0,1,188.42,60.53Zm.05,1.43a.93.93,0,0,0,.38.44.36.36,0,0,0,.41,0,.67.67,0,0,0,.21-.5,1.51,1.51,0,0,0-.13-.7.92.92,0,0,0-.38-.44.33.33,0,0,0-.4,0,.61.61,0,0,0-.21.51A1.35,1.35,0,0,0,188.47,62Z"/><path class="r" d="M190.2,63.36l-.19-.11.13-2,.19.11,0,.33a.27.27,0,0,1,.2-.16.42.42,0,0,1,.31.07.86.86,0,0,1,.3.3,1,1,0,0,1,.15.42c.12-.24.31-.28.56-.13a.9.9,0,0,1,.37.4,1.22,1.22,0,0,1,.11.62l-.09,1.3-.19-.11.09-1.27a1,1,0,0,0-.08-.44.67.67,0,0,0-.28-.32.27.27,0,0,0-.32,0,.48.48,0,0,0-.15.35l-.08,1.2-.19-.11.09-1.27a.93.93,0,0,0-.08-.44.73.73,0,0,0-.28-.32.27.27,0,0,0-.32,0,.44.44,0,0,0-.15.35Z"/><polygon class="s" points="176.68 169.09 287.76 123.19 247.8 165.59 243.54 166.32 176.68 169.09"/></symbol></defs><title>websocket_intro</title><circle class="ad" cx="442.7" cy="122.43" r="92.09"/><path class="k" d="M423.51,59a4,4,0,0,0-4-4l-.33,0a5,5,0,0,0-8.58-1.37,2,2,0,0,0-1.1-.33,2,2,0,0,0-2,1.64h0a4,4,0,0,0-.46,8l12.86,0A4,4,0,0,0,423.51,59Z"/><path class="k" d="M511.23,83.22a7,7,0,0,0-7-7c-.19,0-.38,0-.57,0a8.84,8.84,0,0,0-15.19-2.42,3.52,3.52,0,0,0-1.95-.58A3.58,3.58,0,0,0,483,76.14h-.07a7.09,7.09,0,0,0-.82,14.13l22.77-.05A7,7,0,0,0,511.23,83.22Z"/><use width="231.21" height="171.61" transform="matrix(0.58, 0, 0, 0.58, 375.77, 78.35)" xlink:href="#a"/><circle class="ae" cx="291.55" cy="419.16" r="64.19"/><use width="299.9" height="323.56" transform="translate(247.56 372.76) scale(0.26 0.26)" xlink:href="#x"/><circle class="ae" cx="792.15" cy="133.65" r="64.19"/><use width="299.9" height="323.56" transform="translate(748.16 87.25) scale(0.26 0.26)" xlink:href="#x"/><circle class="ae" cx="100.86" cy="169.2" r="64.19"/><use width="299.9" height="323.56" transform="translate(56.87 122.8) scale(0.26 0.26)" xlink:href="#x"/><rect class="ae" x="743.63" y="195.61" width="106.84" height="55"/><path class="b" d="M770.26,234.89a9.42,9.42,0,0,1-6.81-2.67,9.14,9.14,0,0,1-2.76-6.9,9.41,9.41,0,0,1,9.52-9.65,10.38,10.38,0,0,1,3.58.59,7.24,7.24,0,0,1,2.58,1.55,9.68,9.68,0,0,1,1.59,2,7.14,7.14,0,0,1,.83,2.11l-3.87,1.22a4.82,4.82,0,0,0-.42-1.08,5.28,5.28,0,0,0-.81-1.09,3.67,3.67,0,0,0-1.43-.91,5.51,5.51,0,0,0-2-.35,5.24,5.24,0,0,0-3.67,1.47,5.43,5.43,0,0,0-1.58,4.17,5.2,5.2,0,0,0,5.3,5.46,4.73,4.73,0,0,0,3.3-1.07,5,5,0,0,0,1.54-2.39l3.92,1.12a8.3,8.3,0,0,1-.84,2.11,9.89,9.89,0,0,1-1.59,2,7.23,7.23,0,0,1-2.65,1.65A10,10,0,0,1,770.26,234.89Z"/><path class="b" d="M785.26,234.5h-4V215.67h4Z"/><path class="b" d="M789.09,219.26a2.32,2.32,0,0,1,1.61-3.95,2.28,2.28,0,0,1,1.65.68,2.28,2.28,0,0,1,0,3.27,2.28,2.28,0,0,1-1.65.68A2.19,2.19,0,0,1,789.09,219.26Zm3.61,15.24h-4V221.58h4Z"/><path class="b" d="M804.61,229.84l3.3.94a5.35,5.35,0,0,1-2,2.95,6.38,6.38,0,0,1-3.9,1.16,7,7,0,0,1-4.83-11.81,6.25,6.25,0,0,1,4.54-1.89,6.34,6.34,0,0,1,4.74,1.75,6.63,6.63,0,0,1,1.73,4.88,5.83,5.83,0,0,1-.07,1.22h-9a2.38,2.38,0,0,0,.91,1.78,3,3,0,0,0,2,.71A2.47,2.47,0,0,0,804.61,229.84Zm-5.46-3.35h5.17a2.26,2.26,0,0,0-.69-1.53,2.53,2.53,0,0,0-1.91-.65,2.46,2.46,0,0,0-1.82.67A2.42,2.42,0,0,0,799.15,226.49Z"/><path class="b" d="M814.64,227.09v7.41h-3.95V221.58h3.82v1.48a3.34,3.34,0,0,1,1.52-1.34,5,5,0,0,1,2.1-.48,4.31,4.31,0,0,1,3.51,1.44,5.66,5.66,0,0,1,1.19,3.71v8.11h-4v-7.44a2.39,2.39,0,0,0-.53-1.62,2,2,0,0,0-1.57-.61,2,2,0,0,0-1.55.63A2.33,2.33,0,0,0,814.64,227.09Z"/><path class="b" d="M830.89,217.81v3.77h2.53V225h-2.53v4.84c0,.9.48,1.35,1.43,1.35a4.54,4.54,0,0,0,1-.13v3.28a4.71,4.71,0,0,1-2.05.36,4.33,4.33,0,0,1-3.16-1.12,4,4,0,0,1-1.16-3V225h-2.28v-3.45h.64a1.89,1.89,0,0,0,1.5-.59,2.24,2.24,0,0,0,.51-1.52v-1.66Z"/><rect class="ad" x="384.86" y="200.89" width="115.53" height="55"/><path class="x" d="M417,224.91l-3.69,1a2.92,2.92,0,0,0-.86-1.59,3,3,0,0,0-2.21-.73,2.75,2.75,0,0,0-1.82.59,1.75,1.75,0,0,0-.7,1.39c0,.95.6,1.54,1.82,1.77l2.47.47a6.83,6.83,0,0,1,3.94,2,5.14,5.14,0,0,1,1.39,3.55,5.45,5.45,0,0,1-1.85,4.07,6.92,6.92,0,0,1-5,1.76,7.51,7.51,0,0,1-5.39-1.81,6.49,6.49,0,0,1-2.15-4.09l3.77-.91a3.51,3.51,0,0,0,1.08,2.27,3.86,3.86,0,0,0,2.75.9,3,3,0,0,0,1.89-.54,1.65,1.65,0,0,0,.71-1.39,1.58,1.58,0,0,0-.52-1.18,3,3,0,0,0-1.46-.66l-2.52-.47a6.43,6.43,0,0,1-3.68-1.9,5,5,0,0,1-1.34-3.51,5.38,5.38,0,0,1,1.95-4.24,6.9,6.9,0,0,1,4.65-1.69,8.83,8.83,0,0,1,2.93.46,5.32,5.32,0,0,1,2,1.21,6.42,6.42,0,0,1,1.18,1.56A5.67,5.67,0,0,1,417,224.91Z"/><path class="x" d="M428.29,234.16l3.3.94a5.38,5.38,0,0,1-2,3,6.38,6.38,0,0,1-3.9,1.16,7,7,0,0,1-4.83-11.81,6.25,6.25,0,0,1,4.54-1.89,6.38,6.38,0,0,1,4.75,1.75,6.67,6.67,0,0,1,1.72,4.88,5.83,5.83,0,0,1-.07,1.22h-9a2.42,2.42,0,0,0,.91,1.78,3,3,0,0,0,2,.71A2.47,2.47,0,0,0,428.29,234.16Zm-5.46-3.35H428a2.26,2.26,0,0,0-.69-1.53,2.53,2.53,0,0,0-1.91-.66,2.47,2.47,0,0,0-1.82.68A2.4,2.4,0,0,0,422.83,230.81Z"/><path class="x" d="M442.59,225.9v3.89a5.89,5.89,0,0,0-1.25-.12,2.92,2.92,0,0,0-2.17.85,3.69,3.69,0,0,0-.85,2.66v5.64h-3.95V225.9h3.82v1.74a2.89,2.89,0,0,1,1.43-1.43,4.55,4.55,0,0,1,1.93-.44A3.61,3.61,0,0,1,442.59,225.9Z"/><path class="x" d="M458.08,225.9l-4.91,12.92h-4l-5.3-12.92h4.29l3,8,2.75-8Z"/><path class="x" d="M468.15,234.16l3.3.94a5.4,5.4,0,0,1-2.06,3,6.38,6.38,0,0,1-3.9,1.16,6.66,6.66,0,0,1-4.77-1.88,6.57,6.57,0,0,1-2-5,6.66,6.66,0,0,1,1.91-4.92,6.25,6.25,0,0,1,4.54-1.89,6.34,6.34,0,0,1,4.74,1.75,6.63,6.63,0,0,1,1.73,4.88,5,5,0,0,1-.08,1.22h-9a2.38,2.38,0,0,0,.91,1.78,3,3,0,0,0,2,.71A2.47,2.47,0,0,0,468.15,234.16Zm-5.46-3.35h5.17a2.26,2.26,0,0,0-.69-1.53,2.53,2.53,0,0,0-1.91-.66,2.47,2.47,0,0,0-1.82.68A2.4,2.4,0,0,0,462.69,230.81Z"/><path class="x" d="M482.45,225.9v3.89a5.89,5.89,0,0,0-1.25-.12,2.9,2.9,0,0,0-2.17.85,3.65,3.65,0,0,0-.85,2.66v5.64h-3.95V225.9h3.82v1.74a2.85,2.85,0,0,1,1.43-1.43,4.49,4.49,0,0,1,1.93-.44A3.65,3.65,0,0,1,482.45,225.9Z"/></svg>