<svg xmlns="http://www.w3.org/2000/svg" xmlns:xlink="http://www.w3.org/1999/xlink" viewBox="0 0 900 600"><defs><style>.a,.w{fill:#eae9e9;}.b,.v{fill:#5abd80;}.c,.u{fill:#fec75e;}.d,.l,.t{fill:#ed2627;}.e,.m{fill:#4b4b4b;}.f{fill:#66d38d;}.g{fill:#50b5c9;}.h{fill:#72cee7;}.i{fill:#4baabd;}.j{fill:#3e8a99;}.ae,.k{fill:#e8f4ee;}.k{stroke:#4b4b4b;}.ad,.ae,.k,.l,.m,.r,.t,.u,.v,.w,.x,.y{stroke-miterlimit:10;}.l,.m{stroke:#3e8a99;stroke-width:0.25px;}.n{fill:#262626;}.o{fill:#333;}.p{fill:#969696;}.q{fill:#c2c2c2;}.r{fill:#d7d7d7;stroke:#e8e8e8;}.aa,.s,.x{fill:#fff;}.t,.u,.v{stroke:#f1e5ce;}.t,.u,.v,.x,.y{stroke-width:0.5px;}.w,.x,.y{stroke:#eae9e9;}.w{stroke-width:0.8px;}.y{fill:none;}.z{fill:#eceaff;}.aa{opacity:0.24;}.ab{fill:#fedd9e;}.ac{fill:#ce9851;}.ad{fill:#e9f6fc;stroke:#72cee7;stroke-width:4px;}.ae{stroke:#5abd80;stroke-width:5px;}.af{fill:#cdebd9;}</style><symbol id="b" viewBox="0 0 21.16 17.82"><polygon class="a" points="0 0 0.16 5.61 21.16 17.82 21.16 12.31 0 0"/><polygon class="b" points="0.49 0.87 0.64 5.25 15.38 13.77 15.38 9.47 0.49 0.87"/><polygon class="c" points="17.45 10.74 17.45 15.04 16.07 14.25 16.07 9.95 17.45 10.74"/><polygon class="d" points="19.56 12.02 19.56 16.31 18.18 15.52 18.18 11.22 19.56 12.02"/></symbol><symbol id="d" viewBox="0 0 6.67 7.71"><polygon class="c" points="0 0 0 3.85 6.67 7.71 6.67 3.85 0 0"/><polygon class="ab" points="0 0.52 6.67 4.37 6.67 5.14 0 1.3 0 0.52"/><polygon class="ac" points="0 3.43 6.67 7.29 6.67 7.43 0 3.58 0 3.43"/></symbol><symbol id="i" viewBox="0 0 8.15 5.95"><polygon class="e" points="0 0 0.06 1.73 5.88 5.09 5.88 3.39 0 0"/><ellipse class="b" cx="7.29" cy="4.96" rx="0.64" ry="1.14" transform="translate(-1.52 5.38) rotate(-36.95)"/><ellipse class="f" cx="7.29" cy="4.96" rx="0.43" ry="0.76" transform="translate(-1.52 5.38) rotate(-36.95)"/></symbol><symbol id="h" viewBox="0 0 10.6 18.87"><polygon class="g" points="0 0 10.46 6.04 10.6 18.87 0 12.75 0 0"/><use width="8.15" height="5.95" transform="translate(1.2 3.01) scale(1 1.05)" xlink:href="#i"/><use width="8.15" height="5.95" transform="translate(1.2 9.27)" xlink:href="#i"/><use width="8.15" height="5.95" transform="translate(1.2 6.21)" xlink:href="#i"/></symbol><symbol id="a" viewBox="0 0 231.21 171.61"><polygon class="h" points="0.21 57.3 132.21 133.51 132.21 171.61 0.21 95.4 0.21 57.3"/><polygon class="i" points="0 57.16 99 0 231 76.21 132 133.37 0 57.16"/><polygon class="j" points="231.21 114.46 231.21 76.35 132.21 133.51 132.21 171.61 231.21 114.46"/><polygon class="k" points="127.85 135.22 127.85 152.81 98.5 135.87 98.5 118.92 127.85 135.22"/><polygon class="g" points="21.96 74.87 68.91 101.98 68.91 129.09 21.96 101.98 21.96 74.87"/><use width="21.16" height="17.82" transform="translate(24.28 88.22)" xlink:href="#b"/><use width="21.16" height="17.82" transform="translate(24.29 94.68)" xlink:href="#b"/><polygon class="e" points="17.54 73.14 17.54 100.04 5.89 93.32 5.86 66.39 17.54 73.14"/><polygon class="e" points="8.36 70.8 8.36 74.66 15.03 78.51 15.03 74.66 8.36 70.8"/><use width="6.67" height="7.71" transform="translate(8.36 71.32)" xlink:href="#d"/><use width="6.67" height="7.71" transform="translate(8.36 75.92)" xlink:href="#d"/><use width="6.67" height="7.71" transform="translate(8.36 83.62)" xlink:href="#d"/><use width="6.67" height="7.71" transform="translate(8.36 88.22)" xlink:href="#d"/><ellipse class="l" cx="109.05" cy="150.34" rx="1.16" ry="2.05" transform="translate(-68.47 95.74) rotate(-36.95)"/><use width="10.6" height="18.87" transform="translate(71.49 103.47)" xlink:href="#h"/><use width="10.6" height="18.87" transform="translate(83.83 110.64)" xlink:href="#h"/><use width="10.6" height="18.87" transform="translate(71.49 118.09)" xlink:href="#h"/><use width="10.6" height="18.87" transform="translate(83.83 125.27)" xlink:href="#h"/><ellipse class="m" cx="51.2" cy="112.58" rx="1.62" ry="2.87" transform="translate(-57.39 53.39) rotate(-36.95)"/><ellipse class="m" cx="56.95" cy="115.9" rx="1.62" ry="2.87" transform="translate(-58.23 57.51) rotate(-36.95)"/><ellipse class="m" cx="62.69" cy="118.92" rx="1.62" ry="2.87" transform="translate(-58.9 61.57) rotate(-36.95)"/></symbol><symbol id="y" viewBox="0 0 51.86 32.2"><polygon class="n" points="0 10.73 18.86 0 51.86 19.05 33 29.79 0 10.73"/><polygon class="o" points="33 32.2 33 29.79 51.86 19.05 51.86 21.47 33 32.2"/><polygon class="e" points="33 32.2 0 13.15 0 10.73 33 29.79 33 32.2"/></symbol><symbol id="ag" viewBox="0 0 66 40.52"><polygon class="n" points="0 19.05 33 0 66 19.05 33 38.1 0 19.05"/><polygon class="o" points="33 40.52 33 38.1 66 19.05 66 21.47 33 40.52"/><polygon class="e" points="33 40.52 0 21.47 0 19.05 33 38.1 33 40.52"/></symbol><symbol id="x" viewBox="0 0 299.9 323.56"><path class="p" d="M162.85,319.17v4.39c3,.13,127.44-69.8,127.44-69.8s2.27-5.84,1.31-8.44l-1.31,2.3L167.4,318.14Z"/><path class="a" d="M1.11,227.18l-1-2.06a11.09,11.09,0,0,0,1,5.88s157.36,93.54,161.74,92.56v-4.39L158.14,318Z"/><path class="q" d="M158.14,318l-155.93-90c-2.67-1.53-2.87-4-.44-5.4l124.64-70.32a10.19,10.19,0,0,1,9.27.18l153.78,90c2.67,1.54,2.87,4,.44,5.41L167.4,318.14A10.16,10.16,0,0,1,158.14,318Z"/><path class="r" d="M185.15,288.65,50.46,210.88c-2.3-1.32-2.47-3.43-.38-4.67l79-44.18a8.83,8.83,0,0,1,8,.16L269.89,240c2.31,1.32,2.48,3.42.39,4.67L193.15,288.8A8.79,8.79,0,0,1,185.15,288.65Z"/><use width="51.86" height="32.21" transform="translate(151.87 181.68) scale(0.33)" xlink:href="#y"/><use width="51.86" height="32.21" transform="translate(165.22 189.33) scale(0.33)" xlink:href="#y"/><use width="51.86" height="32.21" transform="translate(178.57 196.98) scale(0.33)" xlink:href="#y"/><use width="51.86" height="32.21" transform="translate(191.92 204.63) scale(0.33)" xlink:href="#y"/><use width="51.86" height="32.21" transform="translate(205.27 212.27) scale(0.33)" xlink:href="#y"/><use width="51.86" height="32.21" transform="translate(218.62 219.92) scale(0.33)" xlink:href="#y"/><use width="51.86" height="32.21" transform="translate(231.77 227.46) scale(0.33)" xlink:href="#y"/><use width="51.86" height="32.21" transform="translate(245.09 235.09) scale(0.33)" xlink:href="#y"/><use width="66" height="40.52" transform="translate(138.82 186.89) scale(0.33)" xlink:href="#ag"/><use width="66" height="40.52" transform="translate(152.14 194.53) scale(0.33)" xlink:href="#ag"/><use width="66" height="40.52" transform="translate(165.46 202.16) scale(0.33)" xlink:href="#ag"/><use width="66" height="40.52" transform="translate(178.79 209.79) scale(0.33)" xlink:href="#ag"/><use width="66" height="40.52" transform="translate(192.11 217.42) scale(0.33)" xlink:href="#ag"/><use width="66" height="40.52" transform="translate(205.43 225.05) scale(0.33)" xlink:href="#ag"/><polygon class="n" points="218.75 238.93 229.56 232.69 253.69 246.56 242.88 252.8 218.75 238.93"/><polygon class="o" points="242.88 253.59 242.88 252.8 253.69 246.56 253.69 247.35 242.88 253.59"/><polygon class="e" points="242.88 253.59 218.75 239.72 218.75 238.93 242.88 252.8 242.88 253.59"/><use width="66" height="40.52" transform="translate(125.6 194.53) scale(0.33)" xlink:href="#ag"/><use width="66" height="40.52" transform="translate(138.92 202.16) scale(0.33)" xlink:href="#ag"/><use width="66" height="40.52" transform="translate(152.24 209.79) scale(0.33)" xlink:href="#ag"/><use width="66" height="40.52" transform="translate(165.57 217.42) scale(0.33)" xlink:href="#ag"/><use width="66" height="40.52" transform="translate(178.89 225.05) scale(0.33)" xlink:href="#ag"/><use width="66" height="40.52" transform="translate(192.21 232.69) scale(0.33)" xlink:href="#ag"/><use width="66" height="40.52" transform="translate(205.53 240.32) scale(0.33)" xlink:href="#ag"/><polygon class="n" points="205.63 261.82 229.66 247.95 240.47 254.19 216.44 268.06 205.63 261.82"/><polygon class="o" points="216.44 268.86 216.44 268.06 240.47 254.19 240.47 254.98 216.44 268.86"/><polygon class="e" points="216.44 268.86 205.63 262.62 205.63 261.82 216.44 268.06 216.44 268.86"/><use width="66" height="40.52" transform="translate(112.38 202.16) scale(0.33)" xlink:href="#ag"/><use width="66" height="40.52" transform="translate(125.7 209.79) scale(0.33)" xlink:href="#ag"/><use width="66" height="40.52" transform="translate(139.02 217.42) scale(0.33)" xlink:href="#ag"/><use width="66" height="40.52" transform="translate(152.35 225.05) scale(0.33)" xlink:href="#ag"/><use width="66" height="40.52" transform="translate(165.67 232.69) scale(0.33)" xlink:href="#ag"/><use width="66" height="40.52" transform="translate(178.99 240.32) scale(0.33)" xlink:href="#ag"/><use width="66" height="40.52" transform="translate(192.31 247.95) scale(0.33)" xlink:href="#ag"/><use width="66" height="40.52" transform="translate(99.16 209.79) scale(0.33)" xlink:href="#ag"/><use width="66" height="40.52" transform="translate(112.48 217.42) scale(0.33)" xlink:href="#ag"/><use width="66" height="40.52" transform="translate(125.81 225.05) scale(0.33)" xlink:href="#ag"/><use width="66" height="40.52" transform="translate(139.13 232.69) scale(0.33)" xlink:href="#ag"/><use width="66" height="40.52" transform="translate(152.45 240.32) scale(0.33)" xlink:href="#ag"/><polygon class="n" points="165.77 254.19 176.58 247.95 214.03 269.46 203.22 275.7 165.77 254.19"/><polygon class="o" points="203.22 276.49 203.22 275.7 214.03 269.46 214.03 270.25 203.22 276.49"/><polygon class="e" points="203.22 276.49 165.77 254.98 165.77 254.19 203.22 275.7 203.22 276.49"/><use width="66" height="40.52" transform="translate(85.94 217.42) scale(0.33)" xlink:href="#ag"/><use width="51.86" height="32.21" transform="translate(138.73 174.04) scale(0.33)" xlink:href="#y"/><use width="66" height="40.52" transform="translate(125.7 179.26) scale(0.33)" xlink:href="#ag"/><use width="66" height="40.52" transform="translate(86.04 202.16) scale(0.33)" xlink:href="#ag"/><use width="66" height="40.52" transform="translate(72.82 209.79) scale(0.33)" xlink:href="#ag"/><use width="51.86" height="32.21" transform="translate(125.81 166.32) scale(0.33)" xlink:href="#y"/><use width="66" height="40.52" transform="translate(112.59 171.63) scale(0.33)" xlink:href="#ag"/><polygon class="n" points="99.16 185.5 109.97 179.26 134.1 193.13 123.29 199.38 99.16 185.5"/><polygon class="o" points="123.29 200.17 123.29 199.38 134.1 193.13 134.1 193.93 123.29 200.17"/><polygon class="e" points="123.29 200.17 99.16 186.29 99.16 185.5 123.29 199.38 123.29 200.17"/><polygon class="n" points="86.15 193.13 96.96 186.89 120.88 200.77 110.07 207.01 86.15 193.13"/><polygon class="o" points="110.07 207.8 110.07 207.01 120.88 200.77 120.88 201.56 110.07 207.8"/><polygon class="e" points="110.07 207.8 86.15 193.93 86.15 193.13 110.07 207.01 110.07 207.8"/><use width="66" height="40.52" transform="translate(72.93 194.53) scale(0.33)" xlink:href="#ag"/><use width="66" height="40.52" transform="translate(59.71 202.16) scale(0.33)" xlink:href="#ag"/><polygon class="n" points="99.26 231.3 110.07 225.06 160.85 254.19 150.04 260.43 99.26 231.3"/><polygon class="o" points="150.04 261.23 150.04 260.43 160.85 254.19 160.85 254.98 150.04 261.23"/><polygon class="e" points="150.04 261.23 99.26 232.09 99.26 231.3 150.04 260.43 150.04 261.23"/><use width="66" height="40.52" transform="translate(152.55 255.58) scale(0.33)" xlink:href="#ag"/><use width="66" height="40.52" transform="translate(165.87 263.22) scale(0.33)" xlink:href="#ag"/><use width="66" height="40.52" transform="translate(179.2 270.85) scale(0.33)" xlink:href="#ag"/><polygon class="r" points="92.04 241.84 128.44 262.85 104.18 276.86 67.78 255.85 92.04 241.84"/><path class="q" d="M296.81,91.38l-156-91c-1.83-1.06-3.43.17-3.56,2.74l-7.16,141.63c-.13,2.57,1.25,5.55,3.08,6.61l156,91c1.82,1.07,3.43-.17,3.56-2.74L299.89,98C300,95.42,298.63,92.45,296.81,91.38Z"/><path class="s" d="M285,233.55a1.92,1.92,0,0,1-.94-.29L139.36,148.88c-1.53-.89-2.73-3.5-2.62-5.69l6.55-127.93c.08-1.47.71-2.43,1.62-2.43a1.92,1.92,0,0,1,.94.29L290.51,97.51c1.53.89,2.73,3.49,2.62,5.68l-6.55,127.93c-.08,1.48-.71,2.43-1.62,2.43Z"/><path class="a" d="M144.91,13.33a1.42,1.42,0,0,1,.68.22L290.26,97.94c1.36.79,2.47,3.24,2.37,5.23L286.08,231.1c-.06,1.17-.51,2-1.12,2a1.42,1.42,0,0,1-.68-.22L139.61,148.45c-1.36-.8-2.47-3.24-2.37-5.23l6.55-127.93c.06-1.17.51-2,1.12-2m0-1c-1.16,0-2,1.1-2.12,2.91l-6.55,127.92c-.12,2.39,1.17,5.16,2.87,6.15l144.66,84.38a2.32,2.32,0,0,0,1.19.36c1.15,0,2-1.09,2.12-2.9l6.55-127.93c.12-2.39-1.17-5.16-2.87-6.15L146.1,12.69a2.42,2.42,0,0,0-1.19-.36Z"/><ellipse class="t" cx="149.78" cy="24.74" rx="1.6" ry="2.6" transform="translate(1.63 57.87) rotate(-21.99)"/><ellipse class="u" cx="155.13" cy="27.85" rx="1.6" ry="2.6" transform="translate(0.86 60.1) rotate(-21.99)"/><ellipse class="v" cx="160.47" cy="30.96" rx="1.6" ry="2.6" transform="translate(0.08 62.33) rotate(-21.99)"/><polygon class="w" points="278.12 218.05 144.92 141.36 150.44 47.73 281.46 123.93 278.12 218.05"/><polygon class="x" points="281.8 119.11 150.78 42.91 151.31 35.09 282.33 111.29 281.8 119.11"/><path class="y" d="M279.65,113.72a2.11,2.11,0,0,1-.14,1c-.35.8-1.22.8-1.95,0a3,3,0,0,1-.69-2.91.88.88,0,0,1,.94-.59"/><polygon class="a" points="277.93 112.14 278.54 111.23 277.51 110.26 277.93 112.14"/><path class="z" d="M155.78,42.11l-.08,1.19-.2-.11.21-3,.19.11-.09,1.32a.32.32,0,0,1,.21-.15.5.5,0,0,1,.31.08,1,1,0,0,1,.39.45,1.19,1.19,0,0,1,.1.6l-.09,1.28-.19-.11.09-1.24a.93.93,0,0,0-.08-.45.69.69,0,0,0-.3-.35.27.27,0,0,0-.32,0A.5.5,0,0,0,155.78,42.11Z"/><path class="z" d="M157.71,41.78l0,.62.4.23,0,.23-.39-.23-.09,1.18a.52.52,0,0,0,.24.51.34.34,0,0,0,.14,0v.21a.36.36,0,0,1-.2-.07.7.7,0,0,1-.28-.31.94.94,0,0,1-.08-.48l.08-1.21-.32-.19V42.1l.12.07c.15.08.23,0,.24-.16l0-.34Z"/><path class="z" d="M158.81,42.42l0,.62.4.23v.23l-.4-.23-.08,1.18a.49.49,0,0,0,.23.51.39.39,0,0,0,.14,0v.21a.32.32,0,0,1-.19-.07.67.67,0,0,1-.29-.31.94.94,0,0,1-.08-.48l.08-1.21-.32-.18v-.23l.12.07c.15.08.23,0,.24-.16l0-.34Z"/><path class="z" d="M159.57,46.36l-.19-.11.19-2.75.18.11,0,.39a.37.37,0,0,1,.21-.18.51.51,0,0,1,.38.07,1.22,1.22,0,0,1,.49.59,1.86,1.86,0,0,1,.13.84.88.88,0,0,1-.24.63.43.43,0,0,1-.53,0,1,1,0,0,1-.35-.34,1.59,1.59,0,0,1-.18-.4Zm1-.65a.7.7,0,0,0,.18-.5,1.44,1.44,0,0,0-.1-.66.88.88,0,0,0-.37-.46.31.31,0,0,0-.4,0,.72.72,0,0,0-.19.49,1.5,1.5,0,0,0,.11.67.91.91,0,0,0,.37.46A.31.31,0,0,0,160.56,45.71Z"/><path class="z" d="M161.17,45.94l.19,0a.88.88,0,0,0,.1.4.74.74,0,0,0,.29.29.31.31,0,0,0,.25.05.22.22,0,0,0,.12-.2.6.6,0,0,0-.24-.49l-.26-.22a.88.88,0,0,1-.33-.74.34.34,0,0,1,.18-.32.41.41,0,0,1,.38,0,1,1,0,0,1,.38.41,1.19,1.19,0,0,1,.13.44l-.18,0a.73.73,0,0,0-.08-.33.67.67,0,0,0-.27-.28.26.26,0,0,0-.23,0,.21.21,0,0,0-.12.19.54.54,0,0,0,.22.45l.25.22a1,1,0,0,1,.36.78.37.37,0,0,1-.17.32.38.38,0,0,1-.41,0,1,1,0,0,1-.41-.43A1.16,1.16,0,0,1,161.17,45.94Z"/><path class="z" d="M163,47.48a.11.11,0,0,1-.12,0,.3.3,0,0,1-.12-.13.29.29,0,0,1,0-.18.15.15,0,0,1,.06-.13.11.11,0,0,1,.12,0s.08.07.12.13a.29.29,0,0,1,0,.18C163,47.42,163,47.46,163,47.48Zm0-1.58a.36.36,0,0,1-.11-.13.39.39,0,0,1,0-.18c0-.07,0-.11.06-.13a.11.11,0,0,1,.12,0,.3.3,0,0,1,.12.13.39.39,0,0,1,0,.18c0,.06,0,.11-.06.13A.12.12,0,0,1,162.94,45.9Z"/><path class="z" d="M164.79,45.54l-1.31,2.29-.19-.11,1.31-2.29Z"/><path class="z" d="M166,46.24l-1.3,2.28-.19-.11,1.3-2.28Z"/><path class="z" d="M167,47.81l.2.12.35,1.93.52-1.42.2.11-.64,1.68-.21-.12-.35-1.94-.57,1.4-.21-.12-.38-2.27.22.13.3,1.9Z"/><path class="z" d="M169.45,49.25l.21.12L170,51.3l.52-1.43.21.12-.65,1.67-.2-.12-.35-1.93L169,51l-.21-.12-.37-2.27.21.12.3,1.91Z"/><path class="z" d="M171.92,50.69l.21.12.34,1.93.53-1.43.2.12-.65,1.67-.2-.12L172,51.05l-.57,1.4-.21-.12-.38-2.27.21.12.3,1.91Z"/><path class="z" d="M173.36,53.59a.3.3,0,0,1-.12-.13.46.46,0,0,1,0-.19.17.17,0,0,1,.06-.12s.08,0,.13,0a.31.31,0,0,1,.11.14.3.3,0,0,1,0,.18.15.15,0,0,1-.06.13S173.41,53.61,173.36,53.59Z"/><path class="z" d="M174.21,54.06,174,54l.21-3,.19.11Z"/><path class="z" d="M175.91,54.39l.17.18a.51.51,0,0,1-.27.3.52.52,0,0,1-.45-.08,1.25,1.25,0,0,1-.5-.58,1.71,1.71,0,0,1-.17-.9.84.84,0,0,1,.26-.62.43.43,0,0,1,.52,0,1.22,1.22,0,0,1,.51.58,1.8,1.8,0,0,1,.14.83.54.54,0,0,0,0,.08l-1.23-.71v0a1.29,1.29,0,0,0,.13.64.88.88,0,0,0,.37.43.4.4,0,0,0,.34.06A.4.4,0,0,0,175.91,54.39Zm-1-1.11,1,.59a1.24,1.24,0,0,0-.11-.54,1,1,0,0,0-.36-.41.34.34,0,0,0-.37,0A.51.51,0,0,0,174.91,53.28Z"/><path class="z" d="M177.43,53.89l.21.12.34,1.93.52-1.42.21.11-.65,1.68-.2-.12-.35-1.94-.57,1.4-.21-.12-.38-2.27.21.13.3,1.9Z"/><path class="z" d="M178.92,56.68a.9.9,0,0,1-.11-.47c0-.31.19-.42.51-.31l.41.16c.11,0,.17,0,.18-.1a.84.84,0,0,0-.08-.38.78.78,0,0,0-.28-.29.34.34,0,0,0-.31,0,.32.32,0,0,0-.15.26l-.18-.16a.41.41,0,0,1,.22-.34.5.5,0,0,1,.43.07,1.19,1.19,0,0,1,.43.46,1.24,1.24,0,0,1,.11.57l-.07,1c0,.11,0,.23,0,.35l-.18-.11a2,2,0,0,1,0-.35.32.32,0,0,1-.21.15.47.47,0,0,1-.35-.07A1,1,0,0,1,178.92,56.68Zm.09-.36a.69.69,0,0,0,.07.3.58.58,0,0,0,.24.25.37.37,0,0,0,.37,0,.48.48,0,0,0,.18-.39v-.24h-.08a.33.33,0,0,1-.13,0l-.34-.13C179.13,56,179,56.1,179,56.32Z"/><path class="z" d="M180.36,57.76l.19.05a1,1,0,0,0,.13.49.94.94,0,0,0,.32.36c.19.11.34.12.43,0a.64.64,0,0,0,.15-.46l0-.36a.31.31,0,0,1-.2.16.44.44,0,0,1-.35-.07,1.2,1.2,0,0,1-.47-.56,1.53,1.53,0,0,1-.15-.79.74.74,0,0,1,.24-.57.42.42,0,0,1,.51,0,.87.87,0,0,1,.33.3,1.22,1.22,0,0,1,.17.39l0-.35.19.11-.12,1.83a.91.91,0,0,1-.2.57c-.14.14-.34.14-.59,0a1.16,1.16,0,0,1-.45-.48A1.24,1.24,0,0,1,180.36,57.76Zm.38-.45a.92.92,0,0,0,.36.43.31.31,0,0,0,.39,0,.63.63,0,0,0,.17-.45,1.36,1.36,0,0,0-.1-.6.84.84,0,0,0-.36-.42c-.15-.09-.28-.1-.38,0a.55.55,0,0,0-.18.44A1.25,1.25,0,0,0,180.74,57.31Z"/><path class="z" d="M182.49,57.08a.48.48,0,0,1,.55,0,1.24,1.24,0,0,1,.52.6,1.78,1.78,0,0,1,.17.88.76.76,0,0,1-.27.62.5.5,0,0,1-.56,0,1.39,1.39,0,0,1-.51-.6,1.69,1.69,0,0,1-.17-.88A.76.76,0,0,1,182.49,57.08Zm0,1.43a.93.93,0,0,0,.38.44.35.35,0,0,0,.4,0,.6.6,0,0,0,.21-.5,1.39,1.39,0,0,0-.12-.7.93.93,0,0,0-.38-.44.35.35,0,0,0-.41,0,.64.64,0,0,0-.2.51A1.35,1.35,0,0,0,182.54,58.51Z"/><path class="z" d="M184.35,58.74l-.08,1.17-.2-.11.14-2,.19.11,0,.34c.12-.2.29-.23.53-.1a.94.94,0,0,1,.39.46,1.17,1.17,0,0,1,.1.59l-.09,1.29-.19-.12.09-1.24a1,1,0,0,0-.08-.45.66.66,0,0,0-.3-.34.27.27,0,0,0-.33,0A.51.51,0,0,0,184.35,58.74Z"/><path class="z" d="M186,60.91a.36.36,0,0,1-.11-.13.39.39,0,0,1,0-.18.15.15,0,0,1,.06-.13.11.11,0,0,1,.12,0,.3.3,0,0,1,.12.13.46.46,0,0,1,0,.19c0,.06,0,.1-.06.12A.12.12,0,0,1,186,60.91Z"/><path class="z" d="M187.62,60.16a.84.84,0,0,0-.32-.35.35.35,0,0,0-.41,0,.69.69,0,0,0-.21.51,1.43,1.43,0,0,0,.13.68.89.89,0,0,0,.37.45.35.35,0,0,0,.36,0,.39.39,0,0,0,.18-.23l.16.19a.46.46,0,0,1-.25.29.49.49,0,0,1-.46-.06,1.32,1.32,0,0,1-.52-.61,1.62,1.62,0,0,1-.16-.87.77.77,0,0,1,.26-.62.5.5,0,0,1,.56,0,1.21,1.21,0,0,1,.43.44,1.42,1.42,0,0,1,.18.56h-.17A1.31,1.31,0,0,0,187.62,60.16Z"/><path class="z" d="M188.42,60.53a.5.5,0,0,1,.56,0,1.28,1.28,0,0,1,.51.6,1.68,1.68,0,0,1,.17.88.76.76,0,0,1-.27.62.5.5,0,0,1-.56,0,1.39,1.39,0,0,1-.51-.6,1.8,1.8,0,0,1-.17-.88A.76.76,0,0,1,188.42,60.53Zm.05,1.43a.93.93,0,0,0,.38.44.36.36,0,0,0,.41,0,.67.67,0,0,0,.21-.5,1.51,1.51,0,0,0-.13-.7.92.92,0,0,0-.38-.44.33.33,0,0,0-.4,0,.61.61,0,0,0-.21.51A1.35,1.35,0,0,0,188.47,62Z"/><path class="z" d="M190.2,63.36l-.19-.11.13-2,.19.11,0,.33a.27.27,0,0,1,.2-.16.42.42,0,0,1,.31.07.86.86,0,0,1,.3.3,1,1,0,0,1,.15.42c.12-.24.31-.28.56-.13a.9.9,0,0,1,.37.4,1.22,1.22,0,0,1,.11.62l-.09,1.3-.19-.11.09-1.27a1,1,0,0,0-.08-.44.67.67,0,0,0-.28-.32.27.27,0,0,0-.32,0,.48.48,0,0,0-.15.35l-.08,1.2-.19-.11.09-1.27a.93.93,0,0,0-.08-.44.73.73,0,0,0-.28-.32.27.27,0,0,0-.32,0,.44.44,0,0,0-.15.35Z"/><polygon class="aa" points="176.68 169.09 287.76 123.19 247.8 165.59 243.54 166.32 176.68 169.09"/></symbol></defs><title>websocket</title><polygon class="b" points="303.09 306.51 305.86 306.52 310.54 315.03 305.52 323.47 302.75 323.46 307.65 314.67 303.09 306.51"/><polygon class="b" points="312.83 306.51 315.6 306.52 320.27 315.03 315.25 323.47 312.48 323.46 317.39 314.67 312.83 306.51"/><polygon class="b" points="322.56 306.51 325.33 306.52 330.01 315.03 324.99 323.47 322.22 323.46 327.12 314.67 322.56 306.51"/><polygon class="b" points="332.3 306.51 335.07 306.52 339.74 315.03 334.72 323.47 331.95 323.46 336.86 314.67 332.3 306.51"/><polygon class="b" points="342.03 306.51 344.8 306.52 349.48 315.03 344.46 323.47 341.69 323.46 346.59 314.67 342.03 306.51"/><polygon class="b" points="351.76 306.51 354.54 306.52 359.21 315.03 354.19 323.47 351.42 323.46 356.32 314.67 351.76 306.51"/><polygon class="b" points="361.5 306.51 364.27 306.52 368.95 315.03 363.93 323.47 361.16 323.46 366.06 314.67 361.5 306.51"/><polygon class="b" points="371.24 306.51 374 306.52 378.68 315.03 373.66 323.47 370.89 323.46 375.8 314.67 371.24 306.51"/><polygon class="b" points="380.97 306.51 383.74 306.52 388.42 315.03 383.4 323.47 380.63 323.46 385.53 314.67 380.97 306.51"/><polygon class="b" points="390.7 306.51 393.48 306.52 398.15 315.03 393.13 323.47 390.36 323.46 395.26 314.67 390.7 306.51"/><polygon class="b" points="400.44 306.51 403.21 306.52 407.88 315.03 402.87 323.47 400.1 323.46 405 314.67 400.44 306.51"/><polygon class="b" points="410.17 306.51 412.94 306.52 417.62 315.03 412.6 323.47 409.83 323.46 414.73 314.67 410.17 306.51"/><polygon class="b" points="419.91 306.51 422.68 306.52 427.36 315.03 422.34 323.47 419.57 323.46 424.47 314.67 419.91 306.51"/><polygon class="b" points="429.64 306.51 432.41 306.52 437.09 315.03 432.07 323.47 429.3 323.46 434.2 314.67 429.64 306.51"/><polygon class="b" points="439.38 306.51 442.15 306.52 446.82 315.03 441.81 323.47 439.04 323.46 443.94 314.67 439.38 306.51"/><polygon class="b" points="449.11 306.51 451.88 306.52 456.56 315.03 451.54 323.47 448.77 323.46 453.67 314.67 449.11 306.51"/><polygon class="b" points="458.85 306.51 461.62 306.52 466.29 315.03 461.28 323.47 458.51 323.46 463.41 314.67 458.85 306.51"/><polygon class="b" points="468.58 306.51 471.35 306.52 476.03 315.03 471.01 323.47 468.24 323.46 473.14 314.67 468.58 306.51"/><polygon class="b" points="478.32 306.51 481.09 306.52 485.76 315.03 480.75 323.47 477.98 323.46 482.88 314.67 478.32 306.51"/><polygon class="b" points="488.05 306.51 490.82 306.52 495.5 315.03 490.48 323.47 487.71 323.46 492.61 314.67 488.05 306.51"/><polygon class="b" points="497.79 306.51 500.56 306.52 505.23 315.03 500.22 323.47 497.44 323.46 502.35 314.67 497.79 306.51"/><polygon class="b" points="507.52 306.51 510.29 306.52 514.97 315.03 509.95 323.47 507.18 323.46 512.08 314.67 507.52 306.51"/><polygon class="b" points="517.26 306.51 520.03 306.52 524.7 315.03 519.68 323.47 516.91 323.46 521.82 314.67 517.26 306.51"/><polygon class="b" points="526.99 306.51 529.76 306.52 534.44 315.03 529.42 323.47 526.65 323.46 531.55 314.67 526.99 306.51"/><polygon class="b" points="536.73 306.51 539.5 306.52 544.17 315.03 539.15 323.47 536.38 323.46 541.29 314.67 536.73 306.51"/><polygon class="b" points="546.46 306.51 549.23 306.52 553.91 315.03 548.89 323.47 546.12 323.46 551.02 314.67 546.46 306.51"/><polygon class="b" points="556.2 306.51 558.97 306.52 563.64 315.03 558.63 323.47 555.85 323.46 560.76 314.67 556.2 306.51"/><polygon class="b" points="565.93 306.51 568.7 306.52 573.38 315.03 568.36 323.47 565.59 323.46 570.49 314.67 565.93 306.51"/><polygon class="b" points="575.67 306.51 578.44 306.52 583.11 315.03 578.09 323.47 575.32 323.46 580.23 314.67 575.67 306.51"/><polygon class="b" points="585.4 306.51 588.17 306.52 592.85 315.03 587.83 323.47 585.06 323.46 589.96 314.67 585.4 306.51"/><polygon class="h" points="310.19 343.31 307.42 343.3 302.75 334.79 307.77 326.34 310.54 326.35 305.63 335.14 310.19 343.31"/><polygon class="h" points="319.93 343.31 317.16 343.3 312.48 334.79 317.5 326.34 320.27 326.35 315.37 335.14 319.93 343.31"/><polygon class="h" points="329.66 343.31 326.89 343.3 322.22 334.79 327.24 326.34 330.01 326.35 325.1 335.14 329.66 343.31"/><polygon class="h" points="339.4 343.31 336.63 343.3 331.95 334.79 336.97 326.34 339.74 326.35 334.84 335.14 339.4 343.31"/><polygon class="h" points="349.13 343.31 346.36 343.3 341.69 334.79 346.71 326.34 349.48 326.35 344.57 335.14 349.13 343.31"/><polygon class="h" points="358.87 343.31 356.1 343.3 351.42 334.79 356.44 326.34 359.21 326.35 354.31 335.14 358.87 343.31"/><polygon class="h" points="368.6 343.31 365.83 343.3 361.16 334.79 366.18 326.34 368.95 326.35 364.04 335.14 368.6 343.31"/><polygon class="h" points="378.34 343.31 375.57 343.3 370.89 334.79 375.91 326.34 378.68 326.35 373.78 335.14 378.34 343.31"/><polygon class="h" points="388.07 343.31 385.3 343.3 380.63 334.79 385.64 326.34 388.42 326.35 383.51 335.14 388.07 343.31"/><polygon class="h" points="397.81 343.31 395.04 343.3 390.36 334.79 395.38 326.34 398.15 326.35 393.25 335.14 397.81 343.31"/><polygon class="h" points="407.54 343.31 404.77 343.3 400.1 334.79 405.12 326.34 407.88 326.35 402.98 335.14 407.54 343.31"/><polygon class="h" points="417.28 343.31 414.51 343.3 409.83 334.79 414.85 326.34 417.62 326.35 412.72 335.14 417.28 343.31"/><polygon class="h" points="427.01 343.31 424.24 343.3 419.57 334.79 424.58 326.34 427.36 326.35 422.45 335.14 427.01 343.31"/><polygon class="h" points="436.75 343.31 433.98 343.3 429.3 334.79 434.32 326.34 437.09 326.35 432.19 335.14 436.75 343.31"/><polygon class="h" points="446.48 343.31 443.71 343.3 439.04 334.79 444.05 326.34 446.82 326.35 441.92 335.14 446.48 343.31"/><polygon class="h" points="456.22 343.31 453.45 343.3 448.77 334.79 453.79 326.34 456.56 326.35 451.66 335.14 456.22 343.31"/><polygon class="h" points="465.95 343.31 463.18 343.3 458.51 334.79 463.52 326.34 466.29 326.35 461.39 335.14 465.95 343.31"/><polygon class="h" points="475.69 343.31 472.92 343.3 468.24 334.79 473.26 326.34 476.03 326.35 471.13 335.14 475.69 343.31"/><polygon class="h" points="485.42 343.31 482.65 343.3 477.98 334.79 482.99 326.34 485.76 326.35 480.86 335.14 485.42 343.31"/><polygon class="h" points="495.16 343.31 492.39 343.3 487.71 334.79 492.73 326.34 495.5 326.35 490.6 335.14 495.16 343.31"/><polygon class="h" points="504.89 343.31 502.12 343.3 497.44 334.79 502.46 326.34 505.23 326.35 500.33 335.14 504.89 343.31"/><polygon class="h" points="514.63 343.31 511.86 343.3 507.18 334.79 512.2 326.34 514.97 326.35 510.07 335.14 514.63 343.31"/><polygon class="h" points="524.36 343.31 521.59 343.3 516.91 334.79 521.93 326.34 524.7 326.35 519.8 335.14 524.36 343.31"/><polygon class="h" points="534.1 343.31 531.33 343.3 526.65 334.79 531.67 326.34 534.44 326.35 529.54 335.14 534.1 343.31"/><polygon class="h" points="543.83 343.31 541.06 343.3 536.38 334.79 541.4 326.34 544.17 326.35 539.27 335.14 543.83 343.31"/><polygon class="h" points="553.57 343.31 550.79 343.3 546.12 334.79 551.14 326.34 553.91 326.35 549 335.14 553.57 343.31"/><polygon class="h" points="563.3 343.31 560.53 343.3 555.85 334.79 560.87 326.34 563.64 326.35 558.74 335.14 563.3 343.31"/><polygon class="h" points="573.03 343.31 570.26 343.3 565.59 334.79 570.61 326.34 573.38 326.35 568.48 335.14 573.03 343.31"/><polygon class="h" points="582.77 343.31 580 343.3 575.32 334.79 580.34 326.34 583.11 326.35 578.21 335.14 582.77 343.31"/><polygon class="h" points="592.5 343.31 589.73 343.3 585.06 334.79 590.08 326.34 592.85 326.35 587.95 335.14 592.5 343.31"/><path d="M326.6,274.77V249.4h9.7c4.66,0,7.51,2.44,7.51,6.33a5.6,5.6,0,0,1-4.38,5.47v.28c3.46.44,5.66,2.81,5.66,6.17,0,4.46-3.2,7.12-8.6,7.12Zm3.16-14.44h5.06c3.84,0,5.79-1.37,5.79-4.06s-1.83-4.07-5-4.07h-5.87ZM336,272c3.81,0,5.82-1.55,5.82-4.48s-2.08-4.43-6.12-4.43h-6V272Z"/><path d="M349.34,250.05a2.11,2.11,0,1,1,2.11,2.11A2.12,2.12,0,0,1,349.34,250.05Zm.6,5.77h3v18.95h-3Z"/><path d="M358.61,266v-2.86h11.53V266Z"/><path d="M374.76,265.29c0-5.94,3.15-9.81,8-9.81a6.5,6.5,0,0,1,5.95,3.32h.26V248.29h3v26.48h-2.88v-3h-.28a6.8,6.8,0,0,1-6.07,3.36C377.87,275.1,374.76,271.25,374.76,265.29Zm3.13,0c0,4.43,2.07,7.09,5.54,7.09s5.57-2.71,5.57-7.09-2.15-7.08-5.57-7.08S377.89,260.88,377.89,265.29Z"/><path d="M397.3,250.05a2.11,2.11,0,1,1,2.11,2.11A2.12,2.12,0,0,1,397.3,250.05Zm.59,5.77h3v18.95h-3Z"/><path d="M406.68,255.82h2.89v2.81h.28c.56-1.85,2.74-3.15,5.25-3.15a13.48,13.48,0,0,1,1.51.09v3a12.14,12.14,0,0,0-1.93-.17,4.64,4.64,0,0,0-5,4.6v11.75h-3Z"/><path d="M435.44,269.86c-.88,3.24-3.83,5.24-8,5.24-5.26,0-8.54-3.8-8.54-9.79s3.34-9.83,8.54-9.83,8.23,3.64,8.23,9.53v1.16H422.06v.14c.16,3.74,2.25,6.12,5.47,6.12,2.44,0,4.1-.9,4.89-2.57Zm-13.38-6.13H432.5c-.07-3.36-2.07-5.58-5.08-5.58S422.29,260.37,422.06,263.73Z"/><path d="M453.05,261.62a4.69,4.69,0,0,0-4.88-3.41c-3.41,0-5.56,2.72-5.56,7s2.18,7.16,5.56,7.16c2.55,0,4.32-1.18,4.88-3.33h3.06c-.54,3.48-3.37,6.05-7.93,6.05-5.3,0-8.7-3.85-8.7-9.88s3.38-9.74,8.69-9.74c4.6,0,7.41,2.76,7.94,6.14Z"/><path d="M465.22,250.91v4.91h4.22v2.53h-4.22v10.72c0,2.23.84,3.18,2.81,3.18a13.58,13.58,0,0,0,1.41-.07v2.55a9.77,9.77,0,0,1-1.78.18c-3.9,0-5.47-1.45-5.47-5.07V258.35h-3.05v-2.53h3.05v-4.91Z"/><path d="M473.48,250.05a2.11,2.11,0,1,1,2.11,2.11A2.12,2.12,0,0,1,473.48,250.05Zm.6,5.77h3v18.95h-3Z"/><path d="M481.92,265.29c0-6.1,3.34-9.81,8.73-9.81s8.74,3.71,8.74,9.81-3.34,9.81-8.74,9.81S481.92,271.37,481.92,265.29Zm14.34,0c0-4.5-2-7.08-5.61-7.08s-5.6,2.58-5.6,7.08,2,7.09,5.6,7.09S496.26,269.77,496.26,265.29Z"/><path d="M504.14,255.82H507v3h.28c.95-2.09,2.79-3.32,5.7-3.32,4.25,0,6.62,2.52,6.62,7v12.27h-3V263.23c0-3.41-1.44-5-4.47-5s-5,2-5,5.34v11.22h-3Z"/><path d="M525.14,255.82H528v3h.29c.94-2.09,2.79-3.32,5.69-3.32,4.25,0,6.63,2.52,6.63,7v12.27h-3V263.23c0-3.41-1.44-5-4.46-5s-5,2-5,5.34v11.22h-3Z"/><path d="M545,269.46c0-3.4,2.5-5.35,6.91-5.61l5.47-.33v-1.73c0-2.33-1.46-3.62-4.29-3.62-2.27,0-3.85.86-4.27,2.36h-3.06c.4-3,3.39-5,7.43-5,4.63,0,7.21,2.38,7.21,6.31v13h-2.88V272h-.28a6.56,6.56,0,0,1-5.84,3.13C547.75,275.1,545,272.92,545,269.46Zm12.38-1.76V266l-5.1.33c-2.88.2-4.15,1.2-4.15,3.1s1.64,3.06,3.83,3.06C555.1,272.45,557.4,270.41,557.4,267.7Z"/><path d="M566.19,248.29h3v26.48h-3Z"/><circle class="ad" cx="717.47" cy="315.56" r="117.96"/><circle class="ae" cx="178.13" cy="316.93" r="117.96"/><path class="s" d="M692.89,234.25a5.07,5.07,0,0,0-5.08-5.08l-.41,0a6.39,6.39,0,0,0-11-1.75,2.6,2.6,0,0,0-4,1.68h-.05a5.13,5.13,0,0,0-.59,10.22l16.48,0A5.06,5.06,0,0,0,692.89,234.25Z"/><path class="s" d="M805.26,265.33a9,9,0,0,0-9-9c-.25,0-.49,0-.73,0a11.33,11.33,0,0,0-19.46-3.11,4.6,4.6,0,0,0-7,3H769a9.08,9.08,0,0,0-1.05,18.09l29.17-.07A9,9,0,0,0,805.26,265.33Z"/><use width="231.21" height="171.61" transform="translate(631.73 259.1) rotate(-0.05) scale(0.74)" xlink:href="#a"/><polygon class="af" points="159.72 304.29 176.91 297.75 273.97 349.82 204.35 387.5 176.59 387.5 159.72 304.29"/><use width="299.9" height="323.56" transform="translate(97.29 231.66) scale(0.48 0.48)" xlink:href="#x"/><path d="M271.2,77.63l5.11-20.21h7.2l-8.58,31.5h-7.24L261,68l-6.75,20.88h-7.37l-8.58-31.5h7.47l5.19,20.17,6.54-20.17h7.19Z"/><path d="M299.59,81l5.64,1.6a9.1,9.1,0,0,1-3.51,5,10.87,10.87,0,0,1-6.66,2,11.21,11.21,0,0,1-11.51-11.77,11.32,11.32,0,0,1,3.27-8.4,10.62,10.62,0,0,1,7.75-3.24,10.84,10.84,0,0,1,8.1,3c2,2,3,4.77,3,8.33a10,10,0,0,1-.13,2.09H290.13a4,4,0,0,0,1.55,3,5.27,5.27,0,0,0,3.47,1.22Q298.57,83.85,299.59,81Zm-9.33-5.73h8.84a4,4,0,0,0-1.18-2.62,4.36,4.36,0,0,0-3.26-1.11,4.2,4.2,0,0,0-3.11,1.16A4.15,4.15,0,0,0,290.26,75.23Z"/><path d="M316.51,88.92H310V56.75h6.62V68.92a5.62,5.62,0,0,1,2.49-1.86A9.74,9.74,0,0,1,323,66.3a9.39,9.39,0,0,1,7.48,3.22,12.26,12.26,0,0,1,2.78,8.29,12,12,0,0,1-2.95,8.33,9.77,9.77,0,0,1-7.58,3.26,8.27,8.27,0,0,1-3.77-.82,5.71,5.71,0,0,1-2.45-2.15Zm10-11.07a5.48,5.48,0,0,0-1.42-4.06,5.24,5.24,0,0,0-7.13,0,5.37,5.37,0,0,0-1.45,4.06A5.44,5.44,0,0,0,318,81.92a4.88,4.88,0,0,0,3.55,1.44,4.81,4.81,0,0,0,3.53-1.44A5.51,5.51,0,0,0,326.51,77.85Z"/><path d="M335.79,82.65l5.73-1a3.21,3.21,0,0,0,1,2.11,3.37,3.37,0,0,0,2.51.87,2.94,2.94,0,0,0,1.91-.56,1.7,1.7,0,0,0,.66-1.35c0-.89-.72-1.5-2.17-1.83l-2.54-.57a8.9,8.9,0,0,1-5-2.51,6.22,6.22,0,0,1-1.6-4.29,6.69,6.69,0,0,1,2.42-5.2,8.84,8.84,0,0,1,6.06-2.13c2.88,0,5,.69,6.47,2.07a7.07,7.07,0,0,1,2.37,4.51l-5.59,1a3.19,3.19,0,0,0-.91-2,3.12,3.12,0,0,0-2.25-.75,2.68,2.68,0,0,0-1.68.53,1.66,1.66,0,0,0-.72,1.38c0,.89.58,1.43,1.74,1.64l2.93.58a9.1,9.1,0,0,1,5.06,2.53,6.23,6.23,0,0,1,1.74,4.4,7,7,0,0,1-2.32,5.26,9,9,0,0,1-6.48,2.2,12.32,12.32,0,0,1-4.33-.71A7.14,7.14,0,0,1,337.9,87a9.33,9.33,0,0,1-1.51-2.25A6.48,6.48,0,0,1,335.79,82.65Z"/><path d="M368.4,66.17a11.5,11.5,0,0,1,8.37,3.29,12.22,12.22,0,0,1,0,16.81,12.19,12.19,0,0,1-16.72,0,12.09,12.09,0,0,1,0-16.77A11.44,11.44,0,0,1,368.4,66.17Zm0,17.19a4.83,4.83,0,0,0,3.53-1.42,5.5,5.5,0,0,0,1.44-4.09,5.41,5.41,0,0,0-1.44-4.06,4.89,4.89,0,0,0-3.53-1.4,4.83,4.83,0,0,0-3.51,1.42,5.37,5.37,0,0,0-1.47,4,5.44,5.44,0,0,0,1.47,4.07A4.81,4.81,0,0,0,368.4,83.36Z"/><path d="M394.65,72.39A4.86,4.86,0,0,0,391,73.86a5.5,5.5,0,0,0-1.44,4,5.37,5.37,0,0,0,1.48,4,5.07,5.07,0,0,0,3.67,1.46,4.52,4.52,0,0,0,4.57-3.28l6,1.82a10.18,10.18,0,0,1-3.58,5.42,10.63,10.63,0,0,1-6.95,2.26,11.68,11.68,0,0,1-8.42-3.31,11.13,11.13,0,0,1-3.44-8.37,11.38,11.38,0,0,1,11.64-11.73,10.9,10.9,0,0,1,7.06,2.22,9.89,9.89,0,0,1,3.55,5.47l-6,1.82a4.6,4.6,0,0,0-1.51-2.36A4.42,4.42,0,0,0,394.65,72.39Z"/><path d="M431.61,66.84,423,76.12l8.8,12.8h-8.27l-5.19-7.78-2.18,2.36v5.42H409.4V56.75h6.75V74.26l6.71-7.42Z"/><path d="M448.49,81l5.64,1.6a9.1,9.1,0,0,1-3.51,5,10.85,10.85,0,0,1-6.66,2,11.23,11.23,0,0,1-11.51-11.77,11.32,11.32,0,0,1,3.27-8.4,10.63,10.63,0,0,1,7.75-3.24,10.86,10.86,0,0,1,8.11,3c2,2,2.95,4.77,2.95,8.33a9.35,9.35,0,0,1-.13,2.09H439a4.11,4.11,0,0,0,1.55,3,5.27,5.27,0,0,0,3.47,1.22Q447.47,83.85,448.49,81Zm-9.33-5.73H448a4,4,0,0,0-1.18-2.62,4.36,4.36,0,0,0-3.26-1.11,4.21,4.21,0,0,0-3.11,1.16A4.15,4.15,0,0,0,439.16,75.23Z"/><path d="M467,60.4v6.44h4.31v5.91H467V81c0,1.54.81,2.31,2.44,2.31a8.63,8.63,0,0,0,1.78-.22v5.59a7.94,7.94,0,0,1-3.51.62,7.42,7.42,0,0,1-5.4-1.91,6.86,6.86,0,0,1-2-5.19V72.75h-3.9V66.84h1.11a3.22,3.22,0,0,0,2.55-1,3.82,3.82,0,0,0,.87-2.6V60.4Z"/><path d="M493.53,97.36h-6.75V66.84h6.53V69.1a5.77,5.77,0,0,1,2.51-2,9.23,9.23,0,0,1,4-.83,9.4,9.4,0,0,1,7.48,3.22,12.26,12.26,0,0,1,2.78,8.29,11.94,11.94,0,0,1-3,8.33,9.73,9.73,0,0,1-7.57,3.26q-4.17,0-6-2.22ZM502,81.92a5.51,5.51,0,0,0,1.44-4.07,5.44,5.44,0,0,0-1.44-4,4.91,4.91,0,0,0-3.58-1.42,4.83,4.83,0,0,0-3.53,1.42,5.4,5.4,0,0,0-1.45,4,5.47,5.47,0,0,0,1.45,4.07,4.81,4.81,0,0,0,3.53,1.44A4.89,4.89,0,0,0,502,81.92Z"/><path d="M528.45,66.84V73.5a9.12,9.12,0,0,0-2.13-.22,5,5,0,0,0-3.71,1.46,6.22,6.22,0,0,0-1.45,4.54v9.64h-6.75V66.84h6.53v3a4.91,4.91,0,0,1,2.44-2.44,7.92,7.92,0,0,1,3.29-.76A6.3,6.3,0,0,1,528.45,66.84Z"/><path d="M542.4,66.17a11.48,11.48,0,0,1,8.37,3.29,12.22,12.22,0,0,1,0,16.81,12.19,12.19,0,0,1-16.72,0,12.09,12.09,0,0,1,0-16.77A11.44,11.44,0,0,1,542.4,66.17Zm0,17.19a4.83,4.83,0,0,0,3.53-1.42,5.5,5.5,0,0,0,1.44-4.09,5.41,5.41,0,0,0-1.44-4.06,5.1,5.1,0,0,0-7,0,5.37,5.37,0,0,0-1.47,4,5.44,5.44,0,0,0,1.47,4.07A4.84,4.84,0,0,0,542.4,83.36Z"/><path d="M566.52,60.4v6.44h4.31v5.91h-4.31V81c0,1.54.81,2.31,2.44,2.31a8.55,8.55,0,0,0,1.78-.22v5.59a7.94,7.94,0,0,1-3.51.62,7.42,7.42,0,0,1-5.4-1.91,6.86,6.86,0,0,1-2-5.19V72.75H556V66.84h1.11a3.22,3.22,0,0,0,2.55-1,3.82,3.82,0,0,0,.87-2.6V60.4Z"/><path d="M585.49,66.17a11.5,11.5,0,0,1,8.37,3.29,12.22,12.22,0,0,1,0,16.81,12.19,12.19,0,0,1-16.72,0,12.09,12.09,0,0,1,0-16.77A11.44,11.44,0,0,1,585.49,66.17Zm0,17.19A4.83,4.83,0,0,0,589,81.94a5.5,5.5,0,0,0,1.44-4.09A5.41,5.41,0,0,0,589,73.79a5.1,5.1,0,0,0-7,0,5.37,5.37,0,0,0-1.47,4A5.44,5.44,0,0,0,582,81.92,4.82,4.82,0,0,0,585.49,83.36Z"/><path d="M611.74,72.39a4.86,4.86,0,0,0-3.62,1.47,5.5,5.5,0,0,0-1.44,4,5.33,5.33,0,0,0,1.49,4,5,5,0,0,0,3.66,1.46,4.66,4.66,0,0,0,3-1,4.71,4.71,0,0,0,1.58-2.33l6,1.82a10.12,10.12,0,0,1-3.58,5.42,10.63,10.63,0,0,1-6.95,2.26,11.68,11.68,0,0,1-8.42-3.31A11.13,11.13,0,0,1,600,77.9a11.38,11.38,0,0,1,11.64-11.73,10.9,10.9,0,0,1,7.06,2.22,9.89,9.89,0,0,1,3.55,5.47l-6,1.82a4.6,4.6,0,0,0-1.51-2.36A4.4,4.4,0,0,0,611.74,72.39Z"/><path d="M636.39,66.17a11.51,11.51,0,0,1,8.38,3.29,12.22,12.22,0,0,1,0,16.81,12.2,12.2,0,0,1-16.73,0,12.12,12.12,0,0,1,0-16.77A11.46,11.46,0,0,1,636.39,66.17Zm0,17.19a4.85,4.85,0,0,0,3.54-1.42,5.5,5.5,0,0,0,1.44-4.09,5.41,5.41,0,0,0-1.44-4.06,4.91,4.91,0,0,0-3.54-1.4,4.82,4.82,0,0,0-3.5,1.42,5.37,5.37,0,0,0-1.47,4,5.44,5.44,0,0,0,1.47,4.07A4.8,4.8,0,0,0,636.39,83.36Z"/><path d="M659.23,88.92h-6.75V56.75h6.75Z"/></svg>