<svg xmlns="http://www.w3.org/2000/svg" xmlns:xlink="http://www.w3.org/1999/xlink" viewBox="0 0 900 500"><defs><style>.a,.ac{fill:#4b4b4b;}.b,.n{fill:#5abd80;}.c{fill:#66d38d;}.d{fill:#50b5c9;}.e{fill:#262626;}.f{fill:#333;}.g{fill:#969696;}.h,.o{fill:#eae9e9;}.i{fill:#c2c2c2;}.j{fill:#d7d7d7;stroke:#e8e8e8;}.aa,.ab,.ac,.j,.l,.m,.n,.o,.p,.q{stroke-miterlimit:10;}.k,.p,.s{fill:#fff;}.ab,.l,.w{fill:#ed2627;}.l,.m,.n{stroke:#f1e5ce;}.l,.m,.n,.p,.q{stroke-width:0.5px;}.m,.t{fill:#fec75e;}.o,.p,.q{stroke:#eae9e9;}.o{stroke-width:0.8px;}.q{fill:none;}.r{fill:#eceaff;}.s{opacity:0.24;}.u{fill:#fedd9e;}.v{fill:#ce9851;}.x{fill:#72cee7;}.y{fill:#4baabd;}.z{fill:#3e8a99;}.aa,.ad{fill:#e8f4ee;}.aa{stroke:#4b4b4b;}.ab,.ac{stroke:#3e8a99;stroke-width:0.25px;}.ae{fill:#e9f6fc;}.af{fill:#130d0d;}</style><symbol id="b" viewBox="0 0 51.86 32.2"><polygon class="e" points="0 10.73 18.86 0 51.86 19.05 33 29.79 0 10.73"/><polygon class="f" points="33 32.2 33 29.79 51.86 19.05 51.86 21.47 33 32.2"/><polygon class="a" points="33 32.2 0 13.15 0 10.73 33 29.79 33 32.2"/></symbol><symbol id="j" viewBox="0 0 66 40.52"><polygon class="e" points="0 19.05 33 0 66 19.05 33 38.1 0 19.05"/><polygon class="f" points="33 40.52 33 38.1 66 19.05 66 21.47 33 40.52"/><polygon class="a" points="33 40.52 0 21.47 0 19.05 33 38.1 33 40.52"/></symbol><symbol id="a" viewBox="0 0 299.9 323.56"><path class="g" d="M162.85,319.17v4.39c3,.13,127.44-69.8,127.44-69.8s2.27-5.84,1.31-8.44l-1.31,2.3L167.4,318.14Z"/><path class="h" d="M1.11,227.18l-1-2.06a11.09,11.09,0,0,0,1,5.88s157.36,93.54,161.74,92.56v-4.39L158.14,318Z"/><path class="i" d="M158.14,318l-155.93-90c-2.67-1.53-2.87-4-.44-5.4l124.64-70.32a10.19,10.19,0,0,1,9.27.18l153.78,90c2.67,1.54,2.87,4,.44,5.41L167.4,318.14A10.16,10.16,0,0,1,158.14,318Z"/><path class="j" d="M185.15,288.65,50.46,210.88c-2.3-1.32-2.47-3.43-.38-4.67l79-44.18a8.83,8.83,0,0,1,8,.16L269.89,240c2.31,1.32,2.48,3.42.39,4.67L193.15,288.8A8.79,8.79,0,0,1,185.15,288.65Z"/><use width="51.86" height="32.21" transform="translate(151.87 181.68) scale(0.33)" xlink:href="#b"/><use width="51.86" height="32.21" transform="translate(165.22 189.33) scale(0.33)" xlink:href="#b"/><use width="51.86" height="32.21" transform="translate(178.57 196.98) scale(0.33)" xlink:href="#b"/><use width="51.86" height="32.21" transform="translate(191.92 204.63) scale(0.33)" xlink:href="#b"/><use width="51.86" height="32.21" transform="translate(205.27 212.27) scale(0.33)" xlink:href="#b"/><use width="51.86" height="32.21" transform="translate(218.62 219.92) scale(0.33)" xlink:href="#b"/><use width="51.86" height="32.21" transform="translate(231.77 227.46) scale(0.33)" xlink:href="#b"/><use width="51.86" height="32.21" transform="translate(245.09 235.09) scale(0.33)" xlink:href="#b"/><use width="66" height="40.52" transform="translate(138.82 186.89) scale(0.33)" xlink:href="#j"/><use width="66" height="40.52" transform="translate(152.14 194.53) scale(0.33)" xlink:href="#j"/><use width="66" height="40.52" transform="translate(165.46 202.16) scale(0.33)" xlink:href="#j"/><use width="66" height="40.52" transform="translate(178.79 209.79) scale(0.33)" xlink:href="#j"/><use width="66" height="40.52" transform="translate(192.11 217.42) scale(0.33)" xlink:href="#j"/><use width="66" height="40.52" transform="translate(205.43 225.05) scale(0.33)" xlink:href="#j"/><polygon class="e" points="218.75 238.93 229.56 232.69 253.69 246.56 242.88 252.8 218.75 238.93"/><polygon class="f" points="242.88 253.59 242.88 252.8 253.69 246.56 253.69 247.35 242.88 253.59"/><polygon class="a" points="242.88 253.59 218.75 239.72 218.75 238.93 242.88 252.8 242.88 253.59"/><use width="66" height="40.52" transform="translate(125.6 194.53) scale(0.33)" xlink:href="#j"/><use width="66" height="40.52" transform="translate(138.92 202.16) scale(0.33)" xlink:href="#j"/><use width="66" height="40.52" transform="translate(152.24 209.79) scale(0.33)" xlink:href="#j"/><use width="66" height="40.52" transform="translate(165.57 217.42) scale(0.33)" xlink:href="#j"/><use width="66" height="40.52" transform="translate(178.89 225.05) scale(0.33)" xlink:href="#j"/><use width="66" height="40.52" transform="translate(192.21 232.69) scale(0.33)" xlink:href="#j"/><use width="66" height="40.52" transform="translate(205.53 240.32) scale(0.33)" xlink:href="#j"/><polygon class="e" points="205.63 261.82 229.66 247.95 240.47 254.19 216.44 268.06 205.63 261.82"/><polygon class="f" points="216.44 268.86 216.44 268.06 240.47 254.19 240.47 254.98 216.44 268.86"/><polygon class="a" points="216.44 268.86 205.63 262.62 205.63 261.82 216.44 268.06 216.44 268.86"/><use width="66" height="40.52" transform="translate(112.38 202.16) scale(0.33)" xlink:href="#j"/><use width="66" height="40.52" transform="translate(125.7 209.79) scale(0.33)" xlink:href="#j"/><use width="66" height="40.52" transform="translate(139.02 217.42) scale(0.33)" xlink:href="#j"/><use width="66" height="40.52" transform="translate(152.35 225.05) scale(0.33)" xlink:href="#j"/><use width="66" height="40.52" transform="translate(165.67 232.69) scale(0.33)" xlink:href="#j"/><use width="66" height="40.52" transform="translate(178.99 240.32) scale(0.33)" xlink:href="#j"/><use width="66" height="40.52" transform="translate(192.31 247.95) scale(0.33)" xlink:href="#j"/><use width="66" height="40.52" transform="translate(99.16 209.79) scale(0.33)" xlink:href="#j"/><use width="66" height="40.52" transform="translate(112.48 217.42) scale(0.33)" xlink:href="#j"/><use width="66" height="40.52" transform="translate(125.81 225.05) scale(0.33)" xlink:href="#j"/><use width="66" height="40.52" transform="translate(139.13 232.69) scale(0.33)" xlink:href="#j"/><use width="66" height="40.52" transform="translate(152.45 240.32) scale(0.33)" xlink:href="#j"/><polygon class="e" points="165.77 254.19 176.58 247.95 214.03 269.46 203.22 275.7 165.77 254.19"/><polygon class="f" points="203.22 276.49 203.22 275.7 214.03 269.46 214.03 270.25 203.22 276.49"/><polygon class="a" points="203.22 276.49 165.77 254.98 165.77 254.19 203.22 275.7 203.22 276.49"/><use width="66" height="40.52" transform="translate(85.94 217.42) scale(0.33)" xlink:href="#j"/><use width="51.86" height="32.21" transform="translate(138.73 174.04) scale(0.33)" xlink:href="#b"/><use width="66" height="40.52" transform="translate(125.7 179.26) scale(0.33)" xlink:href="#j"/><use width="66" height="40.52" transform="translate(86.04 202.16) scale(0.33)" xlink:href="#j"/><use width="66" height="40.52" transform="translate(72.82 209.79) scale(0.33)" xlink:href="#j"/><use width="51.86" height="32.21" transform="translate(125.81 166.32) scale(0.33)" xlink:href="#b"/><use width="66" height="40.52" transform="translate(112.59 171.63) scale(0.33)" xlink:href="#j"/><polygon class="e" points="99.16 185.5 109.97 179.26 134.1 193.13 123.29 199.38 99.16 185.5"/><polygon class="f" points="123.29 200.17 123.29 199.38 134.1 193.13 134.1 193.93 123.29 200.17"/><polygon class="a" points="123.29 200.17 99.16 186.29 99.16 185.5 123.29 199.38 123.29 200.17"/><polygon class="e" points="86.15 193.13 96.96 186.89 120.88 200.77 110.07 207.01 86.15 193.13"/><polygon class="f" points="110.07 207.8 110.07 207.01 120.88 200.77 120.88 201.56 110.07 207.8"/><polygon class="a" points="110.07 207.8 86.15 193.93 86.15 193.13 110.07 207.01 110.07 207.8"/><use width="66" height="40.52" transform="translate(72.93 194.53) scale(0.33)" xlink:href="#j"/><use width="66" height="40.52" transform="translate(59.71 202.16) scale(0.33)" xlink:href="#j"/><polygon class="e" points="99.26 231.3 110.07 225.06 160.85 254.19 150.04 260.43 99.26 231.3"/><polygon class="f" points="150.04 261.23 150.04 260.43 160.85 254.19 160.85 254.98 150.04 261.23"/><polygon class="a" points="150.04 261.23 99.26 232.09 99.26 231.3 150.04 260.43 150.04 261.23"/><use width="66" height="40.52" transform="translate(152.55 255.58) scale(0.33)" xlink:href="#j"/><use width="66" height="40.52" transform="translate(165.87 263.22) scale(0.33)" xlink:href="#j"/><use width="66" height="40.52" transform="translate(179.2 270.85) scale(0.33)" xlink:href="#j"/><polygon class="j" points="92.04 241.84 128.44 262.85 104.18 276.86 67.78 255.85 92.04 241.84"/><path class="i" d="M296.81,91.38l-156-91c-1.83-1.06-3.43.17-3.56,2.74l-7.16,141.63c-.13,2.57,1.25,5.55,3.08,6.61l156,91c1.82,1.07,3.43-.17,3.56-2.74L299.89,98C300,95.42,298.63,92.45,296.81,91.38Z"/><path class="k" d="M285,233.55a1.92,1.92,0,0,1-.94-.29L139.36,148.88c-1.53-.89-2.73-3.5-2.62-5.69l6.55-127.93c.08-1.47.71-2.43,1.62-2.43a1.92,1.92,0,0,1,.94.29L290.51,97.51c1.53.89,2.73,3.49,2.62,5.68l-6.55,127.93c-.08,1.48-.71,2.43-1.62,2.43Z"/><path class="h" d="M144.91,13.33a1.42,1.42,0,0,1,.68.22L290.26,97.94c1.36.79,2.47,3.24,2.37,5.23L286.08,231.1c-.06,1.17-.51,2-1.12,2a1.42,1.42,0,0,1-.68-.22L139.61,148.45c-1.36-.8-2.47-3.24-2.37-5.23l6.55-127.93c.06-1.17.51-2,1.12-2m0-1c-1.16,0-2,1.1-2.12,2.91l-6.55,127.92c-.12,2.39,1.17,5.16,2.87,6.15l144.66,84.38a2.32,2.32,0,0,0,1.19.36c1.15,0,2-1.09,2.12-2.9l6.55-127.93c.12-2.39-1.17-5.16-2.87-6.15L146.1,12.69a2.42,2.42,0,0,0-1.19-.36Z"/><ellipse class="l" cx="149.78" cy="24.74" rx="1.6" ry="2.6" transform="translate(1.63 57.87) rotate(-21.99)"/><ellipse class="m" cx="155.13" cy="27.85" rx="1.6" ry="2.6" transform="translate(0.86 60.1) rotate(-21.99)"/><ellipse class="n" cx="160.47" cy="30.96" rx="1.6" ry="2.6" transform="translate(0.08 62.33) rotate(-21.99)"/><polygon class="o" points="278.12 218.05 144.92 141.36 150.44 47.73 281.46 123.93 278.12 218.05"/><polygon class="p" points="281.8 119.11 150.78 42.91 151.31 35.09 282.33 111.29 281.8 119.11"/><path class="q" d="M279.65,113.72a2.11,2.11,0,0,1-.14,1c-.35.8-1.22.8-1.95,0a3,3,0,0,1-.69-2.91.88.88,0,0,1,.94-.59"/><polygon class="h" points="277.93 112.14 278.54 111.23 277.51 110.26 277.93 112.14"/><path class="r" d="M155.78,42.11l-.08,1.19-.2-.11.21-3,.19.11-.09,1.32a.32.32,0,0,1,.21-.15.5.5,0,0,1,.31.08,1,1,0,0,1,.39.45,1.19,1.19,0,0,1,.1.6l-.09,1.28-.19-.11.09-1.24a.93.93,0,0,0-.08-.45.69.69,0,0,0-.3-.35.27.27,0,0,0-.32,0A.5.5,0,0,0,155.78,42.11Z"/><path class="r" d="M157.71,41.78l0,.62.4.23,0,.23-.39-.23-.09,1.18a.52.52,0,0,0,.24.51.34.34,0,0,0,.14,0v.21a.36.36,0,0,1-.2-.07.7.7,0,0,1-.28-.31.94.94,0,0,1-.08-.48l.08-1.21-.32-.19V42.1l.12.07c.15.08.23,0,.24-.16l0-.34Z"/><path class="r" d="M158.81,42.42l0,.62.4.23v.23l-.4-.23-.08,1.18a.49.49,0,0,0,.23.51.39.39,0,0,0,.14,0v.21a.32.32,0,0,1-.19-.07.67.67,0,0,1-.29-.31.94.94,0,0,1-.08-.48l.08-1.21-.32-.18v-.23l.12.07c.15.08.23,0,.24-.16l0-.34Z"/><path class="r" d="M159.57,46.36l-.19-.11.19-2.75.18.11,0,.39a.37.37,0,0,1,.21-.18.51.51,0,0,1,.38.07,1.22,1.22,0,0,1,.49.59,1.86,1.86,0,0,1,.13.84.88.88,0,0,1-.24.63.43.43,0,0,1-.53,0,1,1,0,0,1-.35-.34,1.59,1.59,0,0,1-.18-.4Zm1-.65a.7.7,0,0,0,.18-.5,1.44,1.44,0,0,0-.1-.66.88.88,0,0,0-.37-.46.31.31,0,0,0-.4,0,.72.72,0,0,0-.19.49,1.5,1.5,0,0,0,.11.67.91.91,0,0,0,.37.46A.31.31,0,0,0,160.56,45.71Z"/><path class="r" d="M161.17,45.94l.19,0a.88.88,0,0,0,.1.4.74.74,0,0,0,.29.29.31.31,0,0,0,.25.05.22.22,0,0,0,.12-.2.6.6,0,0,0-.24-.49l-.26-.22a.88.88,0,0,1-.33-.74.34.34,0,0,1,.18-.32.41.41,0,0,1,.38,0,1,1,0,0,1,.38.41,1.19,1.19,0,0,1,.13.44l-.18,0a.73.73,0,0,0-.08-.33.67.67,0,0,0-.27-.28.26.26,0,0,0-.23,0,.21.21,0,0,0-.12.19.54.54,0,0,0,.22.45l.25.22a1,1,0,0,1,.36.78.37.37,0,0,1-.17.32.38.38,0,0,1-.41,0,1,1,0,0,1-.41-.43A1.16,1.16,0,0,1,161.17,45.94Z"/><path class="r" d="M163,47.48a.11.11,0,0,1-.12,0,.3.3,0,0,1-.12-.13.29.29,0,0,1,0-.18.15.15,0,0,1,.06-.13.11.11,0,0,1,.12,0s.08.07.12.13a.29.29,0,0,1,0,.18C163,47.42,163,47.46,163,47.48Zm0-1.58a.36.36,0,0,1-.11-.13.39.39,0,0,1,0-.18c0-.07,0-.11.06-.13a.11.11,0,0,1,.12,0,.3.3,0,0,1,.12.13.39.39,0,0,1,0,.18c0,.06,0,.11-.06.13A.12.12,0,0,1,162.94,45.9Z"/><path class="r" d="M164.79,45.54l-1.31,2.29-.19-.11,1.31-2.29Z"/><path class="r" d="M166,46.24l-1.3,2.28-.19-.11,1.3-2.28Z"/><path class="r" d="M167,47.81l.2.12.35,1.93.52-1.42.2.11-.64,1.68-.21-.12-.35-1.94-.57,1.4-.21-.12-.38-2.27.22.13.3,1.9Z"/><path class="r" d="M169.45,49.25l.21.12L170,51.3l.52-1.43.21.12-.65,1.67-.2-.12-.35-1.93L169,51l-.21-.12-.37-2.27.21.12.3,1.91Z"/><path class="r" d="M171.92,50.69l.21.12.34,1.93.53-1.43.2.12-.65,1.67-.2-.12L172,51.05l-.57,1.4-.21-.12-.38-2.27.21.12.3,1.91Z"/><path class="r" d="M173.36,53.59a.3.3,0,0,1-.12-.13.46.46,0,0,1,0-.19.17.17,0,0,1,.06-.12s.08,0,.13,0a.31.31,0,0,1,.11.14.3.3,0,0,1,0,.18.15.15,0,0,1-.06.13S173.41,53.61,173.36,53.59Z"/><path class="r" d="M174.21,54.06,174,54l.21-3,.19.11Z"/><path class="r" d="M175.91,54.39l.17.18a.51.51,0,0,1-.27.3.52.52,0,0,1-.45-.08,1.25,1.25,0,0,1-.5-.58,1.71,1.71,0,0,1-.17-.9.84.84,0,0,1,.26-.62.43.43,0,0,1,.52,0,1.22,1.22,0,0,1,.51.58,1.8,1.8,0,0,1,.14.83.54.54,0,0,0,0,.08l-1.23-.71v0a1.29,1.29,0,0,0,.13.64.88.88,0,0,0,.37.43.4.4,0,0,0,.34.06A.4.4,0,0,0,175.91,54.39Zm-1-1.11,1,.59a1.24,1.24,0,0,0-.11-.54,1,1,0,0,0-.36-.41.34.34,0,0,0-.37,0A.51.51,0,0,0,174.91,53.28Z"/><path class="r" d="M177.43,53.89l.21.12.34,1.93.52-1.42.21.11-.65,1.68-.2-.12-.35-1.94-.57,1.4-.21-.12-.38-2.27.21.13.3,1.9Z"/><path class="r" d="M178.92,56.68a.9.9,0,0,1-.11-.47c0-.31.19-.42.51-.31l.41.16c.11,0,.17,0,.18-.1a.84.84,0,0,0-.08-.38.78.78,0,0,0-.28-.29.34.34,0,0,0-.31,0,.32.32,0,0,0-.15.26l-.18-.16a.41.41,0,0,1,.22-.34.5.5,0,0,1,.43.07,1.19,1.19,0,0,1,.43.46,1.24,1.24,0,0,1,.11.57l-.07,1c0,.11,0,.23,0,.35l-.18-.11a2,2,0,0,1,0-.35.32.32,0,0,1-.21.15.47.47,0,0,1-.35-.07A1,1,0,0,1,178.92,56.68Zm.09-.36a.69.69,0,0,0,.07.3.58.58,0,0,0,.24.25.37.37,0,0,0,.37,0,.48.48,0,0,0,.18-.39v-.24h-.08a.33.33,0,0,1-.13,0l-.34-.13C179.13,56,179,56.1,179,56.32Z"/><path class="r" d="M180.36,57.76l.19.05a1,1,0,0,0,.13.49.94.94,0,0,0,.32.36c.19.11.34.12.43,0a.64.64,0,0,0,.15-.46l0-.36a.31.31,0,0,1-.2.16.44.44,0,0,1-.35-.07,1.2,1.2,0,0,1-.47-.56,1.53,1.53,0,0,1-.15-.79.74.74,0,0,1,.24-.57.42.42,0,0,1,.51,0,.87.87,0,0,1,.33.3,1.22,1.22,0,0,1,.17.39l0-.35.19.11-.12,1.83a.91.91,0,0,1-.2.57c-.14.14-.34.14-.59,0a1.16,1.16,0,0,1-.45-.48A1.24,1.24,0,0,1,180.36,57.76Zm.38-.45a.92.92,0,0,0,.36.43.31.31,0,0,0,.39,0,.63.63,0,0,0,.17-.45,1.36,1.36,0,0,0-.1-.6.84.84,0,0,0-.36-.42c-.15-.09-.28-.1-.38,0a.55.55,0,0,0-.18.44A1.25,1.25,0,0,0,180.74,57.31Z"/><path class="r" d="M182.49,57.08a.48.48,0,0,1,.55,0,1.24,1.24,0,0,1,.52.6,1.78,1.78,0,0,1,.17.88.76.76,0,0,1-.27.62.5.5,0,0,1-.56,0,1.39,1.39,0,0,1-.51-.6,1.69,1.69,0,0,1-.17-.88A.76.76,0,0,1,182.49,57.08Zm0,1.43a.93.93,0,0,0,.38.44.35.35,0,0,0,.4,0,.6.6,0,0,0,.21-.5,1.39,1.39,0,0,0-.12-.7.93.93,0,0,0-.38-.44.35.35,0,0,0-.41,0,.64.64,0,0,0-.2.51A1.35,1.35,0,0,0,182.54,58.51Z"/><path class="r" d="M184.35,58.74l-.08,1.17-.2-.11.14-2,.19.11,0,.34c.12-.2.29-.23.53-.1a.94.94,0,0,1,.39.46,1.17,1.17,0,0,1,.1.59l-.09,1.29-.19-.12.09-1.24a1,1,0,0,0-.08-.45.66.66,0,0,0-.3-.34.27.27,0,0,0-.33,0A.51.51,0,0,0,184.35,58.74Z"/><path class="r" d="M186,60.91a.36.36,0,0,1-.11-.13.39.39,0,0,1,0-.18.15.15,0,0,1,.06-.13.11.11,0,0,1,.12,0,.3.3,0,0,1,.12.13.46.46,0,0,1,0,.19c0,.06,0,.1-.06.12A.12.12,0,0,1,186,60.91Z"/><path class="r" d="M187.62,60.16a.84.84,0,0,0-.32-.35.35.35,0,0,0-.41,0,.69.69,0,0,0-.21.51,1.43,1.43,0,0,0,.13.68.89.89,0,0,0,.37.45.35.35,0,0,0,.36,0,.39.39,0,0,0,.18-.23l.16.19a.46.46,0,0,1-.25.29.49.49,0,0,1-.46-.06,1.32,1.32,0,0,1-.52-.61,1.62,1.62,0,0,1-.16-.87.77.77,0,0,1,.26-.62.5.5,0,0,1,.56,0,1.21,1.21,0,0,1,.43.44,1.42,1.42,0,0,1,.18.56h-.17A1.31,1.31,0,0,0,187.62,60.16Z"/><path class="r" d="M188.42,60.53a.5.5,0,0,1,.56,0,1.28,1.28,0,0,1,.51.6,1.68,1.68,0,0,1,.17.88.76.76,0,0,1-.27.62.5.5,0,0,1-.56,0,1.39,1.39,0,0,1-.51-.6,1.8,1.8,0,0,1-.17-.88A.76.76,0,0,1,188.42,60.53Zm.05,1.43a.93.93,0,0,0,.38.44.36.36,0,0,0,.41,0,.67.67,0,0,0,.21-.5,1.51,1.51,0,0,0-.13-.7.92.92,0,0,0-.38-.44.33.33,0,0,0-.4,0,.61.61,0,0,0-.21.51A1.35,1.35,0,0,0,188.47,62Z"/><path class="r" d="M190.2,63.36l-.19-.11.13-2,.19.11,0,.33a.27.27,0,0,1,.2-.16.42.42,0,0,1,.31.07.86.86,0,0,1,.3.3,1,1,0,0,1,.15.42c.12-.24.31-.28.56-.13a.9.9,0,0,1,.37.4,1.22,1.22,0,0,1,.11.62l-.09,1.3-.19-.11.09-1.27a1,1,0,0,0-.08-.44.67.67,0,0,0-.28-.32.27.27,0,0,0-.32,0,.48.48,0,0,0-.15.35l-.08,1.2-.19-.11.09-1.27a.93.93,0,0,0-.08-.44.73.73,0,0,0-.28-.32.27.27,0,0,0-.32,0,.44.44,0,0,0-.15.35Z"/><polygon class="s" points="176.68 169.09 287.76 123.19 247.8 165.59 243.54 166.32 176.68 169.09"/></symbol><symbol id="ej" viewBox="0 0 21.16 17.82"><polygon class="h" points="0 0 0.16 5.61 21.16 17.82 21.16 12.31 0 0"/><polygon class="b" points="0.49 0.87 0.64 5.25 15.38 13.77 15.38 9.47 0.49 0.87"/><polygon class="t" points="17.45 10.74 17.45 15.04 16.07 14.25 16.07 9.95 17.45 10.74"/><polygon class="w" points="19.56 12.02 19.56 16.31 18.18 15.52 18.18 11.22 19.56 12.02"/></symbol><symbol id="el" viewBox="0 0 6.67 7.71"><polygon class="t" points="0 0 0 3.85 6.67 7.71 6.67 3.85 0 0"/><polygon class="u" points="0 0.52 6.67 4.37 6.67 5.14 0 1.3 0 0.52"/><polygon class="v" points="0 3.43 6.67 7.29 6.67 7.43 0 3.58 0 3.43"/></symbol><symbol id="eq" viewBox="0 0 8.15 5.95"><polygon class="a" points="0 0 0.06 1.73 5.88 5.09 5.88 3.39 0 0"/><ellipse class="b" cx="7.29" cy="4.96" rx="0.64" ry="1.14" transform="translate(-1.52 5.38) rotate(-36.95)"/><ellipse class="c" cx="7.29" cy="4.96" rx="0.43" ry="0.76" transform="translate(-1.52 5.38) rotate(-36.95)"/></symbol><symbol id="ep" viewBox="0 0 10.6 18.87"><polygon class="d" points="0 0 10.46 6.04 10.6 18.87 0 12.75 0 0"/><use width="8.15" height="5.95" transform="translate(1.2 3.01) scale(1 1.05)" xlink:href="#eq"/><use width="8.15" height="5.95" transform="translate(1.2 9.27)" xlink:href="#eq"/><use width="8.15" height="5.95" transform="translate(1.2 6.21)" xlink:href="#eq"/></symbol><symbol id="ei" viewBox="0 0 231.21 171.61"><polygon class="x" points="0.21 57.3 132.21 133.51 132.21 171.61 0.21 95.4 0.21 57.3"/><polygon class="y" points="0 57.16 99 0 231 76.21 132 133.37 0 57.16"/><polygon class="z" points="231.21 114.46 231.21 76.35 132.21 133.51 132.21 171.61 231.21 114.46"/><polygon class="aa" points="127.85 135.22 127.85 152.81 98.5 135.87 98.5 118.92 127.85 135.22"/><polygon class="d" points="21.96 74.87 68.91 101.98 68.91 129.09 21.96 101.98 21.96 74.87"/><use width="21.16" height="17.82" transform="translate(24.28 88.22)" xlink:href="#ej"/><use width="21.16" height="17.82" transform="translate(24.29 94.68)" xlink:href="#ej"/><polygon class="a" points="17.54 73.14 17.54 100.04 5.89 93.32 5.86 66.39 17.54 73.14"/><polygon class="a" points="8.36 70.8 8.36 74.66 15.03 78.51 15.03 74.66 8.36 70.8"/><use width="6.67" height="7.71" transform="translate(8.36 71.32)" xlink:href="#el"/><use width="6.67" height="7.71" transform="translate(8.36 75.92)" xlink:href="#el"/><use width="6.67" height="7.71" transform="translate(8.36 83.62)" xlink:href="#el"/><use width="6.67" height="7.71" transform="translate(8.36 88.22)" xlink:href="#el"/><ellipse class="ab" cx="109.05" cy="150.34" rx="1.16" ry="2.05" transform="translate(-68.47 95.74) rotate(-36.95)"/><use width="10.6" height="18.87" transform="translate(71.49 103.47)" xlink:href="#ep"/><use width="10.6" height="18.87" transform="translate(83.83 110.64)" xlink:href="#ep"/><use width="10.6" height="18.87" transform="translate(71.49 118.09)" xlink:href="#ep"/><use width="10.6" height="18.87" transform="translate(83.83 125.27)" xlink:href="#ep"/><ellipse class="ac" cx="51.2" cy="112.58" rx="1.62" ry="2.87" transform="translate(-57.39 53.39) rotate(-36.95)"/><ellipse class="ac" cx="56.95" cy="115.9" rx="1.62" ry="2.87" transform="translate(-58.23 57.51) rotate(-36.95)"/><ellipse class="ac" cx="62.69" cy="118.92" rx="1.62" ry="2.87" transform="translate(-58.9 61.57) rotate(-36.95)"/></symbol></defs><title>websocket_create_cable</title><circle class="ad" cx="291.55" cy="419.16" r="64.19"/><use width="299.9" height="323.56" transform="translate(247.56 372.76) scale(0.26 0.26)" xlink:href="#a"/><circle class="ad" cx="100.86" cy="169.2" r="64.19"/><use width="299.9" height="323.56" transform="translate(56.87 122.8) scale(0.26 0.26)" xlink:href="#a"/><circle class="ad" cx="792.15" cy="133.65" r="64.19"/><use width="299.9" height="323.56" transform="translate(748.16 87.25) scale(0.26 0.26)" xlink:href="#a"/><circle class="ae" cx="442.7" cy="122.43" r="92.09"/><path class="k" d="M423.51,59a4,4,0,0,0-4-4l-.33,0a5,5,0,0,0-8.58-1.37,2,2,0,0,0-1.1-.33,2,2,0,0,0-2,1.64h0a4,4,0,0,0-.46,8l12.86,0A4,4,0,0,0,423.51,59Z"/><path class="k" d="M511.23,83.22a7,7,0,0,0-7-7c-.19,0-.38,0-.57,0a8.84,8.84,0,0,0-15.19-2.42,3.52,3.52,0,0,0-1.95-.58A3.58,3.58,0,0,0,483,76.14h-.07a7.09,7.09,0,0,0-.82,14.13l22.77-.05A7,7,0,0,0,511.23,83.22Z"/><path class="x" d="M526,128.48l.13-1.58c1.74-.81,3.45-1.67,5.18-2.58,1.65,1.05,3.34,2.16,5,3.33l-.14,1.77c-1.68-1.17-3.33-2.29-5.08-3.35C529.39,126.92,527.66,127.73,526,128.48Z"/><path class="x" d="M525.31,134.69l.2-1.57c1.79-.68,3.64-1.4,5.4-2.18,1.61,1.17,3.12,2.4,4.67,3.68l-.23,1.77c-1.61-1.3-3.22-2.55-4.85-3.73C528.77,133.39,527,134.06,525.31,134.69Z"/><path class="x" d="M524.15,140.83l.37-1.55c1.82-.54,3.66-1.13,5.5-1.77,1.48,1.28,3,2.63,4.42,4l-.41,1.73c-1.48-1.41-2.95-2.76-4.53-4.08C527.76,139.8,526,140.34,524.15,140.83Z"/><path class="x" d="M522.57,146.86l.44-1.52c1.87-.4,3.81-.83,5.66-1.34,1.42,1.4,2.72,2.83,4.06,4.34l-.49,1.71q-2.09-2.3-4.23-4.42Q525.26,146.32,522.57,146.86Z"/><path class="x" d="M520.51,152.76l.59-1.48c1.9-.25,3.79-.56,5.71-.92,1.27,1.49,2.55,3,3.75,4.64l-.65,1.66c-1.26-1.63-2.5-3.18-3.87-4.71C524.23,152.28,522.35,152.54,520.51,152.76Z"/><path class="x" d="M518,158.49l.66-1.44c1.91-.11,3.88-.26,5.8-.48,1.18,1.59,2.27,3.21,3.37,4.9l-.75,1.62c-1.14-1.72-2.32-3.39-3.52-5C521.73,158.27,519.87,158.4,518,158.49Z"/><path class="x" d="M515.12,164l.79-1.38c1.94.05,3.84,0,5.79,0,1,1.66,2.09,3.41,3,5.15l-.9,1.54c-1-1.8-2-3.52-3.11-5.23C518.87,164.09,517,164.06,515.12,164Z"/><path class="x" d="M511.82,169.31c.3-.43.58-.89.87-1.33,1.91.18,3.84.31,5.81.4q1.35,2.6,2.59,5.34c-.33.5-.63,1-1,1.49-.84-1.85-1.79-3.7-2.73-5.47C515.49,169.64,513.66,169.51,511.82,169.31Z"/><path class="x" d="M508.1,174.33l1-1.25c1.92.35,3.8.6,5.74.82.78,1.81,1.55,3.67,2.2,5.54l-1.1,1.39c-.73-1.92-1.48-3.79-2.29-5.63C511.77,175,509.91,174.66,508.1,174.33Z"/><path class="x" d="M504,179.08c.38-.38.73-.77,1.07-1.18q2.79.69,5.68,1.25.94,2.78,1.78,5.68c-.38.46-.79.89-1.21,1.31-.55-1.94-1.21-3.91-1.88-5.8C507.63,180,505.86,179.57,504,179.08Z"/><path class="x" d="M499.63,183.5l1.15-1.09c.92.3,1.85.6,2.78.88s1.85.53,2.79.78q.78,2.88,1.35,5.8l-1.29,1.22q-.65-3-1.44-5.91C503.16,184.65,501.38,184.1,499.63,183.5Z"/><path class="x" d="M494.91,187.59c.41-.33.84-.64,1.24-1q2.64,1.08,5.42,2.06.53,2.9.93,5.89c-.46.39-.93.74-1.4,1.11-.14-1-.28-2-.44-3s-.36-2-.56-3C498.35,189,496.63,188.34,494.91,187.59Z"/><path class="x" d="M489.9,191.32l1.29-.92c1.72.87,3.5,1.73,5.26,2.48.24,2,.37,3.92.48,5.93l-1.45,1c-.14-2.06-.32-4.09-.56-6.08C493.21,193,491.53,192.16,489.9,191.32Z"/><path class="x" d="M484.61,194.65l1.38-.78q2.46,1.45,5.05,2.83c.06,2,.09,4,0,6l-1.55.88c0-2,0-4-.09-6.09C487.82,196.59,486.19,195.63,484.61,194.65Z"/><path class="x" d="M479.11,197.6l1.42-.72c1.56,1.1,3.19,2.22,4.83,3.24-.07,2-.22,3.92-.41,5.93l-1.59.81c.17-2.07.29-4.1.35-6.11Q481.34,199.21,479.11,197.6Z"/><path class="x" d="M473.39,200.1l1.48-.58c1.48,1.24,3,2.39,4.56,3.56-.23,1.94-.49,4-.85,5.91l-1.65.65c.32-2,.62-4,.82-6C476.27,202.51,474.79,201.28,473.39,200.1Z"/><path class="x" d="M467.51,202.2l1.5-.51c1.39,1.33,2.82,2.65,4.3,3.93-.37,1.93-.81,3.85-1.3,5.8-.56.18-1.12.39-1.69.55.48-2,.9-4,1.26-6Q469.48,204.12,467.51,202.2Z"/><path class="x" d="M461.48,203.8l1.54-.35c1.29,1.46,2.6,2.81,4,4.21-.52,1.88-1.08,3.85-1.73,5.71l-1.74.39c.63-2,1.22-3.86,1.72-5.83C464,206.6,462.69,205.18,461.48,203.8Z"/><path class="x" d="M455.35,205l1.56-.27q1.75,2.28,3.66,4.53c-.66,1.84-1.38,3.68-2.16,5.54-.58.09-1.16.21-1.75.29.78-1.9,1.49-3.83,2.15-5.73Q457,207.19,455.35,205Z"/><path class="x" d="M449.14,205.67l1.58-.11c1.06,1.63,2.15,3.17,3.31,4.75-.8,1.79-1.64,3.65-2.56,5.39l-1.78.13c.92-1.84,1.78-3.63,2.58-5.51C451.18,208.82,450.13,207.22,449.14,205.67Z"/><path class="x" d="M442.89,205.94l1.59,0c.93,1.68,1.92,3.37,2.95,5-.93,1.73-1.91,3.43-2.95,5.15l-1.78,0q1.57-2.69,3-5.35C444.69,209.16,443.77,207.55,442.89,205.94Z"/><path class="x" d="M436.65,205.7l1.58.13c.8,1.74,1.66,3.45,2.57,5.18-1.05,1.65-2.16,3.34-3.32,5l-1.78-.14c1.18-1.68,2.3-3.32,3.36-5.08C438.2,209.12,437.4,207.39,436.65,205.7Z"/><path class="x" d="M430.44,205l1.57.2c.67,1.79,1.39,3.64,2.18,5.4-1.18,1.61-2.4,3.12-3.69,4.67l-1.76-.23c1.3-1.61,2.54-3.22,3.73-4.85C431.74,208.5,431.06,206.76,430.44,205Z"/><path class="x" d="M424.3,203.89l1.55.36c.53,1.82,1.12,3.66,1.77,5.5-1.29,1.48-2.63,3-4,4.42l-1.73-.41c1.41-1.48,2.76-2.95,4.07-4.53C425.33,207.49,424.79,205.68,424.3,203.89Z"/><path class="x" d="M418.26,202.3l1.53.44c.39,1.87.83,3.81,1.34,5.66-1.4,1.42-2.84,2.72-4.34,4.07l-1.71-.5q2.3-2.08,4.41-4.23C419,205.92,418.62,204.1,418.26,202.3Z"/><path class="x" d="M412.37,200.24l1.48.59c.25,1.9.56,3.79.92,5.71-1.49,1.27-3,2.55-4.64,3.76l-1.66-.66c1.62-1.26,3.18-2.5,4.71-3.86C412.85,204,412.59,202.08,412.37,200.24Z"/><path class="x" d="M406.64,197.78l1.44.65c.11,1.91.26,3.88.48,5.8-1.6,1.18-3.22,2.27-4.9,3.37l-1.62-.74q2.58-1.73,5-3.53C406.86,201.46,406.72,199.61,406.64,197.78Z"/><path class="x" d="M401.12,194.85l1.37.79c0,1.94,0,3.84.06,5.8-1.66,1-3.41,2.08-5.15,3l-1.54-.9c1.79-1,3.51-2,5.23-3.1C401,198.6,401.07,196.68,401.12,194.85Z"/><path class="x" d="M395.82,191.55c.43.3.88.58,1.33.87-.18,1.91-.32,3.85-.4,5.81q-2.61,1.35-5.35,2.59c-.49-.33-1-.63-1.48-1,1.85-.85,3.69-1.8,5.47-2.74C395.49,195.22,395.62,193.39,395.82,191.55Z"/><path class="x" d="M390.8,187.83l1.24,1c-.34,1.92-.59,3.8-.81,5.74-1.81.78-3.68,1.55-5.54,2.21l-1.4-1.11c1.93-.73,3.8-1.48,5.64-2.29C390.17,191.5,390.47,189.65,390.8,187.83Z"/><path class="x" d="M386.05,183.77c.37.38.77.73,1.17,1.07-.45,1.86-.87,3.75-1.24,5.68q-2.78.94-5.69,1.78c-.45-.38-.88-.79-1.31-1.21,1.95-.54,3.91-1.21,5.81-1.88C385.17,187.36,385.56,185.59,386.05,183.77Z"/><path class="x" d="M381.62,179.36l1.1,1.16c-.31.91-.6,1.84-.89,2.77s-.53,1.85-.77,2.79c-1.93.52-3.85,1-5.8,1.35L374,186.14c2-.43,4-.91,5.92-1.43Q380.73,182,381.62,179.36Z"/><path class="x" d="M377.54,174.64c.33.41.63.85,1,1.24q-1.08,2.64-2.06,5.42-2.89.52-5.9.93c-.38-.46-.74-.93-1.1-1.4,1-.13,2-.28,3-.44s2-.36,3-.56C376.11,178.08,376.79,176.36,377.54,174.64Z"/><path class="x" d="M373.81,169.63l.91,1.3c-.86,1.71-1.72,3.49-2.47,5.26-2,.23-3.93.36-5.93.47l-1-1.45c2.06-.14,4.09-.32,6.08-.56C372.15,172.94,373,171.26,373.81,169.63Z"/><path class="x" d="M370.48,164.35l.78,1.38c-1,1.63-1.92,3.31-2.83,5-2,.06-4,.09-6,0l-.89-1.55c2.05,0,4.05,0,6.09-.09C368.54,167.55,369.5,165.92,370.48,164.35Z"/><path class="x" d="M367.52,158.84l.72,1.42c-1.1,1.56-2.21,3.19-3.23,4.83-2-.06-3.93-.22-5.93-.41l-.81-1.59q3.09.25,6.11.35Q365.91,161.07,367.52,158.84Z"/><path class="x" d="M365,153.12l.58,1.48c-1.24,1.48-2.4,3-3.56,4.57-1.95-.24-4-.5-5.91-.85l-.65-1.66c2,.33,4,.62,6,.82C362.62,156,363.84,154.52,365,153.12Z"/><path class="x" d="M362.93,147.24l.5,1.51c-1.32,1.38-2.65,2.81-3.93,4.29-1.92-.37-3.84-.81-5.79-1.3-.19-.56-.39-1.12-.56-1.69,2,.48,4,.9,6,1.26Q361,149.21,362.93,147.24Z"/><path class="x" d="M361.33,141.21l.35,1.54c-1.46,1.29-2.82,2.6-4.21,4-1.89-.52-3.85-1.08-5.71-1.73l-.4-1.74c2,.63,3.87,1.22,5.84,1.72C358.53,143.69,359.94,142.42,361.33,141.21Z"/><path class="x" d="M360.14,135.08l.27,1.56c-1.52,1.17-3,2.39-4.54,3.66-1.83-.66-3.68-1.38-5.53-2.16-.09-.58-.22-1.16-.29-1.75,1.89.78,3.83,1.49,5.73,2.15Q357.94,136.73,360.14,135.08Z"/><path class="x" d="M359.46,128.87l.11,1.58c-1.64,1.06-3.17,2.15-4.76,3.31-1.78-.8-3.65-1.64-5.38-2.56l-.14-1.78c1.85.92,3.64,1.78,5.52,2.58C356.31,130.91,357.91,129.86,359.46,128.87Z"/><path class="x" d="M359.19,122.62l0,1.59c-1.67.93-3.36,1.92-5,3-1.73-.92-3.43-1.91-5.15-3l0-1.78c1.78,1,3.57,2,5.35,3Q356.78,123.95,359.19,122.62Z"/><path class="x" d="M359.43,116.38,359.3,118c-1.74.81-3.45,1.66-5.18,2.58-1.66-1.06-3.35-2.17-5-3.33l.13-1.78c1.69,1.18,3.33,2.3,5.09,3.36C356,117.93,357.74,117.13,359.43,116.38Z"/><path class="x" d="M360.09,110.17l-.21,1.57c-1.79.67-3.64,1.39-5.4,2.18-1.6-1.18-3.11-2.4-4.66-3.69l.23-1.76c1.6,1.3,3.22,2.54,4.84,3.73Q357.5,111.1,360.09,110.17Z"/><path class="x" d="M361.24,104l-.36,1.55c-1.83.53-3.66,1.13-5.51,1.77-1.48-1.29-3-2.63-4.41-4l.4-1.73c1.49,1.41,3,2.76,4.53,4.07C357.64,105.06,359.45,104.52,361.24,104Z"/><path class="x" d="M362.82,98l-.43,1.53c-1.87.39-3.81.83-5.67,1.34-1.41-1.4-2.72-2.83-4.06-4.34l.49-1.71q2.1,2.3,4.23,4.41Q360.13,98.53,362.82,98Z"/><path class="x" d="M364.89,92.1l-.59,1.48c-1.9.25-3.79.56-5.72.92-1.26-1.49-2.55-3-3.75-4.64l.66-1.66c1.26,1.62,2.5,3.18,3.86,4.71C361.17,92.58,363.05,92.32,364.89,92.1Z"/><path class="x" d="M367.35,86.37l-.66,1.44c-1.91.11-3.87.26-5.8.48-1.17-1.59-2.26-3.22-3.36-4.9l.74-1.62q1.73,2.58,3.53,5C363.67,86.59,365.52,86.45,367.35,86.37Z"/><path class="x" d="M370.28,80.85l-.8,1.37c-1.94,0-3.83,0-5.79.06-1-1.66-2.08-3.41-3-5.15l.89-1.54c1,1.79,2,3.51,3.11,5.23C366.53,80.76,368.44,80.8,370.28,80.85Z"/><path class="x" d="M373.58,75.55c-.31.43-.58.88-.87,1.33-1.91-.18-3.85-.32-5.81-.4-.9-1.73-1.76-3.52-2.59-5.35.32-.49.63-1,1-1.48.85,1.85,1.79,3.7,2.73,5.47C369.9,75.22,371.74,75.35,373.58,75.55Z"/><path class="x" d="M377.29,70.53l-1,1.24c-1.92-.34-3.8-.59-5.74-.81-.79-1.81-1.55-3.68-2.21-5.54L369.47,64c.72,1.92,1.48,3.79,2.29,5.63C373.62,69.9,375.48,70.2,377.29,70.53Z"/><path class="x" d="M381.35,65.78c-.37.37-.72.77-1.07,1.17-1.85-.45-3.75-.87-5.67-1.24C374,63.86,373.38,62,372.83,60c.38-.46.79-.89,1.2-1.31.55,1.94,1.21,3.91,1.89,5.8C377.76,64.9,379.54,65.29,381.35,65.78Z"/><path class="x" d="M385.76,61.35l-1.15,1.1c-.92-.31-1.84-.6-2.78-.89s-1.84-.52-2.78-.77c-.53-1.93-1-3.85-1.36-5.8L379,53.76q.66,3,1.44,5.92Q383.15,60.46,385.76,61.35Z"/><path class="x" d="M390.49,57.27c-.41.33-.85.63-1.24,1-1.77-.72-3.57-1.41-5.42-2.06q-.54-2.89-.93-5.9c.45-.38.93-.73,1.39-1.1.14,1,.29,2,.45,3s.36,2,.55,3C387.05,55.84,388.77,56.52,390.49,57.27Z"/><path class="x" d="M395.5,53.54l-1.3.91c-1.71-.86-3.49-1.72-5.26-2.47-.24-2-.37-3.93-.48-5.93l1.46-1c.13,2.06.32,4.09.55,6.08C392.19,51.88,393.86,52.7,395.5,53.54Z"/><path class="x" d="M400.78,50.21,399.4,51c-1.63-1-3.32-1.92-5-2.83-.07-2-.09-4-.05-6l1.55-.89c0,2.05,0,4.05.09,6.1C397.58,48.27,399.2,49.23,400.78,50.21Z"/><path class="x" d="M406.28,47.25l-1.41.72c-1.56-1.1-3.2-2.21-4.84-3.23.07-2,.23-3.93.42-5.93L402,38q-.26,3.09-.36,6.11C403.26,45.13,404.8,46.18,406.28,47.25Z"/><path class="x" d="M412,44.76l-1.48.58c-1.49-1.24-3-2.4-4.57-3.56.23-2,.49-4,.85-5.91l1.66-.65c-.33,2-.63,4-.82,6C409.12,42.35,410.6,43.57,412,44.76Z"/><path class="x" d="M417.89,42.66l-1.51.5c-1.38-1.32-2.82-2.65-4.3-3.93.38-1.92.82-3.84,1.31-5.79.56-.19,1.12-.39,1.69-.56-.49,2-.9,4-1.27,6Q415.93,40.74,417.89,42.66Z"/><path class="x" d="M423.92,41.06l-1.55.35c-1.28-1.46-2.6-2.82-4-4.21.52-1.88,1.08-3.85,1.73-5.71l1.74-.39c-.64,2-1.22,3.86-1.73,5.83C421.43,38.26,422.71,39.67,423.92,41.06Z"/><path class="x" d="M430.05,39.87l-1.57.27c-1.16-1.52-2.38-3-3.66-4.54q1-2.74,2.16-5.53c.59-.09,1.17-.22,1.76-.29-.78,1.89-1.49,3.83-2.15,5.73Q428.39,37.67,430.05,39.87Z"/><path class="x" d="M436.26,39.19l-1.59.11c-1.05-1.64-2.15-3.17-3.3-4.75.79-1.79,1.64-3.66,2.56-5.39L435.7,29c-.91,1.84-1.78,3.63-2.57,5.51C434.22,36,435.27,37.64,436.26,39.19Z"/><path class="x" d="M442.5,38.92l-1.59,0c-.93-1.67-1.91-3.36-3-5,.93-1.73,1.92-3.43,3-5.15l1.78,0c-1.05,1.78-2,3.57-3,5.35C440.7,35.7,441.63,37.31,442.5,38.92Z"/><path class="x" d="M448.75,39.16,447.16,39c-.8-1.74-1.66-3.45-2.57-5.18,1.05-1.66,2.16-3.35,3.33-5l1.77.14c-1.17,1.68-2.29,3.32-3.35,5.08C447.19,35.74,448,37.47,448.75,39.16Z"/><path class="x" d="M455,39.82l-1.58-.21c-.67-1.79-1.39-3.64-2.17-5.4,1.17-1.6,2.4-3.11,3.68-4.66l1.77.23c-1.3,1.61-2.55,3.22-3.73,4.84C453.66,36.36,454.33,38.09,455,39.82Z"/><path class="x" d="M461.09,41l-1.54-.36c-.54-1.83-1.13-3.66-1.77-5.51,1.28-1.48,2.63-3,4-4.41l1.73.41c-1.41,1.48-2.77,2.95-4.08,4.52C460.07,37.37,460.6,39.18,461.09,41Z"/><path class="x" d="M467.13,42.55l-1.52-.43c-.4-1.87-.83-3.81-1.35-5.66,1.41-1.42,2.84-2.73,4.35-4.07l1.71.49Q468,35,465.9,37.11C466.36,38.94,466.77,40.76,467.13,42.55Z"/><path class="x" d="M473,44.62,471.55,44c-.25-1.9-.56-3.79-.92-5.71,1.49-1.27,3.05-2.56,4.64-3.76l1.66.66c-1.63,1.26-3.18,2.5-4.71,3.86C472.55,40.9,472.81,42.78,473,44.62Z"/><path class="x" d="M478.76,47.08l-1.44-.66c-.11-1.9-.26-3.87-.48-5.8,1.59-1.17,3.21-2.26,4.9-3.36l1.62.74q-2.58,1.72-5,3.53C478.54,43.4,478.67,45.25,478.76,47.08Z"/><path class="x" d="M484.27,50l-1.37-.8c.05-1.93,0-3.83,0-5.79,1.66-1,3.41-2.08,5.15-3l1.54.89c-1.8,1-3.52,2-5.23,3.11C484.36,46.26,484.33,48.17,484.27,50Z"/><path class="x" d="M489.58,53.31c-.43-.31-.89-.58-1.33-.87q.27-2.86.4-5.81,2.6-1.35,5.34-2.59c.5.32,1,.63,1.49,1-1.85.85-3.7,1.79-5.47,2.74C489.91,49.64,489.78,51.47,489.58,53.31Z"/><path class="x" d="M494.6,57l-1.25-1c.35-1.92.59-3.8.82-5.74,1.81-.79,3.67-1.55,5.53-2.21l1.4,1.11c-1.92.72-3.79,1.48-5.63,2.29C495.23,53.35,494.93,55.21,494.6,57Z"/><path class="x" d="M499.35,61.08c-.38-.37-.77-.72-1.18-1.06q.69-2.79,1.25-5.68c1.85-.63,3.74-1.23,5.68-1.78.45.38.89.79,1.31,1.2-1.94.55-3.91,1.22-5.81,1.89C500.22,57.5,499.84,59.27,499.35,61.08Z"/><path class="x" d="M503.77,65.49l-1.09-1.15c.3-.91.6-1.84.88-2.78s.53-1.84.78-2.78c1.92-.53,3.85-1,5.8-1.36l1.22,1.3q-3,.64-5.91,1.43Q504.66,62.88,503.77,65.49Z"/><path class="x" d="M507.86,70.22c-.33-.41-.64-.85-1-1.24.72-1.77,1.41-3.57,2.06-5.42q2.9-.53,5.89-.93c.39.45.74.93,1.11,1.4-1,.13-2,.28-3,.44s-2,.36-3,.56C509.28,66.78,508.61,68.5,507.86,70.22Z"/><path class="x" d="M511.59,75.23l-.92-1.3c.87-1.71,1.73-3.49,2.48-5.26,2-.24,3.92-.37,5.93-.47l1,1.45q-3.09.21-6.07.55Q512.85,72.78,511.59,75.23Z"/><path class="x" d="M514.92,80.51l-.79-1.38c1-1.63,1.92-3.32,2.84-5,2-.07,4-.09,6,0l.88,1.55c-2,0-4,0-6.09.09C516.86,77.31,515.9,78.93,514.92,80.51Z"/><path class="x" d="M517.87,86l-.72-1.41c1.1-1.56,2.22-3.2,3.24-4.84,2,.07,3.92.23,5.93.42l.8,1.59q-3.09-.26-6.1-.36C520,83,518.94,84.53,517.87,86Z"/><path class="x" d="M520.37,91.74l-.58-1.48c1.24-1.49,2.39-3,3.56-4.57,1.94.23,4,.5,5.91.85l.65,1.66c-2-.33-4-.63-6-.82C522.78,88.86,521.55,90.33,520.37,91.74Z"/><path class="x" d="M522.47,97.62,522,96.11c1.33-1.38,2.65-2.82,3.93-4.3,1.93.38,3.85.82,5.8,1.31.18.56.39,1.12.55,1.69-2-.49-4-.9-6-1.27Q524.39,95.66,522.47,97.62Z"/><path class="x" d="M524.07,103.65l-.35-1.55c1.46-1.28,2.81-2.6,4.2-4,1.89.52,3.86,1.08,5.71,1.73l.4,1.74c-2-.64-3.86-1.22-5.84-1.73C526.87,101.17,525.45,102.44,524.07,103.65Z"/><path class="x" d="M525.26,109.78l-.27-1.57q2.28-1.74,4.53-3.66,2.76,1,5.53,2.16c.1.59.22,1.17.3,1.76-1.9-.78-3.83-1.49-5.73-2.15C528.17,107.52,526.73,108.68,525.26,109.78Z"/><path class="x" d="M525.94,116l-.11-1.59c1.63-1.05,3.17-2.15,4.75-3.3,1.79.79,3.65,1.64,5.39,2.56l.13,1.77c-1.84-.91-3.64-1.78-5.51-2.57C529.09,114,527.49,115,525.94,116Z"/><path class="x" d="M526.21,122.23l0-1.59c1.68-.93,3.37-1.91,5-2.94,1.73.92,3.43,1.91,5.15,3l0,1.78q-2.68-1.58-5.35-3C529.43,120.43,527.82,121.36,526.21,122.23Z"/><use width="231.21" height="171.61" transform="matrix(0.58, 0, 0, 0.58, 375.77, 78.35)" xlink:href="#ei"/><path class="af" d="M462.61,258.86c-4.49,0-7.35-3.31-7.35-8.49s2.91-8.48,7.35-8.48c3.59,0,6.19,2,6.78,5.21h-2.06a4.54,4.54,0,0,0-4.72-3.35c-3.22,0-5.27,2.58-5.27,6.62s2,6.62,5.28,6.62c2.89,0,4.86-1.85,4.86-4.59V252h-4.56v-1.77h6.57v2C469.49,256.21,466.75,258.86,462.61,258.86Z"/><path class="af" d="M482.76,255.34c-.56,2.07-2.44,3.35-5.09,3.35-3.36,0-5.46-2.43-5.46-6.26s2.13-6.28,5.46-6.28,5.25,2.33,5.25,6.09V253h-8.7v.09c.1,2.39,1.44,3.91,3.49,3.91a3.12,3.12,0,0,0,3.12-1.64Zm-8.54-3.92h6.67c-.05-2.14-1.33-3.56-3.25-3.56S474.36,249.28,474.22,251.42Z"/><path class="af" d="M486,246.37h1.84v1.91H488a3.65,3.65,0,0,1,3.64-2.13c2.72,0,4.24,1.61,4.24,4.48v7.84h-1.93v-7.36c0-2.18-.92-3.22-2.86-3.22s-3.18,1.3-3.18,3.42v7.16H486Z"/><path class="af" d="M509.32,255.34c-.56,2.07-2.44,3.35-5.09,3.35-3.36,0-5.46-2.43-5.46-6.26s2.13-6.28,5.46-6.28,5.25,2.33,5.25,6.09V253h-8.7v.09c.1,2.39,1.44,3.91,3.49,3.91a3.12,3.12,0,0,0,3.12-1.64Zm-8.54-3.92h6.67c-.05-2.14-1.33-3.56-3.25-3.56S500.92,249.28,500.78,251.42Z"/><path class="af" d="M512.51,246.37h1.85v1.79h.18a3.38,3.38,0,0,1,3.35-2,9.17,9.17,0,0,1,1,.06v1.93a8.58,8.58,0,0,0-1.24-.11,3,3,0,0,0-3.17,2.94v7.5h-1.94Z"/><path class="af" d="M520.55,255.08c0-2.16,1.6-3.41,4.42-3.58l3.49-.21v-1.1c0-1.5-.93-2.32-2.74-2.32-1.45,0-2.46.55-2.73,1.51h-2c.26-1.95,2.17-3.23,4.75-3.23,3,0,4.6,1.52,4.6,4v8.28h-1.84v-1.78h-.18a4.19,4.19,0,0,1-3.73,2C522.3,258.69,520.55,257.29,520.55,255.08Zm7.91-1.12v-1.11l-3.26.21c-1.84.12-2.65.76-2.65,2s1.05,2,2.45,2A3.18,3.18,0,0,0,528.46,254Z"/><path class="af" d="M536.7,243.23v3.14h2.7V248h-2.7v6.85c0,1.43.54,2,1.8,2a6.88,6.88,0,0,0,.9-.05v1.63a6.2,6.2,0,0,1-1.14.11c-2.49,0-3.49-.92-3.49-3.23V248h-1.95v-1.61h1.95v-3.14Z"/><path class="af" d="M552.1,255.34c-.56,2.07-2.45,3.35-5.1,3.35-3.36,0-5.46-2.43-5.46-6.26s2.14-6.28,5.46-6.28,5.26,2.33,5.26,6.09V253h-8.71v.09c.11,2.39,1.44,3.91,3.5,3.91a3.13,3.13,0,0,0,3.12-1.64Zm-8.55-3.92h6.68c-.05-2.14-1.33-3.56-3.25-3.56S543.7,249.28,543.55,251.42Z"/><path class="af" d="M569.84,250.07a3,3,0,0,0-3.12-2.18c-2.18,0-3.55,1.75-3.55,4.49s1.4,4.57,3.55,4.57a2.91,2.91,0,0,0,3.12-2.13h2c-.35,2.23-2.16,3.87-5.07,3.87-3.39,0-5.56-2.46-5.56-6.31s2.16-6.23,5.55-6.23c2.95,0,4.74,1.77,5.08,3.92Z"/><path class="af" d="M574.76,241.56h1.94v6.72h.18a3.75,3.75,0,0,1,3.72-2.13c2.57,0,4.18,1.64,4.18,4.48v7.84h-1.93v-7.36c0-2.15-1-3.22-2.8-3.22a3.12,3.12,0,0,0-3.35,3.42v7.16h-1.94Z"/><path class="af" d="M587.59,255.08c0-2.16,1.59-3.41,4.41-3.58l3.5-.21v-1.1c0-1.5-.94-2.32-2.74-2.32-1.45,0-2.46.55-2.73,1.51h-2c.26-1.95,2.17-3.23,4.75-3.23,3,0,4.61,1.52,4.61,4v8.28h-1.84v-1.78h-.18a4.2,4.2,0,0,1-3.73,2C589.33,258.69,587.59,257.29,587.59,255.08ZM595.5,254v-1.11l-3.26.21c-1.84.12-2.65.76-2.65,2s1,2,2.45,2A3.19,3.19,0,0,0,595.5,254Z"/><path class="af" d="M601,246.37h1.84v1.91H603a3.65,3.65,0,0,1,3.64-2.13c2.72,0,4.23,1.61,4.23,4.48v7.84H609v-7.36c0-2.18-.92-3.22-2.85-3.22s-3.18,1.3-3.18,3.42v7.16H601Z"/><path class="af" d="M614.42,246.37h1.84v1.91h.18a3.65,3.65,0,0,1,3.64-2.13c2.72,0,4.23,1.61,4.23,4.48v7.84h-1.93v-7.36c0-2.18-.92-3.22-2.85-3.22s-3.18,1.3-3.18,3.42v7.16h-1.93Z"/><path class="af" d="M637.79,255.34c-.56,2.07-2.45,3.35-5.1,3.35-3.36,0-5.46-2.43-5.46-6.26s2.14-6.28,5.46-6.28,5.26,2.33,5.26,6.09V253h-8.71v.09c.1,2.39,1.44,3.91,3.5,3.91a3.13,3.13,0,0,0,3.12-1.64Zm-8.55-3.92h6.68c0-2.14-1.33-3.56-3.25-3.56S629.39,249.28,629.24,251.42Z"/><path class="af" d="M641.09,241.56H643v16.91h-1.93Z"/><circle class="ad" cx="430.38" cy="250.44" r="16.68"/><path class="x" d="M433.77,257.67H429.9V247.26h-3.83v-2.59a5,5,0,0,0,2.95-.88,3.31,3.31,0,0,0,1.42-2.13h3.33Z"/></svg>