<svg xmlns="http://www.w3.org/2000/svg" xmlns:xlink="http://www.w3.org/1999/xlink" viewBox="0 0 900 434">
  <defs>
    <style>
      .a {
        fill: #7e73ff;
      }

      .b {
        fill: #eaeaea;
      }

      .c {
        fill: #fff;
      }

      .d, .u {
        fill: #4a4a4a;
      }

      .d {
        opacity: 0.14;
      }

      .e {
        fill: #6057c2;
      }

      .f {
        fill: #574fb0;
      }

      .g {
        fill: #7f72fc;
      }

      .h, .o {
        fill: none;
        stroke-miterlimit: 10;
      }

      .h {
        stroke: #4a4a4a;
        stroke-width: 2px;
      }

      .i {
        fill: #ffc65a;
      }

      .j {
        fill: #a37f3a;
      }

      .k {
        fill: #47915a;
      }

      .l {
        fill: #1edd88;
      }

      .m {
        fill: #5bb670;
      }

      .n {
        fill: #c29644;
      }

      .o {
        stroke: #a37f3a;
      }

      .p {
        fill: #fddfe0;
      }

      .q {
        fill: #fd1015;
      }

      .r {
        fill: #741a14;
      }

      .s {
        fill: #ffe0e1;
      }

      .t {
        fill: #0e0000;
      }

      .v {
        fill: #a92b22;
      }
    </style>
    <symbol id="a" data-name="Panel 2" viewBox="0 0 138.32 140.32">
      <path class="a" d="M130.39,6.44H7.93A8,8,0,0,0,0,14.37v118a8,8,0,0,0,7.93,7.93H130.39a8,8,0,0,0,7.93-7.93v-118A8,8,0,0,0,130.39,6.44ZM17.73,19a5.06,5.06,0,1,1,5.06-5.06A5.06,5.06,0,0,1,17.73,19Zm102.86,0a5.06,5.06,0,1,1,5.06-5.06A5.06,5.06,0,0,1,120.59,19Z"/>
      <g>
        <rect class="b" x="14.27" width="6.92" height="13.93" rx="2.76"/>
        <rect class="b" x="117.13" width="6.92" height="13.93" rx="2.76"/>
      </g>
      <rect class="c" x="9.09" y="46.28" width="121.74" height="82.83" rx="3.47"/>
    </symbol>
    <symbol id="b" data-name="Ribbon" viewBox="0 0 273.24 46.05">
      <rect class="d" x="35.73" y="4.92" width="204.43" height="39.35"/>
      <polygon class="e" points="273.24 38.59 201.82 38.59 201.82 0.07 273.24 0.07 258.34 19.33 273.24 38.59"/>
      <polygon class="f" points="237.14 7.54 201.82 0 201.82 7.54 237.14 7.54"/>
      <polygon class="e" points="0 38.59 71.42 38.59 71.42 0.07 0 0.07 14.9 19.33 0 38.59"/>
      <polygon class="f" points="36.1 7.54 71.42 0 71.42 7.54 36.1 7.54"/>
      <rect class="g" x="36.15" y="7.53" width="201" height="38.52"/>
    </symbol>
    <symbol id="g" data-name="grass" viewBox="0 0 50.67 35.27">
      <g>
        <path class="i" d="M32.06,15.36h0Z"/>
        <path class="j" d="M32,15.36h0Z"/>
        <path class="i" d="M24.42,21.22c-4,.85-7.15,1.5-7.44,1.53,0,0-15.39-3.06-16.85-3.27l25.8-5.08Z"/>
        <path class="j" d="M42.66,17.35,25,21.11l-.55.11,1.51-6.82H26Z"/>
        <path class="k" d="M24,22.52A23.69,23.69,0,0,1,41.06,11c-3.28.77-6.12,2.81-8.69,5s-5,4.59-7.92,6.3"/>
        <path class="k" d="M23.38,23.72a33.17,33.17,0,0,1,4.55-8.47,24.69,24.69,0,0,1,3.36-4.12,24.25,24.25,0,0,1,5.43-3.62,28.65,28.65,0,0,0-6.95,7.07c-2,2.66-3.79,5.47-6,8"/>
        <path class="k" d="M22,23a71.93,71.93,0,0,1,8.9-5.11c4.33-2.18,8.83-4.25,13.65-4.73q-10,4.11-19.5,9.19"/>
        <path class="l" d="M19.24,24.87a19.46,19.46,0,0,1,5.1-10.06,33.86,33.86,0,0,1,9.9-7.65q-7.56,8.55-15.08,17.16"/>
        <path class="l" d="M21.34,23.45a35.1,35.1,0,0,1,9-6.52c4.86-2.74,10-5.31,15.58-5.75-8.17,3.15-16.55,6.43-23,12.31"/>
        <path class="k" d="M16,24.83a28.27,28.27,0,0,1,7.33-11.48c3.27-3.22,11.09-8.11,11.09-8.11S21.83,17,15.72,23.1"/>
        <path class="k" d="M17.68,24.09a38.48,38.48,0,0,1,7.75-6.87,55.81,55.81,0,0,1,9.7-6.06,60.85,60.85,0,0,1,8.76-2.93,49.23,49.23,0,0,0-8.74,4.3C32.33,14.28,29.7,16.3,27,18.26c-3.72,2.74-7.54,5.35-11.35,8"/>
        <path class="m" d="M27.84,19.88q6-2.16,12.14-4.21a55.7,55.7,0,0,1,8-2.25,4.69,4.69,0,0,1,2.68.11,211,211,0,0,0-23,7.75"/>
        <path class="l" d="M37.52,17.64a29.9,29.9,0,0,1,7.18-1.5c1.89-.16,4-.08,5.43,1.13-2.62,0-5.23-.38-7.85-.31a28.61,28.61,0,0,0-13.36,4.16"/>
        <path class="k" d="M22.48,24.49A26.27,26.27,0,0,1,36.74,6.71c-3.22,1.89-5.55,5-7.56,8.13s-3.79,6.48-6.31,9.24"/>
        <path class="k" d="M22.21,26a36.63,36.63,0,0,1,2.05-10.43,27.84,27.84,0,0,1,2.2-5.46A27.48,27.48,0,0,1,31,4.48a32.11,32.11,0,0,0-5,9.74c-1.22,3.46-2.22,7-3.7,10.38"/>
        <path class="k" d="M20.53,25.6a81.19,81.19,0,0,1,7.75-8.31c3.86-3.71,7.94-7.37,12.88-9.44Q32,15.44,23.55,23.91"/>
        <path class="m" d="M18.13,29.63c-.71-4.16.36-8.45,2.1-12.3A37.49,37.49,0,0,1,28.2,6Q23,17.52,17.86,29.07"/>
        <path class="l" d="M20,26.34c1.75-3.71,4.53-6.83,7.35-9.81,4.24-4.48,8.84-8.88,14.58-11.16-7.61,6-15.39,12.19-20.33,20.52"/>
        <path class="k" d="M16,32.55a31.36,31.36,0,0,1,2.12-14.92c1.82-4.74,7.45-13.24,7.45-13.24S18.27,22,14.9,30.92"/>
        <path class="l" d="M16.31,28.21a42.51,42.51,0,0,1,6-9.79,62,62,0,0,1,8.28-9.56,66,66,0,0,1,8.3-6A54.36,54.36,0,0,0,31,10.3c-2.4,2.76-4.52,5.76-6.71,8.7-3,4.11-6.22,8.11-9.4,12.11"/>
        <path class="m" d="M25.68,20.45Q31.37,16.19,37.13,12a61.72,61.72,0,0,1,7.73-5,5.2,5.2,0,0,1,2.87-.76A233.76,233.76,0,0,0,25.93,22"/>
        <path class="l" d="M35.18,14.92A33,33,0,0,1,42.28,11c1.94-.78,4.16-1.37,6.11-.58-2.76.9-5.66,1.32-8.41,2.25A31.47,31.47,0,0,0,27.22,21.4"/>
        <path class="k" d="M16.49,23a23.7,23.7,0,0,1,13.1-15.9c-2.94,1.67-5.08,4.43-6.93,7.26s-3.51,5.81-5.82,8.27"/>
        <path class="k" d="M16.22,24.34a33.13,33.13,0,0,1,2-9.41A25.24,25.24,0,0,1,20.26,10a24.68,24.68,0,0,1,4.19-5,28.91,28.91,0,0,0-4.68,8.74c-1.15,3.12-2.09,6.32-3.47,9.34"/>
        <path class="k" d="M14.71,24a73.17,73.17,0,0,1,7.1-7.42c3.54-3.31,7.27-6.56,11.76-8.38-5.6,4.5-11,9.28-16.11,14.31"/>
        <path class="l" d="M12.58,26.61a19.42,19.42,0,0,1,2.05-11.09A33.9,33.9,0,0,1,22,5.38Q17.13,15.73,12.35,26.1"/>
        <path class="l" d="M14.19,24.65A35.22,35.22,0,0,1,21,15.87C24.84,11.87,29.06,8,34.27,6c-7,5.33-14.06,10.83-18.63,18.31"/>
        <path class="k" d="M9.44,27.49a28.47,28.47,0,0,1,3.8-13.09c2.23-4,8.35-10.9,8.35-10.9S12.85,18.35,8.7,25.9"/>
        <path class="k" d="M10.86,26.29a38.56,38.56,0,0,1,5.5-8.77A56.13,56.13,0,0,1,24,9a60.13,60.13,0,0,1,7.58-5.29,49.18,49.18,0,0,0-7.17,6.59c-2.21,2.47-4.16,5.16-6.17,7.79-2.81,3.67-5.73,7.25-8.65,10.83"/>
        <path class="k" d="M15.58,25.33A26.25,26.25,0,0,1,24.25,4.25c-2.56,2.72-3.93,6.34-5,9.93s-1.81,7.29-3.45,10.64"/>
        <path class="k" d="M15.73,26.82a36.91,36.91,0,0,1-1-10.59,27.34,27.34,0,0,1,.57-5.86,27.53,27.53,0,0,1,2.8-6.65A32,32,0,0,0,16,14.48c-.2,3.67-.15,7.36-.62,11"/>
        <path class="k" d="M14,26.94a80.86,80.86,0,0,1,5.09-10.15c2.66-4.65,5.54-9.31,9.7-12.7Q22.12,14,16.44,24.48"/>
        <path class="m" d="M12.85,31.49c-1.85-3.79-2-8.21-1.45-12.39A37.46,37.46,0,0,1,15.85,6Q14.11,18.5,12.43,31"/>
        <path class="l" d="M13.69,27.81c.63-4,2.42-7.83,4.28-11.48,2.81-5.5,6-11,10.85-14.83-5.61,7.9-11.33,16-13.72,25.43"/>
        <path class="k" d="M11.57,33.4a29.7,29.7,0,0,1-2-14.16c.4-4.8,3.28-14.06,3.28-14.06s-1.95,18-2.66,27"/>
        <path class="l" d="M10.89,30a41.61,41.61,0,0,1,2.93-10.83A60.84,60.84,0,0,1,19,7.9,66.14,66.14,0,0,1,25.18,0a54.45,54.45,0,0,0-5.35,9.12c-1.51,3.26-2.69,6.66-3.94,10-1.75,4.69-3.65,9.33-5.54,14"/>
        <path class="m" d="M17.51,20.55q4.24-5.68,8.61-11.3a61.37,61.37,0,0,1,6-7A5.11,5.11,0,0,1,34.67.75,231.49,231.49,0,0,0,18.18,22"/>
        <path class="l" d="M25.06,12.56a33.05,33.05,0,0,1,5.7-5.76c1.65-1.3,3.61-2.5,5.7-2.28C34.07,6.15,31.4,7.37,29,9a31.67,31.67,0,0,0-9.78,12"/>
        <path class="n" d="M42.81,17.32l-6.48,12.2L17.24,35.27,17,25.71l-.06-3c.29,0,3.43-.68,7.44-1.53l.55-.11,17.69-3.76h0Z"/>
        <path class="j" d="M5,32.11S-.37,19.46,0,19.46l.11,0C1.59,19.69,17,22.75,17,22.75s.26,12.52.26,12.52Z"/>
      </g>
      <path class="o" d="M22.43,27.66a30.37,30.37,0,0,1,7.83-3.86,3.93,3.93,0,0,1,2.16-.24,1.47,1.47,0,0,1,1.14,1.63,1.94,1.94,0,0,1-.66.9,6.53,6.53,0,0,1-4.16,1.78.7.7,0,0,1-.36-.07.5.5,0,0,1-.11-.69,1.16,1.16,0,0,1,.65-.42c.08,0,.18,0,.24,0s0,.19-.09.13"/>
      <path class="o" d="M18.54,26.86q10.38-3.6,21-6.38"/>
      <path class="o" d="M36,23a2.15,2.15,0,0,1,.55,2.4,5,5,0,0,1-1.64,2,15.09,15.09,0,0,1-9,3.31,1.08,1.08,0,0,1-.56-.1.36.36,0,0,1-.14-.49"/>
      <path class="o" d="M17.33,33.81a4.4,4.4,0,0,1,2.16-1L25,31.4"/>
    </symbol>
    <symbol id="i" data-name="bubble" viewBox="0 0 39.49 28.19">
      <path class="h" d="M20.93,1C11.23,1,3.37,6.86,3.37,14.09a10.84,10.84,0,0,0,3,7.3l-.09,0a5.78,5.78,0,0,1-3.08,4.4c4.75.62,8.89.71,9.68,0a.23.23,0,0,0,.07-.07,22.4,22.4,0,0,0,8,1.44c9.7,0,17.56-5.86,17.56-13.1S30.63,1,20.93,1Z"/>
    </symbol>
    <symbol id="j" data-name="medal" viewBox="0 0 26.96 34.52">
      <path class="p" d="M27,21A13.48,13.48,0,1,1,10,8c.74.85,1.49,1.69,2.27,2.53a1.32,1.32,0,0,0-.11.53,1.3,1.3,0,1,0,2.6,0,1.25,1.25,0,0,0-.07-.43,1.3,1.3,0,0,0-.86-.82,1.5,1.5,0,0,0-.37-.05l-.27,0C12.57,9.1,12,8.42,11.34,7.72a13.73,13.73,0,0,1,2.14-.17,13.31,13.31,0,0,1,1.91.14c.43.06.86.14,1.28.24A13.48,13.48,0,0,1,27,21Z"/>
      <path class="q" d="M14.71,10.63a1.35,1.35,0,0,1-1.09.76c-.76,0-1-.53-1.33-.86C11.51,9.69,10.76,8.85,10,8,8.09,5.76,6.29,3.45,4.48,1.11L5.41.39c1.93,2.5,3.85,5,5.93,7.33.61.7,1.23,1.38,1.87,2.06.12.14.64,0,.64,0A1.3,1.3,0,0,1,14.71,10.63Z"/>
      <path class="r" d="M21.91.69,16.67,7.93c-.42-.1-.85-.18-1.28-.24L21,0Z"/>
      <path class="q" d="M16.2,17l.51,0a3.07,3.07,0,0,1,2.56,3v.64c-.14,1.84-1.55,4.12-5.68,7-4.13-2.85-5.54-5.13-5.69-7v-.64a3.08,3.08,0,0,1,2.56-3L11,17a3.09,3.09,0,0,1,2.61,1.38A3.08,3.08,0,0,1,16.2,17"/>
    </symbol>
  </defs>
  <use width="138.32" height="140.32" transform="translate(485.67 293.5) scale(0.81)" xlink:href="#a"/>
  <path class="j" d="M729.4,126.21a17.77,17.77,0,0,1-2.58-10c0-.59,0-1.16,0-1.69,0-34.54-28.39-57.94-63.42-57.94S600,80,600,114.51c0,.58,0,1.2.06,1.85a19.21,19.21,0,0,1-2.3,10.2,19.19,19.19,0,0,0-1.6,13l.18.84a24.26,24.26,0,0,0,8.72,14,19.18,19.18,0,0,1,6.56,9.25,54.49,54.49,0,0,0,3.62,8.9,18.65,18.65,0,0,1-5.61,12.63,17,17,0,0,1,10.42-.76,51.56,51.56,0,0,1-13.15,7.18,20.42,20.42,0,0,0,13,.27c1.74-.5,5.83-2.85,7.45-3.65-2.17,3.71-5.74,9.74-9.13,12.38,8-.29,14.23-4.11,20.69-8.87-.83,7.11-1.49,6.39-8.15,13.52,3.25.27,17.08-.78,17.63-6.32,0,0,10.38,9.26,15.22,12.37,0-4.12,1.16-12.37,1.16-12.37,1.29,2.79,8.84,11.65,13,13a110,110,0,0,0,1.4-13.78c.36,0,17.63,6.56,22.32,7.34-.63-4.6-6.06-8.15-6.69-12.75,1.54,1.83,13.85,7.36,15,6.81-2-3.63-5.87-13.25-5.71-13.45-.12,4.58,8.59,8.47,12.52,6.48-4.6-1.22-11-8.16-9.8-10.34a76.39,76.39,0,0,0,8.15-18.09,16.28,16.28,0,0,1,6.2-8.47,24.3,24.3,0,0,0,9.9-14.82l.18-.85A19.12,19.12,0,0,0,729.4,126.21Z"/>
  <path class="i" d="M168.42,65.54c-33-18.57-25.5-52.11,12.12-8.1"/>
  <path class="i" d="M245,65.54c33-18.57,25.49-52.11-12.13-8.1"/>
  <path class="r" d="M263.62,94.79c9.54,1,22.23-.88,31.42-6,8.89-4.91,15.6-17.09,24.84-16.57L294,63.71l-24.15,9.45-10.13,20Z"/>
  <path class="r" d="M96,72.26c9.24-.52,16,11.66,24.84,16.57,9.19,5.08,21.88,7,31.42,6l-6.4-21.53-23.28-9.73Z"/>
  <path class="j" d="M262.45,96.44c8.41-38.9,38.51-29.32,57.28-24,.31.09.49-.43.22-.64-8.37-6.52-20.47-10.95-28.43-10.82-23.21.36-28.28,9.46-35.24,13.16"/>
  <path class="j" d="M153.43,96.44c-10.71-34.38-38.51-29.32-57.27-24-.32.09-.5-.43-.23-.64C104.3,65.25,116.4,60.82,124.36,61c23.21.36,28.29,9.46,35.24,13.16"/>
  <path class="j" d="M270.06,105.7c-1.13-7.61-2.92-16.48-3.83-19.9C261.42,67.76,247.31,60,228.7,54a58.81,58.81,0,0,0-6.24-1.66,117.34,117.34,0,0,0-15.4-1.14A96.37,96.37,0,0,0,188.19,54c-18.61,6-33.22,13.75-38,31.79-1.4,5.24-4.8,23.31-4.79,30,0,.21,0,.41,0,.61a0,0,0,0,0,0,0c.26,10.2,1.57,14,6,20.59,3.42,4.09,5.24,9.29,6.68,14.44,1.94,6.94,3.84,20.93,4.73,28.09h89.24c.88-7.16,2.79-21.15,4.73-28.09,1.38-4.91,3.1-9.87,6.24-13.87,5.19-5.77,7.76-10.23,8-21.16v0c0-.2,0-.4,0-.61A79.06,79.06,0,0,0,270.06,105.7Z"/>
  <polygon class="r" points="630.01 137.31 657.46 137.9 691.61 137.31 661.93 119.84 630.01 137.31"/>
  <path class="q" d="M649.7,57.81c1.31-4,.78-8.18,1.55-12.24,1.33-7,6.45-13.48,7-20.53.13-1.78,0-3.61.66-5.33a6.08,6.08,0,0,1,5-3.62,2.05,2.05,0,0,1,1.59.35,1.06,1.06,0,0,1,.19.82c-.19,6.18,5.8,11.67,6.73,17.82.62,4.06-1,8.15-.65,12.23.42,4.77,3.51,9.18,6.54,13.45"/>
  <path class="s" d="M254.28,182.52v7.15a16.11,16.11,0,0,1-1.13,6c-.12.32-.26.63-.4.95s-.3.61-.46.91a16.56,16.56,0,0,1-2.82,3.78c-.38.38-.77.73-1.17,1.07l-.64.51c-.42.31-.85.59-1.29.86a15.11,15.11,0,0,1-1.42.79c-.41.19-.82.37-1.24.53a14.44,14.44,0,0,1-2,.63l-.54.13c-.28.05-.56.11-.85.15-.52.08-1.07.13-1.62.16-.25,0-.52,0-.77,0-4.41-5-15.61-8.52-28.74-8.52h-1.93c-13.13,0-24.33,3.53-28.74,8.52-.26,0-.52,0-.78,0-.55,0-1.08-.08-1.62-.16l-.84-.15-.54-.13a15.41,15.41,0,0,1-1.79-.54l-.45-.18a16.24,16.24,0,0,1-3.73-2.09c-.21-.16-.43-.32-.63-.49a17,17,0,0,1-3.61-4.17c-.22-.37-.44-.76-.63-1.15a16.14,16.14,0,0,1-1.76-7.36v-7.15c0-.14,0-.29,0-.43.32-7,8.7-13.48,18.67-20,1.73-1.13,3.5-2.26,5.29-3.4A11,11,0,0,1,192,157h32.45a11.07,11.07,0,0,1,5.89,1.71c1.78,1.14,3.55,2.27,5.27,3.4,10,6.53,18.36,13,18.68,20A3.1,3.1,0,0,1,254.28,182.52Z"/>
  <ellipse class="t" cx="158.3" cy="116.57" rx="9.99" ry="14.35"/>
  <ellipse class="r" cx="191.29" cy="178.19" rx="8.13" ry="8.76"/>
  <ellipse class="r" cx="227.01" cy="179.09" rx="8.13" ry="8.76"/>
  <path class="q" d="M203.5,202.3a1.34,1.34,0,0,1,1.3-1.92,11.6,11.6,0,0,0,7.33-1.87,32.69,32.69,0,0,0,6-5.55,21.15,21.15,0,0,0,4-10.13,4.05,4.05,0,0,1,6.43-2.65,14.53,14.53,0,0,1,4,4.51A23.16,23.16,0,0,1,235.11,197c-.08,2.33-.45,4.84-2.09,6.5-1.82,1.85-4.66,2.13-7.25,2.31-5.1.34-10.25.68-15.31-.05-2.53-.36-5.23-1.12-6.79-3.13a1.24,1.24,0,0,1-.17-.27Z"/>
  <path class="s" d="M227.92,204.16a182.59,182.59,0,0,0-18.62-3.52,172.46,172.46,0,0,0-18.27-.91,5.93,5.93,0,0,0-6.33,3.72c-1,2.79,3.94,6.08,6.35,7.49a3.17,3.17,0,0,1,1.38,1.86c1,3.22,7.08,6.31,14.78,7.23s14.38-.63,16.08-3.52a2.76,2.76,0,0,1,1.77-1.37c2.47-.51,7.46-1.82,7.89-4.11A5.84,5.84,0,0,0,227.92,204.16Z"/>
  <circle class="c" cx="156.09" cy="110.88" r="2.75"/>
  <ellipse class="c" cx="151.49" cy="114.56" rx="1.56" ry="1.45"/>
  <ellipse class="t" cx="257.46" cy="116.57" rx="9.99" ry="14.35"/>
  <circle class="c" cx="255.25" cy="110.88" r="2.75"/>
  <circle class="u" cx="261.45" cy="124.4" r="2.75"/>
  <circle class="u" cx="156.05" cy="125.16" r="2.75"/>
  <ellipse class="c" cx="250.64" cy="114.56" rx="1.56" ry="1.45"/>
  <path class="t" d="M158.08,102.45c-2.61-.63-5.14-2.82-6.89-4.87.23,2.82-.86,3.94-.63,6.76-3.91-.26-6.46.65-10.16-.66l6.18,5.75a20.54,20.54,0,0,1-5.71,1.53c2.63,0,6.25.47,8.33,2l6.66-9.8Z"/>
  <path class="t" d="M258.81,103.16l6.66,9.8c2.07-1.53,5.7-2,8.32-2a20.47,20.47,0,0,1-5.7-1.53l6.17-5.75c-3.69,1.31-6.25.4-10.16.66.23-2.82-.86-3.94-.63-6.76-1.74,2-4.28,4.24-6.89,4.87Z"/>
  <ellipse class="t" cx="615.43" cy="116.57" rx="9.99" ry="14.35"/>
  <circle class="c" cx="613.22" cy="110.88" r="2.75"/>
  <ellipse class="c" cx="608.61" cy="114.56" rx="1.56" ry="1.45"/>
  <ellipse class="t" cx="711.95" cy="115.77" rx="9.99" ry="14.35"/>
  <circle class="c" cx="709.74" cy="110.09" r="2.75"/>
  <ellipse class="c" cx="705.13" cy="113.77" rx="1.56" ry="1.45"/>
  <path class="t" d="M615.21,102.45c-2.61-.63-5.15-2.82-6.89-4.87.23,2.82-.86,3.94-.63,6.76-3.92-.26-6.47.65-10.16-.66l6.17,5.75A20.57,20.57,0,0,1,598,111c2.62,0,6.25.47,8.32,2l6.66-9.8Z"/>
  <path class="t" d="M713.29,102.37l6.66,9.8c2.07-1.53,5.7-2,8.33-2a19.87,19.87,0,0,1-5.71-1.53l6.18-5.74c-3.7,1.31-6.25.4-10.16.65.23-2.82-.86-3.93-.63-6.75-1.75,2-4.28,4.23-6.89,4.87Z"/>
  <path class="q" d="M652.19,163.12q-1.07,6.66-2.51,13.24a33.64,33.64,0,0,1-2.28,7.45c-.95,2-2.25,3.81-3.36,5.72a32.94,32.94,0,0,0-4.22,12.77c-.53,4.68.09,9.83,3.75,13.09a8,8,0,0,0,6.85,2c3.7-.77,5-3.9,6-6.87a75.6,75.6,0,0,0,2.72-35.83c-.55-3.28-1.29-6.77.07-9.8,0,0-.25-1.08-3.11-2S652.19,163.12,652.19,163.12Z"/>
  <path class="q" d="M665.17,165.31c4,7.57,4.65,16.43,5.68,24.95s2.77,17.46,8.44,23.9a10.16,10.16,0,0,0,5.23,3.51c3.86.83,7.8-2.31,8.86-6.11s-.19-7.94-2.25-11.31-4.87-6.22-7.33-9.31a54.39,54.39,0,0,1-11.52-28.2s-1.06-.52-3.92.43S665.17,165.31,665.17,165.31Z"/>
  <path class="c" d="M236.46,70c6.22,13.77-4.89,27.08-11.17,38.77a37.91,37.91,0,0,0-2.15,25.79c-11.28,6.29-24.58,1.66-28.06-10.83-4.36-12.6-5.44-11.29-13.68-38.35C170.75,50.47,225.86,46.11,236.46,70Z"/>
  <circle class="u" cx="716.37" cy="124.4" r="2.75"/>
  <circle class="u" cx="610.97" cy="125.16" r="2.75"/>
  <polygon class="v" points="630.8 136.65 660.89 133.57 692.4 136.65 662.72 154.12 630.8 136.65"/>
  <path class="i" d="M692.8,136.49l-3.22-.34-28,13-29.15-13.66-2.91.9,17.14,14a23.46,23.46,0,0,0,30-.26Z"/>
  <path class="i" d="M661.34,95.8c2.74,3.09,21.9,34,32.67,36.76.24,2.42-.55,7.23-5.92,4.22-37-20.72-14.32-21.2-53.65,0-5.31,2.86-6.25-1.78-5.9-4.22,10.73-2.71,29.94-33.75,32.65-36.76"/>
  <ellipse class="t" cx="672.58" cy="122.77" rx="1.77" ry="3.8" transform="translate(-11.11 123.39) rotate(-10.4)"/>
  <ellipse class="t" cx="648.74" cy="122.53" rx="3.88" ry="1.88" transform="translate(411.16 738.51) rotate(-79.6)"/>
  <use width="273.24" height="46.05" transform="translate(72.47 226.64)" xlink:href="#b"/>
  <use width="273.24" height="46.05" transform="translate(528.69 226.64)" xlink:href="#b"/>
  <g>
    <path class="c" d="M179,254.17c0-6.63,3.65-10.71,9.58-10.71,4.84,0,8.55,3.21,8.87,7.64h-4.17a4.58,4.58,0,0,0-4.7-3.88c-3.21,0-5.21,2.65-5.21,6.95s2,7,5.23,7a4.49,4.49,0,0,0,4.7-3.69h4.16c-.35,4.41-4,7.44-8.88,7.44C182.63,264.89,179,260.81,179,254.17Z"/>
    <path class="c" d="M200.19,256.57c0-5,2.93-8.12,7.69-8.12s7.69,3.06,7.69,8.12-2.89,8.14-7.69,8.14S200.19,261.67,200.19,256.57Zm11.15,0c0-3-1.28-4.76-3.46-4.76s-3.45,1.77-3.45,4.76,1.24,4.78,3.45,4.78S211.34,259.6,211.34,256.57Z"/>
    <path class="c" d="M235.78,264.37h-4.39l-2.79-10.75h-.26l-2.76,10.75h-4.33l-4.17-15.58h4.18L223.58,260h.26l2.73-11.17h3.94L233.26,260h.25l2.32-11.17h4.1Z"/>
  </g>
  <g>
    <path class="c" d="M608.13,254.17c0-6.63,3.66-10.71,9.59-10.71,4.84,0,8.55,3.21,8.87,7.64h-4.17a4.58,4.58,0,0,0-4.7-3.88c-3.21,0-5.21,2.65-5.21,6.95s2,7,5.22,7a4.51,4.51,0,0,0,4.71-3.69h4.16c-.35,4.41-4,7.44-8.88,7.44C611.8,264.89,608.13,260.81,608.13,254.17Z"/>
    <path class="c" d="M630.27,242.84h4.05v8.5h.25a4.76,4.76,0,0,1,4.72-2.85c3.35,0,5.35,2.11,5.35,5.85v10h-4.12v-9.05c0-2.17-1-3.28-2.88-3.28a3.09,3.09,0,0,0-3.25,3.39v8.94h-4.12Z"/>
    <path class="c" d="M648.39,244.1a2.34,2.34,0,1,1,2.34,2.36A2.34,2.34,0,0,1,648.39,244.1Zm.27,4.69h4.12v15.58h-4.12Z"/>
    <path class="c" d="M666.91,254.28a2.9,2.9,0,0,0-3.1-2.46c-2.22,0-3.47,1.66-3.47,4.72s1.26,4.79,3.47,4.79a2.84,2.84,0,0,0,3.1-2.36h3.85c-.33,3.49-2.88,5.74-7,5.74-4.87,0-7.63-2.94-7.63-8.17s2.75-8.09,7.63-8.09c4.14,0,6.62,2.29,7,5.83Z"/>
    <path class="c" d="M683.72,248.79h4.69l-5.95,6.68,6.36,8.9h-4.89L679.38,258l-1.14,1.16v5.17h-4.12V242.84h4.12v12h.26Z"/>
    <path class="c" d="M704.44,259.94c-.61,2.92-3.32,4.77-7.14,4.77-4.76,0-7.56-3-7.56-8s2.86-8.21,7.5-8.21,7.32,2.92,7.32,7.87v1.26H693.85v.21c0,2.31,1.41,3.76,3.56,3.76,1.63,0,2.75-.58,3.19-1.61Zm-10.58-5h6.66a3.16,3.16,0,0,0-3.26-3.35A3.33,3.33,0,0,0,693.86,255Z"/>
    <path class="c" d="M707.93,248.79h4v2.5h.25a4.64,4.64,0,0,1,4.62-2.84c3.47,0,5.34,2.12,5.34,5.85v10.07H718v-9.1c0-2.15-.92-3.28-2.88-3.28s-3.09,1.35-3.09,3.4v9h-4.12Z"/>
  </g>
  <use width="138.32" height="140.32" transform="translate(29.85 293.5) scale(0.81)" xlink:href="#a"/>
  <g>
    <path class="u" d="M69.32,388.75H67.79v-2.38H65.52v-1.56h2.27v-2.38h1.53v2.38H71.6v1.56H69.32Z"/>
    <path class="u" d="M75.6,382.25h-.1l-2.08,1.43V382l2.19-1.51h1.76V389H75.6Z"/>
    <path class="u" d="M82.81,382.52h1.65v1.06h.11a1.8,1.8,0,0,1,1.78-1.2,1.75,1.75,0,0,1,1.79,1.2h.11a2,2,0,0,1,1.94-1.2,2,2,0,0,1,2.09,2.17V389h-1.7v-4c0-.77-.36-1.15-1.08-1.15A1.11,1.11,0,0,0,88.36,385v4H86.72v-4.06a1,1,0,0,0-1.06-1.08,1.16,1.16,0,0,0-1.15,1.25V389h-1.7Z"/>
    <path class="u" d="M93.84,380.58a1,1,0,1,1,1.93,0,1,1,0,1,1-1.93,0Zm.11,1.94h1.7V389H94Z"/>
    <path class="u" d="M97.43,380.06h1.71V389H97.43Z"/>
    <path class="u" d="M104.94,382.52h1.94l-2.46,2.77,2.63,3.7h-2l-1.89-2.63-.47.48V389H101v-8.93h1.7v5h.11Z"/>
  </g>
  <g>
    <path class="c" d="M71.72,317.29H70.5v-1.57h1.22V315c0-1.49.76-2.25,2.58-2.25a7.46,7.46,0,0,1,1,.07v1.41c-.13,0-.34,0-.6,0-.78,0-1.06.31-1.06,1v.62h1.6v1.57H73.71v5.9h-2Z"/>
    <path class="c" d="M83.32,321c-.3,1.41-1.6,2.31-3.45,2.31-2.29,0-3.65-1.45-3.65-3.9s1.38-4,3.63-4,3.53,1.42,3.53,3.81v.61H78.2v.1a1.68,1.68,0,0,0,1.73,1.82,1.54,1.54,0,0,0,1.54-.78Zm-5.11-2.41h3.21A1.52,1.52,0,0,0,79.85,317,1.61,1.61,0,0,0,78.21,318.63Z"/>
    <path class="c" d="M91.73,321c-.29,1.41-1.6,2.31-3.44,2.31-2.3,0-3.65-1.45-3.65-3.9s1.38-4,3.62-4,3.53,1.42,3.53,3.81v.61H86.62v.1a1.67,1.67,0,0,0,1.72,1.82,1.52,1.52,0,0,0,1.54-.78Zm-5.1-2.41h3.21A1.52,1.52,0,0,0,88.27,317,1.6,1.6,0,0,0,86.63,318.63Z"/>
    <path class="c" d="M93.05,319.41c0-2.4,1.18-3.89,3.07-3.89a2.38,2.38,0,0,1,2.25,1.33h.12v-4.08h2v10.42H98.55V322h-.12a2.47,2.47,0,0,1-2.31,1.3C94.22,323.3,93.05,321.81,93.05,319.41Zm2,0c0,1.4.63,2.23,1.7,2.23s1.71-.84,1.71-2.22-.65-2.23-1.71-2.23S95.1,318,95.1,319.41Z"/>
  </g>
  <use width="138.32" height="140.32" transform="translate(152.04 293.5) scale(0.81)" xlink:href="#a"/>
  <g>
    <path class="u" d="M195.88,382.52h1.65v1.06h.11a1.82,1.82,0,0,1,1.79-1.2,1.74,1.74,0,0,1,1.78,1.2h.11a2,2,0,0,1,1.94-1.2,2,2,0,0,1,2.1,2.17V389h-1.71v-4c0-.77-.36-1.15-1.08-1.15a1.1,1.1,0,0,0-1.13,1.18v4H199.8v-4.06a1,1,0,0,0-1.07-1.08,1.15,1.15,0,0,0-1.14,1.25V389h-1.71Z"/>
    <path class="u" d="M206.69,385.75a3.19,3.19,0,1,1,6.36,0c0,2.12-1.19,3.38-3.18,3.38S206.69,387.87,206.69,385.75Zm4.61,0c0-1.24-.52-2-1.43-2s-1.43.73-1.43,2,.52,2,1.43,2S211.3,387,211.3,385.75Z"/>
    <path class="u" d="M214.13,385.75a3.19,3.19,0,1,1,6.36,0c0,2.12-1.19,3.38-3.18,3.38S214.13,387.87,214.13,385.75Zm4.61,0c0-1.24-.53-2-1.43-2s-1.43.73-1.43,2,.51,2,1.43,2S218.74,387,218.74,385.75Z"/>
  </g>
  <g>
    <path class="c" d="M198.29,313.85v1.87h1.57v1.57h-1.57v3.39c0,.65.3.95,1,.95a5.25,5.25,0,0,0,.59,0v1.51a5.43,5.43,0,0,1-1,.09c-1.83,0-2.56-.59-2.56-2.06v-3.86h-1.17v-1.57h1.17v-1.87Z"/>
    <path class="c" d="M201.11,321c0-1.37,1-2.16,2.92-2.27l1.82-.11V318c0-.63-.45-1-1.27-1s-1.2.25-1.36.7h-1.83c.13-1.39,1.41-2.27,3.3-2.27s3.12.94,3.12,2.56v5.15h-1.93v-1h-.12a2.43,2.43,0,0,1-2.19,1.1A2.25,2.25,0,0,1,201.11,321Zm4.74-.58v-.55l-1.52.09c-.86.06-1.28.37-1.28.91s.49.9,1.18.9A1.47,1.47,0,0,0,205.85,320.45Z"/>
    <path class="c" d="M209.84,312.77h2v10.42h-2Z"/>
    <path class="c" d="M218.59,315.65h2.27L218,318.88l3.07,4.31H218.7l-2.21-3.07-.54.56v2.51h-2V312.77h2v5.82h.12Z"/>
  </g>
  <use width="138.32" height="140.32" transform="translate(274.22 293.5) scale(0.81)" xlink:href="#a"/>
  <g>
    <path class="u" d="M285.19,389v-8.46h1.48l3.89,5.27h.1v-5.27h1.69V389h-1.46L287,383.7h-.11V389Z"/>
    <path class="u" d="M293.89,387.14c0-1.17.9-1.85,2.5-1.94l1.57-.1v-.53c0-.54-.39-.84-1.09-.84s-1,.21-1.17.6h-1.57c.11-1.2,1.21-1.95,2.83-1.95s2.68.81,2.68,2.19V389H298v-.85h-.11a2.08,2.08,0,0,1-1.87.95A1.93,1.93,0,0,1,293.89,387.14Zm4.07-.5v-.47l-1.31.08c-.73.05-1.09.32-1.09.78s.42.77,1,.77A1.26,1.26,0,0,0,298,386.64Z"/>
    <path class="u" d="M301.31,382.52H303v1.06h.1a1.83,1.83,0,0,1,1.79-1.2,1.75,1.75,0,0,1,1.79,1.2h.1a2,2,0,0,1,1.95-1.2,2,2,0,0,1,2.09,2.17V389h-1.71v-4c0-.77-.35-1.15-1.07-1.15a1.1,1.1,0,0,0-1.14,1.18v4h-1.64v-4.06a1,1,0,0,0-1.07-1.08A1.15,1.15,0,0,0,303,385.1V389h-1.71Z"/>
    <path class="u" d="M318.21,387.15a2.73,2.73,0,0,1-3,2c-2,0-3.13-1.25-3.13-3.34s1.19-3.41,3.11-3.41,3,1.22,3,3.27v.52h-4.44v.09a1.43,1.43,0,0,0,1.48,1.55,1.32,1.32,0,0,0,1.32-.66Zm-4.38-2.07h2.75a1.3,1.3,0,0,0-1.34-1.39A1.38,1.38,0,0,0,313.83,385.08Z"/>
    <path class="u" d="M319.85,384a1,1,0,1,1,1,1A1,1,0,0,1,319.85,384Zm0,4.12a1,1,0,1,1,1,1A1,1,0,0,1,319.85,388.12Z"/>
    <path class="u" d="M328.86,389h-1.77v-8.46h3.55c1.86,0,3,1,3,2.71a2.5,2.5,0,0,1-1.54,2.41l1.79,3.34h-2l-1.57-3.07h-1.45Zm0-4.43h1.55a1.24,1.24,0,0,0,1.41-1.29,1.27,1.27,0,0,0-1.43-1.31h-1.53Z"/>
    <path class="u" d="M340.81,387.15a2.72,2.72,0,0,1-2.95,2c-2,0-3.13-1.25-3.13-3.34s1.18-3.41,3.11-3.41,3,1.22,3,3.27v.52h-4.43v.09a1.42,1.42,0,0,0,1.48,1.55,1.3,1.3,0,0,0,1.31-.66Zm-4.38-2.07h2.76a1.31,1.31,0,0,0-1.35-1.39A1.38,1.38,0,0,0,336.43,385.08Z"/>
    <path class="u" d="M344.08,388H344v1h-1.65v-8.93H344v3.49h.11a2.06,2.06,0,0,1,1.94-1.13c1.63,0,2.62,1.25,2.62,3.33s-1,3.34-2.62,3.34A2.09,2.09,0,0,1,344.08,388Zm-.07-2.21c0,1.17.56,1.9,1.47,1.9s1.45-.72,1.45-1.91-.55-1.9-1.45-1.9S344,384.58,344,385.76Z"/>
    <path class="u" d="M355.84,387.15a2.72,2.72,0,0,1-2.95,2c-2,0-3.13-1.25-3.13-3.34s1.18-3.41,3.1-3.41,3,1.22,3,3.27v.52h-4.43v.09a1.42,1.42,0,0,0,1.47,1.55,1.31,1.31,0,0,0,1.32-.66Zm-4.38-2.07h2.76a1.31,1.31,0,0,0-1.35-1.39A1.38,1.38,0,0,0,351.46,385.08Z"/>
    <path class="u" d="M361.41,384.8a1.19,1.19,0,0,0-1.28-1c-.92,0-1.44.69-1.44,2s.53,2,1.44,2a1.17,1.17,0,0,0,1.28-1H363a2.61,2.61,0,0,1-2.88,2.38c-2,0-3.16-1.22-3.16-3.39s1.14-3.36,3.16-3.36A2.61,2.61,0,0,1,363,384.8Z"/>
    <path class="u" d="M368.46,384.8a1.2,1.2,0,0,0-1.28-1c-.92,0-1.44.69-1.44,2s.52,2,1.44,2a1.17,1.17,0,0,0,1.28-1h1.6a2.61,2.61,0,0,1-2.88,2.38c-2,0-3.16-1.22-3.16-3.39s1.14-3.36,3.16-3.36a2.61,2.61,0,0,1,2.88,2.42Z"/>
    <path class="u" d="M371,387.14c0-1.17.9-1.85,2.5-1.94l1.57-.1v-.53c0-.54-.39-.84-1.09-.84s-1,.21-1.17.6h-1.57c.11-1.2,1.21-1.95,2.83-1.95s2.68.81,2.68,2.19V389h-1.65v-.85H375a2.08,2.08,0,0,1-1.87.95A1.93,1.93,0,0,1,371,387.14Zm4.07-.5v-.47l-1.31.08c-.73.05-1.09.32-1.09.78s.42.77,1,.77A1.26,1.26,0,0,0,375.11,386.64Z"/>
  </g>
  <g>
    <path class="c" d="M316.27,318.3a1.4,1.4,0,0,0-1.49-1.19c-1.08,0-1.68.8-1.68,2.29s.61,2.32,1.68,2.32a1.37,1.37,0,0,0,1.49-1.15h1.86a3,3,0,0,1-3.35,2.78c-2.35,0-3.69-1.42-3.69-4s1.33-3.92,3.69-3.92a3,3,0,0,1,3.35,2.82Z"/>
    <path class="c" d="M319.32,319.41c0-2.44,1.41-3.93,3.71-3.93s3.71,1.48,3.71,3.93-1.39,3.94-3.71,3.94S319.32,321.88,319.32,319.41Zm5.38,0c0-1.45-.62-2.3-1.67-2.3s-1.67.85-1.67,2.3.6,2.31,1.67,2.31S324.7,320.87,324.7,319.41Z"/>
    <path class="c" d="M328.43,312.77h2v10.42h-2Z"/>
    <path class="c" d="M332.55,312.77h2v10.42h-2Z"/>
    <path class="c" d="M336.2,321c0-1.37,1.05-2.16,2.92-2.27l1.83-.11V318c0-.63-.46-1-1.28-1s-1.19.25-1.36.7h-1.83c.13-1.39,1.41-2.27,3.3-2.27s3.13.94,3.13,2.56v5.15H341v-1h-.12a2.43,2.43,0,0,1-2.19,1.1A2.25,2.25,0,0,1,336.2,321Zm4.75-.58v-.55l-1.53.09c-.85.06-1.27.37-1.27.91s.48.9,1.17.9A1.48,1.48,0,0,0,341,320.45Z"/>
    <path class="c" d="M344.86,315.65h1.93v1.2h.12a2,2,0,0,1,1.94-1.33,2.85,2.85,0,0,1,.78.1v1.81a3.8,3.8,0,0,0-.95-.12,1.66,1.66,0,0,0-1.83,1.7v4.18h-2Z"/>
  </g>
  <g>
    <use width="50.67" height="35.27" transform="translate(65.89 335.96)" xlink:href="#g"/>
    <use width="50.67" height="35.27" transform="translate(521.71 335.96)" xlink:href="#g"/>
  </g>
  <use width="39.49" height="28.19" transform="translate(190.27 340.07)" xlink:href="#i"/>
  <use width="26.96" height="34.52" transform="translate(317.3 338.67)" xlink:href="#j"/>
  <g>
    <path class="u" d="M526.45,388.75h-1.53v-2.38h-2.28v-1.56h2.28v-2.38h1.53v2.38h2.27v1.56h-2.27Z"/>
    <path class="u" d="M532.73,382.25h-.11l-2.07,1.43V382l2.18-1.51h1.77V389h-1.77Z"/>
    <path class="u" d="M545.7,387.15a2.72,2.72,0,0,1-3,2c-2,0-3.13-1.25-3.13-3.34s1.18-3.41,3.1-3.41,3,1.22,3,3.27v.52h-4.43v.09a1.42,1.42,0,0,0,1.47,1.55,1.31,1.31,0,0,0,1.32-.66Zm-4.38-2.07h2.76a1.31,1.31,0,0,0-1.35-1.39A1.38,1.38,0,0,0,541.32,385.08Z"/>
    <path class="u" d="M547,389.54h1.68c.09.4.57.65,1.31.65.91,0,1.45-.42,1.45-1.15v-1.19h-.11a2,2,0,0,1-1.94,1c-1.62,0-2.62-1.25-2.62-3.19s1-3.28,2.65-3.28a2.11,2.11,0,0,1,2,1.14h.11v-1h1.65V389c0,1.52-1.23,2.48-3.19,2.48C548.28,391.44,547.14,390.68,547,389.54Zm4.45-3.84c0-1.14-.55-1.85-1.47-1.85s-1.46.71-1.46,1.84.53,1.85,1.46,1.85S551.49,386.84,551.49,385.7Z"/>
    <path class="u" d="M554.78,389.54h1.69c.09.4.57.65,1.31.65.91,0,1.44-.42,1.44-1.15v-1.19h-.1a2.05,2.05,0,0,1-2,1c-1.61,0-2.61-1.25-2.61-3.19s1-3.28,2.65-3.28a2.12,2.12,0,0,1,2,1.14h.11v-1h1.65V389c0,1.52-1.24,2.48-3.19,2.48C556,391.44,554.89,390.68,554.78,389.54Zm4.46-3.84c0-1.14-.56-1.85-1.48-1.85s-1.45.71-1.45,1.84.53,1.85,1.45,1.85S559.24,386.84,559.24,385.7Z"/>
  </g>
  <g>
    <path class="c" d="M527.54,317.29h-1.22v-1.57h1.22V315c0-1.49.76-2.25,2.58-2.25a7.46,7.46,0,0,1,1,.07v1.41c-.13,0-.34,0-.6,0-.78,0-1.07.31-1.07,1v.62h1.6v1.57h-1.55v5.9h-2Z"/>
    <path class="c" d="M539.14,321c-.3,1.41-1.6,2.31-3.45,2.31-2.3,0-3.65-1.45-3.65-3.9s1.38-4,3.62-4,3.54,1.42,3.54,3.81v.61H534v.1a1.68,1.68,0,0,0,1.73,1.82,1.51,1.51,0,0,0,1.53-.78ZM534,318.63h3.21a1.52,1.52,0,0,0-1.57-1.62A1.61,1.61,0,0,0,534,318.63Z"/>
    <path class="c" d="M547.55,321c-.29,1.41-1.6,2.31-3.44,2.31-2.3,0-3.65-1.45-3.65-3.9s1.38-4,3.62-4,3.53,1.42,3.53,3.81v.61h-5.17v.1a1.67,1.67,0,0,0,1.72,1.82,1.52,1.52,0,0,0,1.54-.78Zm-5.1-2.41h3.21a1.52,1.52,0,0,0-1.57-1.62A1.6,1.6,0,0,0,542.45,318.63Z"/>
    <path class="c" d="M548.87,319.41c0-2.4,1.18-3.89,3.07-3.89a2.38,2.38,0,0,1,2.25,1.33h.12v-4.08h2v10.42h-1.93V322h-.13a2.44,2.44,0,0,1-2.3,1.3C550,323.3,548.87,321.81,548.87,319.41Zm2,0c0,1.4.63,2.23,1.7,2.23s1.71-.84,1.71-2.22-.65-2.23-1.71-2.23S550.92,318,550.92,319.41Z"/>
  </g>
  <use width="138.32" height="140.32" transform="translate(607.86 293.5) scale(0.81)" xlink:href="#a"/>
  <g>
    <path class="u" d="M623.79,380.26a.89.89,0,0,0-1-.77c-.69,0-1.08.52-1.08,1.47s.39,1.49,1.08,1.49a.88.88,0,0,0,1-.73H625a2,2,0,0,1-2.16,1.78,2.54,2.54,0,0,1,0-5.06,2,2,0,0,1,2.16,1.82Z"/>
    <path class="u" d="M625.75,381a2.39,2.39,0,1,1,2.38,2.53A2.28,2.28,0,0,1,625.75,381Zm3.46,0c0-.93-.4-1.48-1.08-1.48s-1.07.55-1.07,1.48.39,1.48,1.07,1.48S629.21,381.91,629.21,381Z"/>
    <path class="u" d="M634.66,380.26a.9.9,0,0,0-1-.77c-.69,0-1.07.52-1.07,1.47s.39,1.49,1.07,1.49a.89.89,0,0,0,1-.73h1.19a2,2,0,0,1-2.16,1.78,2.54,2.54,0,0,1,0-5.06,2,2,0,0,1,2.16,1.82Z"/>
    <path class="u" d="M639.87,378.55h1.46l-1.85,2.08,2,2.76h-1.51l-1.42-2-.35.36v1.6h-1.28V376.7h1.28v3.74h.08Z"/>
    <path class="u" d="M642,381.43v-1.2h2.89v1.2Z"/>
    <path class="u" d="M646,382c0-.88.68-1.39,1.88-1.46l1.17-.07v-.4c0-.4-.29-.63-.81-.63s-.77.16-.88.45h-1.18c.09-.9.91-1.46,2.13-1.46s2,.61,2,1.64v3.31H649.1v-.63H649a1.57,1.57,0,0,1-1.41.71A1.45,1.45,0,0,1,646,382Zm3.05-.37v-.36l-1,.06c-.55,0-.81.24-.81.59s.31.58.75.58A1,1,0,0,0,649.08,381.64Z"/>
    <path class="u" d="M651.7,381.43v-1.2h2.89v1.2Z"/>
    <path class="u" d="M655.72,381c0-1.54.76-2.49,2-2.49a1.52,1.52,0,0,1,1.44.85h.08V376.7h1.28v6.69h-1.24v-.76h-.08a1.58,1.58,0,0,1-1.48.84C656.47,383.47,655.72,382.51,655.72,381Zm1.32,0c0,.89.41,1.43,1.09,1.43s1.1-.54,1.1-1.43-.42-1.43-1.1-1.43S657,380.08,657,381Z"/>
    <path class="u" d="M661.59,381A2.39,2.39,0,1,1,664,383.5,2.28,2.28,0,0,1,661.59,381Zm3.45,0c0-.93-.39-1.48-1.07-1.48s-1.07.55-1.07,1.48.39,1.48,1.07,1.48S665,381.91,665,381Z"/>
    <path class="u" d="M667.16,381a2.39,2.39,0,1,1,2.39,2.53A2.28,2.28,0,0,1,667.16,381Zm3.46,0c0-.93-.4-1.48-1.07-1.48s-1.07.55-1.07,1.48.38,1.48,1.07,1.48S670.62,381.91,670.62,381Z"/>
    <path class="u" d="M672.74,381c0-1.54.75-2.49,2-2.49a1.52,1.52,0,0,1,1.45.85h.07V376.7h1.28v6.69h-1.24v-.76h-.08a1.58,1.58,0,0,1-1.48.84C673.49,383.47,672.74,382.51,672.74,381Zm1.31,0c0,.89.41,1.43,1.1,1.43s1.1-.54,1.1-1.43-.42-1.43-1.1-1.43S674.05,380.08,674.05,381Z"/>
    <path class="u" d="M678.88,376.7h1.28v6.69h-1.28Z"/>
    <path class="u" d="M685.81,382a2,2,0,0,1-2.21,1.49,2.23,2.23,0,0,1-2.35-2.51,2.27,2.27,0,0,1,2.33-2.55,2.17,2.17,0,0,1,2.27,2.45v.39h-3.32v.07a1.07,1.07,0,0,0,1.1,1.17,1,1,0,0,0,1-.51Zm-3.28-1.55h2.06a1,1,0,0,0-1-1A1,1,0,0,0,682.53,380.46Z"/>
    <path class="u" d="M687,381.43v-1.2h2.89v1.2Z"/>
    <path class="u" d="M691,381c0-1.54.76-2.49,2-2.49a1.52,1.52,0,0,1,1.45.85h.07V376.7h1.28v6.69h-1.24v-.76h-.08a1.56,1.56,0,0,1-1.48.84C691.77,383.47,691,382.51,691,381Zm1.31,0c0,.89.41,1.43,1.1,1.43s1.1-.54,1.1-1.43-.42-1.43-1.1-1.43S692.33,380.08,692.33,381Z"/>
    <path class="u" d="M696.88,381a2.39,2.39,0,1,1,2.39,2.53A2.28,2.28,0,0,1,696.88,381Zm3.46,0c0-.93-.39-1.48-1.07-1.48s-1.07.55-1.07,1.48.38,1.48,1.07,1.48S700.34,381.91,700.34,381Z"/>
    <path class="u" d="M702.46,381a2.39,2.39,0,1,1,2.38,2.53A2.28,2.28,0,0,1,702.46,381Zm3.46,0c0-.93-.4-1.48-1.08-1.48s-1.07.55-1.07,1.48.39,1.48,1.07,1.48S705.92,381.91,705.92,381Z"/>
    <path class="u" d="M648.2,391.06a.9.9,0,0,0-1-.77c-.69,0-1.08.52-1.08,1.47s.39,1.49,1.08,1.49a.89.89,0,0,0,1-.73h1.19a1.94,1.94,0,0,1-2.15,1.78,2.54,2.54,0,0,1,0-5.06,1.94,1.94,0,0,1,2.15,1.82Z"/>
    <path class="u" d="M650.43,387.5h1.26v2.64h.08a1.48,1.48,0,0,1,1.46-.89,1.59,1.59,0,0,1,1.66,1.82v3.12h-1.27v-2.81c0-.68-.32-1-.9-1a1,1,0,0,0-1,1.05v2.78h-1.28Z"/>
    <path class="u" d="M655.88,392.81c0-.88.67-1.39,1.87-1.46l1.18-.07v-.4c0-.4-.3-.63-.82-.63s-.77.16-.88.45h-1.18c.09-.9.91-1.46,2.13-1.46s2,.61,2,1.64v3.31H659v-.63h-.08a1.57,1.57,0,0,1-1.41.71A1.44,1.44,0,0,1,655.88,392.81Zm3-.37v-.36l-1,.06c-.54,0-.81.24-.81.59s.31.58.75.58A1,1,0,0,0,658.93,392.44Z"/>
    <path class="u" d="M661.54,392.23V391h2.89v1.2Z"/>
    <path class="u" d="M668.9,391.06a.9.9,0,0,0-1-.77c-.69,0-1.07.52-1.07,1.47s.39,1.49,1.07,1.49a.89.89,0,0,0,1-.73h1.19a2,2,0,0,1-2.16,1.78,2.54,2.54,0,0,1,0-5.06,2,2,0,0,1,2.16,1.82Z"/>
    <path class="u" d="M670.83,392.81c0-.88.67-1.39,1.88-1.46l1.17-.07v-.4c0-.4-.29-.63-.82-.63s-.77.16-.87.45H671c.08-.9.91-1.46,2.12-1.46s2,.61,2,1.64v3.31H673.9v-.63h-.08a1.57,1.57,0,0,1-1.4.71A1.44,1.44,0,0,1,670.83,392.81Zm3-.37v-.36l-1,.06c-.55,0-.82.24-.82.59s.31.58.76.58A1,1,0,0,0,673.88,392.44Z"/>
    <path class="u" d="M681.67,394.19h-1.36l-.87-3.34h-.08l-.85,3.34h-1.35l-1.29-4.84h1.3l.72,3.47H678l.84-3.47H680l.85,3.47H681l.72-3.47H683Z"/>
  </g>
  <g>
    <path class="c" d="M654.11,313.85v1.87h1.57v1.57h-1.57v3.39c0,.65.3.95,1,.95a5.25,5.25,0,0,0,.59,0v1.51a5.43,5.43,0,0,1-1,.09c-1.84,0-2.56-.59-2.56-2.06v-3.86h-1.18v-1.57h1.18v-1.87Z"/>
    <path class="c" d="M656.93,321c0-1.37,1-2.16,2.91-2.27l1.83-.11V318c0-.63-.45-1-1.27-1s-1.2.25-1.36.7h-1.83c.13-1.39,1.4-2.27,3.3-2.27s3.12.94,3.12,2.56v5.15H661.7v-1h-.12a2.43,2.43,0,0,1-2.19,1.1A2.24,2.24,0,0,1,656.93,321Zm4.74-.58v-.55l-1.52.09c-.86.06-1.28.37-1.28.91s.49.9,1.18.9A1.47,1.47,0,0,0,661.67,320.45Z"/>
    <path class="c" d="M665.66,312.77h2v10.42h-2Z"/>
    <path class="c" d="M674.41,315.65h2.27l-2.88,3.23,3.07,4.31h-2.36l-2.2-3.07-.54.56v2.51h-2V312.77h2v5.82h.12Z"/>
  </g>
  <use width="138.32" height="140.32" transform="translate(730.04 293.5) scale(0.81)" xlink:href="#a"/>
  <g>
    <path class="u" d="M740.31,389v-6.35h1.11l2.92,4h.08v-4h1.27V389h-1.1l-2.93-4h-.08v4Z"/>
    <path class="u" d="M746.84,387.6c0-.88.67-1.39,1.88-1.46l1.17-.07v-.39c0-.41-.29-.64-.82-.64s-.77.16-.87.45H747c.08-.89.9-1.46,2.12-1.46s2,.61,2,1.65V389h-1.24v-.64h-.08a1.55,1.55,0,0,1-1.4.71A1.44,1.44,0,0,1,746.84,387.6Zm3-.37v-.36l-1,.06c-.55,0-.82.24-.82.59s.31.58.76.58A1,1,0,0,0,749.89,387.23Z"/>
    <path class="u" d="M752.41,384.14h1.24v.79h.07a1.38,1.38,0,0,1,1.34-.9,1.33,1.33,0,0,1,1.35.9h.07a1.55,1.55,0,0,1,1.46-.9,1.49,1.49,0,0,1,1.57,1.63V389h-1.28v-3c0-.58-.26-.86-.8-.86a.83.83,0,0,0-.86.88v3h-1.23v-3a.73.73,0,0,0-.8-.81.87.87,0,0,0-.86.93V389h-1.27Z"/>
    <path class="u" d="M765.08,387.61a2,2,0,0,1-2.22,1.48,2.22,2.22,0,0,1-2.35-2.5,2.27,2.27,0,0,1,2.33-2.56,2.17,2.17,0,0,1,2.28,2.45v.39h-3.33v.07a1.08,1.08,0,0,0,1.11,1.17,1,1,0,0,0,1-.5Zm-3.29-1.56h2.07a1,1,0,0,0-1-1A1,1,0,0,0,761.79,386.05Z"/>
    <path class="u" d="M766.31,385.25a.78.78,0,0,1,1.55,0,.78.78,0,0,1-1.55,0Zm0,3.09a.78.78,0,1,1,.77.76A.73.73,0,0,1,766.31,388.34Z"/>
    <path class="u" d="M775.89,389h-4.15v-6.35h1.32v5.19h2.83Z"/>
    <path class="u" d="M776.7,387.6c0-.88.68-1.39,1.88-1.46l1.17-.07v-.39c0-.41-.29-.64-.81-.64s-.77.16-.88.45h-1.18c.09-.89.91-1.46,2.13-1.46s2,.61,2,1.65V389h-1.23v-.64h-.08a1.55,1.55,0,0,1-1.41.71A1.45,1.45,0,0,1,776.7,387.6Zm3-.37v-.36l-1,.06c-.55,0-.81.24-.81.59s.31.58.75.58A1,1,0,0,0,779.75,387.23Z"/>
    <path class="u" d="M786.66,389h-1.24v-.78h-.08a1.39,1.39,0,0,1-1.42.88,1.61,1.61,0,0,1-1.69-1.79v-3.16h1.28V387c0,.67.3,1,.89,1a.93.93,0,0,0,1-1.05v-2.79h1.28Z"/>
    <path class="u" d="M787.94,384.14h1.24v.77h.08a1.25,1.25,0,0,1,1.24-.85,1.75,1.75,0,0,1,.5.06v1.17a2.29,2.29,0,0,0-.6-.08,1.07,1.07,0,0,0-1.18,1.09V389h-1.28Z"/>
    <path class="u" d="M791.51,387.6c0-.88.67-1.39,1.87-1.46l1.18-.07v-.39c0-.41-.29-.64-.82-.64s-.77.16-.87.45h-1.18c.08-.89.9-1.46,2.12-1.46s2,.61,2,1.65V389h-1.24v-.64h-.08a1.55,1.55,0,0,1-1.41.71A1.44,1.44,0,0,1,791.51,387.6Zm3-.37v-.36l-1,.06c-.55,0-.82.24-.82.59s.31.58.76.58A1,1,0,0,0,794.56,387.23Z"/>
    <path class="u" d="M797.05,390.7l.41-2.74h1.25l-.8,2.74Z"/>
    <path class="u" d="M802.9,385.19h-.78v-1h.78v-.49c0-1,.49-1.46,1.66-1.46a4,4,0,0,1,.66.05v.91l-.38,0c-.5,0-.69.19-.69.61v.4h1v1h-1V389H802.9Z"/>
    <path class="u" d="M810.36,387.61a2,2,0,0,1-2.22,1.48,2.22,2.22,0,0,1-2.34-2.5,2.27,2.27,0,0,1,2.32-2.56,2.17,2.17,0,0,1,2.28,2.45v.39h-3.33v.07a1.08,1.08,0,0,0,1.11,1.17,1,1,0,0,0,1-.5Zm-3.29-1.56h2.07a1,1,0,0,0-1-1A1,1,0,0,0,807.07,386.05Z"/>
    <path class="u" d="M811.44,384.14h1.24v.79h.08a1.37,1.37,0,0,1,1.34-.9,1.31,1.31,0,0,1,1.34.9h.08A1.53,1.53,0,0,1,817,384a1.49,1.49,0,0,1,1.57,1.63V389h-1.28v-3c0-.58-.27-.86-.81-.86a.82.82,0,0,0-.85.88v3h-1.23v-3a.73.73,0,0,0-.8-.81.87.87,0,0,0-.86.93V389h-1.28Z"/>
    <path class="u" d="M819.53,387.6c0-.88.67-1.39,1.87-1.46l1.18-.07v-.39c0-.41-.29-.64-.82-.64s-.77.16-.87.45h-1.18c.08-.89.9-1.46,2.12-1.46s2,.61,2,1.65V389H822.6v-.64h-.08a1.55,1.55,0,0,1-1.41.71A1.44,1.44,0,0,1,819.53,387.6Zm3.05-.37v-.36l-1,.06c-.55,0-.82.24-.82.59s.31.58.76.58A1,1,0,0,0,822.58,387.23Z"/>
    <path class="u" d="M825.14,382.29h1.28V389h-1.28Z"/>
    <path class="u" d="M832.07,387.61a2,2,0,0,1-2.21,1.48,2.22,2.22,0,0,1-2.35-2.5,2.27,2.27,0,0,1,2.33-2.56,2.17,2.17,0,0,1,2.27,2.45v.39h-3.33v.07a1.08,1.08,0,0,0,1.11,1.17,1,1,0,0,0,1-.5Zm-3.28-1.56h2.06a1,1,0,0,0-1-1A1,1,0,0,0,828.79,386.05Z"/>
  </g>
  <g>
    <path class="c" d="M772.09,318.3a1.4,1.4,0,0,0-1.49-1.19c-1.08,0-1.68.8-1.68,2.29s.61,2.32,1.68,2.32a1.37,1.37,0,0,0,1.49-1.15H774a3,3,0,0,1-3.35,2.78c-2.35,0-3.69-1.42-3.69-4s1.33-3.92,3.69-3.92A3,3,0,0,1,774,318.3Z"/>
    <path class="c" d="M775.14,319.41c0-2.44,1.41-3.93,3.71-3.93s3.71,1.48,3.71,3.93-1.39,3.94-3.71,3.94S775.14,321.88,775.14,319.41Zm5.38,0c0-1.45-.62-2.3-1.67-2.3s-1.67.85-1.67,2.3.6,2.31,1.67,2.31S780.52,320.87,780.52,319.41Z"/>
    <path class="c" d="M784.25,312.77h2v10.42h-2Z"/>
    <path class="c" d="M788.37,312.77h2v10.42h-2Z"/>
    <path class="c" d="M792,321c0-1.37,1.05-2.16,2.92-2.27l1.82-.11V318c0-.63-.45-1-1.27-1s-1.19.25-1.36.7H792.3c.13-1.39,1.41-2.27,3.3-2.27s3.13.94,3.13,2.56v5.15H796.8v-1h-.12a2.43,2.43,0,0,1-2.19,1.1A2.25,2.25,0,0,1,792,321Zm4.74-.58v-.55l-1.52.09c-.85.06-1.27.37-1.27.91s.48.9,1.17.9A1.47,1.47,0,0,0,796.76,320.45Z"/>
    <path class="c" d="M800.68,315.65h1.93v1.2h.12a2,2,0,0,1,1.94-1.33,2.85,2.85,0,0,1,.78.1v1.81a3.8,3.8,0,0,0-1-.12,1.66,1.66,0,0,0-1.83,1.7v4.18h-2Z"/>
  </g>
  <use width="39.49" height="28.19" transform="translate(646.09 340.07)" xlink:href="#i"/>
  <use width="26.96" height="34.52" transform="translate(773.12 338.67)" xlink:href="#j"/>
</svg>
