<svg xmlns="http://www.w3.org/2000/svg" xmlns:xlink="http://www.w3.org/1999/xlink" viewBox="0 0 900 434">
  <defs>
    <style>
      .a {
        fill: #c29644;
      }

      .b {
        fill: #ffc65a;
      }

      .c {
        fill: #fff7e8;
      }

      .d {
        fill: #7e73ff;
      }

      .e {
        fill: #eaeaea;
      }

      .f {
        fill: #fff;
      }

      .g, .t {
        fill: #4a4a4a;
      }

      .g {
        opacity: 0.14;
      }

      .h {
        fill: #6057c2;
      }

      .i {
        fill: #574fb0;
      }

      .j {
        fill: #7f72fc;
      }

      .k {
        fill: #d6d5d5;
      }

      .l {
        fill: #b2b2b2;
      }

      .m {
        fill: #62ddf5;
      }

      .n {
        fill: #5bb670;
      }

      .o {
        fill: #4cabbd;
      }

      .p {
        fill: #1edd88;
      }

      .q {
        fill: #47915a;
      }

      .r {
        fill: #a37f3a;
      }

      .s {
        fill: none;
        stroke: #7e73ff;
        stroke-miterlimit: 10;
      }
    </style>
    <symbol id="a" data-name="Corn 3" viewBox="0 0 13.9 16.66">
      <rect class="a" width="13.91" height="16.66" rx="6.62"/>
      <rect class="b" x="1.35" y="0.75" width="12.23" height="14.65" rx="5.82"/>
      <rect class="c" x="9.36" y="5.41" width="2.9" height="4.13" rx="1.03"/>
    </symbol>
    <symbol id="b" data-name="Corn 2" viewBox="0 0 38.64 25.1">
      <path class="a" d="M27.23,23.07,11.41,25C5.13,25.79,0,21.38,0,15.21v-.57A13.2,13.2,0,0,1,11.41,2L27.23.09c6.28-.77,11.41,3.64,11.41,9.8v.57A13.19,13.19,0,0,1,27.23,23.07Z"/>
      <path class="b" d="M28.32,21.3,14.78,23A8.47,8.47,0,0,1,5,14.42v-.51a11.46,11.46,0,0,1,9.76-11L28.32,1.16a8.48,8.48,0,0,1,9.77,8.59v.5A11.48,11.48,0,0,1,28.32,21.3Z"/>
      <path class="c" d="M18.17,9.82,14,10.13c-1.65.13-3-.58-3-1.57v-.1c0-1,1.34-1.9,3-2l4.16-.31c1.65-.13,3,.58,3,1.58v.09C21.17,8.78,19.82,9.7,18.17,9.82Z"/>
    </symbol>
    <symbol id="bb" data-name="Corn 1" viewBox="0 0 42.49 27.56">
      <rect class="a" width="42.49" height="27.56" rx="12"/>
      <rect class="b" x="2.06" y="0.98" width="38.88" height="24.48" rx="11.12"/>
      <rect class="c" x="11.51" y="6.18" width="19.72" height="4.06" rx="2.03"/>
    </symbol>
    <symbol id="br" data-name="Rice" viewBox="0 0 14.85 13.91">
      <g>
        <path class="b" d="M2.23,13.85c-2.85-.59-3.78-2.24,2.21-7.7S14.83,0,14.83,0s.4,3-2.51,7.69C10.36,10.88,5.09,14.43,2.23,13.85Z"/>
        <path class="a" d="M2.56,12.19c2.18-3.5,10.69-9.84,10.69-9.84S5.12,11,2.56,12.19Z"/>
        <path class="c" d="M2.26,10.23C3,9.16,10.18,2.56,11.72,2.4,10.48,2.19,2.89,7.35,2.26,10.23Z"/>
      </g>
    </symbol>
    <symbol id="bq" data-name="Rice 2" viewBox="0 0 122.96 67.81">
      <g>
        <use width="14.85" height="13.91" transform="translate(-4.23 15.42) rotate(-21.22)" xlink:href="#br"/>
        <use width="14.85" height="13.91" transform="matrix(0.41, -0.91, -0.91, -0.41, 13.78, 34.33)" xlink:href="#br"/>
      </g>
      <g>
        <use width="14.85" height="13.91" transform="matrix(0.99, -0.16, 0.16, 0.99, 5.39, 7.52)" xlink:href="#br"/>
        <use width="14.85" height="13.91" transform="matrix(0.58, -0.81, -0.81, -0.58, 19.13, 29.73)" xlink:href="#br"/>
      </g>
      <g>
        <use width="14.85" height="13.91" transform="translate(15.55 2.65) rotate(-3.94)" xlink:href="#br"/>
        <use width="14.85" height="13.91" transform="matrix(0.66, -0.75, -0.75, -0.66, 27.12, 26.05)" xlink:href="#br"/>
      </g>
      <g>
        <use width="14.85" height="13.91" transform="translate(27.08 -2.04) rotate(7.9)" xlink:href="#br"/>
        <use width="14.85" height="13.91" transform="matrix(0.8, -0.6, -0.6, -0.8, 33.6, 23.24)" xlink:href="#br"/>
      </g>
      <g>
        <use width="14.85" height="13.91" transform="translate(39.03 -4.23) rotate(20.76)" xlink:href="#br"/>
        <use width="14.85" height="13.91" transform="matrix(0.91, -0.41, -0.41, -0.91, 39.76, 21.88)" xlink:href="#br"/>
      </g>
      <g>
        <use width="14.85" height="13.91" transform="translate(51.46 -3.67) rotate(32.61)" xlink:href="#br"/>
        <use width="14.85" height="13.91" transform="matrix(0.98, -0.21, -0.21, -0.98, 46.82, 22.03)" xlink:href="#br"/>
      </g>
      <g>
        <use width="14.85" height="13.91" transform="matrix(0.79, 0.62, -0.62, 0.79, 62.28, -0.49)" xlink:href="#br"/>
        <use width="14.85" height="13.91" transform="matrix(0.99, -0.12, -0.12, -0.99, 55.22, 24.65)" xlink:href="#br"/>
      </g>
      <g>
        <use width="14.85" height="13.91" transform="translate(73.98 3.73) rotate(49.89)" xlink:href="#br"/>
        <use width="14.85" height="13.91" transform="matrix(1, 0.09, 0.09, -1, 61.92, 26.89)" xlink:href="#br"/>
      </g>
      <g>
        <use width="14.85" height="13.91" transform="matrix(0.57, 0.82, -0.82, 0.57, 83.16, 7.99)" xlink:href="#br"/>
        <use width="14.85" height="13.91" transform="matrix(0.98, 0.19, 0.19, -0.98, 68.86, 29.84)" xlink:href="#br"/>
      </g>
      <g>
        <use width="14.85" height="13.91" transform="matrix(0.49, 0.87, -0.87, 0.49, 91.47, 13.4)" xlink:href="#br"/>
        <use width="14.85" height="13.91" transform="matrix(0.96, 0.27, 0.27, -0.96, 75.33, 33.93)" xlink:href="#br"/>
      </g>
      <g>
        <use width="14.85" height="13.91" transform="translate(99.89 20.23) rotate(67.38)" xlink:href="#br"/>
        <use width="14.85" height="13.91" transform="matrix(0.92, 0.38, 0.38, -0.92, 81.43, 38.7)" xlink:href="#br"/>
      </g>
      <g>
        <use width="14.85" height="13.91" transform="translate(107.48 27.81) rotate(70.81)" xlink:href="#br"/>
        <use width="14.85" height="13.91" transform="matrix(0.9, 0.44, 0.44, -0.9, 87.94, 45.14)" xlink:href="#br"/>
      </g>
      <g>
        <use width="14.85" height="13.91" transform="matrix(0.32, 0.95, -0.95, 0.32, 113.68, 35.9)" xlink:href="#br"/>
        <use width="14.85" height="13.91" transform="matrix(0.9, 0.44, 0.44, -0.9, 94.02, 53.09)" xlink:href="#br"/>
      </g>
      <g>
        <use width="14.85" height="13.91" transform="translate(121.17 45.85) rotate(83.06)" xlink:href="#br"/>
        <use width="14.85" height="13.91" transform="matrix(0.79, 0.62, 0.62, -0.79, 98.4, 58.63)" xlink:href="#br"/>
      </g>
    </symbol>
    <symbol id="hf" data-name="Panel 2" viewBox="0 0 138.32 140.32">
      <path class="d" d="M130.39,6.44H7.93A8,8,0,0,0,0,14.37v118a8,8,0,0,0,7.93,7.93H130.39a8,8,0,0,0,7.93-7.93v-118A8,8,0,0,0,130.39,6.44ZM17.73,19a5.06,5.06,0,1,1,5.06-5.06A5.06,5.06,0,0,1,17.73,19Zm102.86,0a5.06,5.06,0,1,1,5.06-5.06A5.06,5.06,0,0,1,120.59,19Z"/>
      <g>
        <rect class="e" x="14.27" width="6.92" height="13.93" rx="2.76"/>
        <rect class="e" x="117.13" width="6.92" height="13.93" rx="2.76"/>
      </g>
      <rect class="f" x="9.09" y="46.28" width="121.74" height="82.83" rx="3.47"/>
    </symbol>
    <symbol id="hh" data-name="drop" viewBox="0 0 7.45 13.05">
      <path class="m" d="M3.36,0c.84,0,8.74,13.05,0,13.05-7,0-1.19-13,0-13"/>
    </symbol>
    <symbol id="hg" data-name="Watering can" viewBox="0 0 47.4 32.22">
      <g>
        <path class="k" d="M40.71,6.65c0-.08-4.13-8.71-13.19-6.19-8.7,2.42-6.37,11.85-6.35,11.94,0,.73.77,2.24,1.12,4.49.67,4.32-6.8-.92-7.8-1.36C13,14.85,8,13.75,7.1,14.86c0,0-1.77,1.4.18,6,2.24,5.33,3.81,4.51,3.81,4.51C13.34,24.51,14.72,24,16,21c.38-.91,6.39,3.24,7.91,4.84a20.5,20.5,0,0,1,1.46,1.75l.16.21c.1.29,1.65,3.18,1.65,3.18a16.89,16.89,0,0,0,12.62-.58c8.4-3.65,7.62-7.93,7.62-7.93C45.2,17.47,40.71,6.65,40.71,6.65ZM28,2.3C34.67.45,37.59,5,38.29,6.27a32.08,32.08,0,0,0-8.85,1.59A33.37,33.37,0,0,0,22.88,11C22.78,9.9,21.69,4.06,28,2.3Z"/>
        <use width="7.45" height="13.05" transform="translate(3.46 19.09) rotate(40.88) scale(0.23)" xlink:href="#hh"/>
        <use width="7.45" height="13.05" transform="translate(5.23 22) rotate(14.35) scale(0.22)" xlink:href="#hh"/>
        <use width="7.45" height="13.05" transform="translate(6.67 25.9) rotate(3.96) scale(0.25)" xlink:href="#hh"/>
        <use width="7.45" height="13.05" transform="translate(3.24 27.96) rotate(6.77) scale(0.32)" xlink:href="#hh"/>
        <use width="7.45" height="13.05" transform="matrix(0.29, 0.12, -0.12, 0.29, 1.29, 23.89)" xlink:href="#hh"/>
        <ellipse class="l" cx="7.03" cy="16.67" rx="0.24" ry="0.37" transform="translate(-3.6 2.03) rotate(-13.12)"/>
        <ellipse class="l" cx="7.12" cy="18.73" rx="0.24" ry="0.37" transform="translate(-4.07 2.1) rotate(-13.12)"/>
        <ellipse class="l" cx="8.19" cy="16.36" rx="0.24" ry="0.37" transform="translate(-3.5 2.29) rotate(-13.12)"/>
        <ellipse class="l" cx="8.99" cy="18.22" rx="0.24" ry="0.37" transform="translate(-3.9 2.52) rotate(-13.12)"/>
        <ellipse class="l" cx="9.59" cy="19.93" rx="0.24" ry="0.37" transform="translate(-4.27 2.7) rotate(-13.12)"/>
        <ellipse class="l" cx="9.98" cy="21.8" rx="0.24" ry="0.37" transform="translate(-4.69 2.83) rotate(-13.12)"/>
        <ellipse class="l" cx="10.12" cy="23.27" rx="0.24" ry="0.37" transform="translate(-5.02 2.9) rotate(-13.12)"/>
        <ellipse class="l" cx="7.74" cy="20.58" rx="0.24" ry="0.37" transform="translate(-4.47 2.29) rotate(-13.12)"/>
        <ellipse class="l" cx="8.58" cy="22.28" rx="0.24" ry="0.37" transform="translate(-4.83 2.53) rotate(-13.12)"/>
        <ellipse class="l" cx="9.33" cy="23.45" rx="0.24" ry="0.37" transform="translate(-5.08 2.73) rotate(-13.12)"/>
        <ellipse class="l" cx="7.95" cy="18.06" rx="0.24" ry="0.37" transform="translate(-3.89 2.28) rotate(-13.12)"/>
        <ellipse class="l" cx="8.47" cy="19.46" rx="0.24" ry="0.37" transform="translate(-4.2 2.43) rotate(-13.12)"/>
        <ellipse class="l" cx="8.88" cy="21.07" rx="0.24" ry="0.37" transform="translate(-4.55 2.57) rotate(-13.12)"/>
        <ellipse class="l" cx="31.16" cy="9.68" rx="7.64" ry="1.43" transform="translate(-1.47 9.69) rotate(-17.27)"/>
      </g>
      <path class="e" d="M38.42,10.29,45.19,24s1.28-.74,1.15-1.69S40.11,9.14,40.11,9.14A12.43,12.43,0,0,0,38.42,10.29Z"/>
    </symbol>
    <symbol id="hu" data-name="Ribbon" viewBox="0 0 273.24 46.05">
      <rect class="g" x="35.73" y="4.92" width="204.43" height="39.35"/>
      <polygon class="h" points="273.24 38.59 201.82 38.59 201.82 0.07 273.24 0.07 258.34 19.33 273.24 38.59"/>
      <polygon class="i" points="237.14 7.54 201.82 0 201.82 7.54 237.14 7.54"/>
      <polygon class="h" points="0 38.59 71.42 38.59 71.42 0.07 0 0.07 14.9 19.33 0 38.59"/>
      <polygon class="i" points="36.1 7.54 71.42 0 71.42 7.54 36.1 7.54"/>
      <rect class="j" x="36.15" y="7.53" width="201" height="38.52"/>
    </symbol>
  </defs>
  <path class="n" d="M654.21,279.16c.5-7.86.56-15.75.47-23.62-.1-8.85-.42-17.69-.75-26.53-.36-9.31-.74-18.62-1-27.94s-.42-18.81-.29-28.21c.13-9.1.52-18.2,1.41-27.26a175.77,175.77,0,0,1,4.08-25,97.42,97.42,0,0,1,7.67-21.36,59.17,59.17,0,0,1,12.29-16.6,49.63,49.63,0,0,1,17.85-10.51,70.94,70.94,0,0,1,24.61-3.24c2.39.07,4.77.23,7.16.46,1.92.18,1.9-2.82,0-3a84.49,84.49,0,0,0-27.06,1.34,54.36,54.36,0,0,0-20.06,9,56.94,56.94,0,0,0-14.34,15.65A85.89,85.89,0,0,0,657.11,113,152,152,0,0,0,652,137.64c-1.2,9-1.82,18.05-2.12,27.11-.32,9.44-.29,18.89-.11,28.33s.55,19,.91,28.54c.35,9.11.72,18.21.92,27.32.19,8.22.25,16.45-.07,24.67-.07,1.85-.17,3.7-.28,5.55s2.87,1.92,3,0Z"/>
  <path class="o" d="M644.14,268.27c-7.47.19-9.95,4.13-9,7.58S647.31,285,649.79,285s18.66-1.9,18.66-1.9,18-6.3,10.67-11.38-19-2.5-23.92-2.15S651.62,268.08,644.14,268.27Z"/>
  <path class="p" d="M645.36,274.38c-2.12-26.37-.81-53.19.46-79.12l.54-11.08c1.32-28.49,2.2-58.75-2.68-88-5.23-31.32-30.89-77.63-30.89-77.63s31.85,42.31,37.42,75.7c5.07,30.34,4.17,61.29,2.82,90.4q-.25,5.55-.53,11.1c-1.25,25.57-2.54,52.83-.48,78.46a11.47,11.47,0,0,1-3.38,1.23A5,5,0,0,1,645.36,274.38Z"/>
  <path class="p" d="M652.58,266.55c1.7-17.05,2.08-34.23,2.52-51.36.48-19.2.87-38.41,2.1-57.59,1.14-17.95,2.9-36,6.93-53.56,3.22-14.05,7.89-28.7,17-40.11A44.58,44.58,0,0,1,695.1,52.16a42.59,42.59,0,0,1,18.3-4.62c1.8-.06,3.6,0,5.4.08s1.92-2.89,0-3a49.32,49.32,0,0,0-20.51,2.84,44.33,44.33,0,0,0-15.74,10.4C672.38,68.2,666.78,82.37,663,96.13c-4.74,17.35-6.85,35.38-8.25,53.27-1.5,19.38-2,38.83-2.49,58.26-.44,17.75-.74,35.54-2.19,53.24q-.23,2.84-.51,5.65c-.19,1.92,2.81,1.91,3,0Z"/>
  <path class="q" d="M176.44,88.25c-1.07-17.31-15.61-37.64-24.61-51.91,6.69,20.68,14.79,60.7,18.8,82.19Z"/>
  <path class="q" d="M239,37.3l17.61,51.82-8.8,86.13-26.59-49.13,12.09-53.74a49.36,49.36,0,0,0,5.85-35.11"/>
  <path class="r" d="M224.32,256.58c11.88-27.77,18.05-49.43,19.06-78.86.93-27.42.74-52.46-3.73-79.64-2.23-13.59-3.81-28.79-7.72-42.28-7.88-27.21-28.38-22.23-23.4-32.77-7.32,10.54-2.61,5.37-5.83-1.12,2.47,8.78-10.94,10.78-14.6,19.68-14.3,34.79-17.53,78.71-22.14,112-4.93,35.71-.83,70.5,17.9,103Z"/>
  <use width="13.91" height="16.66" transform="matrix(-0.63, 0, 0, 0.58, 178.07, 228.25)" xlink:href="#a"/>
  <use width="38.64" height="25.1" transform="matrix(-0.63, 0, 0, 0.58, 196.13, 234.76)" xlink:href="#b"/>
  <use width="13.91" height="16.66" transform="translate(222.72 41.26) scale(0.34 0.43)" xlink:href="#a"/>
  <use width="13.91" height="16.66" transform="translate(226.16 52.31) scale(0.43 0.49)" xlink:href="#a"/>
  <use width="13.91" height="16.66" transform="translate(228.93 66.56) scale(0.5 0.46)" xlink:href="#a"/>
  <use width="13.91" height="16.66" transform="translate(231.08 79.8) scale(0.55 0.56)" xlink:href="#a"/>
  <use width="13.91" height="16.66" transform="translate(233.05 95.29) scale(0.6 0.58)" xlink:href="#a"/>
  <use width="13.91" height="16.66" transform="translate(234.34 112.21) scale(0.62 0.63)" xlink:href="#a"/>
  <use width="13.91" height="16.66" transform="translate(234.54 127.69) scale(0.62 0.63)" xlink:href="#a"/>
  <use width="13.91" height="16.66" transform="translate(235.23 145.57) scale(0.63 0.63)" xlink:href="#a"/>
  <use width="13.91" height="16.66" transform="translate(235.01 162.79) scale(0.63 0.63)" xlink:href="#a"/>
  <use width="13.91" height="16.66" transform="translate(235.23 179.51) scale(0.63 0.63)" xlink:href="#a"/>
  <use width="13.91" height="16.66" transform="translate(234.76 197.51) scale(0.63 0.58)" xlink:href="#a"/>
  <use width="13.91" height="16.66" transform="translate(235.01 214.16) scale(0.63 0.58)" xlink:href="#a"/>
  <use width="13.91" height="16.66" transform="translate(235.01 228.25) scale(0.63 0.58)" xlink:href="#a"/>
  <use width="13.91" height="16.66" transform="matrix(-0.34, 0, 0, 0.43, 191.8, 41.26)" xlink:href="#a"/>
  <use width="13.91" height="16.66" transform="matrix(-0.43, 0, 0, 0.49, 187.39, 52.31)" xlink:href="#a"/>
  <use width="13.91" height="16.66" transform="matrix(-0.5, 0, 0, 0.46, 184.38, 66.56)" xlink:href="#a"/>
  <use width="13.91" height="16.66" transform="matrix(-0.55, 0, 0, 0.56, 181.73, 79.8)" xlink:href="#a"/>
  <use width="13.91" height="16.66" transform="matrix(-0.6, 0, 0, 0.58, 179.58, 95.29)" xlink:href="#a"/>
  <use width="13.91" height="16.66" transform="matrix(-0.62, 0, 0, 0.63, 178.74, 112.21)" xlink:href="#a"/>
  <use width="13.91" height="16.66" transform="matrix(-0.62, 0, 0, 0.63, 178.54, 127.69)" xlink:href="#a"/>
  <use width="13.91" height="16.66" transform="matrix(-0.63, 0, 0, 0.63, 178.29, 145.57)" xlink:href="#a"/>
  <use width="13.91" height="16.66" transform="matrix(-0.63, 0, 0, 0.63, 178.07, 162.79)" xlink:href="#a"/>
  <use width="13.91" height="16.66" transform="matrix(-0.63, 0, 0, 0.63, 178.29, 179.51)" xlink:href="#a"/>
  <use width="13.91" height="16.66" transform="matrix(-0.63, 0, 0, 0.58, 177.81, 197.51)" xlink:href="#a"/>
  <use width="13.91" height="16.66" transform="matrix(-0.63, 0, 0, 0.58, 178.07, 214.16)" xlink:href="#a"/>
  <use width="38.64" height="25.1" transform="translate(213.86 45.76) scale(0.43 0.49)" xlink:href="#b"/>
  <use width="38.64" height="25.1" transform="translate(215.1 58.92) scale(0.51 0.54)" xlink:href="#b"/>
  <use width="38.64" height="25.1" transform="translate(215.65 73.33) scale(0.55 0.56)" xlink:href="#b"/>
  <use width="38.64" height="25.1" transform="translate(216.3 88.25) scale(0.6 0.58)" xlink:href="#b"/>
  <use width="38.64" height="25.1" transform="translate(216.95 103.91) scale(0.63 0.63)" xlink:href="#b"/>
  <use width="38.64" height="25.1" transform="translate(216.95 120.69) scale(0.63 0.63)" xlink:href="#b"/>
  <use width="38.64" height="25.1" transform="translate(216.95 137.48) scale(0.63 0.63)" xlink:href="#b"/>
  <use width="38.64" height="25.1" transform="translate(216.95 154.26) scale(0.63 0.63)" xlink:href="#b"/>
  <use width="38.64" height="25.1" transform="translate(216.95 171.05) scale(0.63 0.63)" xlink:href="#b"/>
  <use width="38.64" height="25.1" transform="translate(216.95 187.83) scale(0.63 0.63)" xlink:href="#b"/>
  <use width="38.64" height="25.1" transform="translate(216.95 204.21) scale(0.63 0.58)" xlink:href="#b"/>
  <use width="38.64" height="25.1" transform="translate(216.95 219.48) scale(0.63 0.58)" xlink:href="#b"/>
  <use width="38.64" height="25.1" transform="translate(217.33 234.76) scale(0.63 0.58)" xlink:href="#b"/>
  <use width="38.64" height="25.1" transform="matrix(-0.34, 0, 0, 0.43, 201.82, 34.57)" xlink:href="#b"/>
  <use width="38.64" height="25.1" transform="matrix(-0.43, 0, 0, 0.49, 199.95, 45.76)" xlink:href="#b"/>
  <use width="38.64" height="25.1" transform="matrix(-0.51, 0, 0, 0.54, 198.52, 58.92)" xlink:href="#b"/>
  <use width="38.64" height="25.1" transform="matrix(-0.55, 0, 0, 0.56, 197.93, 73.33)" xlink:href="#b"/>
  <use width="38.64" height="25.1" transform="matrix(-0.6, 0, 0, 0.58, 197.11, 88.25)" xlink:href="#b"/>
  <use width="38.64" height="25.1" transform="matrix(-0.63, 0, 0, 0.63, 196.51, 103.91)" xlink:href="#b"/>
  <use width="38.64" height="25.1" transform="matrix(-0.63, 0, 0, 0.63, 196.51, 120.69)" xlink:href="#b"/>
  <use width="38.64" height="25.1" transform="matrix(-0.63, 0, 0, 0.63, 196.51, 137.48)" xlink:href="#b"/>
  <use width="38.64" height="25.1" transform="matrix(-0.63, 0, 0, 0.63, 196.51, 154.26)" xlink:href="#b"/>
  <use width="38.64" height="25.1" transform="matrix(-0.63, 0, 0, 0.63, 196.51, 171.05)" xlink:href="#b"/>
  <use width="38.64" height="25.1" transform="matrix(-0.63, 0, 0, 0.63, 196.51, 187.83)" xlink:href="#b"/>
  <use width="38.64" height="25.1" transform="matrix(-0.63, 0, 0, 0.58, 196.51, 204.21)" xlink:href="#b"/>
  <use width="38.64" height="25.1" transform="matrix(-0.63, 0, 0, 0.58, 196.51, 219.48)" xlink:href="#b"/>
  <use width="42.49" height="27.56" transform="translate(200.25 32.13) scale(0.34 0.31)" xlink:href="#bb"/>
  <use width="42.49" height="27.56" transform="translate(197.99 40.15) scale(0.43 0.49)" xlink:href="#bb"/>
  <use width="42.49" height="27.56" transform="translate(196.18 53.97) scale(0.51 0.54)" xlink:href="#bb"/>
  <use width="42.49" height="27.56" transform="translate(195.43 69.46) scale(0.55 0.56)" xlink:href="#bb"/>
  <use width="42.49" height="27.56" transform="translate(194.41 85.52) scale(0.6 0.58)" xlink:href="#bb"/>
  <use width="42.49" height="27.56" transform="translate(193.63 102.37) scale(0.63 0.63)" xlink:href="#bb"/>
  <use width="42.49" height="27.56" transform="translate(193.63 120.59) scale(0.63 0.63)" xlink:href="#bb"/>
  <use width="42.49" height="27.56" transform="translate(193.63 138.81) scale(0.63 0.63)" xlink:href="#bb"/>
  <use width="42.49" height="27.56" transform="translate(193.63 157.03) scale(0.63 0.63)" xlink:href="#bb"/>
  <use width="42.49" height="27.56" transform="translate(193.63 175.25) scale(0.63 0.63)" xlink:href="#bb"/>
  <use width="42.49" height="27.56" transform="translate(193.63 193.46) scale(0.63 0.63)" xlink:href="#bb"/>
  <use width="42.49" height="27.56" transform="translate(193.63 210.64) scale(0.63 0.58)" xlink:href="#bb"/>
  <use width="42.49" height="27.56" transform="translate(193.63 227.22) scale(0.63 0.58)" xlink:href="#bb"/>
  <use width="42.49" height="27.56" transform="translate(193.63 243.8) scale(0.63 0.5)" xlink:href="#bb"/>
  <use width="38.64" height="25.1" transform="translate(212.91 34.57) scale(0.34 0.43)" xlink:href="#b"/>
  <path class="p" d="M209.37,264.68l.95-.11a92.76,92.76,0,0,0,10.08-1.76,75,75,0,0,1-.75-12.66C250.78,196.53,266.82,132,256.19,73.79A186.67,186.67,0,0,0,239,37.3c15.67,61.4-.36,131.49-33.77,189-11.56-24.62-28-53.79-30.2-72.26-3.44-29.25-3.83-36.43-7.19-54.39a507.33,507.33,0,0,0-16-63.35,180.24,180.24,0,0,1,2.5,20.7c.9,13.54.94,27.35.63,41.24,3.39,13,5.33,26.23,2.73,38.49-5.78,27.26,10.05,85.91,27,124.77l.93.87A56.18,56.18,0,0,0,209.37,264.68Z"/>
  <path class="n" d="M157.69,136.77c2.6-12.26.66-25.52-2.73-38.49-.73,31.66-3.33,63.78-2,94.29,1.22,27.05,16.53,54.67,31.7,69C167.74,222.68,151.91,164,157.69,136.77Z"/>
  <path class="n" d="M256.19,73.79c10.63,58.23-5.41,122.74-36.54,176.36a75,75,0,0,0,.75,12.66c3.85-.88,7.66-1.94,11.45-3.1C262.57,221.13,280.25,143.5,256.19,73.79Z"/>
  <use width="122.96" height="67.81" transform="matrix(0.62, 0.12, -0.12, 0.62, 711.13, 26.39)" xlink:href="#bq"/>
  <use width="122.96" height="67.81" transform="translate(714.04 31.39) rotate(30.66) scale(0.63)" xlink:href="#bq"/>
  <use width="122.96" height="67.81" transform="translate(704.43 55.11) rotate(30.66) scale(0.63)" xlink:href="#bq"/>
  <use width="122.96" height="67.81" transform="matrix(0.58, 0.24, -0.24, 0.58, 717.88, 52.04)" xlink:href="#bq"/>
  <use width="122.96" height="67.81" transform="matrix(0.58, 0.24, -0.24, 0.58, 683.13, 51.57)" xlink:href="#bq"/>
  <path class="p" d="M659.41,277.85c-4.23-18.43-1.54-103.66,16.38-144.09,7.41-16.16,18.51-28.84,30.2-41.48,0,0-19.71,27.35-26.55,42.29C661.69,174.81,662.68,259.62,667.83,278,665.75,280.22,661.88,280.17,659.41,277.85Z"/>
  <path class="q" d="M660,278.93c8.49-84.79-21.5-251.26-21.5-251.26s20.79,167.17,12.4,251.1a11.51,11.51,0,0,0,4.65,1.42A6.72,6.72,0,0,0,660,278.93Z"/>
  <path class="q" d="M662.51,279.65c4-76.59,22.54-116.73,22.54-116.73s-21.88,72.35-16.71,116a3.29,3.29,0,0,1-3,2.22C663,281.33,662.51,279.65,662.51,279.65Z"/>
  <path class="n" d="M651.47,282.3a658.8,658.8,0,0,0-18.58-109c-14.6-56.36-42.44-94.45-42.44-94.45s42.28,61.27,50.25,92a677.34,677.34,0,0,1,18.7,111.34,15.13,15.13,0,0,1-4,1.15A4.34,4.34,0,0,1,651.47,282.3Z"/>
  <use width="138.32" height="140.32" transform="translate(149.84 301.26) scale(0.81)" xlink:href="#hf"/>
  <path class="s" d="M642.64,115.38h0"/>
  <path class="s" d="M642.66,115.37h0"/>
  <path class="s" d="M271.68,114.63l.05.07"/>
  <path class="s" d="M271.68,114.63l0,0"/>
  <path class="s" d="M642.64,115.38h0"/>
  <line class="s" x1="271.73" y1="114.7" x2="271.72" y2="114.59"/>
  <line class="s" x1="271.73" y1="114.7" x2="271.73" y2="114.71"/>
  <path class="s" d="M642.64,115.38h0"/>
  <polyline class="s" points="642.66 115.37 642.65 115.39 642.65 115.39"/>
  <line class="s" x1="647.05" y1="73.46" x2="647.05" y2="73.46"/>
  <line class="s" x1="644.82" y1="91.28" x2="645.16" y2="91.45"/>
  <g>
    <path class="t" d="M179,396.51h-1.53v-2.38h-2.28v-1.56h2.28v-2.38H179v2.38h2.27v1.56H179Z"/>
    <path class="t" d="M185.3,390h-.11l-2.07,1.43V389.8l2.18-1.51h1.77v8.46H185.3Z"/>
    <path class="t" d="M189.3,392.5c0-2.8,1.28-4.43,3.36-4.43s3.36,1.63,3.36,4.44-1.27,4.45-3.36,4.45S189.3,395.31,189.3,392.5Zm4.93,0c0-2-.6-3-1.57-3s-1.56,1-1.56,3,.6,3,1.56,3S194.23,394.51,194.23,392.5Z"/>
    <path class="t" d="M200.61,397.3h1.68c.09.4.57.65,1.31.65.92,0,1.45-.42,1.45-1.15v-1.19h-.11a2,2,0,0,1-1.94,1c-1.61,0-2.62-1.25-2.62-3.19s1-3.28,2.65-3.28a2.13,2.13,0,0,1,2,1.14h.1v-1h1.65v6.44c0,1.52-1.23,2.48-3.18,2.48C201.85,399.2,200.71,398.44,200.61,397.3Zm4.46-3.84c0-1.14-.56-1.85-1.48-1.85s-1.45.71-1.45,1.84.52,1.85,1.45,1.85S205.07,394.6,205.07,393.46Z"/>
    <path class="t" d="M208.46,390.28h1.66v1h.1a1.66,1.66,0,0,1,1.66-1.13,2.51,2.51,0,0,1,.67.08v1.55a3.29,3.29,0,0,0-.81-.1,1.42,1.42,0,0,0-1.57,1.46v3.58h-1.71Z"/>
    <path class="t" d="M213.22,394.9c0-1.17.9-1.85,2.5-1.94l1.57-.1v-.53c0-.54-.39-.84-1.09-.84s-1,.21-1.17.6h-1.57c.11-1.2,1.21-1.95,2.83-1.95s2.68.81,2.68,2.19v4.42h-1.65v-.85h-.11a2.07,2.07,0,0,1-1.87,1A1.94,1.94,0,0,1,213.22,394.9Zm4.07-.5v-.47L216,394c-.73.05-1.09.32-1.09.78s.42.77,1,.77A1.26,1.26,0,0,0,217.29,394.4Z"/>
    <path class="t" d="M220.55,388.34a1,1,0,1,1,1.93,0,1,1,0,1,1-1.93,0Zm.11,1.94h1.7v6.47h-1.7Z"/>
    <path class="t" d="M224.09,390.28h1.65v1h.1a1.92,1.92,0,0,1,1.91-1.18c1.44,0,2.21.88,2.21,2.43v4.18h-1.7V393c0-.89-.38-1.36-1.19-1.36a1.26,1.26,0,0,0-1.28,1.41v3.73h-1.7Z"/>
    <path class="t" d="M234.16,390.14c1.64,0,2.61.69,2.7,1.92h-1.58c-.08-.41-.48-.67-1.11-.67s-1.06.28-1.06.69.27.51.87.64l1.22.26c1.25.28,1.81.81,1.81,1.77,0,1.29-1.15,2.14-2.85,2.14s-2.73-.7-2.85-1.94H233c.13.44.55.69,1.23.69s1.12-.28,1.12-.69-.25-.51-.82-.64l-1.17-.26c-1.25-.27-1.86-.87-1.86-1.87C231.47,391,232.55,390.14,234.16,390.14Z"/>
  </g>
  <g>
    <path class="f" d="M192.71,331h-2.12l-1.35-5.21h-.12L187.78,331h-2.09l-2-7.54h2l1.12,5.4h.12l1.32-5.4h1.9l1.33,5.4h.12l1.12-5.4h2Z"/>
    <path class="f" d="M195.52,328.79c0-1.37,1-2.16,2.91-2.27l1.83-.11v-.61c0-.63-.45-1-1.27-1s-1.2.25-1.36.7H195.8c.13-1.39,1.4-2.27,3.3-2.27s3.12.94,3.12,2.56V331h-1.93v-1h-.12a2.43,2.43,0,0,1-2.19,1.1A2.24,2.24,0,0,1,195.52,328.79Zm4.74-.58v-.55l-1.52.09c-.86.06-1.28.37-1.28.91s.49.9,1.18.9A1.47,1.47,0,0,0,200.26,328.21Z"/>
    <path class="f" d="M206.73,321.61v1.87h1.57v1.57h-1.57v3.39c0,.65.3.95,1,.95a5.16,5.16,0,0,0,.59,0v1.51a5.43,5.43,0,0,1-1,.09c-1.83,0-2.56-.59-2.56-2.06v-3.86h-1.17v-1.57h1.17v-1.87Z"/>
    <path class="f" d="M216.62,328.8c-.29,1.41-1.59,2.31-3.44,2.31-2.3,0-3.65-1.45-3.65-3.9s1.38-4,3.62-4,3.54,1.42,3.54,3.81v.61h-5.18v.1a1.68,1.68,0,0,0,1.72,1.82,1.52,1.52,0,0,0,1.54-.78Zm-5.1-2.41h3.21a1.52,1.52,0,0,0-1.57-1.62A1.61,1.61,0,0,0,211.52,326.39Z"/>
    <path class="f" d="M218.31,323.41h1.93v1.2h.12a2,2,0,0,1,1.94-1.33,2.85,2.85,0,0,1,.78.1v1.81a3.74,3.74,0,0,0-1-.12,1.66,1.66,0,0,0-1.83,1.7V331h-2Z"/>
    <path class="f" d="M224.66,330a1.25,1.25,0,1,1,1.24,1.16A1.12,1.12,0,0,1,224.66,330Zm2.34-8.91-.19,6.62H225l-.18-6.62Z"/>
  </g>
  <use width="47.4" height="32.22" transform="translate(178.86 347.44)" xlink:href="#hg"/>
  <use width="138.32" height="140.32" transform="translate(553.62 301.26) scale(0.81)" xlink:href="#hf"/>
  <g>
    <path class="t" d="M586,396.51h-1.53v-2.38h-2.28v-1.56h2.28v-2.38H586v2.38h2.28v1.56H586Z"/>
    <path class="t" d="M590.31,394.34H592a1.4,1.4,0,0,0,1.48,1.18,1.45,1.45,0,0,0,1.51-1.55,1.42,1.42,0,0,0-1.47-1.51,1.56,1.56,0,0,0-1.45.81h-1.58l.45-5h5.28v1.45h-3.91L592,392h.11a2.06,2.06,0,0,1,1.85-.85,2.59,2.59,0,0,1,2.62,2.78,2.93,2.93,0,0,1-3.17,3A2.85,2.85,0,0,1,590.31,394.34Z"/>
    <path class="t" d="M601.18,397.3h1.69c.08.4.56.65,1.3.65.92,0,1.45-.42,1.45-1.15v-1.19h-.11a2,2,0,0,1-1.94,1c-1.61,0-2.61-1.25-2.61-3.19s1-3.28,2.64-3.28a2.13,2.13,0,0,1,2,1.14h.1v-1h1.65v6.44c0,1.52-1.23,2.48-3.18,2.48C602.42,399.2,601.28,398.44,601.18,397.3Zm4.46-3.84c0-1.14-.56-1.85-1.48-1.85s-1.45.71-1.45,1.84.52,1.85,1.45,1.85S605.64,394.6,605.64,393.46Z"/>
    <path class="t" d="M609,390.28h1.65v1h.1a1.66,1.66,0,0,1,1.66-1.13,2.51,2.51,0,0,1,.67.08v1.55a3.29,3.29,0,0,0-.81-.1,1.42,1.42,0,0,0-1.57,1.46v3.58H609Z"/>
    <path class="t" d="M613.79,394.9c0-1.17.9-1.85,2.5-1.94l1.57-.1v-.53c0-.54-.39-.84-1.09-.84s-1,.21-1.17.6H614c.11-1.2,1.21-1.95,2.83-1.95s2.68.81,2.68,2.19v4.42h-1.65v-.85h-.11a2.07,2.07,0,0,1-1.87,1A1.94,1.94,0,0,1,613.79,394.9Zm4.07-.5v-.47l-1.31.08c-.73.05-1.09.32-1.09.78s.42.77,1,.77A1.26,1.26,0,0,0,617.86,394.4Z"/>
    <path class="t" d="M621.12,388.34a1,1,0,1,1,1.93,0,1,1,0,1,1-1.93,0Zm.11,1.94h1.7v6.47h-1.7Z"/>
    <path class="t" d="M624.66,390.28h1.65v1h.1a1.92,1.92,0,0,1,1.91-1.18c1.44,0,2.21.88,2.21,2.43v4.18h-1.7V393c0-.89-.38-1.36-1.19-1.36a1.26,1.26,0,0,0-1.28,1.41v3.73h-1.7Z"/>
    <path class="t" d="M634.73,390.14c1.64,0,2.61.69,2.7,1.92h-1.58c-.08-.41-.48-.67-1.11-.67s-1.06.28-1.06.69.28.51.87.64l1.22.26c1.25.28,1.81.81,1.81,1.77,0,1.29-1.15,2.14-2.85,2.14s-2.73-.7-2.85-1.94h1.66c.13.44.55.69,1.23.69s1.12-.28,1.12-.69-.25-.51-.82-.64l-1.17-.26c-1.25-.27-1.86-.87-1.86-1.87C632,391,633.12,390.14,634.73,390.14Z"/>
  </g>
  <g>
    <path class="f" d="M596.48,331h-2.12L593,325.74h-.13L591.56,331h-2.09l-2-7.54h2l1.13,5.4h.12l1.32-5.4h1.9l1.32,5.4h.13l1.12-5.4h2Z"/>
    <path class="f" d="M599.29,328.79c0-1.37,1.05-2.16,2.92-2.27l1.83-.11v-.61c0-.63-.46-1-1.28-1s-1.19.25-1.36.7h-1.83c.13-1.39,1.41-2.27,3.3-2.27s3.13.94,3.13,2.56V331h-1.93v-1H604a2.43,2.43,0,0,1-2.19,1.1A2.25,2.25,0,0,1,599.29,328.79Zm4.75-.58v-.55l-1.53.09c-.85.06-1.27.37-1.27.91s.48.9,1.18.9A1.47,1.47,0,0,0,604,328.21Z"/>
    <path class="f" d="M610.51,321.61v1.87h1.56v1.57h-1.56v3.39c0,.65.3.95,1,.95a5,5,0,0,0,.58,0v1.51a5.23,5.23,0,0,1-1,.09c-1.84,0-2.56-.59-2.56-2.06v-3.86h-1.18v-1.57h1.18v-1.87Z"/>
    <path class="f" d="M620.4,328.8c-.29,1.41-1.6,2.31-3.44,2.31-2.3,0-3.66-1.45-3.66-3.9s1.39-4,3.63-4,3.53,1.42,3.53,3.81v.61h-5.17v.1a1.67,1.67,0,0,0,1.72,1.82,1.52,1.52,0,0,0,1.54-.78Zm-5.11-2.41h3.22a1.53,1.53,0,0,0-1.58-1.62A1.61,1.61,0,0,0,615.29,326.39Z"/>
    <path class="f" d="M622.09,323.41H624v1.2h.12a2,2,0,0,1,1.93-1.33,2.79,2.79,0,0,1,.78.1v1.81a3.65,3.65,0,0,0-.94-.12,1.65,1.65,0,0,0-1.83,1.7V331h-2Z"/>
    <path class="f" d="M628.43,330a1.25,1.25,0,1,1,1.25,1.16A1.12,1.12,0,0,1,628.43,330Zm2.34-8.91-.18,6.62h-1.83l-.18-6.62Z"/>
  </g>
  <use width="47.4" height="32.22" transform="translate(582.64 347.44)" xlink:href="#hg"/>
  <use width="138.32" height="140.32" transform="translate(672.92 301.26) scale(0.81)" xlink:href="#hf"/>
  <g>
    <path class="t" d="M701,396.51h-1.52v-2.38h-2.28v-1.56h2.28v-2.38H701v2.38h2.28v1.56H701Z"/>
    <path class="t" d="M709.23,395.22h-4.14v-1.44c1.07-1.9,2.22-3.75,3.35-5.49h2.48v5.46H712v1.47h-1.11v1.53h-1.69Zm-2.55-1.42h2.59v-4.13h-.09c-.83,1.25-1.73,2.69-2.5,4Z"/>
    <path class="t" d="M713.44,392.5c0-2.8,1.27-4.43,3.35-4.43s3.36,1.63,3.36,4.44-1.26,4.45-3.36,4.45S713.44,395.31,713.44,392.5Zm4.92,0c0-2-.6-3-1.57-3s-1.56,1-1.56,3,.6,3,1.56,3S718.36,394.51,718.36,392.5Z"/>
    <path class="t" d="M724.74,397.3h1.69c.09.4.57.65,1.3.65.92,0,1.45-.42,1.45-1.15v-1.19h-.1a2.05,2.05,0,0,1-2,1c-1.61,0-2.61-1.25-2.61-3.19s1-3.28,2.65-3.28a2.12,2.12,0,0,1,2,1.14h.1v-1h1.66v6.44c0,1.52-1.24,2.48-3.19,2.48C726,399.2,724.85,398.44,724.74,397.3Zm4.46-3.84c0-1.14-.56-1.85-1.48-1.85s-1.45.71-1.45,1.84.53,1.85,1.45,1.85S729.2,394.6,729.2,393.46Z"/>
    <path class="t" d="M732.6,390.28h1.65v1h.11a1.65,1.65,0,0,1,1.65-1.13,2.45,2.45,0,0,1,.67.08v1.55a3.22,3.22,0,0,0-.81-.1,1.42,1.42,0,0,0-1.57,1.46v3.58h-1.7Z"/>
    <path class="t" d="M737.36,394.9c0-1.17.89-1.85,2.5-1.94l1.56-.1v-.53c0-.54-.38-.84-1.09-.84s-1,.21-1.16.6H737.6c.11-1.2,1.2-1.95,2.83-1.95s2.67.81,2.67,2.19v4.42h-1.65v-.85h-.1a2.1,2.1,0,0,1-1.88,1A1.93,1.93,0,0,1,737.36,394.9Zm4.06-.5v-.47l-1.3.08c-.74.05-1.09.32-1.09.78s.41.77,1,.77A1.26,1.26,0,0,0,741.42,394.4Z"/>
    <path class="t" d="M744.68,388.34a1,1,0,1,1,1,1A1,1,0,0,1,744.68,388.34Zm.11,1.94h1.71v6.47h-1.71Z"/>
    <path class="t" d="M748.22,390.28h1.65v1H750a1.91,1.91,0,0,1,1.91-1.18c1.43,0,2.21.88,2.21,2.43v4.18h-1.71V393c0-.89-.38-1.36-1.19-1.36a1.26,1.26,0,0,0-1.28,1.41v3.73h-1.7Z"/>
    <path class="t" d="M758.29,390.14c1.64,0,2.61.69,2.7,1.92h-1.57c-.09-.41-.48-.67-1.12-.67s-1.06.28-1.06.69.28.51.88.64l1.21.26c1.25.28,1.81.81,1.81,1.77,0,1.29-1.15,2.14-2.84,2.14s-2.74-.7-2.86-1.94h1.67c.13.44.54.69,1.22.69s1.12-.28,1.12-.69-.24-.51-.81-.64l-1.18-.26c-1.25-.27-1.86-.87-1.86-1.87C755.6,391,756.68,390.14,758.29,390.14Z"/>
  </g>
  <g>
    <path class="f" d="M693.62,321.61v1.87h1.57v1.57h-1.57v3.39c0,.65.31.95,1,.95a5.16,5.16,0,0,0,.59,0v1.51a5.35,5.35,0,0,1-1,.09c-1.83,0-2.55-.59-2.55-2.06v-3.86h-1.18v-1.57h1.18v-1.87Z"/>
    <path class="f" d="M696.84,323.41h1.93v1.2h.13a1.93,1.93,0,0,1,1.93-1.33,2.85,2.85,0,0,1,.78.1v1.81a3.71,3.71,0,0,0-.94-.12,1.66,1.66,0,0,0-1.84,1.7V331h-2Z"/>
    <path class="f" d="M702.4,328.79c0-1.37,1-2.16,2.91-2.27l1.83-.11v-.61c0-.63-.45-1-1.27-1s-1.2.25-1.36.7h-1.83c.13-1.39,1.4-2.27,3.3-2.27s3.12.94,3.12,2.56V331h-1.93v-1h-.12a2.43,2.43,0,0,1-2.19,1.1A2.24,2.24,0,0,1,702.4,328.79Zm4.74-.58v-.55l-1.52.09c-.86.06-1.28.37-1.28.91s.49.9,1.18.9A1.47,1.47,0,0,0,707.14,328.21Z"/>
    <path class="f" d="M711.06,323.41H713v1.21h.13a2.24,2.24,0,0,1,2.23-1.38c1.67,0,2.57,1,2.57,2.83V331h-2v-4.41c0-1-.44-1.58-1.38-1.58a1.46,1.46,0,0,0-1.49,1.64V331h-2Z"/>
    <path class="f" d="M722.81,323.24c1.91,0,3,.8,3.15,2.24h-1.84c-.1-.48-.56-.78-1.3-.78s-1.24.32-1.24.8.33.59,1,.75l1.42.31c1.46.32,2.12.93,2.12,2.06,0,1.5-1.35,2.49-3.33,2.49s-3.19-.81-3.32-2.26h1.94c.15.51.63.8,1.43.8s1.3-.32,1.3-.8-.29-.6-.95-.74l-1.37-.31c-1.46-.32-2.17-1-2.17-2.18C719.67,324.19,720.93,323.24,722.81,323.24Z"/>
    <path class="f" d="M735.2,327.17c0,2.44-1.15,3.89-3,3.89a2.36,2.36,0,0,1-2.28-1.27h-.12v3.66h-2v-10h1.93v1.23h.12a2.47,2.47,0,0,1,2.3-1.36C734,323.28,735.2,324.73,735.2,327.17Zm-2,0c0-1.38-.65-2.22-1.7-2.22s-1.72.85-1.72,2.23.66,2.22,1.71,2.22S733.16,328.57,733.16,327.17Z"/>
    <path class="f" d="M736.89,320.53h2V331h-2Z"/>
    <path class="f" d="M740.54,328.79c0-1.37,1.05-2.16,2.92-2.27l1.82-.11v-.61c0-.63-.45-1-1.27-1s-1.19.25-1.36.7h-1.83c.13-1.39,1.41-2.27,3.3-2.27s3.13.94,3.13,2.56V331h-1.93v-1h-.12a2.43,2.43,0,0,1-2.19,1.1A2.25,2.25,0,0,1,740.54,328.79Zm4.74-.58v-.55l-1.52.09c-.85.06-1.27.37-1.27.91s.48.9,1.17.9A1.47,1.47,0,0,0,745.28,328.21Z"/>
    <path class="f" d="M749.2,323.41h1.93v1.21h.12a2.25,2.25,0,0,1,2.23-1.38c1.68,0,2.58,1,2.58,2.83V331h-2v-4.41c0-1-.45-1.58-1.39-1.58a1.47,1.47,0,0,0-1.49,1.64V331h-2Z"/>
    <path class="f" d="M760.54,321.61v1.87h1.57v1.57h-1.57v3.39c0,.65.3.95,1,.95a5.16,5.16,0,0,0,.59,0v1.51a5.43,5.43,0,0,1-1,.09c-1.83,0-2.56-.59-2.56-2.06v-3.86h-1.17v-1.57h1.17v-1.87Z"/>
    <path class="f" d="M764,330a1.25,1.25,0,1,1,1.25,1.16A1.12,1.12,0,0,1,764,330Zm2.34-8.91-.18,6.62h-1.83l-.17-6.62Z"/>
  </g>
  <use width="273.24" height="46.05" transform="translate(72.47 239.17)" xlink:href="#hu"/>
  <use width="273.24" height="46.05" transform="translate(528.69 239.17)" xlink:href="#hu"/>
  <g>
    <path class="f" d="M175.45,266.77c0-6.64,3.66-10.73,9.59-10.73,4.84,0,8.55,3.21,8.86,7.66h-4.16a4.59,4.59,0,0,0-4.7-3.9c-3.21,0-5.21,2.67-5.21,7s2,7,5.22,7a4.51,4.51,0,0,0,4.71-3.69h4.16c-.36,4.41-3.95,7.46-8.88,7.46C179.12,277.52,175.45,273.43,175.45,266.77Z"/>
    <path class="f" d="M196.68,269.18c0-5.06,2.93-8.14,7.69-8.14s7.69,3.07,7.69,8.14-2.89,8.15-7.69,8.15S196.68,274.29,196.68,269.18Zm11.14,0c0-3-1.27-4.77-3.45-4.77s-3.46,1.77-3.46,4.77,1.25,4.78,3.46,4.78S207.82,272.21,207.82,269.18Z"/>
    <path class="f" d="M215.41,261.38h4v2.49h.25a4,4,0,0,1,4-2.75,5.6,5.6,0,0,1,1.61.2v3.75a7.34,7.34,0,0,0-1.95-.25c-2.25,0-3.8,1.33-3.8,3.52V277h-4.12Z"/>
    <path class="f" d="M228.17,261.38h4v2.5h.25A4.64,4.64,0,0,1,237,261c3.47,0,5.34,2.12,5.34,5.86V277h-4.13v-9.12c0-2.15-.92-3.28-2.87-3.28s-3.09,1.34-3.09,3.4v9h-4.12Z"/>
  </g>
  <g>
    <path class="f" d="M640.61,277h-4.28V256.56h8.59c4.48,0,7.25,2.49,7.25,6.56a6,6,0,0,1-3.71,5.8l4.3,8.07h-4.84l-3.81-7.4h-3.5Zm0-10.69h3.75c2.16,0,3.42-1.16,3.42-3.13s-1.33-3.15-3.46-3.15h-3.71Z"/>
    <path class="f" d="M655.82,256.67a2.34,2.34,0,1,1,2.34,2.37A2.35,2.35,0,0,1,655.82,256.67Zm.27,4.71h4.12V277h-4.12Z"/>
    <path class="f" d="M674.34,266.88a2.9,2.9,0,0,0-3.1-2.46c-2.22,0-3.47,1.66-3.47,4.73s1.26,4.8,3.47,4.8a2.85,2.85,0,0,0,3.1-2.37h3.85c-.34,3.5-2.89,5.75-7,5.75-4.87,0-7.63-2.94-7.63-8.18s2.74-8.11,7.63-8.11c4.13,0,6.61,2.29,7,5.84Z"/>
    <path class="f" d="M695.34,272.55c-.61,2.93-3.31,4.78-7.14,4.78-4.75,0-7.56-3-7.56-8.07s2.86-8.22,7.51-8.22,7.32,2.93,7.32,7.88v1.26H684.75v.22c0,2.32,1.41,3.76,3.57,3.76,1.63,0,2.74-.58,3.18-1.61Zm-10.58-5h6.66a3.16,3.16,0,0,0-3.26-3.36A3.34,3.34,0,0,0,684.76,267.55Z"/>
  </g>
  <use width="273.24" height="46.05" transform="translate(72.47 239.17)" xlink:href="#hu"/>
  <use width="273.24" height="46.05" transform="translate(528.69 239.17)" xlink:href="#hu"/>
  <g>
    <path class="f" d="M175.45,266.77c0-6.64,3.66-10.73,9.59-10.73,4.84,0,8.55,3.21,8.86,7.66h-4.16a4.59,4.59,0,0,0-4.7-3.9c-3.21,0-5.21,2.67-5.21,7s2,7,5.22,7a4.51,4.51,0,0,0,4.71-3.69h4.16c-.36,4.41-3.95,7.46-8.88,7.46C179.12,277.52,175.45,273.43,175.45,266.77Z"/>
    <path class="f" d="M196.68,269.18c0-5.06,2.93-8.14,7.69-8.14s7.69,3.07,7.69,8.14-2.89,8.15-7.69,8.15S196.68,274.29,196.68,269.18Zm11.14,0c0-3-1.27-4.77-3.45-4.77s-3.46,1.77-3.46,4.77,1.25,4.78,3.46,4.78S207.82,272.21,207.82,269.18Z"/>
    <path class="f" d="M215.41,261.38h4v2.49h.25a4,4,0,0,1,4-2.75,5.6,5.6,0,0,1,1.61.2v3.75a7.34,7.34,0,0,0-1.95-.25c-2.25,0-3.8,1.33-3.8,3.52V277h-4.12Z"/>
    <path class="f" d="M228.17,261.38h4v2.5h.25A4.64,4.64,0,0,1,237,261c3.47,0,5.34,2.12,5.34,5.86V277h-4.13v-9.12c0-2.15-.92-3.28-2.87-3.28s-3.09,1.34-3.09,3.4v9h-4.12Z"/>
  </g>
  <g>
    <path class="f" d="M640.61,277h-4.28V256.56h8.59c4.48,0,7.25,2.49,7.25,6.56a6,6,0,0,1-3.71,5.8l4.3,8.07h-4.84l-3.81-7.4h-3.5Zm0-10.69h3.75c2.16,0,3.42-1.16,3.42-3.13s-1.33-3.15-3.46-3.15h-3.71Z"/>
    <path class="f" d="M655.82,256.67a2.34,2.34,0,1,1,2.34,2.37A2.35,2.35,0,0,1,655.82,256.67Zm.27,4.71h4.12V277h-4.12Z"/>
    <path class="f" d="M674.34,266.88a2.9,2.9,0,0,0-3.1-2.46c-2.22,0-3.47,1.66-3.47,4.73s1.26,4.8,3.47,4.8a2.85,2.85,0,0,0,3.1-2.37h3.85c-.34,3.5-2.89,5.75-7,5.75-4.87,0-7.63-2.94-7.63-8.18s2.74-8.11,7.63-8.11c4.13,0,6.61,2.29,7,5.84Z"/>
    <path class="f" d="M695.34,272.55c-.61,2.93-3.31,4.78-7.14,4.78-4.75,0-7.56-3-7.56-8.07s2.86-8.22,7.51-8.22,7.32,2.93,7.32,7.88v1.26H684.75v.22c0,2.32,1.41,3.76,3.57,3.76,1.63,0,2.74-.58,3.18-1.61Zm-10.58-5h6.66a3.16,3.16,0,0,0-3.26-3.36A3.34,3.34,0,0,0,684.76,267.55Z"/>
  </g>
  <g>
    <path class="m" d="M724.16,378.29c-3.79,0-5,1.19-4.54,2.19s6.2,2.6,7.45,2.7a49.58,49.58,0,0,0,9.47-.51s9.11-1.81,5.39-3.3-9.63-.76-12.15-.67S728,378.25,724.16,378.29Z"/>
    <path class="o" d="M725.5,378.85c-1.87,0-2.49.72-2.25,1.31s3,1.59,3.66,1.6,4.68-.33,4.68-.33,4.5-1.09,2.67-2-4.75-.44-6-.38S727.37,378.82,725.5,378.85Z"/>
    <path class="p" d="M728,379.48a48.64,48.64,0,0,1-.32-11.35c0-.53.05-1.06.07-1.58.19-4.08.25-8.41-1.19-12.66-1.53-4.56-8.47-11.5-8.47-11.5s8.53,6.44,10.17,11.3c1.48,4.41,1.42,8.84,1.24,13,0,.53-.05,1.06-.08,1.59a49.35,49.35,0,0,0,.31,11.25,4.82,4.82,0,0,1-.87.14A2.23,2.23,0,0,1,728,379.48Z"/>
    <path class="q" d="M731.8,380.3c1.74-12.07-7-36.31-7-36.31s6.35,24.24,4.63,36.18a5.07,5.07,0,0,0,1.22.26A2.66,2.66,0,0,0,731.8,380.3Z"/>
    <path class="n" d="M729.61,380.68a62,62,0,0,0-5.44-15.85,46.47,46.47,0,0,0-11.58-14.05s11.35,9.29,13.6,13.79a63.68,63.68,0,0,1,5.49,16.2,6,6,0,0,1-1,.12A1.82,1.82,0,0,1,729.61,380.68Z"/>
    <g>
      <path class="s" d="M740.27,357A16.1,16.1,0,0,1,743,368.68"/>
      <polygon class="d" points="740.26 367 741.76 372.8 746.03 368.6 740.26 367"/>
    </g>
  </g>
</svg>
