<svg xmlns="http://www.w3.org/2000/svg" viewBox="0 0 900 325"><defs><style>.a{fill:#4a4a4a;}.b{fill:#fff;}.c{fill:#b2b2b2;}.d{fill:#4b4b4b;}.e{fill:#eceaff;}.f{fill:#7e73ff;}.g{fill:none;stroke:#7e73ff;stroke-miterlimit:10;stroke-width:3px;}</style></defs><rect class="a" y="171.24" width="536.96" height="138.77"/><rect class="a" x="558.88" y="171.24" width="341.12" height="138.77"/><rect class="b" x="273.49" y="24" width="39.36" height="39.36" rx="9"/><path class="c" d="M303.86,24h-3a1.5,1.5,0,0,0,0,3h3a1.5,1.5,0,0,0,0-3Zm-13,0h-3a1.5,1.5,0,0,0,0,3h3a1.5,1.5,0,0,0,0-3ZM278.8,25a1.54,1.54,0,0,0-.74.19l-.44.27h0l0,0h0l0,0H276.2v0h-.11l0,0h0l0,0h0l0,0h0l0,0h0l0,0h0l-.16.18a1.49,1.49,0,0,0,1.13,2.49A1.49,1.49,0,0,0,278,29a6.49,6.49,0,0,1,1.55-1.26,1.5,1.5,0,0,0-.74-2.8ZM275,35a1.5,1.5,0,0,0-1.5,1.5v3a1.5,1.5,0,0,0,3,0v-3A1.5,1.5,0,0,0,275,35Zm0,13a1.5,1.5,0,0,0-1.5,1.5v3a1.5,1.5,0,0,0,3,0v-3A1.5,1.5,0,0,0,275,48Zm2.86,10.76a1.46,1.46,0,0,0-1.17.57,1.48,1.48,0,0,0,.24,2.1,8.86,8.86,0,0,0,2.63,1.44A1.34,1.34,0,0,0,280,63a1.5,1.5,0,0,0,.5-2.92,6,6,0,0,1-1.75-1,1.46,1.46,0,0,0-.93-.32Zm14.64,1.6h-3a1.5,1.5,0,0,0,0,3h3a1.5,1.5,0,0,0,0-3Zm12.72-.12a1.24,1.24,0,0,0-.27,0,6.47,6.47,0,0,1-1.08.09h-1.37a1.5,1.5,0,0,0,0,3h1.76a8.27,8.27,0,0,0,1.23-.13,1.5,1.5,0,0,0-.27-3Zm6.15-7.87a1.5,1.5,0,0,0-1.5,1.5v.49a6.16,6.16,0,0,1-.23,1.66,1.49,1.49,0,0,0,1,1.85,1.45,1.45,0,0,0,.41.06,1.5,1.5,0,0,0,1.44-1.09h0a8.31,8.31,0,0,0,.33-1.88h0v0h0v0h0v0h0v0h0v0h0v0h0v0h0v0h0v0h0v0h0v0h0v-.49a1.5,1.5,0,0,0-1.5-1.5Zm0-13a1.5,1.5,0,0,0-1.5,1.5v3a1.5,1.5,0,1,0,3,0v-3a1.5,1.5,0,0,0-1.5-1.5Zm-1.19-11.92a1.55,1.55,0,0,0-.81.24,1.5,1.5,0,0,0-.45,2.07,5.92,5.92,0,0,1,.78,1.83,1.5,1.5,0,0,0,1.46,1.15,1.39,1.39,0,0,0,.35,0,1.51,1.51,0,0,0,1.11-1.81c-.05-.2-.11-.41-.17-.61h0v0h0v0h0v0h0v0h-.13v0h0v0h-.07v0H312v0h0v0h0v0h0l0,0h0v0h0c-.16-.31-.33-.62-.51-.91a1.52,1.52,0,0,0-1.27-.69Z"/><path class="d" d="M356.92,36.6l-6.22,1.75a4.81,4.81,0,0,0-1.45-2.67,5,5,0,0,0-3.72-1.23,4.62,4.62,0,0,0-3.07,1,3,3,0,0,0-1.18,2.34q0,2.41,3.07,3l4.16.79a11.54,11.54,0,0,1,6.64,3.35,8.59,8.59,0,0,1,2.34,6,9.21,9.21,0,0,1-3.11,6.86A11.64,11.64,0,0,1,346,60.69q-5.86,0-9.09-3a10.89,10.89,0,0,1-3.61-6.9l6.35-1.53a5.86,5.86,0,0,0,1.82,3.83,6.46,6.46,0,0,0,4.62,1.51,5.17,5.17,0,0,0,3.2-.9,2.8,2.8,0,0,0,1.18-2.34,2.58,2.58,0,0,0-.88-2,4.86,4.86,0,0,0-2.45-1.12l-4.25-.79a10.89,10.89,0,0,1-6.2-3.2,8.42,8.42,0,0,1-2.25-5.91,9.06,9.06,0,0,1,3.28-7.14,11.58,11.58,0,0,1,7.84-2.85,14.75,14.75,0,0,1,4.93.77,9,9,0,0,1,3.44,2,11.27,11.27,0,0,1,2,2.62A9.55,9.55,0,0,1,356.92,36.6Z"/><path class="d" d="M375.54,60a10.41,10.41,0,0,1-.18-2.19,4.91,4.91,0,0,1-2.41,2,8.79,8.79,0,0,1-3.41.68,7.79,7.79,0,0,1-6.07-2.43A8.66,8.66,0,0,1,361.26,52V38.26h6.66V50.62a4.1,4.1,0,0,0,.89,2.72,3.25,3.25,0,0,0,2.61,1,3.52,3.52,0,0,0,2.65-1,3.74,3.74,0,0,0,1-2.7V38.26h6.65V56.14a32.89,32.89,0,0,0,.22,3.9Z"/><path class="d" d="M394,60h-6.44V28.32h6.53v12a5.6,5.6,0,0,1,2.46-1.84,9.61,9.61,0,0,1,3.85-.74,9.23,9.23,0,0,1,7.38,3.18,12,12,0,0,1,2.74,8.17,11.78,11.78,0,0,1-2.91,8.21,9.63,9.63,0,0,1-7.47,3.22,8.25,8.25,0,0,1-3.73-.81A5.68,5.68,0,0,1,394,57.58Zm9.86-10.91a5.4,5.4,0,0,0-1.4-4A4.8,4.8,0,0,0,399,43.74a4.86,4.86,0,0,0-3.52,1.38,5.34,5.34,0,0,0-1.43,4,5.4,5.4,0,0,0,1.45,4,4.79,4.79,0,0,0,3.5,1.42,4.74,4.74,0,0,0,3.49-1.42A5.42,5.42,0,0,0,403.88,49.13Z"/><path class="d" d="M413,53.86l5.65-1a3.17,3.17,0,0,0,.94,2.08,3.34,3.34,0,0,0,2.47.86,2.86,2.86,0,0,0,1.89-.55,1.66,1.66,0,0,0,.65-1.34c0-.87-.71-1.47-2.14-1.79l-2.5-.57a8.79,8.79,0,0,1-4.91-2.48,6.14,6.14,0,0,1-1.57-4.22,6.56,6.56,0,0,1,2.39-5.13,8.7,8.7,0,0,1,6-2.1c2.84,0,5,.68,6.38,2a7,7,0,0,1,2.34,4.45l-5.52,1A2.83,2.83,0,0,0,422,42.43a2.67,2.67,0,0,0-1.66.52,1.63,1.63,0,0,0-.7,1.36q0,1.32,1.71,1.62l2.89.57a9,9,0,0,1,5,2.5,6.15,6.15,0,0,1,1.71,4.34,6.93,6.93,0,0,1-2.28,5.19,8.92,8.92,0,0,1-6.39,2.16A12.08,12.08,0,0,1,418,60a6.81,6.81,0,0,1-2.84-1.82A8.86,8.86,0,0,1,413.63,56,6.07,6.07,0,0,1,413,53.86Z"/><path class="d" d="M445.23,43.74a4.79,4.79,0,0,0-3.57,1.45,5.41,5.41,0,0,0-1.42,4,5.3,5.3,0,0,0,1.47,3.95,5,5,0,0,0,3.61,1.44,4.47,4.47,0,0,0,4.51-3.24l5.87,1.8a10,10,0,0,1-3.52,5.34,10.5,10.5,0,0,1-6.86,2.23,11.5,11.5,0,0,1-8.3-3.26,11,11,0,0,1-3.4-8.26A11.23,11.23,0,0,1,445.1,37.61a10.76,10.76,0,0,1,7,2.19,9.75,9.75,0,0,1,3.5,5.39l-6,1.79a4.57,4.57,0,0,0-1.49-2.32A4.35,4.35,0,0,0,445.23,43.74Z"/><path class="d" d="M473.62,38.26v6.58a8.85,8.85,0,0,0-2.1-.22,4.93,4.93,0,0,0-3.66,1.44,6.17,6.17,0,0,0-1.42,4.47V60h-6.66V38.26h6.44V41.2a4.82,4.82,0,0,1,2.4-2.41,7.72,7.72,0,0,1,3.25-.74A6.51,6.51,0,0,1,473.62,38.26Z"/><path class="d" d="M478.22,34.37a3.91,3.91,0,0,1,0-5.52,3.7,3.7,0,0,1,2.71-1.14,3.86,3.86,0,0,1,2.79,1.14,3.86,3.86,0,0,1,0,5.52,3.85,3.85,0,0,1-2.79,1.13A3.69,3.69,0,0,1,478.22,34.37ZM484.31,60h-6.66V38.26h6.66Z"/><path class="d" d="M496.57,60h-6.44V28.32h6.53v12a5.57,5.57,0,0,1,2.45-1.84,9.7,9.7,0,0,1,3.86-.74,9.25,9.25,0,0,1,7.38,3.18,12.08,12.08,0,0,1,2.74,8.17,11.74,11.74,0,0,1-2.92,8.21,9.6,9.6,0,0,1-7.46,3.22,8.22,8.22,0,0,1-3.73-.81,5.68,5.68,0,0,1-2.41-2.13Zm9.86-10.91a5.4,5.4,0,0,0-1.4-4,5.17,5.17,0,0,0-7,0,5.34,5.34,0,0,0-1.43,4,5.36,5.36,0,0,0,1.45,4,4.79,4.79,0,0,0,3.5,1.42A4.74,4.74,0,0,0,505,53.14,5.47,5.47,0,0,0,506.43,49.13Z"/><path class="d" d="M531.62,52.2l5.56,1.57a9,9,0,0,1-3.46,5,10.71,10.71,0,0,1-6.57,1.95,11.06,11.06,0,0,1-11.35-11.6A11.18,11.18,0,0,1,519,40.81a10.47,10.47,0,0,1,7.65-3.2,10.68,10.68,0,0,1,8,3c1.94,2,2.92,4.7,2.92,8.21a8.83,8.83,0,0,1-.14,2.06H522.29a4,4,0,0,0,1.53,3,5.17,5.17,0,0,0,3.42,1.2Q530.62,55,531.62,52.2Zm-9.2-5.66h8.72A3.91,3.91,0,0,0,530,44a4.3,4.3,0,0,0-3.22-1.09A4.17,4.17,0,0,0,523.69,44,4.1,4.1,0,0,0,522.42,46.54Z"/><rect class="e" x="112.29" y="194.97" width="170.95" height="29.49"/><rect class="e" x="589.68" y="179.68" width="102.98" height="29.49"/><path class="b" d="M44.54,210.1v.1l7.69,3.37v1.83L42.44,211v-1.54L52.23,205v1.83Z"/><path class="b" d="M55.4,201.73a1.22,1.22,0,1,1,1.22,1.21A1.22,1.22,0,0,1,55.4,201.73Zm.35,3.32h1.74V216H55.75Z"/><path class="b" d="M60.81,205.05h1.67v1.72h.16a3.28,3.28,0,0,1,3.28-1.91c2.45,0,3.82,1.44,3.82,4V216H68v-6.65c0-2-.83-2.89-2.58-2.89a2.76,2.76,0,0,0-2.86,3.08V216H60.81Z"/><path class="b" d="M82.83,210.51c0,3.41-1.81,5.65-4.59,5.65a3.67,3.67,0,0,1-3.41-1.83h-.16v5.29H72.92V205.05h1.66v1.82h.17a3.94,3.94,0,0,1,3.49-2C81,204.86,82.83,207.08,82.83,210.51Zm-1.8,0c0-2.55-1.2-4.08-3.19-4.08s-3.22,1.57-3.22,4.08,1.24,4.08,3.21,4.08S81,213.06,81,210.51Z"/><path class="b" d="M94.41,216H92.74v-1.71h-.16a3.41,3.41,0,0,1-3.38,1.9c-2.45,0-3.73-1.46-3.73-4v-7.07h1.74v6.65c0,2,.73,2.87,2.47,2.87a2.74,2.74,0,0,0,3-3.06v-6.46h1.75Z"/><path class="b" d="M100.16,202.22v2.83h2.43v1.46h-2.43v6.18c0,1.28.49,1.83,1.62,1.83a7.32,7.32,0,0,0,.81,0V216a5.87,5.87,0,0,1-1,.1c-2.25,0-3.15-.83-3.15-2.92v-6.62H96.66v-1.46h1.76v-2.83Z"/><path class="f" d="M121.45,208.25a2.28,2.28,0,0,0-1.7.69,2.54,2.54,0,0,0-.67,1.88,2.51,2.51,0,0,0,.69,1.87,2.36,2.36,0,0,0,1.72.69,2.12,2.12,0,0,0,2.13-1.54l2.79.85a4.7,4.7,0,0,1-1.68,2.53,4.92,4.92,0,0,1-3.24,1.06,5.49,5.49,0,0,1-3.94-1.54,5.21,5.21,0,0,1-1.6-3.92,5.32,5.32,0,0,1,5.43-5.48,5.09,5.09,0,0,1,3.3,1,4.69,4.69,0,0,1,1.66,2.56l-2.82.85a2.09,2.09,0,0,0-.71-1.1A2,2,0,0,0,121.45,208.25Z"/><path class="f" d="M131.49,216h-3.15V201h3.15Z"/><path class="f" d="M133.54,213.13a2.76,2.76,0,0,1,.86-2.11,4,4,0,0,1,2.2-1l2.42-.37c.5-.07.75-.3.75-.7a1,1,0,0,0-.4-.8,1.71,1.71,0,0,0-1.11-.33,1.74,1.74,0,0,0-1.26.45,1.62,1.62,0,0,0-.51,1.07l-2.74-.56a3.6,3.6,0,0,1,1.28-2.36,5.65,5.65,0,0,1,6.7.06,3.88,3.88,0,0,1,1.11,2.86v5A7.8,7.8,0,0,0,143,216h-2.85a5,5,0,0,1-.1-1.16,3.15,3.15,0,0,1-2.91,1.45,3.62,3.62,0,0,1-2.6-.92A3,3,0,0,1,133.54,213.13Zm4.34.85a2,2,0,0,0,1.35-.48,2,2,0,0,0,.54-1.58v-.45l-2,.31c-.78.12-1.16.5-1.16,1.14a1.05,1.05,0,0,0,.3.75A1.22,1.22,0,0,0,137.88,214Z"/><path class="f" d="M144.65,213l2.67-.47a1.5,1.5,0,0,0,.45,1,1.59,1.59,0,0,0,1.17.41,1.4,1.4,0,0,0,.9-.26.82.82,0,0,0,.31-.63c0-.42-.34-.7-1-.86l-1.18-.27a4.18,4.18,0,0,1-2.33-1.17,2.9,2.9,0,0,1-.74-2,3.1,3.1,0,0,1,1.13-2.43,4.15,4.15,0,0,1,2.83-1,4.23,4.23,0,0,1,3,1,3.33,3.33,0,0,1,1.11,2.11l-2.62.47a1.33,1.33,0,0,0-1.47-1.26,1.26,1.26,0,0,0-.79.25.76.76,0,0,0-.33.64c0,.42.27.67.81.77l1.37.27a4.3,4.3,0,0,1,2.37,1.18,2.92,2.92,0,0,1,.8,2.06,3.28,3.28,0,0,1-1.07,2.45,4.2,4.2,0,0,1-3,1,5.76,5.76,0,0,1-2-.33,3.31,3.31,0,0,1-1.35-.86,4.27,4.27,0,0,1-.7-1.05A3,3,0,0,1,144.65,213Z"/><path class="f" d="M154.32,213l2.68-.47a1.44,1.44,0,0,0,.44,1,1.59,1.59,0,0,0,1.17.41,1.4,1.4,0,0,0,.9-.26.82.82,0,0,0,.31-.63c0-.42-.34-.7-1-.86l-1.18-.27a4.18,4.18,0,0,1-2.33-1.17,3,3,0,0,1-.74-2,3.1,3.1,0,0,1,1.13-2.43,4.15,4.15,0,0,1,2.83-1,4.23,4.23,0,0,1,3,1,3.33,3.33,0,0,1,1.11,2.11l-2.61.47a1.53,1.53,0,0,0-.43-.91,1.46,1.46,0,0,0-1-.35,1.26,1.26,0,0,0-.79.25.76.76,0,0,0-.33.64c0,.42.27.67.81.77l1.37.27a4.3,4.3,0,0,1,2.37,1.18,2.93,2.93,0,0,1,.81,2.06,3.26,3.26,0,0,1-1.08,2.45,4.2,4.2,0,0,1-3,1,5.8,5.8,0,0,1-2-.33,3.38,3.38,0,0,1-1.35-.86,4.27,4.27,0,0,1-.7-1.05A3,3,0,0,1,154.32,213Z"/><path class="f" d="M174.88,208.94H164.61V206.4h10.27Zm0,4.17H164.61v-2.53h10.27Z"/><path class="f" d="M176.69,202.75a1.5,1.5,0,0,1,.5-1.13,1.81,1.81,0,0,1,1.29-.47,1.75,1.75,0,0,1,1.4.63,2.19,2.19,0,0,1,.53,1.47,3.72,3.72,0,0,1-1.06,2.89,3.87,3.87,0,0,1-2.35,1.07v-1.39a2.19,2.19,0,0,0,1.16-.48,1.6,1.6,0,0,0,.61-1.12,1,1,0,0,1-.46.11,1.56,1.56,0,0,1-1.18-.45A1.54,1.54,0,0,1,176.69,202.75Zm4.32,0a1.49,1.49,0,0,1,.49-1.13,1.84,1.84,0,0,1,1.29-.47,1.7,1.7,0,0,1,1.39.63,2.19,2.19,0,0,1,.52,1.47,3.72,3.72,0,0,1-1,2.89,3.8,3.8,0,0,1-2.33,1.07v-1.39a2.22,2.22,0,0,0,1.16-.48,1.55,1.55,0,0,0,.6-1.12,1,1,0,0,1-.45.11,1.58,1.58,0,0,1-1.19-.45A1.53,1.53,0,0,1,181,202.75Z"/><path class="f" d="M189.43,216h-3.15V205.66h3v1.18a2.75,2.75,0,0,1,1.23-1.08,3.94,3.94,0,0,1,1.74-.42,3.12,3.12,0,0,1,3.05,1.62,3.64,3.64,0,0,1,3.19-1.62,3.91,3.91,0,0,1,2.72,1,3.78,3.78,0,0,1,1.1,3V216h-3v-6a1.88,1.88,0,0,0-.41-1.25,1.52,1.52,0,0,0-1.23-.49,1.6,1.6,0,0,0-1.27.52,1.84,1.84,0,0,0-.45,1.24v6H192.8v-6a1.84,1.84,0,0,0-.43-1.25,1.53,1.53,0,0,0-1.23-.49,1.56,1.56,0,0,0-1.25.52,1.89,1.89,0,0,0-.46,1.27Z"/><path class="f" d="M208.73,219.93h-3.32l2.35-5.35-4.34-8.92H207l2.51,5.52,2.28-5.52h3.34Z"/><path class="f" d="M221.85,211.14h-6.23v-2.85h6.23Z"/><path class="f" d="M228.93,208.25a2.26,2.26,0,0,0-1.69.69,2.55,2.55,0,0,0-.68,1.88,2.47,2.47,0,0,0,.7,1.87,2.32,2.32,0,0,0,1.71.69,2.14,2.14,0,0,0,1.4-.45,2.18,2.18,0,0,0,.74-1.09l2.78.85a4.74,4.74,0,0,1-1.67,2.53,5,5,0,0,1-3.25,1.06,5.45,5.45,0,0,1-3.93-1.54,5.18,5.18,0,0,1-1.61-3.92,5.32,5.32,0,0,1,5.43-5.48,5.12,5.12,0,0,1,3.31,1,4.74,4.74,0,0,1,1.66,2.56l-2.83.85a2.14,2.14,0,0,0-.7-1.1A2.09,2.09,0,0,0,228.93,208.25Z"/><path class="f" d="M239,216h-3.15V201H239Z"/><path class="f" d="M241,213.13a2.75,2.75,0,0,1,.85-2.11,4,4,0,0,1,2.2-1l2.43-.37c.49-.07.74-.3.74-.7a1,1,0,0,0-.4-.8,1.71,1.71,0,0,0-1.11-.33,1.74,1.74,0,0,0-1.26.45,1.62,1.62,0,0,0-.51,1.07l-2.74-.56a3.6,3.6,0,0,1,1.28-2.36,5.65,5.65,0,0,1,6.7.06,3.88,3.88,0,0,1,1.11,2.86v5a8.58,8.58,0,0,0,.13,1.6h-2.84a4.93,4.93,0,0,1-.11-1.16,3.13,3.13,0,0,1-2.9,1.45,3.65,3.65,0,0,1-2.61-.92A3,3,0,0,1,241,213.13Zm4.33.85a2,2,0,0,0,1.35-.48,2,2,0,0,0,.54-1.58v-.45l-1.95.31c-.77.12-1.16.5-1.16,1.14a1.05,1.05,0,0,0,.3.75A1.22,1.22,0,0,0,245.36,214Z"/><path class="f" d="M252.13,213l2.68-.47a1.44,1.44,0,0,0,.44,1,1.6,1.6,0,0,0,1.18.41,1.39,1.39,0,0,0,.89-.26.79.79,0,0,0,.31-.63c0-.42-.34-.7-1-.86l-1.18-.27a4.18,4.18,0,0,1-2.33-1.17,3,3,0,0,1-.74-2,3.1,3.1,0,0,1,1.13-2.43,4.15,4.15,0,0,1,2.83-1,4.23,4.23,0,0,1,3,1,3.33,3.33,0,0,1,1.11,2.11l-2.61.47a1.34,1.34,0,0,0-1.48-1.26,1.28,1.28,0,0,0-.79.25.76.76,0,0,0-.33.64c0,.42.27.67.81.77l1.37.27a4.3,4.3,0,0,1,2.37,1.18,2.93,2.93,0,0,1,.81,2.06,3.26,3.26,0,0,1-1.08,2.45,4.2,4.2,0,0,1-3,1,5.8,5.8,0,0,1-2-.33,3.34,3.34,0,0,1-1.34-.86,4.05,4.05,0,0,1-.71-1.05A3,3,0,0,1,252.13,213Z"/><path class="f" d="M261.8,213l2.68-.47a1.44,1.44,0,0,0,.44,1,1.6,1.6,0,0,0,1.18.41,1.39,1.39,0,0,0,.89-.26.79.79,0,0,0,.31-.63c0-.42-.34-.7-1-.86l-1.18-.27a4.12,4.12,0,0,1-2.32-1.17,2.91,2.91,0,0,1-.75-2,3.13,3.13,0,0,1,1.13-2.43,4.15,4.15,0,0,1,2.83-1,4.23,4.23,0,0,1,3,1,3.33,3.33,0,0,1,1.11,2.11l-2.61.47a1.34,1.34,0,0,0-1.48-1.26,1.23,1.23,0,0,0-.78.25.75.75,0,0,0-.34.64c0,.42.27.67.81.77l1.37.27a4.3,4.3,0,0,1,2.37,1.18,2.93,2.93,0,0,1,.81,2.06,3.26,3.26,0,0,1-1.08,2.45,4.2,4.2,0,0,1-3,1,5.7,5.7,0,0,1-2-.33,3.31,3.31,0,0,1-1.35-.86,4.05,4.05,0,0,1-.71-1.05A3,3,0,0,1,261.8,213Z"/><path class="f" d="M271.37,202.75a1.47,1.47,0,0,1,.5-1.13,1.8,1.8,0,0,1,1.28-.47,1.73,1.73,0,0,1,1.4.63,2.14,2.14,0,0,1,.53,1.47,3.69,3.69,0,0,1-1.06,2.89,3.82,3.82,0,0,1-2.34,1.07v-1.39a2.22,2.22,0,0,0,1.16-.48,1.55,1.55,0,0,0,.6-1.12,1,1,0,0,1-.45.11,1.58,1.58,0,0,1-1.19-.45A1.53,1.53,0,0,1,271.37,202.75Zm4.31,0a1.5,1.5,0,0,1,.5-1.13,1.81,1.81,0,0,1,1.29-.47,1.71,1.71,0,0,1,1.39.63,2.19,2.19,0,0,1,.52,1.47,3.72,3.72,0,0,1-1.05,2.89,3.82,3.82,0,0,1-2.33,1.07v-1.39a2.22,2.22,0,0,0,1.16-.48,1.55,1.55,0,0,0,.6-1.12,1,1,0,0,1-.46.11,1.56,1.56,0,0,1-1.18-.45A1.54,1.54,0,0,1,275.68,202.75Z"/><path class="b" d="M295.1,202.22v2.83h2.43v1.46H295.1v6.18c0,1.28.48,1.83,1.62,1.83a7.44,7.44,0,0,0,.81,0V216a5.87,5.87,0,0,1-1,.1c-2.25,0-3.15-.83-3.15-2.92v-6.62h-1.77v-1.46h1.77v-2.83Z"/><path class="b" d="M300.32,219.86v-1.49a4.19,4.19,0,0,0,.73,0c1,0,1.55-.47,2-1.79l.2-.65-4-10.93h1.89l3,9h.16l3-9h1.85l-4.26,11.59c-.94,2.53-1.81,3.28-3.74,3.28A5.12,5.12,0,0,1,300.32,219.86Z"/><path class="b" d="M321.34,210.51c0,3.41-1.81,5.65-4.59,5.65a3.67,3.67,0,0,1-3.41-1.83h-.16v5.29h-1.75V205.05h1.66v1.82h.17a3.94,3.94,0,0,1,3.49-2C319.54,204.86,321.34,207.08,321.34,210.51Zm-1.8,0c0-2.55-1.2-4.08-3.19-4.08s-3.22,1.57-3.22,4.08,1.24,4.08,3.21,4.08S319.54,213.06,319.54,210.51Z"/><path class="b" d="M333.06,213.14c-.51,1.87-2.21,3-4.6,3-3,0-4.93-2.19-4.93-5.64s1.93-5.66,4.93-5.66,4.74,2.09,4.74,5.49V211h-7.85v.08c.09,2.16,1.29,3.52,3.15,3.52a2.8,2.8,0,0,0,2.81-1.48Zm-7.71-3.53h6c-.05-1.94-1.2-3.21-2.93-3.21A3.1,3.1,0,0,0,325.35,209.61Z"/><path class="b" d="M336.33,208.79v-1.56h9.38v1.56Zm0,4.38v-1.56h9.38v1.56Z"/><path class="b" d="M349.57,206.81v-5.46h1.62v5.46Zm3.82,0v-5.46H355v5.46Z"/><path class="b" d="M365.74,208.39a2.72,2.72,0,0,0-2.82-2c-2,0-3.2,1.57-3.2,4s1.26,4.12,3.2,4.12a2.64,2.64,0,0,0,2.82-1.91h1.76c-.31,2-1.94,3.48-4.57,3.48-3.06,0-5-2.22-5-5.69s1.94-5.61,5-5.61a4.28,4.28,0,0,1,4.58,3.53Z"/><path class="b" d="M370.18,200.71h1.74v6.06h.16a3.41,3.41,0,0,1,3.37-1.91c2.31,0,3.77,1.48,3.77,4V216h-1.75v-6.65c0-1.93-.87-2.89-2.52-2.89a2.82,2.82,0,0,0-3,3.08V216h-1.74Z"/><path class="b" d="M391.38,213.14c-.51,1.87-2.21,3-4.6,3-3,0-4.93-2.19-4.93-5.64s1.93-5.66,4.93-5.66,4.74,2.09,4.74,5.49V211h-7.85v.08c.09,2.16,1.29,3.52,3.15,3.52a2.8,2.8,0,0,0,2.81-1.48Zm-7.71-3.53h6c0-1.94-1.19-3.21-2.92-3.21A3.1,3.1,0,0,0,383.67,209.61Z"/><path class="b" d="M401.53,208.39a2.71,2.71,0,0,0-2.82-2c-2,0-3.2,1.57-3.2,4s1.26,4.12,3.2,4.12a2.63,2.63,0,0,0,2.82-1.91h1.76c-.31,2-1.94,3.48-4.57,3.48-3.06,0-5-2.22-5-5.69s1.94-5.61,5-5.61a4.28,4.28,0,0,1,4.58,3.53Z"/><path class="b" d="M412.62,205.05h2.13l-4.7,4.68,5,6.24h-2.22l-4.09-5.12-1.05,1V216H406V200.71h1.74v9.11h.16Z"/><path class="b" d="M419.06,214.23h-.16V216h-1.66V200.71H419v6.06h.16a3.79,3.79,0,0,1,3.43-1.91c2.77,0,4.58,2.22,4.58,5.65s-1.82,5.65-4.58,5.65A3.93,3.93,0,0,1,419.06,214.23Zm-.12-3.72c0,2.52,1.24,4.08,3.22,4.08s3.18-1.53,3.18-4.08-1.18-4.08-3.18-4.08S418.94,208,418.94,210.51Z"/><path class="b" d="M429.34,210.51c0-3.52,1.92-5.65,5-5.65s5,2.13,5,5.65-1.93,5.65-5,5.65S429.34,214,429.34,210.51Zm8.27,0c0-2.59-1.17-4.08-3.24-4.08s-3.23,1.49-3.23,4.08,1.17,4.08,3.23,4.08S437.61,213.09,437.61,210.51Z"/><path class="b" d="M445.34,211.88l-2.6,4.12h-2l3.74-5.46-3.78-5.46h2.08l2.59,4.06h.16l2.56-4.06h2l-3.71,5.39,3.76,5.53h-2.07l-2.58-4.12Z"/><path class="b" d="M452.7,206.81v-5.46h1.62v5.46Zm3.82,0v-5.46h1.62v5.46Z"/><path class="b" d="M467.7,215.52a2,2,0,0,1-.62-1.5,2.13,2.13,0,0,1,2.11-2.12,2.09,2.09,0,0,1,1.51.63,2,2,0,0,1,.63,1.49,2,2,0,0,1-.63,1.49,2.07,2.07,0,0,1-1.51.65A2,2,0,0,1,467.7,215.52Z"/><path class="b" d="M474.48,215.52a2.08,2.08,0,0,1-.62-1.5,2.15,2.15,0,1,1,.62,1.5Z"/><path class="b" d="M481.27,215.52a2.08,2.08,0,0,1-.62-1.5,2.11,2.11,0,0,1,3.62-1.49,2,2,0,0,1,.63,1.49,2.19,2.19,0,0,1-2.14,2.14A2,2,0,0,1,481.27,215.52Z"/><path class="b" d="M495.69,210.31v-.09L488,206.84V205l9.79,4.42V211L488,215.4v-1.83Z"/><path class="b" d="M44.54,248.1v.1l7.69,3.37v1.83L42.44,249v-1.54L52.23,243v1.83Z"/><path class="b" d="M55.81,238.71h1.74V254H55.81Z"/><path class="b" d="M60.29,250.91c0-1.95,1.44-3.08,4-3.23l3.15-.19v-1c0-1.34-.84-2.08-2.47-2.08-1.31,0-2.22.49-2.46,1.35H60.72c.24-1.75,2-2.9,4.29-2.9,2.66,0,4.15,1.36,4.15,3.63V254H67.5v-1.61h-.16a3.77,3.77,0,0,1-3.37,1.8C61.86,254.16,60.29,252.91,60.29,250.91Zm7.13-1v-1l-2.94.2c-1.66.11-2.39.69-2.39,1.78s.94,1.76,2.21,1.76A2.87,2.87,0,0,0,67.42,249.9Z"/><path class="b" d="M74.31,252.23h-.16V254H72.49V238.71h1.74v6.06h.16a3.79,3.79,0,0,1,3.43-1.91c2.77,0,4.58,2.22,4.58,5.65s-1.82,5.65-4.58,5.65A3.93,3.93,0,0,1,74.31,252.23Zm-.12-3.72c0,2.52,1.24,4.08,3.22,4.08s3.18-1.53,3.18-4.08-1.18-4.08-3.18-4.08S74.19,246,74.19,248.51Z"/><path class="b" d="M94.11,251.14c-.51,1.87-2.21,3-4.6,3-3,0-4.92-2.19-4.92-5.64s1.92-5.66,4.92-5.66,4.74,2.09,4.74,5.49V249H86.4v.08c.09,2.16,1.3,3.52,3.15,3.52a2.83,2.83,0,0,0,2.82-1.48Zm-7.71-3.53h6c0-1.94-1.2-3.21-2.93-3.21A3.11,3.11,0,0,0,86.4,247.61Z"/><path class="b" d="M97.09,238.71h1.74V254H97.09Z"/><path class="b" d="M108.32,253.52a2.08,2.08,0,0,1-.62-1.5,2.15,2.15,0,1,1,.62,1.5Z"/><path class="b" d="M115.11,253.52a2.08,2.08,0,0,1-.62-1.5,2.11,2.11,0,0,1,3.62-1.49,2,2,0,0,1,.63,1.49,2.19,2.19,0,0,1-2.14,2.14A2,2,0,0,1,115.11,253.52Z"/><path class="b" d="M121.9,253.52a2,2,0,0,1-.63-1.5,2.15,2.15,0,0,1,2.12-2.12,2.09,2.09,0,0,1,1.51.63,2,2,0,0,1,.63,1.49,2,2,0,0,1-.63,1.49,2.07,2.07,0,0,1-1.51.65A2,2,0,0,1,121.9,253.52Z"/><path class="b" d="M136.32,248.31v-.09l-7.69-3.38V243l9.79,4.42V249l-9.79,4.43v-1.83Z"/><path class="b" d="M143.26,250.15c.22,1.53,1.68,2.5,3.76,2.5s3.41-1.06,3.41-2.51c0-1.25-.91-2-2.92-2.54l-1.88-.49c-2.64-.67-3.79-1.86-3.79-3.94,0-2.48,2.08-4.16,5.17-4.16,2.83,0,4.93,1.68,5.09,4h-1.84c-.25-1.5-1.49-2.39-3.31-2.39s-3.23,1-3.23,2.45c0,1.14.8,1.8,2.81,2.32l1.53.41c3,.75,4.25,1.93,4.25,4.08,0,2.68-2.12,4.4-5.46,4.4-3.1,0-5.24-1.65-5.43-4.17Z"/><path class="b" d="M164,254h-1.66v-1.71h-.16a3.42,3.42,0,0,1-3.39,1.9c-2.45,0-3.72-1.46-3.72-4v-7.07h1.74v6.65c0,2,.73,2.87,2.47,2.87a2.74,2.74,0,0,0,3-3.06v-6.46H164Z"/><path class="b" d="M169.16,252.23H169V254h-1.66V238.71h1.74v6.06h.16a3.79,3.79,0,0,1,3.43-1.91c2.77,0,4.58,2.22,4.58,5.65s-1.82,5.65-4.58,5.65A3.93,3.93,0,0,1,169.16,252.23Zm-.12-3.72c0,2.52,1.24,4.08,3.22,4.08s3.18-1.53,3.18-4.08-1.18-4.08-3.18-4.08S169,246,169,248.51Z"/><path class="b" d="M183.8,242.86c2.29,0,3.89,1.13,4.12,2.92H186.2a2.24,2.24,0,0,0-2.41-1.44c-1.29,0-2.31.65-2.31,1.63,0,.75.61,1.21,1.9,1.53l1.68.4c2.06.5,3.05,1.39,3.05,3,0,2-1.89,3.3-4.38,3.3s-4.1-1.16-4.29-3h1.79a2.4,2.4,0,0,0,2.56,1.51c1.47,0,2.53-.69,2.53-1.7,0-.75-.57-1.25-1.74-1.54l-1.87-.45c-2.05-.5-3-1.38-3-3C179.73,244.22,181.48,242.86,183.8,242.86Z"/><path class="b" d="M198.12,246.39a2.7,2.7,0,0,0-2.81-2c-2,0-3.21,1.57-3.21,4s1.26,4.12,3.21,4.12a2.62,2.62,0,0,0,2.81-1.91h1.77c-.32,2-1.95,3.48-4.57,3.48-3.06,0-5-2.22-5-5.69s1.95-5.61,5-5.61a4.29,4.29,0,0,1,4.58,3.53Z"/><path class="b" d="M202.46,243.05h1.66v1.62h.17a3,3,0,0,1,3-1.81,7.75,7.75,0,0,1,.88,0v1.74a7.2,7.2,0,0,0-1.12-.1,2.67,2.67,0,0,0-2.87,2.65V254h-1.74Z"/><path class="b" d="M210.06,239.73a1.22,1.22,0,1,1,1.22,1.21A1.22,1.22,0,0,1,210.06,239.73Zm.35,3.32h1.74V254h-1.74Z"/><path class="b" d="M217.4,252.23h-.16V254h-1.67V238.71h1.75v6.06h.16a3.77,3.77,0,0,1,3.42-1.91c2.78,0,4.58,2.22,4.58,5.65s-1.81,5.65-4.58,5.65A3.92,3.92,0,0,1,217.4,252.23Zm-.12-3.72c0,2.52,1.23,4.08,3.22,4.08s3.18-1.53,3.18-4.08-1.19-4.08-3.18-4.08S217.28,246,217.28,248.51Z"/><path class="b" d="M237.2,251.14c-.51,1.87-2.21,3-4.6,3-3,0-4.93-2.19-4.93-5.64s1.93-5.66,4.93-5.66,4.74,2.09,4.74,5.49V249h-7.85v.08c.09,2.16,1.29,3.52,3.15,3.52a2.83,2.83,0,0,0,2.82-1.48Zm-7.71-3.53h6c0-1.94-1.2-3.21-2.93-3.21A3.11,3.11,0,0,0,229.49,247.61Z"/><path class="b" d="M242.37,248.1v.1l7.69,3.37v1.83L240.27,249v-1.54l9.79-4.44v1.83Z"/><path class="b" d="M252,257.08l5.27-18.37h1.48l-5.27,18.37Z"/><path class="b" d="M260.55,238.71h1.74V254h-1.74Z"/><path class="b" d="M265,250.91c0-1.95,1.44-3.08,4-3.23l3.15-.19v-1c0-1.34-.84-2.08-2.47-2.08-1.31,0-2.22.49-2.46,1.35h-1.77c.24-1.75,2-2.9,4.29-2.9,2.66,0,4.15,1.36,4.15,3.63V254h-1.66v-1.61h-.16a3.77,3.77,0,0,1-3.37,1.8C266.6,254.16,265,252.91,265,250.91Zm7.13-1v-1l-2.94.2c-1.66.11-2.39.69-2.39,1.78s.94,1.76,2.21,1.76A2.87,2.87,0,0,0,272.16,249.9Z"/><path class="b" d="M279.05,252.23h-.16V254h-1.66V238.71H279v6.06h.16a3.79,3.79,0,0,1,3.43-1.91c2.77,0,4.58,2.22,4.58,5.65s-1.82,5.65-4.58,5.65A3.93,3.93,0,0,1,279.05,252.23Zm-.12-3.72c0,2.52,1.24,4.08,3.22,4.08s3.18-1.53,3.18-4.08-1.18-4.08-3.18-4.08S278.93,246,278.93,248.51Z"/><path class="b" d="M298.85,251.14c-.51,1.87-2.21,3-4.6,3-3,0-4.92-2.19-4.92-5.64s1.92-5.66,4.92-5.66S299,245,299,248.35V249h-7.85v.08c.09,2.16,1.3,3.52,3.15,3.52a2.83,2.83,0,0,0,2.82-1.48Zm-7.71-3.53h6c0-1.94-1.2-3.21-2.93-3.21A3.11,3.11,0,0,0,291.14,247.61Z"/><path class="b" d="M301.83,238.71h1.74V254h-1.74Z"/><path class="b" d="M314.84,248.31v-.09l-7.69-3.38V243l9.79,4.42V249l-9.79,4.43v-1.83Z"/><path class="f" d="M594.1,199.41a2.12,2.12,0,0,1,3-3,2.15,2.15,0,0,1-1.5,3.64A2,2,0,0,1,594.1,199.41Z"/><path class="f" d="M603.54,199.86h-3.15V189.54h3v1.19a2.69,2.69,0,0,1,1.23-1.08,4,4,0,0,1,1.74-.42,3.11,3.11,0,0,1,3,1.62,3.65,3.65,0,0,1,3.19-1.62,3.91,3.91,0,0,1,2.72,1,3.75,3.75,0,0,1,1.1,3v6.68h-3v-6a1.88,1.88,0,0,0-.41-1.25,1.52,1.52,0,0,0-1.23-.49,1.57,1.57,0,0,0-1.26.52,1.78,1.78,0,0,0-.46,1.24v6h-3.11v-6a1.79,1.79,0,0,0-.43-1.25,1.52,1.52,0,0,0-1.23-.49,1.57,1.57,0,0,0-1.25.52,1.86,1.86,0,0,0-.46,1.26Z"/><path class="f" d="M622.85,203.82h-3.32l2.34-5.35-4.34-8.93h3.53l2.51,5.53,2.29-5.53h3.34Z"/><path class="f" d="M636,195h-6.22v-2.84H636Z"/><path class="f" d="M643,192.14a2.29,2.29,0,0,0-1.69.68,2.59,2.59,0,0,0-.68,1.89,2.53,2.53,0,0,0,.7,1.87,2.31,2.31,0,0,0,1.71.68,2.12,2.12,0,0,0,1.4-.44,2.18,2.18,0,0,0,.74-1.09l2.78.85a4.74,4.74,0,0,1-1.67,2.53,5,5,0,0,1-3.25,1.06,5.42,5.42,0,0,1-3.93-1.55,5.19,5.19,0,0,1-1.61-3.91,5.33,5.33,0,0,1,5.44-5.48,5.11,5.11,0,0,1,3.3,1,4.68,4.68,0,0,1,1.66,2.55l-2.83.85a2.22,2.22,0,0,0-.7-1.1A2.06,2.06,0,0,0,643,192.14Z"/><path class="f" d="M653.08,199.86h-3.15v-15h3.15Z"/><path class="f" d="M655.14,197a2.74,2.74,0,0,1,.85-2.11,4.05,4.05,0,0,1,2.2-1l2.43-.37c.5-.07.75-.3.75-.71a1,1,0,0,0-.41-.8,2,2,0,0,0-2.37.13,1.54,1.54,0,0,0-.5,1.07l-2.74-.56a3.56,3.56,0,0,1,1.27-2.36,4.66,4.66,0,0,1,3.25-1.07,4.73,4.73,0,0,1,3.46,1.12,3.92,3.92,0,0,1,1.11,2.87v5a8.77,8.77,0,0,0,.12,1.6h-2.84a4.93,4.93,0,0,1-.11-1.16,3.13,3.13,0,0,1-2.9,1.45,3.66,3.66,0,0,1-2.61-.92A3,3,0,0,1,655.14,197Zm4.34.85a2,2,0,0,0,1.35-.48,2,2,0,0,0,.54-1.58v-.45l-2,.31c-.77.12-1.16.5-1.16,1.14a1.05,1.05,0,0,0,.3.75A1.27,1.27,0,0,0,659.48,197.87Z"/><path class="f" d="M666.24,196.93l2.68-.47a1.47,1.47,0,0,0,.45,1,1.57,1.57,0,0,0,1.17.41,1.39,1.39,0,0,0,.89-.26.81.81,0,0,0,.31-.64c0-.41-.34-.7-1-.85l-1.18-.27a4.12,4.12,0,0,1-2.32-1.17,2.91,2.91,0,0,1-.75-2,3.12,3.12,0,0,1,1.13-2.43,4.83,4.83,0,0,1,5.85,0,3.31,3.31,0,0,1,1.11,2.1l-2.61.48a1.34,1.34,0,0,0-1.47-1.26,1.24,1.24,0,0,0-.79.25.75.75,0,0,0-.34.64c0,.41.27.67.81.77l1.37.27a4.23,4.23,0,0,1,2.37,1.18,2.92,2.92,0,0,1,.81,2.05,3.26,3.26,0,0,1-1.08,2.46,4.2,4.2,0,0,1-3,1,5.7,5.7,0,0,1-2-.33,3.31,3.31,0,0,1-1.35-.86,4.52,4.52,0,0,1-.71-1A3.09,3.09,0,0,1,666.24,196.93Z"/><path class="f" d="M675.91,196.93l2.68-.47a1.52,1.52,0,0,0,.45,1,1.59,1.59,0,0,0,1.17.41,1.37,1.37,0,0,0,.89-.26.81.81,0,0,0,.31-.64c0-.41-.34-.7-1-.85l-1.19-.27a4.15,4.15,0,0,1-2.32-1.17,2.91,2.91,0,0,1-.75-2,3.12,3.12,0,0,1,1.13-2.43,4.83,4.83,0,0,1,5.85,0,3.26,3.26,0,0,1,1.11,2.1l-2.61.48a1.34,1.34,0,0,0-1.47-1.26,1.24,1.24,0,0,0-.79.25.76.76,0,0,0-.33.64c0,.41.26.67.8.77l1.37.27a4.23,4.23,0,0,1,2.37,1.18,2.92,2.92,0,0,1,.81,2.05,3.26,3.26,0,0,1-1.08,2.46,4.2,4.2,0,0,1-3,1,5.7,5.7,0,0,1-2-.33,3.31,3.31,0,0,1-1.35-.86,4.52,4.52,0,0,1-.71-1A3.09,3.09,0,0,1,675.91,196.93Z"/><path class="b" d="M701.46,196.27v3c0,1.62.58,2.28,2,2.28h.41V203h-.56c-2.39,0-3.51-1.13-3.51-3.49V196.9c0-1.62-.56-2.16-2.23-2.16v-1.92c1.67,0,2.23-.54,2.23-2.16v-2.57c0-2.36,1.12-3.49,3.51-3.49h.56V186h-.41c-1.42,0-2,.66-2,2.28v3a2.14,2.14,0,0,1-2.22,2.37v.24A2.14,2.14,0,0,1,701.46,196.27Z"/><path class="b" d="M627.19,228.4c0,3.41-1.81,5.65-4.59,5.65a3.67,3.67,0,0,1-3.41-1.83H619v5.29h-1.75V222.94H619v1.82h.16a3.93,3.93,0,0,1,3.49-2C625.39,222.74,627.19,225,627.19,228.4Zm-1.8,0c0-2.56-1.2-4.08-3.19-4.08S619,225.89,619,228.4s1.24,4.08,3.21,4.08S625.39,231,625.39,228.4Z"/><path class="b" d="M629.38,228.4c0-3.52,1.93-5.66,5-5.66s5,2.14,5,5.66-1.93,5.65-5,5.65S629.38,231.9,629.38,228.4Zm8.27,0c0-2.6-1.16-4.08-3.23-4.08s-3.23,1.48-3.23,4.08,1.16,4.08,3.23,4.08S637.65,231,637.65,228.4Z"/><path class="b" d="M646,222.74c2.29,0,3.88,1.14,4.12,2.93H648.4a2.22,2.22,0,0,0-2.4-1.45c-1.29,0-2.31.66-2.31,1.64,0,.74.61,1.21,1.9,1.52l1.68.41c2.06.5,3.05,1.39,3.05,3,0,1.95-1.9,3.3-4.38,3.3s-4.1-1.16-4.29-3h1.79a2.39,2.39,0,0,0,2.56,1.51c1.47,0,2.53-.7,2.53-1.7,0-.75-.57-1.26-1.74-1.54l-1.87-.46c-2-.49-3-1.37-3-2.95C641.94,224.11,643.69,222.74,646,222.74Z"/><path class="b" d="M652.75,219.61a1.22,1.22,0,1,1,1.22,1.22A1.22,1.22,0,0,1,652.75,219.61Zm.35,3.33h1.74v10.92H653.1Z"/><path class="b" d="M660.63,220.11v2.83h2.44v1.46h-2.44v6.18c0,1.28.49,1.83,1.63,1.83a7.57,7.57,0,0,0,.81,0v1.47a6,6,0,0,1-1,.1c-2.25,0-3.15-.83-3.15-2.92V224.4h-1.76v-1.46h1.76v-2.83Z"/><path class="b" d="M665.4,219.61a1.22,1.22,0,1,1,1.21,1.22A1.22,1.22,0,0,1,665.4,219.61Zm.34,3.33h1.75v10.92h-1.75Z"/><path class="b" d="M670.26,228.4c0-3.52,1.93-5.66,5-5.66s5,2.14,5,5.66-1.92,5.65-5,5.65S670.26,231.9,670.26,228.4Zm8.27,0c0-2.6-1.16-4.08-3.23-4.08s-3.23,1.48-3.23,4.08,1.16,4.08,3.23,4.08S678.53,231,678.53,228.4Z"/><path class="b" d="M683.07,222.94h1.66v1.72h.17a3.27,3.27,0,0,1,3.28-1.92c2.45,0,3.82,1.45,3.82,4v7.07h-1.75v-6.65c0-2-.83-2.89-2.57-2.89a2.77,2.77,0,0,0-2.87,3.08v6.46h-1.74Z"/><path class="b" d="M695.3,224.8a1.32,1.32,0,1,1,1.32,1.32A1.33,1.33,0,0,1,695.3,224.8Zm0,7.84a1.32,1.32,0,1,1,1.32,1.32A1.33,1.33,0,0,1,695.3,232.64Z"/><path class="b" d="M706.55,230.8c0-2,1.44-3.08,4-3.23l3.15-.19v-1c0-1.35-.84-2.09-2.47-2.09-1.3,0-2.22.5-2.46,1.36H707c.23-1.75,2-2.91,4.28-2.91,2.67,0,4.16,1.37,4.16,3.64v7.48h-1.67v-1.61h-.16a3.77,3.77,0,0,1-3.36,1.8C708.12,234.05,706.55,232.79,706.55,230.8Zm7.13-1v-1l-2.93.2c-1.67.11-2.4.69-2.4,1.78s.95,1.76,2.21,1.76A2.86,2.86,0,0,0,713.68,229.79Z"/><path class="b" d="M720.58,232.12h-.17v1.74h-1.66V218.6h1.75v6.06h.16a3.75,3.75,0,0,1,3.42-1.92c2.78,0,4.58,2.22,4.58,5.66s-1.81,5.65-4.58,5.65A3.91,3.91,0,0,1,720.58,232.12Zm-.13-3.72c0,2.52,1.24,4.08,3.23,4.08s3.18-1.53,3.18-4.08-1.19-4.08-3.18-4.08S720.45,225.88,720.45,228.4Z"/><path class="b" d="M735.22,222.74c2.29,0,3.88,1.14,4.11,2.93h-1.72a2.22,2.22,0,0,0-2.4-1.45c-1.3,0-2.31.66-2.31,1.64,0,.74.61,1.21,1.89,1.52l1.68.41c2.06.5,3,1.39,3,3,0,1.95-1.89,3.3-4.37,3.3s-4.11-1.16-4.3-3h1.8a2.39,2.39,0,0,0,2.56,1.51c1.47,0,2.52-.7,2.52-1.7,0-.75-.57-1.26-1.73-1.54l-1.88-.46c-2-.49-3-1.37-3-2.95C731.15,224.11,732.9,222.74,735.22,222.74Z"/><path class="b" d="M741.71,228.4c0-3.52,1.93-5.66,5-5.66s5,2.14,5,5.66-1.93,5.65-5,5.65S741.71,231.9,741.71,228.4Zm8.27,0c0-2.6-1.16-4.08-3.23-4.08s-3.23,1.48-3.23,4.08,1.16,4.08,3.23,4.08S750,231,750,228.4Z"/><path class="b" d="M754.62,218.6h1.75v15.26h-1.75Z"/><path class="b" d="M768.59,233.86h-1.66v-1.71h-.17a3.4,3.4,0,0,1-3.38,1.9c-2.45,0-3.73-1.46-3.73-4v-7.07h1.74v6.64c0,2,.73,2.88,2.48,2.88a2.74,2.74,0,0,0,3-3.06v-6.46h1.75Z"/><path class="b" d="M774.34,220.11v2.83h2.44v1.46h-2.44v6.18c0,1.28.49,1.83,1.63,1.83a7.57,7.57,0,0,0,.81,0v1.47a6,6,0,0,1-1,.1c-2.25,0-3.15-.83-3.15-2.92V224.4h-1.76v-1.46h1.76v-2.83Z"/><path class="b" d="M788.24,231c-.51,1.87-2.21,3-4.6,3-3,0-4.93-2.19-4.93-5.64s1.93-5.67,4.93-5.67,4.74,2.1,4.74,5.5v.66h-7.85V229c.09,2.15,1.29,3.52,3.15,3.52a2.8,2.8,0,0,0,2.81-1.48Zm-7.71-3.53h6c0-1.94-1.19-3.22-2.92-3.22A3.11,3.11,0,0,0,780.53,227.5Z"/><path class="b" d="M790.91,237.58l1-5.77h1.93l-1.59,5.77Zm.33-12.78a1.32,1.32,0,1,1,1.31,1.32A1.32,1.32,0,0,1,791.24,224.8Z"/><path class="b" d="M619.76,251.11v2.83h2.43v1.46h-2.43v6.18c0,1.28.48,1.83,1.62,1.83a7.57,7.57,0,0,0,.81,0v1.47a6,6,0,0,1-1,.1c-2.25,0-3.16-.83-3.16-2.92V255.4h-1.76v-1.46H618v-2.83Z"/><path class="b" d="M624.82,253.94h1.67v1.62h.16a3,3,0,0,1,3-1.82,7.57,7.57,0,0,1,.87,0v1.75a7.08,7.08,0,0,0-1.12-.1,2.67,2.67,0,0,0-2.86,2.65v6.77h-1.75Z"/><path class="b" d="M632.08,261.8c0-2,1.44-3.08,4-3.23l3.15-.19v-1c0-1.35-.84-2.09-2.47-2.09-1.31,0-2.22.5-2.46,1.36h-1.76c.23-1.75,2-2.91,4.28-2.91,2.67,0,4.16,1.37,4.16,3.64v7.48h-1.67v-1.61h-.16a3.77,3.77,0,0,1-3.36,1.8C633.65,265.05,632.08,263.79,632.08,261.8Zm7.13-1v-1l-2.94.2c-1.66.11-2.39.69-2.39,1.78s1,1.76,2.21,1.76A2.87,2.87,0,0,0,639.21,260.79Z"/><path class="b" d="M644.18,253.94h1.66v1.72H646a3.29,3.29,0,0,1,3.29-1.92c2.45,0,3.81,1.45,3.81,4.05v7.07h-1.74v-6.65c0-2-.83-2.89-2.57-2.89a2.77,2.77,0,0,0-2.87,3.08v6.46h-1.74Z"/><path class="b" d="M660.11,253.74c2.29,0,3.88,1.14,4.11,2.93H662.5a2.22,2.22,0,0,0-2.4-1.45c-1.3,0-2.31.66-2.31,1.64,0,.74.61,1.21,1.89,1.52l1.68.41c2.06.5,3,1.39,3,3,0,1.95-1.89,3.3-4.37,3.3s-4.11-1.16-4.3-3h1.8a2.39,2.39,0,0,0,2.56,1.51c1.47,0,2.52-.7,2.52-1.7,0-.75-.57-1.26-1.73-1.54l-1.88-.46c-2-.49-3-1.37-3-2.95C656,255.11,657.79,253.74,660.11,253.74Z"/><path class="b" d="M667.88,255.4h-1.81v-1.46h1.81v-1.22c0-2.18,1.1-3.22,3.17-3.22a6.25,6.25,0,0,1,1.18.1V251a4.93,4.93,0,0,0-.82-.05,1.56,1.56,0,0,0-1.79,1.8v1.17h2.51v1.46h-2.51v9.46h-1.74Z"/><path class="b" d="M673.66,259.4c0-3.52,1.92-5.66,5-5.66s5,2.14,5,5.66-1.93,5.65-5,5.65S673.66,262.9,673.66,259.4Zm8.26,0c0-2.6-1.16-4.08-3.23-4.08s-3.23,1.48-3.23,4.08,1.17,4.08,3.23,4.08S681.92,262,681.92,259.4Z"/><path class="b" d="M686.47,253.94h1.66v1.62h.16a3,3,0,0,1,3-1.82,7.57,7.57,0,0,1,.87,0v1.75a7.05,7.05,0,0,0-1.11-.1,2.67,2.67,0,0,0-2.87,2.65v6.77h-1.74Z"/><path class="b" d="M694.57,253.94h1.66v1.72h.17a3.08,3.08,0,0,1,3.05-1.92,3.15,3.15,0,0,1,3,1.92h.16a3.65,3.65,0,0,1,3.34-1.92c2.23,0,3.48,1.28,3.48,3.57v7.55H707.7v-7.14c0-1.61-.76-2.4-2.3-2.4a2.45,2.45,0,0,0-2.53,2.52v7h-1.74v-7.42a2.07,2.07,0,0,0-2.28-2.12,2.63,2.63,0,0,0-2.53,2.77v6.77h-1.75Z"/><path class="b" d="M712.75,255.8a1.32,1.32,0,1,1,1.32,1.32A1.33,1.33,0,0,1,712.75,255.8Zm0,7.84a1.32,1.32,0,1,1,1.32,1.32A1.33,1.33,0,0,1,712.75,263.64Z"/><path class="b" d="M728.47,253.74c2.29,0,3.88,1.14,4.11,2.93h-1.72a2.22,2.22,0,0,0-2.4-1.45c-1.3,0-2.31.66-2.31,1.64,0,.74.61,1.21,1.89,1.52l1.69.41c2,.5,3,1.39,3,3,0,1.95-1.9,3.3-4.38,3.3s-4.11-1.16-4.3-3h1.8a2.39,2.39,0,0,0,2.56,1.51c1.47,0,2.52-.7,2.52-1.7,0-.75-.56-1.26-1.73-1.54l-1.87-.46c-2-.49-3-1.37-3-2.95C724.4,255.11,726.15,253.74,728.47,253.74Z"/><path class="b" d="M742.79,257.28a2.72,2.72,0,0,0-2.82-2c-2,0-3.2,1.57-3.2,4s1.26,4.12,3.2,4.12a2.64,2.64,0,0,0,2.82-1.91h1.76c-.31,2-1.94,3.48-4.57,3.48-3.06,0-5-2.22-5-5.69s1.94-5.62,5-5.62a4.29,4.29,0,0,1,4.58,3.54Z"/><path class="b" d="M746.48,261.8c0-2,1.44-3.08,4-3.23l3.15-.19v-1c0-1.35-.84-2.09-2.47-2.09-1.31,0-2.22.5-2.46,1.36h-1.77c.24-1.75,2-2.91,4.29-2.91,2.66,0,4.15,1.37,4.15,3.64v7.48h-1.66v-1.61h-.16a3.79,3.79,0,0,1-3.36,1.8C748.05,265.05,746.48,263.79,746.48,261.8Zm7.13-1v-1l-2.94.2c-1.66.11-2.39.69-2.39,1.78s.94,1.76,2.21,1.76A2.87,2.87,0,0,0,753.61,260.79Z"/><path class="b" d="M758.68,249.6h1.74v15.26h-1.74Z"/><path class="b" d="M772.78,262c-.5,1.87-2.21,3-4.6,3-3,0-4.92-2.19-4.92-5.64s1.92-5.67,4.92-5.67,4.74,2.1,4.74,5.5v.66h-7.85V260c.09,2.15,1.3,3.52,3.15,3.52A2.83,2.83,0,0,0,771,262Zm-7.71-3.53h6c0-1.94-1.19-3.22-2.93-3.22A3.12,3.12,0,0,0,765.07,258.5Z"/><path class="b" d="M779.35,249.6h1.48c-1.44,1.84-2.56,5.76-2.56,9.18s1.11,7.35,2.56,9.19h-1.48a16.09,16.09,0,0,1,0-18.37Z"/><path class="b" d="M783.3,257.54c0-4.82,1.92-7.65,5.19-7.65s5.17,2.84,5.17,7.68-1.89,7.63-5.17,7.63S783.3,262.41,783.3,257.54Zm8.52,0c0-3.88-1.19-6-3.33-6s-3.35,2.18-3.35,6,1.19,6.07,3.35,6.07S791.82,261.46,791.82,257.54Z"/><path class="b" d="M797.61,268h-1.48c1.44-1.84,2.57-5.76,2.57-9.18s-1.12-7.35-2.57-9.19h1.48a16.09,16.09,0,0,1,0,18.37Z"/><path class="b" d="M804.38,268.58l1-5.77h1.94l-1.59,5.77Zm.33-12.78a1.32,1.32,0,1,1,1.31,1.32A1.32,1.32,0,0,1,804.71,255.8Z"/><path class="b" d="M595.44,287.3v-3c0-1.62-.58-2.28-2-2.28H593V280.6h.56c2.39,0,3.52,1.13,3.52,3.49v2.58c0,1.62.56,2.16,2.23,2.16v1.92c-1.67,0-2.23.54-2.23,2.16v2.57c0,2.36-1.13,3.49-3.52,3.49H593v-1.43h.41c1.43,0,2-.66,2-2.28v-3a2.14,2.14,0,0,1,2.22-2.37v-.24A2.14,2.14,0,0,1,595.44,287.3Z"/><path class="f" d="M323.6,127.66v5.57h-1.85V119h1.85v5.88a3.23,3.23,0,0,1,2.87-1.37,3.09,3.09,0,0,1,2.51,1,4,4,0,0,1,.87,2.69v6H328v-5.68c0-1.59-.73-2.38-2.2-2.38a2,2,0,0,0-1.59.69A2.91,2.91,0,0,0,323.6,127.66Z"/><path class="f" d="M332.77,121.13a1.35,1.35,0,0,1,0-1.88,1.25,1.25,0,0,1,.94-.4,1.29,1.29,0,0,1,.94.39,1.34,1.34,0,0,1,0,1.89,1.32,1.32,0,0,1-.94.38A1.31,1.31,0,0,1,332.77,121.13Zm1.86,12.1H332.8v-9.46h1.83Z"/><path class="f" d="M344.4,132v-.16a3,3,0,0,1-1.13,1.21,3.27,3.27,0,0,1-1.8.49,4.08,4.08,0,0,1-3.25-1.43,5.3,5.3,0,0,1-1.23-3.59,5.14,5.14,0,0,1,1.26-3.51,4.09,4.09,0,0,1,3.22-1.45,3.43,3.43,0,0,1,1.89.47,2.47,2.47,0,0,1,1,1.13V119h1.82v12.49a15.32,15.32,0,0,0,.1,1.75H344.5A7.92,7.92,0,0,1,344.4,132Zm-5.52-3.48a3.8,3.8,0,0,0,.74,2.44,2.43,2.43,0,0,0,2,.94,2.4,2.4,0,0,0,2-1,3.88,3.88,0,0,0,.75-2.46,3.71,3.71,0,0,0-.73-2.38,2.43,2.43,0,0,0-2-.9,2.5,2.5,0,0,0-2,.92A3.6,3.6,0,0,0,338.88,128.47Z"/><path class="f" d="M356,132v-.16a3.11,3.11,0,0,1-1.13,1.21,3.32,3.32,0,0,1-1.8.49,4.1,4.1,0,0,1-3.26-1.43,5.3,5.3,0,0,1-1.23-3.59,5.14,5.14,0,0,1,1.26-3.51,4.11,4.11,0,0,1,3.23-1.45,3.48,3.48,0,0,1,1.89.47,2.45,2.45,0,0,1,1,1.13V119h1.83v12.49a13.33,13.33,0,0,0,.1,1.75h-1.79A6.93,6.93,0,0,1,356,132Zm-5.53-3.48a3.85,3.85,0,0,0,.74,2.44,2.43,2.43,0,0,0,2,.94,2.4,2.4,0,0,0,2-1,3.88,3.88,0,0,0,.75-2.46,3.66,3.66,0,0,0-.73-2.38,2.42,2.42,0,0,0-2-.9,2.52,2.52,0,0,0-2,.92A3.66,3.66,0,0,0,350.44,128.47Z"/><path class="f" d="M367.55,130l1.59.56a4.17,4.17,0,0,1-1.53,2.15,4.39,4.39,0,0,1-2.71.83,4.64,4.64,0,0,1-3.38-1.36,5,5,0,0,1-1.38-3.69,5,5,0,0,1,1.33-3.58,4.28,4.28,0,0,1,3.19-1.42,4.23,4.23,0,0,1,3.34,1.35,5.23,5.23,0,0,1,1.2,3.61,3.27,3.27,0,0,1,0,.59H362a2.91,2.91,0,0,0,.84,2.07,2.78,2.78,0,0,0,2,.8A2.54,2.54,0,0,0,367.55,130Zm-5.45-2.45h5.18a2.55,2.55,0,0,0-.71-1.74,2.52,2.52,0,0,0-1.89-.68,2.43,2.43,0,0,0-1.81.72A2.56,2.56,0,0,0,362.1,127.53Z"/><path class="f" d="M373.41,127.76v5.47h-1.85v-9.46h1.81v1.36a3.13,3.13,0,0,1,2.91-1.63,3.07,3.07,0,0,1,2.51,1,4,4,0,0,1,.87,2.69v6h-1.84v-5.68c0-1.59-.74-2.38-2.21-2.38a2,2,0,0,0-1.62.73A2.91,2.91,0,0,0,373.41,127.76Z"/><path class="f" d="M387.5,121.13a1.35,1.35,0,0,1,0-1.88,1.25,1.25,0,0,1,.94-.4,1.29,1.29,0,0,1,.94.39,1.34,1.34,0,0,1,0,1.89,1.32,1.32,0,0,1-.94.38A1.31,1.31,0,0,1,387.5,121.13Zm1.86,12.1h-1.83v-9.46h1.83Z"/><path class="f" d="M394.35,127.76v5.47h-1.84v-9.46h1.81v1.36a3.12,3.12,0,0,1,2.91-1.63,3.06,3.06,0,0,1,2.5,1,4,4,0,0,1,.88,2.69v6h-1.85v-5.68c0-1.59-.73-2.38-2.2-2.38a1.93,1.93,0,0,0-1.62.73A2.92,2.92,0,0,0,394.35,127.76Z"/><path class="f" d="M405.39,137h-1.83v-13.2h1.79v1.48a3.1,3.1,0,0,1,1.24-1.22,3.75,3.75,0,0,1,1.92-.48,3.92,3.92,0,0,1,3.2,1.4,6,6,0,0,1,0,7.12,4,4,0,0,1-3.21,1.42,3.8,3.8,0,0,1-1.85-.44,3.05,3.05,0,0,1-1.22-1.1Zm5.58-8.48a3.6,3.6,0,0,0-.76-2.37,2.47,2.47,0,0,0-2-.93,2.53,2.53,0,0,0-2,.93,3.61,3.61,0,0,0-.77,2.37,3.68,3.68,0,0,0,.77,2.41,2.69,2.69,0,0,0,4.07,0A3.68,3.68,0,0,0,411,128.49Z"/><path class="f" d="M421.36,132.09a2.4,2.4,0,0,1-1.15,1.07,3.83,3.83,0,0,1-1.65.36,3.27,3.27,0,0,1-2.57-1.07,3.87,3.87,0,0,1-1-2.72v-6h1.85v5.68a2.84,2.84,0,0,0,.52,1.75,1.91,1.91,0,0,0,1.63.69,2.09,2.09,0,0,0,1.67-.66,2.59,2.59,0,0,0,.57-1.76v-5.7h1.85v7.71a16.11,16.11,0,0,0,.09,1.75h-1.77A7.05,7.05,0,0,1,421.36,132.09Z"/><path class="f" d="M428.73,120.78v3h2v1.67h-2v4.92a1.34,1.34,0,0,0,.31,1,1.36,1.36,0,0,0,1,.32,3.2,3.2,0,0,0,.73-.08v1.57a3.66,3.66,0,0,1-1.26.18,2.61,2.61,0,0,1-1.93-.71,2.69,2.69,0,0,1-.71-2v-5.19h-1.81v-1.67h.51a1.41,1.41,0,0,0,1.1-.4,1.53,1.53,0,0,0,.36-1.06v-1.53Z"/><path class="g" d="M288.05,87.22c.3,16.41,10.29,32.63,25.31,39.52"/><polygon class="f" points="282.13 88.56 288.81 78.64 294.06 89.39 282.13 88.56"/><path class="g" d="M439.57,126.57c37-7.33,74.5-14.71,112.15-12.42s76.11,15.39,101.55,43.24"/></svg>