<svg xmlns="http://www.w3.org/2000/svg" viewBox="0 0 900 290"><defs><style>.a{fill:#4a4a4a;}.b{fill:#eaeaea;}.c{fill:#b2b2b2;}.d{fill:#4b4b4b;}.e{fill:#eceaff;}.f{fill:#fff;}.g{fill:#7e73ff;}.h{fill:none;stroke:#7e73ff;stroke-miterlimit:10;stroke-width:3px;}</style></defs><rect class="a" y="171.54" width="900" height="114.52"/><rect class="b" x="274.99" y="25.8" width="36.36" height="36.36" rx="7.5"/><path class="c" d="M303.86,27.3a6,6,0,0,1,6,6V54.66a6,6,0,0,1-6,6H282.49a6,6,0,0,1-6-6V33.3a6,6,0,0,1,6-6h21.37m0-3H282.49a9,9,0,0,0-9,9V54.66a9,9,0,0,0,9,9h21.37a9,9,0,0,0,9-9V33.3a9,9,0,0,0-9-9Z"/><path class="d" d="M356.92,36.9l-6.22,1.75A4.81,4.81,0,0,0,349.25,36a5,5,0,0,0-3.72-1.22,4.62,4.62,0,0,0-3.07,1,3,3,0,0,0-1.18,2.35q0,2.4,3.07,3l4.16.79a11.54,11.54,0,0,1,6.64,3.35,8.61,8.61,0,0,1,2.34,6A9.21,9.21,0,0,1,354.38,58,11.64,11.64,0,0,1,346,61q-5.86,0-9.09-3a10.89,10.89,0,0,1-3.61-6.9l6.35-1.53a5.84,5.84,0,0,0,1.82,3.83,6.46,6.46,0,0,0,4.62,1.51,5.17,5.17,0,0,0,3.2-.9,2.79,2.79,0,0,0,1.18-2.34,2.58,2.58,0,0,0-.88-2,4.94,4.94,0,0,0-2.45-1.12l-4.25-.79a10.83,10.83,0,0,1-6.2-3.2,8.42,8.42,0,0,1-2.25-5.91,9.06,9.06,0,0,1,3.28-7.14,11.58,11.58,0,0,1,7.84-2.85,14.75,14.75,0,0,1,4.93.77,9,9,0,0,1,3.44,2,11.11,11.11,0,0,1,2,2.63A9.39,9.39,0,0,1,356.92,36.9Z"/><path class="d" d="M375.54,60.34a10.41,10.41,0,0,1-.18-2.19,4.91,4.91,0,0,1-2.41,2,8.79,8.79,0,0,1-3.41.68,7.79,7.79,0,0,1-6.07-2.43,8.65,8.65,0,0,1-2.21-6.07V38.57h6.66V50.92a4.09,4.09,0,0,0,.89,2.72,3.25,3.25,0,0,0,2.61,1,3.52,3.52,0,0,0,2.65-1,3.74,3.74,0,0,0,1-2.7V38.57h6.65V56.44a32.89,32.89,0,0,0,.22,3.9Z"/><path class="d" d="M394,60.34h-6.44V28.62h6.53v12a5.53,5.53,0,0,1,2.46-1.84,9.45,9.45,0,0,1,3.85-.75,9.23,9.23,0,0,1,7.38,3.18,12,12,0,0,1,2.74,8.17,11.78,11.78,0,0,1-2.91,8.21,9.63,9.63,0,0,1-7.47,3.22,8.25,8.25,0,0,1-3.73-.81A5.72,5.72,0,0,1,394,57.89Zm9.86-10.91a5.4,5.4,0,0,0-1.4-4A4.8,4.8,0,0,0,399,44a4.86,4.86,0,0,0-3.52,1.38,5.34,5.34,0,0,0-1.43,4,5.4,5.4,0,0,0,1.45,4,4.79,4.79,0,0,0,3.5,1.42,4.74,4.74,0,0,0,3.49-1.42A5.42,5.42,0,0,0,403.88,49.43Z"/><path class="d" d="M413,54.16l5.65-1a3.19,3.19,0,0,0,.94,2.09,3.38,3.38,0,0,0,2.47.85,2.86,2.86,0,0,0,1.89-.55,1.66,1.66,0,0,0,.65-1.33c0-.88-.71-1.48-2.14-1.8l-2.5-.57a8.85,8.85,0,0,1-4.91-2.47,6.18,6.18,0,0,1-1.57-4.23A6.56,6.56,0,0,1,415.91,40a8.7,8.7,0,0,1,6-2.1c2.84,0,5,.68,6.38,2a7,7,0,0,1,2.34,4.44l-5.52,1a3,3,0,0,0-.9-1.93,3.06,3.06,0,0,0-2.21-.74,2.67,2.67,0,0,0-1.66.52,1.63,1.63,0,0,0-.7,1.36q0,1.32,1.71,1.62l2.89.57a9,9,0,0,1,5,2.5,6.16,6.16,0,0,1,1.71,4.34,6.93,6.93,0,0,1-2.28,5.19A8.93,8.93,0,0,1,422.24,61a12.08,12.08,0,0,1-4.28-.71,6.9,6.9,0,0,1-2.84-1.81,9.09,9.09,0,0,1-1.49-2.22A6,6,0,0,1,413,54.16Z"/><path class="d" d="M445.23,44a4.79,4.79,0,0,0-3.57,1.45,5.41,5.41,0,0,0-1.42,4,5.3,5.3,0,0,0,1.47,4,5,5,0,0,0,3.61,1.44,4.47,4.47,0,0,0,4.51-3.24l5.87,1.8a10,10,0,0,1-3.52,5.34A10.5,10.5,0,0,1,445.32,61a11.51,11.51,0,0,1-8.3-3.27,11,11,0,0,1-3.4-8.26A11.23,11.23,0,0,1,445.1,37.91a10.76,10.76,0,0,1,7,2.19,9.78,9.78,0,0,1,3.5,5.39l-6,1.79A4.61,4.61,0,0,0,448.12,45,4.35,4.35,0,0,0,445.23,44Z"/><path class="d" d="M473.62,38.57v6.57a8.85,8.85,0,0,0-2.1-.22,4.93,4.93,0,0,0-3.66,1.44,6.17,6.17,0,0,0-1.42,4.47v9.51h-6.66V38.57h6.44V41.5a4.82,4.82,0,0,1,2.4-2.41,7.87,7.87,0,0,1,3.25-.74A6.11,6.11,0,0,1,473.62,38.57Z"/><path class="d" d="M478.22,34.67a3.91,3.91,0,0,1,0-5.52A3.7,3.7,0,0,1,480.93,28a3.86,3.86,0,0,1,2.79,1.14,3.86,3.86,0,0,1,0,5.52,3.86,3.86,0,0,1-2.79,1.14A3.7,3.7,0,0,1,478.22,34.67Zm6.09,25.67h-6.66V38.57h6.66Z"/><path class="d" d="M496.57,60.34h-6.44V28.62h6.53v12a5.5,5.5,0,0,1,2.45-1.84A9.53,9.53,0,0,1,503,38a9.25,9.25,0,0,1,7.38,3.18,12.08,12.08,0,0,1,2.74,8.17,11.74,11.74,0,0,1-2.92,8.21,9.6,9.6,0,0,1-7.46,3.22A8.22,8.22,0,0,1,499,60a5.72,5.72,0,0,1-2.41-2.12Zm9.86-10.91a5.4,5.4,0,0,0-1.4-4,5.17,5.17,0,0,0-7,0,5.34,5.34,0,0,0-1.43,4,5.36,5.36,0,0,0,1.45,4,4.79,4.79,0,0,0,3.5,1.42A4.74,4.74,0,0,0,505,53.44,5.47,5.47,0,0,0,506.43,49.43Z"/><path class="d" d="M531.62,52.5l5.56,1.57a9,9,0,0,1-3.46,5,10.71,10.71,0,0,1-6.57,2A11.07,11.07,0,0,1,515.8,49.39,11.18,11.18,0,0,1,519,41.11a10.51,10.51,0,0,1,7.65-3.2,10.72,10.72,0,0,1,8,3c1.94,2,2.92,4.71,2.92,8.21a8.77,8.77,0,0,1-.14,2.06H522.29a4,4,0,0,0,1.53,3,5.17,5.17,0,0,0,3.42,1.2C529.49,55.34,531,54.4,531.62,52.5Zm-9.2-5.65h8.72A3.91,3.91,0,0,0,530,44.26a4.3,4.3,0,0,0-3.22-1.09,4.14,4.14,0,0,0-3.06,1.14A4.08,4.08,0,0,0,522.42,46.85Z"/><rect class="e" x="109.34" y="232.61" width="185.64" height="29.49"/><rect class="e" x="285.9" y="195.27" width="176.34" height="29.49"/><path class="f" d="M44.54,210.41v.09l7.69,3.37v1.83l-9.79-4.41v-1.54l9.79-4.44v1.83Z"/><path class="f" d="M55.4,202a1.22,1.22,0,1,1,2.43,0,1.22,1.22,0,0,1-2.43,0Zm.35,3.32h1.74v10.92H55.75Z"/><path class="f" d="M60.81,205.35h1.67v1.72h.16a3.28,3.28,0,0,1,3.28-1.91c2.45,0,3.82,1.45,3.82,4v7.07H68v-6.64c0-2-.83-2.9-2.58-2.9a2.76,2.76,0,0,0-2.86,3.08v6.46H60.81Z"/><path class="f" d="M82.83,210.81c0,3.42-1.81,5.65-4.59,5.65a3.65,3.65,0,0,1-3.41-1.83h-.16v5.29H72.92V205.35h1.66v1.82h.17a3.94,3.94,0,0,1,3.49-2C81,205.16,82.83,207.38,82.83,210.81Zm-1.8,0c0-2.55-1.2-4.08-3.19-4.08s-3.22,1.57-3.22,4.08,1.24,4.08,3.21,4.08S81,213.36,81,210.81Z"/><path class="f" d="M94.41,216.27H92.74v-1.71h-.16a3.4,3.4,0,0,1-3.38,1.9c-2.45,0-3.73-1.45-3.73-4v-7.07h1.74V212c0,2,.73,2.87,2.47,2.87a2.74,2.74,0,0,0,3-3.06v-6.46h1.75Z"/><path class="f" d="M100.16,202.52v2.83h2.43v1.46h-2.43V213c0,1.29.49,1.83,1.62,1.83a7.32,7.32,0,0,0,.81,0v1.47a5.87,5.87,0,0,1-1,.1c-2.25,0-3.15-.83-3.15-2.91v-6.63H96.66v-1.46h1.76v-2.83Z"/><path class="f" d="M113.56,202.52v2.83H116v1.46h-2.43V213c0,1.29.48,1.83,1.62,1.83a7.44,7.44,0,0,0,.81,0v1.47a5.87,5.87,0,0,1-1,.1c-2.25,0-3.15-.83-3.15-2.91v-6.63h-1.77v-1.46h1.77v-2.83Z"/><path class="f" d="M118.78,220.16v-1.49a4.19,4.19,0,0,0,.73.05c1,0,1.55-.47,2-1.79l.21-.65-4-10.93h1.89l3,9h.16l3-9h1.85l-4.26,11.59c-.94,2.53-1.81,3.28-3.74,3.28A5.12,5.12,0,0,1,118.78,220.16Z"/><path class="f" d="M139.8,210.81c0,3.42-1.81,5.65-4.59,5.65a3.65,3.65,0,0,1-3.41-1.83h-.16v5.29h-1.75V205.35h1.67v1.82h.16a3.94,3.94,0,0,1,3.49-2C138,205.16,139.8,207.38,139.8,210.81Zm-1.8,0c0-2.55-1.2-4.08-3.19-4.08s-3.22,1.57-3.22,4.08,1.24,4.08,3.21,4.08S138,213.36,138,210.81Z"/><path class="f" d="M151.52,213.45c-.51,1.86-2.21,3-4.6,3-3,0-4.93-2.18-4.93-5.64s1.93-5.66,4.93-5.66,4.74,2.09,4.74,5.49v.67h-7.85v.08c.09,2.16,1.29,3.52,3.15,3.52a2.84,2.84,0,0,0,2.82-1.47Zm-7.71-3.54h6c0-1.94-1.2-3.21-2.93-3.21A3.11,3.11,0,0,0,143.81,209.91Z"/><path class="f" d="M154.79,209.09v-1.56h9.38v1.56Zm0,4.39v-1.56h9.38v1.56Z"/><path class="f" d="M168,207.11v-5.46h1.62v5.46Zm3.82,0v-5.46h1.62v5.46Z"/><path class="f" d="M184.2,208.69a2.71,2.71,0,0,0-2.82-2c-2,0-3.2,1.57-3.2,4s1.26,4.12,3.2,4.12A2.62,2.62,0,0,0,184.2,213H186c-.31,2-1.94,3.48-4.57,3.48-3.06,0-5-2.21-5-5.69s1.94-5.61,5-5.61a4.28,4.28,0,0,1,4.58,3.53Z"/><path class="f" d="M188.64,201h1.74v6.06h.16a3.42,3.42,0,0,1,3.37-1.91c2.31,0,3.77,1.48,3.77,4v7.07h-1.75v-6.64c0-1.94-.87-2.9-2.52-2.9a2.82,2.82,0,0,0-3,3.08v6.46h-1.74Z"/><path class="f" d="M209.84,213.45c-.51,1.86-2.21,3-4.6,3-3,0-4.93-2.18-4.93-5.64s1.93-5.66,4.93-5.66,4.74,2.09,4.74,5.49v.67h-7.85v.08c.09,2.16,1.29,3.52,3.15,3.52a2.81,2.81,0,0,0,2.81-1.47Zm-7.71-3.54h6c-.05-1.94-1.2-3.21-2.93-3.21A3.1,3.1,0,0,0,202.13,209.91Z"/><path class="f" d="M220,208.69a2.71,2.71,0,0,0-2.82-2c-2,0-3.2,1.57-3.2,4s1.26,4.12,3.2,4.12A2.62,2.62,0,0,0,220,213h1.76c-.31,2-1.94,3.48-4.57,3.48-3.06,0-5-2.21-5-5.69s1.94-5.61,5-5.61a4.28,4.28,0,0,1,4.58,3.53Z"/><path class="f" d="M231.08,205.35h2.13l-4.7,4.68,5,6.24h-2.22l-4.09-5.11-1.05,1v4.14h-1.74V201h1.74v9.11h.17Z"/><path class="f" d="M237.52,214.53h-.16v1.74H235.7V201h1.74v6.06h.16a3.79,3.79,0,0,1,3.43-1.91c2.77,0,4.58,2.22,4.58,5.65s-1.82,5.65-4.58,5.65A3.91,3.91,0,0,1,237.52,214.53Zm-.12-3.72c0,2.52,1.24,4.08,3.22,4.08s3.18-1.53,3.18-4.08-1.18-4.08-3.18-4.08S237.4,208.29,237.4,210.81Z"/><path class="f" d="M247.8,210.81c0-3.51,1.92-5.65,5-5.65s5,2.14,5,5.65-1.93,5.65-5,5.65S247.8,214.32,247.8,210.81Zm8.27,0c0-2.59-1.17-4.08-3.24-4.08s-3.23,1.49-3.23,4.08,1.17,4.08,3.23,4.08S256.07,213.39,256.07,210.81Z"/><path class="f" d="M263.8,212.18l-2.59,4.12h-2l3.74-5.46-3.78-5.46h2.08l2.59,4.06H264l2.56-4.06h2l-3.71,5.39,3.76,5.53h-2.07L264,212.18Z"/><path class="f" d="M271.16,207.11v-5.46h1.62v5.46Zm3.82,0v-5.46h1.62v5.46Z"/><path class="g" d="M291.79,204.11a1.85,1.85,0,0,1,0-2.61,1.75,1.75,0,0,1,1.28-.54,1.81,1.81,0,0,1,1.32.54,1.82,1.82,0,0,1,0,2.61,1.81,1.81,0,0,1-1.32.54A1.75,1.75,0,0,1,291.79,204.11Zm2.88,12.16h-3.15V206h3.15Z"/><path class="g" d="M307.58,201.25v13.18c0,.62,0,1.23.08,1.84h-3a6.61,6.61,0,0,1-.08-1,2.7,2.7,0,0,1-1.11.88,3.84,3.84,0,0,1-1.65.34,4.84,4.84,0,0,1-3.65-1.52,6,6,0,0,1,0-7.75,4.68,4.68,0,0,1,3.59-1.52c1.41,0,2.33.35,2.78,1.06v-5.52Zm-7.05,8a2.51,2.51,0,0,0-.67,1.88,2.56,2.56,0,0,0,.67,1.9,2.34,2.34,0,0,0,3.3,0,2.57,2.57,0,0,0,.68-1.9,2.52,2.52,0,0,0-.68-1.88,2.37,2.37,0,0,0-3.3,0Z"/><path class="g" d="M320.47,209.24H310.2V206.7h10.27Zm0,4.17H310.2v-2.53h10.27Z"/><path class="g" d="M322.27,204.3a1.72,1.72,0,0,1,.49-1.23,1.64,1.64,0,0,1,1.22-.49,1.61,1.61,0,0,1,1.19.49,1.72,1.72,0,0,1,.49,1.23,2.06,2.06,0,0,1-.09.62l-1,3.76h-1.12l-1-3.76a.8.8,0,0,0,0-.16l-.06-.23A2.15,2.15,0,0,1,322.27,204.3Zm4,0a1.68,1.68,0,0,1,.49-1.23,1.62,1.62,0,0,1,1.21-.49,1.59,1.59,0,0,1,1.19.49,1.68,1.68,0,0,1,.49,1.23,2.45,2.45,0,0,1-.08.62l-1,3.76h-1.12l-1-3.76a.8.8,0,0,0,0-.16,1.55,1.55,0,0,1-.05-.23A1,1,0,0,1,326.24,204.3Z"/><path class="g" d="M330.8,213.35l2.68-.48a1.5,1.5,0,0,0,.45,1,1.59,1.59,0,0,0,1.17.41A1.37,1.37,0,0,0,336,214a.78.78,0,0,0,.31-.63c0-.42-.34-.7-1-.85l-1.19-.27a4.22,4.22,0,0,1-2.32-1.18,2.89,2.89,0,0,1-.75-2,3.15,3.15,0,0,1,1.13-2.43,4.17,4.17,0,0,1,2.84-1,4.24,4.24,0,0,1,3,1,3.33,3.33,0,0,1,1.11,2.11l-2.62.48a1.42,1.42,0,0,0-.43-.92,1.45,1.45,0,0,0-1-.35,1.24,1.24,0,0,0-.79.25.76.76,0,0,0-.33.64c0,.42.27.67.81.77l1.37.27a4.3,4.3,0,0,1,2.36,1.18,2.93,2.93,0,0,1,.81,2.06,3.29,3.29,0,0,1-1.08,2.46,4.24,4.24,0,0,1-3,1,5.74,5.74,0,0,1-2-.33,3.31,3.31,0,0,1-1.35-.86,4.32,4.32,0,0,1-.71-1A3,3,0,0,1,330.8,213.35Z"/><path class="g" d="M347.9,216.27a5.47,5.47,0,0,1-.08-1,2.35,2.35,0,0,1-1.14,1,4.22,4.22,0,0,1-1.62.32,3.66,3.66,0,0,1-2.87-1.15,4.12,4.12,0,0,1-1.05-2.88V206h3.15v5.85a1.88,1.88,0,0,0,.43,1.29,1.53,1.53,0,0,0,1.23.5,1.68,1.68,0,0,0,1.26-.49,1.79,1.79,0,0,0,.47-1.28V206h3.15v8.47a14.79,14.79,0,0,0,.1,1.84Z"/><path class="g" d="M356.66,216.27h-3.05v-15h3.09v5.68a2.76,2.76,0,0,1,1.17-.87,4.58,4.58,0,0,1,1.82-.35,4.4,4.4,0,0,1,3.5,1.5,5.77,5.77,0,0,1,1.3,3.87,5.6,5.6,0,0,1-1.38,3.9,4.58,4.58,0,0,1-3.54,1.52,4,4,0,0,1-1.77-.38,2.7,2.7,0,0,1-1.14-1Zm4.67-5.17a2.53,2.53,0,0,0-.66-1.89,2.43,2.43,0,0,0-3.33,0,2.5,2.5,0,0,0-.68,1.89,2.53,2.53,0,0,0,.69,1.9,2.35,2.35,0,0,0,3.31,0A2.56,2.56,0,0,0,361.33,211.1Z"/><path class="g" d="M365.67,213.35l2.68-.48a1.44,1.44,0,0,0,.44,1,1.59,1.59,0,0,0,1.17.41,1.4,1.4,0,0,0,.9-.26.81.81,0,0,0,.31-.63c0-.42-.34-.7-1-.85l-1.18-.27a4.25,4.25,0,0,1-2.33-1.18,2.93,2.93,0,0,1-.74-2,3.12,3.12,0,0,1,1.13-2.43,4.14,4.14,0,0,1,2.83-1,4.23,4.23,0,0,1,3,1,3.33,3.33,0,0,1,1.11,2.11l-2.61.48a1.53,1.53,0,0,0-.43-.92,1.46,1.46,0,0,0-1.05-.35,1.28,1.28,0,0,0-.79.25.76.76,0,0,0-.33.64c0,.42.27.67.81.77l1.37.27a4.3,4.3,0,0,1,2.37,1.18,2.93,2.93,0,0,1,.81,2.06,3.29,3.29,0,0,1-1.08,2.46,4.24,4.24,0,0,1-3,1,5.8,5.8,0,0,1-2-.33,3.46,3.46,0,0,1-1.35-.86,4.27,4.27,0,0,1-.7-1A3,3,0,0,1,365.67,213.35Z"/><path class="g" d="M380.92,208.55a2.26,2.26,0,0,0-1.69.69,2.55,2.55,0,0,0-.67,1.89,2.5,2.5,0,0,0,.69,1.86,2.35,2.35,0,0,0,1.71.69,2.12,2.12,0,0,0,2.14-1.54l2.78.85a4.71,4.71,0,0,1-1.67,2.54,5,5,0,0,1-3.25,1.05A5.45,5.45,0,0,1,377,215a5.21,5.21,0,0,1-1.61-3.91,5.32,5.32,0,0,1,5.44-5.48,5.11,5.11,0,0,1,3.3,1,4.69,4.69,0,0,1,1.66,2.56l-2.82.85a2.15,2.15,0,0,0-.71-1.1A2,2,0,0,0,380.92,208.55Z"/><path class="g" d="M394.37,206v3.11a4.25,4.25,0,0,0-1-.1,2.36,2.36,0,0,0-1.74.68,2.92,2.92,0,0,0-.67,2.12v4.5h-3.16V206h3.05v1.39a2.26,2.26,0,0,1,1.14-1.14,3.64,3.64,0,0,1,1.54-.36A2.88,2.88,0,0,1,394.37,206Z"/><path class="g" d="M396.55,204.11a1.84,1.84,0,1,1,2.6-2.61,1.82,1.82,0,0,1,0,2.61,1.79,1.79,0,0,1-1.31.54A1.76,1.76,0,0,1,396.55,204.11Zm2.88,12.16h-3.15V206h3.15Z"/><path class="g" d="M405.35,220.22h-3.16V206h3.06V207a2.71,2.71,0,0,1,1.17-.93,4.79,4.79,0,0,1,5.35,1.12,5.72,5.72,0,0,1,1.3,3.87,5.6,5.6,0,0,1-1.38,3.9,4.58,4.58,0,0,1-3.54,1.52,3.4,3.4,0,0,1-2.8-1ZM409.3,213a2.57,2.57,0,0,0,.68-1.9,2.52,2.52,0,0,0-.68-1.88,2.39,2.39,0,0,0-3.32,0,2.51,2.51,0,0,0-.67,1.88A2.56,2.56,0,0,0,406,213a2.37,2.37,0,0,0,3.32,0Z"/><path class="g" d="M418.86,203v3h2v2.76h-2v3.86q0,1.08,1.14,1.08a3.72,3.72,0,0,0,.83-.11v2.62a3.79,3.79,0,0,1-1.64.29,3.51,3.51,0,0,1-2.52-.89,3.22,3.22,0,0,1-.92-2.43v-4.42h-1.83V206h.52a1.5,1.5,0,0,0,1.19-.47,1.79,1.79,0,0,0,.41-1.21V203Z"/><path class="g" d="M423.38,204.11a1.85,1.85,0,0,1,1.29-3.15,1.83,1.83,0,0,1,1.32.54,1.82,1.82,0,0,1,0,2.61,1.83,1.83,0,0,1-1.32.54A1.76,1.76,0,0,1,423.38,204.11Zm2.89,12.16h-3.16V206h3.16Z"/><path class="g" d="M433.76,205.65a5.37,5.37,0,0,1,3.91,1.53,5.7,5.7,0,0,1,0,7.86,5.49,5.49,0,0,1-9.39-3.94,5.26,5.26,0,0,1,1.58-3.91A5.35,5.35,0,0,1,433.76,205.65Zm0,8a2.24,2.24,0,0,0,1.65-.67,2.56,2.56,0,0,0,.67-1.91,2.49,2.49,0,0,0-.67-1.89,2.37,2.37,0,0,0-3.29,0,2.48,2.48,0,0,0-.68,1.88,2.53,2.53,0,0,0,.68,1.9A2.26,2.26,0,0,0,433.76,213.68Z"/><path class="g" d="M444.43,210.36v5.91h-3.16V206h3.05v1.18a2.68,2.68,0,0,1,1.22-1.07,4,4,0,0,1,1.67-.38,3.43,3.43,0,0,1,2.8,1.15,4.46,4.46,0,0,1,.95,3v6.47h-3.15v-5.93a1.89,1.89,0,0,0-.43-1.3,1.55,1.55,0,0,0-1.25-.49,1.62,1.62,0,0,0-1.24.51A1.85,1.85,0,0,0,444.43,210.36Z"/><path class="g" d="M452.69,204.3a1.71,1.71,0,0,1,.48-1.23,1.64,1.64,0,0,1,1.22-.49,1.59,1.59,0,0,1,1.19.49,1.68,1.68,0,0,1,.49,1.23,2.45,2.45,0,0,1-.08.62l-1,3.76h-1.12l-1-3.76a.8.8,0,0,0,0-.16,1.55,1.55,0,0,1-.05-.23A1,1,0,0,1,452.69,204.3Zm4,0a1.68,1.68,0,0,1,.49-1.23,1.73,1.73,0,0,1,2.41,0,1.71,1.71,0,0,1,.48,1.23,2.07,2.07,0,0,1-.08.62l-1,3.76h-1.12l-1-3.76a.8.8,0,0,0,0-.16c0-.07,0-.15-.05-.23A2.15,2.15,0,0,1,456.65,204.3Z"/><path class="f" d="M472.78,215.83a2.09,2.09,0,0,1-.63-1.51,2.15,2.15,0,0,1,2.12-2.12,2.09,2.09,0,0,1,1.51.63,2,2,0,0,1,.63,1.49,2.17,2.17,0,0,1-2.14,2.14A2,2,0,0,1,472.78,215.83Z"/><path class="f" d="M479.56,215.83a2.12,2.12,0,0,1-.62-1.51,2.11,2.11,0,0,1,3.62-1.49,2,2,0,0,1,.63,1.49,2.08,2.08,0,0,1-.63,1.5,2.09,2.09,0,0,1-3,0Z"/><path class="f" d="M486.35,215.83a2.08,2.08,0,0,1-.62-1.51,2.13,2.13,0,0,1,2.11-2.12,2.07,2.07,0,0,1,1.51.63,2,2,0,0,1,.63,1.49,2.17,2.17,0,0,1-2.14,2.14A2,2,0,0,1,486.35,215.83Z"/><path class="f" d="M500.77,210.61v-.09l-7.69-3.38v-1.83l9.79,4.42v1.54l-9.79,4.43v-1.83Z"/><path class="f" d="M44.54,248.41v.09l7.69,3.37v1.83l-9.79-4.41v-1.54l9.79-4.44v1.83Z"/><path class="f" d="M55.81,239h1.74v15.26H55.81Z"/><path class="f" d="M60.29,251.21c0-2,1.44-3.08,4-3.23l3.15-.19v-1c0-1.34-.84-2.08-2.47-2.08-1.31,0-2.22.49-2.46,1.36H60.72c.24-1.76,2-2.91,4.29-2.91,2.66,0,4.15,1.37,4.15,3.63v7.48H67.5v-1.61h-.16a3.77,3.77,0,0,1-3.37,1.8C61.86,254.46,60.29,253.21,60.29,251.21Zm7.13-1v-1l-2.94.19c-1.66.11-2.39.69-2.39,1.78s.94,1.76,2.21,1.76A2.87,2.87,0,0,0,67.42,250.2Z"/><path class="f" d="M74.31,252.53h-.16v1.74H72.49V239h1.74v6.06h.16a3.79,3.79,0,0,1,3.43-1.91c2.77,0,4.58,2.22,4.58,5.65s-1.82,5.65-4.58,5.65A3.91,3.91,0,0,1,74.31,252.53Zm-.12-3.72c0,2.52,1.24,4.08,3.22,4.08s3.18-1.53,3.18-4.08-1.18-4.08-3.18-4.08S74.19,246.29,74.19,248.81Z"/><path class="f" d="M94.11,251.45c-.51,1.86-2.21,3-4.6,3-3,0-4.92-2.18-4.92-5.64s1.92-5.66,4.92-5.66,4.74,2.09,4.74,5.49v.67H86.4v.08c.09,2.16,1.3,3.52,3.15,3.52a2.84,2.84,0,0,0,2.82-1.47Zm-7.71-3.54h6c0-1.94-1.2-3.21-2.93-3.21A3.11,3.11,0,0,0,86.4,247.91Z"/><path class="f" d="M97.09,239h1.74v15.26H97.09Z"/><path class="g" d="M119.56,246.61h-2.25v7.66h-3.15v-7.66h-1.64V244h1.64v-.89a4,4,0,0,1,1-2.9,3.81,3.81,0,0,1,2.89-1.09,3.62,3.62,0,0,1,1.5.23v2.57a3.87,3.87,0,0,0-.94-.1,1.48,1.48,0,0,0-.94.31,1.29,1.29,0,0,0-.41,1.08V244h2.25Z"/><path class="g" d="M125.8,243.65a5.35,5.35,0,0,1,3.91,1.53,5.7,5.7,0,0,1,0,7.86,5.49,5.49,0,0,1-9.39-3.94,5.26,5.26,0,0,1,1.58-3.91A5.35,5.35,0,0,1,125.8,243.65Zm0,8a2.24,2.24,0,0,0,1.65-.67,2.56,2.56,0,0,0,.68-1.91,2.5,2.5,0,0,0-.68-1.89,2.37,2.37,0,0,0-3.29,0,2.52,2.52,0,0,0-.68,1.88,2.57,2.57,0,0,0,.68,1.9A2.28,2.28,0,0,0,125.8,251.68Z"/><path class="g" d="M139.87,244v3.11a4.25,4.25,0,0,0-1-.1,2.32,2.32,0,0,0-1.73.68,2.87,2.87,0,0,0-.68,2.12v4.5h-3.15V244h3.05v1.39a2.26,2.26,0,0,1,1.14-1.14,3.57,3.57,0,0,1,1.53-.36A2.88,2.88,0,0,1,139.87,244Z"/><path class="g" d="M152.28,247.24H142V244.7h10.27Zm0,4.17H142v-2.53h10.27Z"/><path class="g" d="M154.09,242.3a1.68,1.68,0,0,1,.49-1.23,1.73,1.73,0,0,1,2.41,0,1.71,1.71,0,0,1,.48,1.23,2.07,2.07,0,0,1-.08.62l-1,3.76h-1.12l-1-3.76a.8.8,0,0,0,0-.16,1.55,1.55,0,0,1,0-.23A2.15,2.15,0,0,1,154.09,242.3Zm4,0a1.72,1.72,0,0,1,.49-1.23,1.64,1.64,0,0,1,1.22-.49,1.61,1.61,0,0,1,1.19.49,1.72,1.72,0,0,1,.49,1.23,2.06,2.06,0,0,1-.09.62l-1,3.76H159.2l-1-3.76a.8.8,0,0,0,0-.16l-.06-.23A2.15,2.15,0,0,1,158.05,242.3Z"/><path class="g" d="M162.62,251.35l2.68-.48a1.44,1.44,0,0,0,.44,1,1.6,1.6,0,0,0,1.18.41,1.39,1.39,0,0,0,.89-.26.78.78,0,0,0,.31-.63c0-.42-.34-.7-1-.85l-1.18-.27a4.25,4.25,0,0,1-2.33-1.18,2.93,2.93,0,0,1-.74-2,3.12,3.12,0,0,1,1.13-2.43,4.14,4.14,0,0,1,2.83-1,4.23,4.23,0,0,1,3,1,3.33,3.33,0,0,1,1.11,2.11l-2.61.48a1.34,1.34,0,0,0-1.48-1.27,1.28,1.28,0,0,0-.79.25.76.76,0,0,0-.33.64c0,.42.27.67.81.77l1.37.27a4.3,4.3,0,0,1,2.37,1.18,2.93,2.93,0,0,1,.81,2.06,3.29,3.29,0,0,1-1.08,2.46,4.24,4.24,0,0,1-3,1,5.8,5.8,0,0,1-2-.33,3.46,3.46,0,0,1-1.35-.86,4.27,4.27,0,0,1-.7-1A3,3,0,0,1,162.62,251.35Z"/><path class="g" d="M179.72,254.27a5.47,5.47,0,0,1-.08-1,2.35,2.35,0,0,1-1.14,1,4.29,4.29,0,0,1-1.62.32,3.69,3.69,0,0,1-2.88-1.15,4.12,4.12,0,0,1-1.05-2.88V244h3.16v5.85a1.93,1.93,0,0,0,.42,1.29,1.56,1.56,0,0,0,1.24.5,1.66,1.66,0,0,0,1.25-.49,1.74,1.74,0,0,0,.47-1.28V244h3.16v8.47a14.79,14.79,0,0,0,.1,1.84Z"/><path class="g" d="M188.48,254.27h-3v-15h3.09v5.68a2.66,2.66,0,0,1,1.16-.87,4.63,4.63,0,0,1,1.83-.35,4.38,4.38,0,0,1,3.49,1.5,5.72,5.72,0,0,1,1.3,3.87,5.6,5.6,0,0,1-1.38,3.9,4.58,4.58,0,0,1-3.54,1.52,4,4,0,0,1-1.76-.38,2.7,2.7,0,0,1-1.14-1Zm4.67-5.17a2.49,2.49,0,0,0-.67-1.89,2.25,2.25,0,0,0-1.66-.66,2.3,2.3,0,0,0-1.67.66,2.49,2.49,0,0,0-.67,1.89,2.57,2.57,0,0,0,.68,1.9,2.29,2.29,0,0,0,1.66.68,2.25,2.25,0,0,0,1.65-.68A2.57,2.57,0,0,0,193.15,249.1Z"/><path class="g" d="M197.48,251.35l2.68-.48a1.5,1.5,0,0,0,.45,1,1.59,1.59,0,0,0,1.17.41,1.35,1.35,0,0,0,.89-.26.78.78,0,0,0,.31-.63c0-.42-.33-.7-1-.85l-1.19-.27a4.22,4.22,0,0,1-2.32-1.18,2.89,2.89,0,0,1-.75-2,3.15,3.15,0,0,1,1.13-2.43,4.17,4.17,0,0,1,2.84-1,4.23,4.23,0,0,1,3,1,3.33,3.33,0,0,1,1.11,2.11l-2.62.48a1.33,1.33,0,0,0-1.47-1.27,1.24,1.24,0,0,0-.79.25.76.76,0,0,0-.33.64c0,.42.27.67.81.77l1.37.27a4.3,4.3,0,0,1,2.36,1.18,2.93,2.93,0,0,1,.81,2.06,3.29,3.29,0,0,1-1.08,2.46,4.24,4.24,0,0,1-3,1,5.74,5.74,0,0,1-2-.33,3.31,3.31,0,0,1-1.35-.86,4,4,0,0,1-.7-1A3.06,3.06,0,0,1,197.48,251.35Z"/><path class="g" d="M212.74,246.55a2.26,2.26,0,0,0-1.69.69,2.56,2.56,0,0,0-.68,1.89,2.47,2.47,0,0,0,.7,1.86,2.32,2.32,0,0,0,1.71.69,2.14,2.14,0,0,0,1.4-.45,2.18,2.18,0,0,0,.74-1.09l2.78.85a4.76,4.76,0,0,1-1.67,2.54,5,5,0,0,1-3.25,1.05,5.45,5.45,0,0,1-3.93-1.54,5.17,5.17,0,0,1-1.61-3.91,5.32,5.32,0,0,1,5.44-5.48,5.11,5.11,0,0,1,3.3,1,4.74,4.74,0,0,1,1.66,2.56l-2.83.85a2.14,2.14,0,0,0-.7-1.1A2.07,2.07,0,0,0,212.74,246.55Z"/><path class="g" d="M226.19,244v3.11a4.34,4.34,0,0,0-1-.1,2.35,2.35,0,0,0-1.73.68,2.92,2.92,0,0,0-.68,2.12v4.5h-3.15V244h3.05v1.39a2.26,2.26,0,0,1,1.14-1.14,3.58,3.58,0,0,1,1.54-.36A3,3,0,0,1,226.19,244Z"/><path class="g" d="M228.37,242.11a1.85,1.85,0,0,1,0-2.61,1.74,1.74,0,0,1,1.28-.54,1.83,1.83,0,0,1,1.32.54,1.82,1.82,0,0,1,0,2.61,1.83,1.83,0,0,1-1.32.54A1.74,1.74,0,0,1,228.37,242.11Zm2.88,12.16H228.1V244h3.15Z"/><path class="g" d="M237.17,258.22H234V244h3.05V245a2.84,2.84,0,0,1,1.17-.93,4.45,4.45,0,0,1,1.86-.38,4.4,4.4,0,0,1,3.5,1.5,5.77,5.77,0,0,1,1.3,3.87,5.6,5.6,0,0,1-1.38,3.9A4.59,4.59,0,0,1,240,254.5a3.39,3.39,0,0,1-2.8-1Zm4-7.22a2.56,2.56,0,0,0,.67-1.9,2.51,2.51,0,0,0-.67-1.88,2.27,2.27,0,0,0-1.67-.67,2.24,2.24,0,0,0-1.65.67,2.52,2.52,0,0,0-.68,1.88,2.57,2.57,0,0,0,.68,1.9,2.25,2.25,0,0,0,1.65.68A2.28,2.28,0,0,0,241.12,251Z"/><path class="g" d="M250.68,241v3h2v2.76h-2v3.86q0,1.08,1.14,1.08a3.8,3.8,0,0,0,.83-.11v2.62a3.82,3.82,0,0,1-1.64.29,3.47,3.47,0,0,1-2.52-.89,3.22,3.22,0,0,1-.93-2.43v-4.42h-1.82V244h.52a1.5,1.5,0,0,0,1.19-.47,1.78,1.78,0,0,0,.4-1.21V241Z"/><path class="g" d="M255.2,242.11a1.84,1.84,0,1,1,2.6-2.61,1.82,1.82,0,0,1,0,2.61,1.79,1.79,0,0,1-1.31.54A1.76,1.76,0,0,1,255.2,242.11Zm2.88,12.16h-3.15V244h3.15Z"/><path class="g" d="M265.58,243.65a5.39,5.39,0,0,1,3.91,1.53,5.73,5.73,0,0,1,0,7.86,5.72,5.72,0,0,1-7.82,0,5.68,5.68,0,0,1,0-7.84A5.39,5.39,0,0,1,265.58,243.65Zm0,8a2.24,2.24,0,0,0,1.65-.67,2.56,2.56,0,0,0,.67-1.91,2.49,2.49,0,0,0-.67-1.89,2.27,2.27,0,0,0-1.65-.66,2.23,2.23,0,0,0-1.64.67,2.48,2.48,0,0,0-.69,1.88,2.53,2.53,0,0,0,.69,1.9A2.24,2.24,0,0,0,265.58,251.68Z"/><path class="g" d="M276.24,248.36v5.91h-3.15V244h3.05v1.18a2.65,2.65,0,0,1,1.21-1.07,4,4,0,0,1,1.67-.38,3.43,3.43,0,0,1,2.81,1.15,4.51,4.51,0,0,1,.95,3v6.47h-3.15v-5.93a1.94,1.94,0,0,0-.43-1.3,1.55,1.55,0,0,0-1.25-.49,1.59,1.59,0,0,0-1.24.51A1.85,1.85,0,0,0,276.24,248.36Z"/><path class="g" d="M284.5,242.3a1.72,1.72,0,0,1,.49-1.23,1.64,1.64,0,0,1,1.22-.49,1.61,1.61,0,0,1,1.19.49,1.72,1.72,0,0,1,.49,1.23,2.06,2.06,0,0,1-.09.62l-1,3.76h-1.13l-1-3.76a.8.8,0,0,0,0-.16l-.06-.23A2.15,2.15,0,0,1,284.5,242.3Zm4,0a1.68,1.68,0,0,1,.49-1.23,1.71,1.71,0,0,1,2.4,0,1.68,1.68,0,0,1,.49,1.23,2.45,2.45,0,0,1-.08.62l-1,3.76h-1.12l-1-3.76a.8.8,0,0,0,0-.16,1.55,1.55,0,0,1-.05-.23A1,1,0,0,1,288.47,242.3Z"/><path class="f" d="M307.12,248.61v-.09l-7.69-3.38v-1.83l9.79,4.42v1.54l-9.79,4.43v-1.83Z"/><path class="f" d="M314.06,250.45c.23,1.53,1.69,2.5,3.76,2.5s3.42-1.06,3.42-2.51c0-1.24-.91-2-2.93-2.54l-1.87-.49c-2.65-.67-3.79-1.86-3.79-3.94,0-2.48,2.07-4.16,5.16-4.16,2.83,0,4.94,1.68,5.09,4h-1.83c-.26-1.5-1.49-2.39-3.32-2.39s-3.23,1-3.23,2.45c0,1.15.8,1.8,2.82,2.32l1.53.41c3,.76,4.24,1.93,4.24,4.08,0,2.68-2.11,4.4-5.46,4.4-3.1,0-5.24-1.64-5.43-4.17Z"/><path class="f" d="M334.76,254.27h-1.67v-1.71h-.16a3.39,3.39,0,0,1-3.38,1.9c-2.45,0-3.73-1.45-3.73-4v-7.07h1.74V250c0,2,.73,2.87,2.47,2.87a2.74,2.74,0,0,0,3-3.06v-6.46h1.75Z"/><path class="f" d="M340,252.53h-.17v1.74h-1.66V239h1.75v6.06h.16a3.77,3.77,0,0,1,3.42-1.91c2.78,0,4.58,2.22,4.58,5.65s-1.81,5.65-4.58,5.65A3.9,3.9,0,0,1,340,252.53Zm-.13-3.72c0,2.52,1.24,4.08,3.23,4.08s3.18-1.53,3.18-4.08-1.19-4.08-3.18-4.08S339.84,246.29,339.84,248.81Z"/><path class="f" d="M354.61,243.16c2.29,0,3.88,1.13,4.11,2.93H357a2.21,2.21,0,0,0-2.4-1.45c-1.3,0-2.31.66-2.31,1.63,0,.75.61,1.21,1.89,1.53l1.69.4c2.05.5,3.05,1.39,3.05,3,0,2-1.9,3.3-4.38,3.3s-4.11-1.16-4.3-3H352A2.4,2.4,0,0,0,354.6,253c1.47,0,2.52-.7,2.52-1.71,0-.75-.57-1.25-1.73-1.54l-1.88-.45c-2-.5-3-1.38-3-3C350.54,244.53,352.29,243.16,354.61,243.16Z"/><path class="f" d="M368.93,246.69a2.72,2.72,0,0,0-2.82-2c-2,0-3.2,1.57-3.2,4s1.26,4.12,3.2,4.12a2.63,2.63,0,0,0,2.82-1.91h1.76c-.31,2-1.94,3.48-4.57,3.48-3.06,0-5-2.21-5-5.69s1.94-5.61,5-5.61a4.28,4.28,0,0,1,4.58,3.53Z"/><path class="f" d="M373.27,243.35h1.66V245h.16a3,3,0,0,1,3-1.81,7.57,7.57,0,0,1,.87.05V245a7.05,7.05,0,0,0-1.11-.1A2.67,2.67,0,0,0,375,247.5v6.77h-1.74Z"/><path class="f" d="M380.87,240a1.22,1.22,0,1,1,1.21,1.21A1.22,1.22,0,0,1,380.87,240Zm.34,3.32H383v10.92h-1.74Z"/><path class="f" d="M388.2,252.53H388v1.74h-1.66V239h1.74v6.06h.16a3.79,3.79,0,0,1,3.43-1.91c2.77,0,4.58,2.22,4.58,5.65s-1.82,5.65-4.58,5.65A3.91,3.91,0,0,1,388.2,252.53Zm-.12-3.72c0,2.52,1.24,4.08,3.22,4.08s3.18-1.53,3.18-4.08-1.18-4.08-3.18-4.08S388.08,246.29,388.08,248.81Z"/><path class="f" d="M408,251.45c-.5,1.86-2.21,3-4.6,3-3,0-4.92-2.18-4.92-5.64s1.92-5.66,4.92-5.66,4.74,2.09,4.74,5.49v.67h-7.85v.08c.09,2.16,1.3,3.52,3.15,3.52a2.84,2.84,0,0,0,2.82-1.47Zm-7.71-3.54h6c0-1.94-1.2-3.21-2.93-3.21A3.11,3.11,0,0,0,400.29,247.91Z"/><path class="f" d="M413.17,248.41v.09l7.69,3.37v1.83l-9.79-4.41v-1.54l9.79-4.44v1.83Z"/><path class="f" d="M422.78,257.38,428.05,239h1.48l-5.27,18.37Z"/><path class="f" d="M431.35,239h1.74v15.26h-1.74Z"/><path class="f" d="M435.83,251.21c0-2,1.44-3.08,4-3.23l3.15-.19v-1c0-1.34-.84-2.08-2.47-2.08-1.31,0-2.22.49-2.46,1.36h-1.76c.23-1.76,2-2.91,4.28-2.91,2.67,0,4.16,1.37,4.16,3.63v7.48H443v-1.61h-.16a3.75,3.75,0,0,1-3.36,1.8C437.4,254.46,435.83,253.21,435.83,251.21Zm7.13-1v-1l-2.94.19c-1.66.11-2.39.69-2.39,1.78s.95,1.76,2.21,1.76A2.86,2.86,0,0,0,443,250.2Z"/><path class="f" d="M449.85,252.53h-.16v1.74H448V239h1.74v6.06h.17a3.76,3.76,0,0,1,3.42-1.91c2.78,0,4.58,2.22,4.58,5.65s-1.81,5.65-4.58,5.65A3.91,3.91,0,0,1,449.85,252.53Zm-.12-3.72c0,2.52,1.24,4.08,3.23,4.08s3.18-1.53,3.18-4.08-1.19-4.08-3.18-4.08S449.73,246.29,449.73,248.81Z"/><path class="f" d="M469.65,251.45c-.5,1.86-2.2,3-4.6,3-3,0-4.92-2.18-4.92-5.64s1.93-5.66,4.92-5.66,4.75,2.09,4.75,5.49v.67h-7.86v.08c.1,2.16,1.3,3.52,3.16,3.52a2.82,2.82,0,0,0,2.81-1.47Zm-7.71-3.54h6c0-1.94-1.19-3.21-2.92-3.21A3.11,3.11,0,0,0,461.94,247.91Z"/><path class="f" d="M472.64,239h1.74v15.26h-1.74Z"/><path class="f" d="M485.65,248.61v-.09L478,245.14v-1.83l9.78,4.42v1.54L478,253.7v-1.83Z"/><path class="g" d="M321.72,120a1.26,1.26,0,0,1-.38-.93,1.29,1.29,0,0,1,.38-1,1.27,1.27,0,0,1,.93-.39,1.33,1.33,0,0,1,1,.38,1.3,1.3,0,0,1,.39,1,1.27,1.27,0,0,1-.39.93,1.33,1.33,0,0,1-1,.38A1.3,1.3,0,0,1,321.72,120Zm1.86,12.1h-1.83v-9.46h1.83Z"/><path class="g" d="M328.57,126.59v5.46h-1.84v-9.46h1.8V124a3.47,3.47,0,0,1,5.42-.59,4,4,0,0,1,.88,2.7v6H333v-5.68c0-1.59-.74-2.38-2.2-2.38a2,2,0,0,0-1.63.74A3,3,0,0,0,328.57,126.59Z"/><path class="g" d="M339.61,135.79h-1.83v-13.2h1.79v1.48a3.1,3.1,0,0,1,1.24-1.22,3.85,3.85,0,0,1,1.92-.47,3.92,3.92,0,0,1,3.2,1.39,6,6,0,0,1,0,7.12,4,4,0,0,1-3.22,1.42,3.9,3.9,0,0,1-1.84-.43,3.13,3.13,0,0,1-1.22-1.1Zm5.58-8.48a3.64,3.64,0,0,0-.76-2.37,2.47,2.47,0,0,0-2-.93,2.53,2.53,0,0,0-2,.93,4.09,4.09,0,0,0,0,4.78,2.51,2.51,0,0,0,2,.94,2.46,2.46,0,0,0,2-.94A3.61,3.61,0,0,0,345.19,127.31Z"/><path class="g" d="M355.57,130.91a2.29,2.29,0,0,1-1.14,1.07,3.69,3.69,0,0,1-1.65.37,3.3,3.3,0,0,1-2.57-1.07,3.92,3.92,0,0,1-1-2.73v-6h1.85v5.69a2.8,2.8,0,0,0,.52,1.75,1.91,1.91,0,0,0,1.62.69,2.1,2.1,0,0,0,1.68-.66,2.61,2.61,0,0,0,.57-1.76v-5.71h1.85v7.71a16.11,16.11,0,0,0,.09,1.75h-1.77A6.71,6.71,0,0,1,355.57,130.91Z"/><path class="g" d="M363,119.61v3h2v1.68h-2v4.91a1.11,1.11,0,0,0,1.32,1.3,3.11,3.11,0,0,0,.72-.08V132a3.56,3.56,0,0,1-1.25.18,2.57,2.57,0,0,1-1.93-.71,2.68,2.68,0,0,1-.71-2v-5.19h-1.81v-1.68h.51a1.38,1.38,0,0,0,1.09-.4,1.48,1.48,0,0,0,.37-1v-1.53Z"/><path class="g" d="M533.27,115.55h-1.85V101.31h1.85Z"/><path class="g" d="M535.83,113a2.56,2.56,0,0,1,.78-2,3.73,3.73,0,0,1,2.09-.92l2.56-.37c.48-.07.72-.3.72-.71a1.59,1.59,0,0,0-.51-1.22,2.21,2.21,0,0,0-1.53-.47,2.14,2.14,0,0,0-1.5.52,2.24,2.24,0,0,0-.65,1.39l-1.77-.41a3.15,3.15,0,0,1,1.24-2.22,4.2,4.2,0,0,1,2.64-.85,4,4,0,0,1,3,1,3.4,3.4,0,0,1,1,2.49V114a9.29,9.29,0,0,0,.12,1.55h-1.81a7.31,7.31,0,0,1-.1-1.28,3.5,3.5,0,0,1-1.15,1.11,3.57,3.57,0,0,1-1.9.47,3.18,3.18,0,0,1-2.28-.84A2.64,2.64,0,0,1,535.83,113Zm3.42,1.27a2.85,2.85,0,0,0,2-.67,2.73,2.73,0,0,0,.74-2.12v-.43l-2.89.43a1.89,1.89,0,0,0-1,.45,1.27,1.27,0,0,0-.37,1,1.31,1.31,0,0,0,.42,1A1.49,1.49,0,0,0,539.25,114.29Z"/><path class="g" d="M548.53,115.55H546.7V101.31h1.83v6.12a3,3,0,0,1,1.19-1.15,4.36,4.36,0,0,1,5.14.93,6.14,6.14,0,0,1,0,7.17,4,4,0,0,1-3.23,1.43,3.28,3.28,0,0,1-3.07-1.63Zm4.82-2.32a4.29,4.29,0,0,0,0-4.89,2.75,2.75,0,0,0-4.06,0,3.54,3.54,0,0,0-.79,2.42,3.64,3.64,0,0,0,.79,2.45,2.53,2.53,0,0,0,2,.94A2.5,2.5,0,0,0,553.35,113.23Z"/><path class="g" d="M565,112.31l1.59.55a4.13,4.13,0,0,1-1.53,2.15,4.39,4.39,0,0,1-2.71.84,4.65,4.65,0,0,1-3.38-1.37,5,5,0,0,1-1.38-3.69,5,5,0,0,1,1.33-3.58,4.56,4.56,0,0,1,6.53-.07,5.25,5.25,0,0,1,1.2,3.61,3.2,3.2,0,0,1,0,.59H559.5a2.91,2.91,0,0,0,.84,2.07,2.74,2.74,0,0,0,2,.8A2.55,2.55,0,0,0,565,112.31Zm-5.45-2.46h5.18a2.39,2.39,0,0,0-2.6-2.42,2.43,2.43,0,0,0-1.81.72A2.58,2.58,0,0,0,559.56,109.85Z"/><path class="g" d="M570.87,115.55H569V101.31h1.85Z"/><path class="h" d="M288.05,86c.3,16.42,10.29,32.63,25.31,39.52"/><polygon class="g" points="282.13 87.39 288.81 77.46 294.06 88.21 282.13 87.39"/><path class="h" d="M552.59,19.55a36.61,36.61,0,0,1,24,9.12c8.73,7.68,13.71,19.15,14.53,30.75S588.8,82.7,583.38,93"/><polygon class="g" points="555.06 25.48 544.06 20.76 553.65 13.59 555.06 25.48"/></svg>