<svg xmlns="http://www.w3.org/2000/svg" viewBox="0 0 900 325"><defs><style>.a{fill:#62ddf5;}.b{fill:#4a4a4a;}.c{fill:#fff;}.d{fill:#b2b2b2;}.e{fill:#eceaff;}.f{fill:#7e73ff;}.g{fill:#1edd88;}.h{fill:none;stroke:#7e73ff;stroke-miterlimit:10;stroke-width:3px;}</style></defs><path class="a" d="M350.53,70.64a26.9,26.9,0,1,1,0-53.8h169.7a26.9,26.9,0,1,1,0,53.8Z"/><path class="a" d="M520.23,17.84a25.9,25.9,0,1,1,0,51.8H350.53a25.9,25.9,0,1,1,0-51.8h169.7m0-2H350.53a27.9,27.9,0,1,0,0,55.8h169.7a27.9,27.9,0,1,0,0-55.8Z"/><rect class="b" y="171.24" width="536.96" height="138.77"/><rect class="b" x="558.88" y="171.24" width="341.12" height="138.77"/><rect class="c" x="273.49" y="24" width="39.36" height="39.36" rx="9"/><path class="d" d="M303.86,24h-3a1.5,1.5,0,0,0,0,3h3a1.5,1.5,0,0,0,0-3Zm-13,0h-3a1.5,1.5,0,0,0,0,3h3a1.5,1.5,0,0,0,0-3ZM278.8,25a1.54,1.54,0,0,0-.74.19,9.2,9.2,0,0,0-2.32,1.89,1.49,1.49,0,0,0,1.13,2.49A1.49,1.49,0,0,0,278,29a6.49,6.49,0,0,1,1.55-1.26,1.5,1.5,0,0,0-.74-2.8ZM275,35a1.5,1.5,0,0,0-1.5,1.5v3a1.5,1.5,0,0,0,3,0v-3A1.5,1.5,0,0,0,275,35Zm0,13a1.5,1.5,0,0,0-1.5,1.5v3a1.5,1.5,0,0,0,3,0v-3A1.5,1.5,0,0,0,275,48Zm2.86,10.76a1.46,1.46,0,0,0-1.17.57,1.48,1.48,0,0,0,.24,2.1c.2.16.41.31.62.45h0l0,0h0l0,0h0l0,0h0l0,0h.05l0,0h.19l0,0h0l0,0h.46l0,0h0l0,0h0l0,0h0l0,0h0l0,0h0l0,0h0a8.51,8.51,0,0,0,.83.34A1.73,1.73,0,0,0,280,63a1.5,1.5,0,0,0,.5-2.92,6,6,0,0,1-1.75-1,1.46,1.46,0,0,0-.93-.32Zm14.64,1.6h-3a1.5,1.5,0,0,0,0,3h3a1.5,1.5,0,0,0,0-3Zm12.72-.12a1.24,1.24,0,0,0-.27,0,6.47,6.47,0,0,1-1.08.09h-1.37a1.5,1.5,0,0,0,0,3h1.82a8.91,8.91,0,0,0,1.17-.13,1.5,1.5,0,0,0-.27-3Zm6.15-7.87a1.5,1.5,0,0,0-1.5,1.5v.49a6.16,6.16,0,0,1-.23,1.66,1.49,1.49,0,0,0,1,1.85,1.45,1.45,0,0,0,.41.06,1.5,1.5,0,0,0,1.44-1.09,9.43,9.43,0,0,0,.31-1.6h0v0h0v0h0v0h0v0h0v0h0v0h0v0h0v0h0v0h0v0h0v0h0v-.49a1.5,1.5,0,0,0-1.5-1.5Zm0-13a1.5,1.5,0,0,0-1.5,1.5v3a1.5,1.5,0,1,0,3,0v-3a1.5,1.5,0,0,0-1.5-1.5Zm-1.19-11.92a1.55,1.55,0,0,0-.81.24,1.5,1.5,0,0,0-.45,2.07,5.92,5.92,0,0,1,.78,1.83,1.5,1.5,0,0,0,1.46,1.15,1.39,1.39,0,0,0,.35,0,1.5,1.5,0,0,0,1.11-1.8,8.15,8.15,0,0,0-.5-1.49h0v0H312v0h0c-.11-.23-.22-.45-.35-.67h0v0h-.07l0,0h0l-.12-.2a1.52,1.52,0,0,0-1.27-.69Z"/><path class="c" d="M381.82,37.9l-4.24,1.19a3.29,3.29,0,0,0-1-1.82,3.46,3.46,0,0,0-2.54-.83,3.16,3.16,0,0,0-2.09.67,2,2,0,0,0-.8,1.59c0,1.1.69,1.77,2.08,2l2.84.54a7.84,7.84,0,0,1,4.52,2.28,5.88,5.88,0,0,1,1.6,4.08,6.28,6.28,0,0,1-2.12,4.67,7.93,7.93,0,0,1-5.7,2,8.66,8.66,0,0,1-6.19-2.07,7.41,7.41,0,0,1-2.47-4.7l4.33-1a3.94,3.94,0,0,0,1.24,2.61,4.41,4.41,0,0,0,3.15,1,3.53,3.53,0,0,0,2.18-.61,1.93,1.93,0,0,0,.8-1.6,1.78,1.78,0,0,0-.59-1.35,3.28,3.28,0,0,0-1.68-.76l-2.89-.54a7.42,7.42,0,0,1-4.22-2.18,5.72,5.72,0,0,1-1.54-4,6.16,6.16,0,0,1,2.24-4.86,7.84,7.84,0,0,1,5.34-1.94,10,10,0,0,1,3.36.52,6.19,6.19,0,0,1,2.34,1.39A7.38,7.38,0,0,1,381.15,36,6.39,6.39,0,0,1,381.82,37.9Z"/><path class="c" d="M394.5,53.86a7.17,7.17,0,0,1-.12-1.49,3.33,3.33,0,0,1-1.64,1.36,5.94,5.94,0,0,1-2.33.46,5.28,5.28,0,0,1-4.13-1.66,5.92,5.92,0,0,1-1.51-4.13V39h4.54v8.42a2.75,2.75,0,0,0,.61,1.85,2.23,2.23,0,0,0,1.78.71,2.37,2.37,0,0,0,1.8-.7,2.52,2.52,0,0,0,.67-1.83V39h4.54V51.21a21.32,21.32,0,0,0,.15,2.65Z"/><path class="c" d="M407.09,53.86h-4.38V32.26h4.44v8.17a3.86,3.86,0,0,1,1.68-1.25,6.45,6.45,0,0,1,2.62-.51,6.28,6.28,0,0,1,5,2.17,8.21,8.21,0,0,1,1.86,5.56,8,8,0,0,1-2,5.6,6.56,6.56,0,0,1-5.09,2.19,5.54,5.54,0,0,1-2.53-.55,3.87,3.87,0,0,1-1.65-1.45Zm6.72-7.43a3.66,3.66,0,0,0-1-2.73,3.27,3.27,0,0,0-2.38-.94,3.36,3.36,0,0,0-2.41.94,3.67,3.67,0,0,0-1,2.73,3.63,3.63,0,0,0,1,2.73,3.27,3.27,0,0,0,2.39,1,3.22,3.22,0,0,0,2.37-1A3.66,3.66,0,0,0,413.81,46.43Z"/><path class="c" d="M420.05,49.65,423.9,49a2.11,2.11,0,0,0,.64,1.42,2.3,2.3,0,0,0,1.68.58,2,2,0,0,0,1.29-.37,1.18,1.18,0,0,0,.44-.92c0-.59-.48-1-1.46-1.22l-1.7-.39a5.94,5.94,0,0,1-3.34-1.68,4.19,4.19,0,0,1-1.08-2.88A4.49,4.49,0,0,1,422,40a5.91,5.91,0,0,1,4.07-1.44A6.11,6.11,0,0,1,430.42,40,4.81,4.81,0,0,1,432,43l-3.76.69a2.09,2.09,0,0,0-.61-1.32,2.12,2.12,0,0,0-1.51-.5,1.9,1.9,0,0,0-1.13.35,1.11,1.11,0,0,0-.48.93c0,.6.39,1,1.17,1.1l2,.39a6.19,6.19,0,0,1,3.41,1.7,4.23,4.23,0,0,1,1.16,3,4.71,4.71,0,0,1-1.55,3.53,6.06,6.06,0,0,1-4.36,1.48,8.22,8.22,0,0,1-2.91-.48,4.82,4.82,0,0,1-1.94-1.24,6.28,6.28,0,0,1-1-1.5A4.12,4.12,0,0,1,420.05,49.65Z"/><path class="c" d="M442,42.76a3.24,3.24,0,0,0-2.43,1,3.67,3.67,0,0,0-1,2.71,3.59,3.59,0,0,0,1,2.69,3.37,3.37,0,0,0,2.46,1,3.05,3.05,0,0,0,3.07-2.21l4,1.23a6.85,6.85,0,0,1-2.4,3.64A7.18,7.18,0,0,1,442,54.31a7.86,7.86,0,0,1-5.66-2.22,7.49,7.49,0,0,1-2.31-5.63,7.66,7.66,0,0,1,7.82-7.88,7.27,7.27,0,0,1,4.74,1.5A6.62,6.62,0,0,1,449,43.75L445,45a3.16,3.16,0,0,0-1-1.58A3,3,0,0,0,442,42.76Z"/><path class="c" d="M461.32,39v4.48a6.25,6.25,0,0,0-1.44-.15,3.38,3.38,0,0,0-2.49,1,4.18,4.18,0,0,0-1,3v6.47h-4.53V39h4.38v2a3.31,3.31,0,0,1,1.64-1.64,5.27,5.27,0,0,1,2.21-.51A4.28,4.28,0,0,1,461.32,39Z"/><path class="c" d="M464.45,36.38a2.57,2.57,0,0,1-.78-1.88,2.54,2.54,0,0,1,.78-1.88,2.5,2.5,0,0,1,1.85-.78,2.59,2.59,0,0,1,1.89.78A2.51,2.51,0,0,1,469,34.5a2.54,2.54,0,0,1-.79,1.88,2.62,2.62,0,0,1-1.89.77A2.53,2.53,0,0,1,464.45,36.38Zm4.15,17.48h-4.54V39h4.54Z"/><path class="c" d="M477,53.86h-4.39V32.26H477v8.17a3.88,3.88,0,0,1,1.67-1.25,6.49,6.49,0,0,1,2.63-.51,6.29,6.29,0,0,1,5,2.17,8.21,8.21,0,0,1,1.86,5.56,8,8,0,0,1-2,5.6,6.57,6.57,0,0,1-5.09,2.19,5.58,5.58,0,0,1-2.54-.55A3.9,3.9,0,0,1,477,52.19Zm6.72-7.43a3.66,3.66,0,0,0-1-2.73,3.3,3.3,0,0,0-2.39-.94,3.35,3.35,0,0,0-2.4.94,3.63,3.63,0,0,0-1,2.73,3.63,3.63,0,0,0,1,2.73,3.4,3.4,0,0,0,4.76,0A3.7,3.7,0,0,0,483.67,46.43Z"/><path class="c" d="M500.82,48.52l3.79,1.08A6.11,6.11,0,0,1,502.26,53a7.3,7.3,0,0,1-4.48,1.33,7.67,7.67,0,0,1-5.48-2.15,7.58,7.58,0,0,1-2.25-5.76,7.63,7.63,0,0,1,2.19-5.64,7.17,7.17,0,0,1,5.21-2.18,7.33,7.33,0,0,1,5.45,2,7.63,7.63,0,0,1,2,5.59,6.25,6.25,0,0,1-.09,1.41H494.47a2.77,2.77,0,0,0,1,2,3.51,3.51,0,0,0,2.33.82A2.83,2.83,0,0,0,500.82,48.52Zm-6.26-3.85h5.94a2.72,2.72,0,0,0-.79-1.76,2.94,2.94,0,0,0-2.2-.74,2.82,2.82,0,0,0-2.95,2.5Z"/><rect class="e" x="589.68" y="179.68" width="261.08" height="29.49"/><path class="c" d="M44.54,210.1v.1l7.69,3.37v1.83L42.44,211v-1.54L52.23,205v1.83Z"/><path class="c" d="M55.4,201.73a1.22,1.22,0,1,1,1.22,1.21A1.22,1.22,0,0,1,55.4,201.73Zm.35,3.32h1.74V216H55.75Z"/><path class="c" d="M60.81,205.05h1.67v1.72h.16a3.28,3.28,0,0,1,3.28-1.91c2.45,0,3.82,1.45,3.82,4V216H68v-6.65c0-2-.83-2.89-2.58-2.89a2.76,2.76,0,0,0-2.86,3.08V216H60.81Z"/><path class="c" d="M82.83,210.51c0,3.41-1.81,5.65-4.59,5.65a3.67,3.67,0,0,1-3.41-1.83h-.16v5.29H72.92V205.05h1.66v1.82h.17a3.94,3.94,0,0,1,3.49-2C81,204.86,82.83,207.08,82.83,210.51Zm-1.8,0c0-2.55-1.2-4.08-3.19-4.08s-3.22,1.57-3.22,4.08,1.24,4.08,3.21,4.08S81,213.06,81,210.51Z"/><path class="c" d="M94.41,216H92.74v-1.71h-.16a3.41,3.41,0,0,1-3.38,1.9c-2.45,0-3.73-1.46-3.73-4v-7.07h1.74v6.65c0,2,.73,2.87,2.47,2.87a2.74,2.74,0,0,0,3-3.06v-6.46h1.75Z"/><path class="c" d="M100.16,202.22v2.83h2.43v1.46h-2.43v6.18c0,1.28.49,1.83,1.62,1.83a7.32,7.32,0,0,0,.81,0V216a5.87,5.87,0,0,1-1,.1c-2.25,0-3.15-.83-3.15-2.92v-6.62H96.66v-1.46h1.76v-2.83Z"/><path class="c" d="M118.36,208.39a2.71,2.71,0,0,0-2.82-2c-2,0-3.2,1.57-3.2,4s1.26,4.12,3.2,4.12a2.63,2.63,0,0,0,2.82-1.91h1.76c-.31,2-1.94,3.48-4.57,3.48-3.06,0-5-2.22-5-5.69s1.94-5.61,5-5.61a4.28,4.28,0,0,1,4.58,3.53Z"/><path class="c" d="M122.8,200.71h1.74V216H122.8Z"/><path class="c" d="M127.28,212.91c0-1.95,1.44-3.08,4-3.23l3.15-.19v-1c0-1.34-.84-2.08-2.47-2.08-1.31,0-2.22.49-2.46,1.35h-1.76c.23-1.75,1.95-2.9,4.28-2.9,2.67,0,4.16,1.36,4.16,3.63V216h-1.67v-1.61h-.16a3.75,3.75,0,0,1-3.36,1.8C128.85,216.16,127.28,214.91,127.28,212.91Zm7.13-1v-1l-2.94.2c-1.66.11-2.39.69-2.39,1.78s.95,1.76,2.21,1.76A2.86,2.86,0,0,0,134.41,211.9Z"/><path class="c" d="M143.2,204.86c2.29,0,3.88,1.13,4.11,2.92h-1.72a2.22,2.22,0,0,0-2.4-1.44c-1.3,0-2.31.65-2.31,1.63,0,.75.61,1.21,1.89,1.53l1.69.4c2,.5,3,1.39,3,3,0,2-1.89,3.3-4.37,3.3s-4.11-1.16-4.3-3h1.8a2.39,2.39,0,0,0,2.56,1.51c1.47,0,2.52-.69,2.52-1.7,0-.75-.57-1.25-1.73-1.54L142.1,211c-2-.5-3-1.38-3-3C139.13,206.22,140.88,204.86,143.2,204.86Z"/><path class="c" d="M153.86,204.86c2.29,0,3.88,1.13,4.11,2.92h-1.72a2.22,2.22,0,0,0-2.4-1.44c-1.3,0-2.31.65-2.31,1.63,0,.75.61,1.21,1.89,1.53l1.69.4c2,.5,3,1.39,3,3,0,2-1.9,3.3-4.38,3.3s-4.1-1.16-4.3-3h1.8a2.39,2.39,0,0,0,2.56,1.51c1.47,0,2.52-.69,2.52-1.7,0-.75-.57-1.25-1.73-1.54l-1.87-.45c-2.05-.5-3-1.38-3-3C149.79,206.22,151.54,204.86,153.86,204.86Z"/><path class="c" d="M161.3,208.79v-1.56h9.38v1.56Zm0,4.38v-1.56h9.38v1.56Z"/><path class="c" d="M174.52,207.12l1-5.77h1.93l-1.59,5.77Zm3.88,0,1.17-5.77h1.93l-1.79,5.77Z"/><path class="c" d="M184.63,205.05h1.66v1.72h.16a3.1,3.1,0,0,1,3.05-1.91,3.16,3.16,0,0,1,3,1.91h.16a3.66,3.66,0,0,1,3.34-1.91c2.23,0,3.48,1.27,3.48,3.56V216h-1.74v-7.14c0-1.61-.76-2.4-2.3-2.4a2.46,2.46,0,0,0-2.54,2.52v7h-1.74v-7.41a2.07,2.07,0,0,0-2.28-2.13,2.63,2.63,0,0,0-2.53,2.77V216h-1.74Z"/><path class="c" d="M202.43,219.86v-1.49a4.26,4.26,0,0,0,.73,0c1,0,1.55-.47,2-1.79l.2-.65-4-10.93h1.88l3,9h.16l3-9h1.85L207,216.64c-.93,2.53-1.8,3.28-3.74,3.28A5.22,5.22,0,0,1,202.43,219.86Z"/><path class="c" d="M213.27,210.92v-1.66h6.65v1.66Z"/><path class="c" d="M230.41,208.39a2.72,2.72,0,0,0-2.82-2c-2,0-3.2,1.57-3.2,4s1.26,4.12,3.2,4.12a2.64,2.64,0,0,0,2.82-1.91h1.76c-.31,2-1.94,3.48-4.57,3.48-3.06,0-5-2.22-5-5.69s1.94-5.61,5-5.61a4.28,4.28,0,0,1,4.58,3.53Z"/><path class="c" d="M234.85,200.71h1.74V216h-1.74Z"/><path class="c" d="M239.33,212.91c0-1.95,1.44-3.08,4-3.23l3.15-.19v-1c0-1.34-.84-2.08-2.47-2.08-1.31,0-2.22.49-2.46,1.35h-1.77c.24-1.75,2-2.9,4.29-2.9,2.66,0,4.15,1.36,4.15,3.63V216h-1.66v-1.61h-.16a3.77,3.77,0,0,1-3.36,1.8C240.9,216.16,239.33,214.91,239.33,212.91Zm7.13-1v-1l-2.94.2c-1.66.11-2.39.69-2.39,1.78s.94,1.76,2.21,1.76A2.87,2.87,0,0,0,246.46,211.9Z"/><path class="c" d="M255.25,204.86c2.29,0,3.88,1.13,4.11,2.92h-1.72a2.23,2.23,0,0,0-2.4-1.44c-1.3,0-2.31.65-2.31,1.63,0,.75.6,1.21,1.89,1.53l1.68.4c2.06.5,3.05,1.39,3.05,3,0,2-1.89,3.3-4.37,3.3s-4.11-1.16-4.3-3h1.79a2.41,2.41,0,0,0,2.57,1.51c1.47,0,2.52-.69,2.52-1.7,0-.75-.57-1.25-1.73-1.54l-1.88-.45c-2-.5-3-1.38-3-3C251.17,206.22,252.93,204.86,255.25,204.86Z"/><path class="c" d="M265.91,204.86c2.29,0,3.88,1.13,4.11,2.92H268.3a2.23,2.23,0,0,0-2.4-1.44c-1.3,0-2.31.65-2.31,1.63,0,.75.6,1.21,1.89,1.53l1.68.4c2.06.5,3,1.39,3,3,0,2-1.89,3.3-4.37,3.3s-4.11-1.16-4.3-3h1.79a2.41,2.41,0,0,0,2.57,1.51c1.47,0,2.52-.69,2.52-1.7,0-.75-.57-1.25-1.73-1.54l-1.88-.45c-2-.5-3-1.38-3-3C261.83,206.22,263.59,204.86,265.91,204.86Z"/><path class="c" d="M273.11,207.12l1-5.77H276l-1.59,5.77Zm3.88,0,1.17-5.77h1.93l-1.79,5.77Z"/><path class="c" d="M291.54,202.22v2.83H294v1.46h-2.44v6.18c0,1.28.49,1.83,1.63,1.83a7.57,7.57,0,0,0,.81,0V216a6,6,0,0,1-1,.1c-2.25,0-3.15-.83-3.15-2.92v-6.62H288v-1.46h1.76v-2.83Z"/><path class="c" d="M296.76,219.86v-1.49a4.33,4.33,0,0,0,.73,0c1,0,1.55-.47,2-1.79l.2-.65-4-10.93h1.88l3,9h.17l3-9h1.86l-4.27,11.59c-.93,2.53-1.8,3.28-3.74,3.28A5.32,5.32,0,0,1,296.76,219.86Z"/><path class="c" d="M317.79,210.51c0,3.41-1.81,5.65-4.59,5.65a3.66,3.66,0,0,1-3.41-1.83h-.17v5.29h-1.74V205.05h1.66v1.82h.17a3.92,3.92,0,0,1,3.49-2C316,204.86,317.79,207.08,317.79,210.51Zm-1.8,0c0-2.55-1.2-4.08-3.2-4.08s-3.22,1.57-3.22,4.08,1.25,4.08,3.22,4.08S316,213.06,316,210.51Z"/><path class="c" d="M329.5,213.14c-.5,1.87-2.2,3-4.6,3-3,0-4.92-2.19-4.92-5.64s1.93-5.66,4.92-5.66,4.75,2.09,4.75,5.49V211h-7.86v.08c.1,2.16,1.3,3.52,3.16,3.52a2.81,2.81,0,0,0,2.81-1.48Zm-7.71-3.53h6c0-1.94-1.19-3.21-2.93-3.21A3.11,3.11,0,0,0,321.79,209.61Z"/><path class="c" d="M332.78,208.79v-1.56h9.38v1.56Zm0,4.38v-1.56h9.38v1.56Z"/><path class="c" d="M346,206.81v-5.46h1.62v5.46Zm3.82,0v-5.46h1.62v5.46Z"/><path class="c" d="M362.19,208.39a2.72,2.72,0,0,0-2.82-2c-2,0-3.2,1.57-3.2,4s1.25,4.12,3.2,4.12a2.64,2.64,0,0,0,2.82-1.91H364c-.32,2-1.95,3.48-4.57,3.48-3.06,0-5-2.22-5-5.69s1.95-5.61,5-5.61a4.29,4.29,0,0,1,4.58,3.53Z"/><path class="c" d="M366.63,200.71h1.74v6.06h.16a3.4,3.4,0,0,1,3.36-1.91c2.31,0,3.77,1.48,3.77,4V216h-1.74v-6.65c0-1.93-.87-2.89-2.52-2.89a2.81,2.81,0,0,0-3,3.08V216h-1.74Z"/><path class="c" d="M387.82,213.14c-.5,1.87-2.21,3-4.6,3-3,0-4.92-2.19-4.92-5.64s1.92-5.66,4.92-5.66S388,207,388,210.35V211h-7.85v.08c.09,2.16,1.3,3.52,3.15,3.52a2.83,2.83,0,0,0,2.82-1.48Zm-7.71-3.53h6c0-1.94-1.19-3.21-2.93-3.21A3.11,3.11,0,0,0,380.11,209.61Z"/><path class="c" d="M398,208.39a2.72,2.72,0,0,0-2.82-2c-2,0-3.2,1.57-3.2,4s1.26,4.12,3.2,4.12a2.64,2.64,0,0,0,2.82-1.91h1.76c-.31,2-1.95,3.48-4.57,3.48-3.06,0-5-2.22-5-5.69s1.94-5.61,5-5.61a4.28,4.28,0,0,1,4.58,3.53Z"/><path class="c" d="M409.06,205.05h2.14l-4.7,4.68,5,6.24H409.3l-4.1-5.12-1,1V216h-1.74V200.71h1.74v9.11h.16Z"/><path class="c" d="M415.51,214.23h-.16V216h-1.66V200.71h1.74v6.06h.16a3.79,3.79,0,0,1,3.43-1.91c2.77,0,4.57,2.22,4.57,5.65s-1.81,5.65-4.57,5.65A3.93,3.93,0,0,1,415.51,214.23Zm-.12-3.72c0,2.52,1.23,4.08,3.22,4.08s3.18-1.53,3.18-4.08-1.18-4.08-3.18-4.08S415.39,208,415.39,210.51Z"/><path class="c" d="M425.79,210.51c0-3.52,1.92-5.65,5-5.65s5,2.13,5,5.65-1.93,5.65-5,5.65S425.79,214,425.79,210.51Zm8.26,0c0-2.59-1.16-4.08-3.23-4.08s-3.23,1.49-3.23,4.08,1.16,4.08,3.23,4.08S434.05,213.09,434.05,210.51Z"/><path class="c" d="M441.79,211.88l-2.6,4.12h-2l3.74-5.46-3.78-5.46h2.07l2.6,4.06H442l2.56-4.06h2l-3.71,5.39L446.6,216h-2.07L442,211.88Z"/><path class="c" d="M449.14,206.81v-5.46h1.62v5.46Zm3.82,0v-5.46h1.62v5.46Z"/><path class="c" d="M464.14,215.52a2.08,2.08,0,0,1-.62-1.5,2.11,2.11,0,0,1,3.62-1.49,2,2,0,0,1,.64,1.49,2.12,2.12,0,0,1-3.64,1.5Z"/><path class="c" d="M470.93,215.52a2.08,2.08,0,0,1-.62-1.5,2.11,2.11,0,0,1,3.62-1.49,2,2,0,0,1,.63,1.49,2.19,2.19,0,0,1-2.13,2.14A2,2,0,0,1,470.93,215.52Z"/><path class="c" d="M477.72,215.52a2,2,0,0,1-.62-1.5,2.13,2.13,0,0,1,2.11-2.12,2.09,2.09,0,0,1,1.51.63,2,2,0,0,1,.63,1.49,2,2,0,0,1-.63,1.49,2.07,2.07,0,0,1-1.51.65A2,2,0,0,1,477.72,215.52Z"/><path class="c" d="M492.14,210.31v-.09l-7.69-3.38V205l9.79,4.42V211l-9.79,4.43v-1.83Z"/><path class="c" d="M44.54,248.1v.1l7.69,3.37v1.83L42.44,249v-1.54L52.23,243v1.83Z"/><path class="c" d="M55.81,238.71h1.74V254H55.81Z"/><path class="c" d="M60.29,250.91c0-1.95,1.44-3.08,4-3.23l3.15-.19v-1c0-1.34-.84-2.08-2.47-2.08-1.31,0-2.22.49-2.46,1.35H60.72c.24-1.75,2-2.9,4.29-2.9,2.66,0,4.15,1.36,4.15,3.63V254H67.5v-1.61h-.16a3.77,3.77,0,0,1-3.37,1.8C61.86,254.16,60.29,252.91,60.29,250.91Zm7.13-1v-1l-2.94.2c-1.66.11-2.39.69-2.39,1.78s.94,1.76,2.21,1.76A2.87,2.87,0,0,0,67.42,249.9Z"/><path class="c" d="M74.31,252.23h-.16V254H72.49V238.71h1.74v6.06h.16a3.79,3.79,0,0,1,3.43-1.91c2.77,0,4.58,2.22,4.58,5.65s-1.82,5.65-4.58,5.65A3.93,3.93,0,0,1,74.31,252.23Zm-.12-3.72c0,2.52,1.24,4.08,3.22,4.08s3.18-1.53,3.18-4.08-1.18-4.08-3.18-4.08S74.19,246,74.19,248.51Z"/><path class="c" d="M94.11,251.14c-.51,1.87-2.21,3-4.6,3-3,0-4.92-2.19-4.92-5.64s1.92-5.66,4.92-5.66,4.74,2.09,4.74,5.49V249H86.4v.08c.09,2.16,1.3,3.52,3.15,3.52a2.83,2.83,0,0,0,2.82-1.48Zm-7.71-3.53h6c0-1.94-1.2-3.21-2.93-3.21A3.11,3.11,0,0,0,86.4,247.61Z"/><path class="c" d="M97.09,238.71h1.74V254H97.09Z"/><path class="c" d="M108.32,253.52a2.08,2.08,0,0,1-.62-1.5,2.15,2.15,0,1,1,.62,1.5Z"/><path class="c" d="M115.11,253.52a2.08,2.08,0,0,1-.62-1.5,2.11,2.11,0,0,1,3.62-1.49,2,2,0,0,1,.63,1.49,2.19,2.19,0,0,1-2.14,2.14A2,2,0,0,1,115.11,253.52Z"/><path class="c" d="M121.9,253.52a2,2,0,0,1-.63-1.5,2.15,2.15,0,0,1,2.12-2.12,2.09,2.09,0,0,1,1.51.63,2,2,0,0,1,.63,1.49,2,2,0,0,1-.63,1.49,2.07,2.07,0,0,1-1.51.65A2,2,0,0,1,121.9,253.52Z"/><path class="c" d="M136.32,248.31v-.09l-7.69-3.38V243l9.79,4.42V249l-9.79,4.43v-1.83Z"/><path class="c" d="M143.26,250.15c.22,1.53,1.68,2.5,3.76,2.5s3.41-1.06,3.41-2.51c0-1.25-.91-2-2.92-2.54l-1.88-.49c-2.64-.67-3.79-1.86-3.79-3.94,0-2.48,2.08-4.16,5.17-4.16,2.83,0,4.93,1.68,5.09,4h-1.84c-.25-1.5-1.49-2.39-3.31-2.39s-3.23,1-3.23,2.45c0,1.14.8,1.8,2.81,2.32l1.53.41c3,.76,4.25,1.93,4.25,4.08,0,2.68-2.12,4.4-5.46,4.4-3.1,0-5.24-1.65-5.43-4.17Z"/><path class="c" d="M164,254h-1.66v-1.71h-.16a3.42,3.42,0,0,1-3.39,1.9c-2.45,0-3.72-1.46-3.72-4v-7.07h1.74v6.65c0,2,.73,2.87,2.47,2.87a2.74,2.74,0,0,0,3-3.06v-6.46H164Z"/><path class="c" d="M169.16,252.23H169V254h-1.66V238.71h1.74v6.06h.16a3.79,3.79,0,0,1,3.43-1.91c2.77,0,4.58,2.22,4.58,5.65s-1.82,5.65-4.58,5.65A3.93,3.93,0,0,1,169.16,252.23Zm-.12-3.72c0,2.52,1.24,4.08,3.22,4.08s3.18-1.53,3.18-4.08-1.18-4.08-3.18-4.08S169,246,169,248.51Z"/><path class="c" d="M183.8,242.86c2.29,0,3.89,1.13,4.12,2.92H186.2a2.24,2.24,0,0,0-2.41-1.44c-1.29,0-2.31.65-2.31,1.63,0,.75.61,1.21,1.9,1.53l1.68.4c2.06.5,3.05,1.39,3.05,3,0,2-1.89,3.3-4.38,3.3s-4.1-1.16-4.29-3h1.79a2.4,2.4,0,0,0,2.56,1.51c1.47,0,2.53-.69,2.53-1.7,0-.75-.57-1.25-1.74-1.54l-1.87-.45c-2.05-.5-3-1.38-3-3C179.73,244.22,181.48,242.86,183.8,242.86Z"/><path class="c" d="M198.12,246.39a2.7,2.7,0,0,0-2.81-2c-2,0-3.21,1.57-3.21,4s1.26,4.12,3.21,4.12a2.62,2.62,0,0,0,2.81-1.91h1.77c-.32,2-1.95,3.48-4.57,3.48-3.06,0-5-2.22-5-5.69s1.95-5.61,5-5.61a4.29,4.29,0,0,1,4.58,3.53Z"/><path class="c" d="M202.46,243.05h1.66v1.62h.17a3,3,0,0,1,3-1.81,7.75,7.75,0,0,1,.88,0v1.74a7.2,7.2,0,0,0-1.12-.1,2.67,2.67,0,0,0-2.87,2.65V254h-1.74Z"/><path class="c" d="M210.06,239.73a1.22,1.22,0,1,1,1.22,1.21A1.22,1.22,0,0,1,210.06,239.73Zm.35,3.32h1.74V254h-1.74Z"/><path class="c" d="M217.4,252.23h-.16V254h-1.67V238.71h1.75v6.06h.16a3.77,3.77,0,0,1,3.42-1.91c2.78,0,4.58,2.22,4.58,5.65s-1.81,5.65-4.58,5.65A3.92,3.92,0,0,1,217.4,252.23Zm-.12-3.72c0,2.52,1.23,4.08,3.22,4.08s3.18-1.53,3.18-4.08-1.19-4.08-3.18-4.08S217.28,246,217.28,248.51Z"/><path class="c" d="M237.2,251.14c-.51,1.87-2.21,3-4.6,3-3,0-4.93-2.19-4.93-5.64s1.93-5.66,4.93-5.66,4.74,2.09,4.74,5.49V249h-7.85v.08c.09,2.16,1.29,3.52,3.15,3.52a2.83,2.83,0,0,0,2.82-1.48Zm-7.71-3.53h6c0-1.94-1.2-3.21-2.93-3.21A3.11,3.11,0,0,0,229.49,247.61Z"/><path class="c" d="M242.37,248.1v.1l7.69,3.37v1.83L240.27,249v-1.54l9.79-4.44v1.83Z"/><path class="c" d="M252,257.08l5.27-18.37h1.48l-5.27,18.37Z"/><path class="c" d="M260.55,238.71h1.74V254h-1.74Z"/><path class="c" d="M265,250.91c0-1.95,1.44-3.08,4-3.23l3.15-.19v-1c0-1.34-.84-2.08-2.47-2.08-1.31,0-2.22.49-2.46,1.35h-1.77c.24-1.75,2-2.9,4.29-2.9,2.66,0,4.15,1.36,4.15,3.63V254h-1.66v-1.61h-.16a3.77,3.77,0,0,1-3.37,1.8C266.6,254.16,265,252.91,265,250.91Zm7.13-1v-1l-2.94.2c-1.66.11-2.39.69-2.39,1.78s.94,1.76,2.21,1.76A2.87,2.87,0,0,0,272.16,249.9Z"/><path class="c" d="M279.05,252.23h-.16V254h-1.66V238.71H279v6.06h.16a3.79,3.79,0,0,1,3.43-1.91c2.77,0,4.58,2.22,4.58,5.65s-1.82,5.65-4.58,5.65A3.93,3.93,0,0,1,279.05,252.23Zm-.12-3.72c0,2.52,1.24,4.08,3.22,4.08s3.18-1.53,3.18-4.08-1.18-4.08-3.18-4.08S278.93,246,278.93,248.51Z"/><path class="c" d="M298.85,251.14c-.51,1.87-2.21,3-4.6,3-3,0-4.92-2.19-4.92-5.64s1.92-5.66,4.92-5.66S299,245,299,248.35V249h-7.85v.08c.09,2.16,1.3,3.52,3.15,3.52a2.83,2.83,0,0,0,2.82-1.48Zm-7.71-3.53h6c0-1.94-1.2-3.21-2.93-3.21A3.11,3.11,0,0,0,291.14,247.61Z"/><path class="c" d="M301.83,238.71h1.74V254h-1.74Z"/><path class="c" d="M314.84,248.31v-.09l-7.69-3.38V243l9.79,4.42V249l-9.79,4.43v-1.83Z"/><path class="f" d="M594.1,199.41a2.12,2.12,0,0,1,3-3,2.15,2.15,0,0,1-1.5,3.64A2,2,0,0,1,594.1,199.41Z"/><path class="f" d="M603.54,199.86h-3.15V189.55h3v1.18a2.75,2.75,0,0,1,1.23-1.08,4,4,0,0,1,1.74-.42,3.11,3.11,0,0,1,3,1.62,3.65,3.65,0,0,1,3.19-1.62,3.91,3.91,0,0,1,2.72,1,3.75,3.75,0,0,1,1.1,3v6.68h-3v-6a1.88,1.88,0,0,0-.41-1.25,1.52,1.52,0,0,0-1.23-.49,1.57,1.57,0,0,0-1.26.52,1.78,1.78,0,0,0-.46,1.24v6h-3.11v-6a1.79,1.79,0,0,0-.43-1.25,1.52,1.52,0,0,0-1.23-.49,1.57,1.57,0,0,0-1.25.52,1.86,1.86,0,0,0-.46,1.26Z"/><path class="f" d="M622.85,203.82h-3.32l2.34-5.35-4.34-8.92h3.53l2.51,5.51,2.29-5.51h3.34Z"/><path class="f" d="M636,195h-6.22v-2.84H636Z"/><path class="f" d="M643,192.14a2.29,2.29,0,0,0-1.69.68,2.59,2.59,0,0,0-.68,1.89,2.53,2.53,0,0,0,.7,1.87,2.31,2.31,0,0,0,1.71.68,2.12,2.12,0,0,0,1.4-.44,2.18,2.18,0,0,0,.74-1.09l2.78.85a4.74,4.74,0,0,1-1.67,2.53,5,5,0,0,1-3.25,1.06,5.46,5.46,0,0,1-3.93-1.55,5.19,5.19,0,0,1-1.61-3.91,5.33,5.33,0,0,1,5.44-5.48,5.11,5.11,0,0,1,3.3,1,4.68,4.68,0,0,1,1.66,2.55l-2.83.85a2.22,2.22,0,0,0-.7-1.1A2.06,2.06,0,0,0,643,192.14Z"/><path class="f" d="M653.08,199.86h-3.15v-15h3.15Z"/><path class="f" d="M655.14,197a2.74,2.74,0,0,1,.85-2.11,4.05,4.05,0,0,1,2.2-1l2.43-.37c.5-.07.75-.31.75-.71a1,1,0,0,0-.41-.8,2,2,0,0,0-2.37.13,1.54,1.54,0,0,0-.5,1.07l-2.74-.56a3.56,3.56,0,0,1,1.27-2.36,4.66,4.66,0,0,1,3.25-1.07,4.73,4.73,0,0,1,3.46,1.12,3.92,3.92,0,0,1,1.11,2.87v5a8.77,8.77,0,0,0,.12,1.6h-2.84a4.93,4.93,0,0,1-.11-1.16,3.13,3.13,0,0,1-2.9,1.45,3.66,3.66,0,0,1-2.61-.92A3,3,0,0,1,655.14,197Zm4.34.85a2,2,0,0,0,1.35-.48,2,2,0,0,0,.54-1.58v-.45l-2,.31c-.77.12-1.16.5-1.16,1.14a1.05,1.05,0,0,0,.3.75A1.27,1.27,0,0,0,659.48,197.87Z"/><path class="f" d="M666.24,196.93l2.68-.47a1.47,1.47,0,0,0,.45,1,1.57,1.57,0,0,0,1.17.41,1.39,1.39,0,0,0,.89-.26.81.81,0,0,0,.31-.64c0-.41-.34-.69-1-.85l-1.18-.27a4.12,4.12,0,0,1-2.32-1.17,2.91,2.91,0,0,1-.75-2,3.12,3.12,0,0,1,1.13-2.43,4.1,4.1,0,0,1,2.83-1,4.21,4.21,0,0,1,3,1,3.31,3.31,0,0,1,1.11,2.11l-2.61.47a1.34,1.34,0,0,0-1.47-1.26,1.24,1.24,0,0,0-.79.25.75.75,0,0,0-.34.64c0,.41.27.67.81.77l1.37.27a4.23,4.23,0,0,1,2.37,1.18,2.9,2.9,0,0,1,.81,2.05,3.26,3.26,0,0,1-1.08,2.46,4.2,4.2,0,0,1-3,1,5.7,5.7,0,0,1-2-.33,3.31,3.31,0,0,1-1.35-.86,4.52,4.52,0,0,1-.71-1A3.09,3.09,0,0,1,666.24,196.93Z"/><path class="f" d="M675.91,196.93l2.68-.47a1.52,1.52,0,0,0,.45,1,1.59,1.59,0,0,0,1.17.41,1.37,1.37,0,0,0,.89-.26.81.81,0,0,0,.31-.64c0-.41-.34-.69-1-.85l-1.19-.27a4.15,4.15,0,0,1-2.32-1.17,2.91,2.91,0,0,1-.75-2,3.12,3.12,0,0,1,1.13-2.43,4.12,4.12,0,0,1,2.83-1,4.21,4.21,0,0,1,3,1,3.26,3.26,0,0,1,1.11,2.11l-2.61.47a1.34,1.34,0,0,0-1.47-1.26,1.24,1.24,0,0,0-.79.25.76.76,0,0,0-.33.64c0,.41.26.67.8.77l1.37.27a4.23,4.23,0,0,1,2.37,1.18,2.9,2.9,0,0,1,.81,2.05,3.26,3.26,0,0,1-1.08,2.46,4.2,4.2,0,0,1-3,1,5.7,5.7,0,0,1-2-.33,3.31,3.31,0,0,1-1.35-.86,4.52,4.52,0,0,1-.71-1A3.09,3.09,0,0,1,675.91,196.93Z"/><path class="f" d="M686.31,191.43a2.08,2.08,0,0,1,4.15,0,2.08,2.08,0,0,1-4.15,0Zm0,6.54a2,2,0,0,1,.61-1.46,2,2,0,0,1,2.93,0,2,2,0,0,1,.61,1.46,2.14,2.14,0,0,1-2.08,2.08,2.12,2.12,0,0,1-2.07-2.08Z"/><path class="f" d="M697.66,192.14a2.29,2.29,0,0,0-1.69.68,2.58,2.58,0,0,0-.67,1.89,2.52,2.52,0,0,0,.69,1.87,2.33,2.33,0,0,0,1.71.68,2.12,2.12,0,0,0,2.14-1.53l2.78.85a4.68,4.68,0,0,1-1.67,2.53,4.94,4.94,0,0,1-3.25,1.06,5.46,5.46,0,0,1-3.93-1.55,5.19,5.19,0,0,1-1.61-3.91,5.33,5.33,0,0,1,5.44-5.48,5.11,5.11,0,0,1,3.3,1,4.63,4.63,0,0,1,1.66,2.55l-2.82.85a2.24,2.24,0,0,0-.71-1.1A2,2,0,0,0,697.66,192.14Z"/><path class="f" d="M707.71,193.8v6.06h-3.16v-15h3.16v5.38a3.57,3.57,0,0,1,2.63-.94,3.63,3.63,0,0,1,2.92,1.16,4.34,4.34,0,0,1,1,2.95v6.48h-3.15v-5.94a1.85,1.85,0,0,0-.43-1.29,1.55,1.55,0,0,0-1.25-.49,1.64,1.64,0,0,0-1.2.47A1.71,1.71,0,0,0,707.71,193.8Z"/><path class="f" d="M723.64,196.14l2.64.75a4.28,4.28,0,0,1-1.64,2.36,5.12,5.12,0,0,1-3.11.92,5.32,5.32,0,0,1-3.81-1.49,5.85,5.85,0,0,1,0-7.93,5,5,0,0,1,3.62-1.52,5.1,5.1,0,0,1,3.79,1.4,5.34,5.34,0,0,1,1.38,3.9,4.43,4.43,0,0,1-.06,1h-7.19a1.9,1.9,0,0,0,.73,1.42,2.47,2.47,0,0,0,1.62.57A2,2,0,0,0,723.64,196.14Zm-4.35-2.67h4.13a1.88,1.88,0,0,0-.55-1.23,2.08,2.08,0,0,0-1.53-.52,2,2,0,0,0-1.45.54A1.92,1.92,0,0,0,719.29,193.47Z"/><path class="f" d="M733.25,192.14a2.31,2.31,0,0,0-1.69.68,2.58,2.58,0,0,0-.67,1.89,2.52,2.52,0,0,0,.69,1.87,2.35,2.35,0,0,0,1.71.68,2.1,2.1,0,0,0,2.14-1.53l2.78.85a4.68,4.68,0,0,1-1.67,2.53,4.93,4.93,0,0,1-3.25,1.06,5.47,5.47,0,0,1-3.93-1.55,5.19,5.19,0,0,1-1.61-3.91,5.33,5.33,0,0,1,5.44-5.48,5.11,5.11,0,0,1,3.3,1,4.63,4.63,0,0,1,1.66,2.55l-2.82.85a2.24,2.24,0,0,0-.71-1.1A2,2,0,0,0,733.25,192.14Z"/><path class="f" d="M750.52,189.55l-4,4.33,4.11,6h-3.86l-2.42-3.63-1,1.1v2.53h-3.16v-15h3.16V193l3.13-3.46Z"/><path class="f" d="M758.41,196.14l2.63.75a4.28,4.28,0,0,1-1.64,2.36,5.1,5.1,0,0,1-3.11.92,5.36,5.36,0,0,1-3.81-1.49,5.87,5.87,0,0,1,0-7.93,5,5,0,0,1,3.62-1.52,5.09,5.09,0,0,1,3.79,1.4,5.34,5.34,0,0,1,1.38,3.9,4.43,4.43,0,0,1-.06,1H754a1.89,1.89,0,0,0,.72,1.42,2.47,2.47,0,0,0,1.62.57A2,2,0,0,0,758.41,196.14Zm-4.36-2.67h4.13a1.88,1.88,0,0,0-.55-1.23,2.08,2.08,0,0,0-1.53-.52,2,2,0,0,0-1.45.54A1.92,1.92,0,0,0,754.05,193.47Z"/><path class="f" d="M773.41,184.83V198c0,.63,0,1.24.08,1.85h-3a6.63,6.63,0,0,1-.08-1,2.63,2.63,0,0,1-1.11.88,3.84,3.84,0,0,1-1.65.35,4.82,4.82,0,0,1-3.65-1.53,5.39,5.39,0,0,1-1.45-3.89,5.46,5.46,0,0,1,1.41-3.85,4.65,4.65,0,0,1,3.59-1.52c1.41,0,2.34.35,2.78,1v-5.52Zm-7,8a3,3,0,0,0,0,3.79,2.37,2.37,0,0,0,3.3,0,3,3,0,0,0,0-3.79,2.39,2.39,0,0,0-3.3,0Z"/><path class="f" d="M780.92,192.39h4v-4h2.65v4h3.93V195h-3.93v4h-2.65v-4h-4Z"/><path class="f" d="M802.05,199.86H798.9v-15h3.15Z"/><path class="f" d="M804.11,197a2.74,2.74,0,0,1,.85-2.11,4,4,0,0,1,2.2-1l2.42-.37c.5-.07.75-.31.75-.71a1,1,0,0,0-.4-.8,1.77,1.77,0,0,0-1.11-.32,1.74,1.74,0,0,0-1.26.45,1.6,1.6,0,0,0-.51,1.07l-2.74-.56a3.57,3.57,0,0,1,1.28-2.36,4.65,4.65,0,0,1,3.25-1.07,4.71,4.71,0,0,1,3.45,1.12,3.92,3.92,0,0,1,1.11,2.87v5a7.86,7.86,0,0,0,.13,1.6h-2.85a5,5,0,0,1-.1-1.16,3.14,3.14,0,0,1-2.91,1.45,3.62,3.62,0,0,1-2.6-.92A3,3,0,0,1,804.11,197Zm4.33.85a2,2,0,0,0,1.35-.48,2,2,0,0,0,.54-1.58v-.45l-2,.31c-.77.12-1.16.5-1.16,1.14a1.05,1.05,0,0,0,.3.75A1.26,1.26,0,0,0,808.44,197.87Z"/><path class="f" d="M819.11,199.86h-3.05v-15h3.09v5.69a2.57,2.57,0,0,1,1.16-.87,4.46,4.46,0,0,1,1.83-.35,4.4,4.4,0,0,1,3.5,1.5,5.72,5.72,0,0,1,1.29,3.87,5.56,5.56,0,0,1-1.38,3.89,4.55,4.55,0,0,1-3.53,1.53,3.85,3.85,0,0,1-1.77-.39,2.68,2.68,0,0,1-1.14-1Zm4.67-5.17a2.57,2.57,0,0,0-.66-1.9,2.31,2.31,0,0,0-1.66-.65,2.34,2.34,0,0,0-1.68.65,2.53,2.53,0,0,0-.67,1.9,2.57,2.57,0,0,0,.68,1.9,2.29,2.29,0,0,0,1.67.67,2.24,2.24,0,0,0,1.65-.67A2.6,2.6,0,0,0,823.78,194.69Z"/><path class="f" d="M835.71,196.14l2.64.75a4.28,4.28,0,0,1-1.64,2.36,5.12,5.12,0,0,1-3.11.92,5.32,5.32,0,0,1-3.81-1.49,5.85,5.85,0,0,1,0-7.93,5,5,0,0,1,3.62-1.52,5.1,5.1,0,0,1,3.79,1.4,5.34,5.34,0,0,1,1.38,3.9,4.18,4.18,0,0,1-.07,1h-7.18a1.9,1.9,0,0,0,.73,1.42,2.45,2.45,0,0,0,1.62.57A2,2,0,0,0,835.71,196.14Zm-4.36-2.67h4.13a1.84,1.84,0,0,0-.55-1.23,2,2,0,0,0-1.52-.52,2,2,0,0,0-1.45.54A2,2,0,0,0,831.35,193.47Z"/><path class="f" d="M843.72,199.86h-3.15v-15h3.15Z"/><path class="c" d="M861.53,196.27v3c0,1.62.58,2.28,2,2.28h.4V203h-.56c-2.39,0-3.51-1.12-3.51-3.49V196.9c0-1.62-.56-2.16-2.23-2.16v-1.92c1.67,0,2.23-.54,2.23-2.16v-2.57c0-2.37,1.12-3.49,3.51-3.49h.56V186h-.4c-1.43,0-2,.66-2,2.28v3a2.14,2.14,0,0,1-2.22,2.37v.24A2.14,2.14,0,0,1,861.53,196.27Z"/><path class="c" d="M615.72,237,621,218.6h1.48L617.2,237Z"/><path class="c" d="M627.84,223.9l.16,2.83h-1.37l.16-2.84-2.37,1.61-.68-1.18,2.53-1.32-2.53-1.34.68-1.19,2.37,1.65-.16-2.88H628l-.16,2.88,2.37-1.65.68,1.19L628.37,223l2.52,1.32-.68,1.18Z"/><path class="c" d="M639.23,226.55c0-4.72,2.48-7.66,6.45-7.66a5.7,5.7,0,0,1,5.91,4.76h-1.85a4,4,0,0,0-4.06-3.07c-2.81,0-4.57,2.31-4.57,6s1.76,6,4.58,6a3.92,3.92,0,0,0,4-2.73h1.85c-.48,2.68-2.79,4.41-5.9,4.41C641.72,234.2,639.23,231.27,639.23,226.55Z"/><path class="c" d="M654.54,218.6h1.74v6.06h.16a3.4,3.4,0,0,1,3.36-1.92c2.31,0,3.77,1.48,3.77,4v7.07h-1.74v-6.65c0-1.93-.87-2.9-2.52-2.9a2.82,2.82,0,0,0-3,3.08v6.47h-1.74Z"/><path class="c" d="M675.73,231c-.5,1.87-2.21,3-4.6,3-3,0-4.92-2.19-4.92-5.64s1.92-5.67,4.92-5.67,4.75,2.1,4.75,5.5v.66H668V229c.09,2.15,1.3,3.52,3.15,3.52A2.83,2.83,0,0,0,674,231ZM668,227.5h6c0-1.94-1.19-3.22-2.93-3.22A3.12,3.12,0,0,0,668,227.5Z"/><path class="c" d="M685.89,226.28a2.72,2.72,0,0,0-2.82-2c-2,0-3.2,1.58-3.2,4.05s1.25,4.12,3.2,4.12a2.64,2.64,0,0,0,2.82-1.91h1.76c-.31,2-1.94,3.48-4.57,3.48-3.06,0-5-2.22-5-5.69s1.94-5.62,5-5.62a4.29,4.29,0,0,1,4.58,3.54Z"/><path class="c" d="M697,222.94h2.14l-4.7,4.68,5,6.24h-2.22l-4.1-5.12-1,1v4.14h-1.74V218.6h1.74v9.11h.16Z"/><path class="c" d="M710,231c-.5,1.87-2.2,3-4.6,3-3,0-4.92-2.19-4.92-5.64s1.93-5.67,4.92-5.67,4.75,2.1,4.75,5.5v.66h-7.86V229c.1,2.15,1.3,3.52,3.16,3.52a2.83,2.83,0,0,0,2.81-1.48Zm-7.71-3.53h6c0-1.94-1.19-3.22-2.93-3.22A3.12,3.12,0,0,0,702.25,227.5Z"/><path class="c" d="M712.3,228.4c0-3.43,1.81-5.66,4.59-5.66a3.72,3.72,0,0,1,3.42,1.92h.15V218.6h1.75v15.26h-1.67v-1.74h-.16a3.91,3.91,0,0,1-3.49,1.93C714.09,234.05,712.3,231.83,712.3,228.4Zm1.8,0c0,2.55,1.2,4.08,3.19,4.08s3.21-1.56,3.21-4.08-1.23-4.09-3.21-4.09S714.1,225.86,714.1,228.4Z"/><path class="c" d="M731.55,218.6h1.74v15.26h-1.74Z"/><path class="c" d="M736.13,228.4c0-3.52,1.93-5.66,5-5.66s5,2.14,5,5.66-1.92,5.65-5,5.65S736.13,231.9,736.13,228.4Zm8.27,0c0-2.59-1.17-4.09-3.23-4.09s-3.24,1.5-3.24,4.09,1.17,4.08,3.24,4.08S744.4,231,744.4,228.4Z"/><path class="c" d="M748.39,228.4c0-3.52,1.93-5.66,5-5.66s5,2.14,5,5.66-1.92,5.65-5,5.65S748.39,231.9,748.39,228.4Zm8.27,0c0-2.59-1.16-4.09-3.23-4.09s-3.23,1.5-3.23,4.09,1.16,4.08,3.23,4.08S756.66,231,756.66,228.4Z"/><path class="c" d="M768,222.94h2.14l-4.7,4.68,5,6.24h-2.22l-4.09-5.12-1,1v4.14H761.3V218.6h1.75v9.11h.16Z"/><path class="c" d="M782,223.9l.17,2.83h-1.38l.16-2.84-2.37,1.61-.68-1.18L780.4,223l-2.53-1.34.68-1.19,2.37,1.65-.16-2.88h1.38l-.17,2.88,2.38-1.65.67,1.19L782.5,223l2.52,1.32-.67,1.18Z"/><path class="c" d="M786.29,237l5.27-18.37H793L787.77,237Z"/><path class="c" d="M595.44,256.3v-3c0-1.62-.58-2.28-2-2.28H593V249.6h.56c2.39,0,3.52,1.12,3.52,3.49v2.58c0,1.62.56,2.16,2.23,2.16v1.92c-1.67,0-2.23.54-2.23,2.16v2.57c0,2.37-1.13,3.49-3.52,3.49H593v-1.43h.41c1.43,0,2-.66,2-2.28v-3a2.14,2.14,0,0,1,2.22-2.37v-.24A2.14,2.14,0,0,1,595.44,256.3Z"/><polygon class="g" points="286.14 40.1 281.11 43.2 289.63 55.2 307.06 35.84 302.8 35.06 291.18 46.68 286.14 40.1"/><path class="f" d="M508.27,115.53h-1.85V101.3h1.85Z"/><path class="f" d="M510.83,113a2.56,2.56,0,0,1,.78-2,3.66,3.66,0,0,1,2.09-.91l2.56-.38c.48-.06.72-.3.72-.71a1.61,1.61,0,0,0-.51-1.22,2.21,2.21,0,0,0-1.53-.47,2.14,2.14,0,0,0-1.5.52,2.24,2.24,0,0,0-.65,1.39l-1.77-.41a3.12,3.12,0,0,1,1.24-2.21,4.14,4.14,0,0,1,2.64-.86,4,4,0,0,1,3,1,3.4,3.4,0,0,1,1,2.49V114a9.29,9.29,0,0,0,.12,1.55h-1.81a7.19,7.19,0,0,1-.1-1.27,3.48,3.48,0,0,1-1.15,1.1,3.57,3.57,0,0,1-1.9.47,3.18,3.18,0,0,1-2.28-.84A2.63,2.63,0,0,1,510.83,113Zm3.42,1.28a2.9,2.9,0,0,0,2-.67,2.76,2.76,0,0,0,.74-2.13v-.43l-2.89.43a1.83,1.83,0,0,0-1,.46,1.24,1.24,0,0,0-.38,1,1.3,1.3,0,0,0,.43,1A1.5,1.5,0,0,0,514.25,114.28Z"/><path class="f" d="M523.53,115.53H521.7V101.3h1.83v6.11a3,3,0,0,1,1.19-1.15,4.34,4.34,0,0,1,5.14.94,6.1,6.1,0,0,1,0,7.16,4,4,0,0,1-3.22,1.43,3.27,3.27,0,0,1-3.07-1.63Zm4.82-2.32a3.71,3.71,0,0,0,.77-2.45,3.64,3.64,0,0,0-.76-2.43,2.73,2.73,0,0,0-4.06,0,3.53,3.53,0,0,0-.79,2.42,3.63,3.63,0,0,0,.79,2.44,2.66,2.66,0,0,0,4.05,0Z"/><path class="f" d="M540,112.29l1.59.55a4.09,4.09,0,0,1-1.53,2.15,4.39,4.39,0,0,1-2.71.84,4.65,4.65,0,0,1-3.38-1.37,5.54,5.54,0,0,1-.05-7.26,4.54,4.54,0,0,1,6.53-.07,5.23,5.23,0,0,1,1.2,3.61,3.34,3.34,0,0,1,0,.59H534.5a2.9,2.9,0,0,0,.84,2.06,2.75,2.75,0,0,0,2,.81A2.55,2.55,0,0,0,540,112.29Zm-5.45-2.46h5.18a2.39,2.39,0,0,0-2.6-2.42,2.43,2.43,0,0,0-1.81.72A2.6,2.6,0,0,0,534.56,109.83Z"/><path class="f" d="M545.87,115.53H544V101.3h1.85Z"/><path class="f" d="M559.19,106v2a5.73,5.73,0,0,0-.81-.06c-1.73,0-2.6,1-2.6,2.92v4.73h-1.85v-9.46h1.81v1.66a2.93,2.93,0,0,1,2.84-1.81A3.08,3.08,0,0,1,559.19,106Z"/><path class="f" d="M561.12,103.43a1.3,1.3,0,0,1-.38-.93,1.33,1.33,0,0,1,.38-1,1.28,1.28,0,0,1,.94-.39,1.32,1.32,0,0,1,.94.38,1.3,1.3,0,0,1,.39,1,1.27,1.27,0,0,1-.39.93,1.28,1.28,0,0,1-.94.38A1.27,1.27,0,0,1,561.12,103.43Zm1.86,12.1h-1.83v-9.46H563Z"/><path class="f" d="M565.44,116.05l1.79-.42A2.5,2.5,0,0,0,569.8,118c1.93,0,2.9-1,2.9-3.06v-1.36a2.74,2.74,0,0,1-1.12,1.12,3.48,3.48,0,0,1-1.78.43,4.1,4.1,0,0,1-3.11-1.29,4.56,4.56,0,0,1-1.23-3.29,4.65,4.65,0,0,1,1.22-3.28,4,4,0,0,1,3.12-1.32,2.93,2.93,0,0,1,2.91,1.49v-1.32h1.83v8.76a6.24,6.24,0,0,1-.24,1.76,4.68,4.68,0,0,1-.78,1.5,3.48,3.48,0,0,1-1.48,1.08,5.9,5.9,0,0,1-2.24.39,4.59,4.59,0,0,1-3-1A3.69,3.69,0,0,1,565.44,116.05Zm4.64-2.52a2.49,2.49,0,0,0,1.95-.84,3.61,3.61,0,0,0,0-4.38,2.49,2.49,0,0,0-1.95-.84,2.58,2.58,0,0,0-2,.83,3.66,3.66,0,0,0,0,4.41A2.54,2.54,0,0,0,570.08,113.53Z"/><path class="f" d="M579.34,110v5.56h-1.85V101.3h1.85v5.88a3.25,3.25,0,0,1,2.87-1.38,3.1,3.1,0,0,1,2.51,1,4.07,4.07,0,0,1,.87,2.7v6h-1.84v-5.68c0-1.59-.74-2.38-2.21-2.38a1.93,1.93,0,0,0-1.59.7A3,3,0,0,0,579.34,110Z"/><path class="f" d="M591,103.09v3h2.05v1.68H591v4.91a1.12,1.12,0,0,0,1.32,1.3,3.13,3.13,0,0,0,.73-.08v1.58a4,4,0,0,1-1.26.17,2.58,2.58,0,0,1-1.93-.71,2.68,2.68,0,0,1-.71-2v-5.19h-1.8v-1.68h.51a1.41,1.41,0,0,0,1.09-.4,1.52,1.52,0,0,0,.36-1v-1.53Z"/><path class="f" d="M599.85,113a2.57,2.57,0,0,1,.79-2,3.63,3.63,0,0,1,2.08-.91l2.56-.38c.49-.06.73-.3.73-.71a1.61,1.61,0,0,0-.51-1.22,2.23,2.23,0,0,0-1.54-.47,2.09,2.09,0,0,0-1.49.52,2.14,2.14,0,0,0-.65,1.39l-1.77-.41a3.06,3.06,0,0,1,1.24-2.21,4.1,4.1,0,0,1,2.63-.86,4,4,0,0,1,3,1,3.37,3.37,0,0,1,1,2.49V114a10.56,10.56,0,0,0,.11,1.55h-1.8a7.19,7.19,0,0,1-.1-1.27,3.69,3.69,0,0,1-1.15,1.1,3.59,3.59,0,0,1-1.9.47,3.18,3.18,0,0,1-2.28-.84A2.64,2.64,0,0,1,599.85,113Zm3.42,1.28a2.9,2.9,0,0,0,2-.67,2.73,2.73,0,0,0,.75-2.13v-.43l-2.89.43a1.86,1.86,0,0,0-1,.46,1.27,1.27,0,0,0-.37,1,1.29,1.29,0,0,0,.42,1A1.52,1.52,0,0,0,603.27,114.28Z"/><path class="f" d="M615.49,107.75h-2.28v7.78H611.3v-7.78h-1.75v-1.68h1.75v-1.59a3.18,3.18,0,0,1,.88-2.38,3.08,3.08,0,0,1,2.23-.86,2.05,2.05,0,0,1,1.1.19v1.66a2.23,2.23,0,0,0-.81-.12,1.59,1.59,0,0,0-1.05.36,1.52,1.52,0,0,0-.44,1.25v1.49h2.28Z"/><path class="f" d="M620,103.09v3h2v1.68h-2v4.91a1.12,1.12,0,0,0,1.32,1.3,3.2,3.2,0,0,0,.73-.08v1.58a4,4,0,0,1-1.26.17,2.57,2.57,0,0,1-1.93-.71,2.68,2.68,0,0,1-.71-2v-5.19h-1.81v-1.68h.51a1.41,1.41,0,0,0,1.1-.4,1.52,1.52,0,0,0,.36-1v-1.53Z"/><path class="f" d="M631,112.29l1.6.55a4.17,4.17,0,0,1-1.54,2.15,4.39,4.39,0,0,1-2.71.84,4.61,4.61,0,0,1-3.37-1.37,4.92,4.92,0,0,1-1.39-3.69,5,5,0,0,1,1.34-3.57,4.21,4.21,0,0,1,3.18-1.42,4.25,4.25,0,0,1,3.35,1.35,5.27,5.27,0,0,1,1.19,3.61,4.91,4.91,0,0,1,0,.59H625.5a2.85,2.85,0,0,0,.83,2.06,2.77,2.77,0,0,0,2,.81A2.55,2.55,0,0,0,631,112.29Zm-5.44-2.46h5.17a2.39,2.39,0,0,0-2.6-2.42,2.43,2.43,0,0,0-1.81.72A2.54,2.54,0,0,0,625.56,109.83Z"/><path class="f" d="M640.27,106v2a5.73,5.73,0,0,0-.81-.06c-1.73,0-2.6,1-2.6,2.92v4.73H635v-9.46h1.81v1.66a2.93,2.93,0,0,1,2.84-1.81A3.08,3.08,0,0,1,640.27,106Z"/><path class="f" d="M649.08,105.31a1.11,1.11,0,0,1-.37.83,1.28,1.28,0,0,1-.91.35,1.4,1.4,0,0,1-1-.43,1.77,1.77,0,0,1-.41-1.24,3.44,3.44,0,0,1,.82-2.47,2.75,2.75,0,0,1,1.8-1v.92a1.74,1.74,0,0,0-1.05.71,2.14,2.14,0,0,0-.43,1.2.71.71,0,0,1,.39-.1,1.18,1.18,0,0,1,.85.32A1.19,1.19,0,0,1,649.08,105.31Zm3.36,0a1.07,1.07,0,0,1-.37.83,1.26,1.26,0,0,1-.91.35,1.37,1.37,0,0,1-1-.43,1.72,1.72,0,0,1-.42-1.24,3.49,3.49,0,0,1,.82-2.47,2.75,2.75,0,0,1,1.8-1v.92a1.69,1.69,0,0,0-1,.71,2.07,2.07,0,0,0-.43,1.2.63.63,0,0,1,.39-.1,1.17,1.17,0,0,1,.84.32A1.15,1.15,0,0,1,652.44,105.31Z"/><path class="f" d="M656.23,115.53H654.4v-9.46h1.77v1.26a3,3,0,0,1,1.22-1.14,3.71,3.71,0,0,1,1.66-.39,3.29,3.29,0,0,1,1.69.45,2.74,2.74,0,0,1,1.14,1.34A3.34,3.34,0,0,1,665,105.8a3.2,3.2,0,0,1,2.31.92,3.56,3.56,0,0,1,1,2.68v6.13h-1.83V109.6A2.37,2.37,0,0,0,666,108a1.89,1.89,0,0,0-1.51-.59,2,2,0,0,0-1.57.68,2.43,2.43,0,0,0-.61,1.7v5.72h-1.85V109.6a2.32,2.32,0,0,0-.5-1.58,1.86,1.86,0,0,0-1.5-.59,2.06,2.06,0,0,0-1.6.67,2.5,2.5,0,0,0-.61,1.73Z"/><path class="f" d="M673.62,119.49h-2l2.36-5-4.07-8.42H672l3,6.53,2.83-6.53h2Z"/><path class="f" d="M685.79,110.7h-5.33v-1.62h5.33Z"/><path class="f" d="M692.22,107.49a2.69,2.69,0,0,0-2,.87,3.35,3.35,0,0,0-.84,2.44,3.39,3.39,0,0,0,.84,2.43,2.7,2.7,0,0,0,2,.89,2.52,2.52,0,0,0,1.8-.59,3,3,0,0,0,.84-1.36l1.63.71a4.41,4.41,0,0,1-1.49,2.06,4.25,4.25,0,0,1-2.78.89,4.5,4.5,0,0,1-3.42-1.44,5.44,5.44,0,0,1,0-7.2,4.52,4.52,0,0,1,3.4-1.41,4.23,4.23,0,0,1,2.8.88,4.06,4.06,0,0,1,1.41,2.13l-1.67.71a3,3,0,0,0-.83-1.42A2.35,2.35,0,0,0,692.22,107.49Z"/><path class="f" d="M700.52,115.53h-1.85V101.3h1.85Z"/><path class="f" d="M703.08,113a2.56,2.56,0,0,1,.78-2,3.66,3.66,0,0,1,2.09-.91l2.55-.38c.49-.06.73-.3.73-.71a1.61,1.61,0,0,0-.51-1.22,2.21,2.21,0,0,0-1.53-.47,2.14,2.14,0,0,0-1.5.52,2.24,2.24,0,0,0-.65,1.39l-1.77-.41a3.12,3.12,0,0,1,1.24-2.21,4.12,4.12,0,0,1,2.64-.86,4,4,0,0,1,3,1,3.4,3.4,0,0,1,1,2.49V114a9.29,9.29,0,0,0,.12,1.55h-1.81a7.19,7.19,0,0,1-.1-1.27,3.48,3.48,0,0,1-1.15,1.1,3.57,3.57,0,0,1-1.9.47A3.18,3.18,0,0,1,704,115,2.63,2.63,0,0,1,703.08,113Zm3.42,1.28a2.88,2.88,0,0,0,2-.67,2.73,2.73,0,0,0,.75-2.13v-.43l-2.89.43a1.83,1.83,0,0,0-1,.46,1.24,1.24,0,0,0-.38,1,1.3,1.3,0,0,0,.43,1A1.5,1.5,0,0,0,706.5,114.28Z"/><path class="f" d="M713.07,113.08l1.67-.59a1.92,1.92,0,0,0,.67,1.26,2.21,2.21,0,0,0,1.53.51,1.74,1.74,0,0,0,1.18-.37,1.11,1.11,0,0,0,.43-.89c0-.63-.4-1-1.22-1.22l-1.61-.36a3.09,3.09,0,0,1-1.73-.94,2.48,2.48,0,0,1-.63-1.71,2.73,2.73,0,0,1,1-2.11,3.42,3.42,0,0,1,2.36-.88,4.51,4.51,0,0,1,1.62.27,2.77,2.77,0,0,1,1.1.69,4.09,4.09,0,0,1,.59.81,3.28,3.28,0,0,1,.29.77l-1.63.61a2.1,2.1,0,0,0-.14-.47,2.35,2.35,0,0,0-.3-.5,1.47,1.47,0,0,0-.6-.44,2.38,2.38,0,0,0-.93-.17,1.71,1.71,0,0,0-1.13.38,1.13,1.13,0,0,0-.44.88q0,.92,1.08,1.14l1.54.34a3.54,3.54,0,0,1,1.93,1,2.52,2.52,0,0,1,.68,1.8,2.76,2.76,0,0,1-.91,2,3.44,3.44,0,0,1-2.55.91,3.91,3.91,0,0,1-2.73-.88A3.07,3.07,0,0,1,713.07,113.08Z"/><path class="f" d="M722,113.08l1.67-.59a1.92,1.92,0,0,0,.67,1.26,2.21,2.21,0,0,0,1.53.51,1.74,1.74,0,0,0,1.18-.37,1.11,1.11,0,0,0,.43-.89c0-.63-.4-1-1.22-1.22l-1.61-.36a3.09,3.09,0,0,1-1.73-.94,2.48,2.48,0,0,1-.63-1.71,2.75,2.75,0,0,1,1-2.11,3.47,3.47,0,0,1,2.37-.88,4.55,4.55,0,0,1,1.62.27,2.84,2.84,0,0,1,1.1.69,4.09,4.09,0,0,1,.59.81,3.28,3.28,0,0,1,.29.77l-1.63.61a2.1,2.1,0,0,0-.14-.47,2.35,2.35,0,0,0-.3-.5,1.47,1.47,0,0,0-.6-.44,2.38,2.38,0,0,0-.93-.17,1.7,1.7,0,0,0-1.13.38,1.13,1.13,0,0,0-.44.88q0,.92,1.08,1.14l1.54.34a3.58,3.58,0,0,1,1.93,1,2.57,2.57,0,0,1,.68,1.8,2.76,2.76,0,0,1-.91,2,3.44,3.44,0,0,1-2.55.91,3.91,3.91,0,0,1-2.73-.88A3.07,3.07,0,0,1,722,113.08Z"/><path class="f" d="M729.86,102.65a1.11,1.11,0,0,1,.36-.83,1.3,1.3,0,0,1,.92-.35,1.34,1.34,0,0,1,1,.44,1.68,1.68,0,0,1,.42,1.23,3.42,3.42,0,0,1-.81,2.44,3.05,3.05,0,0,1-1.81,1v-.93a1.68,1.68,0,0,0,1-.7,2,2,0,0,0,.43-1.21.67.67,0,0,1-.39.1,1.17,1.17,0,0,1-.84-.32A1.15,1.15,0,0,1,729.86,102.65Zm3.36,0a1.12,1.12,0,0,1,.37-.83,1.26,1.26,0,0,1,.91-.35,1.38,1.38,0,0,1,1,.44,1.72,1.72,0,0,1,.41,1.23,3.42,3.42,0,0,1-.81,2.44,3.05,3.05,0,0,1-1.81,1v-.93a1.72,1.72,0,0,0,1-.7,2.17,2.17,0,0,0,.43-1.21.66.66,0,0,1-.4.1,1.17,1.17,0,0,1-.84-.32A1.19,1.19,0,0,1,733.22,102.65Z"/><path class="f" d="M743.19,103.43a1.27,1.27,0,0,1-.39-.93,1.3,1.3,0,0,1,.39-1,1.24,1.24,0,0,1,.93-.39,1.31,1.31,0,0,1,.94.38,1.28,1.28,0,0,1,.4,1,1.24,1.24,0,0,1-.4.93,1.27,1.27,0,0,1-.94.38A1.23,1.23,0,0,1,743.19,103.43Zm1.85,12.1h-1.83v-9.46H745Z"/><path class="f" d="M750,110.07v5.46h-1.85v-9.46H750v1.36a3.47,3.47,0,0,1,5.42-.59,4.07,4.07,0,0,1,.87,2.7v6h-1.85v-5.68c0-1.59-.73-2.38-2.2-2.38a1.93,1.93,0,0,0-1.62.74A2.89,2.89,0,0,0,750,110.07Z"/><path class="f" d="M768.13,107.49a2.73,2.73,0,0,0-2,.87,3.39,3.39,0,0,0-.83,2.44,3.43,3.43,0,0,0,.83,2.43,2.74,2.74,0,0,0,2.06.89,2.52,2.52,0,0,0,1.8-.59,3,3,0,0,0,.84-1.36l1.63.71a4.49,4.49,0,0,1-1.49,2.06,4.25,4.25,0,0,1-2.78.89,4.49,4.49,0,0,1-3.42-1.44,5.44,5.44,0,0,1,0-7.2,4.52,4.52,0,0,1,3.4-1.41,4.25,4.25,0,0,1,2.8.88,4.06,4.06,0,0,1,1.41,2.13l-1.67.71a3,3,0,0,0-.83-1.42A2.38,2.38,0,0,0,768.13,107.49Z"/><path class="f" d="M776.43,110v5.56h-1.85V101.3h1.85v5.88a3.25,3.25,0,0,1,2.87-1.38,3.12,3.12,0,0,1,2.51,1,4.07,4.07,0,0,1,.87,2.7v6h-1.85v-5.68c0-1.59-.73-2.38-2.2-2.38a1.93,1.93,0,0,0-1.59.7A3,3,0,0,0,776.43,110Z"/><path class="f" d="M792.28,112.29l1.59.55a4.09,4.09,0,0,1-1.53,2.15,4.4,4.4,0,0,1-2.72.84,4.64,4.64,0,0,1-3.37-1.37,5.54,5.54,0,0,1,0-7.26,4.54,4.54,0,0,1,6.53-.07,5.23,5.23,0,0,1,1.2,3.61,3.34,3.34,0,0,1,0,.59h-7.12a2.86,2.86,0,0,0,.84,2.06,2.75,2.75,0,0,0,2,.81A2.57,2.57,0,0,0,792.28,112.29Zm-5.45-2.46H792a2.5,2.5,0,0,0-.7-1.74,2.56,2.56,0,0,0-1.89-.68,2.42,2.42,0,0,0-1.81.72A2.6,2.6,0,0,0,786.83,109.83Z"/><path class="f" d="M800.26,107.49a2.71,2.71,0,0,0-2,.87,3.35,3.35,0,0,0-.84,2.44,3.39,3.39,0,0,0,.84,2.43,2.72,2.72,0,0,0,2,.89,2.52,2.52,0,0,0,1.8-.59,3,3,0,0,0,.84-1.36l1.63.71a4.46,4.46,0,0,1-1.48,2.06,4.3,4.3,0,0,1-2.79.89,4.52,4.52,0,0,1-3.42-1.44,5.44,5.44,0,0,1,0-7.2,4.53,4.53,0,0,1,3.4-1.41,4.28,4.28,0,0,1,2.81.88,4.1,4.1,0,0,1,1.4,2.13l-1.67.71a2.93,2.93,0,0,0-.83-1.42A2.35,2.35,0,0,0,800.26,107.49Z"/><path class="f" d="M815.19,106.07l-4,4,4.11,5.46H813l-3.09-4.16-1.32,1.31v2.85h-1.83V101.3h1.83v9l4.09-4.19Z"/><path class="f" d="M823.19,112.29l1.6.55a4.17,4.17,0,0,1-1.54,2.15,4.37,4.37,0,0,1-2.71.84,4.61,4.61,0,0,1-3.37-1.37,4.92,4.92,0,0,1-1.39-3.69,5,5,0,0,1,1.34-3.57,4.21,4.21,0,0,1,3.18-1.42,4.25,4.25,0,0,1,3.35,1.35,5.23,5.23,0,0,1,1.2,3.61,4.69,4.69,0,0,1,0,.59h-7.12a2.85,2.85,0,0,0,.83,2.06,2.77,2.77,0,0,0,2,.81A2.55,2.55,0,0,0,823.19,112.29Zm-5.44-2.46h5.17a2.51,2.51,0,0,0-.71-1.74,2.56,2.56,0,0,0-1.89-.68,2.45,2.45,0,0,0-1.81.72A2.59,2.59,0,0,0,817.75,109.83Z"/><path class="f" d="M833.83,114.26v-.16a3.11,3.11,0,0,1-1.13,1.21,3.27,3.27,0,0,1-1.8.48,4.08,4.08,0,0,1-3.25-1.43,5.29,5.29,0,0,1-1.23-3.59,5.18,5.18,0,0,1,1.26-3.51,4.08,4.08,0,0,1,3.22-1.44,3.44,3.44,0,0,1,1.89.46,2.44,2.44,0,0,1,1,1.13V101.3h1.83v12.48a15.18,15.18,0,0,0,.1,1.75h-1.79A7.79,7.79,0,0,1,833.83,114.26Zm-5.52-3.49a3.85,3.85,0,0,0,.73,2.44,2.46,2.46,0,0,0,2,1,2.38,2.38,0,0,0,2-1,3.92,3.92,0,0,0,.74-2.45,3.69,3.69,0,0,0-.72-2.38,2.41,2.41,0,0,0-2-.91,2.52,2.52,0,0,0-2,.93A3.61,3.61,0,0,0,828.31,110.77Z"/><path class="f" d="M842.8,113.08l1.67-.59a2,2,0,0,0,.67,1.26,2.21,2.21,0,0,0,1.53.51,1.72,1.72,0,0,0,1.18-.37,1.12,1.12,0,0,0,.44-.89c0-.63-.41-1-1.22-1.22l-1.61-.36a3.08,3.08,0,0,1-1.74-.94,2.47,2.47,0,0,1-.62-1.71,2.75,2.75,0,0,1,1-2.11,3.43,3.43,0,0,1,2.37-.88,4.49,4.49,0,0,1,1.61.27,2.77,2.77,0,0,1,1.1.69,4.09,4.09,0,0,1,.59.81,3.83,3.83,0,0,1,.3.77l-1.64.61a2.06,2.06,0,0,0-.13-.47,3,3,0,0,0-.31-.5,1.47,1.47,0,0,0-.6-.44,2.36,2.36,0,0,0-.92-.17,1.68,1.68,0,0,0-1.13.38,1.11,1.11,0,0,0-.45.88c0,.61.37,1,1.09,1.14l1.53.34a3.57,3.57,0,0,1,1.94,1,2.57,2.57,0,0,1,.68,1.8,2.77,2.77,0,0,1-.92,2,3.44,3.44,0,0,1-2.54.91,4,4,0,0,1-2.74-.88A3.12,3.12,0,0,1,842.8,113.08Z"/><path class="f" d="M855.05,103.09v3h2.05v1.68h-2.05v4.91a1.12,1.12,0,0,0,1.32,1.3,3.13,3.13,0,0,0,.73-.08v1.58a4,4,0,0,1-1.26.17,2.58,2.58,0,0,1-1.93-.71,2.68,2.68,0,0,1-.71-2v-5.19h-1.81v-1.68h.52a1.41,1.41,0,0,0,1.09-.4,1.52,1.52,0,0,0,.36-1v-1.53Z"/><path class="f" d="M859,113a2.56,2.56,0,0,1,.78-2,3.66,3.66,0,0,1,2.09-.91l2.55-.38c.49-.06.73-.3.73-.71a1.61,1.61,0,0,0-.51-1.22,2.21,2.21,0,0,0-1.53-.47,2.14,2.14,0,0,0-1.5.52,2.19,2.19,0,0,0-.65,1.39l-1.77-.41a3.09,3.09,0,0,1,1.24-2.21,4.12,4.12,0,0,1,2.64-.86,4,4,0,0,1,3,1,3.4,3.4,0,0,1,1,2.49V114a9.29,9.29,0,0,0,.12,1.55h-1.81a7.19,7.19,0,0,1-.1-1.27,3.45,3.45,0,0,1-3,1.57,3.18,3.18,0,0,1-2.28-.84A2.63,2.63,0,0,1,859,113Zm3.42,1.28a2.88,2.88,0,0,0,2-.67,2.73,2.73,0,0,0,.75-2.13v-.43l-2.89.43a1.83,1.83,0,0,0-1,.46,1.24,1.24,0,0,0-.38,1,1.26,1.26,0,0,0,.43,1A1.5,1.5,0,0,0,862.39,114.28Z"/><path class="f" d="M872.32,103.09v3h2v1.68h-2v4.91a1.11,1.11,0,0,0,1.32,1.3,3.11,3.11,0,0,0,.72-.08v1.58a3.84,3.84,0,0,1-1.25.17,2.57,2.57,0,0,1-1.93-.71,2.68,2.68,0,0,1-.71-2v-5.19h-1.81v-1.68h.51a1.38,1.38,0,0,0,1.09-.4,1.48,1.48,0,0,0,.37-1v-1.53Z"/><path class="f" d="M883.37,112.29l1.59.55a4.09,4.09,0,0,1-1.53,2.15,4.39,4.39,0,0,1-2.71.84,4.65,4.65,0,0,1-3.38-1.37,5.54,5.54,0,0,1-.05-7.26,4.54,4.54,0,0,1,6.53-.07,5.23,5.23,0,0,1,1.2,3.61,3.34,3.34,0,0,1,0,.59h-7.12a2.9,2.9,0,0,0,.84,2.06,2.75,2.75,0,0,0,2,.81A2.55,2.55,0,0,0,883.37,112.29Zm-5.45-2.46h5.18a2.39,2.39,0,0,0-2.6-2.42,2.42,2.42,0,0,0-1.81.72A2.6,2.6,0,0,0,877.92,109.83Z"/><path class="h" d="M552.59,19.53a36.61,36.61,0,0,1,24,9.12c8.73,7.68,13.71,19.16,14.53,30.76S588.8,82.68,583.38,93"/><polygon class="f" points="555.06 25.46 544.06 20.74 553.65 13.57 555.06 25.46"/><path class="f" d="M323.6,110v5.56h-1.85V101.3h1.85v5.88a3.23,3.23,0,0,1,2.87-1.38,3.12,3.12,0,0,1,2.51,1,4.07,4.07,0,0,1,.87,2.7v6H328v-5.68c0-1.59-.73-2.38-2.2-2.38a1.93,1.93,0,0,0-1.59.7A2.89,2.89,0,0,0,323.6,110Z"/><path class="f" d="M332.77,103.43a1.3,1.3,0,0,1-.38-.93,1.33,1.33,0,0,1,.38-1,1.28,1.28,0,0,1,.94-.39,1.32,1.32,0,0,1,.94.38,1.3,1.3,0,0,1,.39,1,1.27,1.27,0,0,1-.39.93,1.28,1.28,0,0,1-.94.38A1.27,1.27,0,0,1,332.77,103.43Zm1.86,12.1H332.8v-9.45h1.83Z"/><path class="f" d="M344.4,114.26v-.16a3,3,0,0,1-1.13,1.21,3.27,3.27,0,0,1-1.8.48,4.08,4.08,0,0,1-3.25-1.43,5.29,5.29,0,0,1-1.23-3.59,5.18,5.18,0,0,1,1.26-3.51,4.08,4.08,0,0,1,3.22-1.44,3.44,3.44,0,0,1,1.89.46,2.52,2.52,0,0,1,1,1.13V101.3h1.82v12.48a15.18,15.18,0,0,0,.1,1.75H344.5A7.79,7.79,0,0,1,344.4,114.26Zm-5.52-3.49a3.8,3.8,0,0,0,.74,2.44,2.44,2.44,0,0,0,2,1,2.38,2.38,0,0,0,2-1,3.87,3.87,0,0,0,.75-2.45,3.69,3.69,0,0,0-.73-2.38,2.41,2.41,0,0,0-2-.91,2.48,2.48,0,0,0-2,.93A3.56,3.56,0,0,0,338.88,110.77Z"/><path class="f" d="M356,114.26v-.16a3.18,3.18,0,0,1-1.13,1.21,3.32,3.32,0,0,1-1.8.48,4.1,4.1,0,0,1-3.26-1.43,5.29,5.29,0,0,1-1.23-3.59,5.18,5.18,0,0,1,1.26-3.51,4.1,4.1,0,0,1,3.23-1.44,3.48,3.48,0,0,1,1.89.46,2.49,2.49,0,0,1,1,1.13V101.3h1.83v12.48a13.23,13.23,0,0,0,.1,1.75h-1.79A6.81,6.81,0,0,1,356,114.26Zm-5.53-3.49a3.85,3.85,0,0,0,.74,2.44,2.44,2.44,0,0,0,2,1,2.38,2.38,0,0,0,2-1,3.87,3.87,0,0,0,.75-2.45,3.64,3.64,0,0,0-.73-2.38,2.4,2.4,0,0,0-2-.91,2.5,2.5,0,0,0-2,.93A3.61,3.61,0,0,0,350.44,110.77Z"/><path class="f" d="M367.55,112.29l1.59.55a4.09,4.09,0,0,1-1.53,2.15,4.39,4.39,0,0,1-2.71.84,4.65,4.65,0,0,1-3.38-1.37,5.54,5.54,0,0,1,0-7.26,4.54,4.54,0,0,1,6.53-.07,5.23,5.23,0,0,1,1.2,3.61,3.34,3.34,0,0,1,0,.59H362a2.88,2.88,0,0,0,.84,2.06,2.75,2.75,0,0,0,2,.81A2.55,2.55,0,0,0,367.55,112.29Zm-5.45-2.46h5.18a2.39,2.39,0,0,0-2.6-2.42,2.43,2.43,0,0,0-1.81.72A2.6,2.6,0,0,0,362.1,109.83Z"/><path class="f" d="M373.41,110.07v5.46h-1.85v-9.45h1.81v1.35a3.47,3.47,0,0,1,5.42-.59,4.07,4.07,0,0,1,.87,2.7v6h-1.84v-5.68c0-1.59-.74-2.38-2.21-2.38a2,2,0,0,0-1.62.74A2.89,2.89,0,0,0,373.41,110.07Z"/><path class="f" d="M387.5,103.43a1.3,1.3,0,0,1-.38-.93,1.33,1.33,0,0,1,.38-1,1.28,1.28,0,0,1,.94-.39,1.32,1.32,0,0,1,.94.38,1.3,1.3,0,0,1,.39,1,1.27,1.27,0,0,1-.39.93,1.28,1.28,0,0,1-.94.38A1.27,1.27,0,0,1,387.5,103.43Zm1.86,12.1h-1.83v-9.45h1.83Z"/><path class="f" d="M394.35,110.07v5.46h-1.84v-9.45h1.81v1.35a3.46,3.46,0,0,1,5.41-.59,4,4,0,0,1,.88,2.7v6h-1.85v-5.68c0-1.59-.73-2.38-2.2-2.38a1.93,1.93,0,0,0-1.62.74A2.9,2.9,0,0,0,394.35,110.07Z"/><path class="f" d="M405.39,119.27h-1.83V106.08h1.79v1.47a3.16,3.16,0,0,1,1.24-1.22,3.85,3.85,0,0,1,1.92-.47,3.89,3.89,0,0,1,3.2,1.4,6,6,0,0,1,0,7.11,4,4,0,0,1-3.21,1.42,3.8,3.8,0,0,1-1.85-.43,3.13,3.13,0,0,1-1.22-1.1ZM411,110.8a3.6,3.6,0,0,0-.76-2.37,2.46,2.46,0,0,0-2-.94,2.51,2.51,0,0,0-2,.94,3.61,3.61,0,0,0-.77,2.37,3.66,3.66,0,0,0,.77,2.4,2.67,2.67,0,0,0,4.07,0A3.65,3.65,0,0,0,411,110.8Z"/><path class="f" d="M421.36,114.39a2.42,2.42,0,0,1-1.15,1.08,3.83,3.83,0,0,1-1.65.36,3.3,3.3,0,0,1-2.57-1.07,3.9,3.9,0,0,1-1-2.73v-6h1.85v5.68a2.86,2.86,0,0,0,.52,1.75,1.91,1.91,0,0,0,1.63.69,2.09,2.09,0,0,0,1.67-.66,2.61,2.61,0,0,0,.57-1.76v-5.7h1.85v7.7a16.11,16.11,0,0,0,.09,1.75h-1.77A6.89,6.89,0,0,1,421.36,114.39Z"/><path class="f" d="M428.73,103.09v3h2v1.67h-2v4.91a1.12,1.12,0,0,0,1.32,1.3,3.2,3.2,0,0,0,.73-.08v1.58a4,4,0,0,1-1.26.17,2.57,2.57,0,0,1-1.93-.71,2.68,2.68,0,0,1-.71-2v-5.19h-1.81v-1.67h.51a1.42,1.42,0,0,0,1.1-.41,1.52,1.52,0,0,0,.36-1v-1.53Z"/><path class="f" d="M321.72,129.54a1.27,1.27,0,0,1-.38-.94,1.33,1.33,0,0,1,1.31-1.34,1.3,1.3,0,0,1,1,.39,1.34,1.34,0,0,1,0,1.89,1.33,1.33,0,0,1-1,.38A1.3,1.3,0,0,1,321.72,129.54Zm1.86,12.1h-1.83v-9.46h1.83Z"/><path class="f" d="M328.57,136.17v5.47h-1.84v-9.46h1.8v1.36a3.13,3.13,0,0,1,2.91-1.63,3.07,3.07,0,0,1,2.51,1,4,4,0,0,1,.88,2.69v6H333V136c0-1.59-.74-2.38-2.2-2.38a2,2,0,0,0-1.63.73A3,3,0,0,0,328.57,136.17Z"/><path class="f" d="M346.67,133.6a2.76,2.76,0,0,0-2,.86,4,4,0,0,0,0,4.88,2.72,2.72,0,0,0,2.06.88,2.55,2.55,0,0,0,1.8-.58,3,3,0,0,0,.83-1.36L351,139a4.44,4.44,0,0,1-1.48,2.06,4.29,4.29,0,0,1-2.78.89,4.52,4.52,0,0,1-3.43-1.44,5.06,5.06,0,0,1-1.35-3.6,5,5,0,0,1,1.35-3.61,4.57,4.57,0,0,1,3.41-1.4,4.27,4.27,0,0,1,2.8.88,4.18,4.18,0,0,1,1.41,2.13l-1.68.7a3,3,0,0,0-.82-1.41A2.34,2.34,0,0,0,346.67,133.6Z"/><path class="f" d="M355,136.08v5.56h-1.84V127.4H355v5.88a3.27,3.27,0,0,1,2.88-1.37,3.06,3.06,0,0,1,2.5,1,4,4,0,0,1,.88,2.69v6h-1.85V136c0-1.59-.73-2.38-2.2-2.38a2,2,0,0,0-1.6.7A2.93,2.93,0,0,0,355,136.08Z"/><path class="f" d="M370.82,138.4l1.59.55a4.25,4.25,0,0,1-1.54,2.15,4.37,4.37,0,0,1-2.71.84,4.63,4.63,0,0,1-3.37-1.37,4.92,4.92,0,0,1-1.39-3.69,5,5,0,0,1,1.34-3.58,4.23,4.23,0,0,1,3.18-1.41,4.28,4.28,0,0,1,3.35,1.34,5.23,5.23,0,0,1,1.2,3.61,4.55,4.55,0,0,1,0,.59h-7.12a2.83,2.83,0,0,0,.84,2.07,2.76,2.76,0,0,0,2,.8A2.56,2.56,0,0,0,370.82,138.4Zm-5.45-2.46h5.17a2.39,2.39,0,0,0-2.6-2.42,2.41,2.41,0,0,0-1.8.72A2.53,2.53,0,0,0,365.37,135.94Z"/><path class="f" d="M378.8,133.6a2.76,2.76,0,0,0-2,.86,4,4,0,0,0,0,4.88,2.73,2.73,0,0,0,2.06.88,2.51,2.51,0,0,0,1.8-.58,3,3,0,0,0,.83-1.36l1.64.71a4.54,4.54,0,0,1-1.49,2.06,4.27,4.27,0,0,1-2.78.89,4.49,4.49,0,0,1-3.42-1.44,5,5,0,0,1-1.36-3.6,5,5,0,0,1,1.36-3.61,4.55,4.55,0,0,1,3.4-1.4,4.25,4.25,0,0,1,2.8.88A4.06,4.06,0,0,1,383,134.9l-1.67.7a3,3,0,0,0-.83-1.41A2.34,2.34,0,0,0,378.8,133.6Z"/><path class="f" d="M393.73,132.18l-4,4,4.11,5.47h-2.32l-3.08-4.17-1.32,1.32v2.85h-1.83V127.4h1.83v9l4.09-4.19Z"/><path class="f" d="M401.73,138.4l1.59.55a4.17,4.17,0,0,1-1.53,2.15,4.4,4.4,0,0,1-2.72.84,4.64,4.64,0,0,1-3.37-1.37,5,5,0,0,1-1.38-3.69,5,5,0,0,1,1.33-3.58,4.56,4.56,0,0,1,6.53-.07,5.23,5.23,0,0,1,1.2,3.61,3.27,3.27,0,0,1,0,.59h-7.12a2.87,2.87,0,0,0,.84,2.07,2.76,2.76,0,0,0,2,.8A2.56,2.56,0,0,0,401.73,138.4Zm-5.45-2.46h5.17a2.37,2.37,0,0,0-2.59-2.42,2.42,2.42,0,0,0-1.81.72A2.58,2.58,0,0,0,396.28,135.94Z"/><path class="f" d="M412.37,140.36v-.15a3.16,3.16,0,0,1-1.13,1.2,3.24,3.24,0,0,1-1.8.49,4.1,4.1,0,0,1-3.26-1.43,5.3,5.3,0,0,1-1.23-3.59,5.18,5.18,0,0,1,1.26-3.51,4.1,4.1,0,0,1,3.23-1.44,3.48,3.48,0,0,1,1.89.46,2.45,2.45,0,0,1,1,1.13V127.4h1.83v12.49a13.33,13.33,0,0,0,.1,1.75h-1.79A6.93,6.93,0,0,1,412.37,140.36Zm-5.53-3.48a3.85,3.85,0,0,0,.74,2.44,2.44,2.44,0,0,0,2,.94,2.39,2.39,0,0,0,2-1,3.88,3.88,0,0,0,.75-2.46,3.68,3.68,0,0,0-.73-2.38,2.41,2.41,0,0,0-2-.9,2.52,2.52,0,0,0-2,.92A3.66,3.66,0,0,0,406.84,136.88Z"/><path class="f" d="M421.34,139.18l1.67-.59a1.94,1.94,0,0,0,.67,1.27,2.21,2.21,0,0,0,1.53.5,1.79,1.79,0,0,0,1.18-.36,1.12,1.12,0,0,0,.43-.9c0-.63-.4-1-1.22-1.22l-1.61-.35a3.15,3.15,0,0,1-1.73-.94,2.51,2.51,0,0,1-.63-1.71,2.73,2.73,0,0,1,1-2.11,3.47,3.47,0,0,1,2.37-.88,4.55,4.55,0,0,1,1.62.26,2.78,2.78,0,0,1,1.1.7,4.09,4.09,0,0,1,.59.81,3.21,3.21,0,0,1,.29.76L427,135a2,2,0,0,0-.14-.46,2.13,2.13,0,0,0-.3-.5,1.47,1.47,0,0,0-.6-.44,2.38,2.38,0,0,0-.93-.17,1.71,1.71,0,0,0-1.13.37,1.15,1.15,0,0,0-.44.89q0,.9,1.08,1.14l1.54.33a3.55,3.55,0,0,1,1.93,1,2.52,2.52,0,0,1,.68,1.8,2.78,2.78,0,0,1-.91,2,3.49,3.49,0,0,1-2.55.91,4,4,0,0,1-2.73-.88A3.06,3.06,0,0,1,421.34,139.18Z"/><path class="f" d="M433.59,129.19v3h2v1.67h-2v4.92a1.37,1.37,0,0,0,.3,1,1.38,1.38,0,0,0,1,.32,3.11,3.11,0,0,0,.72-.08v1.57a3.58,3.58,0,0,1-1.26.18,2.6,2.6,0,0,1-1.92-.71,2.68,2.68,0,0,1-.71-2v-5.2h-1.81v-1.67h.51a1.38,1.38,0,0,0,1.09-.4,1.53,1.53,0,0,0,.37-1.05v-1.54Z"/><path class="f" d="M437.5,139.1a2.53,2.53,0,0,1,.79-1.95,3.7,3.7,0,0,1,2.08-.92l2.56-.37c.48-.07.73-.3.73-.71a1.59,1.59,0,0,0-.51-1.22,2.25,2.25,0,0,0-1.54-.47,2,2,0,0,0-1.49.52,2.14,2.14,0,0,0-.65,1.39L437.7,135a3.08,3.08,0,0,1,1.24-2.21,4.15,4.15,0,0,1,2.63-.85,4,4,0,0,1,3,1,3.41,3.41,0,0,1,1,2.49v4.74a9.34,9.34,0,0,0,.11,1.55h-1.81a8.47,8.47,0,0,1-.09-1.28,3.58,3.58,0,0,1-1.15,1.1,3.5,3.5,0,0,1-1.9.48,3.18,3.18,0,0,1-2.28-.84A2.66,2.66,0,0,1,437.5,139.1Zm3.42,1.28a2.85,2.85,0,0,0,2-.67,2.69,2.69,0,0,0,.75-2.12v-.43l-2.89.43a1.93,1.93,0,0,0-1,.45,1.27,1.27,0,0,0-.37,1,1.32,1.32,0,0,0,.42,1A1.53,1.53,0,0,0,440.92,140.38Z"/><path class="f" d="M450.85,129.19v3h2v1.67h-2v4.92a1.13,1.13,0,0,0,1.32,1.3,3.13,3.13,0,0,0,.73-.08v1.57a3.66,3.66,0,0,1-1.26.18,2.64,2.64,0,0,1-1.93-.71,2.67,2.67,0,0,1-.7-2v-5.2H447.2v-1.67h.51a1.39,1.39,0,0,0,1.09-.4,1.52,1.52,0,0,0,.36-1.05v-1.54Z"/><path class="f" d="M461.91,138.4l1.59.55A4.25,4.25,0,0,1,462,141.1a4.37,4.37,0,0,1-2.71.84,4.63,4.63,0,0,1-3.37-1.37,4.92,4.92,0,0,1-1.39-3.69,5,5,0,0,1,1.34-3.58,4.56,4.56,0,0,1,6.53-.07,5.23,5.23,0,0,1,1.2,3.61,4.55,4.55,0,0,1,0,.59H456.4a2.83,2.83,0,0,0,.84,2.07,2.76,2.76,0,0,0,2,.8A2.56,2.56,0,0,0,461.91,138.4Zm-5.45-2.46h5.17a2.51,2.51,0,0,0-.71-1.74,2.48,2.48,0,0,0-1.88-.68,2.42,2.42,0,0,0-1.81.72A2.53,2.53,0,0,0,456.46,135.94Z"/><path class="h" d="M288.05,87.22c.3,16.41,10.29,32.63,25.31,39.52"/><polygon class="f" points="282.13 88.56 288.81 78.64 294.06 89.39 282.13 88.56"/><path class="h" d="M565.78,124.82c-2,4.08-14.32,27.38,9.15,24.93s85.81-22.59,133.73-12.63c5.71,1.19,11.49,3,16,6.72s7.63,9.85,6.5,15.72"/></svg>