<?xml version="1.0" encoding="UTF-8"?>
<svg width="200px" height="200px" viewBox="0 0 200 200" version="1.1" xmlns="http://www.w3.org/2000/svg" xmlns:xlink="http://www.w3.org/1999/xlink">
    <!-- Generator: Sketch 41.1 (35376) - http://www.bohemiancoding.com/sketch -->
    <title>Shape</title>
    <desc>Created with Sketch.</desc>
    <defs></defs>
    <g id="Page-1" stroke="none" stroke-width="1" fill="none" fill-rule="evenodd">
        <path d="M61.9186999,34.2816331 L38.1120102,47.6133794 L51.4437564,23.8066897 L38.1120102,0 L61.9186999,13.3317462 L85.7253895,0 L72.3936433,23.8066897 L85.7253895,47.6133794 L61.9186999,34.2816331 L61.9186999,34.2816331 Z M176.19081,127.603857 L199.9975,114.27211 L186.665754,138.0788 L199.9975,161.88549 L176.19081,148.553744 L152.384121,161.88549 L165.715867,138.0788 L152.384121,114.27211 L176.19081,127.603857 L176.19081,127.603857 Z M199.9975,0 L186.665754,23.8066897 L199.9975,47.6133794 L176.19081,34.2816331 L152.384121,47.6133794 L165.715867,23.8066897 L152.384121,0 L176.19081,13.3317462 L199.9975,0 L199.9975,0 Z M117.531127,102.654446 L140.766456,79.4191168 L120.578383,59.2310439 L97.3430541,82.4663731 L117.531127,102.654446 L117.531127,102.654446 Z M127.339483,50.3749554 L149.622545,72.6580169 C153.336388,76.181407 153.336388,82.3711463 149.622545,86.0849899 L38.4929172,197.214617 C34.7790736,200.928461 28.5893343,200.928461 25.0659442,197.214617 L2.78288269,174.931556 C-0.930960898,171.408166 -0.930960898,165.218426 2.78288269,161.504583 L113.91251,50.3749554 C117.626354,46.6611118 123.816093,46.6611118 127.339483,50.3749554 Z" id="Shape" fill="#4199E3"></path>
    </g>
</svg>