<svg xmlns="http://www.w3.org/2000/svg" xmlns:xlink="http://www.w3.org/1999/xlink" viewBox="0 0 900 390">
  <defs>
    <style>
      .a {
        fill: #eceaff;
      }

      .b {
        fill: #d6d5d5;
      }

      .c {
        fill: #fff;
      }

      .d, .o {
        fill: #4a4a4a;
      }

      .d {
        opacity: 0.14;
      }

      .e {
        fill: #6057c2;
      }

      .f {
        fill: #574fb0;
      }

      .g {
        fill: #7f72fc;
      }

      .h, .v {
        fill: none;
        stroke-miterlimit: 10;
      }

      .h {
        stroke: #b2b2b2;
      }

      .i {
        fill: #a37f3a;
      }

      .j {
        fill: #ffc65a;
      }

      .k {
        fill: #741a14;
      }

      .l {
        fill: #fd1015;
      }

      .m {
        fill: #ffe0e1;
      }

      .n {
        fill: #0e0000;
      }

      .p {
        fill: #a92b22;
      }

      .q {
        fill: #7e73ff;
      }

      .r {
        fill: #b2b2b2;
      }

      .s {
        fill: #eaeaea;
      }

      .t {
        fill: #f2e6ce;
      }

      .u {
        fill: #fcf5e8;
      }

      .v {
        stroke: #4a4a4a;
      }
    </style>
    <symbol id="a" data-name="Panel 2" viewBox="0 0 158.32 140.32">
      <path class="a" d="M150.39,6.44H7.93A8,8,0,0,0,0,14.37v118a8,8,0,0,0,7.93,7.93H150.39a8,8,0,0,0,7.93-7.93v-118A8,8,0,0,0,150.39,6.44ZM17.73,19a5.06,5.06,0,1,1,5.06-5.06A5.06,5.06,0,0,1,17.73,19Zm122.86,0a5.06,5.06,0,1,1,5.06-5.06A5.06,5.06,0,0,1,140.59,19Z"/>
      <g>
        <rect class="b" x="14.27" width="6.92" height="13.93" rx="2.76"/>
        <rect class="b" x="137.13" width="6.92" height="13.93" rx="2.76"/>
      </g>
      <rect class="c" x="9.09" y="46.28" width="141.74" height="82.83" rx="3.47"/>
    </symbol>
    <symbol id="b" data-name="Ribbon" viewBox="0 0 273.24 46.05">
      <rect class="d" x="35.73" y="4.92" width="204.43" height="39.35"/>
      <polygon class="e" points="273.24 38.59 201.82 38.59 201.82 0.07 273.24 0.07 258.34 19.33 273.24 38.59"/>
      <polygon class="f" points="237.14 7.54 201.82 0 201.82 7.54 237.14 7.54"/>
      <polygon class="e" points="0 38.59 71.42 38.59 71.42 0.07 0 0.07 14.9 19.33 0 38.59"/>
      <polygon class="f" points="36.1 7.54 71.42 0 71.42 7.54 36.1 7.54"/>
      <rect class="g" x="36.15" y="7.53" width="201" height="38.52"/>
    </symbol>
    <symbol id="f" data-name="bubble" viewBox="0 0 37.4 27.19">
      <path class="h" d="M19.34.5C9.64.5,1.78,6.36,1.78,13.59a10.84,10.84,0,0,0,3,7.3l-.09,0a5.78,5.78,0,0,1-3.08,4.4c4.75.62,8.89.71,9.68,0a.46.46,0,0,0,.07-.07,22.4,22.4,0,0,0,8,1.44c9.7,0,17.56-5.86,17.56-13.1S29,.5,19.34.5Z"/>
    </symbol>
  </defs>
  <use width="158.32" height="140.32" transform="translate(542.58 249.5) scale(0.81)" xlink:href="#a"/>
  <path class="i" d="M721.61,100.4a14.33,14.33,0,0,1-2.08-8.06c0-.47,0-.93,0-1.36,0-27.8-22.86-46.64-51.05-46.64S617.46,63.18,617.46,91c0,.47,0,1,0,1.49a15.51,15.51,0,0,1-1.85,8.22,15.41,15.41,0,0,0-1.29,10.44l.14.68a19.53,19.53,0,0,0,7,11.25,15.5,15.5,0,0,1,5.28,7.45,43.55,43.55,0,0,0,2.91,7.16,15,15,0,0,1-4.52,10.17,13.7,13.7,0,0,1,8.39-.61A41.68,41.68,0,0,1,623,153a16.4,16.4,0,0,0,10.5.22,59.29,59.29,0,0,0,6-2.94c-1.74,3-4.62,7.84-7.35,10,6.46-.23,11.45-3.32,16.66-7.15-.67,5.72-1.21,5.15-6.56,10.89,2.61.22,13.75-.63,14.19-5.09,0,0,8.35,7.45,12.25,10,0-3.32.94-10,.94-10,1,2.24,7.11,9.38,10.5,10.44a87.91,87.91,0,0,0,1.13-11.09c.29,0,14.19,5.28,18,5.91-.5-3.71-4.87-6.56-5.38-10.27,1.24,1.47,11.15,5.93,12.09,5.48a89.5,89.5,0,0,1-4.6-10.82c-.09,3.68,6.92,6.82,10.09,5.22-3.71-1-8.9-6.57-7.9-8.33a61.31,61.31,0,0,0,6.57-14.56,13,13,0,0,1,5-6.82,19.59,19.59,0,0,0,8-11.93l.14-.69A15.43,15.43,0,0,0,721.61,100.4Z"/>
  <path class="j" d="M181.12,53.72c-26.58-14.95-20.52-42,9.76-6.52"/>
  <path class="j" d="M242.76,53.72c26.58-14.95,20.53-42-9.76-6.52"/>
  <path class="k" d="M257.76,77.27c7.69.8,17.9-.71,25.3-4.8,7.16-4,12.56-13.76,20-13.34l-20.83-6.89-19.44,7.61-8.16,16.08Z"/>
  <path class="k" d="M122.82,59.13c7.44-.42,12.84,9.38,20,13.34,7.4,4.09,17.61,5.6,25.3,4.8L163,59.93,144.21,52.1Z"/>
  <path class="i" d="M256.82,78.59c6.78-31.31,31-23.6,46.12-19.34.25.07.4-.34.18-.52-6.74-5.24-16.48-8.81-22.89-8.71-18.68.29-22.77,7.62-28.37,10.6"/>
  <path class="i" d="M169.06,78.59c-8.62-27.67-31-23.6-46.12-19.34-.25.07-.39-.34-.17-.52,6.73-5.24,16.48-8.81,22.88-8.71,18.69.29,22.77,7.62,28.37,10.6"/>
  <path class="i" d="M263,86.05c-.91-6.12-2.35-13.27-3.08-16C256,55.5,244.63,49.28,229.65,44.43a49.67,49.67,0,0,0-5-1.33,94.06,94.06,0,0,0-12.4-.91A77.85,77.85,0,0,0,197,44.43c-15,4.85-26.74,11.07-30.61,25.6-1.13,4.22-3.86,18.77-3.85,24.11v.5h0c.21,8.22,1.26,11.25,4.85,16.59,2.75,3.29,4.22,7.48,5.38,11.62,1.56,5.59,3.09,16.85,3.81,22.61h71.84c.71-5.76,2.24-17,3.81-22.61,1.11-4,2.5-8,5-11.17,4.18-4.65,6.25-8.23,6.47-17h0v-.5A60.52,60.52,0,0,0,263,86.05Z"/>
  <polygon class="k" points="641.6 109.34 663.69 109.81 691.19 109.34 667.29 95.27 641.6 109.34"/>
  <path class="l" d="M657.45,45.34c1-3.22.63-6.58,1.25-9.86,1.06-5.62,5.19-10.85,5.61-16.52a13.51,13.51,0,0,1,.53-4.29,4.86,4.86,0,0,1,4-2.91,1.64,1.64,0,0,1,1.29.28.84.84,0,0,1,.15.65c-.15,5,4.66,9.4,5.42,14.35.49,3.27-.82,6.57-.53,9.85.34,3.83,2.83,7.39,5.26,10.82"/>
  <path class="m" d="M250.25,147.89v5.77a13,13,0,0,1-.91,4.79c-.1.25-.21.5-.32.76s-.24.49-.37.73a13.57,13.57,0,0,1-2.28,3.05,12.64,12.64,0,0,1-.94.85c-.17.14-.34.28-.52.41a12.41,12.41,0,0,1-1,.7,11.59,11.59,0,0,1-1.15.63c-.32.16-.65.3-1,.43a11.54,11.54,0,0,1-1.64.51l-.43.1c-.23,0-.45.09-.68.12a11.18,11.18,0,0,1-1.31.13c-.2,0-.42,0-.62,0-3.55-4-12.57-6.86-23.14-6.86h-1.55c-10.57,0-19.59,2.84-23.14,6.86-.21,0-.42,0-.63,0a11.22,11.22,0,0,1-1.3-.13l-.68-.12-.43-.1a13.37,13.37,0,0,1-1.44-.44,3.84,3.84,0,0,1-.36-.14,13.08,13.08,0,0,1-3-1.69,6.12,6.12,0,0,1-.5-.39A13.38,13.38,0,0,1,178,160.5c-.18-.3-.35-.6-.51-.92a13,13,0,0,1-1.41-5.92v-5.77c0-.11,0-.23,0-.34.26-5.67,7-10.85,15-16.11,1.39-.91,2.82-1.82,4.26-2.73a8.79,8.79,0,0,1,4.73-1.38h26.13a8.85,8.85,0,0,1,4.74,1.38c1.43.91,2.86,1.82,4.24,2.73,8,5.26,14.79,10.44,15,16.11A1.94,1.94,0,0,1,250.25,147.89Z"/>
  <ellipse class="n" cx="172.98" cy="94.8" rx="8.04" ry="11.56"/>
  <ellipse class="k" cx="199.54" cy="144.41" rx="6.55" ry="7.05"/>
  <ellipse class="k" cx="228.29" cy="145.14" rx="6.55" ry="7.05"/>
  <path class="l" d="M209.36,163.82a1.08,1.08,0,0,1,1-1.54,9.32,9.32,0,0,0,5.9-1.51,26.42,26.42,0,0,0,4.85-4.47,17.12,17.12,0,0,0,3.19-8.15,3.27,3.27,0,0,1,5.18-2.14,12,12,0,0,1,3.22,3.63,18.68,18.68,0,0,1,2.06,9.88c-.06,1.88-.36,3.9-1.68,5.23-1.46,1.49-3.75,1.72-5.83,1.86a59.08,59.08,0,0,1-12.33,0c-2-.3-4.21-.91-5.47-2.53a1.48,1.48,0,0,1-.13-.21Z"/>
  <path class="m" d="M229,165.32a146.5,146.5,0,0,0-15-2.84,141.26,141.26,0,0,0-14.71-.73,4.78,4.78,0,0,0-5.1,3c-.82,2.24,3.17,4.89,5.11,6a2.51,2.51,0,0,1,1.11,1.49c.78,2.6,5.71,5.08,11.91,5.83s11.57-.51,12.94-2.84a2.24,2.24,0,0,1,1.42-1.1c2-.42,6-1.47,6.35-3.31A4.7,4.7,0,0,0,229,165.32Z"/>
  <circle class="c" cx="171.2" cy="90.22" r="2.21"/>
  <ellipse class="c" cx="167.49" cy="93.18" rx="1.26" ry="1.17"/>
  <ellipse class="n" cx="252.81" cy="94.8" rx="8.04" ry="11.56"/>
  <circle class="c" cx="251.03" cy="90.22" r="2.21"/>
  <circle class="o" cx="256.02" cy="101.1" r="2.21"/>
  <circle class="o" cx="171.16" cy="101.72" r="2.21"/>
  <ellipse class="c" cx="247.32" cy="93.18" rx="1.26" ry="1.17"/>
  <path class="n" d="M172.8,83.44a11.85,11.85,0,0,1-5.55-3.93c.19,2.27-.69,3.17-.51,5.44-3.14-.2-5.2.53-8.17-.52l5,4.62a16.31,16.31,0,0,1-4.6,1.23c2.12,0,5,.38,6.71,1.62L171,84Z"/>
  <path class="n" d="M253.89,84l5.36,7.89c1.67-1.24,4.59-1.58,6.71-1.62a16.31,16.31,0,0,1-4.6-1.23l5-4.62c-3,1-5,.32-8.17.52.18-2.27-.7-3.17-.51-5.44a11.85,11.85,0,0,1-5.55,3.93Z"/>
  <ellipse class="n" cx="629.86" cy="92.64" rx="8.04" ry="11.55"/>
  <circle class="c" cx="628.08" cy="88.06" r="2.21"/>
  <ellipse class="c" cx="624.37" cy="91.02" rx="1.26" ry="1.17"/>
  <ellipse class="n" cx="707.56" cy="92" rx="8.04" ry="11.55"/>
  <circle class="c" cx="705.78" cy="87.42" r="2.21"/>
  <ellipse class="c" cx="702.07" cy="90.38" rx="1.26" ry="1.17"/>
  <path class="n" d="M629.68,81.28c-2.1-.51-4.14-2.28-5.55-3.92.19,2.26-.69,3.16-.51,5.43-3.14-.2-5.2.53-8.17-.52l5,4.62a16.34,16.34,0,0,1-4.59,1.23c2.11,0,5,.38,6.7,1.62l5.36-7.89Z"/>
  <path class="n" d="M708.64,81.21,714,89.1c1.67-1.23,4.59-1.58,6.7-1.62a16.25,16.25,0,0,1-4.59-1.23l5-4.62c-3,1.05-5,.32-8.18.52.19-2.27-.69-3.16-.5-5.43-1.41,1.64-3.45,3.41-5.55,3.92Z"/>
  <path class="l" d="M659.46,130.12q-.87,5.35-2,10.66a27.12,27.12,0,0,1-1.83,6c-.77,1.61-1.82,3.06-2.71,4.6a26.51,26.51,0,0,0-3.4,10.29c-.42,3.77.08,7.91,3,10.53a6.39,6.39,0,0,0,5.51,1.57c3-.62,4-3.13,4.83-5.53A60.8,60.8,0,0,0,665,139.39c-.44-2.64-1-5.45.06-7.89,0,0-.2-.87-2.5-1.63S659.46,130.12,659.46,130.12Z"/>
  <path class="l" d="M669.9,131.88c3.25,6.09,3.75,13.22,4.57,20.08s2.23,14.06,6.8,19.24a8.25,8.25,0,0,0,4.21,2.83c3.11.66,6.27-1.86,7.13-4.92s-.15-6.39-1.81-9.11-3.92-5-5.91-7.49a43.79,43.79,0,0,1-9.26-22.7s-.86-.42-3.16.34S669.9,131.88,669.9,131.88Z"/>
  <path class="c" d="M235.9,57.34c5,11.09-3.94,21.81-9,31.22a30.49,30.49,0,0,0-1.73,20.75c-9.08,5.07-19.79,1.34-22.6-8.72-3.51-10.13-4.37-9.08-11-30.86C183,41.59,227.37,38.07,235.9,57.34Z"/>
  <circle class="o" cx="711.12" cy="98.94" r="2.21"/>
  <circle class="o" cx="626.27" cy="99.56" r="2.21"/>
  <polygon class="p" points="642.24 108.81 666.45 106.33 691.82 108.81 667.93 122.87 642.24 108.81"/>
  <path class="j" d="M692.14,108.67l-2.59-.27L667,118.87l-23.47-11-2.34.73L655,119.85a18.9,18.9,0,0,0,24.15-.22Z"/>
  <path class="j" d="M666.82,75.93c2.2,2.48,17.63,27.37,26.3,29.58.19,1.95-.45,5.82-4.77,3.4-29.76-16.68-11.53-17.07-43.19,0-4.27,2.31-5-1.43-4.75-3.4,8.64-2.17,24.1-27.16,26.29-29.58"/>
  <ellipse class="n" cx="675.86" cy="97.63" rx="1.42" ry="3.06" transform="translate(-6.52 123.57) rotate(-10.4)"/>
  <ellipse class="n" cx="656.68" cy="97.44" rx="3.12" ry="1.52" transform="translate(442.34 725.75) rotate(-79.6)"/>
  <use width="273.24" height="46.05" transform="translate(77.47 182.64)" xlink:href="#b"/>
  <use width="273.24" height="46.05" transform="translate(533.69 182.64)" xlink:href="#b"/>
  <g>
    <path class="c" d="M189.1,211.91c0-5.49,3-8.88,8-8.88,4,0,7.09,2.66,7.35,6.34H201a3.8,3.8,0,0,0-3.9-3.22c-2.67,0-4.33,2.2-4.33,5.76s1.66,5.78,4.34,5.78a3.74,3.74,0,0,0,3.9-3.06h3.45c-.29,3.66-3.27,6.18-7.36,6.18C192.15,220.81,189.1,217.42,189.1,211.91Z"/>
    <path class="c" d="M206.71,213.9c0-4.18,2.43-6.73,6.38-6.73s6.38,2.54,6.38,6.73-2.4,6.75-6.38,6.75S206.71,218.13,206.71,213.9Zm9.25,0c0-2.48-1.06-4-2.87-4s-2.87,1.47-2.87,4,1,4,2.87,4S216,216.41,216,213.9Z"/>
    <path class="c" d="M236.23,220.37h-3.64l-2.32-8.92h-.21l-2.29,8.92h-3.59l-3.46-12.92h3.47l1.92,9.27h.22l2.26-9.27h3.27l2.28,9.27h.21l1.93-9.27h3.39Z"/>
  </g>
  <g>
    <path class="c" d="M622.89,211.91c0-5.49,3-8.88,8-8.88,4,0,7.1,2.66,7.36,6.34h-3.46a3.8,3.8,0,0,0-3.9-3.22c-2.67,0-4.32,2.2-4.32,5.76s1.65,5.78,4.33,5.78a3.73,3.73,0,0,0,3.9-3.06h3.46c-.3,3.66-3.28,6.18-7.37,6.18C625.93,220.81,622.89,217.42,622.89,211.91Z"/>
    <path class="c" d="M641.25,202.51h3.36v7.06h.21a4,4,0,0,1,3.91-2.37c2.78,0,4.44,1.75,4.44,4.85v8.32h-3.42v-7.51c0-1.79-.83-2.72-2.38-2.72a2.57,2.57,0,0,0-2.71,2.81v7.42h-3.41Z"/>
    <path class="c" d="M656.28,203.56a1.94,1.94,0,1,1,1.94,1.95A1.94,1.94,0,0,1,656.28,203.56Zm.22,3.89h3.42v12.92H656.5Z"/>
    <path class="c" d="M671.64,212a2.39,2.39,0,0,0-2.57-2c-1.84,0-2.88,1.37-2.88,3.91s1,4,2.88,4a2.35,2.35,0,0,0,2.57-1.95h3.2c-.28,2.89-2.4,4.75-5.77,4.75-4,0-6.33-2.43-6.33-6.77s2.28-6.71,6.33-6.71c3.43,0,5.49,1.89,5.77,4.83Z"/>
    <path class="c" d="M685.59,207.45h3.88L684.54,213l5.28,7.38h-4.06L682,215.12l-.94,1v4.29h-3.42V202.51H681v10h.21Z"/>
    <path class="c" d="M702.77,216.69c-.51,2.43-2.75,4-5.92,4-4,0-6.28-2.48-6.28-6.68s2.38-6.8,6.23-6.8,6.08,2.42,6.08,6.52v1.05H694v.17a2.87,2.87,0,0,0,3,3.12,2.63,2.63,0,0,0,2.65-1.34ZM694,212.56h5.53a2.62,2.62,0,0,0-2.71-2.78A2.77,2.77,0,0,0,694,212.56Z"/>
    <path class="c" d="M705.67,207.45H709v2.07h.21a3.85,3.85,0,0,1,3.83-2.35c2.88,0,4.43,1.75,4.43,4.85v8.35H714v-7.54c0-1.79-.76-2.72-2.38-2.72a2.51,2.51,0,0,0-2.56,2.81v7.45h-3.42Z"/>
  </g>
  <use width="158.32" height="140.32" transform="translate(86.77 249.5) scale(0.81)" xlink:href="#a"/>
  <g>
    <path class="o" d="M126.16,334.75h-1.53v-2.38h-2.28v-1.56h2.28v-2.38h1.53v2.38h2.28v1.56h-2.28Z"/>
    <path class="o" d="M132.44,328.25h-.11l-2.07,1.43V328l2.18-1.51h1.77V335h-1.77Z"/>
    <path class="o" d="M145.41,333.15a2.72,2.72,0,0,1-2.95,2c-2,0-3.13-1.25-3.13-3.34s1.18-3.41,3.1-3.41,3,1.21,3,3.27v.52H141v.08a1.42,1.42,0,0,0,1.47,1.56,1.31,1.31,0,0,0,1.32-.66ZM141,331.08h2.76a1.31,1.31,0,0,0-1.35-1.39A1.38,1.38,0,0,0,141,331.08Z"/>
    <path class="o" d="M146.86,328.52h1.65v1h.11a1.91,1.91,0,0,1,1.91-1.18c1.43,0,2.21.88,2.21,2.43V335H151v-3.78c0-.89-.38-1.36-1.19-1.36a1.26,1.26,0,0,0-1.28,1.41V335h-1.7Z"/>
    <path class="o" d="M160.15,333.15a2.72,2.72,0,0,1-3,2c-2,0-3.13-1.25-3.13-3.34s1.18-3.41,3.11-3.41,3,1.21,3,3.27v.52h-4.44v.08a1.43,1.43,0,0,0,1.48,1.56,1.33,1.33,0,0,0,1.32-.66Zm-4.37-2.07h2.75a1.3,1.3,0,0,0-1.35-1.39A1.37,1.37,0,0,0,155.78,331.08Z"/>
    <path class="o" d="M161.6,328.52h1.65v1h.11a1.66,1.66,0,0,1,1.66-1.13,2.43,2.43,0,0,1,.66.08v1.55a3.2,3.2,0,0,0-.8-.1,1.42,1.42,0,0,0-1.57,1.46V335H161.6Z"/>
    <path class="o" d="M166.56,335.54h1.69c.09.4.57.65,1.31.65.91,0,1.44-.42,1.44-1.15v-1.19h-.1a2.05,2.05,0,0,1-2,1c-1.61,0-2.61-1.25-2.61-3.19s1-3.28,2.65-3.28a2.11,2.11,0,0,1,2,1.14h.11v-1h1.65V335c0,1.52-1.24,2.47-3.19,2.47C167.81,337.43,166.67,336.68,166.56,335.54ZM171,331.7c0-1.14-.55-1.85-1.47-1.85s-1.46.71-1.46,1.84.53,1.85,1.46,1.85S171,332.83,171,331.7Z"/>
    <path class="o" d="M174.57,337.32V336H175c.64,0,1-.21,1.14-.7l.06-.23-2.27-6.51h1.88l1.36,4.9h.11l1.36-4.9h1.8l-2.22,6.56c-.55,1.67-1.35,2.25-3,2.25Z"/>
    <path class="o" d="M133.69,349.15h-1.53v-2.38h-2.28v-1.56h2.28v-2.38h1.53v2.38H136v1.56h-2.28Z"/>
    <path class="o" d="M141,340.71c1.8,0,2.95,1,2.95,2.47,0,1-.44,1.67-1.84,3l-1.76,1.64v.11H144v1.47h-6.1v-1.24l3-2.84c1.05-1,1.28-1.4,1.28-2a1.19,1.19,0,0,0-1.31-1.2,1.31,1.31,0,0,0-1.4,1.37h-1.64A2.85,2.85,0,0,1,141,340.71Z"/>
    <path class="o" d="M148.74,342.92h1.65V344h.11a1.8,1.8,0,0,1,1.78-1.2,1.75,1.75,0,0,1,1.79,1.2h.11a2,2,0,0,1,1.94-1.2,2,2,0,0,1,2.09,2.17v4.44h-1.7v-4c0-.77-.36-1.15-1.08-1.15a1.11,1.11,0,0,0-1.14,1.18v4h-1.64v-4.06a1,1,0,0,0-1.06-1.08,1.16,1.16,0,0,0-1.15,1.25v3.89h-1.7Z"/>
    <path class="o" d="M159.77,341a1,1,0,1,1,1,1A1,1,0,0,1,159.77,341Zm.11,1.94h1.7v6.47h-1.7Z"/>
    <path class="o" d="M163.36,340.46h1.71v8.93h-1.71Z"/>
    <path class="o" d="M170.87,342.92h1.94l-2.46,2.77,2.63,3.7h-2l-1.89-2.63-.47.48v2.15h-1.7v-8.93h1.7v5h.11Z"/>
  </g>
  <g>
    <path class="q" d="M134.22,270.8H133v-1.56h1.21v-.77c0-1.5.77-2.26,2.59-2.26a6,6,0,0,1,1,.08v1.41a4,4,0,0,0-.59,0c-.78,0-1.07.31-1.07.95v.63h1.6v1.56h-1.56v5.9h-2Z"/>
    <path class="q" d="M145.82,274.55c-.29,1.42-1.6,2.32-3.44,2.32-2.3,0-3.65-1.45-3.65-3.9s1.38-4,3.62-4,3.53,1.41,3.53,3.8v.61h-5.17v.11a1.66,1.66,0,0,0,1.72,1.81,1.52,1.52,0,0,0,1.54-.78Zm-5.1-2.41h3.21a1.52,1.52,0,0,0-1.57-1.62A1.6,1.6,0,0,0,140.72,272.14Z"/>
    <path class="q" d="M154.24,274.55c-.3,1.42-1.6,2.32-3.45,2.32-2.29,0-3.65-1.45-3.65-3.9s1.38-4,3.63-4,3.53,1.41,3.53,3.8v.61h-5.18v.11a1.67,1.67,0,0,0,1.73,1.81,1.54,1.54,0,0,0,1.54-.78Zm-5.11-2.41h3.21a1.52,1.52,0,0,0-1.57-1.62A1.61,1.61,0,0,0,149.13,272.14Z"/>
    <path class="q" d="M155.56,272.92c0-2.4,1.17-3.88,3.07-3.88a2.38,2.38,0,0,1,2.25,1.32H161v-4.08h2V276.7h-1.93v-1.18h-.12a2.47,2.47,0,0,1-2.3,1.3C156.73,276.82,155.56,275.33,155.56,272.92Zm2,0c0,1.39.64,2.23,1.7,2.23s1.71-.84,1.71-2.23-.65-2.22-1.71-2.22S157.6,271.55,157.6,272.93Z"/>
    <path class="q" d="M165.3,275.74a1.25,1.25,0,1,1,1.24,1.17A1.12,1.12,0,0,1,165.3,275.74Zm2.34-8.9-.19,6.61h-1.82l-.18-6.61Z"/>
  </g>
  <use width="158.32" height="140.32" transform="translate(223.95 249.5) scale(0.81)" xlink:href="#a"/>
  <g>
    <path class="o" d="M289.48,339.27l1.09,3.57-1.49.77-.71-3.77Zm2.39-1.24,1.16,3.53-1.49.77-.79-3.72Z"/>
    <path class="o" d="M294.16,339.08l1.47-.76.49.93.09,0a1.82,1.82,0,0,1,1-1.89,1.74,1.74,0,0,1,2.14.24l.09-.05a2.06,2.06,0,0,1,1.18-2,2,2,0,0,1,2.86,1l2,3.94-1.51.78-1.84-3.53a1,1,0,0,0-1.49-.52,1.1,1.1,0,0,0-.46,1.57l1.82,3.51-1.46.75-1.86-3.6a1,1,0,0,0-1.45-.46,1.16,1.16,0,0,0-.44,1.63l1.79,3.45-1.51.79Z"/>
    <path class="o" d="M305.24,337a3,3,0,0,1,1.28-4.45c1.74-.91,3.4-.34,4.37,1.52s.5,3.55-1.27,4.46S306.22,338.84,305.24,337Zm4.1-2.12c-.58-1.1-1.38-1.51-2.18-1.09s-.93,1.3-.36,2.41,1.37,1.52,2.18,1.09S309.91,336,309.34,334.84Z"/>
    <path class="o" d="M311.84,333.54a3.19,3.19,0,1,1,5.65-2.94c1,1.88.5,3.55-1.27,4.47S312.82,335.41,311.84,333.54Zm4.1-2.13c-.58-1.1-1.38-1.51-2.18-1.09s-.93,1.31-.36,2.41,1.37,1.52,2.18,1.1S316.51,332.52,315.94,331.41Z"/>
    <path class="o" d="M318,328.58l-1.16-3.53,1.49-.77.79,3.72Zm2.39-1.24-1.08-3.57,1.48-.77.72,3.76Z"/>
  </g>
  <g>
    <path class="q" d="M278.29,267.37v1.87h1.57v1.56h-1.57v3.39c0,.66.3,1,1,1a5,5,0,0,0,.59,0v1.52a5.43,5.43,0,0,1-1,.09c-1.83,0-2.56-.6-2.56-2.07V270.8h-1.17v-1.56h1.17v-1.87Z"/>
    <path class="q" d="M281.11,274.55c0-1.37,1-2.16,2.92-2.27l1.82-.11v-.62c0-.63-.45-1-1.27-1s-1.2.25-1.36.7h-1.83c.13-1.4,1.41-2.27,3.3-2.27s3.12.94,3.12,2.55v5.15h-1.92v-1h-.13a2.43,2.43,0,0,1-2.19,1.1A2.25,2.25,0,0,1,281.11,274.55Zm4.74-.58v-.56l-1.52.1c-.86.06-1.27.37-1.27.91s.48.9,1.17.9A1.48,1.48,0,0,0,285.85,274Z"/>
    <path class="q" d="M289.84,266.28h2V276.7h-2Z"/>
    <path class="q" d="M298.59,269.16h2.27L298,272.39l3.07,4.31H298.7l-2.21-3.06-.54.56v2.5h-2V266.28h2v5.83h.12Z"/>
  </g>
  <g>
    <g>
      <path class="r" d="M157.27,293.26v.82s1.13-.15,1.47.37.2,6.94.2,6.94h.7s.31-7-.41-7.71S157.27,293.26,157.27,293.26Z"/>
      <path class="r" d="M145.59,293.26v.82s-1.13-.15-1.47.37-.2,6.94-.2,6.94h-.7s-.31-7,.41-7.71S145.59,293.26,145.59,293.26Z"/>
      <rect class="b" x="145.59" y="291.79" width="11.67" height="4.09"/>
      <path class="b" d="M142.91,301.39h17a0,0,0,0,1,0,0v14.7a2.35,2.35,0,0,1-2.35,2.35H145.25a2.35,2.35,0,0,1-2.35-2.35v-14.7A0,0,0,0,1,142.91,301.39Z"/>
      <polygon class="s" points="159.95 301.39 142.91 301.39 145.59 295.89 157.27 295.89 159.95 301.39"/>
    </g>
    <g>
      <path class="t" d="M606.59,297.59c-5.06,0-7.89,9.12-7.89,13.47a7.59,7.59,0,0,0,.45,2.62,7.87,7.87,0,0,0,15.3-2.62C614.45,306.71,611.8,297.59,606.59,297.59Z"/>
      <ellipse class="u" cx="609.07" cy="302.67" rx="1.49" ry="2.39" transform="translate(-70.35 271.68) rotate(-23.81)"/>
    </g>
  </g>
  <use width="37.4" height="27.19" transform="translate(258.7 303.49)" xlink:href="#f"/>
  <g>
    <path class="o" d="M582,334.75h-1.53v-2.38h-2.28v-1.56h2.28v-2.38H582v2.38h2.28v1.56H582Z"/>
    <path class="o" d="M588.26,328.25h-.11l-2.07,1.43V328l2.18-1.51H590V335h-1.77Z"/>
    <path class="o" d="M601.23,333.15a2.72,2.72,0,0,1-3,2c-2,0-3.13-1.25-3.13-3.34s1.18-3.41,3.1-3.41,3,1.21,3,3.27v.52h-4.43v.08a1.42,1.42,0,0,0,1.47,1.56,1.31,1.31,0,0,0,1.32-.66Zm-4.38-2.07h2.76a1.31,1.31,0,0,0-1.35-1.39A1.38,1.38,0,0,0,596.85,331.08Z"/>
    <path class="o" d="M602.68,328.52h1.65v1h.11a1.9,1.9,0,0,1,1.91-1.18c1.43,0,2.2.88,2.2,2.43V335h-1.7v-3.78c0-.89-.38-1.36-1.19-1.36a1.26,1.26,0,0,0-1.28,1.41V335h-1.7Z"/>
    <path class="o" d="M616,333.15a2.72,2.72,0,0,1-3,2c-2,0-3.13-1.25-3.13-3.34s1.18-3.41,3.11-3.41,3,1.21,3,3.27v.52h-4.44v.08a1.43,1.43,0,0,0,1.48,1.56,1.3,1.3,0,0,0,1.31-.66Zm-4.37-2.07h2.75a1.31,1.31,0,0,0-1.35-1.39A1.37,1.37,0,0,0,611.6,331.08Z"/>
    <path class="o" d="M617.42,328.52h1.65v1h.11a1.66,1.66,0,0,1,1.66-1.13,2.43,2.43,0,0,1,.66.08v1.55a3.2,3.2,0,0,0-.8-.1,1.43,1.43,0,0,0-1.58,1.46V335h-1.7Z"/>
    <path class="o" d="M622.38,335.54h1.69c.09.4.57.65,1.31.65.91,0,1.44-.42,1.44-1.15v-1.19h-.1a2.05,2.05,0,0,1-2,1c-1.61,0-2.61-1.25-2.61-3.19s1-3.28,2.65-3.28a2.11,2.11,0,0,1,2,1.14h.11v-1h1.65V335c0,1.52-1.24,2.47-3.19,2.47C623.62,337.43,622.49,336.68,622.38,335.54Zm4.46-3.84c0-1.14-.55-1.85-1.47-1.85s-1.46.71-1.46,1.84.53,1.85,1.46,1.85S626.84,332.83,626.84,331.7Z"/>
    <path class="o" d="M630.39,337.32V336h.39c.64,0,1-.21,1.14-.7L632,335l-2.27-6.51h1.88l1.36,4.9h.11l1.36-4.9h1.8L634,335.08c-.55,1.67-1.35,2.25-3,2.25Z"/>
    <path class="o" d="M587.41,349.15h-1.53v-2.38h-2.27v-1.56h2.27v-2.38h1.53v2.38h2.28v1.56h-2.28Z"/>
    <path class="o" d="M594.69,340.71c1.79,0,2.94,1,2.94,2.47,0,1-.43,1.67-1.84,3L594,347.81v.11h3.71v1.47h-6.1v-1.24l3-2.84c1-1,1.28-1.4,1.28-2a1.19,1.19,0,0,0-1.31-1.2,1.31,1.31,0,0,0-1.4,1.37h-1.64A2.85,2.85,0,0,1,594.69,340.71Z"/>
    <path class="o" d="M608.23,347.55a2.72,2.72,0,0,1-3,2c-2,0-3.13-1.25-3.13-3.34s1.18-3.41,3.11-3.41,3,1.22,3,3.27v.52h-4.44v.09a1.43,1.43,0,0,0,1.48,1.55,1.3,1.3,0,0,0,1.31-.66Zm-4.37-2.07h2.75a1.31,1.31,0,0,0-1.35-1.39A1.37,1.37,0,0,0,603.86,345.48Z"/>
    <path class="o" d="M609.57,349.94h1.69c.08.4.56.65,1.3.65.92,0,1.45-.42,1.45-1.15v-1.19h-.11a2,2,0,0,1-1.94,1c-1.61,0-2.61-1.25-2.61-3.19s1-3.28,2.64-3.28a2.13,2.13,0,0,1,2,1.14h.1v-1h1.65v6.44c0,1.52-1.23,2.47-3.18,2.47C610.81,351.83,609.67,351.08,609.57,349.94ZM614,346.1c0-1.14-.56-1.85-1.48-1.85s-1.45.71-1.45,1.84.52,1.85,1.45,1.85S614,347.24,614,346.1Z"/>
    <path class="o" d="M617.31,349.94H619c.09.4.57.65,1.31.65.91,0,1.45-.42,1.45-1.15v-1.19h-.11a2,2,0,0,1-1.94,1c-1.62,0-2.62-1.25-2.62-3.19s1-3.28,2.65-3.28a2.11,2.11,0,0,1,2,1.14h.11v-1h1.65v6.44c0,1.52-1.24,2.47-3.19,2.47C618.56,351.83,617.42,351.08,617.31,349.94Zm4.46-3.84c0-1.14-.55-1.85-1.47-1.85s-1.46.71-1.46,1.84.53,1.85,1.46,1.85S621.77,347.24,621.77,346.1Z"/>
    <path class="o" d="M627.71,342.78c1.65,0,2.61.69,2.71,1.92h-1.58c-.09-.41-.48-.67-1.11-.67s-1.06.28-1.06.69.27.51.87.64l1.21.26c1.26.28,1.82.81,1.82,1.77,0,1.29-1.16,2.14-2.85,2.14s-2.74-.7-2.85-1.94h1.66c.13.44.55.69,1.23.69s1.12-.28,1.12-.69-.25-.51-.82-.64l-1.17-.26c-1.26-.27-1.86-.87-1.86-1.87C625,343.6,626.1,342.78,627.71,342.78Z"/>
  </g>
  <g>
    <path class="q" d="M590,270.8h-1.21v-1.56H590v-.77c0-1.5.77-2.26,2.59-2.26a6,6,0,0,1,1,.08v1.41a4,4,0,0,0-.59,0c-.78,0-1.07.31-1.07.95v.63h1.6v1.56H592v5.9h-2Z"/>
    <path class="q" d="M601.64,274.55c-.29,1.42-1.6,2.32-3.44,2.32-2.3,0-3.65-1.45-3.65-3.9s1.38-4,3.62-4,3.53,1.41,3.53,3.8v.61h-5.17v.11a1.66,1.66,0,0,0,1.72,1.81,1.52,1.52,0,0,0,1.54-.78Zm-5.1-2.41h3.21a1.52,1.52,0,0,0-1.57-1.62A1.6,1.6,0,0,0,596.54,272.14Z"/>
    <path class="q" d="M610.06,274.55c-.3,1.42-1.6,2.32-3.45,2.32-2.29,0-3.65-1.45-3.65-3.9s1.38-4,3.62-4,3.54,1.41,3.54,3.8v.61h-5.18v.11a1.67,1.67,0,0,0,1.73,1.81,1.54,1.54,0,0,0,1.54-.78ZM605,272.14h3.21a1.52,1.52,0,0,0-1.57-1.62A1.61,1.61,0,0,0,605,272.14Z"/>
    <path class="q" d="M611.38,272.92c0-2.4,1.17-3.88,3.07-3.88a2.39,2.39,0,0,1,2.25,1.32h.11v-4.08h2V276.7h-1.93v-1.18h-.12a2.47,2.47,0,0,1-2.3,1.3C612.55,276.82,611.38,275.33,611.38,272.92Zm2,0c0,1.39.64,2.23,1.7,2.23s1.71-.84,1.71-2.23-.65-2.22-1.71-2.22S613.42,271.55,613.42,272.93Z"/>
    <path class="q" d="M621.12,275.74a1.25,1.25,0,1,1,1.24,1.17A1.12,1.12,0,0,1,621.12,275.74Zm2.34-8.9-.19,6.61h-1.82l-.18-6.61Z"/>
  </g>
  <use width="158.32" height="140.32" transform="translate(679.77 249.5) scale(0.81)" xlink:href="#a"/>
  <g>
    <path class="o" d="M693.46,341.35l.79,3.33-1.41.62-.43-3.48Zm2.25-1,.86,3.29-1.4.62-.51-3.45Z"/>
    <path class="o" d="M701.86,341.93a1.09,1.09,0,0,0-1.45-.38c-.78.34-.95,1.1-.48,2.17s1.17,1.47,1.93,1.13a1.07,1.07,0,0,0,.72-1.29l1.34-.59a2.4,2.4,0,0,1-1.54,3.06c-1.69.74-3.1.14-3.9-1.67s-.29-3.24,1.41-4a2.39,2.39,0,0,1,3.31,1Z"/>
    <path class="o" d="M704.4,341.76a2.92,2.92,0,1,1,3.91,1.65A2.78,2.78,0,0,1,704.4,341.76Zm3.86-1.71c-.46-1-1.17-1.46-1.93-1.13s-.92,1.15-.46,2.19,1.16,1.47,1.93,1.13S708.73,341.1,708.26,340.05Z"/>
    <path class="o" d="M714,336.56a1.12,1.12,0,0,0-1.46-.38c-.77.35-.95,1.11-.48,2.18s1.18,1.47,1.94,1.13a1.08,1.08,0,0,0,.72-1.29l1.33-.59a2.39,2.39,0,0,1-1.53,3.06c-1.69.74-3.1.14-3.9-1.67s-.29-3.24,1.4-4a2.39,2.39,0,0,1,3.31,1Z"/>
    <path class="o" d="M719,332.08l1.62-.72-1,3.24,3.58,2.12-1.7.75L718.91,336l-.22.58.8,1.8-1.43.63-3.31-7.49,1.43-.63L718,335l.09,0Z"/>
    <path class="o" d="M722.83,334.24l-.59-1.34,3.23-1.42.59,1.34Z"/>
    <path class="o" d="M727.59,332.91c-.43-1,.07-1.88,1.38-2.56l1.28-.65-.2-.45c-.2-.45-.63-.56-1.22-.3s-.79.56-.76.93l-1.32.58c-.35-1,.3-2.08,1.66-2.68s2.54-.31,3.05.85l1.64,3.7-1.39.61-.31-.7-.09,0a1.91,1.91,0,0,1-1.22,1.49A1.77,1.77,0,0,1,727.59,332.91Zm3.23-1.92-.18-.4-1.06.55c-.6.32-.8.67-.63,1.06s.64.49,1.13.27A1.15,1.15,0,0,0,730.82,331Z"/>
    <path class="o" d="M733.64,329.47l-.59-1.34,3.23-1.42.59,1.34Z"/>
    <path class="o" d="M737.91,327c-.76-1.72-.38-3.16,1-3.76a1.86,1.86,0,0,1,2,.23l.09,0-1.3-2.94,1.43-.63,3.31,7.49-1.39.61-.37-.85-.09,0a1.92,1.92,0,0,1-1.25,1.67C740,329.39,738.67,328.69,737.91,327Zm1.47-.64c.45,1,1.17,1.4,1.93,1.06s1-1.15.53-2.14-1.18-1.4-1.94-1.06S739,325.32,739.38,326.32Z"/>
    <path class="o" d="M744.47,324.07a2.92,2.92,0,1,1,3.92,1.65A2.78,2.78,0,0,1,744.47,324.07Zm3.87-1.7c-.46-1.05-1.18-1.47-1.93-1.13s-.93,1.14-.47,2.18,1.16,1.47,1.93,1.13S748.8,323.42,748.34,322.37Z"/>
    <path class="o" d="M750.71,321.32A2.92,2.92,0,1,1,756,319c.78,1.78.25,3.28-1.42,4A2.76,2.76,0,0,1,750.71,321.32Zm3.86-1.71c-.46-1-1.17-1.46-1.93-1.12s-.93,1.14-.47,2.18,1.17,1.47,1.94,1.13S755,320.67,754.57,319.61Z"/>
    <path class="o" d="M756.94,318.56c-.76-1.72-.39-3.16,1-3.76a1.87,1.87,0,0,1,2,.24l.08,0-1.29-2.93,1.43-.63,3.3,7.49-1.38.61-.38-.85-.09,0a1.93,1.93,0,0,1-1.24,1.66C759,321,757.7,320.29,756.94,318.56Zm1.47-.64c.44,1,1.16,1.4,1.93,1.06s1-1.15.52-2.14-1.17-1.39-1.93-1.06S758,316.93,758.41,317.92Z"/>
    <path class="o" d="M761.7,310.76l1.43-.63,3.31,7.49-1.43.63Z"/>
    <path class="o" d="M772.08,313.29a2.5,2.5,0,0,1-1.75,2.75c-1.65.73-3.08.12-3.86-1.64s-.27-3.3,1.35-4,3-.1,3.74,1.62l.2.44L768,314.09l0,.07a1.32,1.32,0,0,0,1.82.76c.56-.25.86-.62.85-1.05Zm-4.44-.12,2.31-1a1.2,1.2,0,0,0-1.65-.66A1.26,1.26,0,0,0,767.64,313.17Z"/>
    <path class="o" d="M773.11,312.05l-.59-1.34,3.23-1.42.59,1.34Z"/>
    <path class="o" d="M777.38,309.54c-.76-1.72-.39-3.16,1-3.76a1.85,1.85,0,0,1,2,.24l.09,0-1.3-2.93,1.43-.63,3.31,7.48-1.39.62-.37-.85-.09,0a1.94,1.94,0,0,1-1.25,1.67C779.46,312,778.14,311.27,777.38,309.54Zm1.47-.64c.44,1,1.17,1.4,1.93,1.06s1-1.15.53-2.14-1.18-1.4-1.94-1.06S778.41,307.91,778.85,308.9Z"/>
    <path class="o" d="M783.94,306.65a2.92,2.92,0,1,1,3.91,1.66A2.77,2.77,0,0,1,783.94,306.65Zm3.86-1.7c-.46-1-1.17-1.46-1.93-1.13S785,305,785.41,306s1.16,1.47,1.93,1.13S788.27,306,787.8,305Z"/>
    <path class="o" d="M790.17,303.9a2.92,2.92,0,1,1,3.92,1.65A2.78,2.78,0,0,1,790.17,303.9Zm3.87-1.7c-.46-1.05-1.17-1.47-1.93-1.13s-.93,1.14-.47,2.18,1.17,1.47,1.93,1.13S794.5,303.25,794,302.2Z"/>
    <path class="o" d="M796.11,299.72l-.85-3.29,1.4-.62.51,3.45Zm2.26-1-.78-3.33,1.4-.62.44,3.48Z"/>
  </g>
  <g>
    <path class="o" d="M716.72,301.9v3.42l-1.51.28.38-3.49Zm2.43-.44.07,3.4-1.51.28.31-3.48Z"/>
    <path class="o" d="M724.76,304.41a1.09,1.09,0,0,0-1.32-.71c-.83.15-1.18.85-1,2s.8,1.71,1.62,1.55a1.06,1.06,0,0,0,1-1.09l1.44-.26a2.38,2.38,0,0,1-2.2,2.62c-1.82.33-3.05-.58-3.41-2.53s.47-3.22,2.3-3.55a2.38,2.38,0,0,1,3,1.7Z"/>
    <path class="o" d="M726.67,299.63l1.54-.28,1.47,8-1.54.28Z"/>
    <path class="o" d="M736.55,306.14l-1.49.28-.17-.94-.1,0a1.68,1.68,0,0,1-1.5,1.37,2,2,0,0,1-2.44-1.78l-.69-3.8,1.53-.28.63,3.4c.14.8.58,1.15,1.29,1a1.13,1.13,0,0,0,.95-1.47l-.62-3.36,1.54-.29Z"/>
    <path class="o" d="M741.12,301.4a1.11,1.11,0,0,0-1.33-.7c-.83.15-1.18.85-1,2s.8,1.7,1.63,1.55a1.06,1.06,0,0,0,1-1.09l1.44-.27a2.4,2.4,0,0,1-2.2,2.63c-1.82.33-3-.58-3.41-2.54s.47-3.21,2.29-3.54a2.39,2.39,0,0,1,3,1.7Z"/>
    <path class="o" d="M747,298.2l1.75-.32-1.76,2.9,3,2.9-1.82.33L746,302l-.35.51.36,1.93-1.54.28L743,296.63l1.54-.28.83,4.5.09,0Z"/>
    <path class="o" d="M756.77,298.53a1.09,1.09,0,0,0-1.32-.7c-.83.15-1.18.85-1,2s.8,1.7,1.62,1.55a1.07,1.07,0,0,0,1-1.09l1.44-.27a2.38,2.38,0,0,1-2.2,2.62c-1.82.34-3.05-.57-3.41-2.53s.47-3.21,2.3-3.55a2.39,2.39,0,0,1,3,1.71Z"/>
    <path class="o" d="M758.68,293.76l1.53-.28,1.48,8-1.54.28Z"/>
    <path class="o" d="M768.56,300.27l-1.49.27-.17-.93h-.1a1.68,1.68,0,0,1-1.5,1.38,2,2,0,0,1-2.44-1.78l-.69-3.8,1.53-.28.63,3.4c.14.8.58,1.15,1.29,1a1.14,1.14,0,0,0,1-1.48l-.62-3.36,1.54-.28Z"/>
    <path class="o" d="M773.13,295.53a1.11,1.11,0,0,0-1.33-.7c-.83.15-1.18.85-1,2s.8,1.7,1.63,1.55a1.08,1.08,0,0,0,1-1.09l1.44-.27a2.39,2.39,0,0,1-2.2,2.62c-1.82.34-3.05-.57-3.41-2.53s.47-3.21,2.29-3.55a2.4,2.4,0,0,1,3,1.71Z"/>
    <path class="o" d="M779,292.33l1.75-.33L779,294.91l3,2.89-1.82.34L778,296.08l-.35.51.36,1.94-1.54.28L775,290.76l1.54-.28.83,4.5.09,0Z"/>
    <path class="o" d="M782.19,293.31l-.07-3.41,1.51-.28-.3,3.48Zm2.42-.45,0-3.42,1.5-.27-.38,3.48Z"/>
  </g>
  <g>
    <path class="q" d="M734.11,267.37v1.87h1.57v1.56h-1.57v3.39c0,.66.3,1,1,1a5,5,0,0,0,.59,0v1.52a5.43,5.43,0,0,1-1,.09c-1.83,0-2.56-.6-2.56-2.07V270.8H731v-1.56h1.17v-1.87Z"/>
    <path class="q" d="M736.93,274.55c0-1.37,1-2.16,2.92-2.27l1.82-.11v-.62c0-.63-.45-1-1.27-1s-1.2.25-1.36.7h-1.83c.13-1.4,1.41-2.27,3.3-2.27s3.12.94,3.12,2.55v5.15h-1.92v-1h-.13a2.43,2.43,0,0,1-2.19,1.1A2.25,2.25,0,0,1,736.93,274.55Zm4.74-.58v-.56l-1.52.1c-.86.06-1.27.37-1.27.91s.48.9,1.17.9A1.48,1.48,0,0,0,741.67,274Z"/>
    <path class="q" d="M745.66,266.28h2V276.7h-2Z"/>
    <path class="q" d="M754.41,269.16h2.27l-2.88,3.23,3.07,4.31h-2.35l-2.21-3.06-.54.56v2.5h-2V266.28h2v5.83h.12Z"/>
  </g>
  <g>
    <g>
      <circle class="v" cx="786.88" cy="322.55" r="2.44"/>
      <line class="v" x1="790.63" y1="318.79" x2="788.6" y2="320.82"/>
      <polyline class="v" points="790.99 320.76 790.75 318.68 788.74 318.52"/>
    </g>
    <use width="37.4" height="27.19" transform="translate(777.86 314.8) scale(0.51)" xlink:href="#f"/>
  </g>
  <g>
    <g>
      <circle class="v" cx="703.42" cy="304" r="2.44"/>
      <line class="v" x1="703.42" y1="306.44" x2="703.42" y2="310.09"/>
      <line class="v" x1="701.96" y1="308.64" x2="704.89" y2="308.64"/>
    </g>
    <use width="37.4" height="27.19" transform="translate(693.2 298.87) scale(0.51)" xlink:href="#f"/>
  </g>
</svg>
