<svg xmlns="http://www.w3.org/2000/svg" xmlns:xlink="http://www.w3.org/1999/xlink" viewBox="0 0 900 390">
  <defs>
    <style>
      .a {
        fill: #eceaff;
      }

      .b {
        fill: #d6d5d5;
      }

      .c {
        fill: #fff;
      }

      .d, .o {
        fill: #4a4a4a;
      }

      .d {
        opacity: 0.14;
      }

      .e {
        fill: #6057c2;
      }

      .f {
        fill: #574fb0;
      }

      .g {
        fill: #7f72fc;
      }

      .h, .v {
        fill: none;
        stroke-miterlimit: 10;
      }

      .h {
        stroke: #b2b2b2;
      }

      .i {
        fill: #fd1015;
      }

      .j {
        fill: #a37f3a;
      }

      .k {
        fill: #ffc65a;
      }

      .l {
        fill: #741a14;
      }

      .m {
        fill: #ffe0e1;
      }

      .n {
        fill: #0e0000;
      }

      .p {
        fill: #a92b22;
      }

      .q {
        fill: #7e73ff;
      }

      .r {
        fill: #b2b2b2;
      }

      .s {
        fill: #eaeaea;
      }

      .t {
        fill: #f2e6ce;
      }

      .u {
        fill: #fcf5e8;
      }

      .v {
        stroke: #4a4a4a;
      }
    </style>
    <symbol id="a" data-name="Panel 2" viewBox="0 0 158.32 140.32">
      <path class="a" d="M150.39,6.44H7.93A8,8,0,0,0,0,14.37v118a8,8,0,0,0,7.93,7.93H150.39a8,8,0,0,0,7.93-7.93v-118A8,8,0,0,0,150.39,6.44ZM17.73,19a5.06,5.06,0,1,1,5.06-5.06A5.06,5.06,0,0,1,17.73,19Zm122.86,0a5.06,5.06,0,1,1,5.06-5.06A5.06,5.06,0,0,1,140.59,19Z"/>
      <g>
        <rect class="b" x="14.27" width="6.92" height="13.93" rx="2.76"/>
        <rect class="b" x="137.13" width="6.92" height="13.93" rx="2.76"/>
      </g>
      <rect class="c" x="9.09" y="46.28" width="141.74" height="82.83" rx="3.47"/>
    </symbol>
    <symbol id="b" data-name="Ribbon" viewBox="0 0 273.24 46.05">
      <rect class="d" x="35.73" y="4.92" width="204.43" height="39.35"/>
      <polygon class="e" points="273.24 38.59 201.82 38.59 201.82 0.07 273.24 0.07 258.34 19.33 273.24 38.59"/>
      <polygon class="f" points="237.14 7.54 201.82 0 201.82 7.54 237.14 7.54"/>
      <polygon class="e" points="0 38.59 71.42 38.59 71.42 0.07 0 0.07 14.9 19.33 0 38.59"/>
      <polygon class="f" points="36.1 7.54 71.42 0 71.42 7.54 36.1 7.54"/>
      <rect class="g" x="36.15" y="7.53" width="201" height="38.52"/>
    </symbol>
    <symbol id="g" data-name="bubble" viewBox="0 0 37.4 27.19">
      <path class="h" d="M19.34.5C9.64.5,1.78,6.36,1.78,13.59a10.84,10.84,0,0,0,3,7.3l-.09,0a5.78,5.78,0,0,1-3.08,4.4c4.75.62,8.89.71,9.68,0a.46.46,0,0,0,.07-.07,22.4,22.4,0,0,0,8,1.44c9.7,0,17.56-5.86,17.56-13.1S29,.5,19.34.5Z"/>
    </symbol>
    <symbol id="h" data-name="medal" viewBox="0 0 25.41 23.85">
      <path class="i" d="M18.54,0c.36,0,.74,0,1.15.06,2.49.24,5.37,2.48,5.72,6.79V8.28c-.33,4.12-3.48,9.2-12.71,15.57C3.48,17.48.33,12.4,0,8.28V6.85C.35,2.54,3.23.3,5.72.06,6.13,0,6.51,0,6.87,0c2.87,0,4.25,1.22,5.83,3.08C14.28,1.22,15.66,0,18.54,0"/>
    </symbol>
  </defs>
  <use width="158.32" height="140.32" transform="translate(477.58 249.5) scale(0.81)" xlink:href="#a"/>
  <path class="j" d="M731.61,100.4a14.33,14.33,0,0,1-2.08-8.06c0-.47,0-.93,0-1.36,0-27.8-22.86-46.64-51.05-46.64S627.46,63.18,627.46,91c0,.47,0,1,0,1.49a15.51,15.51,0,0,1-1.85,8.22,15.41,15.41,0,0,0-1.29,10.44l.14.68a19.53,19.53,0,0,0,7,11.25,15.5,15.5,0,0,1,5.28,7.45,43.55,43.55,0,0,0,2.91,7.16,15,15,0,0,1-4.52,10.17,13.7,13.7,0,0,1,8.39-.61A41.68,41.68,0,0,1,633,153a16.4,16.4,0,0,0,10.5.22,59.29,59.29,0,0,0,6-2.94c-1.74,3-4.62,7.84-7.35,10,6.46-.23,11.45-3.32,16.66-7.15-.67,5.72-1.21,5.15-6.56,10.89,2.61.22,13.75-.63,14.19-5.09,0,0,8.35,7.45,12.25,10,0-3.32.94-10,.94-10,1,2.24,7.11,9.38,10.5,10.44a87.91,87.91,0,0,0,1.13-11.09c.29,0,14.19,5.28,18,5.91-.5-3.71-4.87-6.56-5.38-10.27,1.24,1.47,11.15,5.93,12.09,5.48a89.5,89.5,0,0,1-4.6-10.82c-.09,3.68,6.92,6.82,10.09,5.22-3.71-1-8.9-6.57-7.9-8.33a61.31,61.31,0,0,0,6.57-14.56,13,13,0,0,1,5-6.82,19.59,19.59,0,0,0,8-11.93l.14-.69A15.43,15.43,0,0,0,731.61,100.4Z"/>
  <path class="k" d="M191.12,53.72c-26.58-14.95-20.52-42,9.76-6.52"/>
  <path class="k" d="M252.76,53.72c26.58-14.95,20.53-42-9.76-6.52"/>
  <path class="l" d="M267.76,77.27c7.69.8,17.9-.71,25.3-4.8,7.16-4,12.56-13.76,20-13.34l-20.83-6.89-19.44,7.61-8.16,16.08Z"/>
  <path class="l" d="M132.82,59.13c7.44-.42,12.84,9.38,20,13.34,7.4,4.09,17.61,5.6,25.3,4.8L173,59.93,154.21,52.1Z"/>
  <path class="j" d="M266.82,78.59c6.78-31.31,31-23.6,46.12-19.34.25.07.4-.34.18-.52-6.74-5.24-16.48-8.81-22.89-8.71-18.68.29-22.77,7.62-28.37,10.6"/>
  <path class="j" d="M179.06,78.59c-8.62-27.67-31-23.6-46.12-19.34-.25.07-.39-.34-.17-.52,6.73-5.24,16.48-8.81,22.88-8.71,18.69.29,22.77,7.62,28.37,10.6"/>
  <path class="j" d="M273,86.05c-.91-6.12-2.35-13.27-3.08-16C266,55.5,254.63,49.28,239.65,44.43a49.67,49.67,0,0,0-5-1.33,94.06,94.06,0,0,0-12.4-.91A77.85,77.85,0,0,0,207,44.43c-15,4.85-26.74,11.07-30.61,25.6-1.13,4.22-3.86,18.77-3.85,24.11v.5h0c.21,8.22,1.26,11.25,4.85,16.59,2.75,3.29,4.22,7.48,5.38,11.62,1.56,5.59,3.09,16.85,3.81,22.61h71.84c.71-5.76,2.24-17,3.81-22.61,1.11-4,2.5-8,5-11.17,4.18-4.65,6.25-8.23,6.47-17h0v-.5A60.52,60.52,0,0,0,273,86.05Z"/>
  <polygon class="l" points="651.6 109.34 673.69 109.81 701.19 109.34 677.29 95.27 651.6 109.34"/>
  <path class="i" d="M667.45,45.34c1-3.22.63-6.58,1.25-9.86,1.06-5.62,5.19-10.85,5.61-16.52a13.51,13.51,0,0,1,.53-4.29,4.86,4.86,0,0,1,4-2.91,1.64,1.64,0,0,1,1.29.28.84.84,0,0,1,.15.65c-.15,5,4.66,9.4,5.42,14.35.49,3.27-.82,6.57-.53,9.85.34,3.83,2.83,7.39,5.26,10.82"/>
  <path class="m" d="M260.25,147.89v5.77a13,13,0,0,1-.91,4.79c-.1.25-.21.5-.32.76s-.24.49-.37.73a13.57,13.57,0,0,1-2.28,3.05,12.64,12.64,0,0,1-.94.85c-.17.14-.34.28-.52.41a12.41,12.41,0,0,1-1,.7,11.59,11.59,0,0,1-1.15.63c-.32.16-.65.3-1,.43a11.54,11.54,0,0,1-1.64.51l-.43.1c-.23,0-.45.09-.68.12a11.18,11.18,0,0,1-1.31.13c-.2,0-.42,0-.62,0-3.55-4-12.57-6.86-23.14-6.86h-1.55c-10.57,0-19.59,2.84-23.14,6.86-.21,0-.42,0-.63,0a11.22,11.22,0,0,1-1.3-.13l-.68-.12-.43-.1a13.37,13.37,0,0,1-1.44-.44,3.84,3.84,0,0,1-.36-.14,13.08,13.08,0,0,1-3-1.69,6.12,6.12,0,0,1-.5-.39A13.38,13.38,0,0,1,188,160.5c-.18-.3-.35-.6-.51-.92a13,13,0,0,1-1.41-5.92v-5.77c0-.11,0-.23,0-.34.26-5.67,7-10.85,15-16.11,1.39-.91,2.82-1.82,4.26-2.73a8.79,8.79,0,0,1,4.73-1.38h26.13a8.85,8.85,0,0,1,4.74,1.38c1.43.91,2.86,1.82,4.24,2.73,8,5.26,14.79,10.44,15,16.11A1.94,1.94,0,0,1,260.25,147.89Z"/>
  <ellipse class="n" cx="182.98" cy="94.8" rx="8.04" ry="11.56"/>
  <ellipse class="l" cx="209.54" cy="144.41" rx="6.55" ry="7.05"/>
  <ellipse class="l" cx="238.29" cy="145.14" rx="6.55" ry="7.05"/>
  <path class="i" d="M219.36,163.82a1.08,1.08,0,0,1,1-1.54,9.32,9.32,0,0,0,5.9-1.51,26.42,26.42,0,0,0,4.85-4.47,17.12,17.12,0,0,0,3.19-8.15,3.27,3.27,0,0,1,5.18-2.14,12,12,0,0,1,3.22,3.63,18.68,18.68,0,0,1,2.06,9.88c-.06,1.88-.36,3.9-1.68,5.23-1.46,1.49-3.75,1.72-5.83,1.86a59.08,59.08,0,0,1-12.33,0c-2-.3-4.21-.91-5.47-2.53a1.48,1.48,0,0,1-.13-.21Z"/>
  <path class="m" d="M239,165.32a146.5,146.5,0,0,0-15-2.84,141.26,141.26,0,0,0-14.71-.73,4.78,4.78,0,0,0-5.1,3c-.82,2.24,3.17,4.89,5.11,6a2.51,2.51,0,0,1,1.11,1.49c.78,2.6,5.71,5.08,11.91,5.83s11.57-.51,12.94-2.84a2.24,2.24,0,0,1,1.42-1.1c2-.42,6-1.47,6.35-3.31A4.7,4.7,0,0,0,239,165.32Z"/>
  <circle class="c" cx="181.2" cy="90.22" r="2.21"/>
  <ellipse class="c" cx="177.49" cy="93.18" rx="1.26" ry="1.17"/>
  <ellipse class="n" cx="262.81" cy="94.8" rx="8.04" ry="11.56"/>
  <circle class="c" cx="261.03" cy="90.22" r="2.21"/>
  <circle class="o" cx="266.02" cy="101.1" r="2.21"/>
  <circle class="o" cx="181.16" cy="101.72" r="2.21"/>
  <ellipse class="c" cx="257.32" cy="93.18" rx="1.26" ry="1.17"/>
  <path class="n" d="M182.8,83.44a11.85,11.85,0,0,1-5.55-3.93c.19,2.27-.69,3.17-.51,5.44-3.14-.2-5.2.53-8.17-.52l5,4.62a16.31,16.31,0,0,1-4.6,1.23c2.12,0,5,.38,6.71,1.62L181,84Z"/>
  <path class="n" d="M263.89,84l5.36,7.89c1.67-1.24,4.59-1.58,6.71-1.62a16.31,16.31,0,0,1-4.6-1.23l5-4.62c-3,1-5,.32-8.17.52.18-2.27-.7-3.17-.51-5.44a11.85,11.85,0,0,1-5.55,3.93Z"/>
  <ellipse class="n" cx="639.86" cy="92.64" rx="8.04" ry="11.55"/>
  <circle class="c" cx="638.08" cy="88.06" r="2.21"/>
  <ellipse class="c" cx="634.37" cy="91.02" rx="1.26" ry="1.17"/>
  <ellipse class="n" cx="717.56" cy="92" rx="8.04" ry="11.55"/>
  <circle class="c" cx="715.78" cy="87.42" r="2.21"/>
  <ellipse class="c" cx="712.07" cy="90.38" rx="1.26" ry="1.17"/>
  <path class="n" d="M639.68,81.28c-2.1-.51-4.14-2.28-5.55-3.92.19,2.26-.69,3.16-.51,5.43-3.14-.2-5.2.53-8.17-.52l5,4.62a16.34,16.34,0,0,1-4.59,1.23c2.11,0,5,.38,6.7,1.62l5.36-7.89Z"/>
  <path class="n" d="M718.64,81.21,724,89.1c1.67-1.23,4.59-1.58,6.7-1.62a16.25,16.25,0,0,1-4.59-1.23l5-4.62c-3,1.05-5,.32-8.18.52.19-2.27-.69-3.16-.5-5.43-1.41,1.64-3.45,3.41-5.55,3.92Z"/>
  <path class="i" d="M669.46,130.12q-.87,5.35-2,10.66a27.12,27.12,0,0,1-1.83,6c-.77,1.61-1.82,3.06-2.71,4.6a26.51,26.51,0,0,0-3.4,10.29c-.42,3.77.08,7.91,3,10.53a6.39,6.39,0,0,0,5.51,1.57c3-.62,4-3.13,4.83-5.53A60.8,60.8,0,0,0,675,139.39c-.44-2.64-1-5.45.06-7.89,0,0-.2-.87-2.5-1.63S669.46,130.12,669.46,130.12Z"/>
  <path class="i" d="M679.9,131.88c3.25,6.09,3.75,13.22,4.57,20.08s2.23,14.06,6.8,19.24a8.25,8.25,0,0,0,4.21,2.83c3.11.66,6.27-1.86,7.13-4.92s-.15-6.39-1.81-9.11-3.92-5-5.91-7.49a43.79,43.79,0,0,1-9.26-22.7s-.86-.42-3.16.34S679.9,131.88,679.9,131.88Z"/>
  <path class="c" d="M245.9,57.34c5,11.09-3.94,21.81-9,31.22a30.49,30.49,0,0,0-1.73,20.75c-9.08,5.07-19.79,1.34-22.6-8.72-3.51-10.13-4.37-9.08-11-30.86C193,41.59,237.37,38.07,245.9,57.34Z"/>
  <circle class="o" cx="721.12" cy="98.94" r="2.21"/>
  <circle class="o" cx="636.27" cy="99.56" r="2.21"/>
  <polygon class="p" points="652.24 108.81 676.45 106.33 701.82 108.81 677.93 122.87 652.24 108.81"/>
  <path class="k" d="M702.14,108.67l-2.59-.27L677,118.87l-23.47-11-2.34.73L665,119.85a18.9,18.9,0,0,0,24.15-.22Z"/>
  <path class="k" d="M676.82,75.93c2.2,2.48,17.63,27.37,26.3,29.58.19,1.95-.45,5.82-4.77,3.4-29.76-16.68-11.53-17.07-43.19,0-4.27,2.31-5-1.43-4.75-3.4,8.64-2.17,24.1-27.16,26.29-29.58"/>
  <ellipse class="n" cx="685.86" cy="97.63" rx="1.42" ry="3.06" transform="translate(-6.36 125.37) rotate(-10.4)"/>
  <ellipse class="n" cx="666.68" cy="97.44" rx="3.12" ry="1.52" transform="translate(450.53 735.59) rotate(-79.6)"/>
  <use width="273.24" height="46.05" transform="translate(87.47 182.64)" xlink:href="#b"/>
  <use width="273.24" height="46.05" transform="translate(543.69 182.64)" xlink:href="#b"/>
  <g>
    <path class="c" d="M199.1,211.91c0-5.49,3-8.88,8-8.88,4,0,7.09,2.66,7.35,6.34H211a3.8,3.8,0,0,0-3.9-3.22c-2.67,0-4.33,2.2-4.33,5.76s1.66,5.78,4.34,5.78a3.74,3.74,0,0,0,3.9-3.06h3.45c-.29,3.66-3.27,6.18-7.36,6.18C202.15,220.81,199.1,217.42,199.1,211.91Z"/>
    <path class="c" d="M216.71,213.9c0-4.18,2.43-6.73,6.38-6.73s6.38,2.54,6.38,6.73-2.4,6.75-6.38,6.75S216.71,218.13,216.71,213.9Zm9.25,0c0-2.48-1.06-4-2.87-4s-2.87,1.47-2.87,4,1,4,2.87,4S226,216.41,226,213.9Z"/>
    <path class="c" d="M246.23,220.37h-3.64l-2.32-8.92h-.21l-2.29,8.92h-3.59l-3.46-12.92h3.47l1.92,9.27h.22l2.26-9.27h3.27l2.28,9.27h.21l1.93-9.27h3.39Z"/>
  </g>
  <g>
    <path class="c" d="M632.89,211.91c0-5.49,3-8.88,8-8.88,4,0,7.1,2.66,7.36,6.34h-3.46a3.8,3.8,0,0,0-3.9-3.22c-2.67,0-4.32,2.2-4.32,5.76s1.65,5.78,4.33,5.78a3.73,3.73,0,0,0,3.9-3.06h3.46c-.3,3.66-3.28,6.18-7.37,6.18C635.93,220.81,632.89,217.42,632.89,211.91Z"/>
    <path class="c" d="M651.25,202.51h3.36v7.06h.21a4,4,0,0,1,3.91-2.37c2.78,0,4.44,1.75,4.44,4.85v8.32h-3.42v-7.51c0-1.79-.83-2.72-2.38-2.72a2.57,2.57,0,0,0-2.71,2.81v7.42h-3.41Z"/>
    <path class="c" d="M666.28,203.56a1.94,1.94,0,1,1,1.94,1.95A1.94,1.94,0,0,1,666.28,203.56Zm.22,3.89h3.42v12.92H666.5Z"/>
    <path class="c" d="M681.64,212a2.39,2.39,0,0,0-2.57-2c-1.84,0-2.88,1.37-2.88,3.91s1,4,2.88,4a2.35,2.35,0,0,0,2.57-1.95h3.2c-.28,2.89-2.4,4.75-5.77,4.75-4,0-6.33-2.43-6.33-6.77s2.28-6.71,6.33-6.71c3.43,0,5.49,1.89,5.77,4.83Z"/>
    <path class="c" d="M695.59,207.45h3.88L694.54,213l5.28,7.38h-4.06L692,215.12l-.94,1v4.29h-3.42V202.51H691v10h.21Z"/>
    <path class="c" d="M712.77,216.69c-.51,2.43-2.75,4-5.92,4-4,0-6.28-2.48-6.28-6.68s2.38-6.8,6.23-6.8,6.08,2.42,6.08,6.52v1.05H704v.17a2.87,2.87,0,0,0,3,3.12,2.63,2.63,0,0,0,2.65-1.34ZM704,212.56h5.53a2.62,2.62,0,0,0-2.71-2.78A2.77,2.77,0,0,0,704,212.56Z"/>
    <path class="c" d="M715.67,207.45H719v2.07h.21a3.85,3.85,0,0,1,3.83-2.35c2.88,0,4.43,1.75,4.43,4.85v8.35H724v-7.54c0-1.79-.76-2.72-2.38-2.72a2.51,2.51,0,0,0-2.56,2.81v7.45h-3.42Z"/>
  </g>
  <use width="158.32" height="140.32" transform="translate(21.77 249.5) scale(0.81)" xlink:href="#a"/>
  <g>
    <path class="o" d="M69.32,344.75H67.79v-2.38H65.52v-1.56h2.27v-2.38h1.53v2.38H71.6v1.56H69.32Z"/>
    <path class="o" d="M75.6,338.25h-.1l-2.08,1.43V338l2.19-1.51h1.76V345H75.6Z"/>
    <path class="o" d="M82.81,338.52h1.65v1.06h.11a1.8,1.8,0,0,1,1.78-1.2,1.75,1.75,0,0,1,1.79,1.2h.11a2,2,0,0,1,1.94-1.2,2,2,0,0,1,2.09,2.17V345h-1.7v-4c0-.77-.36-1.15-1.08-1.15A1.1,1.1,0,0,0,88.36,341v4H86.72v-4.06a1,1,0,0,0-1.06-1.08,1.16,1.16,0,0,0-1.15,1.24V345h-1.7Z"/>
    <path class="o" d="M93.84,336.58a1,1,0,1,1,1,1A1,1,0,0,1,93.84,336.58Zm.11,1.94h1.7V345H94Z"/>
    <path class="o" d="M97.43,336.06h1.71V345H97.43Z"/>
    <path class="o" d="M104.94,338.52h1.94l-2.46,2.77,2.63,3.7h-2l-1.89-2.63-.47.48V345H101v-8.93h1.7v5h.11Z"/>
  </g>
  <g>
    <path class="q" d="M69.22,270.8H68v-1.56h1.21v-.77c0-1.5.77-2.26,2.59-2.26a6,6,0,0,1,1,.08v1.41a4,4,0,0,0-.59,0c-.78,0-1.07.31-1.07.95v.63h1.6v1.56H71.21v5.9h-2Z"/>
    <path class="q" d="M80.82,274.55c-.29,1.42-1.6,2.32-3.44,2.32-2.3,0-3.65-1.45-3.65-3.9s1.38-4,3.62-4,3.53,1.41,3.53,3.8v.61H75.71v.11a1.66,1.66,0,0,0,1.72,1.81,1.52,1.52,0,0,0,1.54-.78Zm-5.1-2.41h3.21a1.52,1.52,0,0,0-1.57-1.62A1.6,1.6,0,0,0,75.72,272.14Z"/>
    <path class="q" d="M89.24,274.55c-.3,1.42-1.6,2.32-3.45,2.32-2.29,0-3.65-1.45-3.65-3.9s1.38-4,3.63-4,3.53,1.41,3.53,3.8v.61H84.12v.11a1.67,1.67,0,0,0,1.73,1.81,1.54,1.54,0,0,0,1.54-.78Zm-5.11-2.41h3.21a1.52,1.52,0,0,0-1.57-1.62A1.61,1.61,0,0,0,84.13,272.14Z"/>
    <path class="q" d="M90.56,272.92c0-2.4,1.17-3.88,3.07-3.88a2.38,2.38,0,0,1,2.25,1.32H96v-4.08h2V276.7H96.05v-1.18h-.12a2.47,2.47,0,0,1-2.3,1.3C91.73,276.82,90.56,275.33,90.56,272.92Zm2,0c0,1.39.64,2.23,1.7,2.23s1.71-.84,1.71-2.23-.65-2.22-1.71-2.22S92.6,271.55,92.6,272.93Z"/>
    <path class="q" d="M100.3,275.74a1.25,1.25,0,1,1,1.24,1.17A1.12,1.12,0,0,1,100.3,275.74Zm2.34-8.9-.19,6.61h-1.82l-.18-6.61Z"/>
  </g>
  <use width="158.32" height="140.32" transform="translate(158.95 249.5) scale(0.81)" xlink:href="#a"/>
  <g>
    <path class="o" d="M229.25,339l1.46-.77.49.94.09-.05a1.81,1.81,0,0,1,1-1.88,1.74,1.74,0,0,1,2.13.23l.1,0a2,2,0,0,1,1.17-2,2,2,0,0,1,2.86,1l2,3.94-1.51.78-1.84-3.54a1,1,0,0,0-1.48-.52,1.1,1.1,0,0,0-.47,1.57l1.82,3.51-1.45.76-1.87-3.6a1,1,0,0,0-1.44-.47,1.15,1.15,0,0,0-.45,1.63l1.8,3.46-1.52.78Z"/>
    <path class="o" d="M240.33,336.85a3.19,3.19,0,1,1,5.65-2.93c1,1.87.49,3.54-1.27,4.46S241.3,338.73,240.33,336.85Zm4.09-2.13c-.57-1.1-1.38-1.51-2.18-1.09s-.93,1.31-.36,2.41,1.37,1.52,2.18,1.1S245,335.84,244.42,334.72Z"/>
    <path class="o" d="M246.93,333.42a3.18,3.18,0,1,1,5.64-2.93c1,1.88.5,3.55-1.26,4.46S247.9,335.3,246.93,333.42ZM251,331.3c-.57-1.1-1.38-1.51-2.18-1.1s-.93,1.31-.36,2.42,1.37,1.52,2.18,1.09S251.6,332.41,251,331.3Z"/>
  </g>
  <g>
    <path class="q" d="M213.29,267.37v1.87h1.57v1.56h-1.57v3.39c0,.66.3,1,1,1a5,5,0,0,0,.59,0v1.52a5.43,5.43,0,0,1-1,.09c-1.83,0-2.56-.6-2.56-2.07V270.8h-1.17v-1.56h1.17v-1.87Z"/>
    <path class="q" d="M216.11,274.55c0-1.37,1-2.16,2.92-2.27l1.82-.11v-.62c0-.63-.45-1-1.27-1s-1.2.25-1.36.7h-1.83c.13-1.4,1.41-2.27,3.3-2.27s3.12.94,3.12,2.55v5.15h-1.92v-1h-.13a2.43,2.43,0,0,1-2.19,1.1A2.25,2.25,0,0,1,216.11,274.55Zm4.74-.58v-.56l-1.52.1c-.86.06-1.27.37-1.27.91s.48.9,1.17.9A1.48,1.48,0,0,0,220.85,274Z"/>
    <path class="q" d="M224.84,266.28h2V276.7h-2Z"/>
    <path class="q" d="M233.59,269.16h2.27L233,272.39l3.07,4.31H233.7l-2.21-3.06-.54.56v2.5h-2V266.28h2v5.83h.12Z"/>
  </g>
  <use width="158.32" height="140.32" transform="translate(296.13 249.5) scale(0.81)" xlink:href="#a"/>
  <g>
    <path class="o" d="M311.12,345h-1.77v-8.46h3.55c1.86,0,3,1,3,2.71a2.51,2.51,0,0,1-1.53,2.41l1.78,3.34h-2l-1.57-3.07h-1.45Zm0-4.43h1.55a1.24,1.24,0,0,0,1.41-1.29,1.27,1.27,0,0,0-1.43-1.31h-1.53Z"/>
    <path class="o" d="M323.07,343.15a2.72,2.72,0,0,1-2.95,2c-2,0-3.13-1.25-3.13-3.34s1.18-3.41,3.11-3.41,3,1.21,3,3.27v.52h-4.44v.08a1.43,1.43,0,0,0,1.48,1.56,1.3,1.3,0,0,0,1.31-.66Zm-4.37-2.07h2.75a1.31,1.31,0,0,0-1.35-1.39A1.37,1.37,0,0,0,318.7,341.08Z"/>
    <path class="o" d="M326.34,344h-.11v1h-1.65v-8.93h1.7v3.49h.11a2,2,0,0,1,1.94-1.13c1.63,0,2.62,1.25,2.62,3.33s-1,3.33-2.62,3.33A2.1,2.1,0,0,1,326.34,344Zm-.07-2.21c0,1.17.56,1.9,1.47,1.9s1.46-.73,1.46-1.91-.56-1.9-1.46-1.9S326.27,340.58,326.27,341.76Z"/>
    <path class="o" d="M338.1,343.15a2.72,2.72,0,0,1-3,2c-2,0-3.13-1.25-3.13-3.34s1.18-3.41,3.11-3.41,3,1.21,3,3.27v.52h-4.43v.08a1.43,1.43,0,0,0,1.48,1.56,1.3,1.3,0,0,0,1.31-.66Zm-4.37-2.07h2.75a1.31,1.31,0,0,0-1.35-1.39A1.37,1.37,0,0,0,333.73,341.08Z"/>
    <path class="o" d="M343.67,340.8a1.19,1.19,0,0,0-1.28-1c-.92,0-1.43.69-1.43,2s.52,2,1.43,2a1.17,1.17,0,0,0,1.28-1h1.6a2.61,2.61,0,0,1-2.88,2.38c-2,0-3.16-1.22-3.16-3.39s1.14-3.36,3.16-3.36a2.61,2.61,0,0,1,2.88,2.42Z"/>
    <path class="o" d="M350.72,340.8a1.19,1.19,0,0,0-1.28-1c-.92,0-1.44.69-1.44,2s.53,2,1.44,2a1.17,1.17,0,0,0,1.28-1h1.6a2.61,2.61,0,0,1-2.88,2.38c-2,0-3.16-1.22-3.16-3.39s1.14-3.36,3.16-3.36a2.61,2.61,0,0,1,2.88,2.42Z"/>
    <path class="o" d="M353.3,343.14c0-1.17.9-1.85,2.5-1.95l1.57-.09v-.53c0-.54-.39-.84-1.09-.84s-1,.21-1.17.6h-1.57c.11-1.2,1.21-1.95,2.83-1.95s2.68.81,2.68,2.19V345H357.4v-.85h-.11a2.08,2.08,0,0,1-1.87.94A1.93,1.93,0,0,1,353.3,343.14Zm4.07-.5v-.47l-1.31.08c-.73.05-1.09.32-1.09.78s.42.77,1,.77A1.26,1.26,0,0,0,357.37,342.64Z"/>
    <path class="o" d="M363.72,336.58a1,1,0,1,1,1,1A1,1,0,0,1,363.72,336.58Zm.11,1.94h1.71V345h-1.71Z"/>
    <path class="o" d="M369.8,338.38c1.64,0,2.61.69,2.7,1.92h-1.57c-.09-.41-.48-.67-1.12-.67s-1.06.28-1.06.69.28.51.88.64l1.21.26c1.25.28,1.81.81,1.81,1.77,0,1.29-1.15,2.14-2.84,2.14s-2.74-.7-2.86-1.94h1.67c.13.44.54.69,1.22.69s1.12-.28,1.12-.69-.24-.51-.81-.64l-1.17-.26c-1.26-.28-1.87-.87-1.87-1.87C367.11,339.2,368.19,338.38,369.8,338.38Z"/>
    <path class="o" d="M377.21,336.06h1.67v3.52H379a2,2,0,0,1,1.95-1.18c1.39,0,2.21.87,2.21,2.43V345h-1.7v-3.76c0-.9-.42-1.36-1.19-1.36a1.28,1.28,0,0,0-1.35,1.41V345h-1.7Z"/>
    <path class="o" d="M384.46,343.14c0-1.17.9-1.85,2.5-1.95l1.57-.09v-.53c0-.54-.39-.84-1.09-.84s-1,.21-1.17.6H384.7c.11-1.2,1.21-1.95,2.83-1.95s2.68.81,2.68,2.19V345h-1.65v-.85h-.11a2.08,2.08,0,0,1-1.87.94A1.93,1.93,0,0,1,384.46,343.14Zm4.07-.5v-.47l-1.31.08c-.73.05-1.09.32-1.09.78s.42.77,1,.77A1.26,1.26,0,0,0,388.53,342.64Z"/>
    <path class="o" d="M398.25,341.75c0,2.09-1,3.33-2.6,3.33A2,2,0,0,1,393.7,344h-.11v3.13h-1.7v-8.61h1.65v1.06h.1a2.13,2.13,0,0,1,2-1.16C397.25,338.42,398.25,339.66,398.25,341.75Zm-1.75,0c0-1.18-.55-1.9-1.46-1.9s-1.47.72-1.47,1.91.57,1.9,1.47,1.9S396.5,343,396.5,341.75Z"/>
    <path class="o" d="M406,341.75c0,2.09-1,3.33-2.61,3.33a2,2,0,0,1-1.95-1.08h-.1v3.13h-1.71v-8.61h1.66v1.06h.1a2.12,2.12,0,0,1,2-1.16C405,338.42,406,339.66,406,341.75Zm-1.75,0c0-1.18-.55-1.9-1.46-1.9s-1.47.72-1.47,1.91.56,1.9,1.47,1.9S404.26,343,404.26,341.75Z"/>
    <path class="o" d="M407.29,347.32V346h.39c.63,0,1-.21,1.14-.7l.06-.23-2.27-6.51h1.88l1.36,4.9H410l1.35-4.9h1.81l-2.23,6.56c-.55,1.67-1.34,2.25-2.95,2.25Z"/>
  </g>
  <g>
    <path class="q" d="M347.88,266.28h2v4.12H350a2.3,2.3,0,0,1,2.28-1.38c1.62,0,2.58,1,2.58,2.83v4.85h-2v-4.38c0-1.05-.49-1.59-1.39-1.59a1.49,1.49,0,0,0-1.57,1.64v4.33h-2Z"/>
    <path class="q" d="M363.57,276.7h-1.93v-1.21h-.12a2.15,2.15,0,0,1-2.2,1.38,2.51,2.51,0,0,1-2.64-2.79v-4.92h2v4.4c0,1,.47,1.58,1.39,1.58a1.44,1.44,0,0,0,1.52-1.63v-4.35h2Z"/>
    <path class="q" d="M365.44,277.35h2c.11.47.67.76,1.53.76,1.07,0,1.69-.49,1.69-1.34v-1.4h-.13a2.37,2.37,0,0,1-2.27,1.22c-1.88,0-3-1.45-3-3.72s1.17-3.83,3.09-3.83a2.48,2.48,0,0,1,2.29,1.33h.12v-1.21h1.93v7.51c0,1.77-1.45,2.89-3.72,2.89C366.88,279.56,365.56,278.68,365.44,277.35Zm5.2-4.48c0-1.33-.65-2.16-1.72-2.16s-1.7.83-1.7,2.15.61,2.16,1.7,2.16S370.64,274.19,370.64,272.87Z"/>
  </g>
  <g>
    <g>
      <path class="r" d="M95.55,296v1.13s1.57-.21,2,.52.27,9.6.27,9.6h1s.43-9.69-.57-10.68C97.47,295.82,95.55,296,95.55,296Z"/>
      <path class="r" d="M79.39,296v1.13s-1.57-.21-2,.52-.28,9.6-.28,9.6h-1s-.43-9.69.58-10.68C77.47,295.82,79.39,296,79.39,296Z"/>
      <rect class="b" x="79.39" y="294" width="16.17" height="5.67"/>
      <path class="b" d="M75.67,307.28H99.27a0,0,0,0,1,0,0v20.36A3.25,3.25,0,0,1,96,330.89H78.92a3.25,3.25,0,0,1-3.25-3.25V307.28A0,0,0,0,1,75.67,307.28Z"/>
      <polygon class="s" points="99.27 307.28 75.67 307.28 79.39 299.66 95.55 299.66 99.27 307.28"/>
    </g>
    <g>
      <path class="t" d="M541.59,295.25c-7.06,0-11,12.74-11,18.83A11,11,0,0,0,552,317.74a10.86,10.86,0,0,0,.62-3.66C552.58,308,548.87,295.25,541.59,295.25Z"/>
      <ellipse class="u" cx="545.06" cy="302.34" rx="2.09" ry="3.34" transform="translate(-75.67 245.8) rotate(-23.81)"/>
    </g>
  </g>
  <use width="37.4" height="27.19" transform="translate(193.7 303.49)" xlink:href="#g"/>
  <use width="25.41" height="23.85" transform="translate(348.18 300.09)" xlink:href="#h"/>
  <g>
    <path class="o" d="M526.45,344.75h-1.53v-2.38h-2.28v-1.56h2.28v-2.38h1.53v2.38h2.28v1.56h-2.28Z"/>
    <path class="o" d="M532.73,338.25h-.11l-2.07,1.43V338l2.18-1.51h1.77V345h-1.77Z"/>
    <path class="o" d="M545.7,343.15a2.72,2.72,0,0,1-3,2c-2,0-3.13-1.25-3.13-3.34s1.18-3.41,3.1-3.41,3,1.21,3,3.27v.52h-4.43v.08a1.42,1.42,0,0,0,1.47,1.56,1.31,1.31,0,0,0,1.32-.66Zm-4.38-2.07h2.76a1.31,1.31,0,0,0-1.35-1.39A1.38,1.38,0,0,0,541.32,341.08Z"/>
    <path class="o" d="M547,345.54h1.68c.09.4.57.65,1.31.65.91,0,1.45-.42,1.45-1.15v-1.19h-.11a2,2,0,0,1-1.94,1c-1.61,0-2.62-1.25-2.62-3.19s1-3.28,2.65-3.28a2.11,2.11,0,0,1,2,1.14h.11v-1h1.65V345c0,1.52-1.23,2.47-3.18,2.47C548.28,347.43,547.14,346.68,547,345.54Zm4.46-3.84c0-1.14-.56-1.85-1.48-1.85s-1.45.71-1.45,1.84.52,1.85,1.45,1.85S551.5,342.83,551.5,341.7Z"/>
    <path class="o" d="M554.78,345.54h1.69c.09.4.57.65,1.31.65.91,0,1.44-.42,1.44-1.15v-1.19h-.1a2.05,2.05,0,0,1-2,1c-1.61,0-2.61-1.25-2.61-3.19s1-3.28,2.65-3.28a2.11,2.11,0,0,1,2,1.14h.11v-1h1.65V345c0,1.52-1.24,2.47-3.19,2.47C556,347.43,554.89,346.68,554.78,345.54Zm4.46-3.84c0-1.14-.56-1.85-1.48-1.85s-1.45.71-1.45,1.84.53,1.85,1.45,1.85S559.24,342.83,559.24,341.7Z"/>
  </g>
  <g>
    <path class="q" d="M525,270.8h-1.21v-1.56H525v-.77c0-1.5.77-2.26,2.59-2.26a6,6,0,0,1,1,.08v1.41a4,4,0,0,0-.59,0c-.78,0-1.07.31-1.07.95v.63h1.6v1.56H527v5.9h-2Z"/>
    <path class="q" d="M536.64,274.55c-.29,1.42-1.6,2.32-3.44,2.32-2.3,0-3.65-1.45-3.65-3.9s1.38-4,3.62-4,3.53,1.41,3.53,3.8v.61h-5.17v.11a1.66,1.66,0,0,0,1.72,1.81,1.52,1.52,0,0,0,1.54-.78Zm-5.1-2.41h3.21a1.52,1.52,0,0,0-1.57-1.62A1.6,1.6,0,0,0,531.54,272.14Z"/>
    <path class="q" d="M545.06,274.55c-.3,1.42-1.6,2.32-3.45,2.32-2.29,0-3.65-1.45-3.65-3.9s1.38-4,3.62-4,3.54,1.41,3.54,3.8v.61h-5.18v.11a1.67,1.67,0,0,0,1.73,1.81,1.54,1.54,0,0,0,1.54-.78ZM540,272.14h3.21a1.52,1.52,0,0,0-1.57-1.62A1.61,1.61,0,0,0,540,272.14Z"/>
    <path class="q" d="M546.38,272.92c0-2.4,1.17-3.88,3.07-3.88a2.39,2.39,0,0,1,2.25,1.32h.11v-4.08h2V276.7h-1.93v-1.18h-.12a2.47,2.47,0,0,1-2.3,1.3C547.55,276.82,546.38,275.33,546.38,272.92Zm2,0c0,1.39.64,2.23,1.7,2.23s1.71-.84,1.71-2.23-.65-2.22-1.71-2.22S548.42,271.55,548.42,272.93Z"/>
    <path class="q" d="M556.12,275.74a1.25,1.25,0,1,1,1.24,1.17A1.12,1.12,0,0,1,556.12,275.74Zm2.34-8.9-.19,6.61h-1.82l-.18-6.61Z"/>
  </g>
  <use width="158.32" height="140.32" transform="translate(614.77 249.5) scale(0.81)" xlink:href="#a"/>
  <g>
    <path class="o" d="M631.64,344.23a1.1,1.1,0,0,0-1.45-.38c-.77.34-1,1.11-.48,2.18s1.17,1.47,1.94,1.13a1.08,1.08,0,0,0,.71-1.29l1.34-.59a2.4,2.4,0,0,1-1.54,3.06c-1.69.74-3.1.14-3.9-1.68s-.29-3.23,1.41-4a2.39,2.39,0,0,1,3.31,1Z"/>
    <path class="o" d="M634.18,344.06a2.92,2.92,0,1,1,3.91,1.66A2.77,2.77,0,0,1,634.18,344.06Zm3.86-1.7c-.46-1-1.17-1.46-1.92-1.13s-.93,1.14-.47,2.19,1.16,1.47,1.93,1.13S638.51,343.41,638,342.36Z"/>
    <path class="o" d="M643.79,338.87a1.11,1.11,0,0,0-1.46-.38c-.77.34-1,1.11-.48,2.18s1.18,1.47,1.94,1.13a1.09,1.09,0,0,0,.72-1.3l1.33-.58a2.37,2.37,0,0,1-1.53,3.05c-1.69.75-3.1.15-3.9-1.67s-.29-3.23,1.4-4a2.39,2.39,0,0,1,3.31,1Z"/>
    <path class="o" d="M648.78,334.39l1.62-.72-1,3.23,3.58,2.13-1.7.75-2.55-1.51-.22.58.8,1.8-1.43.63-3.31-7.49,1.43-.63,1.85,4.18.09,0Z"/>
    <path class="o" d="M652.61,336.55l-.59-1.34,3.23-1.42.59,1.34Z"/>
    <path class="o" d="M657.37,335.22c-.43-1,.07-1.89,1.38-2.56L660,332l-.2-.44c-.2-.45-.63-.56-1.22-.3s-.78.55-.76.93l-1.32.58c-.35-1,.3-2.08,1.66-2.68s2.54-.31,3,.85l1.64,3.7-1.39.61-.31-.71-.09,0a1.91,1.91,0,0,1-1.22,1.49A1.78,1.78,0,0,1,657.37,335.22Zm3.23-1.92-.18-.4-1.06.55c-.6.32-.8.67-.63,1.06s.64.49,1.13.27A1.15,1.15,0,0,0,660.6,333.3Z"/>
    <path class="o" d="M663.42,331.78l-.59-1.34,3.23-1.43.59,1.35Z"/>
    <path class="o" d="M667.69,329.27c-.76-1.73-.38-3.17,1-3.77a1.88,1.88,0,0,1,2,.24l.09,0-1.3-2.94,1.43-.63,3.31,7.49-1.39.61-.37-.85-.09,0a2,2,0,0,1-1.25,1.67C669.77,331.7,668.46,331,667.69,329.27Zm1.47-.65c.45,1,1.17,1.41,1.93,1.07s1-1.15.53-2.14-1.18-1.4-1.94-1.06S668.73,327.63,669.16,328.62Z"/>
    <path class="o" d="M674.25,326.38a2.92,2.92,0,1,1,3.92,1.65A2.78,2.78,0,0,1,674.25,326.38Zm3.87-1.71c-.46-1-1.18-1.46-1.93-1.12s-.93,1.14-.47,2.18,1.16,1.47,1.93,1.13S678.58,325.73,678.12,324.67Z"/>
    <path class="o" d="M680.49,323.63a2.92,2.92,0,1,1,5.33-2.36c.78,1.78.25,3.28-1.42,4A2.76,2.76,0,0,1,680.49,323.63Zm3.86-1.71c-.46-1-1.17-1.46-1.93-1.13s-.92,1.15-.46,2.19,1.16,1.47,1.93,1.13S684.82,323,684.35,321.92Z"/>
    <path class="o" d="M686.72,320.87c-.76-1.72-.39-3.16,1-3.76a1.85,1.85,0,0,1,2,.24l.08,0-1.29-2.93,1.43-.63,3.3,7.48-1.38.62-.38-.85-.08,0a2,2,0,0,1-1.25,1.67C688.8,323.3,687.48,322.6,686.72,320.87Zm1.47-.64c.44,1,1.16,1.4,1.93,1.06s1-1.15.52-2.14-1.17-1.4-1.93-1.06S687.75,319.24,688.19,320.23Z"/>
    <path class="o" d="M691.48,313.07l1.43-.63,3.31,7.49-1.43.63Z"/>
    <path class="o" d="M701.86,315.59a2.51,2.51,0,0,1-1.75,2.76c-1.65.73-3.08.11-3.86-1.64s-.26-3.3,1.35-4,3-.1,3.75,1.62l.19.43-3.72,1.65,0,.07a1.32,1.32,0,0,0,1.82.76c.56-.25.86-.62.85-1.05Zm-4.44-.11,2.31-1a1.21,1.21,0,0,0-1.65-.67A1.28,1.28,0,0,0,697.42,315.48Z"/>
    <path class="o" d="M702.89,314.36,702.3,313l3.23-1.42.59,1.34Z"/>
    <path class="o" d="M707.16,311.85c-.76-1.73-.39-3.16,1-3.76a1.84,1.84,0,0,1,2,.24l.09,0-1.3-2.94,1.43-.63,3.31,7.49-1.39.61-.37-.85-.09,0a1.92,1.92,0,0,1-1.25,1.67C709.24,314.28,707.92,313.58,707.16,311.85Zm1.47-.64c.44,1,1.17,1.4,1.93,1.06s1-1.15.53-2.14-1.18-1.4-1.94-1.06S708.19,310.21,708.63,311.21Z"/>
    <path class="o" d="M713.72,309a2.92,2.92,0,1,1,3.91,1.66A2.77,2.77,0,0,1,713.72,309Zm3.86-1.7c-.46-1.05-1.17-1.47-1.92-1.13s-.93,1.14-.47,2.18,1.16,1.47,1.93,1.14S718.05,308.31,717.58,307.26Z"/>
    <path class="o" d="M720,306.21a2.92,2.92,0,1,1,3.92,1.65A2.78,2.78,0,0,1,720,306.21Zm3.87-1.71c-.46-1-1.17-1.46-1.93-1.12s-.93,1.14-.47,2.18,1.17,1.47,1.93,1.13S724.29,305.56,723.82,304.5Z"/>
  </g>
  <g>
    <path class="o" d="M654.15,305.5a1.09,1.09,0,0,0-1.32-.71c-.83.15-1.18.85-1,2s.8,1.71,1.62,1.55a1.06,1.06,0,0,0,1-1.09l1.44-.26a2.39,2.39,0,0,1-2.2,2.62c-1.82.33-3.05-.58-3.41-2.53s.47-3.22,2.3-3.55a2.38,2.38,0,0,1,3,1.7Z"/>
    <path class="o" d="M656.06,300.72l1.51-.27.58,3.18.1,0a1.79,1.79,0,0,1,1.56-1.39,2,2,0,0,1,2.4,1.82l.69,3.75-1.54.28-.62-3.38c-.15-.81-.6-1.16-1.3-1a1.17,1.17,0,0,0-1,1.49l.61,3.34-1.54.28Z"/>
    <path class="o" d="M663.77,305.91c-.19-1.06.5-1.82,1.93-2.17l1.4-.34-.09-.48c-.09-.48-.49-.69-1.12-.58s-.89.36-.95.74l-1.42.25c-.1-1.09.77-1.95,2.23-2.22s2.55.29,2.78,1.54l.73,4-1.49.28-.14-.76h-.1a1.88,1.88,0,0,1-1.53,1.16A1.76,1.76,0,0,1,663.77,305.91Zm3.58-1.12-.08-.43-1.16.29c-.65.17-.93.47-.85.88s.5.63,1,.53A1.15,1.15,0,0,0,667.35,304.79Z"/>
    <path class="o" d="M670.45,304l-.26-1.44,3.47-.64.26,1.44Z"/>
    <path class="o" d="M679,300.93a1.1,1.1,0,0,0-1.33-.71c-.83.16-1.18.86-1,2s.8,1.71,1.62,1.56a1.09,1.09,0,0,0,1-1.1l1.43-.26a2.38,2.38,0,0,1-2.2,2.62c-1.81.33-3.05-.58-3.4-2.53s.47-3.22,2.29-3.55a2.38,2.38,0,0,1,3,1.71Z"/>
    <path class="o" d="M681.75,302.61c-.2-1.06.5-1.82,1.93-2.17l1.4-.34-.09-.48c-.09-.48-.49-.69-1.12-.58s-.89.36-1,.74l-1.41.26c-.1-1.1.76-2,2.23-2.23s2.55.29,2.77,1.54l.73,4-1.48.27-.15-.76h-.09A1.91,1.91,0,0,1,684,304,1.77,1.77,0,0,1,681.75,302.61Zm3.58-1.12-.08-.43-1.16.29c-.65.17-.93.47-.86.89s.51.62,1,.53A1.17,1.17,0,0,0,685.33,301.49Z"/>
    <path class="o" d="M695.08,301.88l-1.63.3-1.78-3.82h-.1l-.29,4.21-1.61.3L687,297.34l1.56-.29,1.63,4,.1,0,.25-4.36,1.47-.27,1.79,4,.1,0,.1-4.34,1.52-.28Z"/>
  </g>
  <g>
    <path class="q" d="M669.11,267.37v1.87h1.57v1.56h-1.57v3.39c0,.66.3,1,1,1a5,5,0,0,0,.59,0v1.52a5.43,5.43,0,0,1-1,.09c-1.83,0-2.56-.6-2.56-2.07V270.8H666v-1.56h1.17v-1.87Z"/>
    <path class="q" d="M671.93,274.55c0-1.37,1-2.16,2.92-2.27l1.82-.11v-.62c0-.63-.45-1-1.27-1s-1.2.25-1.36.7h-1.83c.13-1.4,1.41-2.27,3.3-2.27s3.12.94,3.12,2.55v5.15h-1.92v-1h-.13a2.43,2.43,0,0,1-2.19,1.1A2.25,2.25,0,0,1,671.93,274.55Zm4.74-.58v-.56l-1.52.1c-.86.06-1.27.37-1.27.91s.48.9,1.17.9A1.48,1.48,0,0,0,676.67,274Z"/>
    <path class="q" d="M680.66,266.28h2V276.7h-2Z"/>
    <path class="q" d="M689.41,269.16h2.27l-2.88,3.23,3.07,4.31h-2.35l-2.21-3.06-.54.56v2.5h-2V266.28h2v5.83h.12Z"/>
  </g>
  <use width="158.32" height="140.32" transform="translate(751.95 249.5) scale(0.81)" xlink:href="#a"/>
  <g>
    <path class="o" d="M767.58,337.88H763v-7h1.47v5.76h3.14Z"/>
    <path class="o" d="M768.49,336.34c0-1,.74-1.54,2.08-1.62l1.3-.08v-.43c0-.45-.32-.71-.9-.71s-.86.18-1,.5h-1.3c.09-1,1-1.62,2.35-1.62s2.24.67,2.24,1.83v3.67H771.9v-.7h-.09a1.73,1.73,0,0,1-1.56.78A1.6,1.6,0,0,1,768.49,336.34Zm3.38-.41v-.4l-1.08.07c-.62,0-.91.27-.91.65s.34.65.84.65A1,1,0,0,0,771.87,335.93Z"/>
    <path class="o" d="M779.54,337.88h-1.37V337h-.09a1.54,1.54,0,0,1-1.57,1,1.79,1.79,0,0,1-1.89-2V332.5H776v3.14c0,.74.34,1.12,1,1.12a1,1,0,0,0,1.08-1.16v-3.1h1.42Z"/>
    <path class="o" d="M781,332.5h1.38v.86h.09a1.37,1.37,0,0,1,1.38-.95,1.75,1.75,0,0,1,.55.07v1.29a2.71,2.71,0,0,0-.67-.09,1.19,1.19,0,0,0-1.31,1.22v3H781Z"/>
    <path class="o" d="M784.94,336.34c0-1,.74-1.54,2.08-1.62l1.3-.08v-.43c0-.45-.32-.71-.9-.71s-.86.18-1,.5h-1.3c.09-1,1-1.62,2.35-1.62s2.24.67,2.24,1.83v3.67h-1.38v-.7h-.09a1.73,1.73,0,0,1-1.56.78A1.6,1.6,0,0,1,784.94,336.34Zm3.38-.41v-.4l-1.08.07c-.62,0-.91.27-.91.65s.34.65.84.65A1,1,0,0,0,788.32,335.93Z"/>
    <path class="o" d="M793.62,330.87a.81.81,0,1,1,.8.82A.8.8,0,0,1,793.62,330.87Zm.09,1.63h1.42v5.38h-1.42Z"/>
    <path class="o" d="M798.69,332.38c1.36,0,2.17.57,2.25,1.6h-1.32c-.07-.35-.4-.56-.92-.56s-.89.23-.89.57.23.43.73.54l1,.22c1,.23,1.51.67,1.51,1.47,0,1.08-1,1.78-2.37,1.78s-2.28-.58-2.38-1.62h1.39c.11.37.45.58,1,.58s.93-.23.93-.58-.2-.42-.68-.52l-1-.22c-1-.23-1.56-.73-1.56-1.56C796.44,333.06,797.34,332.38,798.69,332.38Z"/>
    <path class="o" d="M804.86,330.44h1.39v2.94h.09a1.64,1.64,0,0,1,1.63-1c1.15,0,1.84.73,1.84,2v3.46h-1.42v-3.13c0-.75-.34-1.13-1-1.13a1.06,1.06,0,0,0-1.12,1.17v3.09h-1.42Z"/>
    <path class="o" d="M810.9,336.34c0-1,.75-1.54,2.09-1.62l1.3-.08v-.43c0-.45-.32-.71-.91-.71s-.85.18-1,.5H811.1c.1-1,1-1.62,2.36-1.62s2.23.67,2.23,1.83v3.67h-1.37v-.7h-.09a1.74,1.74,0,0,1-1.56.78A1.61,1.61,0,0,1,810.9,336.34Zm3.39-.41v-.4l-1.09.07c-.61,0-.91.27-.91.65s.35.65.84.65A1.06,1.06,0,0,0,814.29,335.93Z"/>
    <path class="o" d="M822.4,335.19c0,1.73-.83,2.77-2.18,2.77a1.67,1.67,0,0,1-1.62-.9h-.09v2.61h-1.42V332.5h1.38v.88h.08a1.77,1.77,0,0,1,1.65-1C821.56,332.41,822.4,333.44,822.4,335.19Zm-1.46,0c0-1-.46-1.59-1.22-1.59s-1.22.61-1.22,1.59.46,1.59,1.22,1.59S820.94,336.18,820.94,335.19Z"/>
    <path class="o" d="M828.86,335.19c0,1.73-.82,2.77-2.17,2.77a1.69,1.69,0,0,1-1.63-.9H825v2.61h-1.42V332.5h1.38v.88H825a1.74,1.74,0,0,1,1.64-1C828,332.41,828.86,333.44,828.86,335.19Zm-1.46,0c0-1-.46-1.59-1.21-1.59s-1.23.61-1.23,1.59.47,1.59,1.22,1.59S827.4,336.18,827.4,335.19Z"/>
    <path class="o" d="M829.93,339.83v-1.15h.32c.53,0,.83-.17,1-.58l0-.19-1.89-5.42h1.57l1.13,4.08h.09l1.13-4.08h1.5L832.93,338a2.26,2.26,0,0,1-2.46,1.88Z"/>
    <path class="o" d="M767.58,349.88H763v-7h1.47v5.76h3.14Z"/>
    <path class="o" d="M768.49,348.34c0-1,.74-1.54,2.08-1.62l1.3-.08v-.43c0-.45-.32-.71-.9-.71s-.86.18-1,.5h-1.3c.09-1,1-1.62,2.35-1.62s2.24.67,2.24,1.83v3.67H771.9v-.7h-.09a1.73,1.73,0,0,1-1.56.78A1.6,1.6,0,0,1,768.49,348.34Zm3.38-.41v-.4l-1.08.07c-.62,0-.91.27-.91.65s.34.65.84.65A1,1,0,0,0,771.87,347.93Z"/>
    <path class="o" d="M779.54,349.88h-1.37V349h-.09a1.54,1.54,0,0,1-1.57,1,1.79,1.79,0,0,1-1.89-2V344.5H776v3.14c0,.74.34,1.12,1,1.12a1,1,0,0,0,1.08-1.16v-3.1h1.42Z"/>
    <path class="o" d="M781,344.5h1.38v.86h.09a1.37,1.37,0,0,1,1.38-.95,1.75,1.75,0,0,1,.55.07v1.29a2.71,2.71,0,0,0-.67-.09,1.19,1.19,0,0,0-1.31,1.22v3H781Z"/>
    <path class="o" d="M784.94,348.34c0-1,.74-1.54,2.08-1.62l1.3-.08v-.43c0-.45-.32-.71-.9-.71s-.86.18-1,.5h-1.3c.09-1,1-1.62,2.35-1.62s2.24.67,2.24,1.83v3.67h-1.38v-.7h-.09a1.73,1.73,0,0,1-1.56.78A1.6,1.6,0,0,1,784.94,348.34Zm3.38-.41v-.4l-1.08.07c-.62,0-.91.27-.91.65s.34.65.84.65A1,1,0,0,0,788.32,347.93Z"/>
    <path class="o" d="M793.62,342.87a.81.81,0,1,1,.8.82A.8.8,0,0,1,793.62,342.87Zm.09,1.63h1.42v5.38h-1.42Z"/>
    <path class="o" d="M798.69,344.38c1.36,0,2.17.57,2.25,1.6h-1.32c-.07-.35-.4-.56-.92-.56s-.89.23-.89.57.23.43.73.54l1,.22c1,.23,1.51.67,1.51,1.47,0,1.08-1,1.78-2.37,1.78s-2.28-.58-2.38-1.62h1.39c.11.37.45.58,1,.58s.93-.23.93-.58-.2-.42-.68-.52l-1-.22c-1-.23-1.56-.73-1.56-1.56C796.44,345.06,797.34,344.38,798.69,344.38Z"/>
    <path class="o" d="M804.81,344.5h1.38v.86h.08a1.4,1.4,0,0,1,1.39-.95,1.75,1.75,0,0,1,.55.07v1.29a2.71,2.71,0,0,0-.67-.09,1.19,1.19,0,0,0-1.31,1.22v3h-1.42Z"/>
    <path class="o" d="M814,349.88h-1.37V349h-.09a1.55,1.55,0,0,1-1.57,1,1.79,1.79,0,0,1-1.89-2V344.5h1.42v3.14c0,.74.34,1.12,1,1.12a1,1,0,0,0,1.09-1.16v-3.1H814Z"/>
    <path class="o" d="M815.46,344.5h1.37v.86h.09a1.6,1.6,0,0,1,1.59-1c1.2,0,1.85.73,1.85,2v3.48h-1.43v-3.14c0-.74-.31-1.14-1-1.14a1,1,0,0,0-1.06,1.18v3.1h-1.42Z"/>
    <path class="o" d="M821.73,344.5h1.38v.86h.09a1.59,1.59,0,0,1,1.59-1c1.2,0,1.84.73,1.84,2v3.48h-1.42v-3.14c0-.74-.32-1.14-1-1.14a1.06,1.06,0,0,0-1.07,1.18v3.1h-1.42Z"/>
    <path class="o" d="M827.92,342.87a.81.81,0,1,1,.81.82A.81.81,0,0,1,827.92,342.87Zm.1,1.63h1.42v5.38H828Z"/>
    <path class="o" d="M830.87,344.5h1.38v.86h.09a1.59,1.59,0,0,1,1.59-1c1.2,0,1.84.73,1.84,2v3.48h-1.42v-3.14c0-.74-.32-1.14-1-1.14a1.06,1.06,0,0,0-1.07,1.18v3.1h-1.42Z"/>
    <path class="o" d="M837.05,350.35h1.41c.07.33.47.54,1.09.54s1.21-.35,1.21-1v-1h-.09a1.71,1.71,0,0,1-1.62.87c-1.35,0-2.18-1-2.18-2.66s.84-2.73,2.21-2.73a1.77,1.77,0,0,1,1.63.95h.09v-.86h1.38v5.36c0,1.27-1,2.06-2.66,2.06C838.09,351.92,837.14,351.29,837.05,350.35Zm3.72-3.21c0-.94-.46-1.54-1.23-1.54s-1.21.6-1.21,1.54.44,1.54,1.21,1.54S840.77,348.09,840.77,347.14Z"/>
    <path class="o" d="M845.89,348.34c0-1,.75-1.54,2.09-1.62l1.3-.08v-.43c0-.45-.32-.71-.91-.71s-.85.18-1,.5h-1.31c.1-1,1-1.62,2.36-1.62s2.23.67,2.23,1.83v3.67h-1.37v-.7h-.09a1.74,1.74,0,0,1-1.56.78A1.61,1.61,0,0,1,845.89,348.34Zm3.39-.41v-.4l-1.09.07c-.61,0-.91.27-.91.65s.35.65.84.65A1.06,1.06,0,0,0,849.28,347.93Z"/>
    <path class="o" d="M857.94,349.88h-1.52l-1-3.71h-.08l-1,3.71h-1.49l-1.44-5.38h1.44l.8,3.86h.09l.94-3.86h1.36l1,3.86h.09l.8-3.86h1.41Z"/>
    <path class="o" d="M860,348.34c0-1,.74-1.54,2.08-1.62l1.3-.08v-.43c0-.45-.32-.71-.9-.71s-.86.18-1,.5h-1.3c.09-1,1-1.62,2.35-1.62s2.24.67,2.24,1.83v3.67h-1.38v-.7h-.09a1.73,1.73,0,0,1-1.56.78A1.6,1.6,0,0,1,860,348.34Zm3.38-.41v-.4l-1.08.07c-.62,0-.91.27-.91.65s.34.65.84.65A1,1,0,0,0,863.33,347.93Z"/>
    <path class="o" d="M866.11,351.83v-1.15h.32c.54,0,.84-.17,1-.58l.05-.19-1.89-5.42h1.56l1.14,4.08h.08l1.14-4.08H871L869.12,350a2.26,2.26,0,0,1-2.47,1.88Z"/>
  </g>
  <g>
    <path class="q" d="M803.7,266.28h2v4.12h.12a2.3,2.3,0,0,1,2.27-1.38c1.62,0,2.59,1,2.59,2.83v4.85h-2v-4.38c0-1.05-.49-1.59-1.39-1.59a1.49,1.49,0,0,0-1.57,1.64v4.33h-2Z"/>
    <path class="q" d="M819.39,276.7h-1.93v-1.21h-.12a2.15,2.15,0,0,1-2.2,1.38,2.51,2.51,0,0,1-2.64-2.79v-4.92h2v4.4c0,1,.47,1.58,1.39,1.58a1.44,1.44,0,0,0,1.52-1.63v-4.35h2Z"/>
    <path class="q" d="M821.25,277.35h2c.11.47.67.76,1.53.76,1.06,0,1.69-.49,1.69-1.34v-1.4h-.13a2.37,2.37,0,0,1-2.27,1.22c-1.88,0-3-1.45-3-3.72s1.17-3.83,3.08-3.83a2.49,2.49,0,0,1,2.3,1.33h.12v-1.21h1.93v7.51c0,1.77-1.45,2.89-3.72,2.89C822.7,279.56,821.38,278.68,821.25,277.35Zm5.21-4.48c0-1.33-.65-2.16-1.73-2.16s-1.69.83-1.69,2.15.61,2.16,1.69,2.16S826.46,274.19,826.46,272.87Z"/>
  </g>
  <use width="25.41" height="23.85" transform="translate(804 300.09)" xlink:href="#h"/>
  <g>
    <g>
      <circle class="v" cx="721.88" cy="322.55" r="2.44"/>
      <line class="v" x1="725.63" y1="318.79" x2="723.6" y2="320.82"/>
      <polyline class="v" points="725.99 320.76 725.75 318.68 723.74 318.52"/>
    </g>
    <use width="37.4" height="27.19" transform="translate(712.86 314.8) scale(0.51)" xlink:href="#g"/>
  </g>
  <g>
    <g>
      <circle class="v" cx="638.42" cy="304" r="2.44"/>
      <line class="v" x1="638.42" y1="306.44" x2="638.42" y2="310.09"/>
      <line class="v" x1="636.96" y1="308.64" x2="639.89" y2="308.64"/>
    </g>
    <use width="37.4" height="27.19" transform="translate(628.2 298.87) scale(0.51)" xlink:href="#g"/>
  </g>
</svg>
