<?xml version="1.0" encoding="UTF-8" standalone="no"?>
<svg
   viewBox="0 0 900 390"
   version="1.1"
   id="svg1702"
   sodipodi:docname="crops.svg"
   inkscape:version="1.1.2 (0a00cf5339, 2022-02-04)"
   xmlns:inkscape="http://www.inkscape.org/namespaces/inkscape"
   xmlns:sodipodi="http://sodipodi.sourceforge.net/DTD/sodipodi-0.dtd"
   xmlns:xlink="http://www.w3.org/1999/xlink"
   xmlns="http://www.w3.org/2000/svg"
   xmlns:svg="http://www.w3.org/2000/svg">
  <sodipodi:namedview
     id="namedview1704"
     pagecolor="#ffffff"
     bordercolor="#666666"
     borderopacity="1.0"
     inkscape:pageshadow="2"
     inkscape:pageopacity="0.0"
     inkscape:pagecheckerboard="0"
     showgrid="false"
     inkscape:zoom="0.93655211"
     inkscape:cx="617.15733"
     inkscape:cy="292.56247"
     inkscape:window-width="2560"
     inkscape:window-height="1011"
     inkscape:window-x="0"
     inkscape:window-y="32"
     inkscape:window-maximized="1"
     inkscape:current-layer="g1700" />
  <defs
     id="defs1258">
    <style
       id="style1066">
      .a {
        fill: #c29644;
      }

      .b {
        fill: #ffc65a;
      }

      .c {
        fill: #fff7e8;
      }

      .d {
        fill: #eceaff;
      }

      .e {
        fill: #d6d5d5;
      }

      .f {
        fill: #fff;
      }

      .g, .u {
        fill: #4a4a4a;
      }

      .g {
        opacity: 0.14;
      }

      .h {
        fill: #6057c2;
      }

      .i {
        fill: #574fb0;
      }

      .j {
        fill: #7f72fc;
      }

      .k {
        fill: #b2b2b2;
      }

      .l {
        fill: #eaeaea;
      }

      .m {
        fill: #62ddf5;
      }

      .n {
        fill: #fd1015;
      }

      .o {
        fill: #5bb670;
      }

      .p {
        fill: #4cabbd;
      }

      .q {
        fill: #1edd88;
      }

      .r {
        fill: #47915a;
      }

      .s {
        fill: none;
        stroke: #7e73ff;
        stroke-miterlimit: 10;
      }

      .t {
        fill: #a37f3a;
      }

      .v {
        fill: #7e73ff;
      }
    </style>
    <symbol
       id="b"
       data-name="Rice"
       viewBox="0 0 14.85 13.91">
      <g
         id="g1074">
        <path
           class="b"
           d="M2.23,13.85c-2.85-.59-3.78-2.24,2.21-7.7S14.83,0,14.83,0s.4,3-2.51,7.69C10.36,10.88,5.09,14.43,2.23,13.85Z"
           id="path1068" />
        <path
           class="a"
           d="M2.56,12.19c2.18-3.5,10.69-9.84,10.69-9.84S5.12,11,2.56,12.19Z"
           id="path1070" />
        <path
           class="c"
           d="M2.26,10.23C3,9.16,10.18,2.56,11.72,2.4,10.48,2.19,2.89,7.35,2.26,10.23Z"
           id="path1072" />
      </g>
    </symbol>
    <symbol
       id="a"
       data-name="Rice 2"
       viewBox="0 0 122.96 67.81">
      <g
         id="g1081">
        <use
           width="14.85"
           height="13.91"
           transform="translate(-4.23 15.42) rotate(-21.22)"
           xlink:href="#b"
           id="use1077" />
        <use
           width="14.85"
           height="13.91"
           transform="matrix(0.41, -0.91, -0.91, -0.41, 13.78, 34.33)"
           xlink:href="#b"
           id="use1079" />
      </g>
      <g
         id="g1087">
        <use
           width="14.85"
           height="13.91"
           transform="matrix(0.99, -0.16, 0.16, 0.99, 5.39, 7.52)"
           xlink:href="#b"
           id="use1083" />
        <use
           width="14.85"
           height="13.91"
           transform="matrix(0.58, -0.81, -0.81, -0.58, 19.13, 29.73)"
           xlink:href="#b"
           id="use1085" />
      </g>
      <g
         id="g1093">
        <use
           width="14.85"
           height="13.91"
           transform="translate(15.55 2.65) rotate(-3.94)"
           xlink:href="#b"
           id="use1089" />
        <use
           width="14.85"
           height="13.91"
           transform="matrix(0.66, -0.75, -0.75, -0.66, 27.12, 26.05)"
           xlink:href="#b"
           id="use1091" />
      </g>
      <g
         id="g1099">
        <use
           width="14.85"
           height="13.91"
           transform="translate(27.08 -2.04) rotate(7.9)"
           xlink:href="#b"
           id="use1095" />
        <use
           width="14.85"
           height="13.91"
           transform="matrix(0.8, -0.6, -0.6, -0.8, 33.6, 23.24)"
           xlink:href="#b"
           id="use1097" />
      </g>
      <g
         id="g1105">
        <use
           width="14.85"
           height="13.91"
           transform="translate(39.03 -4.23) rotate(20.76)"
           xlink:href="#b"
           id="use1101" />
        <use
           width="14.85"
           height="13.91"
           transform="matrix(0.91, -0.41, -0.41, -0.91, 39.76, 21.88)"
           xlink:href="#b"
           id="use1103" />
      </g>
      <g
         id="g1111">
        <use
           width="14.85"
           height="13.91"
           transform="translate(51.46 -3.67) rotate(32.61)"
           xlink:href="#b"
           id="use1107" />
        <use
           width="14.85"
           height="13.91"
           transform="matrix(0.98, -0.21, -0.21, -0.98, 46.82, 22.03)"
           xlink:href="#b"
           id="use1109" />
      </g>
      <g
         id="g1117">
        <use
           width="14.85"
           height="13.91"
           transform="matrix(0.79, 0.62, -0.62, 0.79, 62.28, -0.49)"
           xlink:href="#b"
           id="use1113" />
        <use
           width="14.85"
           height="13.91"
           transform="matrix(0.99, -0.12, -0.12, -0.99, 55.22, 24.65)"
           xlink:href="#b"
           id="use1115" />
      </g>
      <g
         id="g1123">
        <use
           width="14.85"
           height="13.91"
           transform="translate(73.98 3.73) rotate(49.89)"
           xlink:href="#b"
           id="use1119" />
        <use
           width="14.85"
           height="13.91"
           transform="matrix(1, 0.09, 0.09, -1, 61.92, 26.89)"
           xlink:href="#b"
           id="use1121" />
      </g>
      <g
         id="g1129">
        <use
           width="14.85"
           height="13.91"
           transform="matrix(0.57, 0.82, -0.82, 0.57, 83.16, 7.99)"
           xlink:href="#b"
           id="use1125" />
        <use
           width="14.85"
           height="13.91"
           transform="matrix(0.98, 0.19, 0.19, -0.98, 68.86, 29.84)"
           xlink:href="#b"
           id="use1127" />
      </g>
      <g
         id="g1135">
        <use
           width="14.85"
           height="13.91"
           transform="matrix(0.49, 0.87, -0.87, 0.49, 91.47, 13.4)"
           xlink:href="#b"
           id="use1131" />
        <use
           width="14.85"
           height="13.91"
           transform="matrix(0.96, 0.27, 0.27, -0.96, 75.33, 33.93)"
           xlink:href="#b"
           id="use1133" />
      </g>
      <g
         id="g1141">
        <use
           width="14.85"
           height="13.91"
           transform="translate(99.89 20.23) rotate(67.38)"
           xlink:href="#b"
           id="use1137" />
        <use
           width="14.85"
           height="13.91"
           transform="matrix(0.92, 0.38, 0.38, -0.92, 81.43, 38.7)"
           xlink:href="#b"
           id="use1139" />
      </g>
      <g
         id="g1147">
        <use
           width="14.85"
           height="13.91"
           transform="translate(107.48 27.81) rotate(70.81)"
           xlink:href="#b"
           id="use1143" />
        <use
           width="14.85"
           height="13.91"
           transform="matrix(0.9, 0.44, 0.44, -0.9, 87.94, 45.14)"
           xlink:href="#b"
           id="use1145" />
      </g>
      <g
         id="g1153">
        <use
           width="14.85"
           height="13.91"
           transform="matrix(0.32, 0.95, -0.95, 0.32, 113.68, 35.9)"
           xlink:href="#b"
           id="use1149" />
        <use
           width="14.85"
           height="13.91"
           transform="matrix(0.9, 0.44, 0.44, -0.9, 94.02, 53.09)"
           xlink:href="#b"
           id="use1151" />
      </g>
      <g
         id="g1159">
        <use
           width="14.85"
           height="13.91"
           transform="translate(121.17 45.85) rotate(83.06)"
           xlink:href="#b"
           id="use1155" />
        <use
           width="14.85"
           height="13.91"
           transform="matrix(0.79, 0.62, 0.62, -0.79, 98.4, 58.63)"
           xlink:href="#b"
           id="use1157" />
      </g>
    </symbol>
    <symbol
       id="ep"
       data-name="Corn 3"
       viewBox="0 0 13.9 16.66">
      <rect
         class="a"
         width="13.91"
         height="16.66"
         rx="6.62"
         id="rect1162" />
      <rect
         class="b"
         x="1.35"
         y="0.75"
         width="12.23"
         height="14.65"
         rx="5.82"
         id="rect1164" />
      <rect
         class="c"
         x="9.36"
         y="5.41"
         width="2.9"
         height="4.13"
         rx="1.03"
         id="rect1166" />
    </symbol>
    <symbol
       id="eq"
       data-name="Corn 2"
       viewBox="0 0 38.64 25.1">
      <path
         class="a"
         d="M27.23,23.07,11.41,25C5.13,25.79,0,21.38,0,15.21v-.57A13.2,13.2,0,0,1,11.41,2L27.23.09c6.28-.77,11.41,3.64,11.41,9.8v.57A13.19,13.19,0,0,1,27.23,23.07Z"
         id="path1169" />
      <path
         class="b"
         d="M28.32,21.3,14.78,23A8.47,8.47,0,0,1,5,14.42v-.51a11.46,11.46,0,0,1,9.76-11L28.32,1.16a8.48,8.48,0,0,1,9.77,8.59v.5A11.48,11.48,0,0,1,28.32,21.3Z"
         id="path1171" />
      <path
         class="c"
         d="M18.17,9.82,14,10.13c-1.65.13-3-.58-3-1.57v-.1c0-1,1.34-1.9,3-2l4.16-.31c1.65-.13,3,.58,3,1.58v.09C21.17,8.78,19.82,9.7,18.17,9.82Z"
         id="path1173" />
    </symbol>
    <symbol
       id="gq"
       data-name="Corn 1"
       viewBox="0 0 42.49 27.56">
      <rect
         class="a"
         width="42.49"
         height="27.56"
         rx="12"
         id="rect1176" />
      <rect
         class="b"
         x="2.06"
         y="0.98"
         width="38.88"
         height="24.48"
         rx="11.12"
         id="rect1178" />
      <rect
         class="c"
         x="11.51"
         y="6.18"
         width="19.72"
         height="4.06"
         rx="2.03"
         id="rect1180" />
    </symbol>
    <symbol
       id="hf"
       data-name="Panel 2"
       viewBox="0 0 158.32 140.32">
      <path
         class="d"
         d="M150.39,6.44H7.93A8,8,0,0,0,0,14.37v118a8,8,0,0,0,7.93,7.93H150.39a8,8,0,0,0,7.93-7.93v-118A8,8,0,0,0,150.39,6.44ZM17.73,19a5.06,5.06,0,1,1,5.06-5.06A5.06,5.06,0,0,1,17.73,19Zm122.86,0a5.06,5.06,0,1,1,5.06-5.06A5.06,5.06,0,0,1,140.59,19Z"
         id="path1183" />
      <g
         id="g1189">
        <rect
           class="e"
           x="14.27"
           width="6.92"
           height="13.93"
           rx="2.76"
           id="rect1185" />
        <rect
           class="e"
           x="137.13"
           width="6.92"
           height="13.93"
           rx="2.76"
           id="rect1187" />
      </g>
      <rect
         class="f"
         x="9.09"
         y="46.28"
         width="141.74"
         height="82.83"
         rx="3.47"
         id="rect1191" />
    </symbol>
    <symbol
       id="hh"
       data-name="drop"
       viewBox="0 0 7.45 13.05">
      <path
         class="m"
         d="M3.36,0c.84,0,8.74,13.05,0,13.05-7,0-1.19-13,0-13"
         id="path1194" />
    </symbol>
    <symbol
       id="hg"
       data-name="Watering can"
       viewBox="0 0 47.4 32.22">
      <g
         id="g1237">
        <path
           class="e"
           d="M40.71,6.65c0-.08-4.13-8.71-13.19-6.19-8.7,2.42-6.37,11.85-6.35,11.94,0,.73.77,2.24,1.12,4.49.67,4.32-6.8-.92-7.8-1.36C13,14.85,8,13.75,7.1,14.86c0,0-1.77,1.4.18,6,2.24,5.33,3.81,4.51,3.81,4.51C13.34,24.51,14.72,24,16,21c.38-.91,6.39,3.24,7.91,4.84a20.5,20.5,0,0,1,1.46,1.75l.16.21c.1.29,1.65,3.18,1.65,3.18a16.89,16.89,0,0,0,12.62-.58c8.4-3.65,7.62-7.93,7.62-7.93C45.2,17.47,40.71,6.65,40.71,6.65ZM28,2.3C34.67.45,37.59,5,38.29,6.27a32.08,32.08,0,0,0-8.85,1.59A33.37,33.37,0,0,0,22.88,11C22.78,9.9,21.69,4.06,28,2.3Z"
           id="path1197" />
        <use
           width="7.45"
           height="13.05"
           transform="matrix(0.17, 0.15, -0.15, 0.17, 3.46, 19.09)"
           xlink:href="#hh"
           id="use1199" />
        <use
           width="7.45"
           height="13.05"
           transform="translate(5.23 22) rotate(14.35) scale(0.22)"
           xlink:href="#hh"
           id="use1201" />
        <use
           width="7.45"
           height="13.05"
           transform="translate(6.67 25.9) rotate(3.96) scale(0.25)"
           xlink:href="#hh"
           id="use1203" />
        <use
           width="7.45"
           height="13.05"
           transform="translate(3.24 27.96) rotate(6.77) scale(0.32)"
           xlink:href="#hh"
           id="use1205" />
        <use
           width="7.45"
           height="13.05"
           transform="translate(1.29 23.89) rotate(22.98) scale(0.32)"
           xlink:href="#hh"
           id="use1207" />
        <ellipse
           class="k"
           cx="7.03"
           cy="16.67"
           rx="0.24"
           ry="0.37"
           transform="translate(-3.6 2.03) rotate(-13.12)"
           id="ellipse1209" />
        <ellipse
           class="k"
           cx="7.12"
           cy="18.73"
           rx="0.24"
           ry="0.37"
           transform="translate(-4.07 2.1) rotate(-13.12)"
           id="ellipse1211" />
        <ellipse
           class="k"
           cx="8.19"
           cy="16.36"
           rx="0.24"
           ry="0.37"
           transform="translate(-3.5 2.29) rotate(-13.12)"
           id="ellipse1213" />
        <ellipse
           class="k"
           cx="8.99"
           cy="18.22"
           rx="0.24"
           ry="0.37"
           transform="translate(-3.9 2.52) rotate(-13.12)"
           id="ellipse1215" />
        <ellipse
           class="k"
           cx="9.59"
           cy="19.93"
           rx="0.24"
           ry="0.37"
           transform="translate(-4.27 2.7) rotate(-13.12)"
           id="ellipse1217" />
        <ellipse
           class="k"
           cx="9.98"
           cy="21.8"
           rx="0.24"
           ry="0.37"
           transform="translate(-4.69 2.83) rotate(-13.12)"
           id="ellipse1219" />
        <ellipse
           class="k"
           cx="10.12"
           cy="23.27"
           rx="0.24"
           ry="0.37"
           transform="translate(-5.02 2.9) rotate(-13.12)"
           id="ellipse1221" />
        <ellipse
           class="k"
           cx="7.74"
           cy="20.58"
           rx="0.24"
           ry="0.37"
           transform="translate(-4.47 2.29) rotate(-13.12)"
           id="ellipse1223" />
        <ellipse
           class="k"
           cx="8.58"
           cy="22.28"
           rx="0.24"
           ry="0.37"
           transform="translate(-4.83 2.53) rotate(-13.12)"
           id="ellipse1225" />
        <ellipse
           class="k"
           cx="9.33"
           cy="23.45"
           rx="0.24"
           ry="0.37"
           transform="translate(-5.08 2.73) rotate(-13.12)"
           id="ellipse1227" />
        <ellipse
           class="k"
           cx="7.95"
           cy="18.06"
           rx="0.24"
           ry="0.37"
           transform="translate(-3.89 2.28) rotate(-13.12)"
           id="ellipse1229" />
        <ellipse
           class="k"
           cx="8.47"
           cy="19.46"
           rx="0.24"
           ry="0.37"
           transform="translate(-4.2 2.43) rotate(-13.12)"
           id="ellipse1231" />
        <ellipse
           class="k"
           cx="8.88"
           cy="21.07"
           rx="0.24"
           ry="0.37"
           transform="translate(-4.55 2.57) rotate(-13.12)"
           id="ellipse1233" />
        <ellipse
           class="k"
           cx="31.16"
           cy="9.68"
           rx="7.64"
           ry="1.43"
           transform="translate(-1.47 9.69) rotate(-17.27)"
           id="ellipse1235" />
      </g>
      <path
         class="l"
         d="M38.42,10.29,45.19,24s1.28-.74,1.15-1.69S40.11,9.14,40.11,9.14A12.43,12.43,0,0,0,38.42,10.29Z"
         id="path1239" />
    </symbol>
    <symbol
       id="ht"
       data-name="Ribbon"
       viewBox="0 0 273.24 46.05">
      <rect
         class="g"
         x="35.73"
         y="4.92"
         width="204.43"
         height="39.35"
         id="rect1242" />
      <polygon
         class="h"
         points="273.24 38.59 201.82 38.59 201.82 0.07 273.24 0.07 258.34 19.33 273.24 38.59"
         id="polygon1244" />
      <polygon
         class="i"
         points="237.14 7.54 201.82 0 201.82 7.54 237.14 7.54"
         id="polygon1246" />
      <polygon
         class="h"
         points="0 38.59 71.42 38.59 71.42 0.07 0 0.07 14.9 19.33 0 38.59"
         id="polygon1248" />
      <polygon
         class="i"
         points="36.1 7.54 71.42 0 71.42 7.54 36.1 7.54"
         id="polygon1250" />
      <rect
         class="j"
         x="36.15"
         y="7.53"
         width="201"
         height="38.52"
         id="rect1252" />
    </symbol>
    <symbol
       id="hx"
       data-name="medal"
       viewBox="0 0 25.41 23.85">
      <path
         class="n"
         d="M18.54,0c.36,0,.74,0,1.15.06,2.49.24,5.37,2.48,5.72,6.79V8.28c-.33,4.12-3.48,9.2-12.71,15.57C3.48,17.48.33,12.4,0,8.28V6.85C.35,2.54,3.23.3,5.72.06,6.13,0,6.51,0,6.87,0c2.87,0,4.25,1.22,5.83,3.08C14.28,1.22,15.66,0,18.54,0"
         id="path1255" />
    </symbol>
  </defs>
  <path
     class="o"
     d="M662,210.05c.75-11.87.25-23.79-.2-35.66-.5-13.24-1.1-26.5-.92-39.75.17-12.43.91-25,3.86-37.13,2.41-9.87,6.46-19.79,14-26.84,8.13-7.57,19.18-10.06,30-9.74,1.69,0,3.37.16,5.06.32,1.92.19,1.9-2.81,0-3-11.65-1.11-24.07.32-33.73,7.43-8.6,6.34-13.79,15.94-16.88,26-3.66,11.88-4.79,24.49-5.21,36.86-.46,13.49,0,27,.56,40.46.48,12.36,1.1,24.75.61,37.12-.05,1.32-.12,2.63-.2,4-.12,1.92,2.88,1.92,3,0Z"
     id="path1260" />
  <path
     class="p"
     d="M646.23,225.76c-6.81.17-9.07,3.76-8.18,6.9S649.11,241,651.37,241s17-1.73,17-1.73,16.37-5.74,9.72-10.37-17.27-2.28-21.8-2S653,225.59,646.23,225.76Z"
     id="path1262" />
  <path
     class="q"
     d="M655.29,206.65c-1.5-18.76-.57-37.84.33-56.28q.2-3.94.38-7.88c.94-20.26,1.57-41.79-1.9-62.59-3.72-22.27-22-55.21-22-55.21s22.65,30.09,26.61,53.84c3.61,21.58,3,43.6,2,64.3q-.18,4-.38,7.9c-.89,18.19-1.8,37.57-.34,55.81a8.23,8.23,0,0,1-2.4.87A3.57,3.57,0,0,1,655.29,206.65Z"
     id="path1264" />
  <path
     class="q"
     d="M660.86,201.08c1.2-12.06,1.48-24.2,1.79-36.3.34-13.63.62-27.26,1.47-40.87.81-12.76,2-25.58,4.89-38.07,2.26-10,5.54-20.36,12-28.48a29.8,29.8,0,0,1,22.72-11.63c1.27,0,2.55,0,3.82.05,1.93.11,1.93-2.89,0-3-9.76-.56-19.15,2.5-26.08,9.53-7.24,7.36-11.26,17.42-14,27.22-3.42,12.39-4.93,25.3-5.93,38.09-1.08,13.76-1.44,27.57-1.78,41.37-.31,12.66-.53,25.34-1.56,38-.11,1.37-.23,2.75-.37,4.12-.19,1.92,2.81,1.91,3,0Z"
     id="path1266" />
  <use
     width="122.96"
     height="67.81"
     transform="translate(702.07 30.25) rotate(10.82) scale(0.45)"
     xlink:href="#a"
     id="use1268" />
  <use
     width="122.96"
     height="67.81"
     transform="matrix(0.38, 0.23, -0.23, 0.38, 704.14, 33.81)"
     xlink:href="#a"
     id="use1270" />
  <use
     width="122.96"
     height="67.81"
     transform="matrix(0.38, 0.23, -0.23, 0.38, 697.31, 50.68)"
     xlink:href="#a"
     id="use1272" />
  <use
     width="122.96"
     height="67.81"
     transform="translate(706.88 48.49) rotate(22.87) scale(0.45)"
     xlink:href="#a"
     id="use1274" />
  <use
     width="122.96"
     height="67.81"
     transform="translate(682.16 48.16) rotate(22.87) scale(0.45)"
     xlink:href="#a"
     id="use1276" />
  <path
     class="q"
     d="M665.29,209.11c-3-13.11-1.1-73.73,11.65-102.49,5.27-11.49,13.17-20.51,21.48-29.5,0,0-14,19.45-18.89,30.08-12.62,28.62-11.92,89-8.25,102A4.28,4.28,0,0,1,665.29,209.11Z"
     id="path1278" />
  <path
     class="r"
     d="M665.67,209.88c6-60.31-15.29-178.72-15.29-178.72s14.79,118.91,8.82,178.61a8.12,8.12,0,0,0,3.3,1A4.75,4.75,0,0,0,665.67,209.88Z"
     id="path1280" />
  <path
     class="r"
     d="M667.5,210.4c2.84-54.49,16-83,16-83S668,178.83,671.64,209.88a2.34,2.34,0,0,1-2.1,1.58C667.84,211.59,667.5,210.4,667.5,210.4Z"
     id="path1282" />
  <path
     class="o"
     d="M659.64,212.28a468.34,468.34,0,0,0-13.22-77.51C636,94.68,616.24,67.58,616.24,67.58s30.07,43.59,35.74,65.47a482.12,482.12,0,0,1,13.3,79.2,10.9,10.9,0,0,1-2.84.82A3.08,3.08,0,0,1,659.64,212.28Z"
     id="path1284" />
  <path
     class="s"
     d="M653.36,93.55h0"
     id="path1286" />
  <path
     class="s"
     d="M653.37,93.54h0"
     id="path1288" />
  <path
     class="s"
     d="M653.36,93.55h0"
     id="path1290" />
  <g
     id="g1448">
    <path
       class="r"
       d="M188.66,73.3c-.81-13.8-11.83-30-18.64-41.4,5.06,16.49,11.2,48.41,14.24,65.55Z"
       id="path1292" />
    <path
       class="r"
       d="M236.09,32.67,249.43,74l-6.67,68.69-20.14-39.17,9.15-42.86a41.1,41.1,0,0,0,4.43-28"
       id="path1294" />
    <path
       class="t"
       d="M224.93,207.55c9-22.15,13.68-39.42,14.44-62.89.71-21.87.57-41.84-2.82-63.52-1.7-10.84-2.89-23-5.85-33.72-6-21.7-21.5-17.73-17.73-26.13-5.55,8.4-2,4.27-4.42-.9,1.88,7-8.29,8.6-11.06,15.69-10.83,27.75-13.28,62.78-16.77,89.35-3.74,28.47-.63,56.23,13.56,82.12Z"
       id="path1296" />
    <use
       width="13.91"
       height="16.66"
       transform="matrix(-0.48, 0, 0, 0.46, 189.9, 184.96)"
       xlink:href="#ep"
       id="use1298" />
    <use
       width="38.64"
       height="25.1"
       transform="matrix(-0.48, 0, 0, 0.46, 203.58, 190.15)"
       xlink:href="#eq"
       id="use1300" />
    <use
       width="13.91"
       height="16.66"
       transform="translate(223.72 35.82) scale(0.26 0.35)"
       xlink:href="#ep"
       id="use1302" />
    <use
       width="13.91"
       height="16.66"
       transform="translate(226.32 44.63) scale(0.33 0.39)"
       xlink:href="#ep"
       id="use1304" />
    <use
       width="13.91"
       height="16.66"
       transform="translate(228.42 56) scale(0.38 0.36)"
       xlink:href="#ep"
       id="use1306" />
    <use
       width="13.91"
       height="16.66"
       transform="translate(230.06 66.56) scale(0.42 0.44)"
       xlink:href="#ep"
       id="use1308" />
    <use
       width="13.91"
       height="16.66"
       transform="translate(231.54 78.92) scale(0.45 0.46)"
       xlink:href="#ep"
       id="use1310" />
    <use
       width="13.91"
       height="16.66"
       transform="translate(232.52 92.41) scale(0.47 0.51)"
       xlink:href="#ep"
       id="use1312" />
    <use
       width="13.91"
       height="16.66"
       transform="translate(232.68 104.75) scale(0.47 0.51)"
       xlink:href="#ep"
       id="use1314" />
    <use
       width="13.91"
       height="16.66"
       transform="translate(233.2 119.01) scale(0.48 0.51)"
       xlink:href="#ep"
       id="use1316" />
    <use
       width="13.91"
       height="16.66"
       transform="translate(233.03 132.75) scale(0.48 0.51)"
       xlink:href="#ep"
       id="use1318" />
    <use
       width="13.91"
       height="16.66"
       transform="translate(233.2 146.09) scale(0.48 0.51)"
       xlink:href="#ep"
       id="use1320" />
    <use
       width="13.91"
       height="16.66"
       transform="translate(232.84 160.44) scale(0.48 0.46)"
       xlink:href="#ep"
       id="use1322" />
    <use
       width="13.91"
       height="16.66"
       transform="translate(233.03 173.72) scale(0.48 0.46)"
       xlink:href="#ep"
       id="use1324" />
    <use
       width="13.91"
       height="16.66"
       transform="translate(233.03 184.96) scale(0.48 0.46)"
       xlink:href="#ep"
       id="use1326" />
    <use
       width="13.91"
       height="16.66"
       transform="matrix(-0.26, 0, 0, 0.35, 200.3, 35.82)"
       xlink:href="#ep"
       id="use1328" />
    <use
       width="13.91"
       height="16.66"
       transform="matrix(-0.33, 0, 0, 0.39, 196.96, 44.63)"
       xlink:href="#ep"
       id="use1330" />
    <use
       width="13.91"
       height="16.66"
       transform="matrix(-0.38, 0, 0, 0.36, 194.68, 56)"
       xlink:href="#ep"
       id="use1332" />
    <use
       width="13.91"
       height="16.66"
       transform="matrix(-0.42, 0, 0, 0.44, 192.67, 66.56)"
       xlink:href="#ep"
       id="use1334" />
    <use
       width="13.91"
       height="16.66"
       transform="matrix(-0.45, 0, 0, 0.46, 191.04, 78.92)"
       xlink:href="#ep"
       id="use1336" />
    <use
       width="13.91"
       height="16.66"
       transform="matrix(-0.47, 0, 0, 0.51, 190.41, 92.41)"
       xlink:href="#ep"
       id="use1338" />
    <use
       width="13.91"
       height="16.66"
       transform="matrix(-0.47, 0, 0, 0.51, 190.25, 104.75)"
       xlink:href="#ep"
       id="use1340" />
    <use
       width="13.91"
       height="16.66"
       transform="matrix(-0.48, 0, 0, 0.51, 190.06, 119.01)"
       xlink:href="#ep"
       id="use1342" />
    <use
       width="13.91"
       height="16.66"
       transform="matrix(-0.48, 0, 0, 0.51, 189.9, 132.75)"
       xlink:href="#ep"
       id="use1344" />
    <use
       width="13.91"
       height="16.66"
       transform="matrix(-0.48, 0, 0, 0.51, 190.06, 146.09)"
       xlink:href="#ep"
       id="use1346" />
    <use
       width="13.91"
       height="16.66"
       transform="matrix(-0.48, 0, 0, 0.46, 189.7, 160.44)"
       xlink:href="#ep"
       id="use1348" />
    <use
       width="13.91"
       height="16.66"
       transform="matrix(-0.48, 0, 0, 0.46, 189.9, 173.72)"
       xlink:href="#ep"
       id="use1350" />
    <use
       width="38.64"
       height="25.1"
       transform="translate(217.01 39.41) scale(0.33 0.39)"
       xlink:href="#eq"
       id="use1352" />
    <use
       width="38.64"
       height="25.1"
       transform="translate(217.95 49.91) scale(0.39 0.43)"
       xlink:href="#eq"
       id="use1354" />
    <use
       width="38.64"
       height="25.1"
       transform="translate(218.36 61.4) scale(0.42 0.44)"
       xlink:href="#eq"
       id="use1356" />
    <use
       width="38.64"
       height="25.1"
       transform="translate(218.86 73.3) scale(0.45 0.46)"
       xlink:href="#eq"
       id="use1358" />
    <use
       width="38.64"
       height="25.1"
       transform="translate(219.35 85.79) scale(0.48 0.51)"
       xlink:href="#eq"
       id="use1360" />
    <use
       width="38.64"
       height="25.1"
       transform="translate(219.35 99.18) scale(0.48 0.51)"
       xlink:href="#eq"
       id="use1362" />
    <use
       width="38.64"
       height="25.1"
       transform="translate(219.35 112.56) scale(0.48 0.51)"
       xlink:href="#eq"
       id="use1364" />
    <use
       width="38.64"
       height="25.1"
       transform="translate(219.35 125.95) scale(0.48 0.51)"
       xlink:href="#eq"
       id="use1366" />
    <use
       width="38.64"
       height="25.1"
       transform="translate(219.35 139.34) scale(0.48 0.51)"
       xlink:href="#eq"
       id="use1368" />
    <use
       width="38.64"
       height="25.1"
       transform="translate(219.35 152.72) scale(0.48 0.51)"
       xlink:href="#eq"
       id="use1370" />
    <use
       width="38.64"
       height="25.1"
       transform="translate(219.35 165.78) scale(0.48 0.46)"
       xlink:href="#eq"
       id="use1372" />
    <use
       width="38.64"
       height="25.1"
       transform="translate(219.35 177.96) scale(0.48 0.46)"
       xlink:href="#eq"
       id="use1374" />
    <use
       width="38.64"
       height="25.1"
       transform="translate(219.64 190.15) scale(0.48 0.46)"
       xlink:href="#eq"
       id="use1376" />
    <use
       width="38.64"
       height="25.1"
       transform="matrix(-0.26, 0, 0, 0.35, 207.88, 30.49)"
       xlink:href="#eq"
       id="use1378" />
    <use
       width="38.64"
       height="25.1"
       transform="matrix(-0.33, 0, 0, 0.39, 206.47, 39.41)"
       xlink:href="#eq"
       id="use1380" />
    <use
       width="38.64"
       height="25.1"
       transform="matrix(-0.39, 0, 0, 0.43, 205.39, 49.91)"
       xlink:href="#eq"
       id="use1382" />
    <use
       width="38.64"
       height="25.1"
       transform="matrix(-0.42, 0, 0, 0.44, 204.94, 61.4)"
       xlink:href="#eq"
       id="use1384" />
    <use
       width="38.64"
       height="25.1"
       transform="matrix(-0.45, 0, 0, 0.46, 204.32, 73.3)"
       xlink:href="#eq"
       id="use1386" />
    <use
       width="38.64"
       height="25.1"
       transform="matrix(-0.48, 0, 0, 0.51, 203.87, 85.79)"
       xlink:href="#eq"
       id="use1388" />
    <use
       width="38.64"
       height="25.1"
       transform="matrix(-0.48, 0, 0, 0.51, 203.87, 99.18)"
       xlink:href="#eq"
       id="use1390" />
    <use
       width="38.64"
       height="25.1"
       transform="matrix(-0.48, 0, 0, 0.51, 203.87, 112.56)"
       xlink:href="#eq"
       id="use1392" />
    <use
       width="38.64"
       height="25.1"
       transform="matrix(-0.48, 0, 0, 0.51, 203.87, 125.95)"
       xlink:href="#eq"
       id="use1394" />
    <use
       width="38.64"
       height="25.1"
       transform="matrix(-0.48, 0, 0, 0.51, 203.87, 139.34)"
       xlink:href="#eq"
       id="use1396" />
    <use
       width="38.64"
       height="25.1"
       transform="matrix(-0.48, 0, 0, 0.51, 203.87, 152.72)"
       xlink:href="#eq"
       id="use1398" />
    <use
       width="38.64"
       height="25.1"
       transform="matrix(-0.48, 0, 0, 0.46, 203.87, 165.78)"
       xlink:href="#eq"
       id="use1400" />
    <use
       width="38.64"
       height="25.1"
       transform="matrix(-0.48, 0, 0, 0.46, 203.87, 177.96)"
       xlink:href="#eq"
       id="use1402" />
    <use
       width="42.49"
       height="27.56"
       transform="translate(206.7 28.54) scale(0.26 0.24)"
       xlink:href="#gq"
       id="use1404" />
    <use
       width="42.49"
       height="27.56"
       transform="translate(204.98 34.94) scale(0.33 0.39)"
       xlink:href="#gq"
       id="use1406" />
    <use
       width="42.49"
       height="27.56"
       transform="translate(203.61 45.96) scale(0.39 0.43)"
       xlink:href="#gq"
       id="use1408" />
    <use
       width="42.49"
       height="27.56"
       transform="translate(203.05 58.31) scale(0.42 0.44)"
       xlink:href="#gq"
       id="use1410" />
    <use
       width="42.49"
       height="27.56"
       transform="translate(202.27 71.12) scale(0.45 0.46)"
       xlink:href="#gq"
       id="use1412" />
    <use
       width="42.49"
       height="27.56"
       transform="translate(201.68 84.56) scale(0.48 0.51)"
       xlink:href="#gq"
       id="use1414" />
    <use
       width="42.49"
       height="27.56"
       transform="translate(201.68 99.09) scale(0.48 0.51)"
       xlink:href="#gq"
       id="use1416" />
    <use
       width="42.49"
       height="27.56"
       transform="translate(201.68 113.62) scale(0.48 0.51)"
       xlink:href="#gq"
       id="use1418" />
    <use
       width="42.49"
       height="27.56"
       transform="translate(201.68 128.15) scale(0.48 0.51)"
       xlink:href="#gq"
       id="use1420" />
    <use
       width="42.49"
       height="27.56"
       transform="translate(201.68 142.68) scale(0.48 0.51)"
       xlink:href="#gq"
       id="use1422" />
    <use
       width="42.49"
       height="27.56"
       transform="translate(201.68 157.21) scale(0.48 0.51)"
       xlink:href="#gq"
       id="use1424" />
    <use
       width="42.49"
       height="27.56"
       transform="translate(201.68 170.91) scale(0.48 0.46)"
       xlink:href="#gq"
       id="use1426" />
    <use
       width="42.49"
       height="27.56"
       transform="translate(201.68 184.13) scale(0.48 0.46)"
       xlink:href="#gq"
       id="use1428" />
    <use
       width="42.49"
       height="27.56"
       transform="translate(201.68 197.36) scale(0.48 0.4)"
       xlink:href="#gq"
       id="use1430" />
    <use
       width="38.64"
       height="25.1"
       transform="translate(216.29 30.49) scale(0.26 0.35)"
       xlink:href="#eq"
       id="use1432" />
    <path
       class="q"
       d="M213.6,214l.73-.09a68.22,68.22,0,0,0,7.63-1.4,63.44,63.44,0,0,1-.56-10.09c23.58-42.77,35.73-94.22,27.68-140.66a153.25,153.25,0,0,0-13-29.11c11.87,49-.28,104.87-25.59,150.77-8.76-19.64-21.24-42.9-22.88-57.62-2.6-23.34-2.9-29.06-5.44-43.38A424,424,0,0,0,170,31.9a153,153,0,0,1,1.89,16.51c.68,10.8.71,21.81.47,32.89,2.57,10.35,4.05,20.92,2.08,30.7-4.38,21.74,7.61,68.52,20.47,99.51l.7.69A40.45,40.45,0,0,0,213.6,214Z"
       id="path1434" />
    <path
       class="o"
       d="M174.46,112c2-9.78.49-20.35-2.08-30.7-.54,25.25-2.51,50.87-1.47,75.2.93,21.58,12.52,43.6,24,55C182.07,180.52,170.08,133.74,174.46,112Z"
       id="path1436" />
    <path
       class="o"
       d="M249.08,61.77c8,46.44-4.1,97.89-27.68,140.66a63.44,63.44,0,0,0,.56,10.09c2.92-.7,5.81-1.55,8.68-2.47C253.91,179.28,267.3,117.36,249.08,61.77Z"
       id="path1438" />
    <path
       class="s"
       d="M260.81,94.34l0,0"
       id="path1440" />
    <path
       class="s"
       d="M260.81,94.34l0,0"
       id="path1442" />
    <line
       class="s"
       x1="260.85"
       y1="94.39"
       x2="260.84"
       y2="94.31"
       id="line1444" />
    <line
       class="s"
       x1="260.85"
       y1="94.39"
       x2="260.85"
       y2="94.4"
       id="line1446" />
  </g>
  <path
     class="s"
     d="M653.36,93.55h0"
     id="path1450" />
  <polyline
     class="s"
     points="653.37 93.54 653.37 93.56 653.37 93.55"
     id="polyline1452" />
  <line
     class="s"
     x1="656.49"
     y1="63.73"
     x2="656.49"
     y2="63.73"
     id="line1454" />
  <line
     class="s"
     x1="654.91"
     y1="76.41"
     x2="655.15"
     y2="76.53"
     id="line1456" />
  <g
     id="g1496">
    <use
       width="158.32"
       height="140.32"
       transform="translate(81.76 257.26) scale(0.81)"
       xlink:href="#hf"
       id="use1458" />
    <g
       id="g1478">
      <path
         class="u"
         d="M119,352.51h-1.53v-2.38h-2.28v-1.56h2.28v-2.38H119v2.38h2.27v1.56H119Z"
         id="path1460" />
      <path
         class="u"
         d="M125.3,346h-.11l-2.07,1.43V345.8l2.18-1.51h1.77v8.46H125.3Z"
         id="path1462" />
      <path
         class="u"
         d="M129.3,348.5c0-2.8,1.28-4.43,3.36-4.43s3.36,1.63,3.36,4.44-1.27,4.45-3.36,4.45S129.3,351.31,129.3,348.5Zm4.93,0c0-2-.6-3-1.57-3s-1.56,1-1.56,3,.6,3,1.56,3S134.23,350.51,134.23,348.5Z"
         id="path1464" />
      <path
         class="u"
         d="M140.61,353.3h1.68c.09.4.57.65,1.31.65.92,0,1.45-.42,1.45-1.15v-1.19h-.11a2,2,0,0,1-1.94,1c-1.61,0-2.62-1.25-2.62-3.19s1-3.28,2.65-3.28a2.13,2.13,0,0,1,2,1.14h.1v-1h1.65v6.44c0,1.52-1.23,2.48-3.18,2.48C141.85,355.2,140.71,354.44,140.61,353.3Zm4.46-3.84c0-1.14-.56-1.85-1.48-1.85s-1.45.71-1.45,1.84.52,1.85,1.45,1.85S145.07,350.6,145.07,349.46Z"
         id="path1466" />
      <path
         class="u"
         d="M148.46,346.28h1.66v1h.1a1.66,1.66,0,0,1,1.66-1.13,2.51,2.51,0,0,1,.67.08v1.55a3.29,3.29,0,0,0-.81-.1,1.42,1.42,0,0,0-1.57,1.46v3.58h-1.71Z"
         id="path1468" />
      <path
         class="u"
         d="M153.22,350.9c0-1.17.9-1.85,2.5-1.94l1.57-.1v-.53c0-.54-.39-.84-1.09-.84s-1,.21-1.17.6h-1.57c.11-1.2,1.21-1.95,2.83-1.95s2.68.81,2.68,2.19v4.42h-1.65v-.85h-.11a2.07,2.07,0,0,1-1.87,1A1.94,1.94,0,0,1,153.22,350.9Zm4.07-.5v-.47L156,350c-.73.05-1.09.32-1.09.78s.42.77,1,.77A1.26,1.26,0,0,0,157.29,350.4Z"
         id="path1470" />
      <path
         class="u"
         d="M160.55,344.34a1,1,0,1,1,1.93,0,1,1,0,1,1-1.93,0Zm.11,1.94h1.7v6.47h-1.7Z"
         id="path1472" />
      <path
         class="u"
         d="M164.09,346.28h1.65v1h.1a1.92,1.92,0,0,1,1.91-1.18c1.44,0,2.21.88,2.21,2.43v4.18h-1.7V349c0-.89-.38-1.36-1.19-1.36a1.26,1.26,0,0,0-1.28,1.41v3.73h-1.7Z"
         id="path1474" />
      <path
         class="u"
         d="M174.16,346.14c1.64,0,2.61.69,2.7,1.92h-1.58c-.08-.41-.48-.67-1.11-.67s-1.06.28-1.06.69.27.51.87.64l1.22.26c1.25.28,1.81.81,1.81,1.77,0,1.29-1.15,2.14-2.85,2.14s-2.73-.7-2.85-1.94H173c.13.44.55.69,1.23.69s1.12-.28,1.12-.69-.25-.51-.82-.64l-1.17-.26c-1.25-.27-1.86-.87-1.86-1.87C171.47,347,172.55,346.14,174.16,346.14Z"
         id="path1476" />
    </g>
    <g
       id="g1492">
      <path
         class="v"
         d="M132.71,284.46h-2.12l-1.35-5.2h-.12l-1.34,5.2h-2.09l-2-7.54h2l1.12,5.41h.12l1.32-5.41h1.9l1.33,5.41h.12l1.12-5.41h2Z"
         id="path1480" />
      <path
         class="v"
         d="M135.52,282.31c0-1.37,1-2.16,2.91-2.27l1.83-.11v-.62c0-.63-.45-1-1.27-1s-1.2.25-1.36.7H135.8c.13-1.4,1.4-2.27,3.3-2.27s3.12.94,3.12,2.55v5.15h-1.93v-1h-.12a2.43,2.43,0,0,1-2.19,1.1A2.24,2.24,0,0,1,135.52,282.31Zm4.74-.58v-.56l-1.52.1c-.86.06-1.28.37-1.28.91s.49.9,1.18.9A1.48,1.48,0,0,0,140.26,281.73Z"
         id="path1482" />
      <path
         class="v"
         d="M146.73,275.13V277h1.57v1.56h-1.57V282c0,.66.3,1,1,1a4.91,4.91,0,0,0,.59,0v1.52a5.43,5.43,0,0,1-1,.09c-1.83,0-2.56-.6-2.56-2.07v-3.86h-1.17V277h1.17v-1.87Z"
         id="path1484" />
      <path
         class="v"
         d="M156.62,282.31c-.29,1.42-1.59,2.31-3.44,2.31-2.3,0-3.65-1.44-3.65-3.89s1.38-4,3.62-4,3.54,1.41,3.54,3.8v.61h-5.18v.11a1.67,1.67,0,0,0,1.72,1.81,1.52,1.52,0,0,0,1.54-.78Zm-5.1-2.41h3.21a1.52,1.52,0,0,0-1.57-1.62A1.61,1.61,0,0,0,151.52,279.9Z"
         id="path1486" />
      <path
         class="v"
         d="M158.31,276.92h1.93v1.2h.12a1.94,1.94,0,0,1,1.94-1.32,2.88,2.88,0,0,1,.78.09v1.82a3.28,3.28,0,0,0-1-.13,1.66,1.66,0,0,0-1.83,1.7v4.18h-2Z"
         id="path1488" />
      <path
         class="v"
         d="M164.66,283.5a1.25,1.25,0,1,1,1.24,1.17A1.12,1.12,0,0,1,164.66,283.5Zm2.34-8.9-.19,6.61H165l-.18-6.61Z"
         id="path1490" />
    </g>
    <use
       width="47.4"
       height="32.22"
       transform="translate(118.86 303.44)"
       xlink:href="#hg"
       id="use1494" />
  </g>
  <g
     id="g1534">
    <use
       width="158.32"
       height="140.32"
       transform="translate(467.58 257.26) scale(0.81)"
       xlink:href="#hf"
       id="use1498" />
    <g
       id="g1516">
      <path
         class="u"
         d="M508.05,352.51h-1.53v-2.38h-2.27v-1.56h2.27v-2.38h1.53v2.38h2.28v1.56h-2.28Z"
         id="path1500" />
      <path
         class="u"
         d="M512.37,350.34H514a1.41,1.41,0,0,0,1.49,1.18A1.45,1.45,0,0,0,517,350a1.42,1.42,0,0,0-1.47-1.51,1.57,1.57,0,0,0-1.45.81h-1.58l.45-5h5.28v1.45h-3.91L514.1,348h.1a2.06,2.06,0,0,1,1.85-.85,2.59,2.59,0,0,1,2.63,2.78,2.93,2.93,0,0,1-3.18,3A2.84,2.84,0,0,1,512.37,350.34Z"
         id="path1502" />
      <path
         class="u"
         d="M523.23,353.3h1.69c.09.4.57.65,1.31.65.91,0,1.44-.42,1.44-1.15v-1.19h-.1a2.05,2.05,0,0,1-2,1c-1.61,0-2.61-1.25-2.61-3.19s1-3.28,2.65-3.28a2.12,2.12,0,0,1,2,1.14h.11v-1h1.65v6.44c0,1.52-1.24,2.48-3.19,2.48C524.47,355.2,523.34,354.44,523.23,353.3Zm4.46-3.84c0-1.14-.56-1.85-1.48-1.85s-1.45.71-1.45,1.84.53,1.85,1.45,1.85S527.69,350.6,527.69,349.46Z"
         id="path1504" />
      <path
         class="u"
         d="M531.09,346.28h1.65v1h.11a1.65,1.65,0,0,1,1.65-1.13,2.45,2.45,0,0,1,.67.08v1.55a3.22,3.22,0,0,0-.81-.1,1.42,1.42,0,0,0-1.57,1.46v3.58h-1.7Z"
         id="path1506" />
      <path
         class="u"
         d="M535.85,350.9c0-1.17.89-1.85,2.5-1.94l1.56-.1v-.53c0-.54-.38-.84-1.09-.84s-1,.21-1.16.6h-1.57c.11-1.2,1.2-1.95,2.83-1.95s2.67.81,2.67,2.19v4.42h-1.65v-.85h-.1a2.1,2.1,0,0,1-1.88,1A1.93,1.93,0,0,1,535.85,350.9Zm4.06-.5v-.47l-1.3.08c-.74.05-1.09.32-1.09.78s.41.77,1,.77A1.26,1.26,0,0,0,539.91,350.4Z"
         id="path1508" />
      <path
         class="u"
         d="M543.17,344.34a1,1,0,1,1,1,1A1,1,0,0,1,543.17,344.34Zm.11,1.94H545v6.47h-1.71Z"
         id="path1510" />
      <path
         class="u"
         d="M546.71,346.28h1.65v1h.11a1.91,1.91,0,0,1,1.91-1.18c1.43,0,2.21.88,2.21,2.43v4.18h-1.71V349c0-.89-.38-1.36-1.19-1.36a1.25,1.25,0,0,0-1.27,1.41v3.73h-1.71Z"
         id="path1512" />
      <path
         class="u"
         d="M556.78,346.14c1.64,0,2.61.69,2.7,1.92h-1.57c-.09-.41-.48-.67-1.12-.67s-1.06.28-1.06.69.28.51.88.64l1.21.26c1.25.28,1.82.81,1.82,1.77,0,1.29-1.16,2.14-2.85,2.14s-2.74-.7-2.86-1.94h1.67c.13.44.54.69,1.22.69s1.12-.28,1.12-.69-.24-.51-.81-.64l-1.17-.26c-1.26-.27-1.87-.87-1.87-1.87C554.09,347,555.17,346.14,556.78,346.14Z"
         id="path1514" />
    </g>
    <g
       id="g1530">
      <path
         class="v"
         d="M518.54,284.46h-2.12l-1.35-5.2H515l-1.34,5.2h-2.09l-2-7.54h2l1.12,5.41h.12l1.32-5.41H516l1.33,5.41h.12l1.12-5.41h2Z"
         id="path1518" />
      <path
         class="v"
         d="M521.34,282.31c0-1.37,1-2.16,2.92-2.27l1.83-.11v-.62c0-.63-.45-1-1.27-1s-1.2.25-1.36.7h-1.84c.13-1.4,1.41-2.27,3.31-2.27s3.12.94,3.12,2.55v5.15h-1.93v-1H526a2.43,2.43,0,0,1-2.19,1.1A2.25,2.25,0,0,1,521.34,282.31Zm4.75-.58v-.56l-1.53.1c-.85.06-1.27.37-1.27.91s.49.9,1.18.9A1.48,1.48,0,0,0,526.09,281.73Z"
         id="path1520" />
      <path
         class="v"
         d="M532.56,275.13V277h1.57v1.56h-1.57V282c0,.66.3,1,1,1a4.91,4.91,0,0,0,.59,0v1.52a5.43,5.43,0,0,1-1,.09c-1.83,0-2.56-.6-2.56-2.07v-3.86H529.4V277h1.17v-1.87Z"
         id="path1522" />
      <path
         class="v"
         d="M542.45,282.31c-.29,1.42-1.6,2.31-3.44,2.31-2.3,0-3.65-1.44-3.65-3.89s1.38-4,3.62-4,3.54,1.41,3.54,3.8v.61h-5.18v.11a1.66,1.66,0,0,0,1.72,1.81,1.52,1.52,0,0,0,1.54-.78Zm-5.1-2.41h3.21a1.52,1.52,0,0,0-1.57-1.62A1.61,1.61,0,0,0,537.35,279.9Z"
         id="path1524" />
      <path
         class="v"
         d="M544.14,276.92h1.93v1.2h.12a1.94,1.94,0,0,1,1.94-1.32,2.88,2.88,0,0,1,.78.09v1.82a3.28,3.28,0,0,0-.95-.13,1.66,1.66,0,0,0-1.83,1.7v4.18h-2Z"
         id="path1526" />
      <path
         class="v"
         d="M550.49,283.5a1.24,1.24,0,1,1,1.24,1.17A1.12,1.12,0,0,1,550.49,283.5Zm2.33-8.9-.18,6.61h-1.83l-.17-6.61Z"
         id="path1528" />
    </g>
    <use
       width="47.4"
       height="32.22"
       transform="translate(504.69 303.44)"
       xlink:href="#hg"
       id="use1532" />
  </g>
  <use
     width="273.24"
     height="46.05"
     transform="translate(77.47 195.17)"
     xlink:href="#ht"
     id="use1536" />
  <use
     width="273.24"
     height="46.05"
     transform="translate(533.69 195.17)"
     xlink:href="#ht"
     id="use1538" />
  <g
     id="g1548">
    <path
       class="f"
       d="M186.25,224.53c0-5.49,3-8.88,7.94-8.88,4,0,7.08,2.66,7.33,6.34h-3.44a3.79,3.79,0,0,0-3.89-3.22c-2.66,0-4.32,2.2-4.32,5.76s1.66,5.78,4.33,5.78a3.73,3.73,0,0,0,3.89-3.06h3.44c-.29,3.66-3.26,6.18-7.34,6.18C189.29,233.43,186.25,230,186.25,224.53Z"
       id="path1540" />
    <path
       class="f"
       d="M203.82,226.52c0-4.18,2.43-6.73,6.36-6.73s6.37,2.54,6.37,6.73-2.39,6.75-6.37,6.75S203.82,230.76,203.82,226.52Zm9.22,0c0-2.48-1-3.94-2.86-3.94s-2.86,1.46-2.86,3.94,1,4,2.86,4S213,229,213,226.52Z"
       id="path1542" />
    <path
       class="f"
       d="M219.32,220.07h3.31v2.06h.21a3.33,3.33,0,0,1,3.32-2.27,5,5,0,0,1,1.33.16v3.11a6,6,0,0,0-1.62-.21,2.84,2.84,0,0,0-3.14,2.91V233h-3.41Z"
       id="path1544" />
    <path
       class="f"
       d="M229.88,220.07h3.31v2.07h.21a3.84,3.84,0,0,1,3.82-2.35c2.87,0,4.42,1.75,4.42,4.85V233h-3.41v-7.54c0-1.78-.77-2.72-2.38-2.72a2.51,2.51,0,0,0-2.56,2.81V233h-3.41Z"
       id="path1546" />
  </g>
  <g
     id="g1558">
    <path
       class="f"
       d="M649.87,233h-3.54V216.08h7.1c3.72,0,6,2.07,6,5.43a5,5,0,0,1-3.07,4.8l3.56,6.68h-4l-3.16-6.13h-2.89Zm0-8.84H653c1.78,0,2.82-1,2.82-2.59a2.55,2.55,0,0,0-2.86-2.62h-3.07Z"
       id="path1550" />
    <path
       class="f"
       d="M662.46,216.18a1.93,1.93,0,1,1,1.93,1.95A1.94,1.94,0,0,1,662.46,216.18Zm.22,3.89h3.41V233h-3.41Z"
       id="path1552" />
    <path
       class="f"
       d="M677.78,224.63a2.39,2.39,0,0,0-2.56-2c-1.84,0-2.87,1.37-2.87,3.91s1,4,2.87,4a2.35,2.35,0,0,0,2.56-1.95H681c-.28,2.89-2.39,4.75-5.75,4.75-4,0-6.32-2.43-6.32-6.77s2.27-6.71,6.32-6.71c3.42,0,5.47,1.9,5.75,4.84Z"
       id="path1554" />
    <path
       class="f"
       d="M695.16,229.31c-.5,2.43-2.74,4-5.9,4-3.94,0-6.26-2.48-6.26-6.67s2.37-6.81,6.21-6.81,6.06,2.42,6.06,6.52v1.05H686.4v.17a2.86,2.86,0,0,0,3,3.12,2.61,2.61,0,0,0,2.64-1.34Zm-8.75-4.13h5.51a2.61,2.61,0,0,0-2.7-2.78A2.76,2.76,0,0,0,686.41,225.18Z"
       id="path1556" />
  </g>
  <g
     id="g1624">
    <use
       width="158.32"
       height="140.32"
       transform="translate(604.77 257.26) scale(0.81)"
       xlink:href="#hf"
       id="use1560" />
    <g
       id="g1580">
      <path
         class="u"
         d="M642,352.51H640.5v-2.38h-2.27v-1.56h2.27v-2.38H642v2.38h2.28v1.56H642Z"
         id="path1562" />
      <path
         class="u"
         d="M648.31,346h-.1l-2.08,1.43V345.8l2.19-1.51h1.76v8.46h-1.77Z"
         id="path1564" />
      <path
         class="u"
         d="M652.32,348.5c0-2.8,1.28-4.43,3.36-4.43s3.35,1.63,3.35,4.44-1.26,4.45-3.35,4.45S652.32,351.31,652.32,348.5Zm4.92,0c0-2-.6-3-1.56-3s-1.57,1-1.57,3,.6,3,1.57,3S657.24,350.51,657.24,348.5Z"
         id="path1566" />
      <path
         class="u"
         d="M663.62,353.3h1.69c.09.4.57.65,1.31.65.91,0,1.44-.42,1.44-1.15v-1.19H668a2.05,2.05,0,0,1-2,1c-1.61,0-2.61-1.25-2.61-3.19s1-3.28,2.65-3.28a2.12,2.12,0,0,1,2,1.14h.11v-1h1.65v6.44c0,1.52-1.24,2.48-3.19,2.48C664.86,355.2,663.73,354.44,663.62,353.3Zm4.46-3.84c0-1.14-.56-1.85-1.48-1.85s-1.45.71-1.45,1.84.53,1.85,1.45,1.85S668.08,350.6,668.08,349.46Z"
         id="path1568" />
      <path
         class="u"
         d="M671.48,346.28h1.65v1h.11a1.65,1.65,0,0,1,1.65-1.13,2.45,2.45,0,0,1,.67.08v1.55a3.22,3.22,0,0,0-.81-.1,1.42,1.42,0,0,0-1.57,1.46v3.58h-1.7Z"
         id="path1570" />
      <path
         class="u"
         d="M676.24,350.9c0-1.17.89-1.85,2.5-1.94l1.56-.1v-.53c0-.54-.38-.84-1.09-.84s-1,.21-1.16.6h-1.57c.11-1.2,1.2-1.95,2.83-1.95s2.67.81,2.67,2.19v4.42h-1.65v-.85h-.1a2.1,2.1,0,0,1-1.88,1A1.93,1.93,0,0,1,676.24,350.9Zm4.06-.5v-.47L679,350c-.74.05-1.09.32-1.09.78s.41.77,1,.77A1.26,1.26,0,0,0,680.3,350.4Z"
         id="path1572" />
      <path
         class="u"
         d="M683.56,344.34a1,1,0,1,1,1,1A1,1,0,0,1,683.56,344.34Zm.11,1.94h1.71v6.47h-1.71Z"
         id="path1574" />
      <path
         class="u"
         d="M687.1,346.28h1.65v1h.11a1.91,1.91,0,0,1,1.91-1.18c1.43,0,2.21.88,2.21,2.43v4.18h-1.71V349c0-.89-.38-1.36-1.19-1.36A1.26,1.26,0,0,0,688.8,349v3.73h-1.7Z"
         id="path1576" />
      <path
         class="u"
         d="M697.17,346.14c1.64,0,2.61.69,2.7,1.92H698.3c-.09-.41-.48-.67-1.12-.67s-1.06.28-1.06.69.28.51.88.64l1.21.26c1.25.28,1.82.81,1.82,1.77,0,1.29-1.16,2.14-2.85,2.14s-2.74-.7-2.86-1.94H696c.13.44.54.69,1.22.69s1.12-.28,1.12-.69-.24-.51-.81-.64l-1.17-.26c-1.26-.27-1.87-.87-1.87-1.87C694.48,347,695.56,346.14,697.17,346.14Z"
         id="path1578" />
    </g>
    <g
       id="g1604">
      <path
         class="v"
         d="M633.56,275.13V277h1.56v1.56h-1.56V282c0,.66.3,1,1,1a4.85,4.85,0,0,0,.58,0v1.52a5.26,5.26,0,0,1-1,.09c-1.83,0-2.55-.6-2.55-2.07v-3.86h-1.18V277h1.18v-1.87Z"
         id="path1582" />
      <path
         class="v"
         d="M636.78,276.92h1.93v1.2h.12a1.94,1.94,0,0,1,1.93-1.32,2.83,2.83,0,0,1,.78.09v1.82a3.26,3.26,0,0,0-.94-.13,1.65,1.65,0,0,0-1.83,1.7v4.18h-2Z"
         id="path1584" />
      <path
         class="v"
         d="M642.33,282.31c0-1.37,1-2.16,2.92-2.27l1.82-.11v-.62c0-.63-.45-1-1.27-1s-1.2.25-1.36.7h-1.83c.13-1.4,1.41-2.27,3.3-2.27s3.12.94,3.12,2.55v5.15h-1.92v-1H647a2.42,2.42,0,0,1-2.18,1.1A2.25,2.25,0,0,1,642.33,282.31Zm4.74-.58v-.56l-1.52.1c-.86.06-1.27.37-1.27.91s.48.9,1.17.9A1.47,1.47,0,0,0,647.07,281.73Z"
         id="path1586" />
      <path
         class="v"
         d="M651,276.92h1.93v1.21H653a2.23,2.23,0,0,1,2.23-1.37c1.67,0,2.58,1,2.58,2.83v4.87h-2v-4.4c0-1-.45-1.59-1.39-1.59a1.47,1.47,0,0,0-1.49,1.64v4.35h-2Z"
         id="path1588" />
      <path
         class="v"
         d="M662.74,276.76c1.91,0,3,.8,3.15,2.24h-1.84c-.1-.49-.56-.79-1.3-.79s-1.23.32-1.23.8.32.6,1,.75l1.41.31c1.46.32,2.12.94,2.12,2.07,0,1.5-1.35,2.48-3.32,2.48s-3.2-.81-3.33-2.26h1.94c.15.52.64.81,1.43.81s1.3-.32,1.3-.81-.28-.59-1-.74l-1.36-.3c-1.47-.32-2.18-1-2.18-2.18C659.6,277.71,660.86,276.76,662.74,276.76Z"
         id="path1590" />
      <path
         class="v"
         d="M675.13,280.69c0,2.43-1.15,3.89-3,3.89a2.34,2.34,0,0,1-2.27-1.27h-.13V287h-2v-10h1.93v1.24h.12a2.47,2.47,0,0,1,2.31-1.36C674,276.8,675.13,278.25,675.13,280.69Zm-2,0c0-1.38-.64-2.22-1.7-2.22s-1.72.84-1.72,2.22.66,2.23,1.71,2.23S673.09,282.08,673.09,280.69Z"
         id="path1592" />
      <path
         class="v"
         d="M676.82,274h2v10.42h-2Z"
         id="path1594" />
      <path
         class="v"
         d="M680.47,282.31c0-1.37,1-2.16,2.92-2.27l1.83-.11v-.62c0-.63-.45-1-1.27-1s-1.2.25-1.37.7h-1.83c.13-1.4,1.41-2.27,3.3-2.27s3.13.94,3.13,2.55v5.15h-1.93v-1h-.12a2.43,2.43,0,0,1-2.19,1.1A2.25,2.25,0,0,1,680.47,282.31Zm4.75-.58v-.56l-1.53.1c-.85.06-1.27.37-1.27.91s.49.9,1.18.9A1.48,1.48,0,0,0,685.22,281.73Z"
         id="path1596" />
      <path
         class="v"
         d="M689.13,276.92h1.93v1.21h.12a2.24,2.24,0,0,1,2.23-1.37c1.68,0,2.58,1,2.58,2.83v4.87h-2v-4.4c0-1-.44-1.59-1.39-1.59a1.47,1.47,0,0,0-1.49,1.64v4.35h-2Z"
         id="path1598" />
      <path
         class="v"
         d="M700.47,275.13V277H702v1.56h-1.57V282c0,.66.31,1,1,1a4.91,4.91,0,0,0,.59,0v1.52a5.43,5.43,0,0,1-1,.09c-1.83,0-2.55-.6-2.55-2.07v-3.86h-1.18V277h1.18v-1.87Z"
         id="path1600" />
      <path
         class="v"
         d="M704,283.5a1.25,1.25,0,1,1,1.24,1.17A1.12,1.12,0,0,1,704,283.5Zm2.34-8.9-.19,6.61h-1.82l-.18-6.61Z"
         id="path1602" />
    </g>
    <g
       id="g1622">
      <path
         class="m"
         d="M664.39,333.07c-3.5,0-4.65,1.1-4.18,2s5.71,2.39,6.86,2.49a45.7,45.7,0,0,0,8.73-.48s8.39-1.66,5-3-8.87-.7-11.2-.62S667.89,333,664.39,333.07Z"
         id="path1606" />
      <path
         class="p"
         d="M665.62,333.59c-1.72,0-2.3.66-2.07,1.21s2.8,1.46,3.37,1.47,4.31-.3,4.31-.3,4.15-1,2.46-1.82-4.37-.4-5.52-.35S667.35,333.56,665.62,333.59Z"
         id="path1608" />
      <path
         class="q"
         d="M667.9,334.16a45.28,45.28,0,0,1-.29-10.45c0-.49,0-1,.07-1.46.17-3.75.23-7.74-1.1-11.66-1.41-4.19-7.8-10.6-7.8-10.6s7.85,5.94,9.36,10.42c1.37,4.06,1.32,8.15,1.14,12,0,.49,0,1-.07,1.46a45.64,45.64,0,0,0,.29,10.37,4,4,0,0,1-.8.12A1.9,1.9,0,0,1,667.9,334.16Z"
         id="path1610" />
      <path
         class="r"
         d="M671.43,334.93c1.6-11.12-6.45-33.45-6.45-33.45s5.85,22.32,4.26,33.32a4.41,4.41,0,0,0,1.13.24A2.49,2.49,0,0,0,671.43,334.93Z"
         id="path1612" />
      <path
         class="o"
         d="M669.41,335.28a56.91,56.91,0,0,0-5-14.61,42.83,42.83,0,0,0-10.66-12.95s10.46,8.56,12.52,12.72a57.83,57.83,0,0,1,5.06,14.92,5.62,5.62,0,0,1-.95.11A1.67,1.67,0,0,1,669.41,335.28Z"
         id="path1614" />
      <g
         id="g1620">
        <path
           class="s"
           d="M679.23,313.46a14.88,14.88,0,0,1,2.59,10.41"
           id="path1616" />
        <polygon
           class="v"
           points="679.02 322.24 680.6 328.01 684.81 323.76 679.02 322.24"
           id="polygon1618" />
      </g>
    </g>
  </g>
  <g
     id="g1662">
    <use
       width="158.32"
       height="140.32"
       transform="translate(216.87 257.26) scale(0.81)"
       xlink:href="#hf"
       id="use1626"
       style="fill:#4a4a4a;fill-opacity:1" />
    <g
       id="g1646">
      <path
         class="u"
         d="m 247.02983,348.66758 v -0.06 l -4.17,-1.48 v -1.77 l 6.09,2.47 v 1.56 l -6.09,2.47 v -1.73 z"
         id="path1628" />
      <path
         class="u"
         d="M262.08,346H262l-2.08,1.43V345.8l2.19-1.51h1.76v8.46h-1.77Z"
         id="path1630" />
      <path
         class="u"
         d="M266.28,350.34h1.63a1.4,1.4,0,0,0,1.48,1.18A1.45,1.45,0,0,0,270.9,350a1.42,1.42,0,0,0-1.47-1.51,1.57,1.57,0,0,0-1.45.81H266.4l.45-5h5.28v1.45h-3.91L268,348h.1a2.06,2.06,0,0,1,1.85-.85,2.59,2.59,0,0,1,2.63,2.78,2.93,2.93,0,0,1-3.18,3A2.84,2.84,0,0,1,266.28,350.34Z"
         id="path1632" />
      <path
         class="u"
         d="M277.14,353.3h1.69c.09.4.57.65,1.3.65.92,0,1.45-.42,1.45-1.15v-1.19h-.1a2.05,2.05,0,0,1-2,1c-1.61,0-2.61-1.25-2.61-3.19s1-3.28,2.65-3.28a2.12,2.12,0,0,1,2,1.14h.1v-1h1.66v6.44c0,1.52-1.24,2.48-3.19,2.48C278.38,355.2,277.25,354.44,277.14,353.3Zm4.46-3.84c0-1.14-.56-1.85-1.48-1.85s-1.45.71-1.45,1.84.53,1.85,1.45,1.85S281.6,350.6,281.6,349.46Z"
         id="path1634" />
      <path
         class="u"
         d="M285,346.28h1.65v1h.11a1.65,1.65,0,0,1,1.65-1.13,2.45,2.45,0,0,1,.67.08v1.55a3.22,3.22,0,0,0-.81-.1,1.42,1.42,0,0,0-1.57,1.46v3.58H285Z"
         id="path1636" />
      <path
         class="u"
         d="M289.76,350.9c0-1.17.89-1.85,2.5-1.94l1.56-.1v-.53c0-.54-.38-.84-1.09-.84s-1,.21-1.16.6H290c.11-1.2,1.2-1.95,2.83-1.95s2.67.81,2.67,2.19v4.42h-1.65v-.85h-.1a2.1,2.1,0,0,1-1.88,1A1.93,1.93,0,0,1,289.76,350.9Zm4.06-.5v-.47l-1.3.08c-.74.05-1.09.32-1.09.78s.41.77,1,.77A1.26,1.26,0,0,0,293.82,350.4Z"
         id="path1638" />
      <path
         class="u"
         d="M297.08,344.34a1,1,0,1,1,1,1A1,1,0,0,1,297.08,344.34Zm.11,1.94h1.71v6.47h-1.71Z"
         id="path1640" />
      <path
         class="u"
         d="M300.62,346.28h1.65v1h.11a1.91,1.91,0,0,1,1.91-1.18c1.43,0,2.21.88,2.21,2.43v4.18h-1.71V349c0-.89-.38-1.36-1.19-1.36a1.26,1.26,0,0,0-1.28,1.41v3.73h-1.7Z"
         id="path1642" />
      <path
         class="u"
         d="M310.69,346.14c1.64,0,2.61.69,2.7,1.92h-1.57c-.09-.41-.48-.67-1.12-.67s-1.06.28-1.06.69.28.51.88.64l1.21.26c1.25.28,1.81.81,1.81,1.77,0,1.29-1.15,2.14-2.84,2.14s-2.74-.7-2.86-1.94h1.67c.13.44.54.69,1.22.69s1.12-.28,1.12-.69-.24-.51-.81-.64l-1.17-.26c-1.26-.27-1.87-.87-1.87-1.87C308,347,309.08,346.14,310.69,346.14Z"
         id="path1644" />
      <text
         xml:space="preserve"
         style="font-style:normal;font-weight:normal;font-size:14.7202px;line-height:1.25;font-family:sans-serif;fill:#000000;fill-opacity:1;stroke:none;stroke-width:0.368004"
         x="379.23138"
         y="233.03806"
         id="text5982"
         transform="scale(0.65615596,1.5240279)"><tspan
           sodipodi:role="line"
           id="tspan5980"
           x="379.23138"
           y="233.03806"
           style="stroke-width:0.368004">=</tspan></text>
    </g>
    <g
       id="g1658">
      <path
         class="v"
         d="M264.26,276.92h1.92v1.2h.13a1.94,1.94,0,0,1,1.93-1.32,2.83,2.83,0,0,1,.78.09v1.82a3.26,3.26,0,0,0-.94-.13,1.65,1.65,0,0,0-1.83,1.7v4.18h-2Z"
         id="path1648" />
      <path
         class="v"
         d="M270.23,274.65a1.13,1.13,0,1,1,1.13,1.14A1.13,1.13,0,0,1,270.23,274.65Zm.13,2.27h2v7.54h-2Z"
         id="path1650" />
      <path
         class="v"
         d="M281.79,280.69c0,2.43-1.15,3.89-3,3.89a2.36,2.36,0,0,1-2.28-1.27h-.12V287h-2v-10h1.93v1.24h.12a2.47,2.47,0,0,1,2.3-1.36C280.62,276.8,281.79,278.25,281.79,280.69Zm-2,0c0-1.38-.65-2.22-1.71-2.22s-1.71.84-1.71,2.22.66,2.23,1.71,2.23S279.75,282.08,279.75,280.69Z"
         id="path1652" />
      <path
         class="v"
         d="M290.14,282.31c-.3,1.42-1.6,2.31-3.45,2.31-2.29,0-3.65-1.44-3.65-3.89s1.38-4,3.63-4,3.53,1.41,3.53,3.8v.61H285v.11a1.67,1.67,0,0,0,1.73,1.81,1.54,1.54,0,0,0,1.54-.78ZM285,279.9h3.21a1.52,1.52,0,0,0-1.57-1.62A1.61,1.61,0,0,0,285,279.9Z"
         id="path1654" />
      <path
         class="v"
         d="M294.68,274.51c2,0,3.25,1.08,3.25,2.66a2.54,2.54,0,0,1-1.46,2.31c-.91.53-1.16.87-1.16,1.52v.36h-1.82V281a2.11,2.11,0,0,1,1.23-2.26c.88-.53,1.15-.86,1.15-1.49a1.15,1.15,0,0,0-1.3-1.09,1.25,1.25,0,0,0-1.35,1.24h-1.85C291.4,275.68,292.58,274.51,294.68,274.51Zm-1.45,9a1.24,1.24,0,1,1,1.24,1.17A1.12,1.12,0,0,1,293.23,283.5Z"
         id="path1656" />
    </g>
    <use
       width="25.41"
       height="23.85"
       transform="translate(266.59 308.06)"
       xlink:href="#hx"
       id="use1660" />
    <path
       style="fill:#4a4a4a;fill-opacity:1;stroke-width:0.0413991"
       d="m 249.86402,350.36024 v -0.91078 h 3.00143 3.00144 v 0.91078 0.91078 h -3.00144 -3.00143 z"
       id="path25088" />
    <path
       style="fill:#4a4a4a;fill-opacity:1;stroke-width:0.0413991"
       d="m 249.86402,345.88914 v -0.91078 h 3.00143 3.00144 v 0.91078 0.91078 h -3.00144 -3.00143 z"
       id="path25127" />
  </g>
  <g
     id="g1700">
    <use
       width="158.32"
       height="140.32"
       transform="translate(742.92 257.26) scale(0.81)"
       xlink:href="#hf"
       id="use1664" />
    <path
       class="u"
       d="m 773.19149,349.50374 v -0.06 l -4.17,-1.48 v -1.77 l 6.09,2.47 v 1.56 l -6.09,2.47 v -1.73 z"
       id="path1628-4"
       style="fill:#4a4a4a" />
    <path
       style="fill:#4a4a4a;fill-opacity:1;stroke-width:0.0413991"
       d="m 776.02568,351.1964 v -0.91078 h 3.00143 3.00144 v 0.91078 0.91078 h -3.00144 -3.00143 z"
       id="path25088-8" />
    <path
       style="fill:#4a4a4a;fill-opacity:1;stroke-width:0.0413991"
       d="m 776.02568,346.7253 v -0.91078 h 3.00143 3.00144 v 0.91078 0.91078 h -3.00144 -3.00143 z"
       id="path25127-8" />
    <g
       id="g1684">
      <path
         class="u"
         d="M788.13,346H788L786,347.44V345.8l2.19-1.51h1.76v8.46h-1.77Z"
         id="path1668" />
      <path
         class="u"
         d="M792.33,350.34H794a1.4,1.4,0,0,0,1.48,1.18A1.45,1.45,0,0,0,797,350a1.42,1.42,0,0,0-1.47-1.51,1.56,1.56,0,0,0-1.45.81h-1.58l.45-5h5.28v1.45h-3.91l-.22,2.28h.11a2.06,2.06,0,0,1,1.85-.85,2.59,2.59,0,0,1,2.63,2.78,2.94,2.94,0,0,1-3.18,3A2.84,2.84,0,0,1,792.33,350.34Z"
         id="path1670" />
      <path
         class="u"
         d="M803.19,353.3h1.69c.08.4.56.65,1.3.65.92,0,1.45-.42,1.45-1.15v-1.19h-.11a2,2,0,0,1-1.94,1c-1.61,0-2.61-1.25-2.61-3.19s1-3.28,2.64-3.28a2.13,2.13,0,0,1,2,1.14h.1v-1h1.65v6.44c0,1.52-1.23,2.48-3.18,2.48C804.43,355.2,803.29,354.44,803.19,353.3Zm4.46-3.84c0-1.14-.56-1.85-1.48-1.85s-1.45.71-1.45,1.84.53,1.85,1.45,1.85S807.65,350.6,807.65,349.46Z"
         id="path1672" />
      <path
         class="u"
         d="M811.05,346.28h1.65v1h.1a1.66,1.66,0,0,1,1.66-1.13,2.51,2.51,0,0,1,.67.08v1.55a3.22,3.22,0,0,0-.81-.1,1.42,1.42,0,0,0-1.57,1.46v3.58h-1.7Z"
         id="path1674" />
      <path
         class="u"
         d="M815.8,350.9c0-1.17.9-1.85,2.51-1.94l1.56-.1v-.53c0-.54-.39-.84-1.09-.84s-1,.21-1.17.6H816c.12-1.2,1.21-1.95,2.83-1.95s2.68.81,2.68,2.19v4.42H819.9v-.85h-.11a2.07,2.07,0,0,1-1.87,1A1.94,1.94,0,0,1,815.8,350.9Zm4.07-.5v-.47l-1.31.08c-.73.05-1.09.32-1.09.78s.42.77,1,.77A1.26,1.26,0,0,0,819.87,350.4Z"
         id="path1676" />
      <path
         class="u"
         d="M823.13,344.34a1,1,0,1,1,1.93,0,1,1,0,1,1-1.93,0Zm.11,1.94h1.7v6.47h-1.7Z"
         id="path1678" />
      <path
         class="u"
         d="M826.67,346.28h1.65v1h.1a1.92,1.92,0,0,1,1.91-1.18c1.44,0,2.21.88,2.21,2.43v4.18h-1.7V349c0-.89-.38-1.36-1.19-1.36a1.26,1.26,0,0,0-1.28,1.41v3.73h-1.7Z"
         id="path1680" />
      <path
         class="u"
         d="M836.74,346.14c1.64,0,2.61.69,2.7,1.92h-1.58c-.08-.41-.48-.67-1.11-.67s-1.06.28-1.06.69.28.51.87.64l1.22.26c1.25.28,1.81.81,1.81,1.77,0,1.29-1.15,2.14-2.84,2.14s-2.74-.7-2.86-1.94h1.67c.12.44.54.69,1.22.69s1.12-.28,1.12-.69-.25-.51-.82-.64l-1.17-.26c-1.25-.27-1.86-.87-1.86-1.87C834.05,347,835.13,346.14,836.74,346.14Z"
         id="path1682" />
    </g>
    <g
       id="g1696">
      <path
         class="v"
         d="M790.3,276.92h1.93v1.2h.13a1.92,1.92,0,0,1,1.93-1.32,2.88,2.88,0,0,1,.78.09v1.82a3.26,3.26,0,0,0-.94-.13,1.66,1.66,0,0,0-1.84,1.7v4.18h-2Z"
         id="path1686" />
      <path
         class="v"
         d="M796.28,274.65a1.13,1.13,0,1,1,1.13,1.14A1.13,1.13,0,0,1,796.28,274.65Zm.13,2.27h2v7.54h-2Z"
         id="path1688" />
      <path
         class="v"
         d="M807.84,280.69c0,2.43-1.16,3.89-3,3.89a2.36,2.36,0,0,1-2.28-1.27h-.12V287h-2v-10h1.93v1.24h.12a2.46,2.46,0,0,1,2.3-1.36C806.67,276.8,807.84,278.25,807.84,280.69Zm-2.05,0c0-1.38-.64-2.22-1.7-2.22s-1.71.84-1.71,2.22.65,2.23,1.71,2.23S805.79,282.08,805.79,280.69Z"
         id="path1690" />
      <path
         class="v"
         d="M816.19,282.31c-.3,1.42-1.6,2.31-3.45,2.31-2.3,0-3.65-1.44-3.65-3.89s1.38-4,3.62-4,3.54,1.41,3.54,3.8v.61h-5.18v.11a1.67,1.67,0,0,0,1.72,1.81,1.52,1.52,0,0,0,1.54-.78Zm-5.11-2.41h3.21a1.52,1.52,0,0,0-1.57-1.62A1.61,1.61,0,0,0,811.08,279.9Z"
         id="path1692" />
      <path
         class="v"
         d="M820.73,274.51c2,0,3.25,1.08,3.25,2.66a2.54,2.54,0,0,1-1.46,2.31c-.91.53-1.17.87-1.17,1.52v.36h-1.81V281a2.11,2.11,0,0,1,1.23-2.26c.88-.53,1.15-.86,1.15-1.49a1.15,1.15,0,0,0-1.3-1.09,1.25,1.25,0,0,0-1.35,1.24h-1.85C817.44,275.68,818.63,274.51,820.73,274.51Zm-1.45,9a1.24,1.24,0,1,1,1.24,1.17A1.12,1.12,0,0,1,819.28,283.5Z"
         id="path1694" />
    </g>
    <use
       width="25.41"
       height="23.85"
       transform="translate(792.64 308.06)"
       xlink:href="#hx"
       id="use1698" />
  </g>
</svg>
