<svg xmlns="http://www.w3.org/2000/svg" xmlns:xlink="http://www.w3.org/1999/xlink" viewBox="0 0 900 310">
  <defs>
    <style>
      .a {
        fill: #eae9e9;
        stroke: #d6d5d5;
        stroke-width: 0.75px;
      }

      .a, .b, .c, .d, .h {
        stroke-miterlimit: 10;
      }

      .b {
        fill: #ed2627;
      }

      .b, .c, .d {
        stroke: #fff;
        stroke-width: 0.5px;
      }

      .c {
        fill: #fec75e;
      }

      .d {
        fill: #5abd80;
      }

      .e {
        fill: #0e0000;
      }

      .f, .g {
        fill: #fff;
      }

      .f {
        opacity: 0.12;
      }

      .h {
        fill: none;
        stroke: #6057c2;
        stroke-width: 3px;
      }

      .i {
        fill: #6057c2;
      }

      .j {
        fill: #eceaff;
      }

      .k {
        fill: #7e73ff;
      }
    </style>
    <symbol id="a" data-name="Interface" viewBox="0 0 308.6 187.81">
      <g>
        <rect class="a" x="0.37" y="0.38" width="307.85" height="187.06" rx="2.89"/>
        <circle class="b" cx="5.73" cy="6.2" r="1.63"/>
        <circle class="c" cx="10.68" cy="6.2" r="1.63"/>
        <circle class="d" cx="15.63" cy="6.2" r="1.63"/>
      </g>
      <rect class="e" x="8.82" y="16.6" width="290.95" height="161.8"/>
      <polygon class="f" points="205.66 187.43 308.22 107.18 308.22 184.54 303.36 187.43 205.66 187.43"/>
      <g>
        <path class="g" d="M42.41,57.08a3.16,3.16,0,0,1,3.32,3.33,3.2,3.2,0,0,1-3.39,3.3H40.2v3.23H38.43V57.08ZM40.2,62.24h1.74c1.26,0,2-.65,2-1.83a1.74,1.74,0,0,0-2-1.86H40.2Z"/>
        <path class="g" d="M47.34,57.21a1,1,0,1,1,1,1A1,1,0,0,1,47.34,57.21Zm.17,2.25H49.2v7.48H47.51Z"/>
        <path class="g" d="M56.14,62a1.54,1.54,0,0,0-1.64-1.25c-1.16,0-1.86.9-1.86,2.45s.7,2.49,1.86,2.49a1.51,1.51,0,0,0,1.64-1.2h1.62a3,3,0,0,1-3.26,2.62c-2.25,0-3.57-1.45-3.57-3.91s1.32-3.87,3.57-3.87A3,3,0,0,1,57.76,62Z"/>
        <path class="g" d="M64,59.46h2l-3,3.21,3.18,4.27h-2l-2.4-3.2-.6.6v2.6H59.45V56.57h1.69v5.94h.12Z"/>
        <path class="g" d="M70.81,64.82c0-1.35,1-2.13,2.84-2.24l1.93-.12v-.63c0-.73-.49-1.14-1.41-1.14s-1.31.28-1.47.78H71.1c.14-1.32,1.38-2.16,3.15-2.16,1.92,0,3,.94,3,2.52v5.11H75.62v-1H75.5a2.45,2.45,0,0,1-2.21,1.14A2.25,2.25,0,0,1,70.81,64.82Zm4.77-.62v-.59l-1.69.1c-1,.07-1.39.41-1.39,1s.54,1,1.29,1A1.64,1.64,0,0,0,75.58,64.2Z"/>
        <path class="g" d="M79.29,59.46h1.63v1.2H81a2.23,2.23,0,0,1,2.22-1.35c1.67,0,2.58,1,2.58,2.79v4.84h-1.7V62.5c0-1.14-.47-1.71-1.51-1.71A1.61,1.61,0,0,0,81,62.59v4.35h-1.7Z"/>
        <path class="g" d="M91.17,64.82c0-1.35,1-2.13,2.83-2.24l1.93-.12v-.63c0-.73-.49-1.14-1.41-1.14s-1.31.28-1.47.78h-1.6c.14-1.32,1.38-2.16,3.15-2.16,1.92,0,3,.94,3,2.52v5.11H96v-1h-.12a2.45,2.45,0,0,1-2.21,1.14A2.24,2.24,0,0,1,91.17,64.82Zm4.76-.62v-.59l-1.69.1c-.95.07-1.39.41-1.39,1s.54,1,1.29,1A1.64,1.64,0,0,0,95.93,64.2Z"/>
        <path class="g" d="M104.49,62a1.56,1.56,0,0,0-1.65-1.25c-1.16,0-1.85.9-1.85,2.45s.7,2.49,1.85,2.49a1.52,1.52,0,0,0,1.65-1.2h1.61a3,3,0,0,1-3.25,2.62c-2.25,0-3.58-1.45-3.58-3.91s1.32-3.87,3.57-3.87A3,3,0,0,1,106.1,62Z"/>
        <path class="g" d="M110.05,57.63v1.88h1.6v1.35h-1.6v3.67c0,.74.31,1.07,1,1.07a5.22,5.22,0,0,0,.58,0v1.32a4.61,4.61,0,0,1-.89.09c-1.72,0-2.4-.59-2.4-2V60.86h-1.19V59.51h1.19V57.63Z"/>
        <path class="g" d="M113.19,57.21a1,1,0,1,1,1,1A1,1,0,0,1,113.19,57.21Zm.17,2.25h1.69v7.48h-1.69Z"/>
        <path class="g" d="M116.78,63.2c0-2.41,1.37-3.89,3.6-3.89S124,60.78,124,63.2s-1.36,3.89-3.59,3.89S116.78,65.63,116.78,63.2Zm5.45,0c0-1.56-.68-2.47-1.85-2.47s-1.86.91-1.86,2.47.67,2.47,1.86,2.47S122.23,64.77,122.23,63.2Z"/>
        <path class="g" d="M125.68,59.46h1.63v1.2h.12a2.23,2.23,0,0,1,2.22-1.35c1.67,0,2.58,1,2.58,2.79v4.84h-1.7V62.5c0-1.14-.48-1.71-1.51-1.71a1.61,1.61,0,0,0-1.64,1.8v4.35h-1.7Z"/>
        <path class="g" d="M134.41,61a1.1,1.1,0,1,1,1.09,1.07A1,1,0,0,1,134.41,61Zm0,5a1.1,1.1,0,1,1,1.09,1.08A1,1,0,0,1,134.41,66Z"/>
        <path class="g" d="M146.79,56.57v1.31h-1.85v9.87h1.85v1.3H143.3V56.57Z"/>
        <path class="g" d="M156.92,62a1.56,1.56,0,0,0-1.65-1.25c-1.16,0-1.85.9-1.85,2.45s.7,2.49,1.85,2.49a1.52,1.52,0,0,0,1.65-1.2h1.61a3,3,0,0,1-3.25,2.62c-2.25,0-3.58-1.45-3.58-3.91s1.32-3.87,3.57-3.87A3,3,0,0,1,158.53,62Z"/>
        <path class="g" d="M159.78,63.2c0-2.41,1.38-3.89,3.6-3.89s3.6,1.47,3.6,3.89-1.36,3.89-3.6,3.89S159.78,65.63,159.78,63.2Zm5.45,0c0-1.56-.67-2.47-1.85-2.47s-1.86.91-1.86,2.47.68,2.47,1.86,2.47S165.23,64.77,165.23,63.2Z"/>
        <path class="g" d="M168.68,59.46h1.64v1.16h.11a2,2,0,0,1,2-1.28,3.29,3.29,0,0,1,.7.07V61a3.69,3.69,0,0,0-.86-.1,1.71,1.71,0,0,0-1.87,1.73v4.32h-1.7Z"/>
        <path class="g" d="M174.6,59.46h1.63v1.2h.12a2.22,2.22,0,0,1,2.22-1.35c1.67,0,2.58,1,2.58,2.79v4.84h-1.7V62.5c0-1.14-.48-1.71-1.51-1.71a1.61,1.61,0,0,0-1.65,1.8v4.35H174.6Z"/>
        <path class="g" d="M187.65,69.05V56.57h1.55V69.05Z"/>
        <path class="g" d="M195.77,59.46h1.63v1.16h.12a2,2,0,0,1,2-1.28,3.47,3.47,0,0,1,.71.07V61a3.71,3.71,0,0,0-.87-.1,1.71,1.71,0,0,0-1.87,1.73v4.32h-1.69Z"/>
        <path class="g" d="M201.44,57.21a1,1,0,1,1,1,1A1,1,0,0,1,201.44,57.21Zm.17,2.25h1.68v7.48h-1.68Z"/>
        <path class="g" d="M210.24,62a1.56,1.56,0,0,0-1.65-1.25c-1.16,0-1.85.9-1.85,2.45s.7,2.49,1.85,2.49a1.52,1.52,0,0,0,1.65-1.2h1.61a3,3,0,0,1-3.25,2.62c-2.25,0-3.58-1.45-3.58-3.91s1.32-3.87,3.57-3.87A3,3,0,0,1,211.85,62Z"/>
        <path class="g" d="M220,64.88c-.3,1.36-1.55,2.21-3.32,2.21-2.2,0-3.53-1.45-3.53-3.86s1.35-3.92,3.52-3.92S220,60.73,220,63.09v.54h-5.22v.09a1.85,1.85,0,0,0,1.87,2,1.66,1.66,0,0,0,1.67-.86Zm-5.14-2.4h3.52a1.69,1.69,0,0,0-1.72-1.82A1.79,1.79,0,0,0,214.81,62.48Z"/>
        <path class="g" d="M226.22,69.05V56.57h1.55V69.05Z"/>
        <path class="g" d="M239.37,60.7h.11V59.46h1.65v10h-1.71V65.81h-.11A2.43,2.43,0,0,1,237,67.06c-1.89,0-3.06-1.49-3.06-3.86s1.2-3.86,3.09-3.86A2.54,2.54,0,0,1,239.37,60.7Zm.09,2.5c0-1.49-.73-2.42-1.89-2.42s-1.86.91-1.86,2.42.69,2.42,1.85,2.42S239.46,64.7,239.46,63.2Z"/>
        <path class="g" d="M249.71,66.94h-1.63V65.75H248a2.19,2.19,0,0,1-2.23,1.34,2.46,2.46,0,0,1-2.6-2.77V59.46h1.7V63.9c0,1.14.47,1.7,1.48,1.7A1.6,1.6,0,0,0,248,63.82V59.46h1.69Z"/>
        <path class="g" d="M251.64,57.21a1,1,0,1,1,1,1A1,1,0,0,1,251.64,57.21Zm.17,2.25h1.69v7.48h-1.69Z"/>
        <path class="g" d="M257.83,57.63v1.88h1.59v1.35h-1.59v3.67c0,.74.31,1.07,1,1.07a4.91,4.91,0,0,0,.57,0v1.32a4.5,4.5,0,0,1-.88.09c-1.72,0-2.4-.59-2.4-2V60.86H255V59.51h1.19V57.63Z"/>
        <path class="g" d="M264.33,69.05v-1.3h1.85V57.88h-1.85V56.57h3.49V69.05Z"/>
      </g>
      <g>
        <path class="g" d="M44.41,95.32v-.06l-5-1.93V91.57l6.92,2.91V96L39.43,99V97.21Z"/>
        <path class="g" d="M57.23,94.23A1.55,1.55,0,0,0,55.58,93c-1.16,0-1.85.89-1.85,2.44s.7,2.49,1.85,2.49a1.52,1.52,0,0,0,1.65-1.2h1.61a3,3,0,0,1-3.25,2.62c-2.25,0-3.57-1.45-3.57-3.91s1.32-3.87,3.56-3.87a3,3,0,0,1,3.26,2.67Z"/>
        <path class="g" d="M60.1,95.45c0-2.41,1.37-3.89,3.59-3.89s3.6,1.47,3.6,3.89-1.36,3.89-3.6,3.89S60.1,97.88,60.1,95.45Zm5.44,0c0-1.56-.67-2.46-1.85-2.46s-1.86.9-1.86,2.46.68,2.47,1.86,2.47S65.54,97,65.54,95.45Z"/>
        <path class="g" d="M69,91.71h1.63v1.17h.12a2,2,0,0,1,2-1.29,2.84,2.84,0,0,1,.71.08v1.57a3.78,3.78,0,0,0-.87-.1,1.71,1.71,0,0,0-1.87,1.73v4.32H69Z"/>
        <path class="g" d="M74.91,91.71h1.63v1.2h.12a2.24,2.24,0,0,1,2.22-1.35c1.67,0,2.58,1,2.58,2.79v4.84h-1.7V94.76c0-1.15-.48-1.72-1.51-1.72a1.61,1.61,0,0,0-1.65,1.8v4.35H74.91Z"/>
      </g>
      <g>
        <path class="g" d="M44.72,131.44H38.43v-9.86H40.2v8.32h4.52Z"/>
        <path class="g" d="M52.58,129.39c-.3,1.36-1.56,2.2-3.32,2.2-2.2,0-3.53-1.45-3.53-3.86s1.35-3.91,3.52-3.91,3.41,1.41,3.41,3.77v.55H47.44v.08a1.85,1.85,0,0,0,1.87,2,1.68,1.68,0,0,0,1.67-.86ZM47.44,127H51a1.69,1.69,0,0,0-1.72-1.82A1.8,1.8,0,0,0,47.44,127Z"/>
        <path class="g" d="M56.59,122.13V124h1.6v1.36h-1.6V129c0,.74.31,1.06,1,1.06a5.22,5.22,0,0,0,.58,0v1.33a5.65,5.65,0,0,1-.89.08c-1.72,0-2.4-.58-2.4-2v-4.08H53.72V124H54.9v-1.88Z"/>
        <path class="g" d="M60,125.59v-4h1.49v4Z"/>
        <path class="g" d="M66.4,123.82c1.78,0,2.89.78,3,2.14H67.82c-.12-.52-.62-.86-1.41-.86s-1.36.37-1.36.91.36.68,1.11.85l1.32.3c1.43.33,2.09.94,2.09,2,0,1.44-1.32,2.39-3.19,2.39s-3-.8-3.17-2.16h1.68c.16.55.69.88,1.54.88s1.45-.38,1.45-.93-.33-.69-1-.85l-1.32-.31c-1.44-.32-2.12-1-2.12-2.11C63.4,124.75,64.63,123.82,66.4,123.82Z"/>
        <path class="g" d="M82.18,127.7c0,2.39-1.18,3.87-3.07,3.87a2.39,2.39,0,0,1-2.28-1.26h-.12v3.62H75V124h1.63v1.23h.12a2.55,2.55,0,0,1,2.32-1.36C81,123.84,82.18,125.31,82.18,127.7Zm-1.75,0c0-1.51-.7-2.42-1.86-2.42s-1.88.93-1.89,2.42.72,2.42,1.88,2.42S80.43,129.22,80.43,127.7Z"/>
        <path class="g" d="M84,121.07h1.69v10.37H84Z"/>
        <path class="g" d="M87.36,129.32c0-1.35,1-2.13,2.84-2.24l1.93-.11v-.63c0-.73-.49-1.14-1.41-1.14s-1.31.27-1.47.78h-1.6c.14-1.32,1.38-2.16,3.15-2.16,1.92,0,3,.93,3,2.52v5.1H92.17v-1h-.12a2.46,2.46,0,0,1-2.21,1.15A2.26,2.26,0,0,1,87.36,129.32Zm4.77-.62v-.59l-1.69.11c-1,.06-1.39.4-1.39,1s.54,1,1.29,1A1.64,1.64,0,0,0,92.13,128.7Z"/>
        <path class="g" d="M95.84,124h1.63v1.19h.12a2.24,2.24,0,0,1,2.22-1.34c1.67,0,2.58,1,2.58,2.78v4.84h-1.7V127c0-1.14-.47-1.72-1.51-1.72a1.61,1.61,0,0,0-1.64,1.8v4.35h-1.7Z"/>
        <path class="g" d="M106.63,122.13V124h1.6v1.36h-1.6V129c0,.74.31,1.06,1,1.06a5.22,5.22,0,0,0,.58,0v1.33a5.65,5.65,0,0,1-.89.08c-1.72,0-2.4-.58-2.4-2v-4.08h-1.18V124h1.18v-1.88Z"/>
        <path class="g" d="M118.5,126.48a1.56,1.56,0,0,0-1.65-1.24c-1.16,0-1.85.89-1.85,2.44s.7,2.49,1.85,2.49A1.51,1.51,0,0,0,118.5,129h1.62a3,3,0,0,1-3.26,2.61c-2.25,0-3.57-1.44-3.57-3.91s1.32-3.86,3.56-3.86a3,3,0,0,1,3.27,2.66Z"/>
        <path class="g" d="M121.37,127.7c0-2.41,1.37-3.88,3.59-3.88s3.6,1.46,3.6,3.88-1.36,3.89-3.6,3.89S121.37,130.13,121.37,127.7Zm5.44,0c0-1.55-.67-2.46-1.85-2.46s-1.86.91-1.86,2.46.68,2.47,1.86,2.47S126.81,129.27,126.81,127.7Z"/>
        <path class="g" d="M130.27,124h1.63v1.16H132a2,2,0,0,1,2-1.29,2.84,2.84,0,0,1,.71.08v1.57a3.71,3.71,0,0,0-.87-.1,1.71,1.71,0,0,0-1.87,1.73v4.32h-1.69Z"/>
        <path class="g" d="M136.18,124h1.63v1.19h.12a2.24,2.24,0,0,1,2.22-1.34c1.67,0,2.58,1,2.58,2.78v4.84H141V127c0-1.14-.48-1.72-1.51-1.72a1.61,1.61,0,0,0-1.64,1.8v4.35h-1.7Z"/>
        <path class="g" d="M153.32,126.48a1.56,1.56,0,0,0-1.65-1.24c-1.16,0-1.85.89-1.85,2.44s.69,2.49,1.85,2.49a1.52,1.52,0,0,0,1.65-1.19h1.61a3,3,0,0,1-3.25,2.61c-2.25,0-3.58-1.44-3.58-3.91s1.32-3.86,3.57-3.86a3,3,0,0,1,3.26,2.66Z"/>
        <path class="g" d="M156.55,124h1.63v1.16h.12a2,2,0,0,1,2-1.29,2.81,2.81,0,0,1,.7.08v1.57a3.71,3.71,0,0,0-.87-.1,1.71,1.71,0,0,0-1.86,1.73v4.32h-1.7Z"/>
        <path class="g" d="M161.81,127.7c0-2.41,1.38-3.88,3.6-3.88s3.6,1.46,3.6,3.88-1.36,3.89-3.6,3.89S161.81,130.13,161.81,127.7Zm5.45,0c0-1.55-.67-2.46-1.85-2.46s-1.86.91-1.86,2.46.68,2.47,1.86,2.47S167.26,129.27,167.26,127.7Z"/>
        <path class="g" d="M177.87,127.7c0,2.39-1.17,3.87-3.06,3.87a2.39,2.39,0,0,1-2.28-1.26h-.12v3.62h-1.7V124h1.64v1.23h.11a2.56,2.56,0,0,1,2.33-1.36C176.68,123.84,177.87,125.31,177.87,127.7Zm-1.74,0c0-1.51-.71-2.42-1.87-2.42s-1.88.93-1.88,2.42.72,2.42,1.88,2.42S176.13,129.22,176.13,127.7Z"/>
        <path class="g" d="M182.4,123.82c1.77,0,2.89.78,3,2.14h-1.59c-.12-.52-.62-.86-1.42-.86s-1.35.37-1.35.91.36.68,1.11.85l1.32.3c1.43.33,2.09.94,2.09,2,0,1.44-1.32,2.39-3.19,2.39s-3-.8-3.17-2.16h1.68c.16.55.69.88,1.53.88s1.45-.38,1.45-.93-.32-.69-1-.85l-1.32-.31c-1.44-.32-2.12-1-2.12-2.11C179.4,124.75,180.63,123.82,182.4,123.82Z"/>
        <path class="g" d="M187.49,130.53a1.14,1.14,0,1,1,1.14,1.09A1,1,0,0,1,187.49,130.53Zm2.08-9-.16,6.61h-1.58l-.16-6.61Z"/>
      </g>
    </symbol>
  </defs>
  <g>
    <path class="h" d="M389.94,54.19c-6,22.69-2.87,46.63-1.22,70,2.2,31.39,1.69,62.9.85,94.38"/>
    <polygon class="i" points="380.55 215.81 389.21 231.52 398.49 216.16 380.55 215.81"/>
  </g>
  <use width="308.6" height="187.81" transform="translate(55.22 42.11)" xlink:href="#a"/>
  <g>
    <circle class="j" cx="209.52" cy="278.94" r="23.72"/>
    <path class="k" d="M209.06,270.43h-.27l-5.27,3.63v-4.18l5.56-3.83h4.48v21.49h-4.5Z"/>
  </g>
  <g>
    <circle class="j" cx="648.76" cy="278.94" r="23.72"/>
    <path class="k" d="M648.85,265.5c4.56,0,7.48,2.63,7.48,6.27,0,2.51-1.1,4.24-4.68,7.59l-4.46,4.17v.27h9.44v3.74H641.12V284.4l7.54-7.21c2.68-2.58,3.26-3.56,3.26-5a3,3,0,0,0-3.32-3.06,3.33,3.33,0,0,0-3.56,3.5h-4.17C640.87,268.4,644.15,265.5,648.85,265.5Z"/>
  </g>
  <use width="308.6" height="187.81" transform="translate(494.47 42.11)" xlink:href="#a"/>
  <g>
    <path class="i" d="M716,35.86l-2.71,1.27-.79-1.7-.18.09a3.32,3.32,0,0,1-2.18,3.37c-2.28,1.07-4.39.28-5.54-2.17l-3.24-6.9,2.79-1.31,2.9,6.18c.69,1.46,1.7,1.89,3,1.29a2.23,2.23,0,0,0,1.06-3.29l-2.86-6.1,2.79-1.31Z"/>
    <path class="i" d="M714.84,23.81l2.83-.94.59,1.78.19-.06a3.46,3.46,0,0,1,2.6-3.12c2.46-.82,4.29.24,5.18,2.9l2.39,7.16-2.92,1L723.53,26c-.51-1.53-1.43-2.12-2.82-1.65a2.27,2.27,0,0,0-1.38,3.14l2.13,6.39-2.92,1Z"/>
    <path class="i" d="M731.59,15.91l.7,2.8,2.35-.59.59,2.35-2.35.59,1.27,5.09A1.3,1.3,0,0,0,736,27.22a7.93,7.93,0,0,0,.87-.26l.57,2.28a9.64,9.64,0,0,1-1.46.51c-2.75.69-4.06.07-4.62-2.14l-1.45-5.8-1.76.44-.59-2.35,1.76-.44-.7-2.81Z"/>
    <path class="i" d="M736.6,14a1.75,1.75,0,1,1,2.06,1.38A1.76,1.76,0,0,1,736.6,14Zm.9,3.4,3-.61,2.34,11.45-3,.62Z"/>
    <path class="i" d="M743.1,11.76l3-.54L749,27.11l-3,.54Z"/>
    <path class="i" d="M752.13,25a1.87,1.87,0,1,1,2.13,1.53A1.76,1.76,0,0,1,752.13,25Z"/>
    <path class="i" d="M759.54,23.91a1.88,1.88,0,1,1,2.09,1.59A1.76,1.76,0,0,1,759.54,23.91Z"/>
    <path class="i" d="M767,23a1.88,1.88,0,1,1,2,1.68A1.77,1.77,0,0,1,767,23Z"/>
  </g>
  <path class="i" d="M378.43,236.73a139,139,0,0,1,22.15-1c1.93.07,1.93-2.93,0-3a139,139,0,0,0-22.15,1,1.54,1.54,0,0,0-1.5,1.5,1.51,1.51,0,0,0,1.5,1.5Z"/>
  <g>
    <path class="h" d="M681.12,191.39c15.77,17.67,43.09,22.08,65.47,14.34s40-25.81,51.81-46.36c8.5-14.85,14.4-31.5,14.81-48.61s-5.06-34.7-16.81-47.14c-14.24-15.07-36.93-21.1-57.11-16.36-16,3.76-30.13,13.89-39.73,27.25"/>
    <polygon class="i" points="693.42 67.69 692.99 85.63 708.75 77.04 693.42 67.69"/>
  </g>
</svg>
