<svg xmlns="http://www.w3.org/2000/svg" xmlns:xlink="http://www.w3.org/1999/xlink" viewBox="0 0 900 358">
  <defs>
    <style>
      .a {
        fill: #eae9e9;
        stroke: #d6d5d5;
        stroke-width: 0.75px;
      }

      .a, .b, .c, .d, .j {
        stroke-miterlimit: 10;
      }

      .b {
        fill: #ed2627;
      }

      .b, .c, .d {
        stroke: #fff;
        stroke-width: 0.5px;
      }

      .c {
        fill: #fec75e;
      }

      .d {
        fill: #5abd80;
      }

      .e {
        fill: #0e0000;
      }

      .f, .g {
        fill: #fff;
      }

      .f {
        opacity: 0.12;
      }

      .h {
        fill: #eceaff;
      }

      .i {
        fill: #7e73ff;
      }

      .j {
        fill: none;
        stroke: #6057c2;
        stroke-width: 3px;
      }

      .k {
        fill: #6057c2;
      }
    </style>
    <symbol id="a" data-name="Interface" viewBox="0 0 308.6 187.81">
      <g>
        <rect class="a" x="0.37" y="0.38" width="307.85" height="187.06" rx="2.89"/>
        <circle class="b" cx="5.73" cy="6.2" r="1.63"/>
        <circle class="c" cx="10.68" cy="6.2" r="1.63"/>
        <circle class="d" cx="15.63" cy="6.2" r="1.63"/>
      </g>
      <rect class="e" x="8.82" y="16.6" width="290.95" height="161.8"/>
      <polygon class="f" points="205.66 187.43 308.22 107.18 308.22 184.54 303.36 187.43 205.66 187.43"/>
      <g>
        <path class="g" d="M42.41,57.08a3.16,3.16,0,0,1,3.32,3.33,3.2,3.2,0,0,1-3.39,3.3H40.2v3.23H38.43V57.08ZM40.2,62.24h1.74c1.26,0,2-.65,2-1.83a1.74,1.74,0,0,0-2-1.86H40.2Z"/>
        <path class="g" d="M47.34,57.21a1,1,0,1,1,1,1A1,1,0,0,1,47.34,57.21Zm.17,2.25H49.2v7.48H47.51Z"/>
        <path class="g" d="M56.14,62a1.54,1.54,0,0,0-1.64-1.25c-1.16,0-1.86.9-1.86,2.45s.7,2.49,1.86,2.49a1.51,1.51,0,0,0,1.64-1.2h1.62a3,3,0,0,1-3.26,2.62c-2.25,0-3.57-1.45-3.57-3.91s1.32-3.87,3.57-3.87A3,3,0,0,1,57.76,62Z"/>
        <path class="g" d="M64,59.46h2l-3,3.21,3.18,4.27h-2l-2.4-3.2-.6.6v2.6H59.45V56.57h1.69v5.94h.12Z"/>
        <path class="g" d="M70.81,64.82c0-1.35,1-2.13,2.84-2.24l1.93-.12v-.63c0-.73-.49-1.14-1.41-1.14s-1.31.28-1.47.78H71.1c.14-1.32,1.38-2.16,3.15-2.16,1.92,0,3,.94,3,2.52v5.11H75.62v-1H75.5a2.45,2.45,0,0,1-2.21,1.14A2.25,2.25,0,0,1,70.81,64.82Zm4.77-.62v-.59l-1.69.1c-1,.07-1.39.41-1.39,1s.54,1,1.29,1A1.64,1.64,0,0,0,75.58,64.2Z"/>
        <path class="g" d="M79.29,59.46h1.63v1.2H81a2.23,2.23,0,0,1,2.22-1.35c1.67,0,2.58,1,2.58,2.79v4.84h-1.7V62.5c0-1.14-.47-1.71-1.51-1.71A1.61,1.61,0,0,0,81,62.59v4.35h-1.7Z"/>
        <path class="g" d="M91.17,64.82c0-1.35,1-2.13,2.83-2.24l1.93-.12v-.63c0-.73-.49-1.14-1.41-1.14s-1.31.28-1.47.78h-1.6c.14-1.32,1.38-2.16,3.15-2.16,1.92,0,3,.94,3,2.52v5.11H96v-1h-.12a2.45,2.45,0,0,1-2.21,1.14A2.24,2.24,0,0,1,91.17,64.82Zm4.76-.62v-.59l-1.69.1c-.95.07-1.39.41-1.39,1s.54,1,1.29,1A1.64,1.64,0,0,0,95.93,64.2Z"/>
        <path class="g" d="M104.49,62a1.56,1.56,0,0,0-1.65-1.25c-1.16,0-1.85.9-1.85,2.45s.7,2.49,1.85,2.49a1.52,1.52,0,0,0,1.65-1.2h1.61a3,3,0,0,1-3.25,2.62c-2.25,0-3.58-1.45-3.58-3.91s1.32-3.87,3.57-3.87A3,3,0,0,1,106.1,62Z"/>
        <path class="g" d="M110.05,57.63v1.88h1.6v1.35h-1.6v3.67c0,.74.31,1.07,1,1.07a5.22,5.22,0,0,0,.58,0v1.32a4.61,4.61,0,0,1-.89.09c-1.72,0-2.4-.59-2.4-2V60.86h-1.19V59.51h1.19V57.63Z"/>
        <path class="g" d="M113.19,57.21a1,1,0,1,1,1,1A1,1,0,0,1,113.19,57.21Zm.17,2.25h1.69v7.48h-1.69Z"/>
        <path class="g" d="M116.78,63.2c0-2.41,1.37-3.89,3.6-3.89S124,60.78,124,63.2s-1.36,3.89-3.59,3.89S116.78,65.63,116.78,63.2Zm5.45,0c0-1.56-.68-2.47-1.85-2.47s-1.86.91-1.86,2.47.67,2.47,1.86,2.47S122.23,64.77,122.23,63.2Z"/>
        <path class="g" d="M125.68,59.46h1.63v1.2h.12a2.23,2.23,0,0,1,2.22-1.35c1.67,0,2.58,1,2.58,2.79v4.84h-1.7V62.5c0-1.14-.48-1.71-1.51-1.71a1.61,1.61,0,0,0-1.64,1.8v4.35h-1.7Z"/>
        <path class="g" d="M134.41,61a1.1,1.1,0,1,1,1.09,1.07A1,1,0,0,1,134.41,61Zm0,5a1.1,1.1,0,1,1,1.09,1.08A1,1,0,0,1,134.41,66Z"/>
        <path class="g" d="M146.79,56.57v1.31h-1.85v9.87h1.85v1.3H143.3V56.57Z"/>
        <path class="g" d="M156.92,62a1.56,1.56,0,0,0-1.65-1.25c-1.16,0-1.85.9-1.85,2.45s.7,2.49,1.85,2.49a1.52,1.52,0,0,0,1.65-1.2h1.61a3,3,0,0,1-3.25,2.62c-2.25,0-3.58-1.45-3.58-3.91s1.32-3.87,3.57-3.87A3,3,0,0,1,158.53,62Z"/>
        <path class="g" d="M159.78,63.2c0-2.41,1.38-3.89,3.6-3.89s3.6,1.47,3.6,3.89-1.36,3.89-3.6,3.89S159.78,65.63,159.78,63.2Zm5.45,0c0-1.56-.67-2.47-1.85-2.47s-1.86.91-1.86,2.47.68,2.47,1.86,2.47S165.23,64.77,165.23,63.2Z"/>
        <path class="g" d="M168.68,59.46h1.64v1.16h.11a2,2,0,0,1,2-1.28,3.29,3.29,0,0,1,.7.07V61a3.69,3.69,0,0,0-.86-.1,1.71,1.71,0,0,0-1.87,1.73v4.32h-1.7Z"/>
        <path class="g" d="M174.6,59.46h1.63v1.2h.12a2.22,2.22,0,0,1,2.22-1.35c1.67,0,2.58,1,2.58,2.79v4.84h-1.7V62.5c0-1.14-.48-1.71-1.51-1.71a1.61,1.61,0,0,0-1.65,1.8v4.35H174.6Z"/>
        <path class="g" d="M187.65,69.05V56.57h1.55V69.05Z"/>
        <path class="g" d="M195.77,59.46h1.63v1.16h.12a2,2,0,0,1,2-1.28,3.47,3.47,0,0,1,.71.07V61a3.71,3.71,0,0,0-.87-.1,1.71,1.71,0,0,0-1.87,1.73v4.32h-1.69Z"/>
        <path class="g" d="M201.44,57.21a1,1,0,1,1,1,1A1,1,0,0,1,201.44,57.21Zm.17,2.25h1.68v7.48h-1.68Z"/>
        <path class="g" d="M210.24,62a1.56,1.56,0,0,0-1.65-1.25c-1.16,0-1.85.9-1.85,2.45s.7,2.49,1.85,2.49a1.52,1.52,0,0,0,1.65-1.2h1.61a3,3,0,0,1-3.25,2.62c-2.25,0-3.58-1.45-3.58-3.91s1.32-3.87,3.57-3.87A3,3,0,0,1,211.85,62Z"/>
        <path class="g" d="M220,64.88c-.3,1.36-1.55,2.21-3.32,2.21-2.2,0-3.53-1.45-3.53-3.86s1.35-3.92,3.52-3.92S220,60.73,220,63.09v.54h-5.22v.09a1.85,1.85,0,0,0,1.87,2,1.66,1.66,0,0,0,1.67-.86Zm-5.14-2.4h3.52a1.69,1.69,0,0,0-1.72-1.82A1.79,1.79,0,0,0,214.81,62.48Z"/>
        <path class="g" d="M226.22,69.05V56.57h1.55V69.05Z"/>
        <path class="g" d="M239.37,60.7h.11V59.46h1.65v10h-1.71V65.81h-.11A2.43,2.43,0,0,1,237,67.06c-1.89,0-3.06-1.49-3.06-3.86s1.2-3.86,3.09-3.86A2.54,2.54,0,0,1,239.37,60.7Zm.09,2.5c0-1.49-.73-2.42-1.89-2.42s-1.86.91-1.86,2.42.69,2.42,1.85,2.42S239.46,64.7,239.46,63.2Z"/>
        <path class="g" d="M249.71,66.94h-1.63V65.75H248a2.19,2.19,0,0,1-2.23,1.34,2.46,2.46,0,0,1-2.6-2.77V59.46h1.7V63.9c0,1.14.47,1.7,1.48,1.7A1.6,1.6,0,0,0,248,63.82V59.46h1.69Z"/>
        <path class="g" d="M251.64,57.21a1,1,0,1,1,1,1A1,1,0,0,1,251.64,57.21Zm.17,2.25h1.69v7.48h-1.69Z"/>
        <path class="g" d="M257.83,57.63v1.88h1.59v1.35h-1.59v3.67c0,.74.31,1.07,1,1.07a4.91,4.91,0,0,0,.57,0v1.32a4.5,4.5,0,0,1-.88.09c-1.72,0-2.4-.59-2.4-2V60.86H255V59.51h1.19V57.63Z"/>
        <path class="g" d="M264.33,69.05v-1.3h1.85V57.88h-1.85V56.57h3.49V69.05Z"/>
      </g>
      <g>
        <path class="g" d="M44.41,95.32v-.06l-5-1.93V91.57l6.92,2.91V96L39.43,99V97.21Z"/>
        <path class="g" d="M57.23,94.23A1.55,1.55,0,0,0,55.58,93c-1.16,0-1.85.89-1.85,2.44s.7,2.49,1.85,2.49a1.52,1.52,0,0,0,1.65-1.2h1.61a3,3,0,0,1-3.25,2.62c-2.25,0-3.57-1.45-3.57-3.91s1.32-3.87,3.56-3.87a3,3,0,0,1,3.26,2.67Z"/>
        <path class="g" d="M60.1,95.45c0-2.41,1.37-3.89,3.59-3.89s3.6,1.47,3.6,3.89-1.36,3.89-3.6,3.89S60.1,97.88,60.1,95.45Zm5.44,0c0-1.56-.67-2.46-1.85-2.46s-1.86.9-1.86,2.46.68,2.47,1.86,2.47S65.54,97,65.54,95.45Z"/>
        <path class="g" d="M69,91.71h1.63v1.17h.12a2,2,0,0,1,2-1.29,2.84,2.84,0,0,1,.71.08v1.57a3.78,3.78,0,0,0-.87-.1,1.71,1.71,0,0,0-1.87,1.73v4.32H69Z"/>
        <path class="g" d="M74.91,91.71h1.63v1.2h.12a2.24,2.24,0,0,1,2.22-1.35c1.67,0,2.58,1,2.58,2.79v4.84h-1.7V94.76c0-1.15-.48-1.72-1.51-1.72a1.61,1.61,0,0,0-1.65,1.8v4.35H74.91Z"/>
      </g>
      <g>
        <path class="g" d="M44.72,131.44H38.43v-9.86H40.2v8.32h4.52Z"/>
        <path class="g" d="M52.58,129.39c-.3,1.36-1.56,2.2-3.32,2.2-2.2,0-3.53-1.45-3.53-3.86s1.35-3.91,3.52-3.91,3.41,1.41,3.41,3.77v.55H47.44v.08a1.85,1.85,0,0,0,1.87,2,1.68,1.68,0,0,0,1.67-.86ZM47.44,127H51a1.69,1.69,0,0,0-1.72-1.82A1.8,1.8,0,0,0,47.44,127Z"/>
        <path class="g" d="M56.59,122.13V124h1.6v1.36h-1.6V129c0,.74.31,1.06,1,1.06a5.22,5.22,0,0,0,.58,0v1.33a5.65,5.65,0,0,1-.89.08c-1.72,0-2.4-.58-2.4-2v-4.08H53.72V124H54.9v-1.88Z"/>
        <path class="g" d="M60,125.59v-4h1.49v4Z"/>
        <path class="g" d="M66.4,123.82c1.78,0,2.89.78,3,2.14H67.82c-.12-.52-.62-.86-1.41-.86s-1.36.37-1.36.91.36.68,1.11.85l1.32.3c1.43.33,2.09.94,2.09,2,0,1.44-1.32,2.39-3.19,2.39s-3-.8-3.17-2.16h1.68c.16.55.69.88,1.54.88s1.45-.38,1.45-.93-.33-.69-1-.85l-1.32-.31c-1.44-.32-2.12-1-2.12-2.11C63.4,124.75,64.63,123.82,66.4,123.82Z"/>
        <path class="g" d="M82.18,127.7c0,2.39-1.18,3.87-3.07,3.87a2.39,2.39,0,0,1-2.28-1.26h-.12v3.62H75V124h1.63v1.23h.12a2.55,2.55,0,0,1,2.32-1.36C81,123.84,82.18,125.31,82.18,127.7Zm-1.75,0c0-1.51-.7-2.42-1.86-2.42s-1.88.93-1.89,2.42.72,2.42,1.88,2.42S80.43,129.22,80.43,127.7Z"/>
        <path class="g" d="M84,121.07h1.69v10.37H84Z"/>
        <path class="g" d="M87.36,129.32c0-1.35,1-2.13,2.84-2.24l1.93-.11v-.63c0-.73-.49-1.14-1.41-1.14s-1.31.27-1.47.78h-1.6c.14-1.32,1.38-2.16,3.15-2.16,1.92,0,3,.93,3,2.52v5.1H92.17v-1h-.12a2.46,2.46,0,0,1-2.21,1.15A2.26,2.26,0,0,1,87.36,129.32Zm4.77-.62v-.59l-1.69.11c-1,.06-1.39.4-1.39,1s.54,1,1.29,1A1.64,1.64,0,0,0,92.13,128.7Z"/>
        <path class="g" d="M95.84,124h1.63v1.19h.12a2.24,2.24,0,0,1,2.22-1.34c1.67,0,2.58,1,2.58,2.78v4.84h-1.7V127c0-1.14-.47-1.72-1.51-1.72a1.61,1.61,0,0,0-1.64,1.8v4.35h-1.7Z"/>
        <path class="g" d="M106.63,122.13V124h1.6v1.36h-1.6V129c0,.74.31,1.06,1,1.06a5.22,5.22,0,0,0,.58,0v1.33a5.65,5.65,0,0,1-.89.08c-1.72,0-2.4-.58-2.4-2v-4.08h-1.18V124h1.18v-1.88Z"/>
        <path class="g" d="M118.5,126.48a1.56,1.56,0,0,0-1.65-1.24c-1.16,0-1.85.89-1.85,2.44s.7,2.49,1.85,2.49A1.51,1.51,0,0,0,118.5,129h1.62a3,3,0,0,1-3.26,2.61c-2.25,0-3.57-1.44-3.57-3.91s1.32-3.86,3.56-3.86a3,3,0,0,1,3.27,2.66Z"/>
        <path class="g" d="M121.37,127.7c0-2.41,1.37-3.88,3.59-3.88s3.6,1.46,3.6,3.88-1.36,3.89-3.6,3.89S121.37,130.13,121.37,127.7Zm5.44,0c0-1.55-.67-2.46-1.85-2.46s-1.86.91-1.86,2.46.68,2.47,1.86,2.47S126.81,129.27,126.81,127.7Z"/>
        <path class="g" d="M130.27,124h1.63v1.16H132a2,2,0,0,1,2-1.29,2.84,2.84,0,0,1,.71.08v1.57a3.71,3.71,0,0,0-.87-.1,1.71,1.71,0,0,0-1.87,1.73v4.32h-1.69Z"/>
        <path class="g" d="M136.18,124h1.63v1.19h.12a2.24,2.24,0,0,1,2.22-1.34c1.67,0,2.58,1,2.58,2.78v4.84H141V127c0-1.14-.48-1.72-1.51-1.72a1.61,1.61,0,0,0-1.64,1.8v4.35h-1.7Z"/>
        <path class="g" d="M153.32,126.48a1.56,1.56,0,0,0-1.65-1.24c-1.16,0-1.85.89-1.85,2.44s.69,2.49,1.85,2.49a1.52,1.52,0,0,0,1.65-1.19h1.61a3,3,0,0,1-3.25,2.61c-2.25,0-3.58-1.44-3.58-3.91s1.32-3.86,3.57-3.86a3,3,0,0,1,3.26,2.66Z"/>
        <path class="g" d="M156.55,124h1.63v1.16h.12a2,2,0,0,1,2-1.29,2.81,2.81,0,0,1,.7.08v1.57a3.71,3.71,0,0,0-.87-.1,1.71,1.71,0,0,0-1.86,1.73v4.32h-1.7Z"/>
        <path class="g" d="M161.81,127.7c0-2.41,1.38-3.88,3.6-3.88s3.6,1.46,3.6,3.88-1.36,3.89-3.6,3.89S161.81,130.13,161.81,127.7Zm5.45,0c0-1.55-.67-2.46-1.85-2.46s-1.86.91-1.86,2.46.68,2.47,1.86,2.47S167.26,129.27,167.26,127.7Z"/>
        <path class="g" d="M177.87,127.7c0,2.39-1.17,3.87-3.06,3.87a2.39,2.39,0,0,1-2.28-1.26h-.12v3.62h-1.7V124h1.64v1.23h.11a2.56,2.56,0,0,1,2.33-1.36C176.68,123.84,177.87,125.31,177.87,127.7Zm-1.74,0c0-1.51-.71-2.42-1.87-2.42s-1.88.93-1.88,2.42.72,2.42,1.88,2.42S176.13,129.22,176.13,127.7Z"/>
        <path class="g" d="M182.4,123.82c1.77,0,2.89.78,3,2.14h-1.59c-.12-.52-.62-.86-1.42-.86s-1.35.37-1.35.91.36.68,1.11.85l1.32.3c1.43.33,2.09.94,2.09,2,0,1.44-1.32,2.39-3.19,2.39s-3-.8-3.17-2.16h1.68c.16.55.69.88,1.53.88s1.45-.38,1.45-.93-.32-.69-1-.85l-1.32-.31c-1.44-.32-2.12-1-2.12-2.11C179.4,124.75,180.63,123.82,182.4,123.82Z"/>
        <path class="g" d="M187.49,130.53a1.14,1.14,0,1,1,1.14,1.09A1,1,0,0,1,187.49,130.53Zm2.08-9-.16,6.61h-1.58l-.16-6.61Z"/>
      </g>
    </symbol>
  </defs>
  <use width="308.6" height="187.81" transform="translate(55.22 75.11)" xlink:href="#a"/>
  <g>
    <circle class="h" cx="209.52" cy="311.94" r="23.72"/>
    <path class="i" d="M209.06,303.43h-.27l-5.27,3.63v-4.18l5.56-3.83h4.48v21.49h-4.5Z"/>
  </g>
  <g>
    <circle class="h" cx="648.76" cy="311.94" r="23.72"/>
    <path class="i" d="M648.85,298.5c4.56,0,7.48,2.63,7.48,6.27,0,2.51-1.1,4.24-4.68,7.59l-4.46,4.17v.27h9.44v3.74H641.12V317.4l7.54-7.21c2.68-2.58,3.26-3.56,3.26-5a3,3,0,0,0-3.32-3.06,3.33,3.33,0,0,0-3.56,3.5h-4.17C640.87,301.4,644.15,298.5,648.85,298.5Z"/>
  </g>
  <use width="308.6" height="187.81" transform="translate(494.47 75.11)" xlink:href="#a"/>
  <g>
    <path class="j" d="M647.88,243.88c-.69,9.43,95,111.67,184.35,33.32,43.9-38.5,78.87-165,24.9-209.85-74.83-62.1-181.69-.66-210.3,29.58"/>
    <polygon class="k" points="641.3 89.8 639.65 107.67 655.96 100.16 641.3 89.8"/>
  </g>
  <g>
    <path class="k" d="M685.62,51.78l-3,1.94-1.21-1.92-.2.13a4,4,0,0,1-2.1,4.38c-2.57,1.64-5.22,1-7-1.76l-4.94-7.77,3.14-2,4.43,7c1,1.65,2.33,2,3.78,1.09s1.78-2.51.77-4.1l-4.37-6.88,3.15-2Z"/>
    <path class="k" d="M682.65,37.52,685.94,36l.94,2.06.21-.09a4.19,4.19,0,0,1,2.74-4.07c2.86-1.3,5.2-.24,6.59,2.84l3.77,8.33-3.4,1.54-3.4-7.53c-.81-1.77-2-2.36-3.6-1.63s-2,2.26-1.28,4l3.37,7.43-3.4,1.54Z"/>
    <path class="k" d="M701.65,25.87l1.23,3.27,2.75-1,1,2.75-2.75,1,2.24,6a1.57,1.57,0,0,0,2.35,1,9.57,9.57,0,0,0,1-.43l1,2.66a10,10,0,0,1-1.69.81c-3.22,1.21-4.88.65-5.85-1.93l-2.55-6.78-2.07.77-1-2.75,2.06-.77-1.23-3.28Z"/>
    <path class="k" d="M707.18,22.94a2.12,2.12,0,1,1,2.7,1.33A2.13,2.13,0,0,1,707.18,22.94Zm1.62,3.94,3.52-1.21L716.92,39l-3.52,1.21Z"/>
    <path class="k" d="M714.46,19.27,718,18.1l6.08,18.56-3.54,1.16Z"/>
    <path class="k" d="M727.56,33.56A2.27,2.27,0,1,1,730.38,35,2.13,2.13,0,0,1,727.56,33.56Z"/>
    <path class="k" d="M736.22,31A2.27,2.27,0,1,1,739,32.48,2.14,2.14,0,0,1,736.22,31Z"/>
    <path class="k" d="M745,28.54a2.27,2.27,0,1,1,2.74,1.62A2.14,2.14,0,0,1,745,28.54Z"/>
  </g>
</svg>
